<svg width="55" height="55" fill="none" xmlns="http://www.w3.org/2000/svg"><path d="M34.97 50.413a1.44 1.44 0 01-.436-.069 25.669 25.669 0 00-14.048 0c-.848.23-1.742-.252-1.97-1.1a1.582 1.582 0 011.1-1.97 28.962 28.962 0 0115.812 0c.848.252 1.352 1.122 1.1 1.97-.23.71-.871 1.169-1.559 1.169zm9.055-35.835c-2.384-4.812-6.99-8.364-12.33-9.533-5.591-1.237-11.32.092-15.697 3.62-4.4 3.507-6.898 8.755-6.898 14.37 0 5.935 3.552 12.146 8.914 15.743v1.903c-.023.641-.046 1.627.733 2.429.803.825 1.994.916 2.934.916h11.756c1.238 0 2.177-.343 2.819-.985.87-.894.848-2.04.825-2.658v-1.605c7.104-4.79 11.573-14.895 6.944-24.2zM31.443 26.633l-2.452 4.262c-.32.55-.893.87-1.49.87-.297 0-.595-.068-.847-.228a1.729 1.729 0 01-.642-2.338l1.948-3.391h-1.925c-1.146 0-2.085-.505-2.59-1.352-.504-.871-.458-1.925.115-2.934l2.452-4.262a1.729 1.729 0 012.338-.642c.825.481 1.1 1.535.641 2.338l-1.948 3.391h1.925c1.146 0 2.086.504 2.59 1.352.504.871.458 1.948-.115 2.934z" fill="#1C54AD"/></svg>