<svg width="43" height="41" viewBox="0 0 43 41" fill="none" xmlns="http://www.w3.org/2000/svg">
<g clip-path="url(#clip0_3133_2451)">
<path d="M5.39883 41C5.39787 35.2005 5.3974 29.4011 5.39644 23.6017C5.39644 23.1197 5.39405 22.6377 5.39692 22.1557C5.40074 21.611 5.79156 21.2008 6.29753 21.2042C6.79633 21.208 7.1819 21.6028 7.18572 22.1397C7.19289 23.1197 7.18811 24.0996 7.18811 25.0795C7.18811 29.7144 7.18811 34.3488 7.18811 38.9838C7.18811 39.2334 7.31488 39.3583 7.56842 39.3583C10.3391 39.3583 13.1102 39.3588 15.8808 39.3583C16.1885 39.3583 16.189 39.3573 16.189 39.0411C16.189 35.3143 16.189 31.587 16.189 27.8601C16.189 27.7724 16.189 27.6852 16.189 27.5782H26.981C26.981 27.6688 26.981 27.7608 26.981 27.8529C26.981 31.572 26.981 35.2907 26.981 39.0098C26.981 39.2415 27.0973 39.3575 27.3298 39.3578C30.1004 39.3578 32.8715 39.3578 35.6422 39.3578C35.8651 39.3578 35.9768 39.2423 35.9771 39.0112C35.9771 33.7261 35.9771 28.4405 35.9771 23.1553C35.9771 22.6319 36.1524 22.3378 36.5547 22.1793C37.1104 21.9604 37.7253 22.3509 37.7692 22.9529C37.7764 23.0488 37.7721 23.1457 37.7721 23.2421C37.7721 29.0497 37.7721 34.8569 37.773 40.6645C37.773 40.7758 37.785 40.8877 37.7917 40.999H25.1784C25.1803 40.9267 25.1836 40.8544 25.1836 40.7821C25.1836 37.0876 25.1836 33.393 25.1836 29.698C25.1836 29.3717 25.1826 29.3703 24.853 29.3703C22.6796 29.3703 20.5062 29.3703 18.3328 29.3703C18.0986 29.3703 17.9813 29.4882 17.9806 29.724C17.9806 33.3704 17.9806 37.0172 17.9797 40.6635C17.9797 40.7754 17.9692 40.8872 17.9639 40.999H5.39883V41Z" fill="white"/>
<path d="M0 20.9487C0.583844 20.1173 1.38126 19.4955 2.10031 18.7995C7.95357 13.1345 13.8183 7.48211 19.6797 1.82582C20.2492 1.27634 20.8187 0.726858 21.3887 0.17834C21.4455 0.123392 21.5053 0.0713362 21.5836 0C21.7054 0.11327 21.8225 0.218347 21.9353 0.327279C28.4526 6.61595 34.9695 12.9051 41.4869 19.1943C41.947 19.6382 42.4066 20.0831 42.8677 20.5255C42.9049 20.5612 42.9556 20.5829 43 20.6113V21.7681C42.6837 22.0747 42.3249 22.2352 41.8992 22.0279C41.7391 21.9499 41.5992 21.8188 41.4687 21.6925C37.775 18.1305 34.0842 14.5656 30.3919 11.0022C27.5219 8.23258 24.649 5.4659 21.7838 2.6915C21.6242 2.53726 21.5411 2.54304 21.3853 2.69294C15.5459 8.33573 9.70176 13.9742 3.85806 19.6131C3.13327 20.3125 2.40704 21.01 1.68273 21.7098C1.04347 22.3277 0.505489 22.2607 0.0396556 21.5026C0.0324889 21.491 0.0133778 21.4862 0 21.4785C0 21.3016 0 21.1252 0 20.9483L0 20.9487Z" fill="white"/>
<path d="M32.2438 3.06407C33.3981 3.06407 34.5525 3.06841 35.7068 3.06022C35.9055 3.05877 35.9829 3.09878 35.9824 3.32146C35.9743 5.62639 35.9781 7.93084 35.9762 10.2358C35.9762 10.7371 35.7139 11.0957 35.2806 11.2075C34.8941 11.3073 34.4521 11.113 34.2806 10.7342C34.2075 10.5727 34.1745 10.3789 34.1736 10.1996C34.1659 8.52949 34.1693 6.85887 34.1688 5.18874C34.1688 4.87351 34.1678 4.87254 33.8539 4.87254C32.1822 4.87254 30.5105 4.87447 28.8387 4.87062C28.2291 4.86917 27.8468 4.46814 27.8889 3.89119C27.9233 3.41979 28.2964 3.06793 28.7809 3.066C29.9352 3.06215 31.0895 3.06456 32.2438 3.06456V3.06407Z" fill="white"/>
</g>
<defs>
<clipPath id="clip0_3133_2451">
<rect width="43" height="41" fill="white"/>
</clipPath>
</defs>
</svg>
