<svg width="38" height="47" viewBox="0 0 38 47" fill="none" xmlns="http://www.w3.org/2000/svg">
<g clip-path="url(#clip0_3133_2455)">
<path d="M9.72082 44.6788C9.2456 45.923 8.42909 46.672 7.17663 46.9367C5.47148 47.297 3.62918 46.0037 3.41604 44.263C3.37354 43.9144 3.38513 43.556 3.39865 43.2028C3.48558 40.9779 3.57702 38.7535 3.67361 36.5292C3.76634 34.3908 3.86615 32.253 3.9621 30.1152C3.96467 30.0629 3.9621 30.0106 3.9621 29.9202C3.40058 30.1378 2.841 30.2082 2.2782 30.0842C0.950403 29.7923 0.0289297 28.6902 0.0199145 27.3169C0.00124037 24.4656 -0.0174338 21.6137 0.0295736 18.7637C0.0649901 16.624 0.723094 14.6592 2.05282 12.9663C3.10115 11.631 4.48304 10.7871 6.18046 10.6251C7.36079 10.5127 8.55594 10.5605 9.74529 10.547C10.5393 10.5379 11.3339 10.5289 12.1272 10.5495C14.4673 10.6102 16.2523 11.6646 17.5125 13.6274C17.7089 13.9335 17.8576 14.2712 18.0495 14.5811C18.0959 14.6553 18.2272 14.7147 18.32 14.7154C18.6728 14.7186 19.0264 14.6773 19.3779 14.6883C19.5589 14.6941 19.6362 14.6373 19.7179 14.4829C20.85 12.3606 22.6118 11.09 24.9583 10.6264C25.2397 10.5709 25.532 10.5515 25.8192 10.5502C27.0962 10.5424 28.3731 10.5431 29.65 10.547C32.927 10.5579 36.0295 13.0205 36.6309 16.4845C36.9915 18.5584 37.242 20.6516 37.5402 22.7371C37.6786 23.705 37.7997 24.6748 37.9523 25.6401C38.2215 27.3453 37.3264 29.0498 35.7481 29.7652C35.5369 29.8608 35.4628 29.9583 35.4995 30.1894C35.5981 30.8157 35.6753 31.4446 35.7591 32.0735C35.9091 33.2028 35.1982 34.026 34.0558 34.0389C33.4125 34.046 32.7699 34.0402 32.088 34.0402C32.0178 34.6413 31.9457 35.2314 31.8806 35.8229C31.7834 36.7068 31.6926 37.5907 31.596 38.4746C31.4988 39.3585 31.397 40.2425 31.2985 41.1257C31.1987 42.0206 31.1002 42.9155 31.0004 43.8104C30.9572 44.1939 30.9398 44.5826 30.8632 44.959C30.4788 46.8425 28.4278 47.6056 26.8985 46.4434C26.8309 46.3918 26.7652 46.3375 26.7014 46.2865C25.7999 47.0155 24.8108 47.2512 23.7754 46.6856C23.3626 46.4602 23.1186 46.4499 22.6929 46.6668C21.5203 47.2641 20.4128 47.031 19.414 46.1548C18.8203 46.7004 18.1313 47.0052 17.3019 46.9768C16.4667 46.9477 15.8054 46.5868 15.2297 45.9631C14.3655 46.8173 13.3275 47.1588 12.133 46.8993C10.9366 46.6391 10.1774 45.8604 9.72082 44.6788ZM16.6122 15.3682C16.5929 15.3255 16.5813 15.2952 16.5665 15.2674C16.4925 15.1247 16.4191 14.9814 16.3418 14.8406C15.3656 13.0657 13.8807 12.1527 11.8452 12.1611C10.2572 12.1676 8.66863 12.1611 7.08068 12.1644C5.61251 12.1669 4.37808 12.7241 3.43664 13.8399C2.35805 15.1183 1.76176 16.6369 1.69544 18.2969C1.60979 20.4457 1.64907 22.5996 1.64135 24.751C1.63813 25.6439 1.62654 26.5375 1.66517 27.4292C1.69093 28.0232 2.16358 28.461 2.71865 28.4991C3.37354 28.5443 3.87194 28.2118 4.02327 27.6048C4.06641 27.4311 4.05804 27.2426 4.05804 27.0605C4.05933 23.9187 4.05804 20.7769 4.05869 17.6344C4.05869 17.0856 4.39482 16.7047 4.87262 16.7105C5.36781 16.7163 5.68591 17.1166 5.68012 17.6286C5.63182 22.2103 5.76769 26.7945 5.54038 31.3742C5.48823 32.4267 5.44766 33.4797 5.39872 34.5322C5.31887 36.2503 5.23387 37.9684 5.15531 39.6872C5.09542 40.9972 5.05164 42.3086 4.98338 43.6186C4.94024 44.4509 5.55584 45.2515 6.34402 45.3445C7.28288 45.4556 8.09102 44.8687 8.1831 43.9673C8.25522 43.2622 8.27647 42.552 8.31253 41.8437C8.38465 40.4374 8.44969 39.0305 8.52053 37.6236C8.62227 35.6046 8.72594 33.5863 8.83155 31.5679C8.85924 31.0424 8.86761 30.5136 8.93973 29.9938C8.99897 29.5638 9.34992 29.3197 9.76139 29.3359C10.1619 29.3514 10.4671 29.6445 10.5238 30.0706C10.5354 30.1559 10.5431 30.2417 10.5476 30.3276C10.6384 32.1006 10.7299 33.873 10.8181 35.646C10.9527 38.3429 11.0885 41.0399 11.2173 43.7368C11.2631 44.6879 11.9933 45.4188 12.9985 45.3535C13.8279 45.2993 14.5568 44.5077 14.5561 43.6064C14.5561 42.2724 14.5561 40.9378 14.5561 39.6039C14.5561 38.7768 14.5561 37.949 14.5561 37.1323C13.6173 36.7294 13.0751 36.0437 12.9663 35.0513C12.9199 34.6258 12.9437 34.1913 12.9469 33.7613C12.9618 32.0192 12.9032 30.2721 13.0165 28.5365C13.1762 26.0914 15.1821 23.9555 17.5917 23.6023C18.4867 23.4713 19.4101 23.4855 20.3194 23.5042C23.456 23.5688 25.8785 26.0636 25.8907 29.2093C25.8946 30.1778 25.892 31.1463 25.8933 32.1148C25.8933 32.2065 25.9036 32.2988 25.9088 32.3769H34.1486C34.1331 32.2084 34.1254 32.0703 34.1067 31.9327C33.9451 30.7434 33.7789 29.5554 33.6199 28.3661C33.4396 27.0186 33.2683 25.6698 33.0861 24.3223C32.9251 23.1349 32.7519 21.9501 32.589 20.7627C32.419 19.5237 32.258 18.2833 32.0867 17.0449C32.0287 16.6285 32.3191 16.2114 32.7525 16.1178C33.1498 16.0319 33.5993 16.3166 33.6791 16.7253C33.739 17.0301 33.7725 17.34 33.8137 17.648C33.9947 18.9974 34.1717 20.3475 34.354 21.697C34.5375 23.058 34.7262 24.4185 34.9123 25.7795C35.0211 26.573 35.1293 27.3666 35.2388 28.1704C36.0314 27.7914 36.4931 26.8307 36.3586 25.9093C36.1918 24.7716 36.0347 23.6327 35.8705 22.4944C35.5955 20.5813 35.3547 18.6617 35.0327 16.7563C34.5922 14.1472 32.2309 12.1837 29.5876 12.165C28.4394 12.1566 27.2913 12.1663 26.1431 12.1624C24.8636 12.1579 23.7252 12.5692 22.718 13.3446C22.0657 13.847 21.5384 14.4597 21.17 15.2042C23.8127 16.8429 23.9673 20.0783 22.2583 21.9662C20.5467 23.8567 17.6078 23.8903 15.8653 22.0708C14.1125 20.241 14.1949 17.0533 16.6129 15.3694L16.6122 15.3682ZM16.1731 40.2476C16.1731 41.517 16.1679 42.7864 16.175 44.0551C16.1802 45.0036 17.0347 45.6221 17.8602 45.269C18.3921 45.0417 18.6142 44.6033 18.6136 44.0325C18.611 41.8063 18.6123 39.5794 18.6129 37.3531C18.6129 36.8301 18.9452 36.4505 19.4063 36.4408C19.8654 36.4311 20.2189 36.8101 20.2241 37.3292C20.2292 37.8457 20.2254 38.3616 20.2254 38.8782C20.2254 40.6208 20.2202 42.3635 20.2267 44.1055C20.2299 45.0268 21.105 45.6286 21.9189 45.2599C22.4534 45.0178 22.6659 44.5555 22.6652 43.9802C22.664 41.4737 22.664 38.9679 22.6652 36.4614C22.6652 35.9972 22.946 35.697 23.4013 35.6589C23.9634 35.6117 24.2732 35.2792 24.2764 34.7123C24.2796 34.1422 24.2835 33.5721 24.277 33.002C24.2603 31.5511 24.3008 30.0965 24.201 28.6514C24.0838 26.9521 22.7155 25.4832 21.0445 25.2184C20.2788 25.0971 19.4855 25.1558 18.705 25.1248C16.6966 25.0441 14.6624 26.5743 14.5748 29.0421C14.5066 30.9545 14.5536 32.8709 14.5619 34.7853C14.5639 35.2747 14.8974 35.6072 15.3797 35.6582C15.9335 35.7176 16.1724 35.9791 16.1731 36.5357C16.1744 37.7728 16.1731 39.0099 16.1731 40.2463V40.2476ZM21.9131 19.0439C21.917 17.4207 20.6317 16.1371 18.9864 16.1229C17.4551 16.1094 16.1119 17.4511 16.1067 18.9994C16.101 20.6207 17.4023 21.9456 19.0057 21.9527C20.6021 21.9591 21.9093 20.6516 21.9131 19.0439ZM27.5019 34.0557C27.5019 34.1616 27.5019 34.2358 27.5019 34.3094C27.5019 37.397 27.5019 40.4839 27.5019 43.5715C27.5019 43.8621 27.4903 44.1533 27.5057 44.4425C27.5315 44.93 27.9288 45.329 28.3873 45.3484C28.885 45.3697 29.2315 45.1063 29.2862 44.6291C29.4478 43.2099 29.5946 41.7888 29.7505 40.369C29.8889 39.11 30.0338 37.8516 30.1729 36.5925C30.2656 35.7538 30.3545 34.9144 30.4466 34.0557H27.5012H27.5019ZM24.2822 37.1271C24.2822 39.0221 24.2873 40.8939 24.2796 42.7657C24.277 43.3881 24.2551 44.0112 24.2146 44.6317C24.1882 45.0327 24.4039 45.3206 24.8076 45.3464C25.4432 45.3878 25.8836 44.9565 25.8862 44.2727C25.8914 42.7773 25.8888 41.2813 25.8888 39.786C25.8888 38.2803 25.8888 36.7746 25.8888 35.2682C25.6557 36.1457 25.145 36.7726 24.2822 37.1265V37.1271Z" fill="white"/>
<path d="M4.88901 4.85415C4.83299 2.276 6.99597 0.0897771 9.55304 0.00261213C12.3445 -0.0923008 14.5989 2.24372 14.5706 4.89935C14.5429 7.50203 12.3986 9.66372 9.82994 9.71925C7.09063 9.778 4.82526 7.49041 4.88901 4.85415ZM6.50851 4.83284C6.43639 6.59422 7.96445 8.09798 9.68827 8.0954C11.4707 8.09281 12.917 6.67558 12.9517 4.92776C12.9865 3.18833 11.5995 1.74139 9.95937 1.63421C7.84339 1.49539 6.4351 3.28905 6.50851 4.83284Z" fill="white"/>
<path d="M32.3304 4.8832C32.3929 7.43746 30.1694 9.82578 27.2994 9.71601C24.7674 9.61916 22.6637 7.46264 22.6514 4.87029C22.6385 2.26631 24.8389 -0.0871392 27.6664 0.00260839C30.1913 0.082671 32.4019 2.2534 32.3304 4.8832ZM24.2812 4.82897C24.2155 6.57291 25.6934 8.08248 27.4281 8.09216C29.2428 8.10249 30.6781 6.6943 30.7245 4.93163C30.7702 3.20705 29.3748 1.72525 27.7083 1.63227C25.5826 1.51411 24.2117 3.31229 24.2812 4.82832V4.82897Z" fill="white"/>
</g>
<defs>
<clipPath id="clip0_3133_2455">
<rect width="38" height="47" fill="white"/>
</clipPath>
</defs>
</svg>
