<svg width="113" height="113" fill="none" xmlns="http://www.w3.org/2000/svg"><g clip-path="url(#clip0_3133_2514)" fill="#1C54AD"><path d="M.06 63.733c0-5.71.003-11.42 0-17.13-.006-5.71-.024-11.42-.025-17.131 0-2.78-.112-5.57.076-8.338.137-2 1.236-3.567 3.076-4.569 1.326-.722 2.708-.983 4.198-.97 3.683.03 7.367.013 11.05.015.881 0 .987-.147.974-1.049-.015-1.082.057-2.164.028-3.245-.026-.948 1.076-1.417 1.856-1.433 1.42-.032 2.841 0 4.262-.018.957-.011 1.09-.16 1.152-1.108.113-1.73.416-3.425 1.455-4.856.807-1.11 1.78-2.044 3.02-2.743C33.146.05 35.23-.024 37.385.03 39.29.08 41.2 0 43.108.008c1.865.008 3.74-.068 5.59.117 2.604.26 4.726 1.538 6.215 3.71a7.999 7.999 0 011.421 4.711c-.016 1.347.09 1.444 1.433 1.468 1.186.022 2.377-.056 3.557.028.632.045 1.31.228 1.85.547.737.434.606 1.297.639 2.025.038.846.042 1.695.009 2.54-.027.666.312.85.891.847 1.4-.009 2.8-.003 4.2-.005 2.883-.005 5.766-.038 8.648-.01 1.972.019 3.351 1.134 4.452 2.643.811 1.113 1.101 2.39 1.085 3.76-.023 1.887-.012 3.775-.013 5.662-.001 1.972-.004 3.945 0 5.917.004 1.908.02 3.818.02 5.727 0 1.908-.022 3.817-.022 5.725 0 1.889.019 3.776.016 5.664a763.892 763.892 0 01-.036 7.447c-.007.702-.91 1.428-1.69 1.424-.968-.005-1.644-.526-1.677-1.372-.052-1.312-.055-2.626-.071-3.94-.023-1.928-.052-3.856-.054-5.785 0-1.865.044-3.73.045-5.594 0-1.928-.037-3.857-.037-5.785 0-1.885.04-3.771.038-5.657 0-1.927-.036-3.855-.046-5.784-.006-1.25.051-2.502 0-3.75-.098-2.385-1.255-2.885-3.124-3.028-1.722-.131-3.465.033-5.199.045-.676.005-1.354-.07-2.03-.077a194.564 194.564 0 00-4.315.003c-.891.011-1.056.163-1.077 1.018-.027 1.058.046 2.122-.022 3.177a5.327 5.327 0 01-.437 1.815c-.363.805-1.231.684-1.906.71-1.715.064-3.434.007-5.152.008-2.014 0-4.027.018-6.04.013-2.249-.007-4.496-.045-6.744-.042-2.946.002-5.893.046-8.84.044-3.158 0-6.318-.026-9.476-.05-1.462-.012-2.924-.016-4.385-.076-.894-.037-1.383-.592-1.392-1.493-.013-1.378-.006-2.757.006-4.134.007-.706-.268-1-1-.989-1.628.026-3.257.085-4.885.084-1.798-.002-3.597-.104-5.394-.071-1.029.019-2.064.167-3.077.362-.794.152-1.54 1.279-1.552 2.195a535.28 535.28 0 00-.033 5.667c-.004 3.672-.004 7.344 0 11.015.005 5.817.021 11.633.021 17.449 0 6.877-.019 13.755-.019 20.632 0 5.944.014 11.887.017 17.832.001 4.034-.007 8.066-.01 12.1 0 1.218 1.055 2.425 2.27 2.468 1.69.06 3.382.039 5.074.053 2.203.018 4.403.041 6.605.051 2.58.012 5.162.016 7.743.018 2.54.003 5.077-.002 7.617-.002h7.554c2.581 0 5.162-.003 7.743-.004h7.558l7.683.001c2.411.003 4.822.014 7.234.009.782-.001 1.563-.069 2.344-.059 1.32.017 2.115 1.199 1.55 2.379-.34.71-1.06.939-1.816.938-3.265-.003-6.529-.028-9.793-.027-3.075 0-6.15.028-9.224.033-4.092.007-8.184.003-12.276.001-3.56 0-7.123-.005-10.684-.005-4.05 0-8.1.008-12.149.002-4.154-.007-8.311.025-12.463-.079-.966-.025-1.92-.528-2.875-.831-1.198-.381-1.857-1.402-2.412-2.376-.557-.977-.78-2.122-.77-3.301.039-4.5.036-9 .036-13.502 0-4.563-.019-9.127-.023-13.69-.003-4.947 0-9.893 0-14.839H.06v-.002zm50.55-41.057v-.038h.891c2.606 0 5.213.005 7.819.002.829 0 .942-.122.952-.968.006-.382.017-.765.016-1.146-.007-2.076-.016-4.153-.027-6.231-.003-.548-.278-.826-.833-.801-.632.028-1.265.089-1.896.084-2.116-.02-4.233-.086-6.348-.09-1.834-.002-3.67.068-5.503.08-.827.005-1.653-.082-2.479-.077-1.836.011-3.674.065-5.51.079-.698.005-1.396-.079-2.094-.074-1.883.013-3.766.074-5.649.074-1.84 0-3.68-.053-5.52-.079-.231-.002-.464.032-.697.037-.557.011-.791.294-.786.845.012 1.292.001 2.583.004 3.877.002 1.27.006 2.54.014 3.81.002.403.17.612.621.61 3.625-.007 7.25.002 10.874.004 3.581.002 7.164 0 10.745 0h5.404l.003.002zM41.574 9.84v.028h5.085c1.8 0 3.603.009 5.404-.003.445-.002.911-.004.911-.676 0-1.73-.46-3.236-1.858-4.386-.768-.63-1.573-1.164-2.566-1.265-.819-.083-1.65-.048-2.476-.047-3.39.005-6.78.088-10.168-.004-1.493-.04-2.754.323-3.86 1.255-1.287 1.086-1.937 2.497-1.863 4.19.035.797.171.901.968.904 3.475.009 6.95.004 10.423.004z"/><path d="M112.934 86.636c0 .954.042 1.91-.013 2.86-.052.904-.866 1.594-1.761 1.706a76.42 76.42 0 00-4.07.626c-.176.031-.355.323-.441.53-.531 1.281-.934 2.627-1.579 3.845-.572 1.079.025 1.694.564 2.424a116.94 116.94 0 012.021 2.826c.292.422.205 1.278-.166 1.663-1.285 1.334-2.563 2.675-3.888 3.968-.81.792-1.709.824-2.701.127-.861-.607-1.685-1.271-2.498-1.942-.612-.507-1.09-.528-1.787-.156-.753.404-1.556.722-2.347 1.05-.541.226-1.113.379-1.643.626-.168.078-.312.341-.349.543-.203 1.103-.345 2.219-.564 3.319-.11.547-.23 1.153-.549 1.581-.266.358-.819.683-1.26.702-1.841.084-3.688.071-5.533.046-.855-.012-1.683-1.034-1.806-2.016-.152-1.194-.364-2.38-.54-3.571-.059-.399-.247-.575-.652-.726-1.257-.469-2.484-1.021-3.712-1.568-.592-.263-1.144-.29-1.672.11-.752.571-1.505 1.142-2.24 1.737-1.277 1.034-2.135.991-3.282-.212-1.093-1.145-2.177-2.3-3.262-3.453-.782-.83-.759-1.596.084-2.729.644-.865 1.296-1.724 1.935-2.591.386-.525.32-1.068.019-1.61-.153-.275-.326-.542-.442-.832-.38-.95-.737-1.91-1.108-2.863-.258-.668-.856-.748-1.454-.836-1.088-.158-2.18-.296-3.26-.5-1.187-.228-1.632-.913-1.6-2.123.042-1.59.024-3.182.015-4.773-.008-1.191.406-1.695 1.59-1.88 1.21-.19 2.418-.39 3.628-.573.549-.083.914-.318 1.103-.89a51.703 51.703 0 011.142-3.072c.147-.366.493-.672.566-1.04.067-.346 0-.81-.19-1.102-.772-1.18-1.656-2.288-2.4-3.483-.183-.296-.168-.957.042-1.216 1.077-1.323 2.247-2.57 3.386-3.842.141-.157.28-.319.44-.456 1.189-1.013 1.425-1.063 2.76-.134.83.578 1.58 1.274 2.372 1.911.569.459 1.038.395 1.74.001.723-.406 1.507-.707 2.28-1.022.543-.221 1.13-.345 1.653-.602.213-.105.398-.43.441-.683.24-1.373.424-2.757.645-4.134.1-.63.826-1.29 1.5-1.342.76-.059 1.524-.082 2.287-.088 1.06-.009 2.118.017 3.178.018.826 0 1.4.447 1.644 1.163.276.808.382 1.675.553 2.518.141.698.225 1.411.428 2.09.071.24.393.436.642.585.248.15.552.204.822.319.984.419 1.973.824 2.941 1.276.685.32 1.264.157 1.835-.248a144.28 144.28 0 012.591-1.803c.94-.633 2.005-.409 2.839.495.887.96 1.841 1.86 2.737 2.815.386.413.772.858 1.024 1.356.379.75-.165 1.344-.552 1.9-.602.867-1.319 1.656-1.895 2.537-.21.323-.283.849-.193 1.229.136.582.482 1.112.713 1.675.318.776.661 1.55.9 2.35.142.475.367.766.839.817.8.087 1.603.14 2.405.202 1.095.082 2.155.258 2.798 1.289.181.29.32.647.341.982.05.76.016 1.527.016 2.29h-.055l.005.004zm-42.29-14.7c.741.975 1.414 1.894 2.125 2.783.565.709.889 1.474.53 2.348-.34.831-.841 1.597-1.171 2.431a63.398 63.398 0 00-1.495 4.215c-.185.587-.5 1.026-1.05 1.156a27.89 27.89 0 01-3.19.559c-1.384.158-1.388.12-1.412 1.482-.016.837.14.997.998 1.097 1.027.12 2.05.26 3.076.388.7.088 1.177.487 1.407 1.124.266.732.395 1.518.697 2.233.612 1.453 1.258 2.898 1.98 4.298.35.679.461 1.521.005 2.134-.592.795-1.202 1.577-1.793 2.373-.275.371-.702.803-.346 1.244.398.493.969.85 1.477 1.25.038.03.191-.05.267-.109.825-.625 1.636-1.265 2.465-1.883.84-.625 1.692-.846 2.696-.266 1.902 1.098 3.943 1.879 6.059 2.471.848.237 1.364.893 1.482 1.767.124.92.285 1.834.454 2.748.076.413.085 1.013.345 1.173.336.208.894.032 1.35.077.537.051.718-.23.784-.691.158-1.09.33-2.178.487-3.269.145-1.012.886-1.635 1.911-1.811.991-.17 2.005-.379 2.916-.783 1.11-.493 2.106-1.241 3.19-1.802.334-.172.82-.189 1.196-.102.37.088.706.376 1.028.616.794.592 1.573 1.208 2.36 1.812.389.298.745.226 1.066-.118.144-.154.282-.314.424-.471.545-.603.579-.86.092-1.548a19.375 19.375 0 00-1.254-1.589c-1.003-1.144-1.133-2-.439-3.34.193-.373.483-.704.627-1.091.588-1.582 1.169-3.169 1.683-4.775.207-.642.507-1.155 1.155-1.31 1.001-.24 2.025-.389 3.038-.586 1.507-.293 1.582-.413 1.578-1.911-.001-.512-.195-.732-.687-.781-.99-.098-1.977-.223-2.967-.334-1.355-.153-1.722-.451-2.072-1.658-.293-1.011-.508-2.06-.925-3.02-.475-1.091-1.124-2.11-1.723-3.145-.369-.638-.278-1.535.187-2.134.8-1.028 1.559-2.09 2.382-3.2-.39-.451-.731-.907-1.135-1.296-.321-.308-.722-.319-1.103-.034-.843.633-1.696 1.252-2.533 1.894-.659.506-1.828.56-2.513.134-1.588-.986-3.304-1.657-5.11-2.146-1.641-.444-2.348-.76-2.454-2.545-.042-.71-.201-1.415-.33-2.118-.262-1.434-.27-1.417-1.7-1.532-.438-.036-.65.142-.723.523-.191 1.02-.511 2.042-.508 3.063.005 1.738-.897 2.315-2.348 2.52-1.887.268-3.487 1.121-5.037 2.113-1.054.674-1.764.717-2.789-.034-.813-.595-1.6-1.23-2.45-1.768-.264-.167-.794-.223-1.027-.066-.474.318-.829.816-1.235 1.242l.002-.001zM16.437 36.407h9.534c1.61 0 3.223-.062 4.83.016.766.037 1.646.073 2.097.91.142.264.255.586.252.88-.02 2.417-.081 4.834-.11 7.251-.021 1.868.012 3.737-.029 5.605-.018.813-.158 1.625-1.07 1.98-.212.084-.438.185-.66.19-1.334.02-2.669.008-4.004.017-1.886.013-3.77.045-5.656.046-1.886 0-3.772-.03-5.658-.04-1.611-.007-3.224-.028-4.833 0-1.143.02-2.135-.6-2.163-1.865-.018-.802-.02-1.605-.036-2.409-.015-.741-.06-1.483-.056-2.223.012-1.886.052-3.77.063-5.656.003-.741-.065-1.483-.059-2.224.013-1.904.683-2.368 2.414-2.466 1.71-.096 3.43-.021 5.145-.021v.009h-.001zM21 49.792h7.5c.786 0 .991-.18.995-.965.012-2.688.012-5.376.005-8.064-.001-.636-.258-.892-.886-.897-1.458-.01-2.917-.013-4.375.001-1.774.018-3.55.082-5.324.082-1.838 0-3.677-.064-5.514-.08-.733-.006-1.014.272-1.017.992a850.43 850.43 0 00.002 7.825c.005.842.286 1.103 1.113 1.105 2.5.005 5 .002 7.501 0l-.001.001zm.012 32.296h9.65c.232 0 .465 0 .695.023 1.052.102 1.674.733 1.678 1.785.01 3.14-.01 6.279-.013 9.417 0 1.04.02 2.08.017 3.119 0 .294-.006.603-.086.882-.335 1.157-.684 1.448-1.899 1.458-1.863.017-3.727-.029-5.59-.031-1.844-.003-3.687.025-5.528.022-2.203-.002-4.406-.029-6.609-.033-.805 0-1.611.059-2.416.047-1.244-.016-1.546-.257-1.901-1.444a2.6 2.6 0 01-.125-.75c.01-1.884.05-3.767.052-5.651 0-1.885-.066-3.769-.037-5.652.012-.77.082-1.579.341-2.29.245-.67.948-.917 1.674-.915 1.587.002 3.175.013 4.762.017 1.778.004 3.557 0 5.335 0v-.004zm-8.625 8.41c0 1.316.014 2.63-.006 3.945-.01.538.235.79.742.814.635.03 1.269.065 1.903.063 2.01-.01 4.02-.044 6.03-.051 2.538-.01 5.075-.01 7.613-.002.586.003.84-.23.837-.835-.016-2.625 0-5.25-.006-7.875 0-.862-.142-1.01-.998-1.006-2.096.007-4.193.044-6.289.041-2.922-.002-5.845-.034-8.766-.042-.832-.002-1.052.23-1.057 1.067-.01 1.293-.003 2.587 0 3.88l-.003.002zm8.764-31.131h7.818c.805 0 1.611-.037 2.416-.013.691.02 1.28.292 1.619.936.093.178.164.392.161.589-.033 2.861-.087 5.722-.122 8.583-.016 1.4-.001 2.802-.005 4.202a3.5 3.5 0 01-.047.633c-.236 1.281-.746 1.705-2.068 1.708-2.693.006-5.386.007-8.079.007-3.88 0-7.76.034-11.638-.019-1.901-.025-1.986-.388-2.267-1.903a4.672 4.672 0 01-.064-.886c.02-1.8.07-3.6.07-5.4 0-1.885-.056-3.77-.06-5.654a8.197 8.197 0 01.144-1.505c.208-1.122 1.172-1.322 2.02-1.326 3.368-.012 6.736-.005 10.105-.005v.051l-.003.002zm-.165 3.256v.038c-.615 0-1.23.004-1.844 0-1.908-.012-3.815-.037-5.723-.04-.803-.003-1.026.223-1.034 1.021-.007.785.02 1.571.018 2.356-.004 1.846-.01 3.694-.025 5.54-.004.521.221.892.736.933.907.072 1.818.089 2.728.093.612.002 1.226-.087 1.84-.08 1.881.016 3.761.07 5.641.086.656.005 1.31-.078 1.966-.088 1.12-.015 2.24-.003 3.359-.005.556-.001.865-.236.86-.845-.013-2.69-.004-5.382-.016-8.072-.004-.783-.164-.933-.942-.936-2.522-.005-5.045-.002-7.567-.002l.003.001zm23.981 31.86c1.502-1.235 2.872-2.357 4.238-3.485 1.105-.912 2.2-1.837 3.308-2.746.782-.642 1.554-1.3 2.375-1.888.794-.568 1.618-.396 2.293.381.407.47.411 1.649-.111 2.132-1.1 1.015-2.26 1.963-3.398 2.935-1.716 1.465-3.427 2.933-5.15 4.39-.934.79-1.869 1.582-2.835 2.33-.617.477-2.093.24-2.546-.407-.822-1.17-1.595-2.372-2.393-3.56-.47-.699-.937-1.402-1.426-2.088-.463-.648-.54-1.37-.195-2.034.352-.676 1.004-1.043 1.803-.916.79.123 1.161.787 1.57 1.368.809 1.152 1.596 2.319 2.467 3.589v-.001zm-.002-25.008c1.127-.916 2.165-1.744 3.184-2.591 1.266-1.053 2.516-2.127 3.778-3.184a216.267 216.267 0 013.07-2.54c.785-.636 1.428-.155 2.157.523.515.48.458 1.584-.053 2.037-.99.88-2.014 1.719-3.026 2.575-1.157.98-2.305 1.971-3.474 2.938-1.621 1.343-3.258 2.667-4.888 4-.736.603-2.19.364-2.707-.416-.883-1.335-1.8-2.649-2.686-3.981-.419-.631-.836-1.267-1.188-1.937-.322-.615-.327-1.326.059-1.882.388-.56 1.115-.89 1.737-.656.563.21 1.081.729 1.45 1.235.892 1.221 1.685 2.516 2.585 3.88h.002zm.069-25.275c1.622-1.319 3.16-2.566 4.695-3.82 1.648-1.346 3.29-2.702 4.939-4.049.528-.431 1.547-.47 2.1-.095.66.446.945 1.078.562 1.817-.297.573-.837 1.046-1.34 1.48-1.228 1.063-2.496 2.08-3.752 3.11-1.123.921-2.26 1.828-3.377 2.757a131.575 131.575 0 00-2.981 2.538c-.757.67-2.333.43-2.885-.409-1.016-1.547-2.1-3.05-3.112-4.6-.375-.571-.753-1.193-.903-1.845-.216-.927.205-1.533 1.033-1.88.653-.273 1.501-.067 1.98.598.788 1.094 1.508 2.237 2.266 3.355.23.34.49.66.777 1.044h-.002z"/><path d="M87.272 75.112c6.403.255 11.42 4.87 11.481 11.592.059 6.525-5.084 11.592-11.554 11.611a11.566 11.566 0 01-11.65-11.501c-.045-6.518 5.313-11.732 11.723-11.702zM79.047 86.52c-.133 4.75 3.705 8.244 8.08 8.341 3.819.084 8.91-3.156 8.06-9.474-.411-3.063-3.635-7.016-8.508-6.79-3.704.172-7.73 3.576-7.634 7.923h.002z"/></g><defs><clipPath id="clip0_3133_2514"><path fill="#fff" d="M0 0h113v113H0z"/></clipPath></defs></svg>