<svg width="100" height="100" fill="none" xmlns="http://www.w3.org/2000/svg"><g clip-path="url(#clip0_3133_2481)" fill="#1C54AD" stroke="#F4F6F9" stroke-width=".8"><path d="M64.806 18.549c.018 9.004.017 18.007.016 27.01v6.999h-5.294v0-6.283c-.002-10.015-.002-20.03.022-30.045v-.001c0-.374.196-.866.453-1.131v-.001A1960.9 1960.9 0 0173.78.868c.228-.232.647-.42.953-.427 1.95-.037 3.9-.033 5.908-.028l1.608.002v8.737l.22.11.127.063.123.061.278.14.203-.236a25.9 25.9 0 00.338-.398c.234-.277.46-.544.706-.802h0l.9-.943c2.01-2.106 4.017-4.209 6.055-6.281.23-.234.647-.42.953-.427 1.931-.037 3.861-.032 5.82-.027.54.001 1.082.003 1.627.003v52.141h-5.221v-47.6l-.667.595a26.48 26.48 0 01-.265.232c-.17.149-.31.27-.431.396h0L91.71 7.54a1458.547 1458.547 0 00-8.88 9.317L64.805 18.55zm5.617 74.505H47.667V71.005h51.931v22H76.332v6.597h-5.508v-6.548h-.4zm6.337-17.058h-.4v11.97h17.986v-11.97H76.76zm-6.418 11.971h.4v-11.96H52.885v11.96h17.457zM35.315 47.528V5.485H47.4v7.903c-.001 10.931-.002 21.863.015 32.793 0 0 0 0 0 0l-.4.001c.002.759-.166 1.038-.987 1.026l-10.715.32zm0 0l.38.018c.095.005.191.01.288.017.205.012.413.025.61.025l-1.279-.06zM30.019.45h22.56v52.11H30.02V.45zM.4 52.534H0V46.3c-.002-10.06-.002-20.12.022-30.18 0-.448.221-1.006.532-1.328 2.406-2.515 4.823-5.018 7.24-7.521a2445.13 2445.13 0 006.32-6.56M.4 52.535v.399h22.642v-.4m-22.642 0v0V46.3C.397 36.24.397 26.18.421 16.12v0c0-.347.183-.804.42-1.05l.001-.002C3.25 12.552 5.665 10.052 8.08 7.55c2.108-2.183 4.217-4.366 6.322-6.561l-.289-.277M.4 52.534h22.642m0 0h.4V.417h-.4m0 52.117V.417m0 0v-.4c-.575 0-1.147.002-1.716.004-1.853.005-3.678.01-5.5-.021m7.216.417c-.573 0-1.143.002-1.711.004-1.855.005-3.685.01-5.512-.021l.007-.4m0 0c-.716-.012-1.212.19-1.713.712M15.826 0l-.007.4a1.9 1.9 0 00-.777.125 1.892 1.892 0 00-.64.464s0 0 0 0l-.289-.277m.759 46.876h2.015v.569l.683-.685.002-.002.68-.682h-.565V4.833l-.69.72c-.667.7-1.332 1.394-1.993 2.086-3.05 3.19-6.037 6.313-9.007 9.451h0c-.17.18-.256.413-.303.613-.049.206-.066.42-.066.6-.006 3.967-.007 7.933-.009 11.898-.002 5.38-.004 10.761-.017 16.143 0 .375.057.749.337.997.267.236.636.262.959.259h0c1.937-.022 3.875-.018 5.815-.015.719.001 1.439.003 2.159.003zM6.287 17.365c-.199.211-.259.621-.259.939l.26-.939zm-.685 82.207v.004H.452V71.032h40.173v21.97H7.123c-.433 0-.832.108-1.12.392-.29.285-.4.682-.4 1.113v5.064zm.455-23.573h-.4v11.965h29.73V75.999H6.058zM.441 64.14v-4.832H99.6v4.832H.44z"/></g><defs><clipPath id="clip0_3133_2481"><path fill="#fff" d="M0 0h100v100H0z"/></clipPath></defs></svg>