<svg width="116" height="90" fill="none" xmlns="http://www.w3.org/2000/svg"><g clip-path="url(#clip0_3133_2488)" fill="#1C54AD"><path d="M31.73 70.879c2.703-.049 4.682.859 6.468 2.245.567.44 1.075.975 1.532 1.531.319.39.528.878.746 1.341.242.516.427 1.06.659 1.581.274.616.784.916 1.433.987.226.026.456.016.684.014 3.806-.032 7.61-.053 11.416-.107.89-.013 1.783-.104 2.665-.226.877-.12 1.612-.572 2.193-1.239.4-.459.803-.928 1.121-1.445 2.863-4.652 6.046-9.09 9.055-13.643.557-.844 1.051-1.73 1.612-2.571.38-.57.784-1.133 1.247-1.635 1.084-1.179 2.451-1.842 4.029-2.078a31.841 31.841 0 014.72-.328c2.739 0 5.479.048 8.218.059.988.004 1.977-.053 2.965-.065 1.313-.016 2.626-.017 3.938-.023.747-.003.73-.009 1.038-.712.298-.68.568-1.386.966-2.005 1.51-2.344 3.614-3.906 6.339-4.525 1.411-.32 2.832-.212 4.222.227 2.348.742 4.193 2.192 5.508 4.232 1.729 2.682 1.924 5.584.766 8.555-.211.543-.542 1.055-.892 1.526-1.633 2.194-3.655 3.818-6.423 4.324-1.041.19-2.058.2-3.108-.022-1.373-.29-2.569-.936-3.722-1.672-1.808-1.154-2.91-2.872-3.65-4.853-.059-.161-.111-.325-.169-.487-.228-.64-.3-.698-.999-.688-.741.011-1.483.066-2.225.059-3.12-.032-6.239-.098-9.359-.116-2.32-.014-4.642.022-6.963.048a5.033 5.033 0 00-.962.117c-.655.136-1.175.457-1.563 1.045-3.606 5.465-7.227 10.918-10.846 16.375-.295.445-.601.883-.902 1.325-.638.94-1.433 1.708-2.332 2.413-1.405 1.102-2.983 1.643-4.723 1.783-.89.071-1.784.125-2.677.128-3.653.01-7.307-.002-10.96-.005-.171 0-.343-.002-.514.003-.644.02-.722.073-.936.7-.65 1.912-1.745 3.518-3.309 4.786-2.594 2.102-5.478 2.703-8.662 1.604-3.747-1.294-5.805-4.051-6.53-7.854-.384-2.021.063-3.963 1.116-5.73 1.276-2.138 3.095-3.646 5.409-4.55.883-.346 1.803-.448 2.36-.429h.001zm-5.234 9.203c.038 2.55.91 4.345 2.97 5.445.999.533 2.08.72 3.2.637 2.037-.15 3.626-1.053 4.632-2.877.6-1.086.786-2.279.671-3.495-.215-2.28-1.318-3.974-3.493-4.802-1.835-.7-3.637-.407-5.338.488-1.278.672-2.086 1.763-2.421 3.175-.132.553-.177 1.127-.222 1.429zM112.22 57.46c.006-2.724-1.607-4.942-4.113-5.586-1.444-.372-2.864-.232-4.236.366-1.43.623-2.37 1.694-2.836 3.178-.474 1.513-.419 3.02.188 4.483.618 1.488 1.687 2.521 3.229 3.025.711.232 1.446.302 2.193.28 3.229-.092 5.567-2.5 5.574-5.746h.001zM12.279 9.568c.072-3.266 1.38-5.625 3.666-7.474C17.212 1.07 18.652.372 20.267.156c1.463-.196 2.934-.13 4.33.42 1.856.734 3.474 1.82 4.669 3.454.31.423.568.913.725 1.412.215.683.64 1.208 1.056 1.752.202.264.495.244.782.245 1.58.005 3.16-.028 4.737.028 1.836.066 3.638.352 5.256 1.312 1.31.777 2.419 1.765 3.241 3.08 3.675 5.873 7.366 11.736 11.055 17.601.254.404.523.799.81 1.179.976 1.29 2.295 1.918 3.89 1.942 2.587.04 5.175.056 7.763.076 1.065.008 2.131.008 3.197-.004a41.083 41.083 0 001.88-.07c.587-.035.767-.186.942-.735.97-3.053 3.59-5.668 6.606-6.534 2.302-.66 4.507-.347 6.623.76 2.127 1.113 3.651 2.773 4.61 4.972.844 1.934 1 3.901.32 5.92-1.124 3.334-3.275 5.649-6.66 6.688-3.846 1.182-8.758-.749-10.72-4.74-.261-.53-.53-1.06-.746-1.61-.235-.595-.652-.849-1.268-.865-1.027-.026-2.053-.1-3.08-.103-2.036-.006-4.072.02-6.108.037-1.618.015-3.235.025-4.833-.28-1.206-.231-2.35-.626-3.386-1.302-.775-.505-1.46-1.109-1.972-1.885-1.532-2.328-3.079-4.646-4.57-7-2.174-3.435-4.302-6.9-6.457-10.346-.385-.615-.81-1.204-1.206-1.812-1.03-1.58-2.512-2.363-4.362-2.41-1.826-.046-3.653-.022-5.48-.03-.51-.003-.869.204-1.048.708-.121.341-.279.67-.414 1.006-1.225 3.02-3.43 4.93-6.528 5.843-2.974.875-5.588.084-7.976-1.73-1.92-1.458-2.914-3.485-3.407-5.793-.143-.669-.2-1.356-.26-1.774zm15.125-.272c.02-.505-.117-1.345-.455-2.151-1.488-3.547-6.377-4.308-9.188-1.882-2.015 1.74-2.287 4.908-1.22 7.113 1.563 3.234 6.09 4.03 8.87 1.78 1.42-1.15 1.983-2.703 1.993-4.86zm56.27 19.378a5.62 5.62 0 00-.008.04l-.626.03c-2.213.118-4.142 1.568-4.822 3.68-.618 1.92-.503 3.778.682 5.468 1.393 1.989 3.789 2.826 6.317 2.203 1.696-.418 2.924-1.416 3.628-3.03.609-1.396.714-2.842.301-4.308-.562-1.996-1.836-3.306-3.845-3.837-.528-.14-1.085-.167-1.628-.246z"/><path d="M0 55.123c.02-2.077.666-3.908 2.03-5.472 1.572-1.804 3.49-3.048 5.833-3.573 1.571-.352 3.096-.087 4.593.434 1.11.386 2.045 1.034 2.965 1.769 1.527 1.218 2.418 2.813 3.089 4.589.356.942.263.79 1.183.79 4.432.003 8.864-.001 13.296.005 3.1.004 6.202.021 9.303.029 1.498.004 1.519-.05 2.091-1.418 1.339-3.201 3.634-5.34 7.052-6.092 2.471-.544 4.765.057 6.84 1.451 2.246 1.51 3.705 3.591 4.253 6.276.447 2.186-.002 4.227-1.107 6.116-1.543 2.64-3.77 4.382-6.815 4.913-1.997.347-3.891-.055-5.675-1.02-2.183-1.18-3.739-2.912-4.623-5.245-.027-.071-.052-.144-.08-.215-.35-.864-.63-1.054-1.547-1.052-7.61.015-15.22.03-22.832.047-.188 0-.375.041-.563.062-.43.048-.674.303-.804.705-.411 1.274-1.114 2.384-1.95 3.41-1.925 2.359-4.423 3.452-7.448 3.43-1.8-.013-3.4-.554-4.816-1.654-.541-.421-1.091-.836-1.591-1.302-1.461-1.36-2.141-3.125-2.47-5.047-.109-.639-.142-1.29-.209-1.935H0zm53.167 6.137c.229 0 .458.02.684-.003 2.09-.21 3.685-1.177 4.548-3.15.751-1.715.718-3.467-.033-5.175-.78-1.774-2.147-2.833-4.066-3.132a6.085 6.085 0 00-2.214.076c-2.264.482-3.883 1.713-4.484 4.044-.312 1.21-.234 2.43.15 3.618.547 1.693 1.667 2.838 3.34 3.431a5.34 5.34 0 002.075.291zM3.653 55.534c.01.23.013.459.032.687.198 2.298 1.753 4.228 3.914 4.857.832.242 1.68.279 2.538.19 1.287-.135 2.432-.593 3.369-1.506 1.289-1.254 1.745-2.82 1.656-4.582-.166-3.288-2.632-5.56-5.901-5.431-3.293.128-5.603 2.514-5.608 5.785zm73.973-40.207c-1.503 0-3.006-.006-4.509.005a2.721 2.721 0 00-.782.124c-.382.12-.544.462-.662.81-.315.929-.729 1.81-1.303 2.603-1.983 2.736-4.645 4.235-8.035 4.108-3.133-.118-5.562-1.669-7.364-4.207-1.367-1.926-1.943-4.085-1.672-6.448.054-.47.15-.947.302-1.396 1.27-3.756 3.857-6.092 7.71-6.858 3.266-.648 7.367.826 9.445 4.491.328.578.595 1.196.842 1.815.343.86.476 1.158 1.7 1.182 1.56.03 3.12.007 4.681.006 1.56 0 3.12-.005 4.68-.001.805.002 1.063.245 1.062 1.06 0 .551-.03 1.108-.106 1.655-.094.692-.45 1.014-1.14 1.05-.7.038-1.406.03-2.11.033-.913.004-1.826 0-2.74 0v-.032h.001zm-14.734 3.927c1.34-.044 2.796-.443 3.953-1.614 1.814-1.834 2.15-4.913.79-7.275-.809-1.402-2.014-2.273-3.598-2.572a6.436 6.436 0 00-4.16.58c-1.463.732-2.398 1.908-2.767 3.516a6.72 6.72 0 00-.128 2.102c.272 3.158 2.535 5.275 5.91 5.264zm19.081 51.71c2.012-.106 4.027.854 5.853 2.224 1.206.904 2.01 2.18 2.61 3.563.404.931.646 1.915.794 2.92.137.928-.044 1.823-.296 2.712-.626 2.208-1.743 4.102-3.538 5.553-3.246 2.622-7.638 2.717-10.996.243-2.747-2.024-4.181-4.726-4.16-8.177.007-1.008.25-1.964.638-2.88.858-2.022 2.193-3.654 4.038-4.847 1.495-.967 2.907-1.354 5.057-1.311zm.35 15.196c1.497-.054 3.303-.834 4.44-2.776.89-1.52.912-3.169.449-4.828-.448-1.607-1.459-2.755-2.979-3.415a6.158 6.158 0 00-4.407-.226c-1.972.623-3.226 1.961-3.68 4.005-.158.71-.174 1.43-.096 2.163.325 3.047 2.542 5.074 6.273 5.077zM43.6 32.577c-.01 5.027-4.21 9.521-9.465 9.505-5.006-.017-9.31-4.318-9.442-9.24-.152-5.663 4.887-9.77 9.542-9.761 5.208.01 9.357 4.536 9.365 9.496zM33.815 26.8c-1.017.034-2.46.39-3.62 1.47-1.668 1.557-2.148 3.506-1.659 5.695.413 1.844 1.474 3.208 3.225 3.962 1.071.461 2.201.523 3.352.38 2.217-.274 3.922-1.71 4.538-3.87.248-.87.306-1.753.19-2.661-.327-2.533-2.203-5.016-6.026-4.976zM48.834 1.932c0-.42-.007-.841.002-1.261.01-.45.092-.565.515-.587A56.945 56.945 0 0151.913 0c.544-.005.752.225.767.767.02.707.032 1.413.054 2.12.02.663-.237 1.012-.913 1.064-.603.046-1.215.003-1.822-.015-.226-.006-.453-.049-.68-.076-.378-.046-.464-.114-.48-.496-.02-.477-.005-.955-.005-1.433zm40.564 9.633c.455 0 .911-.015 1.366.005.437.019.538.103.474.515-.106.691-.01 1.368.04 2.05a2.94 2.94 0 01-.002.514c-.048.483-.332.787-.811.782a27.28 27.28 0 01-2.099-.119c-.367-.032-.639-.262-.763-.606a2.883 2.883 0 01-.173-.831c-.026-.552-.013-1.106-.003-1.658.008-.474.126-.608.605-.633.455-.024.91-.005 1.366-.005v-.013zM47.517 86.15c.322 0 .645-.013.967.002.466.021.742.237.848.693.06.258.072.528.08.794.014.512.006 1.024.015 1.537.01.498-.227.823-.735.824a25.11 25.11 0 01-2.437-.127c-.438-.042-.678-.316-.701-.774a14.928 14.928 0 01.01-1.998c.057-.68.357-.919 1.044-.956.302-.016.606-.003.91-.003v.007h-.001z"/><path d="M22.843 49.707a9.886 9.886 0 01-.027-3.033c.058-.388.325-.65.748-.665a23.241 23.241 0 012.16.038c.429.025.709.299.73.74.041.816.08 1.637.055 2.454-.016.494-.208.616-.698.602-.892-.025-1.784-.06-2.675-.094-.091-.004-.181-.026-.293-.042zm12.77-45.849c-.38 0-.76.019-1.138-.004-.544-.034-.78-.238-.806-.765A28.219 28.219 0 0133.66.858c.015-.469.297-.743.761-.758a28.004 28.004 0 012.106-.003c.571.024.82.233.851.793a19.52 19.52 0 01-.015 2.39c-.033.493-.17.567-.669.586-.36.013-.72.003-1.081.003v-.01zm61.37 11.47c-.38 0-.761.021-1.139-.005-.461-.031-.7-.211-.725-.65a26.167 26.167 0 01-.01-2.459c.015-.37.316-.622.694-.635a26.88 26.88 0 012.162-.004c.58.027.834.262.881.847.054.664.071 1.337.024 2-.052.719-.309.91-1.032.926-.285.006-.57.001-.855.001v-.02zM55.091 89.914c-.379 0-.76.02-1.136-.005-.485-.033-.683-.213-.743-.7-.046-.376-.034-.76-.038-1.14-.004-.363-.017-.727.014-1.087.044-.53.311-.8.84-.821a23.703 23.703 0 011.989-.006c.673.03.937.29.948.956.014.74-.014 1.484-.06 2.223-.025.416-.143.528-.564.564-.414.035-.834.007-1.25.007v.009zm7.581.01c-.361 0-.723.016-1.084-.005-.423-.025-.569-.153-.674-.566a3.17 3.17 0 01-.072-.566c-.03-.476-.06-.953-.073-1.43a2.73 2.73 0 01.05-.625c.08-.39.273-.567.664-.576.684-.017 1.37-.03 2.053.005.77.04 1.072.354 1.083 1.112.009.648-.011 1.3-.068 1.945-.044.497-.237.66-.739.695-.378.027-.76.005-1.14.005v.006zM77.917 49.97c0 .344.005.689-.001 1.032-.009.422-.148.608-.537.688-.873.18-1.74.115-2.598-.106-.4-.102-.623-.33-.614-.77.013-.645-.043-1.297.023-1.937.077-.75.329-.937 1.086-.951.57-.011 1.142-.007 1.712.022.644.032.881.288.902.933.011.362.002.726.002 1.09h.026-.001zm15.203-.445c0 .42.027.843-.005 1.26-.046.575-.285.843-.853.888a10.96 10.96 0 01-1.766.01c-.7-.056-1.06-.452-1.107-1.154a15.681 15.681 0 01-.036-1.718c.026-.583.218-.832.78-.873a24.21 24.21 0 012.557-.025c.37.012.448.151.46.524.012.362.003.726.003 1.089h-.033zm-53.275.218c-.323 0-.646.017-.967-.003-.575-.037-.84-.272-.87-.85-.034-.685-.03-1.374.003-2.06.024-.497.246-.755.737-.791a18.601 18.601 0 012.162-.016c.42.019.729.3.763.725.062.777.098 1.56.072 2.338-.018.525-.192.65-.708.723-.205.03-.416.022-.625.016-.19-.005-.379-.03-.568-.045v-.037h.001zm-7.479-3.787c.304.016.61.019.911.051.481.052.665.217.787.691.164.641.127 1.29.04 1.936-.131.97-.157 1.044-1.14 1.154-.615.068-1.246-.01-1.869-.045-.32-.018-.518-.23-.605-.53-.265-.907-.165-1.82.015-2.721.03-.151.277-.327.452-.367.46-.105.934-.142 1.403-.206l.006.037zm51.317 5.784c-.454-.047-.848-.099-1.243-.123-.37-.024-.57-.24-.592-.573-.047-.661-.107-1.33-.053-1.987.08-.988.143-1.035 1.132-1.116.598-.05 1.205-.008 1.807-.004.382.002.596.22.673.576.177.826.199 1.657.06 2.495-.056.331-.237.52-.544.572-.427.073-.86.112-1.24.16zM44.58 1.973c0 .5.02.844-.004 1.185-.036.505-.22.694-.705.707-.7.017-1.403.036-2.1-.009-.588-.037-.779-.208-.837-.808A12.23 12.23 0 0140.9.943c.05-.653.311-.836.981-.851a27.094 27.094 0 011.82.001c.5.022.685.18.77.673.076.448.084.907.109 1.207z"/></g><defs><clipPath id="clip0_3133_2488"><path fill="#fff" d="M0 0h116v90H0z"/></clipPath></defs></svg>