<svg width="116" height="113" fill="none" xmlns="http://www.w3.org/2000/svg"><g clip-path="url(#clip0_3133_2509)" fill="#E9EEF3" stroke="#E9EEF3"><path d="M63.16 0c1.328.406 2.725.663 3.969 1.247 4.197 1.975 6.798 5.258 7.448 9.89.257 1.836.211 3.716.297 5.575.043.945.063 1.892.116 2.836.01.188.07.437.199.545 2.169 1.803 2.441 4.104 1.848 6.675-.268 1.162-.396 2.357-.635 3.528-.303 1.49-1.17 2.574-2.48 3.346-.262.155-.536.5-.576.788-.445 3.229-1.842 5.98-4.138 8.267-.42.42-.383.852-.385 1.327-.003 1.335.633 2.186 1.907 2.55 3.707 1.057 7.447 2.004 11.11 3.189 4.004 1.296 6.7 4.071 7.97 8.075.43 1.36.611 2.852.619 4.284.05 10.223.015 20.446.05 30.669.004.785-.267 1.196-.897 1.573a1748.479 1748.479 0 00-11.824 7.135c-5.683 3.456-11.358 6.926-17.033 10.393-.583.356-1.151.737-1.726 1.108h-.462c-1.7-1.024-3.397-2.057-5.105-3.07a7105.8 7105.8 0 00-12.205-7.217c-4.314-2.547-8.629-5.09-12.944-7.636-.088-.052-.17-.119-.266-.152-1.62-.575-1.906-1.725-1.89-3.367.089-10.092.018-20.185.055-30.277.02-5.298 2.508-9.127 7.333-11.294 1.705-.765 3.606-1.1 5.422-1.618 2.625-.75 5.249-1.504 7.886-2.208.542-.145.653-.383.676-.893.067-1.409-.126-2.565-1.241-3.709-1.93-1.975-2.836-4.556-3.298-7.276a1.154 1.154 0 00-.507-.721c-1.516-.849-2.377-2.094-2.617-3.825-.227-1.636-.661-3.247-.805-4.888-.155-1.794.527-3.364 1.918-4.546.355-.301.476-.576.49-1.02.083-2.81-.015-5.648.358-8.42.525-3.903 2.734-6.852 6.077-8.949C49.494.896 51.295.39 53.144.002h10.013L63.16 0zM50.533 45.386c0 .738.003 1.3 0 1.863-.005.704-.365 1.167-1.025 1.358-4.609 1.334-9.215 2.68-13.835 3.973-3.683 1.031-6.56 4.56-6.567 8.245-.016 10.248-.003 20.498-.012 30.746 0 .431.121.68.511.91 4.147 2.428 8.282 4.879 12.417 7.33 5.234 3.1 10.47 6.198 15.69 9.325.61.366 1.042.349 1.648-.029 2.95-1.842 5.937-3.627 8.91-5.431 6.093-3.7 12.184-7.403 18.284-11.091.376-.228.512-.48.51-.918-.012-10.249.005-20.499-.017-30.747-.007-3.647-2.765-7.301-6.205-8.302-3.26-.949-6.528-1.863-9.794-2.79-.723-.205-1.448-.399-2.291-.63v3.877H65.68c-.021-.146-.049-.246-.049-.345-.003-3.536-.015-7.072.019-10.606.003-.293.252-.652.493-.86 2.258-1.94 3.74-4.306 4.104-7.301.115-.95.218-1.9.328-2.853.172-.02.272-.039.373-.043 1.902-.065 2.233-.352 2.55-2.21.222-1.302.421-2.61.68-3.906.25-1.252-.42-2.497-1.673-2.77-.608-.134-.704-.416-.709-.939-.023-2.484-.029-4.969-.134-7.45a19.088 19.088 0 00-.483-3.62c-.86-3.581-4.653-6.887-8.315-7.079-3.039-.16-6.101-.187-9.138-.009-5.114.3-9.112 4.728-9.166 9.852-.03 2.867-.12 5.733-.214 8.597-.006.204-.222.521-.407.583-1.545.513-2.089 1.294-1.867 2.94.2 1.489.462 2.97.723 4.448.168.948.852 1.518 1.811 1.558.329.014.657.002 1.031.002.05.531.066.991.143 1.442.204 1.176.32 2.383.675 3.514.852 2.718 2.647 4.732 5.027 6.259 1.183.758 2.294 1.677 3.762 1.805.807.069 1.625.012 2.464.012v3.05c-2.594.313-4.934-.235-7.172-1.757l-.003-.003z"/><path d="M0 55.808c.433-1.262.7-2.613 1.333-3.768 1.19-2.177 3.104-3.532 5.533-4.177 2.218-.589 4.417-1.25 6.618-1.9.866-.256.926-.49.325-1.133-1.325-1.421-2.137-3.097-2.576-4.974-.06-.258-.166-.578-.362-.721-1.133-.827-1.705-1.96-1.836-3.312-.14-1.462-.353-2.94-.246-4.39.055-.757.739-1.463 1.116-2.204.164-.32.366-.662.384-1.004.077-1.48.012-2.971.143-4.446.38-4.25 3.795-7.85 8.094-8.385 2.788-.346 5.618-.44 8.4.139 4.175.868 7.366 4.873 7.367 9.138 0 .615-.003 1.23 0 1.845.01 1.256-.115 2.46.888 3.571.737.817.875 2.02.593 3.201-.207.863-.255 1.762-.389 2.643-.188 1.236-.733 2.26-1.756 3.027a1.31 1.31 0 00-.453.709c-.403 1.834-1.189 3.465-2.457 4.861-.693.763-.587 1.147.387 1.42 1.155.32 2.312.637 3.632 1-.36.154-.587.258-.818.346-.619.237-1.343.335-1.842.724-1.306 1.02-2.596.63-3.945.212-.589-.183-.843-.549-.85-1.116-.015-1.024-.035-2.05.015-3.073.012-.257.223-.563.433-.74 1.602-1.357 2.521-3.048 2.646-5.158.025-.43.103-.858.164-1.342.247-.023.499-.025.74-.07.708-.136 1.123-.531 1.197-1.284a51.3 51.3 0 01.349-2.656c.137-.9-.194-1.506-1.005-1.89-.192-.091-.416-.351-.428-.546-.077-1.198-.074-2.402-.142-3.6-.063-1.119-.083-2.252-.29-3.345-.523-2.773-2.973-4.981-5.773-5.093-2.212-.09-4.47-.188-6.641.15-3.084.48-5.186 3.304-5.215 6.405-.017 1.767-.08 3.533-.097 5.3-.005.441-.116.652-.59.798-.684.212-1.123.744-1.014 1.523a62.39 62.39 0 00.586 3.542c.117.59.655.825 1.748.885.119.757.208 1.534.364 2.296.35 1.712 1.218 3.123 2.526 4.284.194.172.345.495.356.755.042.945-.021 1.897.028 2.842.041.809-.388 1.155-1.075 1.349-2.702.762-5.381 1.626-8.111 2.272-2.94.695-4.988 3.004-4.993 6.3a3850.38 3850.38 0 00.017 19.524c0 .263.214.633.44.768 4.893 2.928 9.801 5.827 14.706 8.734 1.67.99 3.35 1.967 4.996 2.992.243.153.46.534.48.823.06.94.022 1.885.022 2.969-1.414-.826-2.731-1.587-4.039-2.36-5.724-3.378-11.446-6.76-17.169-10.138C1.68 79.836.838 79.355 0 78.87V55.807zM116 78.87L92.548 92.641c0-1.17-.022-2.187.018-3.2.008-.192.216-.443.4-.552 4.222-2.504 8.454-4.993 12.685-7.482 2.293-1.349 4.577-2.71 6.886-4.028.453-.259.483-.592.483-1.017-.005-5.484-.004-10.966-.004-16.45 0-1.18.007-2.357-.012-3.536-.043-2.557-1.933-4.861-4.415-5.524-2.912-.776-5.803-1.625-8.707-2.43-.696-.194-1.043-.596-.958-1.335a2.94 2.94 0 000-.615c-.148-1.59.052-2.933 1.433-4.12 1.358-1.17 1.669-2.992 1.748-4.76.023-.515.146-.729.703-.72.657.011 1.099-.332 1.209-1.03.152-.979.343-1.954.479-2.936.137-1.007-.225-1.47-1.676-2.122V25.41c-.002-3.94-2.659-6.78-6.632-6.97a42.392 42.392 0 00-5.153.065c-3.127.23-5.581 2.606-5.986 5.713-.119.907-.111 1.831-.148 2.748-.048 1.174-.065 2.352-.137 3.525-.013.19-.204.447-.38.538-1.016.517-1.273 1.044-1.064 2.143.153.801.225 1.618.351 2.423.131.84.515 1.24 1.353 1.28.476.024.632.205.64.643.04 2.436.944 4.465 2.837 6.041.15.125.26.378.265.575.024 1.1.06 2.206-.019 3.302-.021.311-.354.723-.65.863-.616.292-1.3.449-1.965.627a.896.896 0 01-.561-.06c-1.339-.612-2.668-1.242-3.96-1.848.725-.214 1.575-.466 2.425-.713.416-.122.84-.217 1.248-.358.655-.226.794-.643.333-1.129-1.413-1.488-2.308-3.225-2.67-5.242-.026-.142-.097-.323-.208-.396-1.56-1.011-1.944-2.585-2.147-4.283-.176-1.459-.61-2.91.11-4.341.126-.251.198-.562.394-.738.74-.672.776-1.515.804-2.434.048-1.574.03-3.19.382-4.71.918-3.967 3.526-6.469 7.496-7.19 3.063-.556 6.227-.62 9.292.194 3.622.96 6.624 4.548 6.786 8.233.063 1.454.08 2.91.16 4.363.019.326.133.712.341.952 1.074 1.239 1.476 2.636 1.191 4.248-.174.977-.308 1.963-.469 2.944-.172 1.057-.748 1.87-1.522 2.587a2.202 2.202 0 00-.614.98c-.492 1.798-1.23 3.448-2.544 4.813-.53.55-.377 1.049.375 1.269 2.082.608 4.159 1.243 6.26 1.78 3.756.96 6.061 3.304 6.976 7.041v23.984l-.01-.002zM69.36 14.752v3.065c-1.695 0-3.333.014-4.97-.005-1.587-.018-3.18.01-4.759-.124-2.24-.19-4.142-1.204-5.803-2.69-.094-.085-.193-.165-.345-.294-1.426 2.612-3.699 3.46-6.583 3.16V14.75h1.253c1.215.008 2.103-.53 2.663-1.605.79-1.508 1.573-3.019 2.424-4.65.448.798.847 1.476 1.217 2.168 1.478 2.77 3.82 4.078 6.93 4.084 2.64.007 5.283 0 7.97 0l.004.004z"/></g><defs><clipPath id="clip0_3133_2509"><path fill="#fff" d="M0 0h116v113H0z"/></clipPath></defs></svg>