<svg width="100" height="100" fill="none" xmlns="http://www.w3.org/2000/svg"><path d="M100 59.986H.177v4.893H100v-4.893zM.177 100h5.256v-6.809h34.668V71.937H.177V100zm5.256-23.17h29.412v11.468H5.433V76.83zm42.632 16.361h22.653V100h6.456v-6.809h22.652V71.937h-51.76V93.19zm29.109-16.36h17.575v11.467H77.174V76.83zm-23.852 0h17.396v11.467H53.322V76.83zM53.139 0h-21.99v51.895h21.99V0zm-5.256 47.001H36.405V5.073h11.478V47zm18.651-29.923L78.01 5.073v47h5.257V16.059L94.566 5.073v47h5.257V0h-7.767l-8.788 8.298V0H75.5L61.277 14.748v37.326h5.257V17.078zm-49.8 34.817h5.256V0h-7.767L0 14.748v37.147h16.734zM5.436 17.078L16.913 5.073V47H5.436V17.078z" fill="#1C54AD"/></svg>