<svg width="110" height="115" fill="none" xmlns="http://www.w3.org/2000/svg"><g clip-path="url(#clip0_3133_5249)" fill="#1C54AD"><path d="M54.907 43.11H2.257c-1.402 0-2.637-1.709-2.151-3.029.132-.354.423-.7.732-.93 5.654-4.216 11.316-8.441 16.997-12.613A10008.62 10008.62 0 0144.737 6.847c2.867-2.09 5.76-4.154 8.653-6.227 1.129-.806 1.932-.842 3.105-.018 2.293 1.621 4.56 3.286 6.827 4.934 12.26 8.929 24.52 17.848 36.79 26.777 2.849 2.073 5.716 4.136 8.573 6.21 1.738 1.257 1.791 3.002.08 4.277-.274.204-.697.293-1.059.293-6.474.017-12.948.009-19.422.009-11.132.009-22.254.009-33.377.009zm44.632-4.8c.026-.107.044-.213.07-.328-.9-.664-1.79-1.346-2.69-2.002-8.097-5.917-16.194-11.834-24.3-17.742-5.725-4.172-11.458-8.317-17.174-12.49-.37-.265-.608-.3-.997-.017-3.343 2.453-6.712 4.88-10.073 7.325-10.231 7.467-20.472 14.934-30.704 22.41-1.173.86-2.337 1.728-3.51 2.596.018.07.035.141.044.212 29.778.169 59.556.204 89.334.036zm-44.561 62.305h52.428c1.253 0 2.373 1.125 2.373 2.392v9.823c0 .965-1.199 2.17-2.152 2.17-32.433-.009-64.874-.018-97.307-.044-2.752 0-5.513-.107-8.265-.204-1.103-.044-1.747-.567-1.8-1.674-.14-2.835-.167-5.669-.211-8.504-.009-.575.053-1.151.14-1.727.23-1.488.742-1.966 2.224-2.002 3.237-.071 6.474-.15 9.702-.15 14.29-.018 28.578-.009 42.868-.009v-.071zm50.091 4.783H4.939v4.836h100.13v-4.836zM81.165 72.917V93.43c0 1.365-1.631 2.57-2.919 2.144a5.212 5.212 0 01-1.164-.558c-1.94-1.231-4.067-2.02-6.342-2.117-2.673-.115-5.372-.195-8.036.062-2.178.204-4.313.86-6.086 2.338-.908.762-2.46.806-3.36.027-1.747-1.506-3.855-2.02-6.007-2.374-3.484-.576-6.986-.558-10.408.407-1.341.381-2.611 1.055-3.908 1.604-.414.177-.811.425-1.235.567-1.482.478-2.716-.275-2.805-1.834-.15-2.524-.264-5.049-.264-7.573 0-10.426.044-20.851.088-31.277 0-.868.106-1.727.176-2.595.071-.85.494-1.462 1.235-1.913 2.514-1.524 5.293-2.233 8.15-2.64 4.031-.576 8.045-.381 11.97.709 1.473.407 2.884 1.027 4.34 1.514.255.089.617.107.855-.009 5.16-2.444 10.593-2.843 16.16-2.17 2.337.284 4.621.833 6.773 1.834.37.168.724.372 1.076.584.98.585 1.58 1.329 1.58 2.605-.018 4.33.07 8.662.105 13.003.018 2.382 0 4.765 0 7.148h.026zm-4.763 16.29v-4.855c.027-9.991.053-19.974.053-29.966 0-.212-.22-.549-.405-.62-1.085-.372-2.17-.877-3.29-.983-2.355-.221-4.728-.283-7.1-.31-2.709-.035-5.346.363-7.816 1.586-.458.23-.626.443-.626.956.018 5.607.018 11.214-.009 16.83-.009 1.78-.07 3.56-.15 5.341-.044.975-.485 1.47-1.429 1.745-1.56.443-3.008-.638-3.016-2.25l-.106-20.363c-.009-2.188-.018-2.153-2.082-2.862-3.22-1.098-6.518-1.266-9.87-1.045-2.126.142-4.242.39-6.271 1.152-.574.212-.803.496-.794 1.142.035 3.632 0 7.273.018 10.904.026 7.343.079 14.686.114 22.02v1.55c.45-.097.706-.141.953-.22 2.867-.895 5.813-1.188 8.803-1.117 3.572.089 7.083.54 10.355 2.064.803.372 1.464.407 2.24.062 2.946-1.31 6.016-2.073 9.27-2.002 2.84.062 5.707-.257 8.504.558.811.222 1.623.416 2.654.682zm28.808-18.629l-.256 20.719c-.009.868-.07 1.727-.114 2.595-.062 1.036-.459 1.594-1.473 1.736a23.67 23.67 0 01-3.361.248c-4.005 0-8-.044-12.005-.08-.82-.008-2.01-1.23-2.01-2.063V49.984c0-.832 1.11-1.993 2.02-2.002 4.886-.026 9.772-.053 14.659 0 1.649.018 2.161.656 2.187 2.303.124 7.237.247 14.447.353 20.293zm-5.054-17.76c-.3-.017-.512-.035-.723-.035-2.611 0-5.222.027-7.833-.009-.67-.008-.838.186-.838.85.018 12.154.018 24.297.018 36.45 0 .275.026.558.035.833h9.341V52.819zM23.815 71.89c0 6.758.01 13.525-.009 20.284 0 .673-.07 1.346-.185 2.01-.176 1.037-.44 1.32-1.482 1.453a23.862 23.862 0 01-3.078.221c-3.784 0-7.568-.053-11.36-.088-.142 0-.292-.009-.433-.027-1.711-.203-2.108-.531-2.143-2.25-.115-5.5-.22-11.01-.23-16.52-.017-8.228.053-16.457.106-24.695.009-.841.07-1.683.159-2.515.123-1.196.406-1.506 1.579-1.683a16.008 16.008 0 012.434-.186c3.978.009 7.956.053 11.934.08.168 0 .335.008.503.026 1.597.168 2.02.558 2.09 2.17.115 2.737.186 5.483.203 8.23.036 4.499.01 8.998.01 13.498-.036-.009-.063-.009-.098-.009zM9.632 52.818v38.08h9.535v-38.08H9.632z"/></g><defs><clipPath id="clip0_3133_5249"><path fill="#fff" d="M0 0h110v115H0z"/></clipPath></defs></svg>