<svg width="114" height="114" fill="none" xmlns="http://www.w3.org/2000/svg"><g clip-path="url(#clip0_3133_5235)"><path d="M0 56.648C.23 25.077 26.032-.312 57.57 0 89.135.32 114.32 26.11 114 57.78c-.321 31.25-26.14 56.469-57.562 56.211C25.203 113.742-.232 87.907 0 56.648zM60.893 5.505c-6.13-.855-12.33-1.39-17.685 1.996-8.294 5.238-14.031 12.65-16.58 22.288-4.507 17.096 1.81 31.946 9.426 46.778 6.353-2.895 10.175-7.955 14.184-12.917 3.492-4.312 3.857-8.089.801-13.042-4.347-7.037-6.476-14.957-5.318-23.393 1.327-9.71 7.18-16.302 15.172-21.71zM99.326 86.26c6.682-6.895 8.776-15.278 6.255-24.613-4.464-16.508-16.224-25.247-31.94-29.523-7.51-2.04-15.171-3.411-23.305-2.494.124 2.174-.178 4.08.4 5.675 2.264 6.209 3.992 12.89 7.653 18.19 1.488 2.147 7.43 1.328 11.36 1.648 15.26 1.265 25.898 10.067 28.749 24.008.463 2.254.543 4.588.828 7.11zM85.02 64.363c-5.88-1.648-11.012-3.386-16.268-4.49-6.45-1.345-12.384-.829-14.994 6.752-.232.677-.766 1.265-1.185 1.871C44.01 80.683 32.206 85.867 19.75 82.678c-3.207-.82-6.254-2.29-9.372-3.456-.357.374-.713.757-1.078 1.131 3.928 4.463 7.073 10.227 11.938 13.131 10.477 6.263 22.023 6.352 33.32 1.345 13.506-5.977 22.058-17.06 30.46-30.466zm3.34 4.097c-13.265 19.964-28.384 36.658-55.236 34.253.241.365.339.686.544.811 16.74 9.959 44.518 6.218 58.265-7.866.686-.704 1.408-1.604 1.595-2.521 1.773-8.757 1.06-17.042-5.168-24.677zm20.464-14.832c0-.864.098-1.746-.017-2.601-2.45-18.547-12.295-31.776-28.554-40.836-7.074-3.937-13.078-3.26-19.19 1.416-4.214 3.225-8.01 6.709-9.434 12.508 23.51 1.514 44.901 6.378 57.195 29.513zM29.542 13.006c-1.452.757-1.978.962-2.414 1.274C12.392 24.952 4.953 39.464 4.838 57.583c-.027 4.09.275 8.588 1.96 12.178 2.886 6.156 17.23 10.485 24.392 8.089-10.62-20.926-16.918-42.047-1.648-64.844z" fill="#1C54AD"/></g><defs><clipPath id="clip0_3133_5235"><path fill="#fff" d="M0 0h114v114H0z"/></clipPath></defs></svg>