<svg width="131" height="82" fill="none" xmlns="http://www.w3.org/2000/svg"><g clip-path="url(#clip0_3133_5257)"><path d="M31.375 32.157c.61-1.69 1.195-3.319 1.78-4.948 2.62-7.284 5.224-14.57 7.855-21.854 1-2.753 2.966-4.479 5.818-5.16a7.235 7.235 0 011.63-.177C51.263-.01 54.062 0 56.86 0c.106 0 .204.009.345.018v5.08c-.221.01-.434.027-.655.027-2.612 0-5.225-.009-7.828 0-1.692 0-2.462.566-3.038 2.16-.885 2.47-1.78 4.939-2.665 7.408-.071.186-.124.381-.213.664h.611c13.948 0 27.895 0 41.843.01.336 0 .522-.08.673-.4.655-1.415 1.346-2.814 2.019-4.221.062-.133.115-.275.203-.505h-.61c-2.338 0-4.676.009-7.005-.009-1.16-.009-2.1-.743-2.4-1.832-.31-1.106.097-2.32 1.09-2.859.486-.266 1.106-.398 1.664-.398 4.091-.036 8.174-.018 12.265-.018h6.987v5.116h-.815c-1.682 0-3.365.009-5.047-.009-.337 0-.523.107-.665.416a975.468 975.468 0 01-3.267 6.887c-.142.292-.133.522 0 .814 2.231 4.683 4.454 9.365 6.668 14.047.177.363.328.443.735.319 8.085-2.54 15.674-1.478 22.599 3.408 5.907 4.169 9.343 9.958 10.397 17.11 1.602 10.834-4.384 21.783-14.329 26.368-4.197 1.939-8.59 2.735-13.177 2.275-6.145-.62-11.406-3.142-15.718-7.56-4.03-4.133-6.359-9.107-7.014-14.852-.044-.407-.186-.54-.602-.54-3.525.018-7.04 0-10.565.018-.947 0-1.7-.328-2.311-1.036-6.58-7.497-13.168-14.994-19.748-22.483a6406.6 6406.6 0 01-7.881-8.975c-.124-.142-.213-.3-.399-.558-.23.611-.39 1.045-.549 1.47-.726 2.018-1.434 4.045-2.178 6.054-.133.363-.036.496.283.664 8.581 4.567 13.487 11.649 14 21.385.479 9.02-3.16 16.313-10.405 21.704-4.71 3.505-10.086 5.08-15.948 4.806-6.766-.318-12.54-2.956-17.224-7.842C3.028 70.006.699 65.058.15 59.376c-.78-8.055 1.736-15.004 7.465-20.722 3.915-3.912 8.688-6.196 14.16-6.992 3.038-.443 6.066-.292 9.06.39.15.026.318.052.54.105zm-1.825 4.957c-8.89-2.053-19.367 2.54-23.095 12.729-3.808 10.4 1.603 21.978 11.946 25.686 10.538 3.789 22.077-1.584 25.814-12.064 3.764-10.569-1.85-20.73-9.874-24.59-.062.142-.124.284-.177.425a3005.247 3005.247 0 00-3.338 9.303c-1.019 2.842-2.037 5.683-3.064 8.515-.443 1.23-1.559 1.912-2.763 1.735-1.674-.248-2.568-1.84-1.966-3.54 1.54-4.31 3.09-8.622 4.64-12.932.611-1.744 1.24-3.488 1.878-5.267zm56.216 21.819c.318 5.541 4.339 13.33 12.69 16.482 8.722 3.292 18.304.345 23.644-7.215 5.198-7.364 4.764-17.49-1.019-24.359-6.039-7.17-15.196-8.453-21.492-6.187.062.16.124.31.195.46 1.895 3.983 3.781 7.967 5.676 11.941.841 1.77 1.709 3.523 2.506 5.31.744 1.674-.434 3.488-2.267 3.56-.257.008-.513.008-.77.008H85.766zm-17.34-7.152l14.825-31.246H40.965a86281.44 86281.44 0 0127.461 31.246zm18.89-27.953c-4.756 10.029-9.45 19.951-14.17 29.9h7.315c1.16-8.134 5.269-14.357 12.185-18.765-1.77-3.69-3.515-7.355-5.33-11.135zm-1.533 29.883h15.754c-2.223-4.683-4.428-9.303-6.65-13.977-5.048 3.4-8.077 8.002-9.104 13.977z" fill="#fff"/></g><defs><clipPath id="clip0_3133_5257"><path fill="#fff" d="M0 0h131v82H0z"/></clipPath></defs></svg>