<svg width="127" height="128" fill="none" xmlns="http://www.w3.org/2000/svg"><g clip-path="url(#clip0_3133_5239)"><mask id="a" fill="#fff"><path d="M15.18 46.829v70.341H9.455V46.565c-.574.047-1.045.085-1.516.132a14.834 14.834 0 01-5.029-.32C.68 45.859-.837 42.849.49 40.666c5.914-9.739 11.724-19.533 17.694-29.225 1.262-2.041 3.305-3.265 5.904-3.283 6.47-.057 12.929-.189 19.398-.264.631-.01 1.102-.188 1.563-.63C50.473 2.192 56.952-.188 64.325.009c6.78.189 12.656 2.795 17.722 7.245.65.574 1.299.79 2.156.79 6.036-.028 12.072.01 18.108-.037 1.092-.01 2.024.273 2.985.725 1.808.846 3.164 2.06 4.209 3.791 4.906 8.149 9.906 16.24 14.831 24.38.895 1.486 1.591 3.085 2.373 4.647.942 1.882-.763 4.723-2.985 4.893-1.469.113-2.938.216-4.407.32-.292.019-.584 0-.961 0v70.388h-5.744V46.847c-.386-.028-.621-.066-.847-.066-9.417-.056-18.833-.103-28.25-.169-.612 0-1.064.179-1.497.584-3.992 3.669-8.682 6.068-14.03 6.85-5.867.855-11.648.376-16.912-2.71-2.138-1.261-4.162-2.73-6.206-4.15-.527-.367-1.017-.583-1.676-.574-9.068.075-18.136.122-27.204.179-.198 0-.405.019-.81.038zm26.894-19.524c.188 1.835.16 3.716.612 5.485.932 3.642 2.796 6.85 5.499 9.485 4.058 3.951 8.767 6.482 14.633 6.257.64-.029 1.29-.029 1.93 0 2.722.113 5.274-.574 7.684-1.75 13.381-6.52 16.45-22.883 7.486-33.337-5.235-6.106-12.034-8.618-19.944-7.433-9.925 1.478-18.607 10.98-17.9 21.293zm-2.25 13.605c-.039-.17-.048-.254-.076-.32-.18-.395-.349-.78-.537-1.166-1.394-2.832-2.467-5.721-2.627-8.948-.283-5.561-.019-10.99 2.825-15.977.094-.17.122-.386.188-.649-.339-.019-.603-.038-.866-.038-4.238 0-8.475.038-12.713-.009-1.732-.019-3.088.461-3.86 2.117-.142.31-.396.574-.575.866-4.406 7.17-8.804 14.339-13.21 21.509-.51.828-1.009 1.674-1.564 2.615h33.014zM87.3 13.803c4.539 9.004 4.501 17.99-.056 27.013h32.825c-.197-.357-.32-.583-.452-.8-1.883-3.114-3.747-6.247-5.65-9.352-3.098-5.043-6.252-10.049-9.322-15.11-.772-1.271-1.742-1.798-3.22-1.789-4.473.038-8.955-.019-13.438-.037-.17 0-.358.037-.687.075z"/></mask><path d="M15.18 46.829v70.341H9.455V46.565c-.574.047-1.045.085-1.516.132a14.834 14.834 0 01-5.029-.32C.68 45.859-.837 42.849.49 40.666c5.914-9.739 11.724-19.533 17.694-29.225 1.262-2.041 3.305-3.265 5.904-3.283 6.47-.057 12.929-.189 19.398-.264.631-.01 1.102-.188 1.563-.63C50.473 2.192 56.952-.188 64.325.009c6.78.189 12.656 2.795 17.722 7.245.65.574 1.299.79 2.156.79 6.036-.028 12.072.01 18.108-.037 1.092-.01 2.024.273 2.985.725 1.808.846 3.164 2.06 4.209 3.791 4.906 8.149 9.906 16.24 14.831 24.38.895 1.486 1.591 3.085 2.373 4.647.942 1.882-.763 4.723-2.985 4.893-1.469.113-2.938.216-4.407.32-.292.019-.584 0-.961 0v70.388h-5.744V46.847c-.386-.028-.621-.066-.847-.066-9.417-.056-18.833-.103-28.25-.169-.612 0-1.064.179-1.497.584-3.992 3.669-8.682 6.068-14.03 6.85-5.867.855-11.648.376-16.912-2.71-2.138-1.261-4.162-2.73-6.206-4.15-.527-.367-1.017-.583-1.676-.574-9.068.075-18.136.122-27.204.179-.198 0-.405.019-.81.038zm26.894-19.524c.188 1.835.16 3.716.612 5.485.932 3.642 2.796 6.85 5.499 9.485 4.058 3.951 8.767 6.482 14.633 6.257.64-.029 1.29-.029 1.93 0 2.722.113 5.274-.574 7.684-1.75 13.381-6.52 16.45-22.883 7.486-33.337-5.235-6.106-12.034-8.618-19.944-7.433-9.925 1.478-18.607 10.98-17.9 21.293zm-2.25 13.605c-.039-.17-.048-.254-.076-.32-.18-.395-.349-.78-.537-1.166-1.394-2.832-2.467-5.721-2.627-8.948-.283-5.561-.019-10.99 2.825-15.977.094-.17.122-.386.188-.649-.339-.019-.603-.038-.866-.038-4.238 0-8.475.038-12.713-.009-1.732-.019-3.088.461-3.86 2.117-.142.31-.396.574-.575.866-4.406 7.17-8.804 14.339-13.21 21.509-.51.828-1.009 1.674-1.564 2.615h33.014zM87.3 13.803c4.539 9.004 4.501 17.99-.056 27.013h32.825c-.197-.357-.32-.583-.452-.8-1.883-3.114-3.747-6.247-5.65-9.352-3.098-5.043-6.252-10.049-9.322-15.11-.772-1.271-1.742-1.798-3.22-1.789-4.473.038-8.955-.019-13.438-.037-.17 0-.358.037-.687.075z" fill="#fff"/><path d="M15.18 46.829l-.023-.5-.477.022v.478h.5zm0 70.341v.5h.5v-.5h-.5zm-5.725 0h-.5v.5h.5v-.5zm0-70.605h.5v-.542l-.54.044.04.498zm-1.516.132l-.05-.498h-.003l.053.498zm-5.029-.32l.116-.487h-.003l-.113.487zM.49 40.666l.428.26-.428-.26zM18.184 11.44l-.425-.263v.001l.425.262zm5.904-3.283l.004.5-.004-.5zm19.398-.264l.006.5h.002l-.008-.5zm1.563-.63l-.341-.366-.005.005.346.36zM64.325.009l.014-.5-.014.5zm17.722 7.245l.33-.374v-.001l-.33.375zm2.156.79v.5h.002l-.002-.5zm18.108-.037l.004.5-.004-.5zm2.985.725l-.213.452h.001l.212-.452zm4.209 3.791l.428-.258-.428.258zm14.831 24.38l.428-.259-.428.258zm-.612 9.54l-.038-.499.038.499zm-4.407.32l.032.499h.003l-.035-.5zm-.961 0v-.5h-.5v.5h.5zm0 70.388v.5h.5v-.5h-.5zm-5.744 0h-.5v.5h.5v-.5zm0-70.304h.5v-.464l-.463-.034-.037.498zm-.847-.066l-.003.5h.003v-.5zm-28.25-.169l.004-.5h-.004v.5zm-1.497.584l.339.368.003-.003-.342-.365zm-14.03 6.85l.072.494-.072-.495zm-16.912-2.71l-.254.43.254-.43zm-6.206-4.15l-.285.41.285-.41zm-1.676-.574l.004.5h.003l-.007-.5zm-27.204.179v.5h.003l-.003-.5zm26.084-19.486l-.5.034.001.009.001.008.498-.051zm.612 5.485l-.485.124.485-.124zm5.499 9.485l-.35.358h.001l.349-.358zm14.633 6.257l.02.5h.002l-.022-.5zm1.93 0l-.022.5h.002l.02-.5zm7.684-1.75l-.219-.45.22.45zm7.486-33.337l-.38.326.38-.326zM59.974 6.012l.074.495-.074-.495zM39.824 40.91v.5h.623l-.136-.608-.488.108zm-.076-.32l.46-.197-.005-.009-.455.206zm-.537-1.166l.45-.22-.001-.001-.449.22zm-2.627-8.948l.5-.025-.5.025zm2.825-15.977l.434.248.003-.005-.437-.243zm.188-.649l.485.121.147-.587-.604-.033-.028.499zm-13.579-.047l.006-.5-.006.5zm-3.86 2.117l-.453-.211-.002.004.455.207zm-.575.866l.426.261-.426-.261zM8.373 38.295l-.427-.262.426.262zM6.808 40.91l-.43-.254-.446.754h.876v-.5zM87.3 13.803l-.057-.497-.712.082.323.64.446-.225zm-.056 27.013l-.447-.225-.366.725h.813v-.5zm32.825 0v.5h.848l-.41-.742-.438.242zm-.452-.8l-.428.26h.001l.427-.26zm-5.65-9.352l.427-.261h-.001l-.426.26zm-9.322-15.11l.428-.26h-.001l-.427.26zm-3.22-1.789l-.004-.5h-.001l.005.5zm-13.438-.037l.002-.5h-.002v.5zm-73.308 33.1v70.342h1V46.829h-1zm.5 69.842H9.455v1h5.725v-1zm-5.225.5V46.565h-1v70.605h1zm-.54-71.103c-.573.047-1.05.085-1.526.132l.1.995c.465-.046.93-.083 1.507-.13l-.082-.997zm-1.529.133a14.356 14.356 0 01-4.86-.31l-.23.974c1.721.408 3.445.515 5.195.33l-.105-.994zm-4.863-.31c-.934-.217-1.76-.972-2.202-1.95-.438-.972-.465-2.092.097-3.014l-.855-.52c-.766 1.26-.698 2.737-.153 3.946.543 1.202 1.59 2.211 2.888 2.512l.225-.974zM.918 40.925C6.836 31.18 12.64 21.395 18.61 11.704l-.852-.525C11.788 20.871 5.972 30.675.063 40.406l.855.52zm17.691-29.22c1.173-1.899 3.059-3.03 5.483-3.047l-.008-1c-2.773.02-4.974 1.335-6.325 3.52l.85.526zm5.483-3.047c6.468-.057 12.94-.189 19.4-.264l-.012-1c-6.478.076-12.925.207-19.396.264l.009 1zm19.401-.264c.75-.011 1.344-.234 1.902-.77l-.692-.721c-.364.35-.712.484-1.224.491l.014 1zm1.898-.765C50.716 2.649 57.066.315 64.31.509l.027-1c-7.501-.2-14.108 2.226-19.63 7.39l.683.73zM64.31.509c6.648.185 12.415 2.737 17.406 7.121l.66-.751C77.233 2.36 71.25-.3 64.338-.491l-.028 1zm17.404 7.12c.75.663 1.522.916 2.488.916v-1c-.748 0-1.276-.18-1.825-.665l-.662.75zm2.49.916c6.024-.028 12.077.01 18.11-.038l-.008-1c-6.04.047-12.058.01-18.106.038l.004 1zm18.11-.038c.995-.009 1.851.246 2.768.677l.426-.905c-1.005-.472-2.012-.782-3.202-.772l.008 1zm2.769.677c1.718.805 2.999 1.952 3.993 3.598l.856-.517c-1.096-1.816-2.528-3.098-4.425-3.986l-.424.905zm3.993 3.597c4.903 8.145 9.912 16.25 14.831 24.38l.856-.518c-4.931-8.148-9.922-16.226-14.831-24.378l-.856.516zm14.831 24.379c.881 1.465 1.556 3.02 2.354 4.614l.894-.448c-.765-1.53-1.484-3.173-2.392-4.682l-.856.516zm2.354 4.614c.37.74.242 1.733-.287 2.605-.526.869-1.38 1.496-2.289 1.565l.076.997c1.313-.1 2.423-.978 3.068-2.043.644-1.062.898-2.43.326-3.572l-.894.448zm-2.576 4.17c-1.468.113-2.935.216-4.404.32l.07.997a663.02 663.02 0 004.41-.32l-.076-.997zm-4.401.32c-.273.017-.508-.001-.929-.001v1c.333 0 .682.019.993-.001l-.064-.998zm-1.429.499v70.387h1V46.762h-1zm.5 69.888h-5.743v1h5.744v-1zm-5.244.5V46.847h-1v70.304h1zm-.463-70.802c-.186-.014-.332-.03-.473-.043a4.298 4.298 0 00-.411-.024v1a3.3 3.3 0 01.316.02c.13.012.295.03.495.044l.073-.997zm-.881-.067c-9.417-.057-18.833-.104-28.249-.17l-.007 1c9.417.066 18.834.113 28.25.17l.006-1zm-28.252-.17c-.737 0-1.312.226-1.839.718l.683.73c.339-.316.668-.448 1.156-.448v-1zm-1.836.715c-3.926 3.61-8.525 5.959-13.765 6.724l.145.989c5.458-.797 10.238-3.246 14.297-6.976l-.677-.737zm-13.765 6.724c-5.793.845-11.45.364-16.586-2.647l-.506.863c5.392 3.16 11.298 3.64 17.237 2.773l-.145-.99zM51.33 50.904c-2.117-1.249-4.12-2.7-6.174-4.13l-.571.822c2.032 1.412 4.078 2.896 6.237 4.17l.508-.862zm-6.174-4.13c-.58-.403-1.171-.674-1.969-.663l.014 1c.52-.007.91.154 1.384.484l.57-.82zm-1.966-.663c-9.067.075-18.134.122-27.203.179l.006 1c9.068-.056 18.137-.104 27.205-.179l-.008-1zm-27.2.179c-.212 0-.457.02-.833.038l.046.999c.434-.02.604-.037.787-.037v-1zm25.586-18.935c.094.914.131 1.806.206 2.756.074.93.183 1.876.42 2.802l.968-.247c-.215-.844-.319-1.723-.39-2.634-.072-.893-.114-1.858-.209-2.78l-.995.103zm.625 5.558c.956 3.731 2.867 7.02 5.635 9.719l.698-.716c-2.637-2.572-4.455-5.7-5.364-9.25l-.969.247zm5.635 9.719c4.124 4.015 8.958 6.63 15.001 6.398l-.038-.999c-5.69.219-10.272-2.227-14.265-6.116l-.698.717zM62.84 49.03c.626-.027 1.26-.027 1.886 0l.044-.999a22.492 22.492 0 00-1.974 0l.044 1zm1.888 0c2.822.117 5.456-.596 7.924-1.8l-.439-.899c-2.354 1.149-4.823 1.809-7.444 1.7l-.041 1zm7.923-1.8c13.67-6.662 16.828-23.405 7.647-34.111l-.76.65c8.749 10.202 5.767 26.183-7.325 32.562l.438.899zm7.647-34.111C74.95 6.883 67.98 4.307 59.9 5.518l.148.989c7.74-1.16 14.368 1.288 19.49 7.264l.76-.651zM59.901 5.518C49.75 7.028 40.849 16.736 41.575 27.339l.997-.068C41.886 17.25 50.35 7.95 60.048 6.507l-.147-.99zM40.31 40.802l-.04-.193a1.128 1.128 0 00-.064-.216l-.919.395c-.007-.017-.005-.022.005.026.007.034.023.119.042.205l.976-.217zm-.108-.418c-.176-.388-.35-.785-.543-1.18l-.898.439c.184.377.348.752.53 1.154l.911-.413zm-.543-1.181c-1.38-2.805-2.422-5.623-2.577-8.752l-.999.05c.165 3.325 1.271 6.284 2.678 9.143l.898-.441zm-2.577-8.753c-.281-5.537-.01-10.845 2.76-15.703l-.869-.495c-2.917 5.115-3.173 10.665-2.89 16.25l1-.052zm2.763-15.708c.079-.142.122-.29.153-.41.015-.062.03-.126.042-.184a7.1 7.1 0 01.041-.177l-.97-.242a7.412 7.412 0 00-.047.2 6.68 6.68 0 01-.036.16.716.716 0 01-.057.167l.874.486zm-.221-1.391c-.328-.018-.612-.039-.894-.039v1c.245 0 .488.018.838.037l.056-.998zm-.894-.039c-4.244 0-8.473.038-12.707-.009l-.011 1c4.24.047 8.486.01 12.718.01v-1zm-12.707-.009c-.908-.01-1.769.11-2.519.483-.762.38-1.37 1.002-1.8 1.923l.906.422c.343-.735.798-1.18 1.34-1.45.554-.276 1.238-.387 2.062-.378l.011-1zm-4.321 2.41c-.048.105-.12.214-.221.351-.092.125-.221.291-.325.46l.853.523c.075-.122.162-.233.278-.391a3.01 3.01 0 00.325-.529l-.91-.414zm-.546.81L14.552 27.28c-2.201 3.584-4.402 7.17-6.606 10.754l.852.523c2.204-3.584 4.405-7.17 6.606-10.754a27553.9 27553.9 0 016.605-10.755l-.852-.523zM7.946 38.034c-.511.832-1.013 1.683-1.568 2.623l.861.508c.557-.942 1.053-1.784 1.56-2.608l-.853-.523zM6.809 41.41h33.014v-1H6.81v1zm80.046-27.382c4.466 8.861 4.43 17.68-.057 26.563l.893.45c4.628-9.163 4.667-18.315.056-27.463l-.892.45zm.39 27.288h32.825v-1H87.245v1zm33.263-.742c-.194-.35-.324-.59-.463-.818l-.854.52c.125.205.24.418.442.782l.875-.484zm-.462-.816c-1.88-3.11-3.748-6.25-5.651-9.355l-.853.522c1.901 3.104 3.762 6.231 5.648 9.35l.856-.517zm-5.652-9.356c-3.103-5.051-6.25-10.046-9.32-15.108l-.855.518c3.069 5.062 6.23 10.079 9.323 15.114l.852-.524zm-9.321-15.109c-.419-.689-.912-1.21-1.531-1.551-.617-.342-1.32-.482-2.12-.477l.007 1c.678-.004 1.2.115 1.63.352.429.237.807.615 1.16 1.196l.854-.52zm-3.652-2.028c-4.468.038-8.943-.018-13.43-.037l-.005 1c4.477.018 8.967.075 13.444.037l-.009-1zm-13.433-.037c-.119 0-.235.013-.347.027-.12.016-.236.033-.397.051l.114.994c.169-.02.31-.04.41-.053.108-.014.17-.02.22-.02v-1z" fill="#1C54AD" mask="url(#a)"/><path d="M6.045 128v-.25c-.377 0-.91-.243-1.406-.638-.492-.392-.885-.886-1.02-1.313h0v-.002c-.125-.385-.094-.947.081-1.48.177-.536.478-.977.827-1.169h0l.001-.001c.455-.253 1.075-.345 1.653-.354l1.917-.029c5.745-.085 11.49-.171 17.233-.188 9.086-.02 18.167-.016 27.25-.012 3.551.001 7.103.003 10.655.003v.094h.28c18.05 0 36.092 0 54.143.009h0c.918 0 1.834.048 2.758.095.309.016.62.032.931.046h.002c.455.018.828.128 1.125.328.295.199.531.499.695.924v.001c.385.98.269 1.952-.308 2.744l-.001.002c-.084.117-.267.228-.534.313-.257.083-.552.13-.806.148l-.346.023c-2.241.153-4.479.305-6.708.305h-.001c-27.1.05-54.2.083-81.299.117l-27.122.034v.25zm0 0l27.122-.034c27.1-.034 54.2-.067 81.3-.117l-108.29-5.306c-.593.009-1.262.103-1.77.386-.857.47-1.318 2.041-1.026 2.945.31.987 1.742 2.126 2.664 2.126zm40.618-52.813h0l-.027.227c-.17 1.47-.34 2.924-.349 4.385-.04 8.715-.056 17.426-.072 26.135l-.022 10.456c0 .159.014.303.03.465l.007.084h5.4V77.615c0-1.233 1.347-2.56 2.6-2.56 4.906 0 9.821 0 14.727.02l-22.294.112zm0 0c.14-1.23.932-2.106 1.84-3.013h0c1.46-1.468 3.077-2.3 5.215-2.354h0c6.863-.188 13.722-.254 20.58-.028h0c1.423.044 3.092.81 4.44 2.013 1.347 1.202 2.334 2.806 2.447 4.49m-34.522-1.108l34.771 1.092m-5.042 40.632h5.185c.012-.192.021-.359.021-.521-.005-3.177-.008-6.353-.011-9.531-.008-7.411-.015-14.824-.055-22.233m-5.14 32.285l5.39-32.287m-5.39 32.287v0-.663 0c-.019-10.858-.038-21.716-.066-32.565h0c-.008-1.7-.057-3.392-.107-5.086l-.025-.867.198 39.181zm5.14-32.285l.25-.002m-.25.002s0 0 0 0l.25-.002m-.25.002c-.018-2.768-.169-5.557-.347-8.331m.597 8.33c-.018-2.776-.169-5.57-.348-8.346m-.25.016s0 0 0 0l.25-.016m-.25.016s0 0 0 0l.25-.016m-7.799-1.313h.001c1.457.104 2.517 1.31 2.558 2.764l-2.559-2.764zm0 0c-1.561-.104-3.121-.132-4.676-.142h0m4.676.142l-4.677-.142m0 0c-4.906-.018-9.822-.018-14.728-.018m14.728.018l-14.728-.018m0 0c-.71 0-1.42.372-1.945.889m1.945-.89l-1.945.89m0 0c-.524.517-.904 1.217-.904 1.92m.904-1.92l-.904 1.92m0 0v.075m0-.075v.075m0 0v.076m0-.076v.076m0 0v.075m0-.075v.075m0 0v.075m0-.075v.075m0 0v.076m0-.076v.076m0 0v.075m0-.075v.075m0 0v.075m0-.075v.075m0 0v.076m0-.076v.076m0 0v.075m0-.075v.075m0 0v.075m0-.075v.075m0 0v.076m0-.076v.076m0 0v.075m0-.075v.075m0 0v.076m0-.076v.076m0 0v.075m0-.075v.075m0 0v.075m0-.075v.075m0 0v.076m0-.076v.076m0 0v.075m0-.075v.075m0 0v.075m0-.075v.075m0 0v.076m0-.076v.076m0 0v.075m0-.075v.075m0 0v.076m0-.076v.076m0 0v.075m0-.075v.075m0 0v.075m0-.075v.075m0 0v.076m0-.076v.076m0 0v.075m0-.075v.075m0 0v.075m0-.075v.075m0 0v.076m0-.076v.076m0 0v.075m0-.075v.075m0 0v.076m0-.076v.076m0 0v.075m0-.076v.076m0 0v.075m0-.075v.075m0 0v.076m0-.076v.076m0 0v.075m0-.075v.075m0 0v.075m0-.075v.075m0 0v.076m0-.076v.076m0 0v.075m0-.075v.075m0 0v.075m0-.075v.075m0 0v.076m0-.076v.076m0 0v.075m0-.075v.075m0 0v.075m0-.075v.075m0 0v.076m0-.076v.076m0 0v.075m0-.075v.075m0 0v.076m0-.076v.076m0 0v.075m0-.075v.075m0 0v.075m0-.075v.075m0 0v.076m0-.076v.076m0 0v.075m0-.075v.075m0 0v.076m0-.076v.076m0 0v.075m0-.076v.076m0 0v.075m0-.075v.075m0 0v.076m0-.076v.076m0 0v.075m0-.075v.075m0 0v.075m0-.075v.075m0 0v.076m0-.076v.076m0 0v.075m0-.075v.075m0 0v.075m0-.075v.075m0 0v.076m0-.076v.076m0 0v.075m0-.075v.075m0 0v.076m0-.076v.076m0 0v.075m0-.075v.075m0 0v.075m0-.075v.075m0 0v.076m0-.076v.076m0 0v.075m0-.075v.075m0 0v.076m0-.076v.076m0 0v.075m0-.075v.075m0 0v.075m0-.075v.075m0 0v.076m0-.076v.076m0 0v.075m0-.075v.075m0 0v.075m0-.075v.075m0 0v.076m0-.076v.076m0 0v.075m0-.075v.075m0 0v.076m0-.076v.076m0 0v.075m0-.076v.076m0 0v.075m0-.075v.075m0 0v.076m0-.076v.076m0 0v.075m0-.075v.075m0 0v.075m0-.075v.075m0 0v.076m0-.076v.076m0 0v.075m0-.075v.075m0 0v.076m0-.076v.076m0 0v.075m0-.075v.075m0 0v.075m0-.075v.075m0 0v.076m0-.076v.076m0 0v.075m0-.075v.075m0 0v.076m0-.076v.076m0 0v.075m0-.075v.075m0 0v.075m0-.075v.075m0 0v.076m0-.076v.076m0 0v.075m0-.075v.075m0 0v.075m0-.075v.075m0 0v.076m0-.076v.076m0 0v.075m0-.075v.075m0 0v.075m0-.075v.075m0 0v.076m0-.076v.076m0 0v.075m0-.075v.075m0 0v.076m0-.076v.076m0 0v.075m0-.075v.075m0 0v.075m0-.075v.075m0 0v.076m0-.076v.076m0 0v.075m0-.075v.075m0 0v.076m0-.076v.076m0 0v.075m0-.075v.075m0 0v.075m0-.075v.075m0 0v.076m0-.076v.076m0 0v.075m0-.075v.075m0 0v.075m0-.075v.075m0 0v.076m0-.076v.076m0 0v.075m0-.075v.075m0 0v.076m0-.076v.076m0 0v.075m0-.075v.075m0 0v.075m0-.075v.075m0 0v.076m0-.076v.076m0 0v.075m0-.075v.075m0 0v.075m0-.075v.075m0 0v.076m0-.076v.076m0 0v.075m0-.075v.075m0 0v.076m0-.076v.076m0 0v.075m0-.075v.075m0 0v.075m0-.075v.075m0 0v.076m0-.076v.076m0 0v.075m0-.075v.075m0 0v.076m0-.076v.076m0 0v.075m0-.075v.075m0 0v.075m0-.075v.075m0 0v.076m0-.076v.076m0 0v.075m0-.075v.075m0 0v.076m0-.076v.076m0 0v.075m0-.076v.076m0 0v.075m0-.075v.075m0 0v.076m0-.076v.076m0 0v.075m0-.075v.075m0 0v.075m0-.075v.075m0 0v.076m0-.076v.076m0 0v.075m0-.075v.075m0 0v.076m0-.076v.076m0 0v.075m0-.075v.075m0 0v.075m0-.075v.075m0 0v.076m0-.076v.076m0 0v.075m0-.075v.075m0 0v.076m0-.076v.076m0 0v.075m0-.075v.075m0 0v.075m0-.075v.075m0 0v.076m0-.076v.076m0 0v.075m0-.075v.075m0 0v.075m0-.075v.075m0 0v.076m0-.076v.076m0 0v.075m0-.075v.075m0 0v.076m0-.076v.076m0 0v.075m0-.075v.075m0 0v.075m0-.075v.075m0 0v.076m0-.076v.076m0 0v.075m0-.075v.075m0 0v.075m0-.075v.075m0 0v.076m0-.076v.076m0 0v.075m0-.075v.075m0 0v.076m0-.076v.076m0 0v.075m0-.075v.075m0 0v.076m0-.076v.076m0 0v.075m0-.075v.075m0 0v.075m0-.075v.075m0 0v.076m0-.076v.076m0 0v.075m0-.075v.075m0 0v.075m0-.075v.075m0 0v.076m0-.076v.076m0 0v.075m0-.075v.075m0 0v.076m0-.076v.076m0 0v.075m0-.075v.075m0 0v.075m0-.075v.075m0 0v.076m0-.076v.076m0 0v.075m0-.075v.075m0 0v.075m0-.075v.075m0 0v.076m0-.076v.076m0 0v.075m0-.075v.075m0 0v.076m0-.076v.076m0 0v.075m0-.075v.075m0 0v.075m0-.075v.075m0 0v.076m0-.076v.076m0 0v.075m0-.075v.075m0 0v.076m0-.076v.076m0 0v.075m0-.075v.075m0 0v.075m0-.075v.075m0 0v.076m0-.076v.076m0 0v.075m0-.075v.075m0 0v.076m0-.076v.076m0 0v.075m0-.075v.075m0 0v.075m0-.075v.075m0 0v.076m0-.076v.076m0 0v.075m0-.075v.075m0 0v.076m0-.076v.076m0 0v.075m0-.075v.075m0 0v.075m0-.075v.075m0 0v.076m0-.076v.076m0 0v.075m0-.075v.075m0 0v.075m0-.075v.075m0 0v.076m0-.076v.076m0 0v.075m0-.075v.075m0 0v.076m0-.076v.076m0 0v.075m0-.075v.075m0 0v.075m0-.075v.075m0 0v.076m0-.076v.076m0 0v.075m0-.075v.075m0 0v.076m0-.076v.076m0 0v.075m0-.075v.075m0 0v.075m0-.075v.075m0 0v.076m0-.076v.076m0 0v.075m0-.075v.075m0 0v.076m0-.076v.076m0 0v.075m0-.075v.075m0 0v.075m0-.075v.075m0 0v.076m0-.076v.076m0 0v.075m0-.075v.075m0 0v.076m0-.076v.076m0 0v.075m0-.076v.076m0 0v.075m0-.075v.075m0 0v.076m0-.076v.076m0 0v.075m0-.075v.075m0 0v.075m0-.075v.075m0 0v.076m0-.076v.076m0 0v.075m0-.075v.075m0 0v.076m0-.076v.076m0 0v.075m0-.075v.075m0 0v.075m0-.075v.075m0 0v.076m0-.076v.076m0 0v.075m0-.075v.075m0 0v.076m0-.076v.076m0 0v.075m0-.075v.075m0 0v.075m0-.075v.075m0 0v.076m0-.076v.076m0 0v.075m0-.075v.075m0 0v.076m0-.076v.076m0 0v.075m0-.076v.076m0 0v.075m0-.075v.075m0 0v.076m0-.076v.076m0 0v.075m0-.075v.075m0 0v.075m0-.075v.075m0 0v.076m0-.076v.076m0 0v.075m0-.075v.075m0 0v.076m0-.076v.076m0 0v.075m0-.075v.075m0 0v.075m0-.075v.075m0 0v.076m0-.076v.076m0 0v.075m0-.075v.075m0 0v.076m0-.076v.076m0 0v.075m0-.075v.075m0 0v.075m0-.075v.075m0 0v.076m0-.076v.076m0 0v.075m0-.075v.075m0 0v.076m0-.076v.076m0 0v.075m0-.075v.075m0 0v.075m0-.075v.075m0 0v.076m0-.076v.076m0 0v.075m0-.075v.075m0 0v.075m0-.075v.075m0 0v.076m0-.076v.076m0 0v.075m0-.075v.075m0 0v.076m0-.076v.076m0 0v.075m0-.075v.075m0 0v.076m0-.076v.076m0 0v.075m0-.075v.075m0 0v.075m0-.075v.075m0 0v.076m0-.076v.076m0 0v.075m0-.075v.075m0 0v.075m0-.075v.075m0 0v.076m0-.076v.076m0 0v.075m0-.075v.075m0 0v.076m0-.076v.076m0 0v.075m0-.075v.075m0 0v.075m0-.075v.075m0 0v.076m0-.076v.076m0 0v.075m0-.075v.075m0 0v.076m0-.076v.076m0 0v.075m0-.075v.075m0 0v.075m0-.075v.075m0 0v.076m0-.076v.076m0 0v.075m0-.075v.075m0 0v.076m0-.076v.076m0 0v.075m0-.075v.075m0 0v.075m0-.075v.075m0 0v.076m0-.076v.076m0 0v.075m0-.075v.075m0 0v.076m0-.076v.076m0 0v.075m0-.076v.076m0 0v.075m0-.075v.075m0 0v.076m0-.076v.076m0 0v.075m0-.075v.075m0 0v.075m0-.075v.075m0 0v.076m0-.076v.076m0 0v.075m0-.075v.075m0 0v.076m0-.076v.076m0 0v.075m0-.075v.075m0 0v.075m0-.075v.075m0 0v.076m0-.076v.076m0 0v.075m0-.075v.075m0 0v.076m0-.076v.076m0 0v.075m0-.075v.075m0 0v.075m0-.075v.075m0 0v.076m0-.076v.076m0 0v.075m0-.075v.075m0 0v.076m0-.076v.076m0 0v.075m0-.075v.075m0 0v.075m0-.075v.075m0 0v.076m0-.076v.076m0 0v.075m0-.075v.075m0 0v.075m0-.075v.075m0 0v.076m0-.076v.076m0 0v.075m0-.075v.075m0 0v.076m0-.076v.076m0 0v.075m0-.075v.075m0 0v.075m0-.075v.075m0 0v.076m0-.076v.076m0 0v.075m0-.075v.075m0 0v.076m0-.076v.076m0 0v.075m0-.075v.075m0 0v.075m0-.075v.075m0 0v.076m0-.076v.076m0 0v.075m0-.075v.075m0 0v.076m0-.076v.076m0 0v.075m0-.075v.075m0 0v.075m0-.075v.075m0 0v.076m0-.076v.076m0 0v.075m0-.075v.075m0 0v.075m0-.075v.075m0 0v.076m0-.076v.076m0 0v.075m0-.075v.075m0 0v.076m0-.076v.076m0 0v.075m0-.075v.075m0 0v.075m0-.075v.075m0 0v.076m0-.076v.076m0 0v.075m0-.075v.075m0 0v.076m0-.076v.076m0 0v.075m0-.075v.075m0 0v.075m0-.075v.075m0 0v.076m0-.076v.076m0 0v.075m0-.075v.075m0 0v.076m0-.076v.076m0 0v.075m0-.075v.075m0 0v.075m0-.075v.075m0 0v.076m0-.076v.076m0 0v.075m0-.075v.075m0 0v.075m0-.075v.075m0 0v.076m0-.076v.076m0 0v.075m0-.075v.075m0 0v.076m0-.076v.076m0 0v.075m0-.075v.075m0 0v.075m0-.075v.075m0 0v.076m0-.076v.076m0 0v.075m0-.075v.075m0 0v.076m0-.076v.076m0 0v.075m0-.075v.075m0 0v.075m0-.075v.075m0 0v.076m0-.076v.076m0 0v.075m0-.075v.075m0 0v.076m0-.076v.076m0 0v.075m0-.075v.075m0 0v.075m0-.075v.075m0 0v.076m0-.076v.076m0 0v.075m0-.075v.075m0 0v.075m0-.075v.075m0 0v.076m0-.076v.076m0 0v.075m0-.075v.075m0 0v.076m0-.076v.076m0 0v.075m0-.075v.075m0 0v.075m0-.075v.075m0 0v.076m0-.076v.076m0 0v.075m0-.075v.075m0 0v.076m0-.076v.076m0 0v.075m0-.075v.075m0 0v.075m0-.075v.075m0 0v.076m0-.076v.076m0 0v.075m0-.075v.075m0 0v.075m0-.075v.075m0 0v.076m0-.076v.076m0 0v.075m0-.075v.075m0 0v.076m0-.076v.076m0 0v.075m0-.075v.075m0 0v.075m0-.075v.075m0 0v.076m0-.076v.076m0 0v.075m0-.075v.075m0 0v.076m0-.076v.076m0 0v.075m0-.075v.075m0 0v.075m0-.075v.075m0 0v.076m0-.076v.076m0 0v.075m0-.075v.075m0 0v.075m0-.075v.075m0 0v.076m0-.076v.076m0 0v.075m0-.075v.075m0 0v.076m0-.076v.076m0 0v.075m0-.075v.075m0 0v.075m0-.075v.075m0 0v.076m0-.076v.076m0 0v.075m0-.075v.075m0 0v.076m0-.076v.076m0 0v.075m0-.075v.075m0 0v.075m0-.075v.075m0 0v.076m0-.076v.076m0 0v.075m0-.075v.075m0 0v.075m0-.075v.075m0 0v.076m0-.076v.076m0 0v.075m0-.075v.075m0 0v.076m0-.076v.076m0 0v.075m0-.075v.075m0 0v.075m0-.075v.075m0 0v.076m0-.076v.076m0 0v.075m0-.075v.075m0 0v.076m0-.076v.076m0 0v.075m0-.075v.075m0 0v.075m0-.075v.075m0 0v.076m0-.076v.076m0 0v.075m0-.075v.075m0 0v.075m0-.075v.075m0 0v.076m0-.076v.076m0 0v.075m0-.075v.075m0 0v.076m0-.076v.076m0 0v.075m0-.075v.075m0 0v.075m0-.075v.075m0 0v.076m0-.076v.076m0 0v.075m0-.075v.075m0 0v.076m0-.076v.076m0 0v.075m0-.075v.075m0 0v.075m0-.075v.075m0 0v.076m0-.076v.076m0 0v.075m0-.075v.075m0 0v.075m0-.075v.075m0 0v.076m0-.076v.076m0 0v.075m0-.075v.075m0 0v.076m0-.076v.076m0 0v.075m0-.075v.075m0 0v.075m0-.075v.075m0 0v.076m0-.076v.076m0 0v.075m0-.075v.075m0 0v.075m0-.075v.075m0 0v.076m0-.076v.076m0 0v.075m0-.075v.075m0 0v.076m0-.076v.076m0 0v.075m0-.075v.075m0 0v.075m0-.075v.075m0 0v.076m0-.076v.076m0 0v.075m0-.075v.075m0 0v.075m0-.075v.075m0 0v.076m0-.076v.076m0 0v.075m0-.075v.075m0 0v.076m0-.076v.076m0 0v.075m0-.075v.075m0 0v.075m0-.075v.075m0 0v.076m0-.076v.076m0 0v.075m0-.075v.075m0 0v.075m0-.075v.075m0 0v.076m0-.076v.076m0 0v.075m0-.075v.075m0 0v.076m0-.076v.076m0 0v.075m0-.075v.075m0 0v.075m0-.075v.075m0 0v.076m0-.076v.076m0 0v.075m0-.075v.075m0 0v.075m0-.075v.075m0 0v.076m0-.076v.076m0 0v.075m0-.075v.075m0 0v.076m0-.076v.076m0 0v.075m0-.075v.075m0 0v.075m0-.075v.075m0 0v.076m0-.076v.076m0 0v.075m0-.075v.075m0 0v.075m0-.075v.075m0 0v.076m0-.076v.076m0 0v.075m0-.075v.075m0 0v.076m0-.076v.076m0 0v.075m0-.075v.075m0 0v.075m0-.075v.075m0 0v.076m0-.076v.076m0 0v.075m0-.075v.075m0 0v.075m0-.075v.075m0 0v.076m0-.076v.076m0 0v.075m0-.075v.075m0 0v.076m0-.076v.076m0 0v.075m0-.075v.075m0 0v.075m0-.075v.075m0 0v.076m0-.076v.076m0 0v.075m0-.075v.075m0 0v.075m0-.075v.075m0 0v.076m0-.076v.076m0 0v.075m0-.075v.075m0 0v.076m0-.076v.076m0 0v.075m0-.075v.075m0 0v.075m0-.075v.075m0 0v.076m0-.076v.076m0 0v.075m0-.075v.075m0 0v.075m0-.075v.075m0 0v.076m0-.076v.076m0 0v.075m0-.075v.075m0 0v.075m0-.075v.075m0 0v.076m0-.076v.076m0 0v.075m0-.075v.075m0 0v.076m0-.076v.076m0 0v.075m0-.075v.075m0 0v.075m0-.075v.075m0 0v.076m0-.076v.076m0 0v.075m0-.075v.075m0 0v.075m0-.075v.075m0 0v.076m0-.076v.076m0 0v.075m0-.075v.075m0 0v.076m0-.076v.076m0 0v.075m0-.075v.075m0 0v.075m0-.075v.075m0 0v.076m0-.076v.076m0 0v.075m0-.075v.075m0 0v.075m0-.075v.075m0 0v.076m0-.076v.076m0 0v.075m0-.075v.075m0 0v.075m0-.075v.075m0 0v.076m0-.076v.076m0 0v.075m0-.075v.075m0 0v.076m0-.076v.076m0 0v.001-.001z" fill="#fff" stroke="#1C54AD" stroke-width=".5"/><mask id="b" fill="#fff"><path d="M41.385 95.802v6.756c0 .292-.01.593-.047.884-.292 2.663-1.243 3.614-3.927 3.67-3.324.066-6.648.019-9.972.019-.376 0-.744-.066-1.12-.113-1.431-.198-2.279-1.035-2.514-2.428a16.414 16.414 0 01-.264-2.794c0-4.018 0-8.035.094-12.053.075-2.898.829-3.698 3.71-3.801 3.776-.132 7.562-.104 11.338-.094.339 0 .678.338 1.007.545 1.347.847 1.827 2.023 1.695 3.642-.15 1.92-.037 3.857-.037 5.786.009-.019.028-.019.037-.019zm-5.716 5.505v-9.758h-6.44v9.758h6.44z"/></mask><path d="M41.385 95.802v6.756c0 .292-.01.593-.047.884-.292 2.663-1.243 3.614-3.927 3.67-3.324.066-6.648.019-9.972.019-.376 0-.744-.066-1.12-.113-1.431-.198-2.279-1.035-2.514-2.428a16.414 16.414 0 01-.264-2.794c0-4.018 0-8.035.094-12.053.075-2.898.829-3.698 3.71-3.801 3.776-.132 7.562-.104 11.338-.094.339 0 .678.338 1.007.545 1.347.847 1.827 2.023 1.695 3.642-.15 1.92-.037 3.857-.037 5.786.009-.019.028-.019.037-.019zm-5.716 5.505v-9.758h-6.44v9.758h6.44z" fill="#fff"/><path d="M41.385 95.802h.5v-.5h-.5v.5zm-.047 7.64l-.496-.064v.01l.496.054zm-3.927 3.67l.01.5h.001l-.01-.5zm-11.092-.094l-.069.495.007.001.062-.496zm-2.514-2.428l.493-.083v-.002l-.493.085zm-.17-14.847l-.5-.013v.001l.5.012zm3.71-3.801l-.017-.5.017.5zm11.338-.094l-.002.5h.002v-.5zm1.007.545l.266-.423-.266.423zm1.695 3.642l-.498-.04.498.04zm-.037 5.786h-.5l.947.224-.447-.224zm-5.679 5.486v.5h.5v-.5h-.5zm0-9.758h.5v-.5h-.5v.5zm-6.44 0v-.5h-.5v.5h.5zm0 9.758h-.5v.5h.5v-.5zm11.656-5.505v6.756h1v-6.756h-1zm0 6.756c0 .283-.009.56-.043.82l.992.129c.042-.323.051-.648.051-.949h-1zm-.044.83c-.142 1.299-.436 2.052-.913 2.504-.473.448-1.226.693-2.527.72l.021 1c1.382-.029 2.447-.288 3.194-.994.742-.703 1.07-1.757 1.22-3.121l-.995-.109zm-3.44 3.224c-3.317.066-6.628.019-9.962.019v1c3.315 0 6.652.047 9.982-.019l-.02-1zm-9.962.019c-.335 0-.646-.058-1.058-.109l-.124.992c.341.043.764.117 1.182.117v-1zm-1.052-.108c-.632-.088-1.096-.31-1.425-.629-.33-.32-.56-.773-.664-1.387l-.986.167c.131.778.442 1.44.953 1.937.511.497 1.187.792 1.985.902l.137-.99zm-2.09-2.018a15.927 15.927 0 01-.256-2.709h-1c0 .968.107 1.938.271 2.88l.985-.171zm-.256-2.709c0-4.019 0-8.03.094-12.041l-1-.024c-.094 4.025-.094 8.048-.094 12.065h1zm.094-12.04c.038-1.444.25-2.188.662-2.613.41-.423 1.134-.65 2.566-.702l-.036-.999c-1.449.052-2.542.276-3.248 1.004-.703.725-.906 1.83-.944 3.284l1 .026zm3.228-3.315c3.764-.13 7.538-.103 11.319-.093l.002-1c-3.772-.01-7.568-.038-11.356.094l.035 1zm11.32-.093c.013 0 .077.01.233.113.071.047.144.1.23.164.083.06.18.13.278.192l.532-.847a3.912 3.912 0 01-.22-.153c-.08-.058-.175-.128-.271-.192-.181-.119-.457-.277-.782-.277v1zm.741.469c.604.38.987.815 1.212 1.313.228.504.312 1.112.25 1.864l.998.081c.07-.866-.02-1.655-.336-2.356-.319-.706-.85-1.282-1.592-1.749l-.532.847zm1.463 3.179c-.153 1.944-.04 3.936-.04 5.825h1c0-1.969-.112-3.853.037-5.747l-.997-.078zm.908 6.049a.468.468 0 01-.27.234c-.08.026-.148.023-.14.023v-1s-.083-.003-.176.028a.532.532 0 00-.309.267l.895.448zm-5.626 5.262V91.55h-1v9.757h1zm-.5-10.258H29.23v1h6.439v-1zm-6.94.5v9.758h1v-9.758h-1zm.5 10.258h6.44v-1H29.23v1z" fill="#1C54AD" mask="url(#b)"/><mask id="c" fill="#fff"><path d="M103.524 96.8c0 2.437.056 4.874-.019 7.311-.047 1.486-1.12 2.587-2.571 2.907-.517.113-1.064.216-1.59.216-3.297-.018-6.602-.018-9.888-.131-2.373-.085-3.437-1.045-3.494-3.425-.103-4.893-.075-9.795.02-14.697.037-1.929.931-2.738 2.852-2.926 3.983-.386 7.976-.424 11.969-.029 1.789.18 2.58.988 2.683 2.898.142 2.625.179 5.25.255 7.876h-.217zm-5.565-5.222h-6.47v9.71h6.47v-9.71z"/></mask><path d="M103.524 96.8c0 2.437.056 4.874-.019 7.311-.047 1.486-1.12 2.587-2.571 2.907-.517.113-1.064.216-1.59.216-3.297-.018-6.602-.018-9.888-.131-2.373-.085-3.437-1.045-3.494-3.425-.103-4.893-.075-9.795.02-14.697.037-1.929.931-2.738 2.852-2.926 3.983-.386 7.976-.424 11.969-.029 1.789.18 2.58.988 2.683 2.898.142 2.625.179 5.25.255 7.876h-.217zm-5.565-5.222h-6.47v9.71h6.47v-9.71z" fill="#fff"/><path d="M103.524 96.8v-.5h-.5v.5h.5zm-.019 7.311l.5.015-.5-.015zm-2.571 2.907l.107.488h.001l-.108-.488zm-1.59.216l-.004.5h.003v-.5zm-9.888-.131l-.018.499.018-.499zm-3.494-3.425l-.5.01v.002l.5-.012zm.02-14.697l-.5-.01.5.01zm2.852-2.926l-.048-.498.048.498zm11.969-.029l.049-.497-.049.498zm2.683 2.898l.5-.026-.5.026zm.255 7.876v.5h.514l-.015-.515-.499.015zm-5.782-5.222h.5v-.5h-.5v.5zm-6.47 0v-.5h-.5v.5h.5zm0 9.71h-.5v.5h.5v-.5zm6.47 0v.5h.5v-.5h-.5zm5.065-4.488c0 2.453.056 4.868-.019 7.295l1 .031c.076-2.447.019-4.905.019-7.326h-1zm-.019 7.295c-.038 1.221-.913 2.156-2.178 2.435l.215.976c1.635-.361 2.907-1.627 2.963-3.38l-1-.031zm-2.177 2.434c-.515.113-1.016.205-1.485.205v1c.586 0 1.177-.114 1.698-.228l-.213-.977zm-1.482.205c-3.3-.019-6.596-.019-9.873-.131l-.034.999c3.295.114 6.61.114 9.901.132l.006-1zm-9.872-.131c-1.136-.041-1.847-.289-2.287-.712-.434-.418-.698-1.098-.725-2.225l-1 .024c.03 1.253.327 2.243 1.032 2.921.7.673 1.707.947 2.944.991l.036-.999zm-3.012-2.936c-.103-4.884-.075-9.779.019-14.677l-1-.019c-.094 4.907-.122 9.816-.019 14.717l1-.021zm.019-14.676c.018-.894.231-1.43.573-1.772.35-.348.918-.578 1.829-.667l-.097-.995c-1.01.099-1.85.369-2.438.954-.594.593-.847 1.425-.867 2.46l1 .02zm2.401-2.439c3.955-.383 7.915-.42 11.871-.028l.099-.995c-4.029-.399-8.054-.36-12.066.028l.096.995zm11.871-.028c.835.084 1.341.305 1.659.644.319.341.526.884.575 1.783l.999-.054c-.055-1.01-.296-1.827-.845-2.413-.551-.588-1.335-.86-2.289-.955l-.099.995zm2.234 2.427c.141 2.617.178 5.228.254 7.863l.999-.029c-.075-2.615-.113-5.254-.254-7.887l-.999.053zm.754 7.349h-.217v1h.217v-1zm-5.782-5.222H91.49v1h6.469v-1zm-6.97.5v9.71h1v-9.711h-1zm.5 10.21h6.471v-1h-6.47v1zm6.97-.5v-9.71h-1v9.71h1z" fill="#1C54AD" mask="url(#c)"/><path d="M23.904 66.211h-.028c0-.709-.006-1.415-.012-2.12-.014-1.62-.028-3.232.03-4.843h0c.047-1.293.27-2.072.733-2.545.461-.47 1.217-.696 2.489-.724 3.554-.075 7.118-.037 10.683.085h0c1.136.037 1.907.27 2.406.731.493.457.767 1.184.799 2.329h0c.14 4.886.094 9.783-.094 14.67-.041 1.063-.33 1.77-.828 2.222-.503.455-1.263.69-2.336.71h0c-3.667.065-7.335.018-11.004-.114h0c-.893-.03-1.568-.31-2.03-.781-.463-.472-.74-1.165-.78-2.075-.072-1.761-.057-3.523-.041-5.294.007-.748.013-1.499.013-2.25zm-.278-.23s0 0 0 0v0zm12.006 5.636h.25V61.06h-6.894v10.558h6.644zm53.801 5.127h0c3.582.075 7.175.047 10.757-.085m-10.757.085l-3.678-15.435.25-.003s0 0 0 0c-.01-.871.046-1.744.158-2.608.202-1.472 1.392-2.628 2.828-2.662 3.69-.085 7.386-.141 11.082-.075h0c1.134.018 1.893.29 2.38.792.49.505.751 1.289.783 2.437v.002c.061 1.68.049 3.374.038 5.073-.005.682-.01 1.366-.01 2.05 0 .717.005 1.434.011 2.15.011 1.667.023 3.33-.029 4.992-.037 1.1-.295 1.868-.772 2.374-.474.503-1.205.787-2.284.828m-10.757.085c-1.096-.023-1.864-.291-2.372-.789-.509-.497-.799-1.265-.85-2.378m3.222 3.167l10.767.165m-.01-.25h.001l.009.25m-.01-.25s0 0 0 0l.01.25m0 0c-3.588.132-7.185.16-10.773.085-2.26-.047-3.361-1.11-3.465-3.406m0 0l.25-.011s0 0 0 0m-.25.01l.25-.01s0 0 0 0m-.25.01l.25-.01m11.737-1.988h.25V61.077h-6.912v10.371l.209.035c.092.016.17.031.246.046l.111.022c.108.021.22.039.333.039h5.764zM56.01 98.103c.432-.44.986-.713 1.502-.705 1.205.026 2.284 1.131 2.26 2.285-.013.513-.286 1.066-.701 1.495-.417.43-.938.697-1.404.697-.578 0-1.173-.276-1.627-.705-.454-.43-.735-.984-.731-1.508v-.004c-.005-.543.27-1.116.701-1.555zM60.262 30.8v.25c0 .246-.002.464-.005.665v.043c-.002.183-.005.353-.005.52.012.437.022.873.032 1.308.03 1.304.06 2.603.138 3.903l-.25.015.25-.014c.051.87.451 1.576 1.235 2.049h0c2.027 1.229 4.48.248 4.88-2.022h0c.221-1.234.268-2.49.316-3.765.02-.545.041-1.093.075-1.645V32.1h0c.021-.24.032-.482.043-.758l.014-.305.01-.238h.24l1.912-.002c1.238-.002 2.448-.004 3.653.002.847 0 1.559-.22 2.119-.856l.002-.003c.927-1.023 1.154-2.199.73-3.49h0c-.204-.633-.526-1.096-.95-1.407-.423-.312-.969-.487-1.645-.51a58.395 58.395 0 01-.978-.034 43.054 43.054 0 00-1.268-.04c-.761-.007-1.517-.005-2.287-.003l-1.185.002h-.229l-.02-.228c-.028-.32-.047-.556-.066-.791v-.001h0c-.049-.621-.09-1.239-.13-1.854-.086-1.31-.17-2.608-.33-3.903v-.001c-.08-.668-.495-1.311-1.08-1.778-.586-.467-1.314-.735-1.987-.684h0c-1.45.109-2.92.91-3.066 2.595v.002c-.075.796-.13 1.599-.15 2.39-.02.926-.016 1.85-.012 2.811.002.394.003.793.003 1.202v.25h-.25c-.258 0-.5-.003-.734-.005-.44-.004-.849-.008-1.264.005h0c-.366.01-.73.017-1.092.024a73.517 73.517 0 00-3.24.116h0a2.609 2.609 0 00-2.02 1.114 3.586 3.586 0 00-.647 1.945l9.238 3.132zm0 0h-.25m.25 0h-.25m0 0c-.45 0-.886.001-1.312.003-1.034.004-2.012.007-2.996-.013h-.001m4.309.01l-4.31-.01m0 0c-.693-.009-1.376-.037-2.047-.138h0m2.048.138l-2.048-.138m0 0c-.83-.124-1.494-.479-1.946-.99m1.946.99l-1.946-.99m0 0c-.45-.51-.702-1.19-.685-1.994l.685 1.994z" fill="#fff" stroke="#1C54AD" stroke-width=".5"/></g><defs><clipPath id="clip0_3133_5239"><path fill="#fff" d="M0 0h127v128H0z"/></clipPath></defs></svg>