<svg width="122" height="131" fill="none" xmlns="http://www.w3.org/2000/svg"><g clip-path="url(#clip0_3133_5237)"><path d="M117.664 126.624v-26.086h-4.337v8.714h-8.644v8.657h-4.384v-8.581H56.688v8.581h-4.356v-8.647h-8.644c-.02-.371-.057-.646-.057-.931 0-2.401-.02-4.803.028-7.205.01-.408.218-.911.502-1.196 2.386-2.402 4.791-4.794 7.253-7.129.681-.645.918-1.29.918-2.212-.028-7.907-.019-15.805-.019-23.713v-1.281h52.341v.93c0 8.135-.009 16.28.029 24.416 0 .455.246 1.006.558 1.357.985 1.11 2.084 2.136 3.097 3.228.388.417.786.588 1.363.588 3.769-.028 7.537-.01 11.305-.01h1.004V131H8.835V96.143h17.289c.019-.361.047-.646.047-.921 0-7.234-.01-14.467.01-21.691 0-.532-.152-.817-.635-1.073-2.651-1.405-4.734-3.427-6.135-6.075-.389-.731-.796-.864-1.544-.864-7.1-.047-12.47-3.152-15.84-9.426-3.608-6.712-2.244-15.084 3.219-20.457.492-.484.578-.836.303-1.49-3.693-8.829 1.827-19.015 11.239-20.761.615-.114.871-.332.994-.959C19.032 5.601 24.808.446 31.587.028c7.11-.436 13.455 3.807 15.623 10.442.142.447.322.902.34 1.358.058 1.14.701 1.462 1.733 1.709 9.317 2.221 14.203 11.96 10.52 20.855-.19.465-.095.712.246 1.054 8.692 8.705 6.562 22.612-4.355 28.279-2.614 1.357-5.445 1.898-8.39 1.785-.52-.02-.833.075-1.098.588-1.401 2.725-3.475 4.841-6.173 6.275-.635.332-.758.721-.758 1.357.01 14.372.01 28.754.01 43.126v1.035h-4.327V74.224h-4.375v43.685h-4.402v-17.352H13.152v26.076c34.815-.009 69.63-.009 104.512-.009zm-95.83-66.165c1.298 6.54 6.146 9.303 10.141 9.398 6.4.152 10.17-3.275 11.656-9.398 7.338 2.354 13.9-1.367 16.427-7.1 2.585-5.867.587-13.784-6.466-17.23 3.332-4.651 4.024-8.571 2.026-12.445-2.566-4.983-6.79-6.768-12.186-6.056.7-4.651-.597-8.543-4.46-11.258-3.664-2.582-7.688-2.791-11.57-.57-4.535 2.601-6.098 6.75-5.387 11.847-4.82-.702-8.882.655-11.505 4.87-2.982 4.784-2.177 9.398 1.364 13.631-6.865 3.418-9.033 10.955-6.562 16.954 2.358 5.772 8.938 9.759 16.523 7.357zm87.129 44.388c.189-2.23.198-2.23-1.241-3.711-1.467-1.51-2.916-3.028-4.422-4.51-.274-.275-.738-.502-1.107-.502-15.737-.029-31.483-.029-47.22-.01-.34 0-.785.095-1.012.323a387.247 387.247 0 00-5.643 5.515c-.17.171-.313.437-.332.674-.038.722-.019 1.453-.019 2.221h60.996zM56.697 74.243h43.526V69.99H56.697v4.253zm.02 13.176v4.243h43.497v-4.243H56.716zm43.525-8.677H56.707v4.225h43.535v-4.225z" fill="#1C54AD"/></g><defs><clipPath id="clip0_3133_5237"><path fill="#fff" d="M0 0h122v131H0z"/></clipPath></defs></svg>