<svg width="118" height="117" fill="none" xmlns="http://www.w3.org/2000/svg"><g clip-path="url(#clip0_3133_5255)"><path d="M11.7 100.696c.018-.314.045-.574.045-.834 0-15.946 0-31.89.018-47.836 0-.682-.19-.951-.857-1.23-2.014-.843-3.332-2.341-3.63-4.549-.135-1.014-.135-2.054-.153-3.086-.018-.647-.244-1.005-.921-1.167-1.688-.413-3.323-.951-4.523-2.333-.912-1.05-1.526-2.225-1.562-3.643-.045-1.472-.072-2.952-.118-4.433-.08-2.8 1.346-4.63 3.783-5.805 4.541-2.199 9.083-4.406 13.633-6.578C30.289 13.056 43.182 6.946 56.029.762c1.95-.941 3.584-1.058 5.616-.071 12.973 6.29 26.02 12.446 39.029 18.673 4.668 2.234 9.299 4.558 13.967 6.802 2.275 1.094 3.413 2.826 3.349 5.357a75.407 75.407 0 000 4.28c.1 3.14-2.537 5.841-5.588 6.236-.235.027-.479.09-.713.09-.524 0-.65.269-.668.744-.064 1.185-.136 2.378-.28 3.554-.289 2.252-1.707 3.643-3.738 4.441-.533.207-.668.44-.668.96.009 16.026.009 32.052-.009 48.07 0 .672.216.834.857.852 2.176.054 4.361.081 6.528.305 2.14.215 3.846 1.911 3.954 4.038.145 2.656.045 5.33 0 7.995-.027 1.588-2.573 3.903-4.424 3.903-30.344-.045-60.697 0-91.041.009-5.66 0-11.33-.161-16.991-.063-2.781.045-5.11-2.243-5.11-4.693-.01-2.512.036-5.016.027-7.528 0-1.436 2.311-3.85 4.044-3.832 2.203.018 4.415-.089 6.618-.143.29-.009.578-.027.912-.045zm47.534-63.52v.107h52.337c1.066 0 1.634-.475 1.689-1.543.063-1.265.018-2.54.063-3.805.027-.906-.361-1.426-1.201-1.821-6.753-3.23-13.48-6.533-20.233-9.763-10.653-5.097-21.333-10.157-31.996-15.245-.587-.278-1.065-.26-1.643.009-2.718 1.283-5.462 2.503-8.17 3.786a17261.538 17261.538 0 00-34.47 16.376 449.297 449.297 0 00-9.796 4.81c-.425.215-.957.718-.984 1.113a26.708 26.708 0 00.072 4.414c.117 1.059.668 1.418 1.76 1.445 2.23.054 4.47.117 6.7.117h45.872zm-.289 68.428v.072H13.542c-2.69 0-5.372.054-8.062.054-.578 0-.804.197-.795.772.027 1.561.018 3.113.018 4.675 0 .726.343 1.031 1.084 1.04 2.925.036 5.85.162 8.775.162 18.057.036 36.122.072 54.179.072 14.364-.009 28.728-.081 43.083-.117 1.029 0 1.101-.045 1.138-1.05.045-1.48.036-2.961.045-4.441.009-1.239.009-1.239-1.237-1.239H58.945zm7.24-5.132v-.916c0-2.674-.008-5.339-.017-8.013-.027-13.082-.063-26.165-.081-39.248 0-.69-.145-.969-.912-.96-4.018.036-8.026 0-12.044 0-1.102 0-1.11.018-1.11 1.104-.046 15.73-.082 31.45-.118 47.18 0 .278.027.566.045.853h14.238zM16.62 51.29v.88c0 15.837.01 31.674-.009 47.512 0 .637.163.87.84.861 4.126-.026 8.243-.035 12.369 0 .722.009.885-.224.876-.906-.027-5.106-.01-10.202-.01-15.308 0-10.732-.008-21.472.019-32.204 0-.691-.18-.898-.894-.898-4.126.036-8.243.018-12.369.018-.235 0-.47.027-.822.045zm70.855-.009v49.2h13.93v-49.2h-13.93zm-16.667 49.415h11.728c.018-.269.036-.476.036-.682 0-16.08 0-32.15.01-48.23 0-.512-.19-.71-.642-.916-2.284-.996-3.782-2.602-3.909-5.213l-.081-1.821c-.072-1.92-.072-1.92-2.023-1.723-.045.009-.09.054-.207.116-.054.817-.108 1.687-.154 2.549-.171 2.79-1.173 5.052-3.981 6.12-.632.242-.795.583-.795 1.229.018 15.837.018 31.675.018 47.512v1.059zm-23.573.018c.019-.287.046-.494.046-.7 0-16.017 0-32.034.009-48.05 0-.485-.127-.782-.605-.96-2.853-1.069-4.018-3.285-4.162-6.165-.045-.889-.109-1.777-.172-2.746-.55 0-1.02.027-1.49-.01-.523-.035-.686.19-.695.692-.009.95-.099 1.902-.126 2.853-.063 2.602-1.562 4.182-3.774 5.205-.55.25-.731.502-.731 1.094.018 16.044.009 32.088.018 48.132 0 .206.027.413.036.655h11.647zm47.426-58.63v.036c-2.952 0-5.904-.01-8.857 0-.821 0-1.643.053-2.473.09-.47.017-.74.215-.723.735.036.71.036 1.427.055 2.136.018.754.433 1.184 1.164 1.274.948.108 1.905.242 2.853.242 5.878.027 11.755.027 17.632.027 1.174 0 1.869-.61 1.969-1.785.054-.655-.009-1.328.045-1.983.054-.656-.226-.8-.831-.79-3.602.036-7.223.018-10.834.018zm-23.853.045h-23.5c0 1.121-.063 2.198.036 3.266.036.332.478.807.821.888.84.207 1.725.314 2.6.323 5.526.027 11.051.027 16.576.01.84 0 1.689-.144 2.529-.279.586-.099.938-.467.938-1.095V42.13zm-35.427.098c-.36-.018-.623-.035-.884-.035l-15.628-.081-6.383-.027c-.335 0-.732-.09-.723.466.018.844-.009 1.696.063 2.53.073.8.867 1.553 1.544 1.553 6.167 0 12.333 0 18.5-.036.848 0 1.697-.143 2.527-.269.578-.09.966-.449.975-1.077.018-.978.01-1.947.01-3.024z" fill="#1C54AD"/></g><defs><clipPath id="clip0_3133_5255"><path fill="#fff" d="M0 0h118v117H0z"/></clipPath></defs></svg>