<svg width="1241" height="167" viewBox="0 0 1241 167" fill="none" xmlns="http://www.w3.org/2000/svg">
<g clip-path="url(#clip0_3133_3052)">
<path d="M-3.05176e-05 166.652C3.64066 166.693 7.28131 166.764 10.919 166.767C56.3773 166.79 101.836 166.79 147.291 166.817C239.584 166.87 331.878 166.938 424.172 166.997C424.857 166.997 425.543 166.997 426.344 166.997V136.466H414.943V148H411.896V125.369H400.126V141.892H397.549V128.634H392.561V141.042C392.363 141.056 392.165 141.071 391.97 141.086C391.863 139.799 391.757 138.509 391.642 137.107H389.035V111.119H371.328C371.328 111.665 371.328 112.187 371.328 112.71C371.328 118.416 371.343 124.126 371.308 129.832C371.305 130.491 371.784 131.438 370.454 131.666C370.223 131.704 370.206 132.979 370.076 133.762H368.276V92.3549C367.714 92.2398 367.259 92.1453 366.742 92.039V89.9784C365.288 89.9017 365.268 88.957 365.33 87.8588C365.406 86.5362 365.457 85.193 365.324 83.8764C365.078 81.4408 364.688 79.0201 364.366 76.5934C364.124 74.7808 363.92 72.9623 363.633 71.1555C363.571 70.7688 363.19 70.4411 363.039 70.0544C362.874 69.6322 362.7 69.1688 362.714 68.7289C362.747 67.6602 362.714 66.6624 361.719 65.9745C361.571 65.8742 361.447 65.6705 361.408 65.4933C360.752 62.4349 360.111 59.3735 359.434 56.1498C358.82 58.8569 358.223 61.4164 357.67 63.9877C357.558 64.5073 357.685 65.08 357.561 65.5937C357.407 66.2284 357.109 66.8307 356.869 67.4447C356.819 67.5746 356.718 67.6956 356.701 67.8285C356.373 70.4116 355.953 72.9918 355.776 75.5838C355.699 76.7469 355.533 77.6945 354.544 78.3765C353.559 79.0525 353.261 79.9707 353.32 81.1633C353.418 83.1265 353.308 85.0985 353.359 87.0647C353.394 88.4728 353.444 89.8308 352.061 90.7283C351.881 90.8464 351.73 91.1239 351.701 91.3423C351.393 93.7188 350.879 96.0982 350.861 98.4806C350.776 110.239 350.823 121.997 350.823 133.756V135.439H348.787C348.787 133.233 348.787 131.087 348.787 128.941C348.787 127.415 348.852 125.885 348.752 124.368C348.719 123.872 348.211 123.42 348.01 122.913C347.809 122.411 347.643 121.87 347.593 121.333C347.469 119.999 346.795 119.34 345.371 119.391V114.118C344.449 114.068 343.639 114.024 342.62 113.968V100.107H333.932V116.772H331.896V100.125H322.085V102.044C322.085 105.831 322.144 109.622 322.061 113.41C322.014 115.644 321.742 117.876 321.565 120.214C320.335 120.335 319.484 120.418 318.571 120.51C318.465 122.369 318.358 124.17 318.252 126.03H315.492C315.427 126.854 315.365 127.615 315.3 128.445H313.651V87.0617H306.582V114.086H301.024V82.0135H295.226V97.5477H288.71C288.642 98.3743 288.586 99.0474 288.524 99.812C287.714 99.8681 286.958 99.9213 286.056 99.9862C286.056 100.577 286.056 101.105 286.056 101.634C286.056 109.507 286.036 117.377 286.08 125.251C286.086 126.367 285.817 127.196 284.978 127.961C283.97 128.879 283.101 129.951 282.173 130.957C282.023 130.88 281.875 130.807 281.724 130.73V97.6363H273.29V128.415H271.396C271.396 127.574 271.426 126.75 271.387 125.93C271.343 125.017 271.384 124.12 270.433 123.465C270.099 123.234 270.093 122.402 270.09 121.844C270.072 104.772 270.081 87.6994 270.06 70.6271C270.06 69.7474 270.512 68.6846 269.322 68.0617C269.135 67.9643 269.206 67.3266 269.206 66.9399C269.197 64.2328 269.212 61.5286 269.194 58.8215C269.191 58.1868 269.455 57.3867 268.346 57.2775C268.202 57.2627 268.039 56.6369 268.024 56.2885C267.98 55.3675 268.009 54.4434 268.009 53.4663C267.401 53.363 266.928 53.2833 266.361 53.1858C266.304 52.5629 266.248 51.943 266.186 51.2315C265.719 51.137 265.258 51.0455 264.753 50.9452C264.691 50.2809 264.635 49.658 264.57 48.9613C263.946 48.9023 263.379 48.8491 262.596 48.7753V45.2652C262.596 42.3131 262.596 39.3609 262.596 36.4088C262.596 33.9939 262.247 33.5275 259.691 32.757V27.6232C259.54 27.6261 259.386 27.6291 259.236 27.632V32.881C257.055 33.2913 256.91 34.7703 256.957 36.4944C257.04 39.541 257.055 42.5965 256.934 45.6431C256.892 46.7059 256.425 47.7716 256.021 48.7871C255.935 49.0026 255.279 48.9938 254.794 49.1089C254.762 49.7171 254.726 50.3901 254.682 51.1695C254.174 51.2728 253.671 51.3762 253.122 51.4883C253.068 52.005 253.018 52.4832 252.962 53.0264C252.528 53.1238 252.114 53.2183 251.585 53.3364V57.5048C251.035 57.6259 250.583 57.7233 250.016 57.8502V68.3097C249.487 68.4307 249.07 68.5252 248.485 68.658V133.472C248.361 133.502 248.24 133.529 248.116 133.558C247.989 133.248 247.764 132.941 247.746 132.625C247.475 127.607 247.138 122.588 246.999 117.563C246.875 113.047 246.972 108.527 246.972 103.803H238.961V98.5751H230.746V109.129H224.188V122.346H220.48C220.48 119.671 220.489 117.032 220.474 114.393C220.474 113.805 220.731 113.061 219.685 112.982C219.543 112.97 219.36 112.344 219.345 111.999C219.301 110.974 219.33 109.947 219.33 108.804H209.176V110.466C209.176 118.487 209.176 126.505 209.179 134.526C209.179 135.406 209.28 136.327 207.746 135.911C207.415 132.114 208.565 127.955 205.577 124.522C204.629 126.11 203.574 127.601 203.683 129.685C203.828 132.472 203.718 135.273 203.718 138.163H201.916V131.849C201.212 131.79 200.642 131.745 199.832 131.678C199.738 129.72 199.643 127.742 199.54 125.652H196.354V115.65H193.559C193.503 116.235 193.449 116.757 193.39 117.368H190.763C190.713 116.622 190.666 115.901 190.61 115.086H187.188C187.117 115.565 187.046 116.034 186.96 116.613H179.428C179.377 115.946 179.33 115.278 179.271 114.514H176.679V125.218C173.517 126.113 173.24 125.885 171.729 121.041C171.292 122.735 170.935 124.12 170.577 125.505C170.417 125.481 170.255 125.46 170.095 125.437V113.56C169.306 113.483 168.739 113.43 168.012 113.359V107.508H153.845V137.042L153.275 137.198C153.121 136.826 152.858 136.457 152.84 136.079C152.784 134.901 152.773 133.717 152.826 132.54C153.136 125.726 151.23 119.193 150.332 112.53C150.317 112.415 150.187 112.317 149.965 112.004C149.41 115.388 149.023 118.585 148.34 121.717C147.303 126.482 147.403 131.291 147.385 136.106C147.385 136.566 147.037 137.393 146.777 137.425C145.704 137.552 146.064 136.622 146.041 136.07C145.994 134.848 146.026 133.623 146.026 132.289H144.288C144.229 132.808 144.167 133.331 144.108 133.85C144.028 133.788 143.952 133.723 143.872 133.661C143.44 134.157 143.047 134.689 142.566 135.132C142.347 135.332 141.969 135.43 141.652 135.447C140.931 135.492 140.205 135.462 139.413 135.462C139.33 136.197 139.268 136.764 139.197 137.416H137.421V126.231H133.449V112.211H122.959C122.911 113.07 122.864 113.926 122.811 114.862C122.347 114.942 121.933 115.01 121.36 115.107V121C120.464 120.811 119.738 120.66 118.863 120.477C118.875 119.355 118.124 119.214 117.06 119.252C114.859 119.335 112.651 119.278 110.269 119.278C110.269 117.395 110.358 115.686 110.252 113.985C109.997 109.988 109.652 105.997 109.33 101.858H104.312V110.894C103.304 110.974 102.441 111.039 101.457 111.116V140.888H98.7357C98.7357 139.43 98.7504 137.969 98.7268 136.51C98.7209 136.138 98.6234 135.456 98.5081 135.444C96.9626 135.27 97.5004 134.098 97.4886 133.289C97.4413 130.092 97.4975 126.892 97.4354 123.695C97.4265 123.255 96.9655 122.827 96.738 122.381C96.5577 122.03 96.2268 121.62 96.2888 121.301C96.9951 117.782 95.3077 115.293 92.8727 113.094C92.6954 112.934 92.592 112.692 92.4177 112.435C91.5518 113.117 90.8367 113.684 89.8969 114.425V30.9975C87.9259 30.9975 86.1174 31.0241 84.3118 30.9739C83.9601 30.965 83.6174 30.6698 83.2716 30.5074C83.6144 30.3451 83.9513 30.0617 84.3 30.0439C85.4289 29.982 86.5931 30.165 87.6866 29.9613C88.3101 29.8432 88.8272 29.1554 89.3916 28.7214C88.8213 28.3228 88.2834 27.6557 87.6718 27.5789C86.274 27.4077 84.8408 27.5258 83.2421 27.5258C82.9879 18.259 82.7368 9.13094 82.4856 0.00289917C82.4058 0.00289917 82.326 0.00289917 82.2432 0.00289917C82.0334 9.11322 81.8266 18.2265 81.6109 27.5346C80.4288 27.5346 79.4093 27.5317 78.3898 27.5346C77.9466 27.5346 77.4176 27.4047 77.0807 27.5996C76.5399 27.9095 76.1292 28.4409 75.6623 28.8778C76.1085 29.2528 76.5104 29.8639 77.0068 29.9495C78.0115 30.1266 79.0636 30.0203 80.0979 30.0262C80.485 30.0292 80.8691 30.0262 81.2563 30.0262C81.3508 30.1768 81.4454 30.3274 81.5399 30.475C81.1735 30.7318 80.8189 31.1923 80.4377 31.213C78.9188 31.2986 77.394 31.2484 75.7184 31.2484V118.071C74.2733 117.888 72.9938 117.726 71.5517 117.543C71.5517 116.988 71.5517 116.409 71.5517 115.83C71.5813 101.613 71.599 87.3924 71.664 73.1748C71.6699 72.0855 71.3715 71.3681 70.5027 70.6832C67.4559 68.2772 64.4772 65.7856 61.3212 63.1995C58.5818 65.9686 55.8661 68.658 53.2361 71.436C52.8785 71.8139 52.8667 72.6139 52.8667 73.2191C52.8489 89.946 52.8519 106.676 52.8519 123.403V125.304C52.0599 125.074 51.3802 124.814 50.674 124.687C49.8672 124.542 49.684 124.099 49.6988 123.347C49.7401 121.233 49.7136 119.116 49.7136 116.999C49.7136 100.467 49.7136 83.9354 49.7136 67.4063V65.6439H38.1325V138.733C37.6272 138.786 37.2549 138.816 36.8825 138.869C35.6177 139.058 35.207 138.583 35.1745 137.254C35.0563 132.064 34.7519 126.877 34.6101 121.687C34.5185 118.402 34.5923 115.113 34.5923 111.715H25.4049V113.339C25.4049 120.572 25.3931 127.804 25.4167 135.037C25.4197 136.274 25.4788 137.437 24.35 138.346C23.8919 138.715 23.7146 139.427 23.3777 140.041C22.9759 139.979 22.5621 139.914 22.0066 139.825V143.167C20.529 143.309 19.1638 143.386 17.8163 143.584C15.4167 143.938 13.292 144.894 11.5633 146.645C11.3594 146.852 11.1525 147.097 10.8954 147.206C5.71219 149.423 2.07739 153.146 -0.0118408 158.377V166.643L-3.05176e-05 166.652Z" fill="#E9EEF3"/>
<rect y="158" width="1239" height="160" fill="#E9EEF3"/>
</g>
<g clip-path="url(#clip1_3133_3052)">
<path d="M408.329 166.652C411.97 166.693 415.61 166.764 419.248 166.767C464.706 166.79 510.165 166.79 555.62 166.817C647.913 166.87 740.207 166.938 832.501 166.997C833.186 166.997 833.872 166.997 834.673 166.997V136.466H823.272V148H820.225V125.369H808.455V141.892H805.878V128.634H800.89V141.042C800.692 141.056 800.494 141.071 800.299 141.086C800.193 139.799 800.086 138.509 799.971 137.107H797.365V111.119H779.658C779.658 111.665 779.658 112.187 779.658 112.71C779.658 118.416 779.672 124.126 779.637 129.832C779.634 130.491 780.113 131.438 778.783 131.666C778.552 131.704 778.535 132.979 778.405 133.762H776.605V92.3549C776.044 92.2398 775.588 92.1453 775.071 92.039V89.9784C773.617 89.9017 773.597 88.957 773.659 87.8588C773.736 86.5362 773.786 85.193 773.653 83.8764C773.408 81.4408 773.017 79.0201 772.695 76.5934C772.453 74.7808 772.249 72.9623 771.963 71.1555C771.9 70.7688 771.519 70.4411 771.369 70.0544C771.203 69.6322 771.029 69.1688 771.043 68.7289C771.076 67.6602 771.043 66.6624 770.048 65.9745C769.9 65.8742 769.776 65.6705 769.737 65.4933C769.081 62.4349 768.44 59.3735 767.763 56.1498C767.149 58.8569 766.552 61.4164 765.999 63.9877C765.887 64.5073 766.014 65.08 765.89 65.5937C765.736 66.2284 765.438 66.8307 765.198 67.4447C765.148 67.5746 765.048 67.6956 765.03 67.8285C764.702 70.4116 764.282 72.9918 764.105 75.5838C764.028 76.7469 763.863 77.6945 762.873 78.3765C761.889 79.0525 761.59 79.9707 761.649 81.1633C761.747 83.1265 761.637 85.0985 761.688 87.0647C761.723 88.4728 761.773 89.8308 760.39 90.7283C760.21 90.8464 760.059 91.1239 760.03 91.3423C759.723 93.7188 759.208 96.0982 759.191 98.4806C759.105 110.239 759.152 121.997 759.152 133.756V135.439H757.116C757.116 133.233 757.116 131.087 757.116 128.941C757.116 127.415 757.181 125.885 757.081 124.368C757.048 123.872 756.54 123.42 756.339 122.913C756.138 122.411 755.972 121.87 755.922 121.333C755.798 119.999 755.124 119.34 753.7 119.391V114.118C752.778 114.068 751.968 114.024 750.949 113.968V100.107H742.261V116.772H740.225V100.125H730.414V102.044C730.414 105.831 730.473 109.622 730.39 113.41C730.343 115.644 730.071 117.876 729.894 120.214C728.664 120.335 727.813 120.418 726.9 120.51C726.794 122.369 726.687 124.17 726.581 126.03H723.821C723.756 126.854 723.694 127.615 723.629 128.445H721.98V87.0617H714.911V114.086H709.353V82.0135H703.555V97.5477H697.039C696.971 98.3743 696.915 99.0474 696.853 99.812C696.043 99.8681 695.287 99.9213 694.385 99.9862C694.385 100.577 694.385 101.105 694.385 101.634C694.385 109.507 694.365 117.377 694.409 125.251C694.415 126.367 694.146 127.196 693.307 127.961C692.299 128.879 691.43 129.951 690.502 130.957C690.352 130.88 690.204 130.807 690.053 130.73V97.6363H681.619V128.415H679.725C679.725 127.574 679.755 126.75 679.716 125.93C679.672 125.017 679.713 124.12 678.762 123.465C678.428 123.234 678.422 122.402 678.419 121.844C678.401 104.772 678.41 87.6994 678.389 70.6271C678.389 69.7474 678.842 68.6846 677.651 68.0617C677.464 67.9643 677.535 67.3266 677.535 66.9399C677.527 64.2328 677.541 61.5286 677.524 58.8215C677.521 58.1868 677.784 57.3867 676.675 57.2775C676.531 57.2627 676.368 56.6369 676.353 56.2885C676.309 55.3675 676.339 54.4434 676.339 53.4663C675.73 53.363 675.257 53.2833 674.69 53.1858C674.633 52.5629 674.577 51.943 674.515 51.2315C674.048 51.137 673.587 51.0455 673.082 50.9452C673.02 50.2809 672.964 49.658 672.899 48.9613C672.275 48.9023 671.708 48.8491 670.925 48.7753V45.2652C670.925 42.3131 670.925 39.3609 670.925 36.4088C670.925 33.9939 670.576 33.5275 668.02 32.757V27.6232C667.869 27.6261 667.716 27.6291 667.565 27.632V32.881C665.384 33.2913 665.239 34.7703 665.286 36.4944C665.369 39.541 665.384 42.5965 665.263 45.6431C665.221 46.7059 664.755 47.7716 664.35 48.7871C664.264 49.0026 663.608 48.9938 663.123 49.1089C663.091 49.7171 663.055 50.3901 663.011 51.1695C662.503 51.2728 662 51.3762 661.451 51.4883C661.398 52.005 661.347 52.4832 661.291 53.0264C660.857 53.1238 660.443 53.2183 659.914 53.3364V57.5048C659.364 57.6259 658.912 57.7233 658.345 57.8502V68.3097C657.816 68.4307 657.399 68.5252 656.814 68.658V133.472C656.69 133.502 656.569 133.529 656.445 133.558C656.318 133.248 656.093 132.941 656.075 132.625C655.804 127.607 655.467 122.588 655.328 117.563C655.204 113.047 655.301 108.527 655.301 103.803H647.29V98.5751H639.075V109.129H632.517V122.346H628.809C628.809 119.671 628.818 117.032 628.803 114.393C628.803 113.805 629.06 113.061 628.014 112.982C627.872 112.97 627.689 112.344 627.674 111.999C627.63 110.974 627.659 109.947 627.659 108.804H617.506V110.466C617.506 118.487 617.506 126.505 617.508 134.526C617.508 135.406 617.609 136.327 616.075 135.911C615.744 132.114 616.894 127.955 613.906 124.522C612.958 126.11 611.903 127.601 612.012 129.685C612.157 132.472 612.048 135.273 612.048 138.163H610.245V131.849C609.542 131.79 608.971 131.745 608.162 131.678C608.067 129.72 607.972 127.742 607.869 125.652H604.683V115.65H601.888C601.832 116.235 601.779 116.757 601.719 117.368H599.092C599.042 116.622 598.995 115.901 598.939 115.086H595.517C595.446 115.565 595.375 116.034 595.289 116.613H587.757C587.706 115.946 587.659 115.278 587.6 114.514H585.008V125.218C581.846 126.113 581.569 125.885 580.059 121.041C579.621 122.735 579.264 124.12 578.906 125.505C578.747 125.481 578.584 125.46 578.424 125.437V113.56C577.635 113.483 577.068 113.43 576.341 113.359V107.508H562.174V137.042L561.604 137.198C561.45 136.826 561.187 136.457 561.17 136.079C561.113 134.901 561.102 133.717 561.155 132.54C561.465 125.726 559.559 119.193 558.661 112.53C558.646 112.415 558.516 112.317 558.294 112.004C557.739 115.388 557.352 118.585 556.669 121.717C555.632 126.482 555.732 131.291 555.715 136.106C555.715 136.566 555.366 137.393 555.106 137.425C554.033 137.552 554.394 136.622 554.37 136.07C554.323 134.848 554.355 133.623 554.355 132.289H552.618C552.558 132.808 552.496 133.331 552.437 133.85C552.358 133.788 552.281 133.723 552.201 133.661C551.769 134.157 551.376 134.689 550.895 135.132C550.676 135.332 550.298 135.43 549.982 135.447C549.261 135.492 548.534 135.462 547.742 135.462C547.659 136.197 547.597 136.764 547.526 137.416H545.75V126.231H541.778V112.211H531.288C531.24 113.07 531.193 113.926 531.14 114.862C530.676 114.942 530.262 115.01 529.689 115.107V121C528.794 120.811 528.067 120.66 527.192 120.477C527.204 119.355 526.453 119.214 525.389 119.252C523.188 119.335 520.98 119.278 518.599 119.278C518.599 117.395 518.687 115.686 518.581 113.985C518.327 109.988 517.981 105.997 517.659 101.858H512.641V110.894C511.633 110.974 510.77 111.039 509.786 111.116V140.888H507.065C507.065 139.43 507.08 137.969 507.056 136.51C507.05 136.138 506.952 135.456 506.837 135.444C505.292 135.27 505.83 134.098 505.818 133.289C505.77 130.092 505.827 126.892 505.764 123.695C505.756 123.255 505.295 122.827 505.067 122.381C504.887 122.03 504.556 121.62 504.618 121.301C505.324 117.782 503.637 115.293 501.202 113.094C501.025 112.934 500.921 112.692 500.747 112.435C499.881 113.117 499.166 113.684 498.226 114.425V30.9975C496.255 30.9975 494.446 31.0241 492.641 30.9739C492.289 30.965 491.947 30.6698 491.601 30.5074C491.944 30.3451 492.28 30.0617 492.629 30.0439C493.758 29.982 494.922 30.165 496.016 29.9613C496.639 29.8432 497.156 29.1554 497.721 28.7214C497.15 28.3228 496.613 27.6557 496.001 27.5789C494.603 27.4077 493.17 27.5258 491.571 27.5258C491.317 18.259 491.066 9.13094 490.815 0.00289917C490.735 0.00289917 490.655 0.00289917 490.572 0.00289917C490.363 9.11322 490.156 18.2265 489.94 27.5346C488.758 27.5346 487.738 27.5317 486.719 27.5346C486.276 27.5346 485.747 27.4047 485.41 27.5996C484.869 27.9095 484.458 28.4409 483.991 28.8778C484.438 29.2528 484.839 29.8639 485.336 29.9495C486.341 30.1266 487.393 30.0203 488.427 30.0262C488.814 30.0292 489.198 30.0262 489.585 30.0262C489.68 30.1768 489.774 30.3274 489.869 30.475C489.503 30.7318 489.148 31.1923 488.767 31.213C487.248 31.2986 485.723 31.2484 484.048 31.2484V118.071C482.602 117.888 481.323 117.726 479.881 117.543C479.881 116.988 479.881 116.409 479.881 115.83C479.91 101.613 479.928 87.3924 479.993 73.1748C479.999 72.0855 479.701 71.3681 478.832 70.6832C475.785 68.2772 472.806 65.7856 469.65 63.1995C466.911 65.9686 464.195 68.658 461.565 71.436C461.208 71.8139 461.196 72.6139 461.196 73.2191C461.178 89.946 461.181 106.676 461.181 123.403V125.304C460.389 125.074 459.709 124.814 459.003 124.687C458.196 124.542 458.013 124.099 458.028 123.347C458.069 121.233 458.043 119.116 458.043 116.999C458.043 100.467 458.043 83.9354 458.043 67.4063V65.6439H446.462V138.733C445.956 138.786 445.584 138.816 445.212 138.869C443.947 139.058 443.536 138.583 443.504 137.254C443.385 132.064 443.081 126.877 442.939 121.687C442.848 118.402 442.921 115.113 442.921 111.715H433.734V113.339C433.734 120.572 433.722 127.804 433.746 135.037C433.749 136.274 433.808 137.437 432.679 138.346C432.221 138.715 432.044 139.427 431.707 140.041C431.305 139.979 430.891 139.914 430.336 139.825V143.167C428.858 143.309 427.493 143.386 426.145 143.584C423.746 143.938 421.621 144.894 419.892 146.645C419.688 146.852 419.482 147.097 419.225 147.206C414.041 149.423 410.406 153.146 408.317 158.377V166.643L408.329 166.652Z" fill="#E9EEF3"/>
</g>
<g clip-path="url(#clip2_3133_3052)">
<path d="M814.656 166.652C818.297 166.693 821.938 166.764 825.576 166.767C871.034 166.79 916.492 166.79 961.947 166.817C1054.24 166.87 1146.53 166.938 1238.83 166.997C1239.51 166.997 1240.2 166.997 1241 166.997V136.466H1229.6V148H1226.55V125.369H1214.78V141.892H1212.21V128.634H1207.22V141.042C1207.02 141.056 1206.82 141.071 1206.63 141.086C1206.52 139.799 1206.41 138.509 1206.3 137.107H1203.69V111.119H1185.98C1185.98 111.665 1185.98 112.187 1185.98 112.71C1185.98 118.416 1186 124.126 1185.96 129.832C1185.96 130.491 1186.44 131.438 1185.11 131.666C1184.88 131.704 1184.86 132.979 1184.73 133.762H1182.93V92.3549C1182.37 92.2398 1181.92 92.1453 1181.4 92.039V89.9784C1179.94 89.9017 1179.92 88.957 1179.99 87.8588C1180.06 86.5362 1180.11 85.193 1179.98 83.8764C1179.73 81.4408 1179.34 79.0201 1179.02 76.5934C1178.78 74.7808 1178.58 72.9623 1178.29 71.1555C1178.23 70.7688 1177.85 70.4411 1177.7 70.0544C1177.53 69.6322 1177.36 69.1688 1177.37 68.7289C1177.4 67.6602 1177.37 66.6624 1176.38 65.9745C1176.23 65.8742 1176.1 65.6705 1176.06 65.4933C1175.41 62.4349 1174.77 59.3735 1174.09 56.1498C1173.48 58.8569 1172.88 61.4164 1172.33 63.9877C1172.21 64.5073 1172.34 65.08 1172.22 65.5937C1172.06 66.2284 1171.77 66.8307 1171.53 67.4447C1171.48 67.5746 1171.37 67.6956 1171.36 67.8285C1171.03 70.4116 1170.61 72.9918 1170.43 75.5838C1170.36 76.7469 1170.19 77.6945 1169.2 78.3765C1168.22 79.0525 1167.92 79.9707 1167.98 81.1633C1168.07 83.1265 1167.96 85.0985 1168.02 87.0647C1168.05 88.4728 1168.1 89.8308 1166.72 90.7283C1166.54 90.8464 1166.39 91.1239 1166.36 91.3423C1166.05 93.7188 1165.54 96.0982 1165.52 98.4806C1165.43 110.239 1165.48 121.997 1165.48 133.756V135.439H1163.44C1163.44 133.233 1163.44 131.087 1163.44 128.941C1163.44 127.415 1163.51 125.885 1163.41 124.368C1163.38 123.872 1162.87 123.42 1162.67 122.913C1162.47 122.411 1162.3 121.87 1162.25 121.333C1162.13 119.999 1161.45 119.34 1160.03 119.391V114.118C1159.11 114.068 1158.3 114.024 1157.28 113.968V100.107H1148.59V116.772H1146.55V100.125H1136.74V102.044C1136.74 105.831 1136.8 109.622 1136.72 113.41C1136.67 115.644 1136.4 117.876 1136.22 120.214C1134.99 120.335 1134.14 120.418 1133.23 120.51C1133.12 122.369 1133.01 124.17 1132.91 126.03H1130.15C1130.08 126.854 1130.02 127.615 1129.96 128.445H1128.31V87.0617H1121.24V114.086H1115.68V82.0135H1109.88V97.5477H1103.37C1103.3 98.3743 1103.24 99.0474 1103.18 99.812C1102.37 99.8681 1101.61 99.9213 1100.71 99.9862C1100.71 100.577 1100.71 101.105 1100.71 101.634C1100.71 109.507 1100.69 117.377 1100.74 125.251C1100.74 126.367 1100.47 127.196 1099.63 127.961C1098.63 128.879 1097.76 129.951 1096.83 130.957C1096.68 130.88 1096.53 130.807 1096.38 130.73V97.6363H1087.95V128.415H1086.05C1086.05 127.574 1086.08 126.75 1086.04 125.93C1086 125.017 1086.04 124.12 1085.09 123.465C1084.76 123.234 1084.75 122.402 1084.75 121.844C1084.73 104.772 1084.74 87.6994 1084.72 70.6271C1084.72 69.7474 1085.17 68.6846 1083.98 68.0617C1083.79 67.9643 1083.86 67.3266 1083.86 66.9399C1083.85 64.2328 1083.87 61.5286 1083.85 58.8215C1083.85 58.1868 1084.11 57.3867 1083 57.2775C1082.86 57.2627 1082.7 56.6369 1082.68 56.2885C1082.64 55.3675 1082.67 54.4434 1082.67 53.4663C1082.06 53.363 1081.58 53.2833 1081.02 53.1858C1080.96 52.5629 1080.9 51.943 1080.84 51.2315C1080.38 51.137 1079.91 51.0455 1079.41 50.9452C1079.35 50.2809 1079.29 49.658 1079.23 48.9613C1078.6 48.9023 1078.04 48.8491 1077.25 48.7753V45.2652C1077.25 42.3131 1077.25 39.3609 1077.25 36.4088C1077.25 33.9939 1076.9 33.5275 1074.35 32.757V27.6232C1074.2 27.6261 1074.04 27.6291 1073.89 27.632V32.881C1071.71 33.2913 1071.57 34.7703 1071.61 36.4944C1071.7 39.541 1071.71 42.5965 1071.59 45.6431C1071.55 46.7059 1071.08 47.7716 1070.68 48.7871C1070.59 49.0026 1069.94 48.9938 1069.45 49.1089C1069.42 49.7171 1069.38 50.3901 1069.34 51.1695C1068.83 51.2728 1068.33 51.3762 1067.78 51.4883C1067.72 52.005 1067.67 52.4832 1067.62 53.0264C1067.18 53.1238 1066.77 53.2183 1066.24 53.3364V57.5048C1065.69 57.6259 1065.24 57.7233 1064.67 57.8502V68.3097C1064.14 68.4307 1063.73 68.5252 1063.14 68.658V133.472C1063.02 133.502 1062.9 133.529 1062.77 133.558C1062.65 133.248 1062.42 132.941 1062.4 132.625C1062.13 127.607 1061.79 122.588 1061.66 117.563C1061.53 113.047 1061.63 108.527 1061.63 103.803H1053.62V98.5751H1045.4V109.129H1038.84V122.346H1035.14C1035.14 119.671 1035.15 117.032 1035.13 114.393C1035.13 113.805 1035.39 113.061 1034.34 112.982C1034.2 112.97 1034.02 112.344 1034 111.999C1033.96 110.974 1033.99 109.947 1033.99 108.804H1023.83V110.466C1023.83 118.487 1023.83 126.505 1023.84 134.526C1023.84 135.406 1023.94 136.327 1022.4 135.911C1022.07 132.114 1023.22 127.955 1020.23 124.522C1019.29 126.11 1018.23 127.601 1018.34 129.685C1018.48 132.472 1018.37 135.273 1018.37 138.163H1016.57V131.849C1015.87 131.79 1015.3 131.745 1014.49 131.678C1014.39 129.72 1014.3 127.742 1014.2 125.652H1011.01V115.65H1008.22C1008.16 116.235 1008.11 116.757 1008.05 117.368H1005.42C1005.37 116.622 1005.32 115.901 1005.27 115.086H1001.84C1001.77 115.565 1001.7 116.034 1001.62 116.613H994.084C994.034 115.946 993.986 115.278 993.927 114.514H991.336V125.218C988.174 126.113 987.896 125.885 986.386 121.041C985.949 122.735 985.591 124.12 985.233 125.505C985.074 125.481 984.911 125.46 984.752 125.437V113.56C983.963 113.483 983.395 113.43 982.668 113.359V107.508H968.502V137.042L967.931 137.198C967.778 136.826 967.515 136.457 967.497 136.079C967.441 134.901 967.429 133.717 967.482 132.54C967.793 125.726 965.886 119.193 964.988 112.53C964.973 112.415 964.843 112.317 964.622 112.004C964.066 115.388 963.679 118.585 962.996 121.717C961.959 126.482 962.06 131.291 962.042 136.106C962.042 136.566 961.693 137.393 961.433 137.425C960.36 137.552 960.721 136.622 960.697 136.07C960.65 134.848 960.683 133.623 960.683 132.289H958.945C958.886 132.808 958.824 133.331 958.765 133.85C958.685 133.788 958.608 133.723 958.528 133.661C958.097 134.157 957.704 134.689 957.222 135.132C957.003 135.332 956.625 135.43 956.309 135.447C955.588 135.492 954.861 135.462 954.069 135.462C953.986 136.197 953.924 136.764 953.853 137.416H952.077V126.231H948.106V112.211H937.615C937.568 113.07 937.52 113.926 937.467 114.862C937.003 114.942 936.59 115.01 936.016 115.107V121C935.121 120.811 934.394 120.66 933.519 120.477C933.531 119.355 932.781 119.214 931.717 119.252C929.515 119.335 927.308 119.278 924.926 119.278C924.926 117.395 925.015 115.686 924.908 113.985C924.654 109.988 924.308 105.997 923.986 101.858H918.968V110.894C917.961 110.974 917.098 111.039 916.114 111.116V140.888H913.392C913.392 139.43 913.407 137.969 913.383 136.51C913.377 136.138 913.28 135.456 913.165 135.444C911.619 135.27 912.157 134.098 912.145 133.289C912.098 130.092 912.154 126.892 912.092 123.695C912.083 123.255 911.622 122.827 911.395 122.381C911.214 122.03 910.883 121.62 910.945 121.301C911.652 117.782 909.964 115.293 907.529 113.094C907.352 112.934 907.249 112.692 907.074 112.435C906.208 113.117 905.493 113.684 904.553 114.425V30.9975C902.582 30.9975 900.774 31.0241 898.968 30.9739C898.617 30.965 898.274 30.6698 897.928 30.5074C898.271 30.3451 898.608 30.0617 898.957 30.0439C900.085 29.982 901.25 30.165 902.343 29.9613C902.967 29.8432 903.484 29.1554 904.048 28.7214C903.478 28.3228 902.94 27.6557 902.328 27.5789C900.93 27.4077 899.497 27.5258 897.899 27.5258C897.644 18.259 897.393 9.13094 897.142 0.00289917C897.062 0.00289917 896.982 0.00289917 896.9 0.00289917C896.69 9.11322 896.483 18.2265 896.267 27.5346C895.085 27.5346 894.066 27.5317 893.046 27.5346C892.603 27.5346 892.074 27.4047 891.737 27.5996C891.196 27.9095 890.786 28.4409 890.319 28.8778C890.765 29.2528 891.167 29.8639 891.663 29.9495C892.668 30.1266 893.72 30.0203 894.754 30.0262C895.141 30.0292 895.526 30.0262 895.913 30.0262C896.007 30.1768 896.102 30.3274 896.196 30.475C895.83 30.7318 895.475 31.1923 895.094 31.213C893.575 31.2986 892.05 31.2484 890.375 31.2484V118.071C888.93 117.888 887.65 117.726 886.208 117.543C886.208 116.988 886.208 116.409 886.208 115.83C886.238 101.613 886.255 87.3924 886.32 73.1748C886.326 72.0855 886.028 71.3681 885.159 70.6832C882.112 68.2772 879.134 65.7856 875.978 63.1995C873.238 65.9686 870.523 68.658 867.893 71.436C867.535 71.8139 867.523 72.6139 867.523 73.2191C867.505 89.946 867.508 106.676 867.508 123.403V125.304C866.716 125.074 866.037 124.814 865.33 124.687C864.524 124.542 864.34 124.099 864.355 123.347C864.397 121.233 864.37 119.116 864.37 116.999C864.37 100.467 864.37 83.9354 864.37 67.4063V65.6439H852.789V138.733C852.284 138.786 851.911 138.816 851.539 138.869C850.274 139.058 849.863 138.583 849.831 137.254C849.713 132.064 849.408 126.877 849.267 121.687C849.175 118.402 849.249 115.113 849.249 111.715H840.061V113.339C840.061 120.572 840.05 127.804 840.073 135.037C840.076 136.274 840.135 137.437 839.006 138.346C838.548 138.715 838.371 139.427 838.034 140.041C837.632 139.979 837.219 139.914 836.663 139.825V143.167C835.186 143.309 833.82 143.386 832.473 143.584C830.073 143.938 827.948 144.894 826.22 146.645C826.016 146.852 825.809 147.097 825.552 147.206C820.369 149.423 816.734 153.146 814.645 158.377V166.643L814.656 166.652Z" fill="#E9EEF3"/>
</g>
<defs>
<clipPath id="clip0_3133_3052">
<rect width="426.344" height="167" fill="white" transform="matrix(-1 0 0 1 426.344 0)"/>
</clipPath>
<clipPath id="clip1_3133_3052">
<rect width="426.344" height="167" fill="white" transform="matrix(-1 0 0 1 834.673 0)"/>
</clipPath>
<clipPath id="clip2_3133_3052">
<rect width="426.344" height="167" fill="white" transform="matrix(-1 0 0 1 1241 0)"/>
</clipPath>
</defs>
</svg>
