<svg width="113" height="113" viewBox="0 0 113 113" fill="none" xmlns="http://www.w3.org/2000/svg">
<g clip-path="url(#clip0_3133_2514)">
<path d="M0.0592227 63.7328C0.0592227 58.0224 0.0630435 52.3133 0.0592227 46.6029C0.0541283 40.8925 0.036298 35.1821 0.0350244 29.4717C0.0350244 26.6917 -0.0770523 23.9027 0.11144 21.1342C0.247715 19.1339 1.34683 17.5668 3.18718 16.5653C4.513 15.8429 5.89485 15.5818 7.38496 15.5945C11.0682 15.6251 14.7515 15.6085 18.4347 15.6098C19.316 15.6098 19.4217 15.4633 19.409 14.5612C19.3937 13.4795 19.4663 12.3966 19.437 11.3162C19.4115 10.3683 20.5132 9.8994 21.2927 9.88284C22.7127 9.85098 24.1341 9.88284 25.5554 9.865C26.5119 9.85353 26.6456 9.70447 26.7067 8.75656C26.8201 7.02637 27.1232 5.33185 28.1624 3.90107C28.9686 2.79008 29.9417 1.85745 31.1821 1.15799C33.146 0.0495459 35.2296 -0.0243503 37.3846 0.0304348C39.2911 0.0788496 41.2003 -0.000142923 43.1081 0.00750151C44.9727 0.01642 46.8487 -0.0600243 48.6979 0.124716C51.3024 0.385901 53.4243 1.66252 54.9131 3.83481C55.8734 5.23502 56.3561 6.81997 56.3344 8.54633C56.3179 9.89303 56.4249 9.98986 57.7672 10.0141C58.9529 10.0357 60.1438 9.958 61.3244 10.0421C61.9561 10.0867 62.6336 10.2702 63.1749 10.5887C63.9111 11.0231 63.7799 11.8857 63.813 12.6144C63.8512 13.4604 63.855 14.309 63.8219 15.1549C63.7952 15.82 64.1339 16.0048 64.7134 16.0009C66.1131 15.992 67.5128 15.9984 68.9125 15.9958C71.7959 15.9907 74.6793 15.9576 77.5615 15.9856C79.533 16.0048 80.9123 17.1196 82.0127 18.6293C82.824 19.7416 83.1144 21.0195 83.0978 22.3891C83.0749 24.276 83.0864 26.1642 83.0851 28.0511C83.0838 30.0234 83.0813 31.9956 83.0851 33.9679C83.0889 35.8765 83.1042 37.7863 83.1042 39.6949C83.1042 41.6034 83.0826 43.512 83.0826 45.4205C83.0826 47.3087 83.1016 49.1956 83.0991 51.0838C83.0965 53.5657 83.0902 56.0488 83.0634 58.5307C83.0558 59.2327 82.1528 59.959 81.3721 59.9551C80.4054 59.9501 79.7292 59.429 79.696 58.583C79.6438 57.2707 79.6413 55.9571 79.6247 54.6435C79.6018 52.7146 79.5725 50.7869 79.5712 48.858C79.5712 46.9927 79.6145 45.1288 79.6158 43.2635C79.6158 41.3359 79.5789 39.4069 79.5789 37.4792C79.5789 35.5936 79.6184 33.708 79.6171 31.8224C79.6171 29.8947 79.5814 27.967 79.5712 26.0381C79.5649 24.7882 79.6222 23.5358 79.5712 22.2872C79.4732 19.9034 78.3155 19.4027 76.4471 19.26C74.7252 19.1288 72.9816 19.2931 71.2483 19.3046C70.572 19.3097 69.8944 19.2345 69.2182 19.2282C67.7803 19.2154 66.3411 19.2116 64.9032 19.2307C64.0117 19.2422 63.8474 19.3938 63.8257 20.2487C63.799 21.3074 63.8716 22.3713 63.8041 23.4262C63.7646 24.0403 63.6194 24.6812 63.3672 25.2405C63.0043 26.0457 62.1357 25.9247 61.4607 25.9502C59.7464 26.0151 58.027 25.9578 56.309 25.9591C54.2954 25.9591 52.2818 25.9769 50.2683 25.9718C48.0204 25.9655 45.7725 25.9272 43.5246 25.9298C40.5787 25.9323 37.6316 25.9756 34.6858 25.9744C31.5273 25.9744 28.3675 25.9476 25.209 25.9234C23.7469 25.9119 22.2848 25.9081 20.824 25.8482C19.9299 25.8113 19.4408 25.2558 19.4319 24.355C19.4192 22.9765 19.4256 21.5979 19.4383 20.2207C19.4447 19.5148 19.1696 19.2205 18.4372 19.232C16.8096 19.2575 15.1807 19.3173 13.553 19.3161C11.7547 19.3135 9.95635 19.2116 8.15931 19.2447C7.13024 19.2638 6.0948 19.4116 5.08229 19.6066C4.28757 19.7594 3.54124 20.8857 3.52978 21.8018C3.50685 23.6912 3.49921 25.5794 3.49666 27.4689C3.49284 31.1407 3.49284 34.8126 3.49666 38.4845C3.50176 44.3006 3.51832 50.1168 3.51832 55.9329C3.51832 62.8103 3.49921 69.6878 3.49921 76.5652C3.49921 82.5088 3.51322 88.4523 3.51577 94.3971C3.51704 98.4309 3.5094 102.463 3.50558 106.497C3.50558 107.715 4.56139 108.922 5.77513 108.965C7.4652 109.025 9.15781 109.004 10.8504 109.018C13.0525 109.036 15.2533 109.059 17.4553 109.069C20.0356 109.081 22.6172 109.085 25.1975 109.087C27.7371 109.09 30.2753 109.085 32.8149 109.085C35.3328 109.085 37.8507 109.085 40.3686 109.085C42.9502 109.085 45.5305 109.082 48.1121 109.081C50.6313 109.081 53.1504 109.081 55.6696 109.081C58.2308 109.081 60.792 109.081 63.3532 109.082C65.7642 109.085 68.1751 109.096 70.5873 109.091C71.3693 109.09 72.15 109.022 72.9307 109.032C74.2514 109.049 75.0461 110.231 74.4819 111.411C74.1419 112.121 73.421 112.35 72.6645 112.349C69.4003 112.346 66.136 112.321 62.8718 112.322C59.7973 112.322 56.7229 112.35 53.6484 112.355C49.5563 112.362 45.4643 112.358 41.3722 112.356C37.8112 112.356 34.249 112.351 30.688 112.351C26.6379 112.351 22.5879 112.359 18.5391 112.353C14.3847 112.346 10.2276 112.378 6.0757 112.274C5.11031 112.249 4.15511 111.746 3.20119 111.443C2.00273 111.062 1.34428 110.041 0.788995 109.067C0.232432 108.09 0.0082788 106.945 0.0184676 105.766C0.0579491 101.266 0.0554019 96.7656 0.0554019 92.2643C0.0554019 87.7006 0.036298 83.1369 0.0324772 78.5732C0.0286564 73.6272 0.0324772 68.6813 0.0324772 63.7353C0.0413924 63.7353 0.0515811 63.7353 0.0604963 63.7353L0.0592227 63.7328ZM50.6109 22.6758C50.6109 22.6631 50.6109 22.6503 50.6109 22.6376C50.9076 22.6376 51.2044 22.6376 51.5011 22.6376C54.1069 22.6388 56.714 22.6427 59.3197 22.6401C60.1489 22.6401 60.2622 22.5178 60.2724 21.6718C60.2775 21.2896 60.289 20.9074 60.2877 20.5264C60.2813 18.4497 60.2724 16.373 60.2609 14.2949C60.2584 13.7471 59.9833 13.4693 59.428 13.4936C58.7963 13.5216 58.1633 13.5827 57.5316 13.5776C55.4162 13.5585 53.2994 13.4923 51.184 13.4885C49.35 13.4859 47.5148 13.556 45.6808 13.5675C44.8542 13.5725 44.0277 13.4859 43.2024 13.491C41.3658 13.5025 39.528 13.556 37.6915 13.57C36.9936 13.5751 36.2956 13.491 35.5977 13.4961C33.7153 13.5088 31.8317 13.57 29.9493 13.57C28.1089 13.57 26.2699 13.5165 24.4295 13.491C24.1977 13.4885 23.9647 13.5229 23.7316 13.528C23.175 13.5394 22.9407 13.8223 22.9458 14.3727C22.9585 15.6646 22.9471 16.9565 22.9496 18.2497C22.9522 19.5199 22.956 20.7902 22.9636 22.0604C22.9662 22.463 23.1343 22.672 23.5851 22.6707C27.2098 22.6631 30.8344 22.672 34.4591 22.6745C38.0405 22.6758 41.6231 22.6745 45.2045 22.6745C47.0053 22.6745 48.8075 22.6745 50.6083 22.6745L50.6109 22.6758ZM41.5734 9.84079C41.5734 9.84971 41.5734 9.85863 41.5734 9.86882C43.2686 9.86882 44.9625 9.86882 46.6576 9.86882C48.4585 9.86882 50.2606 9.87774 52.0615 9.86627C52.5073 9.86372 52.9734 9.86245 52.9734 9.18974C52.9734 7.46082 52.5136 5.9536 51.1152 4.80438C50.3472 4.17372 49.5423 3.63988 48.5489 3.53923C47.73 3.45642 46.8983 3.49081 46.0731 3.49209C42.6827 3.49719 39.2924 3.58 35.9046 3.48827C34.412 3.4475 33.1511 3.81061 32.0456 4.74323C30.758 5.82874 30.1085 7.24041 30.1824 8.93365C30.2168 9.72995 30.353 9.83442 31.1503 9.83697C34.6247 9.84589 38.0991 9.84079 41.5734 9.84079Z" fill="#1C54AD"/>
<path d="M112.934 86.6356C112.934 87.5899 112.976 88.5455 112.921 89.4959C112.869 90.4005 112.055 91.0898 111.16 91.2019C109.798 91.3726 108.44 91.5854 107.09 91.8275C106.914 91.8593 106.735 92.1511 106.649 92.3588C106.118 93.6392 105.715 94.9846 105.07 96.2026C104.498 97.2818 105.095 97.8971 105.634 98.6272C106.32 99.5598 106.997 100.5 107.655 101.453C107.947 101.875 107.86 102.731 107.489 103.116C106.204 104.45 104.926 105.791 103.601 107.084C102.791 107.876 101.892 107.908 100.9 107.211C100.039 106.604 99.2149 105.94 98.4023 105.269C97.7897 104.762 97.3121 104.741 96.6155 105.113C95.8615 105.517 95.0591 105.835 94.2682 106.163C93.7269 106.389 93.1551 106.542 92.6253 106.789C92.4572 106.867 92.3133 107.13 92.2763 107.332C92.0726 108.435 91.9312 109.551 91.7121 110.651C91.6026 111.198 91.4816 111.804 91.1632 112.232C90.897 112.59 90.3443 112.915 89.9036 112.934C88.062 113.018 86.2153 113.005 84.3698 112.98C83.5152 112.968 82.6874 111.946 82.5639 110.964C82.4123 109.77 82.1996 108.584 82.0239 107.393C81.9653 106.994 81.7768 106.818 81.3718 106.667C80.1147 106.198 78.8883 105.646 77.6605 105.099C77.0683 104.836 76.5155 104.809 75.9883 105.209C75.2356 105.78 74.4829 106.351 73.748 106.946C72.4706 107.98 71.6135 107.937 70.466 106.734C69.3732 105.589 68.2894 104.434 67.2043 103.281C66.4223 102.451 66.4452 101.685 67.2883 100.552C67.9315 99.6872 68.5836 98.8285 69.2229 97.9609C69.6088 97.4359 69.5439 96.8932 69.242 96.3517C69.0892 96.0765 68.916 95.8089 68.8001 95.5185C68.4193 94.5693 68.0627 93.6099 67.6921 92.6556C67.4335 91.988 66.8362 91.9077 66.2376 91.8198C65.15 91.6618 64.0572 91.5242 62.9785 91.3191C61.7915 91.0923 61.3457 90.4069 61.3776 89.1965C61.4196 87.6065 61.4018 86.0152 61.3928 84.4238C61.3852 83.2326 61.7991 82.7293 62.9836 82.5433C64.1922 82.3535 65.4009 82.1547 66.6108 81.9712C67.1597 81.8884 67.5252 81.6527 67.7137 81.0807C68.055 80.0436 68.4499 79.0218 68.8561 78.0089C69.0026 77.6432 69.349 77.3374 69.4216 76.9692C69.4891 76.6227 69.4216 76.1589 69.2318 75.8672C68.46 74.6874 67.5762 73.5789 66.8324 72.3839C66.649 72.0883 66.6643 71.427 66.8744 71.1684C67.9506 69.8446 69.121 68.5986 70.2596 67.3258C70.401 67.1691 70.5398 67.0073 70.7003 66.8697C71.8886 65.8568 72.1254 65.8071 73.4602 66.7359C74.2906 67.3143 75.0407 68.01 75.8316 68.647C76.4009 69.1057 76.8696 69.042 77.5714 68.6483C78.2948 68.2418 79.0793 67.9412 79.8511 67.6265C80.3949 67.4048 80.9821 67.2812 81.5055 67.0238C81.7182 66.9194 81.9029 66.5932 81.9462 66.3409C82.1856 64.9675 82.3703 63.5838 82.5906 62.2066C82.6912 61.5772 83.4172 60.9172 84.0909 60.865C84.8512 60.8064 85.6154 60.7834 86.3783 60.7771C87.4379 60.7681 88.4963 60.7936 89.5559 60.7949C90.3825 60.7949 90.9569 61.2421 91.2001 61.9581C91.4765 62.7659 91.5822 63.6335 91.7529 64.4757C91.8942 65.1739 91.9783 65.8874 92.1808 66.5652C92.2521 66.806 92.5743 67.0022 92.8227 67.1512C93.071 67.3003 93.3754 67.3551 93.6454 67.4698C94.6287 67.8889 95.6182 68.2941 96.5862 68.7464C97.2714 69.0662 97.8496 68.9031 98.4214 68.4979C99.2798 67.8902 100.14 67.2837 101.012 66.6951C101.952 66.0619 103.017 66.2861 103.851 67.1895C104.738 68.1501 105.692 69.0509 106.588 70.0052C106.974 70.418 107.36 70.8626 107.612 71.3608C107.991 72.1112 107.447 72.7049 107.06 73.2617C106.458 74.1281 105.741 74.9167 105.165 75.7984C104.955 76.1207 104.882 76.6469 104.972 77.0266C105.108 77.6088 105.454 78.1388 105.685 78.702C106.003 79.4779 106.346 80.2512 106.585 81.0526C106.727 81.5266 106.952 81.8184 107.424 81.8693C108.224 81.956 109.027 82.0095 109.829 82.0706C110.924 82.1534 111.984 82.3293 112.627 83.36C112.808 83.6492 112.947 84.0072 112.968 84.3423C113.018 85.1029 112.984 85.8686 112.984 86.6318C112.966 86.6318 112.947 86.6318 112.929 86.6318L112.934 86.6356ZM70.6443 71.9367C71.3855 72.9113 72.058 73.8299 72.7686 74.7192C73.3341 75.4276 73.6576 76.1933 73.2997 77.0673C72.9584 77.898 72.4579 78.6638 72.128 79.4983C71.5816 80.8845 71.0798 82.2923 70.6328 83.7129C70.4481 84.3003 70.1335 84.7385 69.5833 84.8685C68.5339 85.1157 67.4641 85.3042 66.393 85.4278C65.0086 85.5858 65.0048 85.5476 64.9806 86.9096C64.9653 87.7466 65.1219 87.9072 65.9791 88.0065C67.0056 88.1263 68.0296 88.2664 69.0548 88.3951C69.7553 88.483 70.2316 88.8818 70.4621 89.5189C70.7283 90.2514 70.8569 91.0375 71.1588 91.7523C71.7714 93.2047 72.4171 94.6495 73.1392 96.0497C73.4895 96.7288 73.6003 97.571 73.1443 98.1838C72.5521 98.9788 71.9421 99.7611 71.3511 100.557C71.076 100.928 70.6494 101.36 71.0047 101.801C71.4033 102.294 71.9739 102.651 72.4821 103.051C72.5203 103.081 72.6731 103.001 72.7495 102.942C73.5735 102.317 74.3848 101.677 75.2139 101.059C76.0532 100.434 76.9065 100.213 77.9101 100.793C79.8116 101.891 81.8532 102.672 83.9686 103.264C84.8169 103.501 85.3327 104.157 85.4511 105.031C85.5746 105.951 85.7364 106.865 85.9045 107.779C85.9809 108.192 85.9898 108.792 86.2497 108.952C86.5859 109.16 87.1437 108.984 87.6009 109.029C88.1371 109.08 88.318 108.799 88.3842 108.338C88.5421 107.248 88.7141 106.16 88.8707 105.069C89.0159 104.057 89.7571 103.434 90.7824 103.258C91.7733 103.088 92.787 102.879 93.6977 102.475C94.8082 101.982 95.8042 101.234 96.888 100.673C97.2217 100.501 97.7082 100.484 98.0839 100.571C98.4545 100.659 98.7895 100.947 99.1117 101.187C99.9065 101.779 100.685 102.395 101.472 102.999C101.861 103.297 102.217 103.225 102.538 102.881C102.682 102.727 102.82 102.567 102.962 102.41C103.507 101.807 103.541 101.55 103.054 100.862C102.665 100.312 102.245 99.7802 101.8 99.2731C100.797 98.129 100.667 97.2729 101.361 95.9325C101.554 95.5605 101.844 95.2292 101.988 94.8419C102.576 93.2595 103.157 91.6733 103.671 90.0667C103.878 89.4246 104.178 88.9124 104.826 88.757C105.827 88.5162 106.851 88.3684 107.864 88.1709C109.371 87.8778 109.446 87.7581 109.442 86.2598C109.441 85.7476 109.247 85.5285 108.755 85.4788C107.765 85.3807 106.778 85.2558 105.788 85.145C104.433 84.9921 104.066 84.6939 103.716 83.4874C103.423 82.4758 103.208 81.4272 102.791 80.4678C102.316 79.376 101.667 78.3567 101.068 77.3222C100.699 76.6839 100.79 75.7869 101.255 75.1881C102.055 74.1599 102.814 73.0986 103.637 71.9889C103.247 71.5366 102.906 71.0805 102.502 70.6919C102.181 70.3836 101.78 70.3734 101.399 70.6575C100.556 71.2907 99.7027 71.9099 98.8659 72.552C98.2075 73.0578 97.0383 73.1126 96.3531 72.6858C94.7649 71.6997 93.0494 71.0295 91.2434 70.5403C89.6018 70.0956 88.8949 69.7797 88.7892 67.9947C88.7472 67.285 88.588 66.5805 88.4593 65.8772C88.197 64.4426 88.1894 64.4604 86.7591 64.3445C86.321 64.3088 86.1083 64.4872 86.0357 64.8681C85.8447 65.8874 85.525 66.9104 85.5275 67.931C85.5326 69.6688 84.6309 70.246 83.1803 70.4511C81.2928 70.7186 79.6932 71.5723 78.1432 72.5635C77.0887 73.2375 76.3793 73.2808 75.354 72.5304C74.5415 71.9354 73.7544 71.2996 72.9049 70.762C72.64 70.5951 72.1102 70.539 71.8771 70.6957C71.4033 71.0142 71.048 71.5124 70.6417 71.9379L70.6443 71.9367Z" fill="#1C54AD"/>
<path d="M16.4366 36.4066C19.6142 36.4066 22.7918 36.4066 25.9707 36.4066C27.5806 36.4066 29.1942 36.3454 30.8002 36.4232C31.5669 36.4601 32.447 36.4958 32.8978 37.3329C33.0405 37.5966 33.1526 37.9189 33.15 38.2132C33.1296 40.6301 33.0685 43.0471 33.0405 45.464C33.0188 47.3318 33.0519 49.2008 33.0112 51.0686C32.9934 51.8815 32.8533 52.6943 31.9414 53.0498C31.7287 53.1326 31.5032 53.2345 31.2816 53.2384C29.9469 53.2588 28.6122 53.2473 27.2774 53.2562C25.3913 53.2689 23.5063 53.3008 21.6214 53.3021C19.7352 53.3021 17.849 53.2728 15.9628 53.2626C14.3517 53.2549 12.7393 53.2345 11.1295 53.2626C9.98708 53.2817 8.99495 52.6612 8.96693 51.3973C8.9491 50.5947 8.94783 49.792 8.93127 48.9881C8.91599 48.2466 8.87141 47.505 8.87523 46.7648C8.88669 44.8792 8.92745 42.9948 8.93764 41.1092C8.94146 40.3677 8.87268 39.6262 8.87905 38.8847C8.89179 36.9812 9.5617 36.5174 11.2925 36.4193C13.003 36.3225 14.7223 36.3977 16.4379 36.3977C16.4379 36.4002 16.4379 36.4041 16.4379 36.4066H16.4366ZM20.9999 49.792C23.5 49.792 26 49.792 28.5014 49.792C29.2872 49.792 29.4922 49.6124 29.4961 48.8275C29.5075 46.1392 29.5075 43.4509 29.5012 40.7627C29.4999 40.1269 29.2426 39.8708 28.6147 39.8657C27.1565 39.8555 25.6982 39.853 24.2399 39.867C22.4658 39.8848 20.6904 39.9485 18.9163 39.9485C17.0785 39.9485 15.2394 39.8848 13.4016 39.8695C12.6693 39.8632 12.3878 40.1409 12.3853 40.8608C12.3751 43.4688 12.3725 46.0781 12.3865 48.6861C12.3916 49.5283 12.6731 49.7895 13.4997 49.7907C15.9997 49.7958 18.4998 49.7933 21.0012 49.7907L20.9999 49.792Z" fill="#1C54AD"/>
<path d="M21.012 82.0885C24.2291 82.0885 27.4462 82.0885 30.662 82.0885C30.8938 82.0885 31.1269 82.0885 31.3574 82.1114C32.4094 82.2133 33.0309 82.844 33.0348 83.8964C33.0449 87.0357 33.0246 90.175 33.022 93.313C33.022 94.3527 33.0411 95.3923 33.0386 96.432C33.0386 96.7263 33.0335 97.0346 32.9532 97.3136C32.6183 98.4705 32.2693 98.7622 31.0543 98.7724C29.191 98.789 27.3265 98.7431 25.4632 98.7406C23.6203 98.738 21.7774 98.7661 19.9358 98.7635C17.7325 98.761 15.5304 98.7342 13.3271 98.7304C12.5222 98.7304 11.716 98.789 10.9111 98.7775C9.66678 98.761 9.36493 98.5202 9.0096 97.3327C8.937 97.0919 8.88351 96.8333 8.88479 96.5836C8.89498 94.6992 8.93573 92.8162 8.937 90.9318C8.937 89.0475 8.87078 87.1631 8.90007 85.28C8.91153 84.5105 8.98158 83.7014 9.24139 82.9892C9.48593 82.3191 10.189 82.0732 10.9149 82.0745C12.5018 82.077 14.09 82.0885 15.6769 82.0923C17.4548 82.0961 19.234 82.0923 21.012 82.0923C21.012 82.091 21.012 82.0897 21.012 82.0885ZM12.3872 90.4986C12.3872 91.8135 12.4012 93.1283 12.3808 94.4431C12.3719 94.9808 12.6164 95.2331 13.1233 95.2573C13.7576 95.2879 14.3918 95.3223 15.0261 95.3197C17.0358 95.3108 19.0456 95.2764 21.0553 95.2687C23.5936 95.2585 26.1306 95.2585 28.6689 95.2675C29.2547 95.27 29.5094 95.0369 29.5056 94.4317C29.4903 91.8071 29.5056 89.1825 29.5005 86.5566C29.4992 85.6954 29.3579 85.5476 28.502 85.5514C26.4057 85.5578 24.3093 85.5947 22.213 85.5922C19.2914 85.5896 16.3685 85.5578 13.4468 85.5501C12.6152 85.5476 12.3948 85.7795 12.3897 86.6165C12.3808 87.9097 12.3872 89.2042 12.3897 90.4973L12.3872 90.4986Z" fill="#1C54AD"/>
<path d="M21.1515 59.3667C23.7573 59.3667 26.3631 59.3679 28.9689 59.3667C29.7738 59.3667 30.58 59.3297 31.3849 59.3539C32.0764 59.3743 32.6648 59.6457 33.0036 60.2904C33.0966 60.4675 33.1679 60.6815 33.1654 60.879C33.1323 63.7405 33.0775 66.6008 33.0431 69.4624C33.0266 70.8626 33.0418 72.2641 33.038 73.6643C33.038 73.8758 33.0291 74.0911 32.9909 74.2975C32.7553 75.578 32.2446 76.0022 30.9226 76.0048C28.2302 76.0111 25.5365 76.0124 22.8441 76.0124C18.9647 76.0124 15.0841 76.0455 11.206 75.9933C9.30451 75.9678 9.22045 75.6047 8.93898 74.0898C8.88549 73.8006 8.87276 73.4999 8.87531 73.2044C8.89441 71.4041 8.94408 69.6038 8.94408 67.8036C8.94408 65.9192 8.88931 64.0349 8.88422 62.1505C8.88295 61.6485 8.93771 61.1389 9.02941 60.6446C9.23701 59.5234 10.2011 59.3233 11.0481 59.3195C14.4167 59.3068 17.7854 59.3144 21.1541 59.3144V59.3654L21.1515 59.3667ZM20.986 62.6232C20.986 62.6359 20.986 62.6487 20.986 62.6614C20.3708 62.6614 19.7569 62.6652 19.1418 62.6614C17.2339 62.6487 15.3274 62.6245 13.4195 62.6206C12.6159 62.6181 12.393 62.8436 12.3853 63.6424C12.3777 64.4273 12.4044 65.2134 12.4032 65.9982C12.3994 67.8443 12.393 69.6917 12.3777 71.5379C12.3739 72.059 12.5993 72.4297 13.1138 72.4705C14.0206 72.5431 14.9325 72.5597 15.8419 72.5635C16.4545 72.566 17.0684 72.4769 17.6822 72.4832C19.5633 72.4998 21.4432 72.5546 23.323 72.5699C23.9789 72.575 24.6335 72.4922 25.2894 72.482C26.4089 72.4667 27.5284 72.4794 28.6479 72.4769C29.2045 72.4756 29.5127 72.2412 29.5089 71.6322C29.4949 68.9413 29.5038 66.2505 29.4923 63.5596C29.4885 62.7774 29.328 62.627 28.5499 62.6245C26.0281 62.6194 23.5051 62.6219 20.9834 62.6219L20.986 62.6232Z" fill="#1C54AD"/>
<path d="M44.9669 94.4826C46.4685 93.2481 47.8389 92.1256 49.2054 90.998C50.3096 90.0858 51.4049 89.1608 52.513 88.2524C53.2949 87.6103 54.0667 86.9516 54.8882 86.3642C55.6817 85.796 56.5057 85.968 57.1807 86.7452C57.5882 87.2153 57.5921 88.3939 57.0699 88.8767C55.9708 89.8922 54.8093 90.8401 53.6719 91.8122C51.9564 93.2774 50.2447 94.7451 48.5215 96.2026C47.588 96.9926 46.6531 97.7838 45.6865 98.5329C45.0701 99.0094 43.594 98.7712 43.1406 98.1252C42.3191 96.9556 41.546 95.7529 40.7475 94.5655C40.2775 93.866 39.8114 93.1627 39.3223 92.4773C38.8587 91.8288 38.7823 91.1063 39.1274 90.4426C39.479 89.7673 40.131 89.4004 40.9296 89.5265C41.7192 89.6501 42.0911 90.3139 42.4999 90.8948C43.3087 92.0466 44.0957 93.2137 44.9669 94.4839V94.4826Z" fill="#1C54AD"/>
<path d="M44.9652 69.4752C46.0924 68.5591 47.1303 67.731 48.1492 66.8837C49.4152 65.8313 50.6646 64.7573 51.9267 63.6998C52.9443 62.8462 53.9632 61.9938 54.9961 61.1593C55.7819 60.5235 56.4251 61.0051 57.1536 61.6829C57.6694 62.1633 57.6121 63.2666 57.1013 63.7202C56.1118 64.5993 55.0865 65.4389 54.0753 66.2951C52.9176 67.2748 51.7701 68.2661 50.6009 69.2331C48.9796 70.576 47.343 71.8997 45.7128 73.2337C44.9767 73.8363 43.5222 73.5968 43.0064 72.817C42.1225 71.4818 41.2068 70.1683 40.3204 68.8356C39.9014 68.2049 39.4837 67.5691 39.1321 66.899C38.8099 66.2836 38.8048 65.5727 39.1907 65.0172C39.5792 64.4566 40.3064 64.1279 40.9279 64.361C41.4908 64.5712 42.0092 65.0898 42.3785 65.5956C43.2701 66.8174 44.0635 68.1119 44.9627 69.4764L44.9652 69.4752Z" fill="#1C54AD"/>
<path d="M45.0343 44.2001C46.6556 42.8815 48.1941 41.6341 49.7288 40.3804C51.3769 39.0338 53.0185 37.6781 54.6678 36.3314C55.1964 35.8995 56.2153 35.8613 56.768 36.2359C57.4277 36.6818 57.713 37.3138 57.3297 38.0527C57.0329 38.6261 56.4929 39.0987 55.9898 39.5332C54.7621 40.5958 53.4936 41.6125 52.2378 42.6432C51.1145 43.5644 49.9785 44.4715 48.8615 45.4003C47.8579 46.2348 46.8581 47.0744 45.88 47.9382C45.1235 48.6071 43.5468 48.3689 42.9953 47.5293C41.979 45.9825 40.8952 44.4791 39.8826 42.9299C39.5082 42.3578 39.1299 41.7361 38.9797 41.0837C38.7644 40.1575 39.1847 39.551 40.0126 39.2045C40.6659 38.9306 41.5141 39.137 41.993 39.802C42.7814 40.8964 43.5009 42.0393 44.2587 43.1567C44.4892 43.4968 44.7491 43.8179 45.0356 44.2014L45.0343 44.2001Z" fill="#1C54AD"/>
<path d="M87.2716 75.1116C93.6752 75.3665 98.692 79.9824 98.7531 86.7044C98.8117 93.229 93.6689 98.2959 87.199 98.315C80.6527 98.3354 75.5914 93.0939 75.5481 86.814C75.5036 80.2958 80.8616 75.0823 87.2716 75.1116ZM79.0467 86.5197C78.9142 91.2707 82.7516 94.7642 87.1264 94.861C90.9459 94.9451 96.0365 91.7052 95.187 85.387C94.7756 82.3242 91.5522 78.3707 86.6794 78.5975C82.9745 78.7695 78.9486 82.1726 79.0454 86.5197H79.0467Z" fill="#1C54AD"/>
</g>
<defs>
<clipPath id="clip0_3133_2514">
<rect width="113" height="113" fill="white"/>
</clipPath>
</defs>
</svg>
