<svg width="116" height="113" viewBox="0 0 116 113" fill="none" xmlns="http://www.w3.org/2000/svg">
<g clip-path="url(#clip0_3133_2509)">
<path d="M63.1603 0C64.4882 0.405878 65.8854 0.662626 67.1286 1.24684C71.3265 3.22242 73.9269 6.5048 74.577 11.137C74.8342 12.9727 74.788 14.853 74.8743 16.7117C74.9174 17.6572 74.9374 18.6043 74.9898 19.5482C75.0006 19.7358 75.0591 19.9849 75.1885 20.0925C77.3576 21.8959 77.6302 24.1974 77.0372 26.7679C76.7691 27.9302 76.6412 29.1248 76.4025 30.2963C76.099 31.7861 75.2317 32.8699 73.9222 33.6417C73.6604 33.797 73.3862 34.1414 73.3461 34.4304C72.9009 37.659 71.5037 40.4094 69.2083 42.6971C68.7878 43.1168 68.8247 43.5488 68.8232 44.0239C68.8201 45.3594 69.4558 46.2096 70.7303 46.5744C74.4368 47.6307 78.1771 48.5777 81.8404 49.763C85.8442 51.0591 88.5401 53.8341 89.8095 57.8376C90.2408 59.1982 90.4211 60.6895 90.4288 62.1223C90.4796 72.3446 90.4442 82.5684 90.4796 92.7907C90.4827 93.5763 90.2115 93.9868 89.5815 94.3635C85.6301 96.7265 81.691 99.1064 77.7581 101.499C72.0752 104.955 66.4 108.425 60.7247 111.892C60.1424 112.248 59.574 112.629 58.9994 113H58.5372C56.8365 111.976 55.1404 110.943 53.432 109.93C49.3666 107.519 45.2966 105.116 41.2266 102.713C36.9132 100.166 32.5982 97.6228 28.2833 95.0768C28.1955 95.0245 28.1123 94.9584 28.0168 94.9246C26.3961 94.3496 26.1111 93.1996 26.1266 91.5577C26.2159 81.4661 26.145 71.373 26.182 61.2814C26.202 55.9834 28.69 52.1537 33.5148 49.9875C35.2201 49.2219 37.1211 48.8867 38.9374 48.3686C41.5624 47.6199 44.1859 46.865 46.8232 46.1609C47.3655 46.0164 47.4764 45.7781 47.4995 45.2676C47.5658 43.8594 47.3732 42.7032 46.2579 41.5594C44.3276 39.5838 43.4218 37.0025 42.9596 34.2828C42.915 34.0168 42.6885 33.694 42.4528 33.5618C40.937 32.7131 40.0758 31.4678 39.8355 29.7367C39.609 28.1009 39.1746 26.4897 39.0314 24.8492C38.8758 23.0551 39.5582 21.4854 40.9493 20.3031C41.3036 20.0018 41.4253 19.7266 41.4392 19.2823C41.5224 16.4734 41.4238 13.6353 41.7966 10.8634C42.3219 6.95988 44.531 4.01112 47.8739 1.91408C49.4945 0.896313 51.2953 0.388966 53.1439 0.00153741C56.4822 0.00153741 59.8189 0.00153741 63.1572 0.00153741L63.1603 0ZM50.5328 45.386C50.5328 46.124 50.5358 46.6867 50.5328 47.2494C50.5281 47.9535 50.1677 48.4163 49.5083 48.6069C44.8991 49.9414 40.293 51.2866 35.6731 52.5796C31.9897 53.6112 29.1121 57.1396 29.1059 60.8247C29.0905 71.0732 29.1028 81.3231 29.0936 91.5715C29.0936 92.002 29.2153 92.2511 29.605 92.4801C33.752 94.9092 37.8868 97.3599 42.0215 99.8105C47.2561 102.911 52.4923 106.009 57.7115 109.136C58.3216 109.502 58.7544 109.485 59.3599 109.107C62.3099 107.265 65.297 105.48 68.2701 103.676C74.3628 99.9766 80.454 96.2729 86.5544 92.5847C86.9303 92.3571 87.0658 92.105 87.0643 91.6668C87.052 81.4184 87.0689 71.1685 87.0474 60.9201C87.0396 57.2733 84.2822 53.6189 80.8422 52.618C77.5825 51.6694 74.3135 50.7547 71.0477 49.8276C70.3252 49.6231 69.5996 49.4294 68.7569 49.1988V53.0746H65.6805C65.659 52.9286 65.6313 52.8287 65.6313 52.7303C65.6282 49.1942 65.6159 45.6581 65.6497 42.1236C65.6528 41.8315 65.9024 41.4718 66.1427 41.2642C68.4011 39.324 69.883 36.9579 70.2466 33.963C70.3621 33.0129 70.4654 32.0628 70.5747 31.1096C70.7473 31.0896 70.8474 31.0712 70.9475 31.0665C72.8501 31.002 73.1813 30.7145 73.4986 28.8573C73.7204 27.5551 73.9192 26.2467 74.178 24.9507C74.4275 23.6992 73.7574 22.4539 72.505 22.1803C71.8965 22.0465 71.801 21.7652 71.7964 21.2425C71.7732 18.758 71.7671 16.2735 71.6623 13.7921C71.6115 12.5791 71.4605 11.3507 71.1786 10.1715C70.319 6.5909 66.5263 3.28546 62.8645 3.09328C59.8251 2.93339 56.7626 2.90571 53.7262 3.08405C48.6118 3.38385 44.6141 7.8116 44.5602 12.9358C44.5294 15.8031 44.4401 18.6688 44.3461 21.533C44.3399 21.7375 44.1243 22.0542 43.9394 22.1157C42.3943 22.6292 41.8505 23.4102 42.0723 25.0568C42.2726 26.545 42.5345 28.0255 42.7948 29.5045C42.9627 30.4516 43.6467 31.022 44.6064 31.0619C44.9346 31.0758 45.2627 31.0635 45.637 31.0635C45.6879 31.5954 45.7033 32.0551 45.7803 32.5056C45.9837 33.6817 46.1007 34.8886 46.4551 36.0201C47.3069 38.7382 49.1016 40.7523 51.4817 42.2789C52.6648 43.0369 53.7755 43.9562 55.2436 44.0838C56.0509 44.153 56.8689 44.0961 57.7084 44.0961V47.1464C55.1142 47.4585 52.7742 46.9111 50.5358 45.3891L50.5328 45.386Z" fill="#E9EEF3" stroke="#E9EEF3"/>
<path d="M0 55.8082C0.432882 54.5459 0.70093 53.1946 1.33254 52.04C2.52335 49.863 4.43665 48.5085 6.86603 47.8628C9.08436 47.274 11.2827 46.6129 13.484 45.9626C14.3498 45.7073 14.4099 45.4721 13.8091 44.8295C12.4843 43.4089 11.6724 41.7331 11.2334 39.8559C11.1733 39.5977 11.067 39.2779 10.8713 39.1349C9.73753 38.3078 9.166 37.1747 9.03506 35.8233C8.89487 34.3612 8.68228 32.8822 8.78858 31.4324C8.84404 30.676 9.52802 29.9704 9.90545 29.2293C10.0687 28.9096 10.2705 28.5667 10.289 28.2254C10.3661 26.7449 10.3014 25.2536 10.4323 23.7792C10.8128 19.5298 14.2266 15.9292 18.5261 15.3941C21.3144 15.0482 24.1443 14.9544 26.9265 15.5325C31.1012 16.4011 34.2916 20.4061 34.2932 24.6709C34.2932 25.2859 34.2901 25.9008 34.2932 26.5158C34.3024 27.7719 34.1776 28.9757 35.1805 30.0872C35.9184 30.9036 36.0555 32.1074 35.7736 33.2881C35.5672 34.1506 35.5194 35.05 35.3854 35.9309C35.1975 37.167 34.6521 38.1909 33.6292 38.9581C33.4166 39.118 33.2333 39.407 33.1763 39.6668C32.7727 41.501 31.987 43.1322 30.7192 44.5282C30.026 45.2907 30.1323 45.6751 31.1059 45.9472C32.2612 46.2685 33.4182 46.5852 34.7384 46.948C34.3779 47.1018 34.1514 47.2063 33.9204 47.294C33.3011 47.5307 32.5771 47.6291 32.0779 48.0181C30.7716 49.0374 29.4822 48.6484 28.1327 48.2302C27.5442 48.0473 27.29 47.6814 27.2823 47.1141C27.2685 46.0902 27.2484 45.0632 27.2977 44.0408C27.3101 43.784 27.5211 43.4781 27.7306 43.3013C29.3327 41.9438 30.2524 40.2526 30.3772 38.1433C30.4019 37.7128 30.4804 37.2854 30.5405 36.8011C30.7885 36.778 31.0396 36.7765 31.2815 36.7304C31.9886 36.5951 32.4045 36.2 32.4785 35.4466C32.5663 34.558 32.6926 33.674 32.8266 32.7915C32.9637 31.8906 32.6325 31.2849 31.8222 30.9005C31.6296 30.8098 31.4063 30.55 31.3939 30.3547C31.3169 29.1571 31.32 27.9533 31.2522 26.7541C31.1891 25.6364 31.169 24.5033 30.9626 23.4102C30.4388 20.6367 27.9894 18.429 25.1888 18.3168C22.9766 18.2276 20.7182 18.1292 18.5477 18.4674C15.4636 18.9471 13.3623 21.7713 13.3331 24.8723C13.3161 26.6388 13.253 28.4053 13.236 30.1718C13.2314 30.613 13.1205 30.8236 12.646 30.9697C11.962 31.1819 11.523 31.7138 11.6324 32.4933C11.7987 33.6786 11.9836 34.8624 12.2177 36.0355C12.3348 36.6243 12.8725 36.8595 13.9662 36.9195C14.0848 37.6774 14.1742 38.4538 14.3298 39.2164C14.6795 40.9275 15.5483 42.3389 16.8562 43.4996C17.0503 43.6718 17.2013 43.9947 17.2121 44.2545C17.2537 45.2 17.1905 46.1517 17.2398 47.0972C17.2814 47.9058 16.8516 48.2518 16.1645 48.4455C13.4625 49.208 10.7835 50.0721 8.05376 50.7178C5.11448 51.4127 3.0656 53.7219 3.06098 57.0181C3.05328 63.526 3.05328 70.0339 3.07793 76.5417C3.07793 76.8046 3.29206 77.1752 3.51851 77.3104C8.41116 80.2377 13.3192 83.1373 18.2242 86.0445C19.8941 87.0346 21.5732 88.0109 23.22 89.0363C23.4634 89.1885 23.6806 89.5698 23.6991 89.8588C23.7592 90.7982 23.7222 91.7437 23.7222 92.8276C22.3081 92.002 20.9909 91.241 19.683 90.4677C13.9585 87.09 8.23708 83.7076 2.5141 80.3299C1.67915 79.8364 0.838035 79.3552 0 78.8694C0 71.1823 0 63.4952 0 55.8082Z" fill="#E9EEF3" stroke="#E9EEF3"/>
<path d="M116 78.8694C108.225 83.4355 100.451 88.0001 92.5478 92.6416C92.5478 91.4716 92.5262 90.4554 92.5663 89.4422C92.574 89.25 92.7819 88.9994 92.9652 88.8903C97.1878 86.3858 101.42 83.8967 105.651 81.4077C107.944 80.0593 110.228 78.6987 112.537 77.3796C112.99 77.1213 113.02 76.7877 113.02 76.3634C113.015 70.8794 113.016 65.397 113.016 59.9131C113.016 58.7339 113.023 57.5562 113.004 56.377C112.961 53.8203 111.071 51.5157 108.589 50.8531C105.677 50.0767 102.786 49.228 99.8821 48.4224C99.1858 48.2287 98.8392 47.8274 98.9239 47.0879C98.947 46.885 98.944 46.6775 98.9239 46.473C98.776 44.8833 98.9763 43.5396 100.357 42.3527C101.715 41.1827 102.026 39.3609 102.105 37.5929C102.128 37.0778 102.251 36.8641 102.808 36.8734C103.465 36.8841 103.907 36.5413 104.017 35.8433C104.169 34.864 104.36 33.8892 104.496 32.9068C104.633 31.8998 104.271 31.4371 102.82 30.7852C102.82 29.0402 102.82 27.2245 102.82 25.4089C102.818 21.4685 100.161 18.6289 96.188 18.4382C94.4749 18.3552 92.745 18.3783 91.035 18.5043C87.9078 18.7349 85.4538 21.1102 85.0486 24.2174C84.93 25.1244 84.9377 26.0484 84.9007 26.9647C84.853 28.1393 84.836 29.317 84.7636 30.49C84.7513 30.6807 84.5603 30.9374 84.3831 31.0281C83.3679 31.5447 83.1106 32.072 83.3201 33.1713C83.4727 33.9723 83.5451 34.7886 83.6714 35.5942C83.8023 36.4337 84.1859 36.8334 85.0239 36.8749C85.5 36.898 85.6556 37.0794 85.6633 37.5175C85.7033 39.9528 86.6076 41.9822 88.5009 43.558C88.6503 43.6826 88.7612 43.9362 88.7658 44.133C88.7905 45.2338 88.8259 46.3392 88.7474 47.4354C88.7258 47.746 88.393 48.158 88.0973 48.2979C87.4811 48.59 86.7971 48.7468 86.1316 48.9252C85.9606 48.9713 85.7357 48.9405 85.5708 48.8652C84.2321 48.2533 82.9027 47.623 81.6117 47.0172C82.3358 46.8035 83.1861 46.5514 84.0365 46.3039C84.4524 46.1824 84.8761 46.0871 85.2843 45.9456C85.939 45.7196 86.0777 45.303 85.617 44.8172C84.2044 43.329 83.3094 41.5917 82.9474 39.5746C82.9212 39.4332 82.8503 39.2517 82.7394 39.1795C81.1789 38.1679 80.7953 36.5936 80.5919 34.8962C80.4163 33.4372 79.9819 31.9859 80.7013 30.5546C80.8276 30.304 80.9 29.9934 81.0957 29.8166C81.8366 29.1448 81.8721 28.3023 81.8998 27.3829C81.9476 25.8086 81.9306 24.1928 82.2819 22.6738C83.2 18.7057 85.8081 16.2044 89.778 15.4833C92.8405 14.9268 96.0047 14.8637 99.0703 15.677C102.692 16.6379 105.694 20.2247 105.856 23.9099C105.919 25.3643 105.936 26.8202 106.016 28.2731C106.035 28.599 106.149 28.9849 106.357 29.2247C107.431 30.4639 107.833 31.8614 107.548 33.4726C107.374 34.4504 107.24 35.4359 107.079 36.4167C106.907 37.4745 106.331 38.2862 105.557 39.0042C105.282 39.2594 105.04 39.6253 104.943 39.9836C104.451 41.7823 103.713 43.432 102.399 44.7972C101.869 45.3476 102.022 45.8457 102.774 46.0656C104.856 46.6744 106.933 47.3093 109.034 47.8459C112.79 48.8052 115.095 51.1498 116.01 54.8873V78.8709L116 78.8694Z" fill="#E9EEF3" stroke="#E9EEF3"/>
<path d="M69.3609 14.7515V17.8171C67.6649 17.8171 66.0273 17.8309 64.3897 17.8125C62.803 17.794 61.2101 17.8217 59.6311 17.688C57.3912 17.4973 55.4887 16.4842 53.828 14.9975C53.7341 14.9129 53.6355 14.833 53.483 14.7038C52.0565 17.3159 49.7842 18.1646 46.9004 17.8632V14.7515C47.3456 14.7515 47.7492 14.75 48.1528 14.7515C49.3683 14.7592 50.2556 14.2211 50.8164 13.1464C51.6051 11.6382 52.3892 10.127 53.2396 8.49576C53.6879 9.29368 54.0868 9.97168 54.4566 10.6635C55.9354 13.4339 58.277 14.7423 61.3873 14.7484C64.0277 14.7546 66.6697 14.7484 69.3579 14.7484L69.3609 14.7515Z" fill="#E9EEF3" stroke="#E9EEF3"/>
</g>
<defs>
<clipPath id="clip0_3133_2509">
<rect width="116" height="113" fill="white"/>
</clipPath>
</defs>
</svg>
