<svg width="100" height="100" viewBox="0 0 100 100" fill="none" xmlns="http://www.w3.org/2000/svg">
<g clip-path="url(#clip0_3133_2481)">
<path d="M64.8059 18.5488C64.824 27.5527 64.8229 36.5555 64.8218 45.5595C64.8216 47.6784 64.8213 49.7974 64.8213 51.9165V52.558H59.5277V52.5575V52.5557V52.5538V52.5519V52.55V52.5481V52.5463V52.5444V52.5425V52.5406V52.5388V52.5369V52.535V52.5331V52.5313V52.5294V52.5275V52.5257V52.5238V52.5219V52.5201V52.5182V52.5163V52.5145V52.5126V52.5107V52.5089V52.507V52.5051V52.5033V52.5014V52.4995V52.4977V52.4958V52.4939V52.4921V52.4902V52.4884V52.4865V52.4846V52.4828V52.4809V52.4791V52.4772V52.4754V52.4735V52.4717V52.4698V52.4679V52.4661V52.4642V52.4624V52.4605V52.4587V52.4568V52.455V52.4531V52.4513V52.4494V52.4476V52.4457V52.4439V52.442V52.4402V52.4383V52.4365V52.4347V52.4328V52.431V52.4291V52.4273V52.4254V52.4236V52.4217V52.4199V52.4181V52.4162V52.4144V52.4125V52.4107V52.4089V52.407V52.4052V52.4034V52.4015V52.3997V52.3978V52.396V52.3942V52.3923V52.3905V52.3887V52.3868V52.385V52.3832V52.3813V52.3795V52.3777V52.3758V52.374V52.3722V52.3703V52.3685V52.3667V52.3649V52.363V52.3612V52.3594V52.3575V52.3557V52.3539V52.3521V52.3502V52.3484V52.3466V52.3448V52.3429V52.3411V52.3393V52.3375V52.3356V52.3338V52.332V52.3302V52.3283V52.3265V52.3247V52.3229V52.3211V52.3192V52.3174V52.3156V52.3138V52.312V52.3101V52.3083V52.3065V52.3047V52.3029V52.3011V52.2992V52.2974V52.2956V52.2938V52.292V52.2902V52.2884V52.2865V52.2847V52.2829V52.2811V52.2793V52.2775V52.2757V52.2738V52.272V52.2702V52.2684V52.2666V52.2648V52.263V52.2612V52.2594V52.2575V52.2557V52.2539V52.2521V52.2503V52.2485V52.2467V52.2449V52.2431V52.2413V52.2395V52.2377V52.2359V52.2341V52.2322V52.2304V52.2286V52.2268V52.225V52.2232V52.2214V52.2196V52.2178V52.216V52.2142V52.2124V52.2106V52.2088V52.207V52.2052V52.2034V52.2016V52.1998V52.198V52.1962V52.1944V52.1926V52.1908V52.189V52.1872V52.1854V52.1836V52.1818V52.18V52.1782V52.1764V52.1746V52.1728V52.171V52.1692V52.1674V52.1656V52.1638V52.162V52.1602V52.1584V52.1566V52.1548V52.153V52.1512V52.1494V52.1476V52.1458V52.144V52.1422V52.1404V52.1386V52.1368V52.135V52.1333V52.1315V52.1297V52.1279V52.1261V52.1243V52.1225V52.1207V52.1189V52.1171V52.1153V52.1135V52.1117V52.1099V52.1081V52.1063V52.1046V52.1028V52.101V52.0992V52.0974V52.0956V52.0938V52.092V52.0902V52.0884V52.0866V52.0848V52.083V52.0813V52.0795V52.0777V52.0759V52.0741V52.0723V52.0705V52.0687V52.0669V52.0651V52.0633V52.0616V52.0598V52.058V52.0562V52.0544V52.0526V52.0508V52.049V52.0472V52.0454V52.0436V52.0419V52.0401V52.0383V52.0365V52.0347V52.0329V52.0311V52.0293V52.0275V52.0257V52.024V52.0222V52.0204V52.0186V52.0168V52.015V52.0132V52.0114V52.0096V52.0079V52.0061V52.0043V52.0025V52.0007V51.9989C59.5277 50.0913 59.5275 48.1837 59.5273 46.2762C59.5264 36.2606 59.5255 26.2457 59.55 16.2307V16.2297C59.55 15.8561 59.7463 15.3643 60.0025 15.0988L60.0036 15.0977C64.5702 10.3307 69.1644 5.58918 73.7793 0.868153C74.0066 0.635646 74.4255 0.447473 74.732 0.441101C76.6823 0.403765 78.6322 0.408071 80.6398 0.412504C81.1713 0.413678 81.7069 0.414861 82.2476 0.415282V8.90498V9.15224L82.4688 9.26278C82.5108 9.2838 82.5532 9.30476 82.5947 9.32528C82.6364 9.34594 82.6773 9.36616 82.7176 9.38632L82.9956 9.52524L83.1989 9.29026C83.3159 9.15508 83.4277 9.02254 83.5374 8.89242C83.7715 8.61472 83.9964 8.34804 84.243 8.09017L84.2431 8.09C84.5434 7.77558 84.8435 7.46114 85.1435 7.14677C87.1532 5.04109 89.1599 2.93841 91.1979 0.86555C91.4271 0.632485 91.8445 0.445763 92.1514 0.439385C94.0821 0.402424 96.0121 0.407223 97.9702 0.412092C98.5105 0.413435 99.0531 0.414784 99.5983 0.415262V52.5563H94.3767V5.84915V4.95589L93.7103 5.55075C93.6142 5.63651 93.5263 5.71299 93.4452 5.7835C93.2747 5.93169 93.1346 6.05347 93.0136 6.17946L93.0133 6.17977C92.5793 6.63267 92.1451 7.08552 91.7109 7.5384C88.7424 10.6347 85.7726 13.7324 82.8302 16.8562L64.8059 18.5488Z" fill="#1C54AD" stroke="#F4F6F9" stroke-width="0.8"/>
<path d="M70.4226 93.0542H47.6666V71.005H99.5985V93.0045H76.7309H76.3309V93.4045V99.6017H70.8226V93.4542V93.0542H70.4226ZM76.7601 75.9958H76.3601V76.3958V87.5656V87.9656H76.7601H93.946H94.346V87.5656V76.3958V75.9958H93.946H76.7601ZM70.3419 87.9673H70.7419V87.5673V76.4078V76.0078H70.3419H53.2848H52.8848V76.4078V87.5673V87.9673H53.2848H70.3419Z" fill="#1C54AD" stroke="#F4F6F9" stroke-width="0.8"/>
<path d="M35.3145 47.5278V47.1466V5.88518V5.48518H35.7145H47.0007H47.4007V5.88518V5.88712V5.88906V5.891V5.89294V5.89487V5.89681V5.89875V5.90068V5.90262V5.90455V5.90649V5.90842V5.91035V5.91229V5.91422V5.91615V5.91808V5.92001V5.92194V5.92387V5.9258V5.92773V5.92965V5.93158V5.93351V5.93543V5.93736V5.93928V5.94121V5.94313V5.94505V5.94697V5.9489V5.95082V5.95274V5.95466V5.95658V5.9585V5.96042V5.96233V5.96425V5.96617V5.96808V5.97V5.97192V5.97383V5.97574V5.97766V5.97957V5.98148V5.9834V5.98531V5.98722V5.98913V5.99104V5.99295V5.99486V5.99677V5.99867V6.00058V6.00249V6.0044V6.0063V6.00821V6.01011V6.01202V6.01392V6.01582V6.01773V6.01963V6.02153V6.02343V6.02533V6.02723V6.02913V6.03103V6.03293V6.03483V6.03673V6.03862V6.04052V6.04242V6.04431V6.04621V6.0481V6.05V6.05189V6.05379V6.05568V6.05757V6.05946V6.06136V6.06325V6.06514V6.06703V6.06892V6.07081V6.07269V6.07458V6.07647V6.07836V6.08025V6.08213V6.08402V6.0859V6.08779V6.08967V6.09156V6.09344V6.09532V6.09721V6.09909V6.10097V6.10285V6.10473V6.10661V6.10849V6.11037V6.11225V6.11413V6.11601V6.11789V6.11976V6.12164V6.12352V6.12539V6.12727V6.12914V6.13102V6.13289V6.13477V6.13664V6.13851V6.14039V6.14226V6.14413V6.146V6.14787V6.14974V6.15161V6.15348V6.15535V6.15722V6.15909V6.16096V6.16282V6.16469V6.16656V6.16843V6.17029V6.17216V6.17402V6.17589V6.17775V6.17961V6.18148V6.18334V6.1852V6.18707V6.18893V6.19079V6.19265V6.19451V6.19637V6.19823V6.20009V6.20195V6.20381V6.20567V6.20753V6.20938V6.21124V6.2131V6.21496V6.21681V6.21867V6.22052V6.22238V6.22423V6.22609V6.22794V6.22979V6.23165V6.2335V6.23535V6.23721V6.23906V6.24091V6.24276V6.24461V6.24646V6.24831V6.25016V6.25201V6.25386V6.25571V6.25756V6.2594V6.26125V6.2631V6.26495V6.26679V6.26864V6.27048V6.27233V6.27418V6.27602V6.27786V6.27971V6.28155V6.2834V6.28524V6.28708V6.28892V6.29077V6.29261V6.29445V6.29629V6.29813V6.29997V6.30181V6.30365V6.30549V6.30733V6.30917V6.31101V6.31285V6.31469V6.31652V6.31836V6.3202V6.32204V6.32387V6.32571V6.32754V6.32938V6.33121V6.33305V6.33488V6.33672V6.33855V6.34039V6.34222V6.34405V6.34589V6.34772V6.34955V6.35138V6.35322V6.35505V6.35688V6.35871V6.36054V6.36237V6.3642V6.36603V6.36786V6.36969V6.37152V6.37335V6.37518V6.377V6.37883V6.38066V6.38249V6.38431V6.38614V6.38797V6.38979V6.39162V6.39345V6.39527V6.3971V6.39892V6.40075V6.40257V6.4044V6.40622V6.40804V6.40987V6.41169V6.41351V6.41534V6.41716V6.41898V6.4208V6.42263V6.42445V6.42627V6.42809V6.42991V6.43173V6.43355V6.43537V6.43719V6.43901V6.44083V6.44265V6.44447V6.44629V6.44811V6.44993V6.45175V6.45356V6.45538V6.4572V6.45902V6.46083V6.46265V6.46447V6.46628V6.4681V6.46992V6.47173V6.47355V6.47536V6.47718V6.47899V6.48081V6.48262V6.48444V6.48625V6.48807V6.48988V6.4917V6.49351V6.49532V6.49714V6.49895V6.50076V6.50257V6.50439V6.5062V6.50801V6.50982V6.51163V6.51345V6.51526V6.51707V6.51888V6.52069V6.5225V6.52431V6.52612V6.52793V6.52974V6.53155V6.53336V6.53517V6.53698V6.53879V6.5406V6.54241V6.54422V6.54603V6.54783V6.54964V6.55145V6.55326V6.55507V6.55687V6.55868V6.56049V6.5623V6.5641V6.56591V6.56772V6.56952V6.57133V6.57314V6.57494V6.57675V6.57856V6.58036V6.58217V6.58397V6.58578V6.58758V6.58939V6.59119V6.593V6.5948V6.59661V6.59841V6.60022V6.60202V6.60383V6.60563V6.60744V6.60924V6.61104V6.61285V6.61465V6.61645V6.61826V6.62006V6.62186V6.62367V6.62547V6.62727V6.62908V6.63088V6.63268V6.63448V6.63629V6.63809V6.63989V6.64169V6.6435V6.6453V6.6471V6.6489V6.6507V6.6525V6.65431V6.65611V6.65791V6.65971V6.66151V6.66331V6.66511V6.66691V6.66872V6.67052V6.67232V6.67412V6.67592V6.67772V6.67952V6.68132V6.68312V6.68492V6.68672V6.68852V6.69032V6.69212V6.69392V6.69572V6.69752V6.69932V6.70112V6.70292V6.70472V6.70652V6.70832V6.71012V6.71192V6.71372V6.71552V6.71732V6.71912V6.72092V6.72272V6.72452V6.72632V6.72812V6.72992V6.73171V6.73351V6.73531V6.73711V6.73891V6.74071V6.74251V6.74431V6.74611V6.74791V6.74971V6.75151V6.7533V6.7551V6.7569V6.7587V6.7605V6.7623V6.7641V6.7659V6.7677V6.7695V6.77129V6.77309V6.77489V6.77669V6.77849V6.78029V6.78209V6.78389V6.78569V6.78748V6.78928V6.79108V6.79288V6.79468V6.79648V6.79828V6.80008V6.80188V6.80368V6.80548V6.80727V6.80907V6.81087V6.81267V6.81447V6.81627V6.81807V6.81987V6.82167V6.82347V6.82527V6.82707V6.82887C47.4007 9.01523 47.4006 11.2016 47.4005 13.388C47.3997 24.3193 47.399 35.251 47.4162 46.1814C47.4162 46.1815 47.4162 46.1816 47.4162 46.1817L47.0162 46.1824C47.0179 46.9407 46.8497 47.2204 46.0292 47.2084L35.3145 47.5278ZM35.3145 47.5278L35.6953 47.5462C35.79 47.5507 35.8861 47.5566 35.9825 47.5625C36.1884 47.5751 36.3956 47.5878 36.593 47.5878L35.3145 47.5278ZM30.0191 0.449759H52.5794V52.5597H30.0191V0.449759Z" fill="#1C54AD" stroke="#F4F6F9" stroke-width="0.8"/>
<path d="M0.399727 52.5338H-0.000273471V52.0484C-0.000273471 50.1322 -0.000449244 48.216 -0.000625017 46.2998C-0.00154782 36.2398 -0.00247063 26.1797 0.0220414 16.1197C0.0220414 15.6718 0.243474 15.1142 0.554166 14.7916C2.95973 12.2771 5.37705 9.7739 7.79434 7.27068C9.9032 5.08687 12.012 2.90307 14.1131 0.711817M0.399727 52.5338V52.5351V52.5368V52.5385V52.5402V52.542V52.5437V52.5454V52.5472V52.5489V52.5506V52.5524V52.5541V52.5558V52.5576V52.5593V52.561V52.5628V52.5645V52.5662V52.5679V52.5697V52.5714V52.5731V52.5749V52.5766V52.5783V52.58V52.5818V52.5835V52.5852V52.5869V52.5887V52.5904V52.5921V52.5938V52.5956V52.5973V52.599V52.6007V52.6025V52.6042V52.6059V52.6076V52.6094V52.6111V52.6128V52.6145V52.6163V52.618V52.6197V52.6214V52.6232V52.6249V52.6266V52.6283V52.63V52.6318V52.6335V52.6352V52.6369V52.6386V52.6404V52.6421V52.6438V52.6455V52.6472V52.649V52.6507V52.6524V52.6541V52.6558V52.6576V52.6593V52.661V52.6627V52.6644V52.6661V52.6679V52.6696V52.6713V52.673V52.6747V52.6764V52.6781V52.6799V52.6816V52.6833V52.685V52.6867V52.6884V52.6901V52.6918V52.6936V52.6953V52.697V52.6987V52.7004V52.7021V52.7038V52.7055V52.7072V52.709V52.7107V52.7124V52.7141V52.7158V52.7175V52.7192V52.7209V52.7226V52.7243V52.726V52.7277V52.7295V52.7312V52.7329V52.7346V52.7363V52.738V52.7397V52.7414V52.7431V52.7448V52.7465V52.7482V52.7499V52.7516V52.7533V52.755V52.7567V52.7584V52.7601V52.7618V52.7635V52.7652V52.7669V52.7686V52.7703V52.772V52.7737V52.7754V52.7771V52.7788V52.7805V52.7822V52.7839V52.7856V52.7873V52.789V52.7907V52.7924V52.7941V52.7958V52.7975V52.7992V52.8009V52.8026V52.8043V52.806V52.8077V52.8094V52.811V52.8127V52.8144V52.8161V52.8178V52.8195V52.8212V52.8229V52.8246V52.8263V52.828V52.8297V52.8313V52.833V52.8347V52.8364V52.8381V52.8398V52.8415V52.8432V52.8448V52.8465V52.8482V52.8499V52.8516V52.8533V52.855V52.8566V52.8583V52.86V52.8617V52.8634V52.8651V52.8667V52.8684V52.8701V52.8718V52.8735V52.8752V52.8768V52.8785V52.8802V52.8819V52.8836V52.8852V52.8869V52.8886V52.8903V52.8919V52.8936V52.8953V52.897V52.8987V52.9003V52.902V52.9037V52.9054V52.907V52.9087V52.9104V52.912V52.9137V52.9154V52.9171V52.9187V52.9204V52.9221V52.9238V52.9254V52.9271V52.9288V52.9304V52.9321V52.9338H23.0424V52.5338M0.399727 52.5338V52.5333V52.5316V52.5299V52.5281V52.5264V52.5247V52.5229V52.5212V52.5195V52.5177V52.516V52.5142V52.5125V52.5108V52.509V52.5073V52.5056V52.5038V52.5021V52.5004V52.4986V52.4969V52.4952V52.4934V52.4917V52.4899V52.4882V52.4865V52.4847V52.483V52.4813V52.4795V52.4778V52.476V52.4743V52.4726V52.4708V52.4691V52.4673V52.4656V52.4639V52.4621V52.4604V52.4586V52.4569V52.4552V52.4534V52.4517V52.4499V52.4482V52.4465V52.4447V52.443V52.4412V52.4395V52.4377V52.436V52.4343V52.4325V52.4308V52.429V52.4273V52.4255V52.4238V52.4221V52.4203V52.4186V52.4168V52.4151V52.4133V52.4116V52.4098V52.4081V52.4064V52.4046V52.4029V52.4011V52.3994V52.3976V52.3959V52.3941V52.3924V52.3906V52.3889V52.3871V52.3854V52.3837V52.3819V52.3802V52.3784V52.3767V52.3749V52.3732V52.3714V52.3697V52.3679V52.3662V52.3644V52.3627V52.3609V52.3592V52.3574V52.3557V52.3539V52.3522V52.3504V52.3487V52.3469V52.3452V52.3434V52.3417V52.34V52.3382V52.3364V52.3347V52.333V52.3312V52.3294V52.3277V52.3259V52.3242V52.3224V52.3207V52.3189V52.3172V52.3154V52.3137V52.3119V52.3102V52.3084V52.3067V52.3049V52.3032V52.3014V52.2997V52.2979V52.2962V52.2944V52.2927V52.2909V52.2892V52.2874V52.2857V52.2839V52.2821V52.2804V52.2786V52.2769V52.2751V52.2734V52.2716V52.2699V52.2681V52.2664V52.2646V52.2629V52.2611V52.2593V52.2576V52.2558V52.2541V52.2523V52.2506V52.2488V52.2471V52.2453V52.2436V52.2418V52.24V52.2383V52.2365V52.2348V52.233V52.2313V52.2295V52.2278V52.226V52.2242V52.2225V52.2207V52.219V52.2172V52.2155V52.2137V52.2119V52.2102V52.2084V52.2067V52.2049V52.2032V52.2014V52.1997V52.1979V52.1961V52.1944V52.1926V52.1909V52.1891V52.1874V52.1856V52.1838V52.1821V52.1803V52.1786V52.1768V52.1751V52.1733V52.1715V52.1698V52.168V52.1663V52.1645V52.1627V52.161V52.1592V52.1575V52.1557V52.154V52.1522V52.1504V52.1487V52.1469V52.1452V52.1434V52.1417V52.1399V52.1381V52.1364V52.1346V52.1329V52.1311V52.1293V52.1276V52.1258V52.1241V52.1223V52.1205V52.1188V52.117V52.1153V52.1135V52.1118V52.11V52.1082V52.1065V52.1047V52.103V52.1012V52.0994V52.0977V52.0959V52.0942V52.0924V52.0906V52.0889V52.0871V52.0854V52.0836V52.0818V52.0801V52.0783V52.0766V52.0748V52.0731V52.0713V52.0695V52.0678V52.066V52.0643V52.0625V52.0607V52.059V52.0572V52.0555V52.0537V52.0519V52.0502V52.0484C0.399727 50.1321 0.399551 48.2159 0.399375 46.2997C0.398452 36.2396 0.39753 26.1801 0.422041 16.1206V16.1197C0.422041 15.7735 0.604611 15.3159 0.842265 15.0691L0.8432 15.0681C3.2504 12.5519 5.66504 10.0515 8.08041 7.55027C10.1883 5.36742 12.2969 3.18398 14.4015 0.988971L14.1131 0.711817M0.399727 52.5338H23.0424M23.0424 52.5338H23.4424V0.41692C23.3089 0.41692 23.1756 0.416989 23.0424 0.417113M23.0424 52.5338V0.417113M23.0424 0.417113V0.0171123C22.467 0.0176477 21.8951 0.0192191 21.3261 0.0207829C19.4726 0.0258762 17.6485 0.0308888 15.8261 -0.000237882M23.0424 0.417113C22.4692 0.417649 21.8989 0.419216 21.3309 0.420777C19.476 0.425874 17.646 0.430903 15.8194 0.399706L15.8261 -0.000237882M15.8261 -0.000237882C15.1104 -0.0122485 14.6143 0.190215 14.1131 0.711817M15.8261 -0.000237882L15.8193 0.399704C15.5017 0.394386 15.2558 0.436834 15.0421 0.525269C14.8286 0.61365 14.6236 0.757797 14.4016 0.988812C14.4017 0.988759 14.4017 0.988706 14.4018 0.988653L14.1131 0.711817M14.8718 47.5876H16.8869V48.1565L17.5701 47.4718L17.5718 47.4701L18.2528 46.7876H17.6869V5.83004V4.83262L16.9978 5.55366C16.3298 6.25247 15.6654 6.9473 15.004 7.63899C11.9535 10.8291 8.96704 13.9522 5.99687 17.0904L5.99644 17.0908C5.82759 17.2698 5.74101 17.5035 5.69387 17.7026C5.6451 17.9086 5.62822 18.1224 5.62819 18.3033C5.62236 22.2701 5.62086 26.2356 5.61936 30.2009C5.61732 35.5818 5.61529 40.9622 5.60244 46.3442C5.60153 46.7191 5.65941 47.093 5.9395 47.3409C6.20645 47.5771 6.57455 47.603 6.89756 47.5996L6.89771 47.5996C8.83532 47.5783 10.7728 47.5817 12.7128 47.5851C13.432 47.5863 14.1517 47.5876 14.8718 47.5876ZM6.28738 17.3653C6.08827 17.5764 6.02819 17.9864 6.02819 18.3039L6.28738 17.3653Z" fill="#1C54AD" stroke="#F4F6F9" stroke-width="0.8"/>
<path d="M5.60223 99.5719V99.576H0.452734V71.0324H40.6246V93.0028H40.623H40.6208H40.6186H40.6164H40.6141H40.6119H40.6097H40.6075H40.6052H40.603H40.6008H40.5986H40.5964H40.5941H40.5919H40.5897H40.5875H40.5853H40.5831H40.5808H40.5786H40.5764H40.5742H40.572H40.5698H40.5676H40.5654H40.5632H40.5609H40.5587H40.5565H40.5543H40.5521H40.5499H40.5477H40.5455H40.5433H40.5411H40.5389H40.5367H40.5345H40.5323H40.5301H40.5279H40.5257H40.5235H40.5213H40.5191H40.5169H40.5147H40.5125H40.5103H40.5081H40.5059H40.5037H40.5015H40.4993H40.4971H40.4949H40.4927H40.4906H40.4884H40.4862H40.484H40.4818H40.4796H40.4774H40.4752H40.473H40.4709H40.4687H40.4665H40.4643H40.4621H40.4599H40.4577H40.4556H40.4534H40.4512H40.449H40.4468H40.4447H40.4425H40.4403H40.4381H40.4359H40.4338H40.4316H40.4294H40.4272H40.4251H40.4229H40.4207H40.4185H40.4164H40.4142H40.412H40.4098H40.4077H40.4055H40.4033H40.4012H40.399H40.3968H40.3946H40.3925H40.3903H40.3881H40.386H40.3838H40.3816H40.3795H40.3773H40.3751H40.373H40.3708H40.3686H40.3665H40.3643H40.3622H40.36H40.3578H40.3557H40.3535H40.3513H40.3492H40.347H40.3449H40.3427H40.3405H40.3384H40.3362H40.3341H40.3319H40.3298H40.3276H40.3254H40.3233H40.3211H40.319H40.3168H40.3147H40.3125H40.3104H40.3082H40.3061H40.3039H40.3018H40.2996H40.2974H40.2953H40.2931H40.291H40.2888H40.2867H40.2845H40.2824H40.2802H40.2781H40.2759H40.2738H40.2717H40.2695H40.2674H40.2652H40.2631H40.2609H40.2588H40.2566H40.2545H40.2523H40.2502H40.2481H40.2459H40.2438H40.2416H40.2395H40.2373H40.2352H40.2331H40.2309H40.2288H40.2266H40.2245H40.2223H40.2202H40.2181H40.2159H40.2138H40.2116H40.2095H40.2074H40.2052H40.2031H40.201H40.1988H40.1967H40.1945H40.1924H40.1903H40.1881H40.186H40.1839H40.1817H40.1796H40.1775H40.1753H40.1732H40.1711H40.1689H40.1668H40.1646H40.1625H40.1604H40.1582H40.1561H40.154H40.1519H40.1497H40.1476H40.1455H40.1433H40.1412H40.1391H40.1369H40.1348H40.1327H40.1305H40.1284H40.1263H40.1241H40.122H40.1199H40.1178H40.1156H40.1135H40.1114H40.1092H40.1071H40.105H40.1029H40.1007H40.0986H40.0965H40.0943H40.0922H40.0901H40.088H40.0858H40.0837H40.0816H40.0795H40.0773H40.0752H40.0731H40.0709H40.0688H40.0667H40.0646H40.0625H40.0603H40.0582H40.0561H40.0539H40.0518H40.0497H40.0476H40.0454H40.0433H40.0412H40.0391H40.037H40.0348H40.0327H40.0306H40.0285H40.0263H40.0242H40.0221H40.02H40.0178H40.0157H40.0136H40.0115H40.0093H40.0072H40.0051H40.003H40.0009H39.9987H39.9966H39.9945H39.9924H39.9902H39.9881H39.986H39.9839H39.9818H39.9796H39.9775H39.9754H39.9733H39.9711H39.969H39.9669H39.9648H39.9627H39.9605H39.9584H39.9563H39.9542H39.952H39.9499H39.9478H39.9457H39.9436H39.9414H39.9393H39.9372H39.9351H39.9329H39.9308H39.9287H39.9266H39.9245H39.9223H39.9202H39.9181H39.916H39.9138H39.9117H39.9096H39.9075H39.9054H39.9032H39.9011H39.899H39.8969H39.8329H39.7689H39.7048H39.6408H39.5768H39.5128H39.4488H39.3848H39.3208H39.2568H39.1928H39.1288H39.0648H39.0008H38.9368H38.8727H38.8087H38.7447H38.6807H38.6167H38.5527H38.4887H38.4247H38.3607H38.2967H38.2327H38.1686H38.1046H38.0406H37.9766H37.9126H37.8486H37.7846H37.7206H37.6566H37.5926H37.5286H37.4645H37.4005H37.3365H37.2725H37.2085H37.1445H37.0805H37.0165H36.9525H36.8885H36.8245H36.7604H36.6964H36.6324H36.5684H36.5044H36.4404H36.3764H36.3124H36.2484H36.1844H36.1203H36.0563H35.9923H35.9283H35.8643H35.8003H35.7363H35.6723H35.6083H35.5443H35.4802H35.4162H35.3522H35.2882H35.2242H35.1602H35.0962H35.0322H34.9682H34.9042H34.8401H34.7761H34.7121H34.6481H34.5841H34.5201H34.4561H34.3921H34.3281H34.264H34.2H34.136H34.072H34.008H33.944H33.88H33.816H33.752H33.688H33.6239H33.5599H33.4959H33.4319H33.3679H33.3039H33.2399H33.1759H33.1119H33.0478H32.9838H32.9198H32.8558H32.7918H32.7278H32.6638H32.5998H32.5357H32.4717H32.4077H32.3437H32.2797H32.2157H32.1517H32.0877H32.0237H31.9596H31.8956H31.8316H31.7676H31.7036H31.6396H31.5756H31.5116H31.4476H31.3835H31.3195H31.2555H31.1915H31.1275H31.0635H30.9995H30.9355H30.8714H30.8074H30.7434H30.6794H30.6154H30.5514H30.4874H30.4234H30.3594H30.2953H30.2313H30.1673H30.1033H30.0393H29.9753H29.9113H29.8473H29.7832H29.7192H29.6552H29.5912H29.5272H29.4632H29.3992H29.3352H29.2711H29.2071H29.1431H29.0791H29.0151H28.9511H28.8871H28.8231H28.759H28.695H28.631H28.567H28.503H28.439H28.375H28.311H28.2469H28.1829H28.1189H28.0549H27.9909H27.9269H27.8629H27.7989H27.7348H27.6708H27.6068H27.5428H27.4788H27.4148H27.3508H27.2868H27.2227H27.1587H27.0947H27.0307H26.9667H26.9027H26.8387H26.7747H26.7106H26.6466H26.5826H26.5186H26.4546H26.3906H26.3266H26.2626H26.1985H26.1345H26.0705H26.0065H25.9425H25.8785H25.8145H25.7505H25.6864H25.6224H25.5584H25.4944H25.4304H25.3664H25.3024H25.2383H25.1743H25.1103H25.0463H24.9823H24.9183H24.8543H24.7903H24.7262H24.6622H24.5982H24.5342H24.4702H24.4062H24.3422H24.2782H24.2141H24.1501H24.0861H24.0221H23.9581H23.8941H23.8301H23.7661H23.702H23.638H23.574H23.51H23.446H23.382H23.318H23.254H23.1899H23.1259H23.0619H22.9979H22.9339H22.8699H22.8059H22.7418H22.6778H22.6138H22.5498H22.4858H22.4218H22.3578H22.2938H22.2297H22.1657H22.1017H22.0377H21.9737H21.9097H21.8457H21.7817H21.7176H21.6536H21.5896H21.5256H21.4616H21.3976H21.3336H21.2696H21.2055H21.1415H21.0775H21.0135H20.9495H20.8855H20.8215H20.7574H20.6934H20.6294H20.5654H20.5014H20.4374H20.3734H20.3094H20.2453H20.1813H20.1173H20.0533H19.9893H19.9253H19.8613H19.7973H19.7332H19.6692H19.6052H19.5412H19.4772H19.4132H19.3492H19.2852H19.2211H19.1571H19.0931H19.0291H18.9651H18.9011H18.8371H18.7731H18.709H18.645H18.581H18.517H18.453H18.389H18.325H18.261H18.1969H18.1329H18.0689H18.0049H17.9409H17.8769H17.8129H17.7489H17.6848H17.6208H17.5568H17.4928H17.4288H17.3648H17.3008H17.2368H17.1727H17.1087H17.0447H16.9807H16.9167H16.8527H16.7887H16.7247H16.6607H16.5966H16.5326H16.4686H16.4046H16.3406H16.2766H16.2126H16.1486H16.0845H16.0205H15.9565H15.8925H15.8285H15.7645H15.7005H15.6365H15.5725H15.5084H15.4444H15.3804H15.3164H15.2524H15.1884H15.1244H15.0604H14.9963H14.9323H14.8683H14.8043H14.7403H14.6763H14.6123H14.5483H14.4843H14.4202H14.3562H14.2922H14.2282H14.1642H14.1002H14.0362H13.9722H13.9082H13.8441H13.7801H13.7161H13.6521H13.5881H13.5241H13.4601H13.3961H13.3321H13.268H13.204H13.14H13.076H13.012H12.948H12.884H12.82H12.756H12.6919H12.6279H12.5639H12.4999H12.4359H12.3719H12.3079H12.2439H12.1799H12.1159H12.0518H11.9878H11.9238H11.8598H11.7958H11.7318H11.6678H11.6038H11.5398H11.4757H11.4117H11.3477H11.2837H11.2197H11.1557H11.0917H11.0277H10.9637H10.8997H10.8356H10.7716H10.7076H10.6436H10.5796H10.5156H10.4516H10.3876H10.3236H10.2596H10.1955H10.1315H10.0675H10.0035H9.93951H9.8755H9.81149H9.74748H9.68347H9.61946H9.55546H9.49145H9.42744H9.36343H9.29942H9.23541H9.1714H9.10739H9.04338H8.97937H8.91536H8.85136H8.78735H8.72334H8.65933H8.59532H8.53131H8.4673H8.40329H8.33929H8.27528H8.21127H8.14726H8.08325H8.01924H7.95524H7.89123H7.82722H7.76321H7.6992H7.63519H7.57119H7.50718H7.44317H7.37916H7.31515H7.25115H7.18714H7.12313C6.68963 93.0028 6.29088 93.1099 6.0025 93.3942C5.71319 93.6794 5.6029 94.0758 5.60223 94.5071V94.5077V94.5183V94.5288V94.5394V94.5499V94.5605V94.571V94.5816V94.5921V94.6027V94.6132V94.6238V94.6343V94.6448V94.6554V94.6659V94.6765V94.687V94.6976V94.7081V94.7187V94.7292V94.7398V94.7503V94.7609V94.7714V94.7819V94.7925V94.803V94.8136V94.8241V94.8347V94.8452V94.8558V94.8663V94.8769V94.8874V94.898V94.9085V94.9191V94.9296V94.9402V94.9507V94.9613V94.9718V94.9824V94.9929V95.0035V95.014V95.0246V95.0351V95.0457V95.0562V95.0668V95.0773V95.0879V95.0984V95.109V95.1195V95.1301V95.1406V95.1512V95.1617V95.1723V95.1828V95.1934V95.2039V95.2145V95.225V95.2356V95.2461V95.2567V95.2673V95.2778V95.2884V95.2989V95.3095V95.32V95.3306V95.3411V95.3517V95.3622V95.3728V95.3834V95.3939V95.4045V95.415V95.4256V95.4361V95.4467V95.4573V95.4678V95.4784V95.4889V95.4995V95.5101V95.5206V95.5312V95.5417V95.5523V95.5629V95.5734V95.584V95.5945V95.6051V95.6157V95.6262V95.6368V95.6474V95.6579V95.6685V95.6791V95.6896V95.7002V95.7108V95.7213V95.7319V95.7425V95.753V95.7636V95.7742V95.7847V95.7953V95.8059V95.8164V95.827V95.8376V95.8481V95.8587V95.8693V95.8799V95.8904V95.901V95.9116V95.9222V95.9327V95.9433V95.9539V95.9644V95.975V95.9856V95.9962V96.0068V96.0173V96.0279V96.0385V96.0491V96.0596V96.0702V96.0808V96.0914V96.102V96.1125V96.1231V96.1337V96.1443V96.1549V96.1655V96.176V96.1866V96.1972V96.2078V96.2184V96.229V96.2396V96.2501V96.2607V96.2713V96.2819V96.2925V96.3031V96.3137V96.3243V96.3349V96.3455V96.3561V96.3666V96.3772V96.3878V96.3984V96.409V96.4196V96.4302V96.4408V96.4514V96.462V96.4726V96.4832V96.4938V96.5044V96.515V96.5256V96.5362V96.5468V96.5574V96.568V96.5786V96.5892V96.5998V96.6104V96.6211V96.6317V96.6423V96.6529V96.6635V96.6741V96.6847V96.6953V96.7059V96.7165V96.7272V96.7378V96.7484V96.759V96.7696V96.7802V96.7909V96.8015V96.8121V96.8227V96.8333V96.844V96.8546V96.8652V96.8758V96.8864V96.8971V96.9077V96.9183V96.9289V96.9396V96.9502V96.9608V96.9715V96.9821V96.9927V97.0033V97.014V97.0246V97.0352V97.0459V97.0565V97.0671V97.0778V97.0884V97.0991V97.1097V97.1203V97.131V97.1416V97.1523V97.1629V97.1735V97.1842V97.1948V97.2055V97.2161V97.2268V97.2374V97.2481V97.2587V97.2694V97.28V97.2907V97.3013V97.312V97.3226V97.3333V97.3439V97.3546V97.3653V97.3759V97.3866V97.3972V97.4079V97.4186V97.4292V97.4399V97.4505V97.4612V97.4719V97.4825V97.4932V97.5039V97.5146V97.5252V97.5359V97.5466V97.5572V97.5679V97.5786V97.5893V97.5999V97.6106V97.6213V97.632V97.6427V97.6533V97.664V97.6747V97.6854V97.6961V97.7068V97.7174V97.7281V97.7388V97.7495V97.7602V97.7709V97.7816V97.7923V97.803V97.8137V97.8244V97.8351V97.8457V97.8564V97.8671V97.8778V97.8885V97.8993V97.91V97.9207V97.9314V97.9421V97.9528V97.9635V97.9742V97.9849V97.9956V98.0063V98.017V98.0278V98.0385V98.0492V98.0599V98.0706V98.0814V98.0921V98.1028V98.1135V98.1242V98.135V98.1457V98.1564V98.1671V98.1779V98.1886V98.1993V98.2101V98.2208V98.2315V98.2423V98.253V98.2638V98.2745V98.2852V98.296V98.3067V98.3175V98.3282V98.3389V98.3497V98.3604V98.3712V98.3819V98.3927V98.4034V98.4142V98.4249V98.4357V98.4465V98.4572V98.468V98.4787V98.4895V98.5003V98.511V98.5218V98.5326V98.5433V98.5541V98.5649V98.5756V98.5864V98.5972V98.608V98.6187V98.6295V98.6403V98.6511V98.6618V98.6726V98.6834V98.6942V98.705V98.7158V98.7265V98.7373V98.7481V98.7589V98.7697V98.7805V98.7913V98.8021V98.8129V98.8237V98.8345V98.8453V98.8561V98.8669V98.8777V98.8885V98.8993V98.9101V98.9209V98.9317V98.9425V98.9534V98.9642V98.975V98.9858V98.9966V99.0075V99.0183V99.0291V99.0399V99.0507V99.0616V99.0724V99.0832V99.0941V99.1049V99.1157V99.1266V99.1374V99.1482V99.1591V99.1699V99.1807V99.1916V99.2024V99.2133V99.2241V99.235V99.2458V99.2567V99.2675V99.2784V99.2892V99.3001V99.3109V99.3218V99.3327V99.3435V99.3544V99.3653V99.3761V99.387V99.3979V99.4087V99.4196V99.4305V99.4413V99.4522V99.4631V99.474V99.4849V99.4957V99.5066V99.5175V99.5284V99.5393V99.5502V99.5611V99.5719ZM6.05716 75.9992H5.65716V76.3992V87.5639V87.9639H6.05716H34.9876H35.3876V87.5639V76.3992V75.9992H34.9876H6.05716Z" fill="#1C54AD" stroke="#F4F6F9" stroke-width="0.8"/>
<path d="M0.441016 64.1396V59.3084H99.5998V64.1396H0.441016Z" fill="#1C54AD" stroke="#F4F6F9" stroke-width="0.8"/>
</g>
<defs>
<clipPath id="clip0_3133_2481">
<rect width="100" height="100" fill="white"/>
</clipPath>
</defs>
</svg>
