<svg width="116" height="90" viewBox="0 0 116 90" fill="none" xmlns="http://www.w3.org/2000/svg">
<g clip-path="url(#clip0_3133_2488)">
<path d="M31.7303 70.8789C34.4334 70.8301 36.4122 71.738 38.1981 73.1244C38.7646 73.564 39.2729 74.0989 39.7298 74.655C40.049 75.0441 40.258 75.533 40.4756 75.9961C40.7184 76.5121 40.9028 77.0555 41.1347 77.5772C41.4088 78.193 41.9188 78.4925 42.5676 78.5643C42.7938 78.5895 43.0239 78.5798 43.2518 78.578C47.0576 78.5459 50.8629 78.5252 54.6682 78.4707C55.558 78.4581 56.4506 78.3668 57.333 78.2452C58.2102 78.1241 58.9452 77.673 59.526 77.0062C59.9263 76.5471 60.329 76.0776 60.6471 75.5611C63.51 70.9087 66.6928 66.4715 69.7019 61.9177C70.2593 61.0741 70.7533 60.188 71.3136 59.3467C71.6934 58.7769 72.0983 58.2139 72.5609 57.7117C73.6454 56.533 75.0121 55.8696 76.59 55.6343C78.1549 55.4007 79.7305 55.3054 81.3091 55.306C84.0487 55.306 86.7888 55.3542 89.5284 55.3646C90.5164 55.3686 91.505 55.3118 92.493 55.2997C93.806 55.2836 95.119 55.2831 96.4314 55.2773C97.1784 55.2739 97.1612 55.2681 97.4691 54.5651C97.7666 53.8851 98.0367 53.1786 98.4354 52.56C99.9459 50.2157 102.049 48.6542 104.774 48.035C106.185 47.7142 107.606 47.8226 108.996 48.2622C111.344 49.0037 113.189 50.4544 114.504 52.494C116.233 55.1758 116.428 58.0779 115.27 61.0489C115.059 61.5923 114.728 62.1042 114.378 62.5748C112.745 64.7693 110.723 66.3934 107.955 66.899C106.914 67.0889 105.897 67.0987 104.847 66.8766C103.474 66.5862 102.278 65.9412 101.125 65.2049C99.3166 64.0508 98.2144 62.3326 97.4759 60.3516C97.416 60.1909 97.364 60.0268 97.3063 59.8649C97.0779 59.2245 97.0065 59.1671 96.3074 59.1774C95.5656 59.1883 94.8237 59.2434 94.0824 59.236C90.9625 59.2038 87.8431 59.1378 84.7231 59.1195C82.4022 59.1057 80.0812 59.1418 77.7597 59.1677C77.4387 59.1711 77.1137 59.2193 76.7985 59.2847C76.1429 59.4213 75.6226 59.7421 75.2348 60.3304C71.6294 65.7948 68.008 71.2484 64.3895 76.7049C64.0943 77.1502 63.7876 77.5881 63.4872 78.03C62.8487 78.97 62.0537 79.7384 61.1553 80.4426C59.7499 81.545 58.1719 82.0856 56.4317 82.2256C55.542 82.2974 54.6476 82.3513 53.7555 82.3542C50.1022 82.3645 46.4483 82.3524 42.7949 82.349C42.6236 82.349 42.4522 82.3467 42.2809 82.3519C41.6373 82.3714 41.5585 82.4248 41.3454 83.052C40.6955 84.9642 39.6001 86.5699 38.0365 87.8376C35.4419 89.9403 32.5578 90.5412 29.3745 89.4416C25.6269 88.1475 23.5686 85.3906 22.8445 81.588C22.4596 79.5668 22.9067 77.6248 23.9604 75.8584C25.2357 73.7201 27.0552 72.212 29.3688 71.3075C30.2523 70.9621 31.1723 70.8605 31.7286 70.8794L31.7303 70.8789ZM26.4956 80.0816C26.5344 82.6319 27.4065 84.427 29.4659 85.5266C30.4647 86.0597 31.5458 86.2468 32.6663 86.1642C34.7029 86.0138 36.2923 85.1105 37.298 83.2873C37.8971 82.201 38.0839 81.0084 37.9691 79.7918C37.7543 77.5112 36.6515 75.8182 34.4762 74.9896C32.6412 74.2906 30.8388 74.5827 29.1381 75.4779C27.8599 76.1505 27.0524 77.2409 26.7166 78.6532C26.5852 79.2064 26.5401 79.7803 26.495 80.0816H26.4956ZM112.221 57.4598C112.227 54.7356 110.614 52.5181 108.108 51.8736C106.664 51.5023 105.244 51.6418 103.872 52.2398C102.442 52.863 101.502 53.9339 101.036 55.4179C100.562 56.9307 100.617 58.4383 101.224 59.9011C101.842 61.3892 102.911 62.4221 104.453 62.926C105.164 63.1584 105.899 63.2284 106.646 63.2066C109.875 63.1137 112.213 60.7062 112.22 57.4598H112.221Z" fill="#1C54AD"/>
<path d="M12.2789 9.56773C12.3514 6.30178 13.6598 3.94255 15.9448 2.09408C17.2115 1.06913 18.6519 0.371867 20.2675 0.155514C21.7301 -0.0401794 23.2007 0.025243 24.5965 0.576169C26.4526 1.30959 28.0711 2.39652 29.2658 4.03036C29.5754 4.45331 29.8341 4.9434 29.9911 5.4421C30.2065 6.12502 30.6308 6.65012 31.0465 7.19359C31.2487 7.45757 31.5417 7.43806 31.829 7.43921C33.4081 7.4438 34.9889 7.41051 36.5663 7.46733C38.4024 7.53275 40.2036 7.81912 41.8222 8.77922C43.1323 9.55568 44.2408 10.5439 45.0632 11.8581C48.7377 17.7323 52.4293 23.5951 56.1181 29.4602C56.3716 29.8636 56.6412 30.259 56.9285 30.6389C57.9039 31.929 59.2226 32.5574 60.8183 32.5815C63.4054 32.6205 65.993 32.6372 68.5807 32.6567C69.6464 32.6647 70.7121 32.6647 71.7778 32.6527C72.4048 32.6458 73.0319 32.6177 73.6578 32.5821C74.2449 32.5482 74.4254 32.3967 74.5996 31.8481C75.5693 28.795 78.1896 26.1799 81.2061 25.3139C83.5083 24.6533 85.7127 24.9667 87.8292 26.0743C89.9555 27.187 91.4803 28.8473 92.4398 31.0464C93.2833 32.9803 93.4398 34.947 92.759 36.9654C91.6345 40.2996 89.4837 42.6147 86.0994 43.6545C82.2535 44.8361 77.3409 42.905 75.3786 38.9148C75.1176 38.384 74.8492 37.8543 74.6327 37.3045C74.398 36.7088 73.9811 36.4552 73.3649 36.4391C72.338 36.4127 71.3117 36.3393 70.2849 36.3364C68.2489 36.3301 66.2129 36.3553 64.1769 36.3731C62.5595 36.3875 60.9422 36.3978 59.3437 36.0925C58.1381 35.8618 56.9941 35.4675 55.9576 34.7909C55.1832 34.2859 54.4973 33.6822 53.9861 32.9057C52.4544 30.5781 50.9073 28.2602 49.4167 25.9061C47.2419 22.4714 45.114 19.0069 42.9587 15.5596C42.5743 14.945 42.1494 14.3562 41.7531 13.7485C40.7222 12.168 39.2413 11.3852 37.391 11.3382C35.5651 11.2917 33.7382 11.3163 31.9118 11.3077C31.4006 11.3054 31.042 11.512 30.8627 12.0159C30.7416 12.3574 30.5845 12.6856 30.4486 13.0219C29.2242 16.0428 27.0197 17.9527 23.9214 18.8646C20.9471 19.7403 18.3326 18.949 15.9448 17.1355C14.0248 15.6773 13.031 13.6497 12.5376 11.3422C12.3948 10.673 12.3377 9.98552 12.2783 9.56831L12.2789 9.56773ZM27.404 9.29629C27.4235 8.7907 27.287 7.95054 26.9489 7.14481C25.4606 3.59822 20.5725 2.83726 17.7615 5.26305C15.7461 7.00306 15.4742 10.1709 16.5405 12.3763C18.1036 15.6095 22.6302 16.4055 25.4109 14.1553C26.8312 13.0064 27.3943 11.4535 27.404 9.29571V9.29629ZM83.6733 28.6745C83.671 28.6877 83.6687 28.7015 83.6665 28.7147C83.458 28.7244 83.249 28.7325 83.0405 28.744C80.8269 28.8616 78.8983 30.3124 78.2181 32.4248C77.6002 34.3439 77.715 36.2015 78.9 37.8922C80.2935 39.8807 82.6887 40.718 85.217 40.0947C86.9126 39.677 88.1411 38.679 88.8447 37.0652C89.4535 35.669 89.5591 34.2228 89.1462 32.7571C88.5837 30.7606 87.3101 29.451 85.3009 28.9201C84.7733 28.7807 84.2164 28.7531 83.6733 28.6745Z" fill="#1C54AD"/>
<path d="M-0.00023981 55.1235C0.0197489 53.0461 0.66624 51.2154 2.02947 49.651C3.60172 47.8473 5.51949 46.6026 7.86331 46.078C9.43441 45.7262 10.9587 45.9914 12.4556 46.5119C13.5669 46.8981 14.5007 47.546 15.4213 48.2806C16.9479 49.4989 17.8394 51.0943 18.5098 52.8699C18.8656 53.8122 18.7731 53.6607 19.6932 53.6607C24.1249 53.663 28.5567 53.659 32.9885 53.6647C36.0896 53.6688 39.1907 53.686 42.2918 53.694C43.7898 53.698 43.8109 53.6441 44.3832 52.2765C45.7219 49.0748 48.0166 46.9354 51.4346 46.1836C53.9064 45.6402 56.2005 46.241 58.2753 47.635C60.5209 49.1443 61.9801 51.2263 62.5283 53.9115C62.9749 56.0974 62.5261 58.1376 61.421 60.0274C59.8784 62.6661 57.6505 64.4095 54.6065 64.9398C52.6094 65.2875 50.715 64.8847 48.9315 63.9206C46.7476 62.7407 45.1924 61.0081 44.3078 58.6747C44.281 58.6036 44.2564 58.5307 44.2278 58.4601C43.8778 57.5964 43.5979 57.4059 42.6813 57.4082C35.0707 57.4231 27.4602 57.4374 19.8491 57.4552C19.6612 57.4552 19.4739 57.496 19.286 57.5172C18.8559 57.5654 18.6121 57.8196 18.4819 58.2225C18.0707 59.4959 17.3682 60.6058 16.5315 61.6314C14.6069 63.9906 12.1089 65.0838 9.08376 65.062C7.28306 65.0488 5.68454 64.5082 4.2682 63.4075C3.72679 62.9869 3.17682 62.5725 2.67653 62.1065C1.21564 60.7453 0.536028 58.9812 0.207071 57.0587C0.0979903 56.4205 0.0654373 55.7692 -0.00195312 55.1241L-0.00023981 55.1235ZM53.1674 61.2601C53.3958 61.2601 53.6254 61.2796 53.8515 61.2572C55.9412 61.0466 57.5363 60.0802 58.3992 58.1077C59.1502 56.3924 59.1166 54.6403 58.3661 52.9325C57.5866 51.158 56.2193 50.0992 54.2999 49.8002C53.5603 49.6849 52.8161 49.7205 52.0863 49.876C49.8224 50.3575 48.2027 51.589 47.6019 53.9201C47.2901 55.1299 47.3678 56.3494 47.7516 57.5379C48.2987 59.2314 49.4186 60.3763 51.0914 60.9691C51.763 61.2073 52.4575 61.2962 53.1668 61.2601H53.1674ZM3.65312 55.5344C3.6634 55.7634 3.66568 55.993 3.6851 56.2208C3.88327 58.5186 5.43782 60.4486 7.59945 61.0776C8.43098 61.3197 9.2785 61.357 10.1369 61.2675C11.4241 61.1332 12.5686 60.6747 13.5058 59.7622C14.7948 58.5077 15.2511 56.9428 15.162 55.1798C14.9964 51.892 12.5304 49.6206 9.2608 49.7486C5.96781 49.8771 3.65826 52.2633 3.65312 55.5339V55.5344Z" fill="#1C54AD"/>
<path d="M77.6261 15.3266C76.123 15.3266 74.6198 15.3209 73.1172 15.3324C72.8557 15.3341 72.5855 15.3777 72.3354 15.4557C71.9528 15.5751 71.7911 15.9177 71.6729 16.2661C71.3577 17.1946 70.9442 18.0755 70.3697 18.8686C68.3868 21.6049 65.7254 23.1044 62.3353 22.977C59.2023 22.8594 56.7728 21.3082 54.9709 18.7705C53.6037 16.844 53.0275 14.685 53.2988 12.3224C53.353 11.8512 53.449 11.3749 53.6009 10.9261C54.871 7.17005 57.4581 4.83378 61.3114 4.06823C64.5769 3.41974 68.678 4.89404 70.7563 8.55942C71.0841 9.13732 71.3514 9.75481 71.5981 10.3735C71.9413 11.2337 72.0744 11.5321 73.2988 11.5556C74.8585 11.5861 76.4188 11.5625 77.9791 11.562C79.5393 11.5614 81.099 11.5568 82.6593 11.5608C83.4639 11.5631 83.7215 11.8064 83.7209 12.6202C83.7209 13.1723 83.6907 13.7295 83.6153 14.2758C83.5205 14.9679 83.1658 15.2899 82.4759 15.3266C81.7741 15.3639 81.0687 15.3553 80.3651 15.3588C79.4519 15.3633 78.5387 15.3599 77.6255 15.3599V15.3266H77.6261ZM62.8922 19.2543C64.2326 19.2101 65.6877 18.8107 66.8448 17.6405C68.6592 15.8058 68.9956 12.7269 67.6346 10.3654C66.8265 8.96286 65.6209 8.09228 64.0372 7.79329C62.5935 7.52069 61.192 7.71524 59.8767 8.37348C58.4141 9.1046 57.4792 10.2805 57.1097 11.8891C56.951 12.5806 56.9207 13.2773 56.9824 13.9912C57.2542 17.1493 59.5169 19.2663 62.8922 19.2548V19.2543Z" fill="#1C54AD"/>
<path d="M81.9732 70.9638C83.9847 70.8582 86.0001 71.8177 87.8265 73.1876C89.0321 74.092 89.8351 75.3689 90.4353 76.7514C90.8397 77.6822 91.0824 78.6664 91.2303 79.6713C91.3668 80.5993 91.1863 81.4939 90.9345 82.3829C90.308 84.5912 89.1914 86.485 87.3959 87.9358C84.1503 90.5578 79.7579 90.6531 76.3998 88.1791C73.6528 86.155 72.2188 83.4526 72.2405 80.0024C72.2468 78.9941 72.49 78.038 72.8784 77.1221C73.7356 75.0998 75.0709 73.4676 76.9161 72.2745C78.4107 71.3081 79.823 70.9208 81.9732 70.9638ZM82.3233 86.1602C83.8202 86.1056 85.6255 85.3263 86.7631 83.3837C87.6529 81.8635 87.6752 80.2153 87.212 78.5557C86.7637 76.9494 85.7534 75.8005 84.2331 75.1411C82.8008 74.5196 81.3085 74.4478 79.8259 74.9155C77.8544 75.5376 76.6003 76.8765 76.1457 78.9201C75.9881 79.63 75.9721 80.3496 76.0503 81.083C76.3753 84.1303 78.5917 86.1573 82.3233 86.1602Z" fill="#1C54AD"/>
<path d="M43.6004 32.5769C43.5907 37.6041 39.3896 42.0982 34.1355 42.0815C29.1286 42.0655 24.8247 37.7637 24.6928 32.8415C24.5409 27.179 29.5803 23.0717 34.2354 23.0809C39.4433 23.0912 43.5918 27.6174 43.6004 32.5769ZM33.8151 26.8008C32.7985 26.8347 31.3542 27.1905 30.1954 28.2717C28.5272 29.828 28.0469 31.7769 28.5363 33.9663C28.9487 35.8102 30.0104 37.1737 31.7608 37.9278C32.8322 38.3892 33.9624 38.4512 35.1132 38.3083C37.3302 38.034 39.0355 36.5975 39.6512 34.438C39.899 33.5686 39.9573 32.6848 39.8402 31.7769C39.5136 29.2444 37.6375 26.7606 33.8145 26.8008H33.8151Z" fill="#1C54AD"/>
<path d="M48.8342 1.93169C48.8342 1.51161 48.8274 1.09096 48.836 0.670879C48.8457 0.220382 48.9279 0.10618 49.3511 0.0837988C50.2043 0.0378883 51.0587 0.00804653 51.9125 0.000586077C52.4568 -0.00400497 52.6646 0.226121 52.6801 0.768439C52.6995 1.47489 52.7121 2.18133 52.7338 2.88778C52.7537 3.55119 52.4967 3.90011 51.8206 3.95176C51.2175 3.99767 50.6064 3.95462 49.9993 3.93741C49.7726 3.9311 49.5464 3.88805 49.3197 3.86051C48.941 3.8146 48.8554 3.74745 48.8388 3.36468C48.8183 2.88778 48.8337 2.40974 48.8337 1.93227L48.8342 1.93169Z" fill="#1C54AD"/>
<path d="M89.398 11.5654C89.8532 11.5654 90.309 11.5499 90.7636 11.57C91.201 11.589 91.3015 11.6727 91.2381 12.0854C91.1319 12.7763 91.2279 13.4535 91.2787 14.1358C91.2913 14.3063 91.2935 14.4796 91.2764 14.6495C91.2279 15.1315 90.944 15.4363 90.4649 15.4311C89.7647 15.4231 89.0639 15.3737 88.3661 15.3123C87.9994 15.2802 87.727 15.0495 87.6025 14.7057C87.5071 14.4417 87.4431 14.1542 87.43 13.8747C87.4043 13.3232 87.4174 12.7694 87.4272 12.2168C87.4351 11.7428 87.5528 11.609 88.0325 11.5838C88.4866 11.5597 88.9429 11.5786 89.398 11.5786C89.398 11.5746 89.398 11.57 89.398 11.566V11.5654Z" fill="#1C54AD"/>
<path d="M47.5168 86.1493C47.8389 86.1493 48.1622 86.1372 48.4837 86.1521C48.9503 86.1734 49.2256 86.3891 49.3318 86.8454C49.3918 87.1025 49.4038 87.3733 49.4112 87.639C49.426 88.151 49.4181 88.6634 49.4272 89.1759C49.4363 89.674 49.1999 89.9994 48.6922 90C47.8795 90.0006 47.064 89.9518 46.2547 89.8732C45.8172 89.8307 45.5768 89.557 45.554 89.099C45.5208 88.4344 45.5077 87.763 45.5637 87.1013C45.6208 86.4201 45.9206 86.182 46.6076 86.1452C46.9098 86.1292 47.2142 86.1424 47.5174 86.1424C47.5174 86.1447 47.5174 86.147 47.5174 86.1493H47.5168Z" fill="#1C54AD"/>
<path d="M22.8433 49.7073C22.6811 48.6806 22.6657 47.6763 22.8159 46.6737C22.8742 46.2858 23.1414 46.0241 23.5641 46.0092C24.2825 45.9845 25.005 46.0046 25.7234 46.047C26.1529 46.0723 26.4327 46.3455 26.4544 46.7862C26.495 47.6034 26.5344 48.4241 26.5087 49.2407C26.4933 49.7348 26.3014 49.857 25.8108 49.8433C24.9187 49.818 24.0272 49.7824 23.1357 49.7486C23.0449 49.7451 22.9547 49.7233 22.8433 49.7073Z" fill="#1C54AD"/>
<path d="M35.6128 3.85821C35.233 3.85821 34.8526 3.87657 34.4746 3.85362C33.9314 3.82033 33.6944 3.61603 33.6693 3.08863C33.6345 2.34661 33.6362 1.60056 33.6602 0.85796C33.675 0.389099 33.9566 0.115358 34.4214 0.0998636C35.1228 0.0763345 35.8264 0.0677263 36.5271 0.0969942C37.0982 0.121097 37.3466 0.32999 37.378 0.889524C37.4226 1.68435 37.4157 2.48606 37.3626 3.28031C37.3295 3.77327 37.193 3.84673 36.6944 3.86567C36.3341 3.87944 35.9731 3.86854 35.6128 3.86854C35.6128 3.8651 35.6128 3.86223 35.6128 3.85878V3.85821Z" fill="#1C54AD"/>
<path d="M96.9826 15.3283C96.6029 15.3283 96.2219 15.349 95.8444 15.3232C95.383 15.2916 95.1431 15.112 95.1191 14.6724C95.0752 13.8546 95.0757 13.0328 95.1088 12.2145C95.1237 11.8449 95.4247 11.5918 95.8027 11.5792C96.5229 11.5545 97.2454 11.5413 97.9649 11.5746C98.5458 11.6016 98.7988 11.8374 98.8462 12.4222C98.8998 13.0856 98.917 13.7588 98.8696 14.4216C98.8182 15.1407 98.5612 15.3324 97.8376 15.3479C97.5526 15.3542 97.2682 15.349 96.9832 15.349C96.9832 15.3421 96.9832 15.3358 96.9832 15.3289L96.9826 15.3283Z" fill="#1C54AD"/>
<path d="M55.0912 89.9139C54.712 89.9139 54.3316 89.9346 53.9547 89.9088C53.4698 89.8761 53.2722 89.6964 53.2122 89.2098C53.166 88.8333 53.178 88.4494 53.174 88.0683C53.17 87.7062 53.1574 87.3424 53.1877 86.9825C53.2322 86.4529 53.4995 86.182 54.0272 86.1608C54.6897 86.1338 55.355 86.1263 56.0169 86.155C56.6897 86.1843 56.9541 86.4454 56.9655 87.1105C56.9787 87.8514 56.9507 88.5946 56.9056 89.3343C56.8799 89.7498 56.7622 89.8617 56.3407 89.8979C55.9267 89.9329 55.5075 89.9053 55.0906 89.9053C55.0906 89.9082 55.0906 89.9111 55.0906 89.9139H55.0912Z" fill="#1C54AD"/>
<path d="M62.6723 89.9237C62.3108 89.9237 61.9487 89.9403 61.5884 89.9191C61.1646 89.8944 61.019 89.7664 60.9145 89.3527C60.8682 89.1696 60.8545 88.9768 60.8419 88.7874C60.8111 88.3111 60.782 87.8336 60.7688 87.3567C60.7631 87.1484 60.7763 86.9349 60.8185 86.7317C60.8991 86.3427 61.0915 86.1648 61.4833 86.1556C62.1675 86.1389 62.8539 86.1257 63.5364 86.1607C64.3051 86.2003 64.6084 86.5148 64.6187 87.2729C64.6278 87.9214 64.6078 88.5722 64.5507 89.2178C64.5067 89.7154 64.3143 89.8778 63.8123 89.9133C63.4336 89.9397 63.0521 89.9185 62.6718 89.9185C62.6718 89.9202 62.6718 89.9219 62.6718 89.9237H62.6723Z" fill="#1C54AD"/>
<path d="M77.9167 49.9707C77.9167 50.3144 77.9224 50.6587 77.9156 51.0025C77.907 51.4237 77.7682 51.6102 77.3793 51.69C76.5061 51.8691 75.6397 51.8054 74.7808 51.5844C74.3816 51.4817 74.1583 51.2539 74.1674 50.8148C74.1805 50.1686 74.124 49.5167 74.1897 48.8768C74.2668 48.1279 74.5186 47.9403 75.2759 47.9259C75.8465 47.915 76.4181 47.919 76.9875 47.9477C77.6323 47.9804 77.8693 48.2364 77.8899 48.8809C77.9013 49.2435 77.8922 49.6074 77.8922 49.9707C77.9007 49.9707 77.9093 49.9707 77.9179 49.9707H77.9167Z" fill="#1C54AD"/>
<path d="M93.1208 49.5253C93.1208 49.9454 93.1471 50.3678 93.1145 50.785C93.0694 51.36 92.8301 51.6275 92.2619 51.6734C91.6765 51.721 91.0814 51.7302 90.496 51.6831C89.7953 51.6269 89.436 51.2315 89.3892 50.5285C89.3515 49.9575 89.3281 49.3819 89.3532 48.8109C89.3789 48.2278 89.5708 47.9787 90.1322 47.938C90.9814 47.876 91.8381 47.8852 92.6896 47.9133C93.0591 47.9254 93.1385 48.0642 93.1505 48.4367C93.1619 48.7994 93.1528 49.1626 93.1528 49.5259C93.1419 49.5259 93.1305 49.5259 93.1197 49.5259L93.1208 49.5253Z" fill="#1C54AD"/>
<path d="M39.845 49.7434C39.5223 49.7434 39.1991 49.7601 38.8776 49.74C38.303 49.7032 38.0375 49.468 38.0083 48.8895C37.9741 48.2048 37.9781 47.5156 38.0106 46.8304C38.0346 46.3334 38.2573 46.0746 38.7479 46.039C39.4652 45.9868 40.19 45.9914 40.9096 46.023C41.3299 46.0419 41.6389 46.3237 41.6731 46.7478C41.7354 47.5248 41.7714 48.3081 41.7451 49.0863C41.7274 49.6109 41.5532 49.7365 41.0369 49.8094C40.8319 49.8381 40.6206 49.8307 40.4121 49.8249C40.2225 49.8198 40.0335 49.7956 39.8444 49.7796C39.8444 49.7675 39.8444 49.7555 39.8444 49.7429L39.845 49.7434Z" fill="#1C54AD"/>
<path d="M32.3664 45.9558C32.6702 45.9719 32.9752 45.9747 33.2773 46.0074C33.7582 46.0591 33.9421 46.2238 34.0637 46.6984C34.2282 47.3394 34.1905 47.9873 34.1037 48.6341C33.9729 49.6045 33.9472 49.678 32.9632 49.7876C32.3493 49.8559 31.7176 49.7778 31.0951 49.7428C30.7759 49.725 30.5771 49.5127 30.4898 49.2137C30.2253 48.3064 30.3253 47.3934 30.5052 46.4918C30.5355 46.3409 30.7822 46.1647 30.9569 46.1245C31.4161 46.0195 31.8913 45.9828 32.3596 45.9185C32.3619 45.9311 32.3636 45.9432 32.3658 45.9558H32.3664Z" fill="#1C54AD"/>
<path d="M83.6826 51.7394C83.2291 51.6935 82.835 51.6412 82.4398 51.6166C82.0698 51.593 81.8704 51.3778 81.8476 51.0438C81.8013 50.3827 81.7408 49.7142 81.7945 49.0571C81.875 48.0694 81.9384 48.0224 82.927 47.9409C83.5255 47.8915 84.132 47.9328 84.7345 47.9368C85.116 47.9391 85.3302 48.1566 85.4067 48.5125C85.5843 49.3394 85.606 50.1698 85.4667 51.0077C85.4113 51.3394 85.2297 51.5276 84.923 51.5798C84.4958 51.6527 84.0635 51.6923 83.6831 51.7394H83.6826Z" fill="#1C54AD"/>
<path d="M44.5809 1.97299C44.5809 2.47284 44.6009 2.81717 44.5763 3.15806C44.5398 3.66307 44.3564 3.85245 43.871 3.8645C43.1714 3.88229 42.4684 3.90066 41.7711 3.85647C41.1828 3.81917 40.9921 3.64758 40.9338 3.04845C40.8664 2.35118 40.8476 1.64014 40.9013 0.942877C40.9515 0.289801 41.2125 0.107307 41.8824 0.0918123C42.4889 0.0780391 43.0966 0.0659876 43.702 0.09296C44.2028 0.115341 44.3867 0.273159 44.4712 0.765548C44.5483 1.21375 44.5558 1.67343 44.5809 1.97299Z" fill="#1C54AD"/>
</g>
<defs>
<clipPath id="clip0_3133_2488">
<rect width="116" height="90" fill="white"/>
</clipPath>
</defs>
</svg>
