<svg width="100" height="100" viewBox="0 0 100 100" fill="none" xmlns="http://www.w3.org/2000/svg">
<path d="M100 59.9856H0.176758V64.879H100V59.9856Z" fill="#1C54AD"/>
<path d="M0.176758 100H5.43317V93.1912H40.1012V71.9368H0.176758V100ZM5.43317 76.8301H34.8447V88.2979H5.43317V76.8301Z" fill="#1C54AD"/>
<path d="M48.0654 93.1912H70.7177V100H77.1739V93.1912H99.8262V71.9368H48.0654V93.1912ZM77.1739 76.8304H94.749V88.2979H77.1739V76.8304ZM53.3218 76.8304H70.7177V88.2979H53.3218V76.8304Z" fill="#1C54AD"/>
<path d="M53.1389 0H31.1484V51.8945H53.1389V0ZM47.8826 47.0011H36.4048V5.07262H47.8826V47.0011Z" fill="#1C54AD"/>
<path d="M66.5337 17.0778L78.0113 5.07262V52.0737H83.2678V16.0582L94.5662 5.07262V52.0737H99.8225V0H92.0555L83.2678 8.29788V0H75.5006L61.2773 14.7484V52.0737H66.5337V17.0778Z" fill="#1C54AD"/>
<path d="M16.7341 51.8945H21.9905V47.1801V0H14.2234L0 14.7484V47.0011V51.8945H5.25643H16.7341ZM5.43575 17.0778L16.9135 5.07262V47.0011H5.43575V17.0778Z" fill="#1C54AD"/>
</svg>
