<svg width="27" height="16" fill="none" xmlns="http://www.w3.org/2000/svg"><g clip-path="url(#clip0_3133_2131)"><path d="M10.272 8.293v-.449c0-1.29.007-2.58-.003-3.868-.005-.633-.175-1.219-.609-1.715a3.028 3.028 0 01-.35-.47C8.847.982 9.43.017 10.399.01c1.406-.013 2.812-.005 4.218-.004.175 0 .352-.01.523.018.656.104 1.027.504 1.098 1.17.019.18.029.363.03.544v5.406l.063.038c.258-.237.537-.459.772-.717.884-.972 1.592-2.064 2.212-3.207.386-.71.733-1.442 1.084-2.17.335-.694.889-1.067 1.676-1.078a108.52 108.52 0 013.018.001c.478.007.916.14 1.193.563.167.255.218.537.17.836-.117.699-.437 1.322-.778 1.935-.907 1.625-1.965 3.159-3.054 4.673-.047.065-.095.128-.137.195-.197.317-.19.354.074.622.596.603 1.2 1.199 1.784 1.813.766.806 1.511 1.631 2.11 2.566.241.376.442.768.523 1.213a1.272 1.272 0 01-.972 1.486 3.052 3.052 0 01-.685.08c-.912.01-1.824 0-2.736.005-.564.004-1.07-.16-1.468-.539-.564-.539-1.097-1.11-1.642-1.667-.718-.736-1.454-1.451-2.348-1.992a2.496 2.496 0 00-.58-.242c-.229-.068-.268-.034-.27.196-.004.847.01 1.695-.011 2.542a2.255 2.255 0 01-.159.829c-.23.532-.74.714-1.281.791-1.559.222-3.063-.007-4.513-.575-2.335-.914-4.147-2.46-5.608-4.416-1.177-1.576-2.228-3.227-3.106-4.98C.993 4.736.464 3.496.136 2.186.04 1.794-.059 1.396.043.985.161.508.464.208.945.084c.178-.047.369-.074.554-.075.943-.008 1.887-.007 2.83-.004.912.003 1.437.356 1.772 1.184.305.754.585 1.518.919 2.26.663 1.48 1.436 2.902 2.48 4.17.163.197.355.373.537.556.05.05.116.088.174.132l.06-.015zm4.834-3.957c0-.733 0-1.465-.002-2.198 0-.254-.01-.508-.011-.762-.002-.188-.086-.251-.288-.25-1.393.009-2.786.004-4.18.007-.1 0-.201.031-.301.048.048.088.08.188.146.26.693.761.964 1.664.965 2.66 0 1.199.002 2.397-.001 3.596-.001.242-.01.484-.034.725-.095 1.008-.976 1.415-1.825.818a5.072 5.072 0 01-.965-.903c-1.312-1.58-2.224-3.38-3.012-5.245-.227-.536-.429-1.083-.644-1.624-.095-.237-.277-.34-.54-.338-.968.004-1.936 0-2.905.003-.34.001-.386.065-.324.396.2 1.067.598 2.07 1.044 3.057.775 1.712 1.746 3.317 2.823 4.864.843 1.21 1.769 2.345 2.95 3.265 1.403 1.092 2.954 1.867 4.761 2.098a6.593 6.593 0 001.959-.02c.337-.058.386-.116.385-.443-.002-.563-.014-1.126-.008-1.69.005-.422.01-.847.055-1.268.046-.43.26-.78.717-.905a2.18 2.18 0 01.684-.062c.584.032 1.067.317 1.528.635.948.652 1.756 1.45 2.54 2.275.406.427.817.85 1.235 1.265a.85.85 0 00.6.267c1.012.004 2.023.001 3.036 0 .024 0 .05 0 .074-.004.257-.04.335-.125.233-.355a5.991 5.991 0 00-.535-.99c-.753-1.077-1.674-2.017-2.595-2.956-.396-.403-.81-.792-1.175-1.22-.401-.47-.442-1-.107-1.534.117-.186.244-.365.365-.549.876-1.323 1.766-2.638 2.623-3.973.384-.6.726-1.227.908-1.923.046-.173-.017-.22-.17-.226-.038-.002-.075-.004-.113-.004-.962 0-1.924.001-2.886-.001-.326 0-.528.153-.668.434-.445.892-.878 1.791-1.363 2.663-.608 1.094-1.316 2.129-2.18 3.053-.355.381-.735.746-1.233.958-.613.26-1.188.052-1.432-.546a1.93 1.93 0 01-.13-.688c-.012-.89-.004-1.78-.004-2.67z" fill="#E9EEF3"/></g><defs><clipPath id="clip0_3133_2131"><path fill="#fff" d="M0 0h27v16H0z"/></clipPath></defs></svg>