<svg width="24" height="21" fill="none" xmlns="http://www.w3.org/2000/svg"><g clip-path="url(#clip0_3133_2126)"><path d="M12.806 17.134c-.966.862-1.927 1.718-2.885 2.576a1.13 1.13 0 01-.894.306.902.902 0 01-.699-.395c-.393-.555-.535-1.201-.735-1.826-.488-1.52-.964-3.042-1.439-4.565-.05-.16-.134-.242-.298-.296a979.24 979.24 0 01-4.483-1.481c-.542-.18-1.006-.458-1.253-.98-.237-.506-.122-1.031.336-1.366.285-.208.611-.377.94-.514 2.477-1.033 4.959-2.056 7.44-3.078C13.12 3.751 17.406 1.99 21.692.23c.232-.095.482-.16.73-.204.888-.162 1.67.486 1.569 1.35-.093.798-.266 1.587-.422 2.376-.645 3.252-1.297 6.504-1.946 9.755-.41 2.051-.816 4.103-1.23 6.154-.155.763-.984 1.384-1.79 1.337a2.127 2.127 0 01-1.204-.424c-1.463-1.113-2.937-2.21-4.407-3.312-.057-.043-.117-.08-.187-.128zm-1.648-2.509c.587.415 1.166.806 1.724 1.223 1.738 1.298 3.467 2.608 5.202 3.911.526.395 1.161.164 1.286-.461l.712-3.579 2.61-13.1c.074-.369.15-.738.213-1.108.07-.42-.08-.544-.5-.42-.13.039-.258.084-.383.136C15.228 4.02 8.432 6.814 1.64 9.61c-.15.062-.285.152-.425.233-.163.095-.15.229-.022.318.18.127.375.251.584.321 1.475.497 2.957.977 4.433 1.47.183.062.313.04.474-.064 3.912-2.515 7.828-5.024 11.743-7.534.309-.198.616-.401.934-.585.266-.153.508-.113.689.084.182.198.192.437.024.673-.046.065-.102.123-.155.183-.771.87-1.543 1.741-2.314 2.614l-5.17 5.85-1.277 1.452zm5.424-7.763l-.027-.033c-.036.018-.075.033-.108.055-3.033 1.942-6.065 3.887-9.1 5.826-.156.099-.158.198-.109.35.336 1.053.663 2.109.995 3.162.225.717.454 1.433.687 2.169.034-.042.06-.06.064-.082.227-.988.449-1.977.68-2.964.11-.47.207-.92.572-1.32 1.621-1.78 3.2-3.594 4.793-5.396.519-.588 1.035-1.178 1.553-1.767zm-6.416 11.139l.051.017 1.714-1.533-1.213-.873L10.166 18z" fill="#E9EEF3"/></g><defs><clipPath id="clip0_3133_2126"><path fill="#fff" d="M0 0h24v21H0z"/></clipPath></defs></svg>