<svg width="24" height="24" fill="none" xmlns="http://www.w3.org/2000/svg"><path d="M12.5 21.56l-.006.004-.006.006a.75.75 0 01-.976 0h0a32.715 32.715 0 01-3.755-3.92C5.961 15.424 4.25 12.608 4.25 10a7.75 7.75 0 0115.5 0c0 2.608-1.699 5.424-3.489 7.65-1.782 2.22-3.605 3.794-3.76 3.91zm-.671-1.728l.17.16.172-.16c1.073-1.002 2.586-2.593 3.832-4.357 1.239-1.753 2.247-3.723 2.247-5.475a6.25 6.25 0 00-12.5 0c0 1.752 1.008 3.72 2.247 5.472 1.246 1.763 2.759 3.353 3.832 4.36zM9.917 6.882a3.75 3.75 0 114.166 6.236 3.75 3.75 0 01-4.166-6.236zm.833 4.989a2.25 2.25 0 102.5-3.742 2.25 2.25 0 00-2.5 3.742z" fill="#E9EEF3" stroke="#1C54AD" stroke-width=".5"/></svg>