<svg width="24" height="24" fill="none" xmlns="http://www.w3.org/2000/svg"><path d="M18.53 21.91h.38a3 3 0 002-.76 3 3 0 001-2.25l-3.38 3.01zm2.894-1.88a2.75 2.75 0 01-2.513 1.63h0-.365A18.75 18.75 0 012.259 5.418h0v-.002a2.75 2.75 0 012.75-3.126H8.01v0h.003a2.75 2.75 0 012.75 2.277c.03.236.071.472.123.698.103.456.236.903.399 1.341a1.75 1.75 0 01-.875 2.17l-.015.007-.014.009-.42.28-.192.128.112.201a12.44 12.44 0 002.041 2.715l.002.001a12.43 12.43 0 002.714 2.041l.23.129.116-.237.22-.45a1.75 1.75 0 012.169-.876c.437.166.886.3 1.342.4l.118.028c.172.042.382.094.583.098a2.75 2.75 0 012.244 2.652v2.999a2.75 2.75 0 01-.237 1.13zM20.19 19v-.002l-.02-3.116a1.25 1.25 0 00-.988-1.247l-.008-.001-.008-.002c-.267-.039-.53-.087-.791-.146a13.43 13.43 0 01-1.551-.452l-.219-.078-.094.213-.619 1.397a.751.751 0 01-.427.388h0l-.01.005a.75.75 0 01-.565.002 14.24 14.24 0 01-6.874-6.877.75.75 0 01.368-.997h0l1.4-.65.212-.098-.083-.217c-.186-.494-.336-1-.45-1.516h0v-.001c-.058-.26-.107-.524-.146-.791l-.001-.008-.002-.009a1.25 1.25 0 00-1.247-.987H5.071h0a1.25 1.25 0 00-.938.425h0l-.004.004a1.34 1.34 0 00-.307 1.008h0v.003A17.25 17.25 0 0018.75 20.248h.002a1.31 1.31 0 001.013-.309l.002-.001A1.251 1.251 0 0020.19 19z" fill="#E9EEF3" stroke="#1C54AD" stroke-width=".5"/></svg>