<svg width="125" height="42" fill="none" xmlns="http://www.w3.org/2000/svg"><path d="M20.615 40.825c-5.793 0-10.597-1.907-14.41-5.72C2.428 31.292.54 26.507.54 20.75s1.888-10.523 5.665-14.3C9.982 2.6 14.785.675 20.615.675c3.483 0 6.71.825 9.68 2.475 2.97 1.65 5.298 3.868 6.985 6.655L28.755 14.7c-.733-1.357-1.833-2.42-3.3-3.19-1.43-.807-3.043-1.21-4.84-1.21-3.043 0-5.537.972-7.48 2.915-1.87 1.943-2.805 4.455-2.805 7.535 0 3.153.935 5.683 2.805 7.59 1.907 1.907 4.4 2.86 7.48 2.86 1.797 0 3.41-.385 4.84-1.155 1.467-.807 2.567-1.907 3.3-3.3l8.525 4.95c-1.687 2.823-4.015 5.06-6.985 6.71-2.933 1.613-6.16 2.42-9.68 2.42zm43.916-4.29V41.1h-9.46v-4.565c-5.353-.66-9.551-2.365-12.595-5.115-3.007-2.787-4.51-6.343-4.51-10.67s1.503-7.865 4.51-10.615c3.044-2.787 7.242-4.51 12.595-5.17V.4h9.46v4.565c5.353.66 9.533 2.383 12.54 5.17 3.007 2.75 4.51 6.288 4.51 10.615s-1.503 7.883-4.51 10.67c-3.007 2.75-7.186 4.455-12.54 5.115zM47.811 20.75c0 3.813 2.42 6.068 7.26 6.765V13.82c-4.84.697-7.26 3.007-7.26 6.93zm16.72-6.93v13.695c4.84-.697 7.26-2.952 7.26-6.765 0-3.923-2.42-6.233-7.26-6.93zm54.176 21.23c-3.924 3.85-8.69 5.775-14.3 5.775-5.684 0-10.469-1.925-14.355-5.775-3.887-3.887-5.83-8.653-5.83-14.3s1.943-10.395 5.83-14.245c3.886-3.887 8.671-5.83 14.355-5.83 5.646 0 10.413 1.943 14.3 5.83 3.923 3.85 5.885 8.598 5.885 14.245 0 5.61-1.962 10.377-5.885 14.3zm-21.725-6.765c2.016 1.943 4.491 2.915 7.425 2.915 2.933 0 5.408-.972 7.425-2.915 1.98-1.98 2.97-4.492 2.97-7.535 0-3.08-.99-5.573-2.97-7.48-1.98-1.98-4.455-2.97-7.425-2.97-2.97 0-5.445.99-7.425 2.97-1.98 1.907-2.97 4.4-2.97 7.48 0 3.043.99 5.555 2.97 7.535z" fill="#E9EEF3"/></svg>