<svg width="29" height="37" fill="none" xmlns="http://www.w3.org/2000/svg"><g clip-path="url(#clip0_3133_1910)" fill="#E9EEF3"><path d="M21.83 0h.107c.089.208.188.41.265.623.31.849.628 1.696.914 2.552.25.75.51 1.501.682 2.27.257 1.148.478 2.307.644 3.47.143 1 .21 2.011.268 3.02.031.564-.014 1.134-.049 1.7-.038.623-.06 1.252-.166 1.865-.172.994-.364 1.988-.628 2.96a15.101 15.101 0 01-.859 2.401 22.399 22.399 0 01-1.481 2.711c-.823 1.275-1.794 2.442-3 3.38a30.125 30.125 0 01-2.38 1.696c-.602.38-1.263.672-1.912.972-.776.357-1.562.694-2.353 1.015-1.372.557-2.756 1.084-4.127 1.643a22.116 22.116 0 00-3.93 2.056c-.966.643-1.822 1.407-2.62 2.242-.11.117-.207.246-.331.395-.011-.068-.02-.087-.015-.103.336-1.077.65-2.162 1.015-3.229.6-1.749 1.375-3.426 2.174-5.092.188-.392.405-.77.6-1.16.218-.432.412-.877.641-1.304.335-.62.68-1.237 1.043-1.841.668-1.113 1.345-2.22 2.034-3.32.368-.588.767-1.158 1.16-1.73.424-.619.844-1.242 1.293-1.843.567-.757 1.157-1.497 1.745-2.239.563-.71 1.12-1.427 1.706-2.12a73.292 73.292 0 012.004-2.27 73.678 73.678 0 012.19-2.292c.655-.655 1.348-1.273 2.024-1.907a.337.337 0 00-.197.07c-.772.573-1.561 1.126-2.31 1.728a84.618 84.618 0 00-3.016 2.536c-.69.611-1.332 1.28-1.991 1.927-.43.421-.866.837-1.274 1.28-.539.582-1.058 1.184-1.578 1.784-.5.58-1.022 1.143-1.478 1.756a116.576 116.576 0 00-2.527 3.538c-.415.602-.77 1.246-1.147 1.874-.322.538-.661 1.068-.947 1.625a52.41 52.41 0 00-1.156 2.418c-.332.737-.634 1.487-.944 2.234-.126.306-.24.617-.377.973-.05-.115-.08-.176-.103-.24-.223-.63-.453-1.259-.664-1.893-.363-1.09-.558-2.213-.674-3.353-.028-.274-.071-.546-.107-.82v-2.352c.016-.019.045-.036.047-.056.075-.643.113-1.294.23-1.93.16-.871.338-1.743.587-2.591.205-.696.486-1.377.802-2.031.325-.674.69-1.336 1.114-1.953.428-.623.92-1.21 1.435-1.765.567-.61 1.16-1.204 1.803-1.733.711-.586 1.484-1.1 2.339-1.473.764-.333 1.52-.692 2.3-.984 1.05-.394 2.119-.737 3.18-1.1 1.321-.453 2.609-.982 3.82-1.684.865-.501 1.698-1.051 2.399-1.768.423-.432.814-.901 1.167-1.393.25-.348.409-.761.608-1.145z"/><path d="M1.287 37c.519-.615 1.142-1.111 1.785-1.586.968-.714 2.031-1.265 3.119-1.761.773-.354 1.584-.63 2.383-.927.74-.275 1.487-.54 2.235-.795.93-.315 1.87-.603 2.797-.926a23.223 23.223 0 001.626-.649 21.41 21.41 0 002.982-1.569c1.259-.802 2.355-1.788 3.329-2.912a17.215 17.215 0 002.092-3.05c.573-1.05 1.072-2.135 1.407-3.282.31-1.06.562-2.137.79-3.217.115-.538.137-1.098.169-1.65.05-.874.116-1.75.099-2.624-.017-.852-.112-1.703-.205-2.55-.085-.783-.152-1.575-.341-2.335-.113-.455.022-.624.36-.867.778-.56 1.472-1.22 1.979-2.052.006-.01.031-.008.098-.024.194 1.025.404 2.045.575 3.072.119.707.191 1.423.27 2.136.05.464.074.93.113 1.396.002.028.033.054.05.081v2.995c-.018.08-.043.16-.053.242-.107.93-.208 1.862-.317 2.794-.13 1.116-.422 2.199-.765 3.264-.226.702-.514 1.386-.803 2.066a16.468 16.468 0 01-1.862 3.266c-.426.584-.9 1.131-1.365 1.685-.838 1-1.82 1.842-2.894 2.573-1.165.793-2.425 1.395-3.753 1.872-1.562.563-3.18.9-4.79 1.27-.908.208-1.827.364-2.733.583-1.192.288-2.381.59-3.558.932-.575.167-1.132.41-1.672.67-.689.332-1.361.702-2.02 1.089-.345.202-.648.475-.972.714-.046.034-.104.05-.157.076h.002z"/></g><defs><clipPath id="clip0_3133_1910"><path fill="#fff" d="M0 0h29v37H0z"/></clipPath></defs></svg>