<svg width="31" height="29" fill="none" xmlns="http://www.w3.org/2000/svg"><g clip-path="url(#clip0_3133_1947)" fill="#E9EEF3"><path d="M31 9.867v13.375c-.02.079-.055.157-.055.236-.007 1.755-.01 3.51-.013 5.265v.223c-.068.005-.116.012-.164.012-3.692.004-7.385.007-11.077.013-.134 0-.18-.034-.192-.17-.153-1.859-.313-3.716-.47-5.574-.308-3.66-.617-7.322-.92-10.983-.013-.162-.06-.211-.231-.21-1.337.007-2.673.001-4.01.005-.138 0-.204-.031-.21-.176-.004-.139-.03-.278-.052-.416-.182-1.159-.453-2.298-1.093-3.304-.27-.426-.391-.841-.354-1.329.013-.172.053-.222.231-.221 1.063.007 2.126 0 3.189.005.144.001.187-.044.207-.182.048-.342.105-.685.183-1.022.322-1.39.85-2.693 1.793-3.802 1.17-1.375 2.63-1.931 4.435-1.431 1.212.336 2.083 1.104 2.727 2.135.784 1.255 1.119 2.65 1.297 4.09.02.158.063.214.235.213 1.398-.007 2.797-.004 4.196-.004h.287v.247c.002.93.001 1.858.006 2.788 0 .072.036.145.054.217zM16.66 6.601h8.723c-.095-.504-.17-.989-.28-1.466-.229-.988-.598-1.92-1.282-2.7-.931-1.059-2.111-1.522-3.529-1.269-.9.161-1.565.716-2.104 1.412-.838 1.083-1.267 2.327-1.48 3.653-.019.12-.03.239-.047.37zm.549 1.849a1.125 1.125 0 00-1.096-1.133c-.659-.018-1.18.459-1.195 1.09a1.128 1.128 0 001.124 1.146 1.132 1.132 0 001.167-1.103zm7.524-.02c-.005.619.509 1.12 1.15 1.122a1.131 1.131 0 001.146-1.107c.008-.619-.504-1.126-1.141-1.13a1.132 1.132 0 00-1.155 1.115z"/><path d="M0 29v-.255c.01-.047.028-.093.032-.14l.48-5.664c.271-3.237.545-6.474.812-9.712.014-.163.063-.212.232-.21.883.007 1.765 0 2.648.005.134 0 .176-.04.197-.17.064-.39.127-.781.229-1.162.306-1.148.782-2.217 1.62-3.099.906-.955 2.005-1.359 3.333-1.061 1.188.266 2.014.986 2.607 1.992.6 1.019.867 2.139 1.01 3.292.02.159.07.21.237.21 1.168-.008 2.337 0 3.506-.01.186 0 .241.054.256.232.197 2.427.4 4.854.604 7.28.218 2.584.439 5.167.658 7.75.02.229.034.457.053.71h-.205c-5.78-.001-11.561-.004-17.342-.004-.322 0-.645.01-.967.016zm12.453-15.988c0-.053.007-.095 0-.135-.114-.546-.2-1.1-.35-1.637-.197-.705-.53-1.353-1.053-1.886-.816-.829-1.808-1.164-2.966-.902-.724.163-1.252.629-1.687 1.196-.636.829-.98 1.78-1.18 2.787-.037.187-.059.377-.09.577h7.326zm-6.856 1.56a.95.95 0 00-.936-.96c-.538-.017-.991.398-1 .916a.956.956 0 00.945.973c.535.015.978-.4.99-.93zm8.287-.023a.945.945 0 00-.956-.938c-.54-.002-.98.42-.978.94a.96.96 0 00.97.95.95.95 0 00.964-.952z"/></g><defs><clipPath id="clip0_3133_1947"><path fill="#fff" d="M0 0h31v29H0z"/></clipPath></defs></svg>