<svg width="34" height="41" fill="none" xmlns="http://www.w3.org/2000/svg"><g clip-path="url(#clip0_3133_1944)" fill="#E9EEF3"><path d="M30.86 37.804c-1.093 0-2.131.025-3.168-.01-.553-.018-.931.178-1.257.622-.605.824-1.25 1.62-1.878 2.428-.026.034-.044.075-.09.156l-3.227-7.004-.185.154c-.543.452-1.066.507-1.67.137-.387-.236-.749-.513-1.124-.767-.846-.574-1.69-.552-2.531.012-.341.229-.686.453-1.02.693-.556.4-1.102.392-1.653-.005-.088-.064-.186-.116-.308-.19l-3.177 6.915c-.188-.224-.361-.419-.523-.625-.546-.697-1.094-1.393-1.628-2.1-.22-.292-.476-.437-.848-.424-1.03.036-2.06.05-3.09.071-.1.002-.202 0-.351 0 .088-.226.153-.419.237-.603.929-2.021 1.859-4.043 2.793-6.061.216-.465.428-.933.393-1.46-.062-.93-.597-1.575-1.522-1.819-.534-.14-1.082-.226-1.62-.357-.725-.176-1.08-.71-.971-1.465.072-.495.175-.987.263-1.48.181-1.017-.146-1.771-.999-2.33a29.317 29.317 0 01-1.06-.721c-.708-.51-.832-1.164-.365-1.91.256-.408.525-.809.785-1.215.515-.807.503-1.606-.033-2.4-.25-.372-.492-.749-.73-1.128-.505-.805-.386-1.415.383-1.956.307-.217.624-.421.933-.637 1.046-.73 1.303-1.385 1.048-2.642-.084-.415-.177-.83-.234-1.249-.1-.727.273-1.274.978-1.446.472-.116.948-.21 1.423-.31.987-.205 1.564-.815 1.755-1.816.085-.45.172-.9.275-1.346.185-.8.744-1.17 1.538-1.026.52.094 1.036.2 1.556.29.768.13 1.398-.138 1.877-.742.283-.356.518-.75.776-1.127.102-.149.199-.303.315-.44.425-.5.934-.608 1.51-.296.315.17.607.384.908.578.223.143.44.299.669.43.67.386 1.348.395 2.01-.017.45-.28.882-.59 1.326-.878.745-.482 1.36-.36 1.874.377.246.353.48.715.712 1.077.563.875 1.344 1.205 2.348.999a37.73 37.73 0 011.406-.26c.717-.121 1.274.257 1.444.99.114.487.205.98.305 1.47.196.962.775 1.53 1.713 1.734.475.102.95.198 1.422.311.763.185 1.125.772.977 1.56-.098.517-.204 1.034-.285 1.555-.127.815.138 1.487.79 1.982.401.306.828.577 1.24.87.785.556.908 1.192.387 1.998-.24.37-.49.73-.726 1.1-.521.819-.528 1.639.008 2.455.26.396.524.79.775 1.191.43.69.325 1.334-.315 1.822-.353.27-.733.505-1.102.753-.93.627-1.242 1.404-1.01 2.521.086.415.17.83.248 1.247.141.748-.227 1.348-.958 1.526-.495.121-1 .202-1.498.309-.996.213-1.725 1.092-1.71 2.076.002.159.046.327.112.472 1.027 2.251 2.061 4.5 3.092 6.749.09.195.164.395.261.632zm-13.782-8.797c6.175.027 11.407-5.248 11.438-11.529.032-6.584-5.063-11.887-11.43-11.92C11.011 5.529 5.6 10.422 5.47 17.1a11.66 11.66 0 0011.607 11.907z"/><path d="M6.838 17.29c.004-5.733 4.565-10.372 10.19-10.35 5.49.022 10.138 4.499 10.142 10.263.003 5.977-4.675 10.392-10.025 10.415-5.664.024-10.293-4.49-10.307-10.327zm15.06-2.006c-.134-.22-.235-.414-.363-.587-.456-.615-.882-.646-1.418-.109-.557.56-1.11 1.123-1.665 1.685-.742.751-1.478 1.509-2.227 2.252-.464.459-.652.454-1.117.009-.267-.255-.52-.523-.783-.783-.261-.26-.514-.53-.791-.773-.285-.25-.534-.243-.832-.014a2.286 2.286 0 00-.285.26c-.46.493-.459.828.013 1.315.591.61 1.194 1.208 1.782 1.822a4.42 4.42 0 001.296.949c.058.027.143.066.186.043.32-.174.673-.314.94-.554.55-.49 1.053-1.033 1.571-1.559 1.121-1.136 2.243-2.272 3.355-3.418.134-.139.212-.335.337-.538z"/></g><defs><clipPath id="clip0_3133_1944"><path fill="#fff" d="M0 0h34v41H0z"/></clipPath></defs></svg>