<svg width="36" height="29" fill="none" xmlns="http://www.w3.org/2000/svg"><g clip-path="url(#clip0_3133_1950)" fill="#E9EEF3"><path d="M0 11.157v-.04c.024-.03.052-.057.072-.09L2.45 7.104C3.492 5.382 4.533 3.66 5.576 1.94 5.969 1.29 6.368.646 6.764 0h22.494c.048.071.098.14.143.214.429.704.858 1.41 1.285 2.115 1.747 2.885 3.493 5.771 5.238 8.657.026.043.042.09.076.165h-2.985v.274c0 5.77 0 11.538-.002 17.306 0 .09-.022.18-.034.269H3.041c-.011-.09-.033-.18-.033-.269-.002-5.775-.002-11.55-.002-17.325v-.25H0zm22.253 1.379v14.082h1.611v-14.08h5.24v14.08h1.503V11.146h-.246c-2.554 0-5.109-.001-7.664.003a.401.401 0 01-.34-.152c-1.128-1.291-2.262-2.577-3.394-3.864l-.948-1.077c-.056.06-.098.1-.136.145-1.39 1.58-2.78 3.161-4.168 4.745-.12.137-.235.21-.435.21-2.55-.01-5.1-.006-7.651-.006h-.216v15.466h1.514V12.54h5.246v14.077h1.608V12.535h8.476zM19.76 26.702v-7.429h-3.498v7.43h3.498zM27.6 16.35v-2.208h-2.226v2.208H27.6zm-16.96-.001V14.14H8.42v2.208h2.22zm.001 5.57v-2.201H8.423v2.2h2.218zm16.962-2.205h-2.226v2.2h2.226v-2.2z"/><path d="M18.012 8.522l2.488 2.833h-4.977l2.49-2.833z"/></g><defs><clipPath id="clip0_3133_1950"><path fill="#fff" d="M0 0h36v29H0z"/></clipPath></defs></svg>