<svg width="38" height="47" fill="none" xmlns="http://www.w3.org/2000/svg"><g clip-path="url(#clip0_3133_2455)" fill="#fff"><path d="M9.72 44.679c-.474 1.244-1.29 1.993-2.543 2.258-1.706.36-3.548-.933-3.761-2.674-.042-.349-.03-.707-.017-1.06.087-2.225.178-4.45.275-6.674.092-2.138.192-4.276.288-6.414.003-.052 0-.104 0-.195-.561.218-1.121.288-1.684.164C.95 29.792.028 28.69.02 27.317c-.02-2.851-.037-5.703.01-8.553.035-2.14.693-4.105 2.023-5.798 1.048-1.335 2.43-2.179 4.127-2.34 1.18-.113 2.376-.066 3.565-.079a63.68 63.68 0 012.382.002c2.34.061 4.125 1.116 5.385 3.078.197.306.346.644.537.954.047.074.178.134.271.134.353.004.706-.038 1.058-.027.18.006.258-.05.34-.205 1.132-2.122 2.894-3.393 5.24-3.857.282-.055.574-.074.861-.076 1.277-.008 2.554-.007 3.831-.003 3.277.01 6.38 2.473 6.98 5.938.361 2.073.612 4.167.91 6.252.139.968.26 1.938.412 2.903.27 1.705-.626 3.41-2.204 4.125-.211.096-.285.193-.248.424.098.627.175 1.256.26 1.885.15 1.129-.562 1.952-1.704 1.965-.643.007-1.286.001-1.968.001-.07.601-.142 1.191-.207 1.783-.098.884-.188 1.768-.285 2.652-.097.883-.199 1.767-.297 2.65L31 43.81c-.043.384-.06.773-.137 1.149-.384 1.883-2.435 2.647-3.965 1.484-.067-.051-.133-.105-.197-.157-.901.73-1.89.965-2.926.4-.412-.226-.656-.236-1.082-.02-1.173.598-2.28.365-3.279-.511-.594.545-1.283.85-2.112.822-.835-.03-1.497-.39-2.072-1.014-.864.854-1.902 1.196-3.097.936-1.196-.26-1.956-1.039-2.412-2.22zm6.892-29.31c-.02-.043-.03-.074-.045-.102-.075-.142-.148-.286-.225-.426-.976-1.775-2.461-2.688-4.497-2.68-1.588.007-3.176 0-4.764.003-1.468.003-2.703.56-3.644 1.676a7.258 7.258 0 00-1.742 4.457c-.085 2.149-.046 4.303-.054 6.454-.003.893-.014 1.787.024 2.678A1.123 1.123 0 002.72 28.5c.655.045 1.153-.287 1.304-.894.043-.174.035-.362.035-.544v-9.427c0-.548.337-.93.815-.924.495.006.813.407.807.919-.048 4.581.088 9.165-.14 13.745-.052 1.053-.092 2.106-.141 3.158-.08 1.718-.165 3.436-.244 5.155-.06 1.31-.103 2.622-.172 3.932-.043.832.573 1.633 1.361 1.725.939.112 1.747-.475 1.84-1.377.071-.705.092-1.415.129-2.123.072-1.407.137-2.813.208-4.22.101-2.02.205-4.038.31-6.056.028-.526.037-1.054.109-1.574.059-.43.41-.674.821-.658.4.015.706.309.763.735.011.085.02.17.024.257.09 1.773.182 3.545.27 5.318.135 2.697.27 5.394.4 8.09.045.952.775 1.683 1.78 1.617.83-.054 1.559-.845 1.558-1.747v-6.474c-.939-.403-1.48-1.088-1.59-2.08-.046-.426-.022-.86-.02-1.29.016-1.743-.043-3.49.07-5.226.16-2.445 2.166-4.58 4.576-4.934.895-.13 1.818-.117 2.727-.098 3.137.065 5.56 2.56 5.572 5.705.004.969.001 1.937.002 2.906 0 .091.01.184.016.262h8.24c-.016-.169-.024-.307-.042-.444-.162-1.19-.328-2.378-.487-3.567-.18-1.347-.352-2.696-.534-4.044-.16-1.187-.334-2.372-.497-3.56-.17-1.238-.331-2.479-.502-3.717a.85.85 0 01.665-.927c.398-.086.847.199.927.607.06.305.093.615.135.923.18 1.35.358 2.7.54 4.049.184 1.361.372 2.722.558 4.082.11.794.217 1.588.327 2.391.792-.379 1.254-1.34 1.12-2.26-.167-1.138-.324-2.277-.489-3.416-.274-1.913-.515-3.832-.837-5.738-.44-2.609-2.802-4.572-5.445-4.591-1.149-.008-2.297.001-3.445-.003-1.28-.004-2.418.407-3.425 1.183a5.3 5.3 0 00-1.548 1.86c2.643 1.638 2.797 4.873 1.088 6.761-1.711 1.89-4.65 1.924-6.393.105a4.42 4.42 0 01.748-6.702zm-.439 24.879c0 1.269-.005 2.538.002 3.807.005.949.86 1.567 1.685 1.214.532-.227.754-.666.754-1.236-.003-2.227-.002-4.454-.001-6.68 0-.523.332-.903.793-.912.46-.01.813.37.818.888.005.517.001 1.033.001 1.55 0 1.742-.005 3.485.002 5.227.003.92.878 1.523 1.692 1.154.534-.242.747-.704.746-1.28v-7.519c0-.464.281-.764.736-.802.562-.047.872-.38.875-.947.004-.57.008-1.14.001-1.71-.017-1.45.024-2.906-.076-4.35-.117-1.7-1.486-3.169-3.157-3.434-.765-.12-1.559-.062-2.339-.093a3.996 3.996 0 00-4.13 3.917c-.068 1.912-.021 3.829-.013 5.743.002.49.335.822.818.873.553.06.792.321.793.878v3.712zm5.74-21.204c.004-1.623-1.281-2.907-2.927-2.921-1.53-.014-2.874 1.328-2.88 2.876-.005 1.622 1.296 2.947 2.9 2.954 1.596.006 2.903-1.301 2.907-2.91zm5.589 15.012v9.516c0 .29-.012.581.004.87.026.488.423.887.881.906.498.022.845-.242.9-.719.16-1.42.308-2.84.463-4.26.139-1.259.284-2.517.423-3.776.093-.84.182-1.679.274-2.537H27.5zm-3.22 3.071c0 1.895.005 3.767-.002 5.639a30.633 30.633 0 01-.065 1.866c-.027.4.189.689.593.714.635.042 1.076-.39 1.078-1.073.005-1.496.003-2.992.003-4.487v-4.518c-.233.878-.744 1.505-1.607 1.858v.001zM4.889 4.854C4.833 2.276 6.996.09 9.553.003c2.791-.095 5.046 2.24 5.018 4.896-.028 2.603-2.172 4.765-4.741 4.82-2.74.059-5.005-2.229-4.941-4.865zm1.62-.021c-.073 1.761 1.455 3.265 3.18 3.262 1.782-.002 3.228-1.42 3.263-3.167.034-1.74-1.352-3.187-2.993-3.294-2.116-.139-3.524 1.655-3.45 3.199zm25.821.05c.063 2.554-2.16 4.943-5.03 4.833-2.533-.097-4.636-2.253-4.649-4.846C22.64 2.266 24.84-.087 27.666.003c2.525.08 4.736 2.25 4.664 4.88zm-8.049-.054c-.066 1.744 1.412 3.253 3.147 3.263 1.815.01 3.25-1.398 3.296-3.16.046-1.725-1.35-3.207-3.016-3.3-2.125-.118-3.496 1.68-3.427 3.196v.001z"/></g><defs><clipPath id="clip0_3133_2455"><path fill="#fff" d="M0 0h38v47H0z"/></clipPath></defs></svg>