<svg width="43" height="41" fill="none" xmlns="http://www.w3.org/2000/svg"><g clip-path="url(#clip0_3133_2451)" fill="#fff"><path d="M5.399 41l-.003-17.398c0-.482-.002-.964 0-1.446.005-.545.396-.955.902-.952.498.004.884.399.888.936.007.98.002 1.96.002 2.94v13.904c0 .25.127.374.38.374h8.313c.308 0 .308 0 .308-.317V27.578h10.792V39.01c0 .232.116.348.349.348h8.312c.223 0 .335-.116.335-.347V23.155c0-.523.175-.817.578-.976a.896.896 0 011.214.774c.007.096.003.193.003.29l.001 17.421c0 .112.012.224.019.335H25.178c.002-.072.006-.145.006-.217V29.698c0-.326-.001-.328-.331-.328h-6.52c-.234 0-.352.118-.352.354l-.001 10.94c0 .111-.01.223-.016.335H5.399V41z"/><path d="M0 20.949c.584-.832 1.381-1.454 2.1-2.15C7.954 13.134 13.818 7.482 19.68 1.826c.57-.55 1.139-1.1 1.709-1.648.056-.055.116-.107.195-.178.121.113.239.218.351.327l19.552 18.867c.46.444.92.89 1.38 1.332.038.035.089.057.133.085v1.157c-.316.307-.675.467-1.1.26-.16-.078-.3-.21-.431-.335-3.694-3.563-7.385-7.127-11.077-10.69-2.87-2.77-5.743-5.537-8.608-8.312-.16-.154-.243-.148-.399.002-5.84 5.643-11.683 11.281-17.527 16.92-.725.7-1.451 1.397-2.175 2.097-.64.618-1.178.55-1.643-.207-.008-.012-.027-.017-.04-.024v-.53zM32.244 3.064c1.154 0 2.309.004 3.463-.004.199-.001.276.039.275.261-.008 2.305-.004 4.61-.006 6.915 0 .501-.262.86-.695.971a.876.876 0 01-1-.473 1.348 1.348 0 01-.107-.534c-.008-1.67-.005-3.341-.005-5.011 0-.315-.001-.316-.315-.316-1.672 0-3.343.001-5.015-.002-.61-.002-.992-.403-.95-.98a.879.879 0 01.892-.825c1.154-.004 2.309-.001 3.463-.001z"/></g><defs><clipPath id="clip0_3133_2451"><path fill="#fff" d="M0 0h43v41H0z"/></clipPath></defs></svg>