<svg width="43" height="44" fill="none" xmlns="http://www.w3.org/2000/svg"><g clip-path="url(#clip0_3133_2392)" fill="#fff"><path d="M43 42.566V44H0v-1.434h1.493v-.341c0-3.732.001-7.463-.003-11.194 0-.16.042-.27.158-.382.382-.363.746-.745 1.128-1.107a.551.551 0 00.184-.443c-.005-4.24-.003-8.48-.006-12.72 0-.173.043-.3.172-.427a3139.81 3139.81 0 007.102-7.031.497.497 0 01.386-.162c1.323.006 2.645.004 3.968.004h.276c0-.431.007-.838-.004-1.244a.484.484 0 01.167-.404c.38-.355.747-.721 1.118-1.084 2.01-1.968 4.018-3.937 6.031-5.9a.451.451 0 01.283-.116C25.273.007 28.092.008 30.91 0c.174 0 .287.059.404.175 2.343 2.324 4.69 4.645 7.035 6.966l1.637 1.62H38.57c-.005.084-.01.137-.01.19-.001 4.796-.002 9.59.004 14.386 0 .1.058.224.13.296 1.355 1.351 2.716 2.696 4.076 4.043.045.045.084.096.162.185h-1.41v14.677c.145 0 .276-.002.407 0 .356.008.713.018 1.07.028zm-20.76-.044V32.25h5.904v10.268h2.939c.004-.072.008-.125.008-.178 0-5.08.001-10.161-.004-15.242a.433.433 0 00-.12-.277c-1.577-1.569-3.16-3.131-4.738-4.698-.328-.325-.643-.665-.982-1.014-.121.13-.198.217-.28.299-1.84 1.82-3.677 3.642-5.52 5.459a.487.487 0 00-.165.38c.004 5.011.003 10.023.003 15.034 0 .081.008.163.013.242h2.941zM10.396 10.924c-.053.046-.09.073-.122.105-1.904 1.886-3.81 3.771-5.708 5.663a.529.529 0 00-.122.344c-.006 3.552-.004 7.105-.003 10.658 0 .049.01.097.018.168.06-.056.1-.09.139-.128 1.387-1.374 2.773-2.749 4.166-4.117a.537.537 0 01.336-.147c2.344-.009 4.688-.006 7.031-.007.06 0 .12-.01.194-.016v-.266c0-2.056-.003-4.113.001-6.17 0-.16-.05-.269-.163-.38-1.353-1.332-2.7-2.669-4.05-4.004l-1.717-1.703zm29.633 16.94h-7.35v14.659h7.35v-14.66zM8.927 25.518c-.052.047-.07.062-.086.078-1.91 1.89-3.82 3.78-5.723 5.677a.556.556 0 00-.154.353c-.008 3.546-.007 7.093-.007 10.639v.258h2.959v-8.737h5.998v8.737h2.931c.005-.066.012-.118.012-.17 0-3.593.002-7.185-.005-10.777 0-.1-.06-.222-.133-.295-1.598-1.59-3.201-3.175-4.803-4.763-.33-.327-.653-.66-.989-1zm22.265-6.442h.24c.81 0 1.62.004 2.43-.003a.5.5 0 01.388.159c.849.839 1.703 1.672 2.556 2.505.057.055.121.103.229.192V8.824h-7.353c-.007.082-.014.127-.014.173-.014 1.85-.03 3.7-.036 5.549 0 .084.067.184.132.249.894.892 1.792 1.78 2.688 2.669.04.039.072.085.14.166h-1.4v1.447zM11.88 10.231c.073.08.111.125.153.166 1.899 1.88 3.797 3.76 5.702 5.635a.508.508 0 00.326.12c3.574.006 7.148.005 10.722.004.073 0 .145-.008.242-.013-.042-.048-.061-.072-.082-.092-1.916-1.897-3.83-3.795-5.752-5.687a.506.506 0 00-.32-.128c-3.372-.006-6.744-.005-10.116-.005h-.875zM22.25 2.15c-.078.068-.127.106-.171.149a8131.907 8131.907 0 00-5.646 5.56c-.043.042-.096.097-.098.149-.01.244-.004.488-.004.754h.3c2.264 0 4.528 0 6.792-.004.169 0 .289.047.409.167 1.322 1.317 2.65 2.629 3.978 3.942.095.094.193.186.331.319v-.239c0-1.595-.003-3.19.001-4.786a.46.46 0 00-.15-.362c-1.365-1.342-2.724-2.689-4.086-4.033-.545-.537-1.095-1.07-1.656-1.616zm-3.008 22.744l.082-.076c1.903-1.842 3.809-3.684 5.708-5.531a.685.685 0 01.53-.215c1.262.01 2.523.005 3.785.005h.263v-1.441H17.828c-.007.044-.017.073-.017.103 0 1.88-.002 3.76.002 5.64 0 .069.033.155.08.202.44.435.886.864 1.35 1.313zm4.536-23.427c1.922 1.907 3.808 3.776 5.689 5.65a.6.6 0 00.466.197c1.946-.008 3.892-.006 5.838-.006h.642c-.074-.082-.115-.132-.162-.179-1.854-1.835-3.71-3.67-5.562-5.509a.498.498 0 00-.388-.156c-2.085.004-4.172.002-6.258.002h-.265zm2.952 19.075c.059.069.08.098.106.124 1.877 1.858 3.753 3.717 5.636 5.569.082.08.224.142.338.142 2.117.009 4.234.007 6.35.006.056 0 .112-.012.184-.02-.032-.04-.044-.06-.06-.076-1.893-1.875-3.785-3.75-5.683-5.62a.481.481 0 00-.303-.12c-.825-.01-1.65-.006-2.476-.006H26.73zm-3.002 13.24v8.735h2.932v-8.734h-2.932zm-5.918-3.018v-.252L17.818 27c.001-.387-.01-.779.425-1.068-.324-.3-.625-.566-.91-.848a.497.497 0 00-.386-.16c-2.094.006-4.187.004-6.28.005-.074 0-.147.008-.229.012.016.033.019.048.028.057 1.91 1.89 3.818 3.781 5.73 5.669.05.049.13.092.198.093.458.008.917.004 1.416.004zm-7.415 11.743v-7.253H7.399v7.253h2.996zm7.385.017V32.267h-1.44v10.257h1.44z"/><path d="M28.13 27.858v1.435h-5.88v-1.435h5.88zM7.398 19.065V17.63h5.958v1.435H7.398zM5.94 32.219c0-.431-.007-.853.01-1.274.002-.047.141-.128.218-.129 1.143-.013 2.286-.019 3.43-.02.66 0 1.322.01 1.983.014h.294v1.409H5.94zM23.703 5.854v1.445h-2.929V5.854h2.93z"/></g><defs><clipPath id="clip0_3133_2392"><path fill="#fff" d="M0 0h43v44H0z"/></clipPath></defs></svg>