<svg width="46" height="44" fill="none" xmlns="http://www.w3.org/2000/svg"><g clip-path="url(#clip0_3133_2390)"><path d="M23.033 43.987c-2.25 0-4.5-.036-6.747.011-2.276.048-4.325-.607-6.287-1.736-2.711-1.56-5.463-3.047-8.199-4.563-1.562-.867-2.235-2.687-1.506-4.232A7.266 7.266 0 011.32 31.88c.653-.77.839-1.61.822-2.616-.039-2.325-.076-4.661.094-6.977.35-4.772 2.029-9.05 5.078-12.73 1.934-2.332 4.284-4.112 7.095-5.238.181-.073.36-.213.481-.369 1.146-1.471 2.62-2.282 4.484-2.313.233-.003.405-.049.574-.238 1.66-1.863 4.442-1.86 6.137-.018a.776.776 0 00.493.237c1.9.048 3.414.843 4.573 2.362a.948.948 0 00.365.298c4.176 1.699 7.25 4.651 9.444 8.582 1.99 3.566 2.919 7.422 2.937 11.51.01 1.998-.003 3.997.011 5.995.002.206.08.439.192.613.414.638.86 1.255 1.29 1.883 1.126 1.643.65 3.798-1.086 4.759a941.094 941.094 0 01-9.577 5.239c-1.352.728-2.828 1.047-4.358 1.055-2.446.013-4.892.004-7.338.004a.795.795 0 01.002.07zm-9.2-37.64c-.548.321-1.05.586-1.521.897-3.07 2.019-5.232 4.808-6.714 8.171-.915 2.077-1.466 4.253-1.724 6.51-.029.254.032.382.287.454.423.12.843.26 1.25.426 1.68.68 2.776 1.91 3.039 3.726.164 1.14.084 2.32.1 3.482.008.58-.32.95-.802.948-.49-.003-.809-.367-.811-.94-.005-.835-.012-1.67 0-2.505.029-1.88-1.219-3.174-3.203-3.499v.524c0 1.81.014 3.62-.01 5.43-.006.418.12.61.503.766 4.794 1.973 9.8 2.977 14.94 3.349 4.027.292 8.038.122 12.032-.482 3.707-.56 7.31-1.495 10.777-2.958.247-.105.32-.235.318-.494-.01-1.893-.005-3.785-.005-5.678v-.518c-.421.143-.784.252-1.136.39-1.267.49-2.07 1.676-2.074 3.053-.003.882.003 1.763-.002 2.645-.004.56-.32.913-.799.913-.48 0-.803-.353-.807-.905-.006-.917-.024-1.835.002-2.75.053-1.778.819-3.179 2.323-4.087.618-.373 1.34-.574 2.027-.82.261-.093.36-.186.324-.49-.397-3.34-1.41-6.459-3.218-9.296-1.629-2.556-3.72-4.612-6.379-6.05-.105-.058-.217-.102-.365-.172l.256 3.185c.069.867.148 1.733.2 2.602.028.458-.283.814-.702.86-.443.05-.807-.237-.889-.703-.022-.127-.03-.257-.04-.385-.136-1.651-.258-3.304-.41-4.953-.134-1.439-.85-2.513-2.087-3.221a3.314 3.314 0 00-1.395-.453c-.017.06-.03.081-.028.102.259 3.598.52 7.196.777 10.795.04.564-.27.973-.744 1.002-.483.028-.82-.315-.862-.891-.09-1.22-.172-2.439-.26-3.658-.16-2.239-.309-4.478-.488-6.716-.106-1.332-1.21-2.312-2.543-2.313-1.227 0-2.36 1.013-2.459 2.247-.176 2.213-.326 4.43-.484 6.645-.101 1.406-.195 2.813-.3 4.22a.802.802 0 01-.735.766c-.364.038-.734-.198-.827-.56a1.668 1.668 0 01-.024-.524c.202-2.931.408-5.862.614-8.793.053-.767.108-1.535.164-2.323-.123.013-.226.017-.327.037-1.511.298-2.824 1.585-3.091 3.13-.155.9-.193 1.82-.274 2.732-.09 1.018-.158 2.039-.262 3.056-.065.634-.684.958-1.202.652-.328-.195-.42-.504-.389-.875.102-1.195.196-2.39.292-3.585.055-.677.107-1.353.167-2.118zm9.112 36.003v-.057c2.214 0 4.427-.022 6.64.007 1.752.023 3.405-.302 4.953-1.158 2.97-1.642 5.952-3.264 8.924-4.901.965-.532 1.2-1.56.58-2.484-.325-.486-.676-.955-.994-1.446-.144-.22-.273-.228-.51-.145-1.794.634-3.571 1.326-5.395 1.848-3.49.999-7.067 1.52-10.687 1.737a56.293 56.293 0 01-11.546-.474c-3.96-.58-7.818-1.56-11.514-3.138-.194-.083-.286-.033-.393.128-.33.498-.672.986-1.01 1.478-.643.938-.42 1.95.567 2.502 2.811 1.569 5.637 3.113 8.438 4.702 1.485.842 3.036 1.396 4.75 1.401 2.4.005 4.799 0 7.197 0z" fill="#fff"/></g><defs><clipPath id="clip0_3133_2390"><path fill="#fff" d="M0 0h46v44H0z"/></clipPath></defs></svg>