<svg width="46" height="44" viewBox="0 0 46 44" fill="none" xmlns="http://www.w3.org/2000/svg">
<g clip-path="url(#clip0_3133_1840)">
<path d="M23.0328 43.9874C20.7837 43.9874 18.5339 43.9508 16.2856 43.998C14.0101 44.046 11.9606 43.3914 9.99886 42.2621C7.28786 40.7017 4.53582 39.2155 1.80048 37.6989C0.238018 36.832 -0.434688 35.0121 0.293671 33.4666C0.560805 32.8994 0.915593 32.3556 1.31977 31.8795C1.973 31.1099 2.15874 30.2691 2.14205 29.2639C2.10309 26.9389 2.06622 24.6027 2.23596 22.2869C2.58657 17.5149 4.26451 13.2368 7.3143 9.55745C9.24824 7.22473 11.5982 5.44503 14.4094 4.31853C14.5902 4.24587 14.769 4.1055 14.8901 3.95032C16.0365 2.47888 17.5099 1.66768 19.3736 1.63735C19.6067 1.63382 19.7785 1.58797 19.9475 1.39893C21.6088 -0.464004 24.39 -0.461182 26.0854 1.38059C26.2022 1.50756 26.4102 1.61407 26.5779 1.6183C28.4784 1.66627 29.9922 2.46124 31.1505 3.97994C31.2444 4.10268 31.3766 4.22118 31.5157 4.27832C35.6918 5.9769 38.7659 8.92895 40.96 12.8601C42.9503 16.4258 43.879 20.2822 43.8971 24.3699C43.9062 26.3683 43.8936 28.3666 43.9082 30.365C43.9096 30.571 43.9875 30.8037 44.1002 30.978C44.5142 31.6163 44.9594 32.2329 45.3893 32.8606C46.5156 34.5042 46.0397 36.6592 44.3041 37.6199C41.12 39.382 37.9304 41.1342 34.7269 42.8588C33.3745 43.5868 31.899 43.9063 30.3693 43.9141C27.9233 43.9268 25.4774 43.9176 23.0314 43.9176C23.0328 43.9395 23.0328 43.9635 23.0328 43.9874ZM13.8327 6.34722C13.2852 6.66818 12.7836 6.9334 12.3119 7.24377C9.24198 9.26259 7.07986 12.0524 5.5981 15.415C4.68261 17.4917 4.13234 19.6678 3.87425 21.9243C3.84503 22.179 3.90555 22.3066 4.16086 22.3786C4.58382 22.4985 5.004 22.6396 5.41166 22.8046C7.09029 23.4853 8.18735 24.7148 8.44962 26.5305C8.61449 27.6718 8.53379 28.8505 8.5498 30.013C8.55814 30.5935 8.23048 30.9639 7.74839 30.961C7.25795 30.9582 6.93934 30.5942 6.93655 30.0201C6.93238 29.1856 6.92473 28.3504 6.93725 27.5159C6.96577 25.6354 5.71845 24.3417 3.73372 24.0172C3.73372 24.1964 3.73372 24.3685 3.73372 24.5406C3.73372 26.3506 3.74833 28.1614 3.72329 29.9714C3.71772 30.389 3.84433 30.5801 4.22695 30.7374C9.02145 32.7104 14.0267 33.7135 19.1677 34.0859C23.1942 34.3779 27.2054 34.2079 31.1992 33.6041C34.9057 33.0441 38.5099 32.1087 41.9757 30.6457C42.2227 30.5413 42.2957 30.4115 42.2943 30.152C42.2846 28.2594 42.2887 26.3668 42.2887 24.4743C42.2887 24.324 42.2887 24.1745 42.2887 23.9558C41.8679 24.099 41.5054 24.2084 41.1527 24.3452C39.8859 24.8362 39.0831 26.0219 39.079 27.3988C39.0762 28.2806 39.0824 29.1623 39.0769 30.044C39.0734 30.6048 38.7576 30.9575 38.2782 30.9575C37.7975 30.9575 37.4748 30.6041 37.4713 30.0518C37.465 29.1348 37.4469 28.2171 37.4734 27.3015C37.5255 25.5239 38.2915 24.123 39.7962 23.2145C40.4139 22.842 41.136 22.641 41.8226 22.3955C42.0842 22.3017 42.1823 22.2086 42.1468 21.9053C41.7503 18.5645 40.7367 15.446 38.9287 12.609C37.3001 10.0533 35.209 7.99713 32.5502 6.55814C32.4451 6.501 32.3331 6.45656 32.1849 6.38743C32.274 7.49066 32.3582 8.53111 32.4409 9.57226C32.5098 10.4392 32.5891 11.3054 32.6413 12.1737C32.6691 12.6322 32.3575 12.9877 31.9394 13.0343C31.4962 13.0837 31.1317 12.7973 31.0503 12.331C31.028 12.2041 31.0197 12.0743 31.0093 11.9459C30.8736 10.2946 30.7519 8.64185 30.5995 6.99265C30.466 5.55437 29.7501 4.48006 28.5132 3.77185C28.0812 3.52497 27.6165 3.35708 27.1177 3.31899C27.101 3.37825 27.0885 3.40011 27.0899 3.42057C27.3487 7.01875 27.6096 10.6169 27.867 14.2158C27.9073 14.7801 27.5963 15.1893 27.1226 15.2175C26.6398 15.2464 26.3024 14.9029 26.2607 14.3266C26.1716 13.1077 26.0888 11.888 26.0012 10.6691C25.8412 8.43024 25.6923 6.19063 25.5135 3.95314C25.4071 2.62066 24.3038 1.64087 22.9702 1.64017C21.743 1.64017 20.6091 2.65311 20.511 3.88683C20.335 6.10034 20.1854 8.31667 20.0268 10.5316C19.926 11.9381 19.8321 13.3454 19.7263 14.7519C19.6943 15.1794 19.3952 15.4757 18.9917 15.518C18.6279 15.5561 18.2578 15.3198 18.1652 14.9572C18.1228 14.7914 18.1284 14.6073 18.1409 14.4338C18.3426 11.5029 18.5492 8.57202 18.7545 5.64113C18.808 4.87367 18.863 4.1055 18.9186 3.31758C18.7962 3.33098 18.6926 3.33522 18.5917 3.35497C17.0807 3.65335 15.768 4.93998 15.5009 6.48478C15.3457 7.38415 15.3082 8.30538 15.2268 9.21745C15.1363 10.2353 15.0695 11.256 14.9652 12.2725C14.9005 12.9066 14.2807 13.2311 13.7631 12.925C13.4347 12.7303 13.3429 12.4213 13.3742 12.0496C13.4765 10.8554 13.5704 9.65973 13.6664 8.4648C13.7214 7.78833 13.7728 7.11187 13.8327 6.34722ZM22.9451 42.3502C22.9451 42.3312 22.9451 42.3121 22.9451 42.2931C25.1587 42.2931 27.3723 42.2712 29.5859 42.3002C31.3369 42.3227 32.9898 41.9975 34.5384 41.1419C37.5088 39.4998 40.4898 37.8781 43.4623 36.2409C44.4272 35.709 44.6623 34.6805 44.0425 33.7565C43.7169 33.2705 43.3663 32.8021 43.0477 32.3112C42.9044 32.0904 42.775 32.0826 42.5371 32.1665C40.7444 32.8 38.9669 33.492 37.1429 34.014C33.6528 35.0128 30.0764 35.5348 26.4562 35.7513C22.591 35.9827 18.7413 35.8374 14.9095 35.2766C10.9491 34.6975 7.09238 33.7177 3.39633 32.139C3.20154 32.0558 3.10971 32.1059 3.00258 32.2674C2.67353 32.7647 2.33057 33.2528 1.99317 33.7452C1.35038 34.6827 1.5723 35.6949 2.56014 36.2465C5.37131 37.816 8.19709 39.3601 10.9978 40.9486C12.4831 41.7909 14.0337 42.3453 15.7478 42.3502C18.1472 42.3552 20.5465 42.3502 22.9451 42.3502Z" fill="#1C54AD"/>
</g>
<defs>
<clipPath id="clip0_3133_1840">
<rect width="46" height="44" fill="white"/>
</clipPath>
</defs>
</svg>
