<svg width="43" height="44" viewBox="0 0 43 44" fill="none" xmlns="http://www.w3.org/2000/svg">
<g clip-path="url(#clip0_3133_1842)">
<path d="M43 42.566C43 43.0438 43 43.5222 43 44C28.6665 44 14.3335 44 0 44C0 43.5222 0 43.0438 0 42.566C0.49263 42.566 0.985728 42.566 1.49332 42.566C1.49332 42.4073 1.49332 42.3162 1.49332 42.2246C1.49332 38.4934 1.49425 34.7618 1.49004 31.0306C1.49004 30.8719 1.53164 30.7604 1.64849 30.6494C2.03035 30.2863 2.39398 29.9042 2.7763 29.542C2.91185 29.4138 2.96046 29.2829 2.96046 29.0988C2.95532 24.8588 2.95718 20.6183 2.95391 16.3782C2.95391 16.2057 2.99738 16.0799 3.12638 15.9522C5.49792 13.6124 7.86433 11.2676 10.2284 8.92092C10.341 8.80898 10.4523 8.75809 10.614 8.75902C11.9367 8.76503 13.2594 8.76272 14.5821 8.76272C14.6653 8.76272 14.749 8.76272 14.8579 8.76272C14.8579 8.33159 14.8654 7.92498 14.8542 7.51883C14.8495 7.35184 14.8958 7.23111 15.021 7.11453C15.4005 6.7602 15.7684 6.39383 16.139 6.0307C18.1483 4.06287 20.1567 2.09412 22.1702 0.130451C22.2385 0.0643018 22.3577 0.0157305 22.453 0.0152679C25.2723 0.00694144 28.0916 0.00786661 30.9105 2.6896e-06C31.0843 -0.000459894 31.1965 0.0587508 31.3138 0.174859C33.6568 2.49888 36.0036 4.81966 38.3495 7.14136C38.8809 7.66732 39.4118 8.19328 39.9858 8.76179C39.4791 8.76179 39.0267 8.76179 38.5705 8.76179C38.5659 8.8446 38.5602 8.89826 38.5602 8.95145C38.5598 13.7466 38.5588 18.5417 38.5654 23.3373C38.5654 23.4368 38.6229 23.5608 38.6953 23.6325C40.0503 24.9841 41.4113 26.3293 42.771 27.6764C42.8163 27.7212 42.8551 27.7721 42.9327 27.8609C42.4256 27.8609 41.9717 27.8609 41.5221 27.8609C41.5221 32.7639 41.5221 37.6409 41.5221 42.5378C41.6679 42.5378 41.7988 42.5355 41.9301 42.5382C42.2863 42.5456 42.6429 42.5563 43 42.566ZM22.2394 42.5225C22.2394 39.092 22.2394 35.6758 22.2394 32.249C24.2155 32.249 26.166 32.249 28.1444 32.249C28.1444 35.6795 28.1444 39.0975 28.1444 42.5174C29.1404 42.5174 30.1084 42.5174 31.0829 42.5174C31.0867 42.4453 31.0913 42.3921 31.0913 42.3389C31.0918 37.2583 31.0923 32.1778 31.0867 27.0972C31.0867 27.0033 31.0338 26.8867 30.9661 26.8197C29.39 25.251 27.807 23.6889 26.2286 22.1221C25.9005 21.7965 25.5855 21.4574 25.2475 21.1077C25.1256 21.2377 25.0489 21.3251 24.9666 21.4065C23.1279 23.2277 21.2897 25.0489 19.4468 26.8659C19.3332 26.9779 19.2818 27.0856 19.2818 27.2462C19.286 32.2573 19.285 37.2685 19.2855 42.2801C19.2855 42.3611 19.2934 42.4425 19.2977 42.5225C20.289 42.5225 21.2518 42.5225 22.2394 42.5225ZM10.3967 10.923C10.3438 10.9688 10.3074 10.9965 10.2751 11.0285C8.37098 12.9139 6.46542 14.799 4.56735 16.6909C4.48836 16.7696 4.44536 16.9185 4.44489 17.0346C4.43928 20.5873 4.44068 24.1404 4.44209 27.693C4.44209 27.7416 4.4519 27.7902 4.45985 27.8609C4.52014 27.8054 4.5608 27.7703 4.59866 27.7328C5.98635 26.3594 7.3717 24.9841 8.76499 23.6163C8.84725 23.5353 8.98747 23.4692 9.10104 23.4687C11.445 23.4604 13.7885 23.4627 16.1325 23.4622C16.1918 23.4622 16.2517 23.4525 16.3264 23.446C16.3264 23.3475 16.3264 23.2642 16.3264 23.1805C16.3255 21.1239 16.3227 19.0672 16.3274 17.0106C16.3278 16.8501 16.2774 16.7414 16.1638 16.6294C14.8112 15.2976 13.4632 13.9612 12.1143 12.6258C11.5478 12.0646 10.9818 11.5031 10.3967 10.923ZM40.0297 27.8628C37.5647 27.8628 35.1235 27.8628 32.6791 27.8628C32.6791 32.7597 32.6791 37.6418 32.6791 42.522C35.1347 42.522 37.5759 42.522 40.0297 42.522C40.0297 37.6307 40.0297 32.7555 40.0297 27.8628ZM8.92717 25.5184C8.87483 25.5651 8.85707 25.5799 8.84117 25.5961C6.93141 27.4867 5.02118 29.3764 3.1175 31.2729C3.0315 31.3585 2.9642 31.507 2.96373 31.6264C2.95578 35.1725 2.95718 38.7187 2.95718 42.2649C2.95718 42.3472 2.95718 42.43 2.95718 42.523C3.95553 42.523 4.92443 42.523 5.91577 42.523C5.91577 39.6059 5.91577 36.7032 5.91577 33.7862C7.91948 33.7862 9.90075 33.7862 11.9138 33.7862C11.9138 36.7078 11.9138 39.6156 11.9138 42.523C12.9084 42.523 13.8708 42.523 14.8453 42.523C14.8504 42.4568 14.8574 42.405 14.8574 42.3527C14.8579 38.7603 14.8588 35.1679 14.8523 31.5759C14.8523 31.4765 14.7915 31.3539 14.7191 31.2813C13.1215 29.6905 11.5175 28.1056 9.91617 26.5181C9.58666 26.191 9.26323 25.858 8.92717 25.5184ZM31.1923 19.0765C31.2802 19.0765 31.3559 19.0765 31.4316 19.0765C32.2416 19.0765 33.0516 19.0802 33.8616 19.0732C34.0223 19.0719 34.1364 19.119 34.2504 19.2319C35.0988 20.0706 35.9531 20.9037 36.8061 21.7373C36.8627 21.7923 36.9272 21.8395 37.0347 21.9288C37.0347 17.5143 37.0347 13.1651 37.0347 8.82424C34.5645 8.82424 32.1257 8.82424 29.6822 8.82424C29.6751 8.90612 29.6681 8.95145 29.6677 8.99679C29.6536 10.8467 29.6382 12.6961 29.6321 14.5459C29.6317 14.6297 29.6994 14.73 29.7639 14.7948C30.6576 15.6871 31.5559 16.5744 32.4524 17.4639C32.4916 17.5028 32.5239 17.5486 32.5917 17.63C32.0948 17.63 31.648 17.63 31.1923 17.63C31.1923 18.1203 31.1923 18.5866 31.1923 19.0765ZM11.8802 10.231C11.9535 10.311 11.9914 10.3559 12.033 10.397C13.932 12.277 15.8301 14.1578 17.7347 16.0322C17.8104 16.1067 17.9502 16.1511 18.0605 16.1516C21.6346 16.1576 25.2092 16.1567 28.7834 16.1562C28.8558 16.1562 28.9278 16.1483 29.0255 16.1428C28.9825 16.0947 28.9638 16.0715 28.9427 16.0507C27.0269 14.1537 25.1125 12.2557 23.1915 10.3637C23.1153 10.2888 22.9788 10.237 22.8704 10.2365C19.4986 10.23 16.1269 10.231 12.7551 10.231C12.4789 10.231 12.2022 10.231 11.8802 10.231ZM22.2502 2.14963C22.1716 2.21763 22.1226 2.25602 22.0786 2.29904C20.196 4.15169 18.3133 6.0048 16.4325 7.85929C16.3905 7.90093 16.3372 7.95644 16.3353 8.00778C16.325 8.25156 16.3307 8.49627 16.3307 8.76226C16.4475 8.76226 16.5396 8.76226 16.6317 8.76226C18.8952 8.76179 21.1593 8.76272 23.4228 8.75763C23.5916 8.75717 23.7117 8.80528 23.8318 8.92462C25.1545 10.2421 26.4829 11.5539 27.8098 12.8668C27.9051 12.9611 28.0033 13.0532 28.1412 13.1859C28.1412 13.0647 28.1412 13.006 28.1412 12.9472C28.1407 11.3518 28.1379 9.75635 28.1421 8.1609C28.1426 8.01102 28.0996 7.90509 27.9911 7.7987C26.6268 6.4572 25.2681 5.11016 23.9057 3.76636C23.3612 3.22883 22.811 2.69686 22.2502 2.14963ZM19.2425 24.8944C19.2687 24.8699 19.2972 24.8444 19.3243 24.8181C21.2275 22.9756 23.1326 21.134 25.0316 19.287C25.1873 19.1352 25.341 19.07 25.5621 19.0719C26.8236 19.0825 28.0851 19.0769 29.3466 19.0769C29.4358 19.0769 29.5251 19.0769 29.6102 19.0769C29.6102 18.5727 29.6102 18.1064 29.6102 17.636C25.6747 17.636 21.7547 17.636 17.8277 17.636C17.8207 17.6799 17.8113 17.7095 17.8113 17.7387C17.8104 19.6191 17.809 21.4995 17.8132 23.3799C17.8132 23.4479 17.8455 23.5339 17.8936 23.5811C18.333 24.0164 18.7793 24.4452 19.2425 24.8944ZM23.7776 1.46685C25.6995 3.37362 27.5859 5.24292 29.4667 7.11731C29.6032 7.25331 29.7359 7.31437 29.9331 7.31391C31.8789 7.30604 33.8251 7.30836 35.7713 7.30789C35.9704 7.30789 36.1695 7.30789 36.4126 7.30789C36.3392 7.22648 36.2976 7.1756 36.2513 7.12934C34.3967 5.29381 32.5402 3.4592 30.6889 1.62043C30.5744 1.50664 30.4608 1.46315 30.3014 1.46362C28.2155 1.46824 26.129 1.46639 24.0431 1.46639C23.9674 1.46685 23.8921 1.46685 23.7776 1.46685ZM26.7301 20.5415C26.789 20.6109 26.8105 20.6405 26.8362 20.6659C28.7132 22.5236 30.5894 24.3828 32.472 26.235C32.5538 26.3154 32.6959 26.3765 32.8099 26.377C34.9268 26.3858 37.0436 26.3839 39.1604 26.383C39.216 26.383 39.2716 26.371 39.3441 26.3626C39.3123 26.3224 39.3001 26.303 39.2842 26.2872C37.3913 24.4119 35.4993 22.5361 33.6012 20.6664C33.5293 20.5956 33.4007 20.548 33.2979 20.5466C32.4729 20.5373 31.6475 20.5415 30.8221 20.5415C29.476 20.5415 28.1299 20.5415 26.7301 20.5415ZM23.7281 33.7829C23.7281 36.7055 23.7281 39.6078 23.7281 42.517C24.7086 42.517 25.6822 42.517 26.66 42.517C26.66 39.5953 26.66 36.694 26.66 33.7829C25.6813 33.7829 24.7175 33.7829 23.7281 33.7829ZM17.8099 30.7641C17.8099 30.6623 17.8099 30.5869 17.8099 30.512C17.8127 29.3412 17.8146 28.1704 17.8184 26.9996C17.8193 26.6129 17.8085 26.2211 18.2432 25.9324C17.9188 25.6322 17.6178 25.3658 17.3323 25.0836C17.2187 24.9712 17.1075 24.9245 16.9467 24.9249C14.8532 24.93 12.7598 24.9282 10.6663 24.9291C10.593 24.9291 10.52 24.9365 10.4383 24.9406C10.4541 24.974 10.4569 24.9892 10.4663 24.998C12.3751 26.8886 14.2839 28.7792 16.1956 30.667C16.2451 30.716 16.3269 30.7595 16.3942 30.7604C16.8523 30.7678 17.3108 30.7641 17.8099 30.7641ZM10.3948 42.5072C10.3948 40.0639 10.3948 37.658 10.3948 35.2544C9.39363 35.2544 8.40136 35.2544 7.39927 35.2544C7.39927 37.6825 7.39927 40.0967 7.39927 42.5072C8.39061 42.5072 9.36792 42.5072 10.3948 42.5072ZM17.78 42.5244C17.78 39.1036 17.78 35.7026 17.78 32.2666C17.2809 32.2666 16.8125 32.2666 16.3405 32.2666C16.3405 35.6795 16.3405 39.0957 16.3405 42.5244C16.828 42.5244 17.3005 42.5244 17.78 42.5244Z" fill="#1C54AD"/>
<path d="M28.1307 27.8582C28.1307 28.3406 28.1307 28.8074 28.1307 29.2926C26.1733 29.2926 24.2196 29.2926 22.25 29.2926C22.25 28.8166 22.25 28.3448 22.25 27.8582C24.2074 27.8582 26.1555 27.8582 28.1307 27.8582Z" fill="#1C54AD"/>
<path d="M7.39844 19.0653C7.39844 18.5759 7.39844 18.1091 7.39844 17.6299C9.38719 17.6299 11.3629 17.6299 13.3563 17.6299C13.3563 18.1036 13.3563 18.5763 13.3563 19.0653C11.3741 19.0653 9.3942 19.0653 7.39844 19.0653Z" fill="#1C54AD"/>
<path d="M5.93911 32.2189C5.93911 31.7877 5.93163 31.3659 5.94892 30.9454C5.95079 30.8977 6.09008 30.8172 6.16673 30.8163C7.30997 30.8029 8.45321 30.7973 9.59691 30.796C10.2578 30.795 10.9187 30.8052 11.5801 30.8103C11.6647 30.8108 11.7492 30.8103 11.874 30.8103C11.874 31.284 11.874 31.7419 11.874 32.2189C9.91614 32.2189 7.92973 32.2189 5.93911 32.2189Z" fill="#1C54AD"/>
<path d="M23.7021 5.85352C23.7021 6.33969 23.7021 6.81291 23.7021 7.29909C22.722 7.29909 21.7545 7.29909 20.7734 7.29909C20.7734 6.81291 20.7734 6.34015 20.7734 5.85352C21.7536 5.85352 22.7206 5.85352 23.7021 5.85352Z" fill="#1C54AD"/>
</g>
<defs>
<clipPath id="clip0_3133_1842">
<rect width="43" height="44" fill="white"/>
</clipPath>
</defs>
</svg>
