<svg width="94" height="68" fill="none" xmlns="http://www.w3.org/2000/svg"><g clip-path="url(#clip0_3133_5084)"><path d="M46.806 67.976H2.36c-.265 0-.53.007-.794-.011-1.003-.071-1.598-.676-1.567-1.582.03-.866.651-1.418 1.646-1.421 3.744-.007 7.49-.006 11.234 0 1.7.002 1.7.01 1.7-1.713l-.005-12.261c0-.864-.038-.91-.888-1.06-5.16-.918-9.38-5.252-10.255-10.418-.45-2.65-.05-5.224.444-7.8 1.324-6.92 3.721-13.51 6.28-20.042 1.357-3.46 2.874-6.858 4.358-10.267.199-.458.56-.916.97-1.192.6-.404 1.331-.186 1.792.393a3.2 3.2 0 01.409.676c3.594 7.967 6.913 16.042 9.268 24.473a79.02 79.02 0 011.832 8.23c.694 4.143.093 8.062-2.672 11.426-1.883 2.291-4.286 3.764-7.184 4.417-1.243.28-1.278.305-1.278 1.555v12.443c0 1.031.118 1.142 1.167 1.142h9.646c.862 0 1.054-.185 1.205-1.026.194-1.078.424-2.15.64-3.226.144-.714.051-.828-.663-.832-.264-.001-.534.001-.788-.055-.874-.191-1.293-.782-1.227-1.684.054-.735.691-1.31 1.555-1.34.832-.029 1.668-.004 2.503-.01.645-.002.817-.206.79-.852a24.703 24.703 0 01-.007-1.702c.018-.65-.153-.848-.795-.855-.346-.004-.694.017-1.038-.013a1.52 1.52 0 01-1.42-1.423c-.054-.747.466-1.415 1.261-1.556.418-.075.851-.061 1.275-.108.597-.065.789-.345.764-1.009-.02-.555-.268-.815-.841-.772a7.18 7.18 0 01-1.037-.004 1.509 1.509 0 01-1.422-1.478c-.02-.767.517-1.38 1.325-1.485.32-.043.648-.065.972-.065 9.137-.004 18.275-.006 27.413.006.542 0 1.099.062 1.622.2.682.18.942.637.927 1.386-.014.654-.348 1.145-.986 1.296-.448.107-.922.118-1.386.143-.673.035-.868.263-.841 1.037.022.626.235.806.877.798.383-.005.776-.009 1.149.068.862.176 1.256.753 1.182 1.644-.06.717-.65 1.265-1.431 1.329-1.173.096-1.759.726-1.759 1.892 0 1.014.51 1.521 1.528 1.521.528 0 1.058-.01 1.587.003 1.005.024 1.717.645 1.746 1.51.03.867-.654 1.511-1.675 1.574-.183.011-.366.016-.547.037-.392.044-.595.255-.518.659.247 1.293.47 2.591.784 3.869.055.224.506.487.783.498 1.3.051 2.603.018 3.906.02.52 0 .706-.253.703-.763-.015-2.155-.005-4.311-.005-6.467 0-9.74-.005-19.48.016-29.221 0-.867-.26-1.436-1.05-1.867-1.414-.769-2.146-2.023-2.173-3.636-.036-2.154-.015-4.308-.045-6.462-.024-1.695.867-1.988 2.227-1.91.716.042 1.026-.251 1.032-.824.007-.79-.18-.983-1.017-.976-.752.004-1.506.014-2.258-.008-.943-.027-1.584-.638-1.6-1.492-.017-.89.554-1.524 1.528-1.531 3.275-.025 6.551-.017 9.827.006.838.006 1.461.704 1.454 1.504a1.537 1.537 0 01-1.478 1.505c-.852.04-1.708.018-2.563.017-.7 0-.867.146-.866.78.003.942.056.99.862.988.406 0 .815.033 1.214.1.638.11 1.132.57 1.137 1.258.02 2.518.044 5.04-.073 7.555-.068 1.431-.933 2.52-2.192 3.176-.78.405-.984.961-.98 1.767.027 7.36.04 14.72.044 22.082.002 4.372-.024 8.742-.035 13.114-.002 1.192.127 1.31 1.333 1.308 2.523-.004 5.047-.001 7.57 0 .926 0 1.103-.168 1.104-1.104.001-3.781-.007-7.563 0-11.344.001-.671-.359-.961-.952-1.146-2.456-.764-4.236-2.274-5.132-4.734-.559-1.535-.511-3.111-.293-4.694.57-4.13 1.502-8.173 2.953-12.089.546-1.475 1.188-2.894 2.252-4.087 1.624-1.823 3.628-1.893 5.246-.069a9.625 9.625 0 011.58 2.444c2.181 4.912 3.427 10.073 3.797 15.429.256 3.719-1.699 6.485-5.332 7.747-.734.254-1.102.775-1.104 1.56v11.041c0 .904.152 1.049 1.072 1.047 2.727-.006 5.454-.018 8.18-.01.4.002.826.038 1.193.18.574.22.946.599.95 1.325.003.73-.363 1.105-.947 1.319a3.692 3.692 0 01-1.25.216c-9.484.012-18.967.01-28.452.01H46.808v-.025l-.002-.002zM17.81 33.462l.209.007c.27-.325.528-.662.815-.97.429-.46.84-.95 1.329-1.336.622-.49 1.332-.403 1.88.123.57.547.665 1.193.235 1.872-.183.289-.418.55-.66.794-1.075 1.082-2.142 2.172-3.249 3.222-.513.487-.735 1.03-.728 1.728.026 2.399.022 4.797.03 7.195.005.8.086.864.837.675 4.357-1.102 7.453-5.004 7.447-9.494-.004-3.212-.739-6.317-1.578-9.397-2.043-7.502-4.906-14.704-7.962-21.837-.067-.158-.167-.302-.29-.523-.13.226-.223.357-.284.5-2.669 6.262-5.25 12.557-7.154 19.103-1.031 3.546-2.079 7.09-2.35 10.805-.24 3.283.662 6.144 3.065 8.464a9.31 9.31 0 004.267 2.377c.72.179.91.025.91-.672 0-.833-.026-1.667.005-2.5.022-.597-.19-1.05-.609-1.46a237.23 237.23 0 01-3.234-3.236 5.382 5.382 0 01-.734-.89c-.444-.703-.356-1.33.21-1.873.542-.52 1.16-.62 1.81-.125.59.449 1.083 1.031 1.611 1.562.219.22.417.46.762.844.079-.503.167-.809.169-1.115.013-2.094.005-4.188.013-6.281.005-1.06.533-1.705 1.391-1.742 1.053-.045 1.599.467 1.678 1.633.043.627.006 1.26.03 1.889.007.22.085.437.13.656l-.001.002zm64.781 13.137h.019v.792c-.009 1.064.149 1.154 1.09.624.107-.06.213-.12.312-.19 1.623-1.152 2.138-2.684 1.92-4.665-.55-5.002-1.661-9.84-3.798-14.417-.225-.48-.423-1.065-1.032-1.08-.66-.017-.845.608-1.076 1.1a39.392 39.392 0 00-3.19 10.19c-.287 1.695-.571 3.414-.596 5.127-.024 1.734.753 3.189 2.386 4.032.798.411.94.301.935-.585-.005-.77-.009-1.544.06-2.31.079-.897.637-1.37 1.486-1.359.806.01 1.403.554 1.478 1.401.04.443.008.893.008 1.34h-.001zm-37.22 18.363v-.004h10.924c.386 0 .773.009 1.16-.002.43-.012.649-.238.56-.671-.26-1.267-.548-2.526-.798-3.795-.095-.484-.373-.617-.818-.617-7.364.002-14.728 0-22.093-.005-.485 0-.74.201-.834.69a120.73 120.73 0 01-.686 3.266c-.215.98-.093 1.137.926 1.137H45.37l.002.001zm.034-11.588c-2.99 0-5.98-.002-8.971.003-.76 0-.981.25-.95.994.017.384.05.771.018 1.152-.094 1.069.072 1.268 1.134 1.268 5.473 0 10.945-.003 16.419-.004.305 0 .611.01.914-.01.9-.06 1.181-.357 1.207-1.257.01-.385.029-.772.024-1.157-.012-.852-.154-.986-1.004-.986H45.41l-.003-.003zm-.06-4.873c-2.967 0-5.934-.001-8.902.001-.684 0-.935.22-.962.81-.037.789.204 1.012 1.132 1.01 5.163-.004 10.325-.015 15.488-.02.772 0 1.546.046 2.315 0 .255-.016.628-.198.72-.404.364-.817-.056-1.397-.947-1.397h-8.844zm24.42-28.016h.003c0-.73-.003-1.463.001-2.194.004-.404-.195-.608-.588-.612-.731-.007-1.462-.007-2.193 0-.395.004-.62.245-.62.612-.002 1.482-.044 2.969.062 4.444.082 1.145.808 1.66 1.899 1.573.835-.067 1.421-.8 1.436-1.814.01-.67.002-1.341.002-2.011l-.001.002z" fill="#1C54AD"/></g><defs><clipPath id="clip0_3133_5084"><path fill="#fff" d="M0 0h94v68H0z"/></clipPath></defs></svg>