<svg width="68" height="66" fill="none" xmlns="http://www.w3.org/2000/svg"><g clip-path="url(#clip0_3133_5028)" fill="#1C54AD"><path d="M7.454 26.127v-4.328h2.48v4.328h.553c6.24 0 12.48.004 18.72-.01.397 0 .673.115.94.396a61.91 61.91 0 001.998 1.999c.228.218.32.441.32.758-.008 7.266-.007 14.533-.007 21.799v14.896c-.143.013-.26.034-.378.034-9.304-.011-18.61-.023-27.914-.04-.623 0-1.247-.033-1.87-.064-1.143-.057-2.079-.892-2.146-2.024a79.508 79.508 0 01-.132-4.564C.001 49.217 0 39.127.005 29.037a.93.93 0 01.252-.6c.592-.582 1.213-1.135 1.833-1.688.42-.374.929-.54 1.488-.552 1.109-.025 2.217-.047 3.326-.069.164-.005.328-.002.55-.002zm22.44 37.36v-27.36H2.52v27.35h6.863V51.71h2.462v11.777h18.049zm.067-29.925c0-.848-.057-1.654.016-2.45.08-.872-.18-1.529-.835-2.11-.293-.261-.545-.39-.934-.389-7.764.01-15.528.023-23.291-.01-.894-.004-1.631.138-2.181.86-.114.15-.226.348-.23.527-.02 1.079-.012 2.158-.01 3.238 0 .106.018.212.03.335l27.435-.001z"/><path d="M49.273 65.978H34.975v-2.437h11.772V2.522H15.512v21.09H13.04c-.009-.138-.024-.284-.024-.428.02-7.017.042-14.034.065-21.051.003-1.046.88-1.997 1.937-2.023 2.135-.053 4.27-.09 6.405-.093C29.993.002 38.563.004 47.133 0c.99 0 2.056 1.05 2.057 2.026l.084 63.113-.001.84zm2.499.002v-2.457h11.79v-38.6H51.815v-2.476h13.58l.052-.128c-.114-.126-.221-.257-.34-.377-3.28-3.3-6.56-6.602-9.852-9.893a.851.851 0 00-.54-.213c-.967-.02-1.935-.01-2.93-.01V9.338c.276 0 .548-.004.82 0 .83.015 1.663.033 2.494.047.568.01 1.04.22 1.45.618 1.68 1.63 3.385 3.235 5.053 4.876 2.055 2.02 4.08 4.07 6.125 6.098.192.19.286.38.27.65-.032.539-.023 1.079-.056 1.617-.051.841-.587 1.336-1.314 1.601-.367.134-.445.327-.447.656-.018 1.84-.062 3.682-.064 5.522-.016 10.837-.021 21.674-.031 32.511-.001 1.096-1.03 2.282-2.137 2.355-1.216.081-2.437.09-3.657.098-2.718.016-5.436.01-8.154.012-.109.001-.218-.01-.366-.019z"/><path d="M56.713 48.022H54.3c-.015-.045-.046-.094-.046-.144.017-2.307.04-4.615.05-6.922.002-.353.126-.499.482-.49.634.014 1.267.004 1.927.004v7.552zm.001-18.788v7.526h-2.328c-.03-.11-.06-.174-.06-.237-.016-2.225-.025-4.45-.047-6.675-.004-.397.109-.63.556-.618.618.016 1.237.004 1.88.004zm.001 22.474v7.401h-2.433c-.01-.058-.03-.11-.03-.162.017-2.239.042-4.478.048-6.717.001-.365.13-.528.495-.524.623.007 1.245.002 1.92.002zM32.44 6.878v5.5h-2.444v-5.5h2.444zm-.012 14.867H29.99v-5.502h2.438v5.502zm-11.782-9.367V6.856c.772 0 1.516-.005 2.26.008.07.002.198.124.198.19.011 1.765.01 3.53.01 5.324h-2.468zm18.711-.004V6.888h2.435v5.486h-2.435zM20.64 21.77v-5.538h2.444c.01.111.029.218.029.324.002 1.604-.005 3.209.008 4.813.003.3-.069.418-.392.407-.688-.023-1.377-.006-2.088-.006zm18.721-.037V16.23h2.44v5.503h-2.44zm.012 3.819c.763 0 1.495-.007 2.227.01.077.002.217.139.218.214.012 1.753.01 3.507.01 5.295h-2.454l-.001-5.52zm-.002 9.363h2.433c.008.15.023.284.023.418.001 1.563-.009 3.125.01 4.687.005.352-.107.45-.447.437-.662-.024-1.325-.007-2.018-.007v-5.535zm2.457 14.863h-2.46v-5.545h1.677c.779-.001.78-.001.781.791.002 1.438.002 2.875.002 4.312v.442zm-.038 9.347h-2.415v-5.498h2.415v5.498zm-23.056.023v-7.433h2.442c.01.127.028.247.028.367.002 2.214-.004 4.428.008 6.642.001.31-.062.446-.41.432-.676-.027-1.353-.008-2.068-.008zM9.387 40.467h2.425v7.397H9.387v-7.397zm9.351.002h2.44v7.386h-2.44v-7.386z"/></g><defs><clipPath id="clip0_3133_5028"><path fill="#fff" d="M0 0h68v66H0z"/></clipPath></defs></svg>