<svg width="77" height="55" fill="none" xmlns="http://www.w3.org/2000/svg"><g clip-path="url(#clip0_3133_5026)"><path d="M45.409 45.35c-.013.23.017.453-.042.65-.375 1.268.245 2.094 1.116 2.906 1.316 1.227 2.572 2.522 3.801 3.838.284.304.517.823.488 1.222-.07.961-1.212 1.357-1.982.73-.373-.304-.697-.67-1.039-1.013-1.312-1.317-2.613-2.645-3.944-3.945-.177-.172-.497-.3-.74-.285-4.914.3-9.788.035-14.625-.931-4.175-.834-8.127-2.227-11.792-4.44-4.625-2.792-7.962-6.746-10.394-11.536-2.585-5.095-4.1-10.534-5.098-16.137A76.608 76.608 0 01.003 5.466c-.045-1.37.453-1.83 1.83-1.697 3.182.31 6.378.537 9.542.983 4.458.629 8.796 1.799 12.992 3.454 4.701 1.853 8.987 4.365 12.48 8.11.08.085.14.188.229.31.112-.124.185-.184.231-.258 3.217-5.208 7.856-8.67 13.357-11.087 5.61-2.466 11.488-3.909 17.543-4.647C70.558.347 72.927.192 75.29.01c1.238-.096 1.76.425 1.707 1.675-.23 5.528-.976 10.984-2.36 16.341-1.163 4.506-2.775 8.832-5.137 12.862-3.406 5.814-8.317 9.758-14.561 12.087-2.884 1.076-5.859 1.79-8.897 2.246-.206.03-.409.082-.633.129zm-2.688-.207l.245-.115c-.079-2.055-.1-4.114-.25-6.164-.326-4.477-1.19-8.842-2.877-13.019-1.852-4.588-4.65-8.423-8.734-11.268-3.707-2.582-7.8-4.284-12.096-5.545-4.362-1.281-8.82-2.05-13.334-2.517C4.65 6.409 3.62 6.36 2.59 6.286c0 .47-.03.858.006 1.241.168 1.72.32 3.443.542 5.156.672 5.155 1.807 10.202 3.709 15.048 1.425 3.633 3.243 7.041 5.883 9.955 3.169 3.497 7.129 5.713 11.539 7.155 5.393 1.762 10.953 2.356 16.603 2.204.046 0 .092-.044.134-.065-.009-.037-.008-.062-.02-.073a4109.962 4109.962 0 00-9.512-9.626c-.112-.113-.342-.17-.51-.157-.846.058-1.69.148-2.534.226-2.016.186-4.032.381-6.049.556-.845.074-1.45-.413-1.51-1.169-.056-.69.511-1.252 1.322-1.321a662.75 662.75 0 004.322-.381c.793-.074 1.584-.162 2.376-.244l.104-.179c-.92-.881-1.837-1.768-2.77-2.638a.67.67 0 00-.462-.146c-.94.074-1.881.177-2.821.264-1.978.183-3.955.38-5.935.532-.771.06-1.322-.471-1.363-1.192-.038-.679.448-1.217 1.205-1.291 1.247-.123 2.498-.225 3.746-.338 1.01-.091 2.02-.187 3.032-.28-.011-.09-.002-.14-.022-.161-1.166-1.189-2.33-2.38-3.508-3.556-.091-.091-.277-.137-.412-.126-.847.064-1.69.149-2.535.228-2.055.193-4.108.393-6.164.572-.794.069-1.388-.432-1.454-1.17-.063-.71.479-1.27 1.288-1.341a751.41 751.41 0 003.976-.362c.913-.085 1.824-.18 2.835-.28-.202-.22-.326-.361-.458-.496a8273.79 8273.79 0 00-5.113-5.156c-.396-.399-.8-.787-1.184-1.198-.557-.597-.574-1.293-.066-1.82.487-.505 1.227-.482 1.809.06.113.104.218.218.327.33l6.014 6.062c.127.128.269.242.467.42.208-2.304.413-4.506.605-6.708.08-.919.588-1.447 1.368-1.387.735.056 1.17.662 1.093 1.554-.244 2.806-.503 5.611-.729 8.418-.02.248.09.578.258.755 1.011 1.07 2.057 2.106 3.093 3.151.103.104.223.19.409.345.03-.27.054-.454.07-.64.193-2.088.378-4.179.578-6.266.07-.722.601-1.198 1.27-1.18.695.02 1.18.552 1.183 1.317a9.99 9.99 0 01-.055.931c-.218 2.4-.4 4.802-.68 7.193-.092.786.106 1.297.679 1.806.74.66 1.397 1.416 2.148 2.188.054-.192.077-.243.082-.296.197-2.186.392-4.372.587-6.558.063-.702.416-1.149.997-1.256.923-.17 1.542.443 1.454 1.507-.23 2.787-.478 5.574-.743 8.358-.038.407.058.682.346.97 2.82 2.821 5.627 5.655 8.435 8.49.293.293.565.613.847.922zm1.089-15.81l-.045.037-.054-.575c-.185-2.07-.378-4.14-.55-6.212-.068-.83.36-1.37 1.083-1.446.732-.076 1.292.427 1.373 1.252.09.929.16 1.858.245 2.787.12 1.322.246 2.645.387 4.155.949-.978 1.795-1.823 2.6-2.707.176-.193.3-.536.279-.797-.227-2.828-.498-5.651-.736-8.477-.072-.877.408-1.47 1.148-1.513.718-.04 1.226.464 1.308 1.333.196 2.07.379 4.14.571 6.21.015.157.05.312.09.551 1.267-1.27 2.46-2.454 3.63-3.66.117-.12.131-.392.115-.585-.241-2.846-.5-5.69-.745-8.534-.07-.83.429-1.436 1.188-1.487.649-.044 1.188.477 1.266 1.254.093.927.16 1.858.245 2.786.12 1.325.248 2.649.372 3.974l.166.11c.204-.252.392-.52.618-.748 2-2.027 4.01-4.043 6.008-6.071.379-.384.857-.582 1.306-.36.352.173.683.564.835.937.201.492-.116.916-.479 1.28-1.927 1.935-3.845 3.878-5.766 5.82-.279.282-.552.57-.91.942.66.069 1.188.13 1.72.177 1.748.161 3.496.313 5.244.48.689.065 1.189.644 1.155 1.297-.032.63-.558 1.145-1.221 1.167a7.142 7.142 0 01-.866-.038c-2.632-.236-5.263-.484-7.897-.699a1.076 1.076 0 00-.743.272c-1.075 1.033-2.119 2.098-3.17 3.156-.085.085-.145.192-.26.346.342.038.608.071.874.096 2.016.189 4.034.37 6.049.569a1.224 1.224 0 011.123 1.311c-.04.641-.551 1.14-1.218 1.167-.269.01-.54-.007-.81-.032-2.284-.217-4.575-.384-6.85-.685-1.11-.147-1.955.034-2.65.97-.412.556-.968.999-1.457 1.498-.099.1-.178.22-.315.392 2.29.215 4.494.424 6.697.625.868.08 1.425.597 1.367 1.33-.05.62-.544 1.266-1.499 1.164-2.014-.215-4.03-.419-6.05-.536-1.292-.074-2.658-.702-3.794.342.25 2.911.499 5.827.753 8.774.03 0 .126.013.217-.002 3.051-.493 6.045-1.197 8.925-2.357 3.517-1.417 6.697-3.352 9.297-6.16 3.093-3.339 5.12-7.314 6.65-11.564 2.07-5.75 3.141-11.718 3.693-17.79.069-.748.102-1.498.153-2.265-.268 0-.457-.011-.645 0-3.815.251-7.595.755-11.334 1.566-4.804 1.043-9.455 2.513-13.796 4.893-4.037 2.212-7.316 5.215-9.66 9.224-.19.325-.179.547.02.88.84 1.414 1.74 2.808 2.422 4.3.873 1.912 1.56 3.913 2.328 5.875z" fill="#fff"/></g><defs><clipPath id="clip0_3133_5026"><path fill="#fff" d="M0 0h77v55H0z"/></clipPath></defs></svg>