<svg width="68" height="61" fill="none" xmlns="http://www.w3.org/2000/svg"><g clip-path="url(#clip0_3133_5048)" fill="#1C54AD"><path d="M68 35.53c-.03 1.57-.744 3.459-1.609 5.302-1.85 3.946-4.329 7.503-6.94 10.974-1.179 1.568-2.437 3.077-3.66 4.612-.56.706-1.382.7-2.01-.065a150.002 150.002 0 01-3.27-4.083c-2.173-2.839-4.223-5.763-5.973-8.884-1.056-1.884-2.034-3.81-2.586-5.908-.7-2.66-.285-5.236.863-7.683 1.986-4.233 5.353-6.807 9.97-7.544a13.062 13.062 0 0114.101 7.724c.767 1.772 1.102 3.394 1.113 5.554zM54.823 53.996c1.218-1.594 2.388-3.078 3.506-4.6 2.422-3.295 4.72-6.669 6.362-10.432.541-1.243.992-2.526.97-3.903-.035-2.333-.734-4.467-2.178-6.311-2.677-3.418-6.236-4.872-10.512-4.178-3.724.606-6.435 2.758-8.036 6.173-.868 1.854-1.264 3.81-.792 5.862.456 1.98 1.31 3.812 2.375 5.517 1.694 2.713 3.481 5.371 5.296 8.006.901 1.309 1.952 2.517 3.01 3.866zM13.142.001c5.555 0 10.471 3.452 12.39 8.48 1.304 3.42.945 6.674-.583 9.91-1.584 3.358-3.556 6.481-5.756 9.462-1.524 2.066-3.142 4.064-4.72 6.091a7.162 7.162 0 01-.358.42c-.563.615-1.325.64-1.847-.012-1.617-2.018-3.252-4.026-4.79-6.103-2.164-2.92-4.17-5.944-5.734-9.234-.753-1.585-1.413-3.2-1.657-4.96-.254-1.828.073-3.584.669-5.288 1.153-3.3 3.36-5.734 6.447-7.351A12.365 12.365 0 0113.143 0zm0 31.995c1.34-1.758 2.577-3.326 3.753-4.939 2.367-3.244 4.578-6.58 6.22-10.266 1.18-2.646 1.186-5.253.065-7.907-2.148-5.082-7.983-7.768-13.252-6.075-4.401 1.415-7.396 5.297-7.599 9.905-.075 1.731.508 3.334 1.297 4.821 1.173 2.209 2.385 4.41 3.771 6.49 1.786 2.678 3.76 5.235 5.745 7.971zm8.63 4.551c2.578.148 5.162.227 7.733.46 2.433.222 4.853.615 7.108 1.632 1.234.557 2.337 1.282 2.75 2.67.372 1.253-.06 2.37-.8 3.34-.742.974-1.632 1.835-2.421 2.776-.922 1.1-1.737 2.256-2.007 3.721-.269 1.451.35 2.534 1.358 3.45 1.342 1.218 2.989 1.906 4.69 2.449 3.347 1.067 6.795 1.58 10.297 1.773 1.418.079 2.837.146 4.254.208.644.027 1.041.37 1.059.945.018.592-.393 1.037-1.038 1.03-1.162-.012-2.33-.009-3.486-.118-2.217-.21-4.438-.425-6.639-.767-3.096-.48-6.125-1.24-8.858-2.853-1.887-1.115-3.35-2.57-3.664-4.859-.212-1.543.23-2.97 1.07-4.215.846-1.254 1.896-2.368 2.836-3.56.462-.586.954-1.166 1.297-1.82.403-.769.144-1.363-.648-1.912-1.145-.795-2.474-1.1-3.805-1.365-2.553-.51-5.138-.744-7.74-.788a281.716 281.716 0 00-6.756-.047c-1.364.01-2.729.102-4.092.173-.747.038-1.246-.278-1.299-.861-.055-.614.398-1.076 1.155-1.12a98.905 98.905 0 013.705-.168c1.31-.029 2.623-.007 3.934-.007.002-.055.005-.11.006-.166v-.001z"/><path d="M47.58 34.432c.082-3.693 3.415-7.185 7.89-6.81 3.69.31 6.782 3.451 6.589 7.57-.181 3.867-3.604 7.022-7.46 6.853-4.27-.189-7.303-3.76-7.018-7.612h-.001zm2.327.367c-.1 2.646 2.12 4.875 4.877 4.927 2.701.05 4.962-2.222 4.956-4.912-.007-2.717-2.184-4.848-4.9-4.907-2.638-.059-5.07 2.289-4.932 4.892h-.002zm-36.7-14.9c-3.785.117-7.284-3.04-7.277-7.177.005-3.982 3.265-7.293 7.25-7.247 4.154.047 7.274 3.275 7.273 7.28-.001 4.08-3.497 7.265-7.246 7.144zm-.062-2.31c2.773.003 5.007-2.168 4.986-4.868-.023-2.73-2.123-4.887-4.955-4.932-2.705-.043-4.96 2.267-4.92 4.953.042 2.9 2.471 4.92 4.889 4.846z"/></g><defs><clipPath id="clip0_3133_5048"><path fill="#fff" d="M0 0h68v61H0z"/></clipPath></defs></svg>