<svg width="70" height="69" fill="none" xmlns="http://www.w3.org/2000/svg"><g clip-path="url(#clip0_3133_5080)" fill="#fff"><path d="M32.31 43.122l1.535-3.678c-.3-.266-.703-.573-1.044-.938-1.185-1.272-1.186-3.051.01-4.315a49.09 49.09 0 012.395-2.373c1.444-1.333 3.105-1.278 4.504.107.887.877.88.863 1.994.36.648-.293 1.31-.562 1.986-.78.387-.126.51-.31.508-.71-.003-.616-.009-1.253.142-1.842.296-1.169 1.12-1.95 2.295-2.057a25.87 25.87 0 014.428-.03c1.568.129 2.483 1.227 2.611 2.814.004.047.013.095.017.142.043.51-.089 1.156.174 1.492.274.351.933.387 1.412.588.504.212 1.003.436 1.483.692.339.18.59.214.858-.13.233-.298.527-.553.81-.81a3.019 3.019 0 014.133.057c.806.782 1.596 1.584 2.383 2.385 1.351 1.377 1.357 3.12.006 4.517-.298.307-.638.575-.912.82.468 1.188.875 2.269 1.33 3.33.074.17.362.316.569.345.61.085 1.246.024 1.837.165 1.356.322 2.211 1.475 2.22 2.872a344.18 344.18 0 010 3.52c-.007 1.566-1.185 2.966-2.726 2.909-1.445-.055-2.219.38-2.484 1.844-.115.63-.542 1.203-.87 1.889.34.306.692.593 1.01.917 1.26 1.28 1.294 3.056.072 4.353a71.808 71.808 0 01-2.372 2.395c-1.352 1.308-3.027 1.306-4.403.024-1.054-.983-1.048-.972-2.333-.375-.516.24-1.047.463-1.593.612-.535.147-.696.427-.661.968.033.517.013 1.06-.11 1.56-.338 1.35-1.492 2.222-2.87 2.23-1.17.009-2.342.006-3.512 0a2.974 2.974 0 01-2.97-2.862c-.075-1.641-.078-1.631-1.615-2.22a9.307 9.307 0 01-1.417-.67c-.403-.24-.66-.183-.976.156-.598.646-1.214 1.27-2.143 1.466-.964.204-1.824-.004-2.525-.644a41.797 41.797 0 01-2.79-2.783c-1.097-1.21-1.04-2.873.058-4.088.35-.386.925-.736.99-1.164.065-.429-.398-.926-.596-1.407-.27-.659-.33-1.56-.809-1.93-.467-.36-1.352-.15-2.046-.248-1.335-.19-2.42-1.484-2.46-2.94a67.078 67.078 0 010-3.52c.046-1.734 1.357-3 3.087-3.02.453-.005.906 0 1.382 0l-.001.005zm29.912 16.241c-.473-.433-1.023-.891-1.523-1.402-.758-.777-.874-1.544-.306-2.46a15.64 15.64 0 001.941-4.654c.297-1.246.907-1.66 2.209-1.669.64-.004 1.279 0 1.987 0v-2.462c-.7 0-1.315.003-1.931 0-1.397-.007-2.005-.462-2.32-1.827a13.878 13.878 0 00-1.8-4.326c-.651-1.03-.565-1.828.282-2.708.476-.494.98-.963 1.447-1.419l-1.774-1.797c-.437.447-.866.896-1.305 1.334-.968.97-1.63 1.094-2.79.393a15.633 15.633 0 00-4.597-1.88c-1.092-.253-1.528-.877-1.536-2.016-.004-.707 0-1.414 0-2.139H47.67c0 .84.041 1.606-.01 2.365-.072 1.04-.511 1.555-1.525 1.791a15.51 15.51 0 00-4.654 1.928c-1.005.618-1.722.53-2.555-.314-.498-.504-.937-1.066-1.256-1.434-.763.682-1.358 1.217-2.098 1.88.545.476 1.107.896 1.581 1.399.788.833.86 1.572.266 2.525-.878 1.406-1.516 2.897-1.876 4.524-.278 1.255-.94 1.715-2.26 1.725-.637.005-1.272 0-1.899 0v2.463c.653 0 1.248-.002 1.843 0 1.39.004 2.022.473 2.33 1.805a14.252 14.252 0 001.796 4.328c.67 1.078.592 1.86-.3 2.758-.48.483-1.02.908-1.547 1.372.433.427.714.686.975.965.275.295.53.608.908 1.044.575-.63 1.03-1.183 1.54-1.678.866-.838 1.498-.93 2.498-.31a15.105 15.105 0 004.717 1.943c1.05.234 1.485.861 1.503 1.96.011.71.001 1.42.001 2.141h2.487c.03-.082.059-.125.059-.167.004-.67 0-1.34.007-2.01.01-1.003.443-1.674 1.407-1.892 1.76-.399 3.371-1.107 4.918-2.023.974-.576 1.61-.443 2.434.375.49.488.945 1.012 1.441 1.546l1.823-1.971-.002-.006z"/><path d="M.015 27.083c0-4.48.011-8.959-.009-13.44-.004-1.013.415-1.647 1.345-2.035C10.453 7.818 19.55 4.014 28.645.206c.684-.286 1.318-.266 1.999.018 8.894 3.725 17.792 7.438 26.692 11.152 1.704.712 1.907 1.002 1.907 2.832v10.277c0 1.24-.71 2.09-1.755 2.105-1.024.014-1.772-.831-1.78-2.086-.015-3.067-.021-6.133.01-9.199.005-.59-.172-.87-.73-1.101A6389.43 6389.43 0 0130.273 3.88c-.473-.198-.86-.184-1.326.011a4961.827 4961.827 0 01-24.39 10.18c-.791.329-1.08.7-1.075 1.598.047 7.186.033 14.372.023 21.56-.004 3.162.17 6.294 1.094 9.349 1.093 3.611 2.84 6.85 5.31 9.702 2.507 2.895 5.49 5.145 8.975 6.72 3.001 1.357 6.136 2.156 9.439 2.264a16.4 16.4 0 011.499.124c.93.116 1.627.943 1.56 1.822a1.77 1.77 0 01-1.755 1.645c-3.665.052-7.204-.621-10.611-1.945-3.866-1.502-7.314-3.703-10.23-6.656-4.42-4.473-7.313-9.788-8.317-16.04-.287-1.785-.402-3.61-.43-5.419C-.024 34.891.02 30.987.02 27.081l-.004.002z"/><path d="M48.92 57.086c-4.998.029-9.164-4.116-9.18-9.133-.017-4.988 4.082-9.146 9.058-9.192 5.066-.046 9.273 4.02 9.297 8.991.026 5.227-3.982 9.304-9.175 9.334zm5.631-9.12c.03-3.146-2.476-5.68-5.641-5.705-3-.025-5.523 2.505-5.599 5.521-.072 2.842 2.05 5.713 5.566 5.778 3.194.059 5.651-2.522 5.674-5.592v-.002z"/></g><defs><clipPath id="clip0_3133_5080"><path fill="#fff" d="M0 0h70v69H0z"/></clipPath></defs></svg>