<svg width="70" height="67" fill="none" xmlns="http://www.w3.org/2000/svg"><g clip-path="url(#clip0_3133_5075)" fill="#1C54AD"><path d="M40.6 33.849c-.33-.469-.64-.854-.892-1.273-2.13-3.532-1.68-7.8 1.186-10.755 1.868-1.926 3.73-3.868 5.72-5.664 3.135-2.833 8.106-2.796 11.312-.045.757.65.785 1.289.085 1.99-2.264 2.268-4.537 4.526-6.79 6.805-1.57 1.586-1.002 4.12 1.083 4.84 1.146.397 2.169.1 3.015-.74 2.187-2.17 4.36-4.355 6.534-6.538 1.074-1.08 1.565-1.057 2.5.143 2.602 3.338 2.392 8.223-.552 11.319a163.843 163.843 0 01-5.575 5.58c-3.152 3.007-8.156 3.126-11.535.335l-.25-.203c-.104.112-.207.216-.303.327L27.222 61.523c-.958 1.091-1.904 2.192-2.879 3.268-1.8 1.985-4.036 2.666-6.586 1.907-2.494-.74-3.987-2.517-4.393-5.081-.346-2.192.347-4.114 2.014-5.594 4.381-3.892 8.793-7.75 13.192-11.621 3.906-3.437 7.812-6.875 11.72-10.312.1-.088.213-.165.312-.24l-.001-.001zm22.347-9.339c-.569.585-1.077 1.12-1.598 1.64-1.558 1.56-3.082 3.156-4.69 4.662-2.017 1.889-5.147 1.771-7.086-.184-1.944-1.96-2.02-5.127-.096-7.13 1.886-1.966 3.839-3.867 5.761-5.799.138-.139.264-.289.405-.445-.094-.067-.136-.102-.182-.129-2.44-1.379-5.6-1.028-7.62.92a244.444 244.444 0 00-5.455 5.465c-1.113 1.144-1.672 2.56-1.736 4.153-.085 2.105.725 3.834 2.243 5.266.66.621.63 1.309-.047 1.905-1.952 1.72-3.906 3.436-5.86 5.155L16.943 57.62c-.88.774-1.355 1.75-1.404 2.914a4.049 4.049 0 002.53 3.92 4.025 4.025 0 004.532-1.087c2.221-2.514 4.431-5.038 6.644-7.56l12.788-14.574c1.138-1.296 2.275-2.595 3.419-3.887.55-.62 1.186-.642 1.785-.076.16.15.309.31.465.464 2.553 2.501 6.65 2.488 9.181-.033 1.65-1.643 3.287-3.297 4.94-4.936.915-.908 1.58-1.955 1.892-3.214.435-1.748.165-3.389-.766-5.042h-.001z"/><path d="M19.907 14.002c0 .319.01.605-.002.89-.028.67-.483 1.15-1.155 1.131-1.554-.044-2.839 1.205-2.798 2.885.041 1.685.011 3.372.01 5.056-.002.919-.416 1.34-1.327 1.34-4.434.002-8.87.002-13.303 0-.917 0-1.328-.419-1.328-1.336-.002-3.344-.009-6.688.001-10.031C.025 7.094 4.702 1.48 11.425.257c.883-.16 1.793-.202 2.693-.224 1.505-.035 3.011-.01 4.517-.009.868 0 1.342.508 1.286 1.37-.035.52-.028.53.492.53 2.642 0 5.283-.008 7.925.01.404.003.508-.122.496-.513-.03-1.009.369-1.402 1.367-1.395 1.93.013 3.871-.101 5.785.077 5.485.512 9.367 3.365 11.651 8.375.3.655.49 1.365.687 2.061.198.7-.136 1.3-.755 1.46-.656.17-1.212-.193-1.408-.91-1.113-4.067-3.653-6.819-7.62-8.226-1.155-.41-2.363-.58-3.591-.578-1.164.004-2.327.008-3.49-.009-.3-.004-.402.077-.401.392.01 3.59.01 7.18-.002 10.77 0 .309.074.454.388.544 2.128.616 3.542 2.424 3.553 4.648.027 5.043.012 10.085.009 15.128 0 .708-.488 1.196-1.142 1.183-.64-.013-1.093-.514-1.093-1.234-.002-4.947 0-9.895-.003-14.841 0-1.48-.838-2.533-2.217-2.795-.2-.038-.409-.027-.613-.04-.63-.037-1.075-.475-1.105-1.102-.014-.298-.003-.597-.003-.925h-8.923l-.001-.002zM17.64 2.224c-1.868.061-3.734-.051-5.543.215-5.706.839-9.778 5.572-9.85 11.307-.037 2.959-.005 5.919-.015 8.878 0 .308.07.43.409.428 3.557-.012 7.115-.011 10.673 0 .323 0 .421-.092.418-.417-.013-1.384-.032-2.769.009-4.151a4.825 4.825 0 013.488-4.49c.33-.096.448-.222.447-.578-.015-3.563-.009-7.125-.01-10.687 0-.133-.013-.266-.025-.505zm2.301 9.45h8.863c.008-.161.02-.295.02-.428.002-2.19-.007-4.382.011-6.573.003-.391-.1-.511-.5-.509-2.653.018-5.306.008-7.96.008h-.434v7.502zm36.871 47.625h.53l11.37.001c.781 0 1.265.412 1.287 1.08.019.576-.34 1.038-.908 1.145a3.23 3.23 0 01-.572.036H56.81c0 .26.007.473 0 .687-.026.722-.439 1.176-1.152 1.177-2.819.002-5.649.136-8.453-.067-4.781-.347-8.39-2.749-10.876-6.842-.38-.626-.209-1.304.374-1.638.556-.317 1.192-.112 1.568.515 1.786 2.979 4.369 4.854 7.767 5.57.651.136 1.329.203 1.996.212 2.039.028 4.077.005 6.116.02.33.002.414-.102.414-.421-.01-3.562-.01-7.125.001-10.687.001-.336-.112-.417-.425-.41-.944.02-1.884.033-2.794-.314-1.827-.695-3.136-2.564-3.127-4.519.002-.674.426-1.147 1.058-1.18.645-.034 1.118.413 1.174 1.107.135 1.682 1.186 2.664 2.87 2.678.754.007 1.506-.002 2.26.003.758.006 1.201.436 1.23 1.186.023.584.323.876.898.875 3.668 0 7.335-.002 11.003 0 .807 0 1.284.418 1.29 1.113.003.613-.414 1.077-1.03 1.112-.396.022-.793.009-1.19.009-3.489 0-6.979.007-10.468-.008-.388-.002-.513.093-.509.497.02 2.192.01 4.384.009 6.576v.488l-.003-.001zM14.583 42.384c-.098 3.203-2.722 5.794-5.923 5.789-3.198-.006-5.865-2.618-5.808-5.788a8.107 8.107 0 01.504-2.604c.903-2.452 1.888-4.873 2.87-7.294.38-.937.836-1.844 1.262-2.764.196-.421.535-.662.996-.679.463-.017.828.193 1.035.611 1.707 3.448 3.407 6.9 4.583 10.576.222.697.324 1.434.481 2.153zm-6.005-9.577c-.12.222-.198.346-.255.478-.51 1.181-1.062 2.347-1.51 3.551-.595 1.601-1.204 3.207-1.632 4.856-.466 1.801.742 3.624 2.536 4.11 2.668.725 5.178-1.704 4.37-4.351-.612-2.01-1.465-3.946-2.247-5.9-.36-.9-.808-1.764-1.261-2.745z"/></g><defs><clipPath id="clip0_3133_5075"><path fill="#fff" d="M0 0h70v67H0z"/></clipPath></defs></svg>