<svg width="65" height="65" fill="none" xmlns="http://www.w3.org/2000/svg"><g clip-path="url(#clip0_3133_5054)" fill="#1C54AD"><path d="M64.992 65H.717C.239 65 0 64.757 0 64.27V32.89c0-.393 0-.395.391-.395 2.151 0 4.302-.004 6.453.005.231.001.321-.044.334-.295.068-1.29.153-2.58.238-3.87.062-.938.138-1.876.2-2.815.085-1.298.161-2.598.244-3.896.072-1.133.147-2.265.222-3.398.073-1.095.15-2.19.222-3.285.076-1.133.15-2.265.222-3.399.014-.218.145-.24.322-.24 1.576.004 3.152.002 4.729.002 1.464 0 2.93.006 4.394-.006.264-.002.337.073.35.341.053 1.034.142 2.065.21 3.098.049.72.08 1.441.125 2.161.068 1.052.145 2.104.213 3.157.064.986.12 1.973.184 2.96.063.969.131 1.938.196 2.907.042.619.08 1.237.125 1.855.069.986.144 1.972.213 2.958.034.499.07.998.083 1.497.005.212.079.268.28.265.593-.01 1.187-.003 1.78-.003 4.886 0 9.773 0 14.66-.002.42 0 .366.039.366-.374 0-3.292.003-6.584-.007-9.876 0-.252.085-.413.271-.557 2.623-2.03 5.245-4.06 7.864-6.093a1547.32 1547.32 0 005.765-4.502c.172-.135.28-.118.45.016 1.745 1.366 3.501 2.719 5.25 4.081 2.173 1.692 4.342 3.389 6.513 5.082.597.466 1.192.935 1.8 1.389.23.171.339.352.338.66-.009 14.067-.008 28.135-.008 42.203V65zm-2.835-2.842V23.605c0-.037.012-.079-.002-.11-.049-.11-.078-.25-.164-.319-.691-.555-1.393-1.097-2.093-1.642-1.646-1.283-3.292-2.566-4.94-3.847-1.284-.997-2.574-1.985-3.849-2.991-.177-.14-.282-.175-.467-.03-1.53 1.204-3.066 2.402-4.603 3.598-2.093 1.628-4.192 3.25-6.28 4.884a.53.53 0 00-.179.367c-.01 3.802-.007 7.604-.007 11.406 0 .382.001.383-.368.383H12.74v-2.81h.345c1.168 0 2.336-.002 3.505.004.195 0 .287-.04.267-.264a122.61 122.61 0 01-.167-2.266c-.07-1.05-.135-2.102-.205-3.154-.055-.82-.115-1.64-.17-2.46-.045-.693-.085-1.386-.132-2.078-.068-1.024-.14-2.048-.209-3.073-.05-.765-.094-1.53-.146-2.295-.057-.83-.127-1.66-.174-2.49-.012-.216-.053-.306-.3-.303-1.288.013-2.577.013-3.866-.001-.227-.002-.29.07-.297.278-.013.395-.04.79-.066 1.186-.068 1.022-.14 2.044-.21 3.065-.036.543-.067 1.087-.104 1.63-.07 1.03-.147 2.06-.214 3.091-.034.508-.044 1.016-.079 1.524-.055.818-.126 1.635-.183 2.453-.052.756-.091 1.512-.143 2.268-.069 1.002-.15 2.003-.214 3.006-.05.766-.076 1.533-.125 2.3-.025.386-.042.39-.433.39-2.086 0-4.172.005-6.258-.006-.276-.002-.362.062-.362.351.008 8.726.007 17.453.007 26.179v.331h59.35v-.002zM21.23 2.783a13.38 13.38 0 015.147 1.157c.187.083.306.078.48-.077C28.802 2.14 31.023.94 33.567.357A14.34 14.34 0 0136.672 0c.902-.006 1.502.607 1.479 1.5-.02.72-.6 1.267-1.347 1.314-.653.042-1.31.088-1.953.2-1.152.203-2.246.598-3.297 1.117a16.313 16.313 0 00-3.072 1.972c-.415.337-.795.72-1.175 1.096-.136.136-.242.151-.408.063a15.355 15.355 0 00-3.713-1.366c-1.619-.38-3.216-.319-4.784.235-1.213.43-2.313 1.06-3.268 1.932-.682.625-1.494.569-2.072-.04-.554-.582-.44-1.497.196-2.068 1.651-1.48 3.558-2.455 5.725-2.894.737-.149 1.497-.19 2.246-.28v.002zm14.346 4.295c2.303-.065 4.531-.466 6.65-1.413a14.685 14.685 0 004.947-3.586c.407-.45.762-.95 1.104-1.453.461-.678 1.34-.76 1.865-.461.788.448.894 1.397.527 1.965-.554.858-1.223 1.623-1.944 2.34a18.786 18.786 0 01-3.655 2.822A18.07 18.07 0 0139.296 9.5c-1.335.265-2.681.416-4.045.387-.73-.015-1.352-.636-1.354-1.372-.003-.79.59-1.424 1.345-1.436.111-.002.223 0 .334 0v-.001z"/><path d="M55.115 39.58H57.9v5.648h-2.784V39.58zm-8.523-.01v5.659H43.81c-.007-.085-.018-.173-.018-.262-.002-1.704.001-3.409-.007-5.113 0-.209.044-.294.274-.29.833.014 1.666.005 2.533.005zM32.576 47.7v-2.773c.104-.007.194-.016.284-.016 1.687-.001 3.374.005 5.06-.007.26-.001.329.075.325.327-.015.815-.006 1.63-.006 2.47h-5.663zM12.74 39.595v2.77c-.092.007-.18.019-.268.019-1.713 0-3.426-.007-5.138.001-.216.001-.268-.068-.266-.269.01-.768.005-1.537.002-2.305-.001-.147.014-.246.204-.246 1.777.007 3.555.007 5.332.01.036 0 .071.01.134.02zm8.45 2.775c-.109.006-.191.014-.274.014-1.706-.001-3.411-.007-5.118 0-.205 0-.277-.05-.274-.261.01-.77.006-1.54.001-2.31 0-.17.048-.25.237-.248 1.761.005 3.523.003 5.285.005.044 0 .088.009.144.016v2.784zm16.96-2.801v1.704c0 .278-.012.556.003.834.013.218-.065.283-.283.282-1.427-.01-2.854-.005-4.28-.005-.297 0-.593-.005-.89.001-.152.004-.212-.053-.212-.21.005-.807-.003-1.612.008-2.419 0-.063.106-.18.163-.18 1.815-.01 3.629-.008 5.49-.008h.001zm8.425 15.526H43.81c-.007-.091-.019-.172-.02-.252-.001-1.686.004-3.372-.007-5.058-.001-.269.08-.349.347-.343.74.016 1.482.01 2.223.004.163-.002.257.025.256.223-.005 1.76-.003 3.52-.005 5.28 0 .044-.017.088-.029.146zm11.334.015h-1.02c-.529 0-1.056-.002-1.583.003-.144.002-.22-.027-.22-.196.006-1.787.007-3.574.009-5.361 0-.018.01-.035.025-.08h2.789v5.635zm-8.453 0c-.007-.12-.017-.193-.017-.266 0-1.686.004-3.372-.005-5.058-.002-.259.068-.352.34-.344.741.02 1.483.017 2.223.007.191-.002.263.045.262.244-.006 1.724-.002 3.447-.01 5.17 0 .082-.086.235-.133.236-.878.015-1.757.011-2.66.011zm-.016-9.884v-.583c0-1.574.006-3.148-.004-4.722-.002-.27.057-.37.353-.36.74.024 1.48.01 2.221.004.17-.002.252.035.251.228-.007 1.777-.005 3.555-.008 5.333 0 .027-.008.054-.016.1H49.44zm-30.987-.316c.853 0 1.705.007 2.558-.004.205-.002.27.056.268.266-.011.77-.01 1.539.003 2.308.003.206-.08.25-.262.248-1.706-.004-3.41-.006-5.115.002-.237.001-.296-.087-.293-.309.011-.722.014-1.445 0-2.168-.005-.26.066-.354.34-.348.833.017 1.668.006 2.502.006zm-8.479 2.816c-.843 0-1.687-.005-2.53.004-.214.002-.29-.055-.286-.281.013-.751.011-1.502-.002-2.252-.004-.237.08-.293.306-.292 1.677.01 3.354.01 5.032 0 .251-.001.338.063.332.326a51.698 51.698 0 000 2.196c.004.23-.06.306-.294.304-.852-.012-1.705-.005-2.557-.005zM55.11 29.68h2.793v5.602h-2.794V29.68zm-8.525 5.623H45.43c-.473 0-.945.007-1.417-.008-.075-.002-.212-.103-.212-.158-.007-1.805 0-3.61.005-5.416 0-.006.011-.013.03-.034h2.75v5.616zm2.883-5.623h2.788v.3c0 1.679-.002 3.357.005 5.035 0 .204-.036.298-.274.293-.769-.015-1.538-.008-2.308-.004-.152 0-.24-.027-.24-.21.005-1.762.004-3.523.006-5.285 0-.035.013-.07.023-.128zm-19.815 9.916v2.77c-.101.007-.198.018-.295.018-1.669.002-3.337-.005-5.006.007-.26.001-.33-.078-.324-.33.015-.751.009-1.502.004-2.253-.002-.152.018-.242.205-.242 1.77.006 3.54.005 5.311.007.026 0 .052.011.106.024zm-5.533 8.1v-2.768c.1-.006.19-.017.28-.017 1.677 0 3.354.005 5.03-.006.247-.001.316.069.31.312-.014.75-.007 1.5-.002 2.251 0 .16-.019.262-.22.261-1.751-.005-3.502-.004-5.253-.006-.044 0-.089-.016-.146-.027z"/></g><defs><clipPath id="clip0_3133_5054"><path fill="#fff" d="M0 0h65v65H0z"/></clipPath></defs></svg>