<svg width="104" height="53" fill="none" xmlns="http://www.w3.org/2000/svg"><path d="M26.575 52.975c-5.46 0-10.183-1.04-14.17-3.12-3.943-2.123-6.998-5.092-9.165-8.905-2.167-3.813-3.25-8.255-3.25-13.325 0-5.07 1.083-9.512 3.25-13.325 2.167-3.813 5.222-6.76 9.165-8.84 3.987-2.123 8.71-3.185 14.17-3.185 5.417 0 10.097 1.062 14.04 3.185 3.987 2.08 7.063 5.027 9.23 8.84 2.167 3.813 3.25 8.255 3.25 13.325 0 5.07-1.083 9.512-3.25 13.325-2.167 3.813-5.243 6.782-9.23 8.905-3.943 2.08-8.623 3.12-14.04 3.12zm0-8.97c4.897 0 8.688-1.43 11.375-4.29 2.73-2.903 4.095-6.933 4.095-12.09 0-5.2-1.365-9.23-4.095-12.09-2.687-2.86-6.478-4.29-11.375-4.29s-8.71 1.43-11.44 4.29c-2.73 2.86-4.095 6.89-4.095 12.09s1.365 9.23 4.095 12.09c2.73 2.86 6.543 4.29 11.44 4.29zm40.442-26.29c-1.976 0-3.705-.351-5.187-1.053-1.482-.728-2.652-1.742-3.51-3.042-.832-1.326-1.248-2.847-1.248-4.563 0-1.716.416-3.224 1.248-4.524.858-1.3 2.028-2.314 3.51-3.042C63.338.763 65.067.399 67.017.399c1.976 0 3.705.364 5.187 1.092 1.482.728 2.639 1.742 3.47 3.042.833 1.3 1.249 2.808 1.249 4.524 0 1.716-.416 3.237-1.248 4.563-.832 1.3-1.99 2.314-3.471 3.042-1.482.702-3.211 1.053-5.187 1.053zm0-3.9c1.456 0 2.613-.416 3.47-1.248.859-.858 1.288-2.028 1.288-3.51 0-1.482-.43-2.639-1.287-3.471-.832-.858-1.99-1.287-3.471-1.287-1.482 0-2.652.429-3.51 1.287-.832.832-1.248 1.989-1.248 3.471s.416 2.652 1.248 3.51c.858.832 2.028 1.248 3.51 1.248zm27.027 16.731c-1.95 0-3.68-.351-5.187-1.053-1.482-.728-2.64-1.742-3.471-3.042-.832-1.326-1.248-2.847-1.248-4.563 0-1.716.416-3.224 1.248-4.524.832-1.3 1.989-2.314 3.47-3.042 1.509-.728 3.25-1.092 5.227-1.092 1.976 0 3.705.364 5.187 1.092 1.482.728 2.639 1.742 3.471 3.042.832 1.3 1.248 2.808 1.248 4.524 0 1.716-.416 3.237-1.248 4.563-.832 1.3-1.989 2.314-3.471 3.042-1.482.702-3.224 1.053-5.226 1.053zm0-3.9c1.482 0 2.639-.416 3.47-1.248.859-.858 1.288-2.028 1.288-3.51 0-1.456-.416-2.613-1.248-3.471-.832-.858-1.99-1.287-3.471-1.287-1.482 0-2.652.429-3.51 1.287-.832.858-1.248 2.015-1.248 3.471 0 1.482.416 2.652 1.248 3.51.858.832 2.015 1.248 3.47 1.248zM86.049.75h4.914L75.05 30h-4.914L86.049.75z" fill="#fff"/></svg>