<svg width="72" height="62" fill="none" xmlns="http://www.w3.org/2000/svg"><g clip-path="url(#clip0_3133_3432)"><mask id="a" style="mask-type:luminance" maskUnits="userSpaceOnUse" x="0" y="0" width="72" height="62"><path d="M72 0H0v62h72V0z" fill="#fff"/></mask><g mask="url(#a)"><path d="M15.838 43.84c.015.175.023.31.023.401 0 .077-.008.227-.024.44a17.56 17.56 0 01-2.162-.128l-.473-.013-.382-.04c-.339-.023-.61-.037-.82-.037-.315 0-1.296.077-2.947.23l-.449-.026c-.067 0-.17.004-.3.013-.039-.194-.058-.52-.058-.977.086-.054.366-.135.843-.248.701-.168 1.221-.367 1.56-.597l-.06-2.479.024-2.6-.035-.882.012-.357-.827-.027c-.481 0-.82.059-1.017.18-.193.123-.366.317-.516.58-.15.266-.516 1.03-1.1 2.301a63.58 63.58 0 00-1.433 3.365l-.694 1.741-1.237-.108-3.108.122H.496l-.484-.014A4.738 4.738 0 010 44.386c0-.122.028-.248.079-.389.177-.077.433-.176.772-.294a2.03 2.03 0 00.973-.732c.24-.335.827-1.398 1.757-3.188 1.15-2.217 1.935-3.47 2.36-3.763-2.242-.679-3.364-2.053-3.364-4.125 0-1.289.433-2.36 1.3-3.215.866-.855 2.375-1.285 4.53-1.285.635 0 1.218.037 1.757.105.717.076 1.565.113 2.542.113l.449-.014.417-.014c.954 0 1.659.046 2.112.136a.823.823 0 01.035.14v.34c0 .257-.007.407-.023.443a5.043 5.043 0 01-.69.09 8.218 8.218 0 00-1.237.2c-.04.501-.055 1.654-.055 3.45l.055 3.477-.012 1.23.048 1.896-.012 1.135c0 1.836.027 2.89.083 3.16.275.123.65.222 1.119.29.393.063.673.154.843.267zm-5.224-8.548l-.024-1.334-.012-.606.012-1.443-.024-1.08v-2.036c-.213-.045-.532-.068-.95-.068-1.181 0-2.04.253-2.584.76-.543.506-.815 1.357-.815 2.555 0 1.095.283 1.913.855 2.46.571.547 1.477.819 2.726.819l.816-.027zm14.63 5.942c.122.081.213.131.276.158.177.086.319.2.425.33-.205.882-.709 1.646-1.509 2.289-.8.646-1.812.968-3.033.968-.768 0-1.533-.186-2.285-.557-.753-.37-1.351-.859-1.8-1.465-.343-.47-.603-1.045-.777-1.723-.173-.678-.26-1.257-.26-1.732 0-.575.107-1.221.323-1.95a6.11 6.11 0 011.084-2.057 5.484 5.484 0 011.922-1.533c.773-.38 1.643-.57 2.612-.57 1.328 0 2.254.24 2.778.715.524.479.784.958.784 1.433 0 .47-.107.841-.315 1.108-.213.272-.505.407-.871.407-.315 0-.607-.117-.87-.357-.265-.24-.485-.642-.663-1.203-.138-.407-.315-.706-.531-.89a1.164 1.164 0 00-.769-.263c-.725 0-1.367.353-1.938 1.063-.567.71-.851 1.673-.851 2.898 0 1.47.347 2.637 1.044 3.505.693.864 1.481 1.298 2.368 1.298.437 0 .807-.059 1.115-.172.193-.077.453-.248.784-.515.082-.068.244-.258.476-.566.237-.307.394-.515.481-.62zm5.877-2.374l.43.04 1.627-.027.441.028.788.026c.307 0 .721-.013 1.241-.04l.012-1.51c0-1.276-.012-2.013-.04-2.212-.027-.194-.248-.298-.661-.307-.17-.01-.442-.037-.816-.082l-.15-.923c1.02.073 1.758.11 2.207.11l.598-.014.922.013c1.032 0 1.761-.036 2.183-.109l-.15.923c-.48.063-.76.095-.839.095-.35.005-.547.072-.591.19-.043.118-.067.588-.075 1.41l-.035 1.634-.035 2.37c0 1.885.059 2.966.173 3.25.476.132.839.218 1.087.25.122.018.244.045.358.081l.012.814-1.37-.072a23.805 23.805 0 00-1.238-.036l-1.682.058-1.43.05.012-.814a1.92 1.92 0 01.354-.081c.43-.06.792-.145 1.08-.25.138-.894.209-1.93.209-3.106l-.024-.755c-.492.027-.97.04-1.434.04a29.96 29.96 0 01-1.501-.027l-.981-.027c-.201 0-.41.014-.634.04l.011.666-.023 1.881c0 .48.051.909.15 1.289.476.131.839.217 1.087.249.122.018.24.045.347.081l.023.814-1.37-.072a23.803 23.803 0 00-1.238-.036l-1.682.058-1.43.05.012-.814a1.92 1.92 0 01.354-.081c.422-.06.78-.145 1.08-.25.106-.592.161-1.677.161-3.25l-.047-3.709c-.012-1.09-.055-1.678-.122-1.773-.071-.09-.26-.136-.572-.136a12.161 12.161 0 01-.811-.08l-.15-.924c1.02.073 1.757.11 2.21.11l.6-.014.921.013c1.04 0 1.765-.036 2.179-.109l-.142.923c-.489.063-.772.095-.847.095-.367.005-.571.072-.615.19-.043.118-.067.592-.075 1.41a51.097 51.097 0 01-.059 2.389zm13.924-.38l1.288-.04.426-.028c1.918 0 3.203.267 3.849.796.65.53.973 1.253.973 2.175 0 1.104-.39 1.94-1.17 2.515-.78.574-1.872.864-3.278.864l-1.544-.028-4.645.163.023-.786.753-.132a2.79 2.79 0 00.681-.176c.115-.24.174-1.43.174-3.577l-.036-2.257-.035-1.57c0-.79-.02-1.243-.063-1.365-.04-.118-.24-.181-.603-.19l-.84-.095-.101-.724 1.406-.013.425-.023c.34-.018.804-.027 1.395-.027l1.316-.027.843.014c.146 0 .39-.032.737-.096l-.138.896c-.509.063-.816.09-.926.09-.453 0-.72.064-.808.181-.082.118-.126.425-.126.918l.012 1.258v.7c0 .177.004.371.012.584zm.059 5.106c.268.095.67.145 1.202.145 1.737 0 2.604-.715 2.604-2.144 0-.615-.217-1.126-.654-1.52-.434-.398-1.088-.596-1.962-.596-.359 0-.765.036-1.214.103a4.8 4.8 0 00-.011.186l.011.823c-.04.9-.059 1.777-.059 2.632 0 .113.028.24.083.37zm6.84-8.837l-.15-.896c1.016.073 1.753.11 2.218.11l.599-.014.921.013c1.04 0 1.773-.036 2.195-.109l-.15.896-.839.095c-.355 0-.551.059-.591.176-.043.122-.07.575-.075 1.366l-.035 1.583L56 40.212c0 2.148.06 3.338.174 3.577.456.127.819.204 1.087.24.114.018.236.045.358.081l.012.76-.8-.036c-.823-.05-1.43-.072-1.816-.072l-3.128.108.012-.76c.118-.036.236-.063.362-.08.457-.069.82-.15 1.091-.24.08-.462.119-1.561.119-3.298v-1.768l.012-1.474c0-1.217-.016-1.922-.048-2.121-.03-.2-.252-.303-.661-.312a9.04 9.04 0 01-.832-.068zm14.276 0l-.153-.896c1.017.082 1.753.122 2.218.122l.6-.013.921.013c1.04 0 1.773-.04 2.195-.122l-.15.896-.84.095c-.37 0-.571.067-.602.203-.036.136-.06.868-.075 2.194l-.024.877-.035 1.099c0 2.844.059 4.364.173 4.55.457.121.82.203 1.087.234.115.018.237.046.36.082l.01.787-.799-.036c-.82-.05-1.422-.073-1.816-.073l-3.128.109.011-.787c.119-.036.237-.064.363-.081a7.3 7.3 0 001.095-.236c.09-.556.138-1.669.138-3.337v-.94l-.047-1.444c0-.13.016-.37.047-.714-2.376 2.998-3.892 4.807-4.542 5.422.031.43.09.769.173 1.013.457.122.82.204 1.092.24a1.9 1.9 0 01.346.077l.024.787-.796-.036a32.83 32.83 0 00-1.812-.073l-3.113.109.012-.787a2.24 2.24 0 01.358-.081c.446-.068.808-.15 1.088-.236.09-.56.138-1.144.138-1.75l-.012-2.12v-1.941l-.012-.714-.012-.86c-.008-.787-.035-1.243-.079-1.365-.047-.127-.248-.19-.61-.2-.146 0-.417-.022-.816-.067l-.15-.896c1.013.073 1.75.109 2.211.109l.598-.014.923.014c1.04 0 1.764-.036 2.178-.109l-.137.896-.848.095c-.378 0-.583.067-.618.203-.036.136-.056.873-.064 2.198l-.035.81-.035.958.012 2.537 2.108-2.622a39.059 39.059 0 011.544-1.923c.413-.475.693-.827.839-1.058a9.41 9.41 0 00.024-.493c0-.398-.23-.61-.686-.638a11.766 11.766 0 01-.84-.067zm-4.502-5.432c0-.37.114-.683.342-.94.225-.258.505-.385.836-.385.28 0 .508.086.693.253.185.168.43.561.729 1.19.41.846.859 1.27 1.351 1.27.497 0 .942-.424 1.344-1.27.26-.547.488-.923.686-1.13a.995.995 0 01.756-.313c.319 0 .587.131.803.39.22.261.331.573.331.935 0 .72-.382 1.262-1.142 1.637-.764.376-1.678.566-2.743.566-1.24 0-2.213-.2-2.923-.602-.709-.402-1.063-.936-1.063-1.6zm-42.89 23.368a.549.549 0 00-.312.09c-.07.053-.19.205-.36.457l-.276.4c-.1.142-.165.236-.193.284a6.063 6.063 0 00-.436-.026c-.109 0-.21.005-.302.014l-.139.011a.637.637 0 01-.005-.071l.006-.1c.15-.048.253-.094.312-.136.059-.043.152-.157.28-.343.245-.36.42-.589.529-.688a.889.889 0 01.312-.2 2.877 2.877 0 01-.213-.273c-.196-.272-.349-.409-.459-.409-.043 0-.089.032-.138.094-.076.099-.159.147-.247.147a.255.255 0 01-.204-.086.305.305 0 01-.074-.206c0-.103.037-.193.11-.268.072-.075.175-.112.31-.112.28 0 .566.22.859.664.138.208.245.349.323.422a.755.755 0 00.317.164l.003-.582a.962.962 0 00-.02-.267c-.014-.033-.064-.051-.149-.053a1.64 1.64 0 01-.198-.018l-.036-.216c.25.017.431.026.543.026l.146-.004.227.004c.255 0 .433-.01.534-.026l-.034.216-.206.024c-.073 0-.119.01-.134.028-.016.019-.028.071-.036.16l-.005.096c-.013.157-.02.263-.02.317v.295a.88.88 0 00.325-.167 2.6 2.6 0 00.323-.42c.292-.442.576-.663.853-.663.134 0 .237.037.31.112a.376.376 0 01.109.268.312.312 0 01-.073.202.24.24 0 01-.199.09c-.092 0-.176-.048-.251-.147-.05-.062-.095-.094-.136-.094a.289.289 0 00-.189.084 2.027 2.027 0 00-.269.325 2.41 2.41 0 01-.214.273c.123.046.235.12.337.223.102.103.27.324.504.664.128.189.22.304.277.345.057.042.161.087.314.135l.003.1-.003.072c-.022 0-.069-.005-.137-.012a2.936 2.936 0 00-.3-.014c-.12 0-.266.009-.436.026a6.108 6.108 0 00-.194-.282l-.277-.402c-.17-.251-.291-.404-.365-.461-.072-.057-.18-.086-.323-.086v.713l.003.103.002.116c.048.043.137.072.27.09l.067.012v.08l.003.057c0 .01-.002.027-.006.05l-.02.01-.296-.017a3.776 3.776 0 00-.382-.022c-.068 0-.199.011-.393.031-.052 0-.094.003-.124.004-.042.002-.08.004-.116.004a.434.434 0 01-.012-.1l.003-.084a.307.307 0 01.105-.037.498.498 0 00.07-.016l.106-.01a.223.223 0 00.083-.02c.02-.03.032-.251.033-.666v-.298zm4.44-1.104l-.037-.21c.25.02.43.03.544.03l.147-.004.226.003c.255 0 .435-.01.538-.028l-.036.21-.206.021c-.091 0-.14.016-.148.048a4.942 4.942 0 00-.018.513l-.006.205-.009.257c0 .665.014 1.02.042 1.063.113.03.202.048.267.055a.785.785 0 01.088.02l.003.183-.196-.008a8.929 8.929 0 00-.446-.017l-.767.026.003-.185a.667.667 0 01.089-.019 1.86 1.86 0 00.268-.055c.023-.13.034-.39.034-.78v-.22l-.011-.337c0-.03.004-.087.011-.167-.582.7-.954 1.124-1.114 1.268.008.1.022.18.043.236.112.03.2.048.267.056.028.004.057.01.085.018l.006.184-.195-.008a9.023 9.023 0 00-.445-.017l-.763.026.003-.185a.652.652 0 01.088-.019c.109-.016.198-.034.266-.055.023-.13.034-.267.034-.409l-.003-.496v-.453l-.003-.167-.003-.201a1.636 1.636 0 00-.019-.32c-.011-.03-.06-.044-.15-.046-.035 0-.102-.005-.2-.016l-.037-.21c.249.018.43.026.543.026l.147-.003.226.003c.255 0 .433-.008.534-.025l-.034.21-.207.021c-.093 0-.143.016-.152.048a4.928 4.928 0 00-.016.514l-.008.189-.009.224.003.593.517-.613c.15-.187.276-.337.379-.45.101-.11.17-.193.206-.247.004-.057.005-.096.005-.115 0-.093-.055-.143-.168-.15a3.097 3.097 0 01-.206-.015zm4.203 2.354h-.065l-.385-.01-.203-.003-.208-.003-.147.01-.291.006a.321.321 0 01-.018-.091c0-.024.005-.062.015-.112l.122-.022c.134-.02.2-.054.2-.1a.329.329 0 00-.027-.12 4.155 4.155 0 01-.08-.224 8.331 8.331 0 00-.22-.557l-.075-.195a5.285 5.285 0 00-.175-.422 5.55 5.55 0 00-.113.341 14.75 14.75 0 01-.2.6c-.113.325-.173.54-.181.649.05.01.114.016.193.018l.043.006c.03.003.068.004.114.004l.042.009a.906.906 0 01.006.104c0 .058-.008.095-.023.112l-.05.006a.686.686 0 01-.049.006l-.244-.006-.142.003a1.577 1.577 0 00-.264-.022l-.116.007-.123.009-.067-.003a.921.921 0 01-.006-.089c0-.022.002-.052.005-.089.192-.048.324-.095.398-.137.034-.066.085-.2.151-.398.129-.38.3-.84.512-1.38a8.45 8.45 0 00.133-.35c.023-.067.048-.132.077-.196h.227c.235.598.436 1.084.6 1.458l.277.68.089.208a.492.492 0 00.135.045c.078.02.124.041.139.064a.517.517 0 01-.006.184zm2.42-2.29c.122.128.212.274.271.44.06.166.09.323.09.47 0 .277-.04.5-.117.668a1.254 1.254 0 01-.473.567c-.2.121-.43.183-.692.183a1.27 1.27 0 01-.751-.217 1.306 1.306 0 01-.44-.492 1.578 1.578 0 01-.131-.685 1.449 1.449 0 01.233-.78 1.25 1.25 0 01.622-.472c.128-.042.282-.063.464-.063.395 0 .703.127.924.38zm-1.547 1.073c.016.257.028.403.036.444.024.138.063.257.115.356a.48.48 0 00.177.171.56.56 0 00.296.074.463.463 0 00.346-.143c.094-.096.161-.248.202-.453a3.87 3.87 0 00.04-.66c0-.377-.057-.644-.17-.799a.52.52 0 00-.443-.235.504.504 0 00-.359.133.736.736 0 00-.198.395c-.025.112-.039.35-.043.717zm3.963-1.137l-.038-.21c.25.02.43.03.544.03l.147-.004.227.003c.255 0 .434-.01.538-.028l-.037.21-.206.021c-.09 0-.14.016-.148.048a4.976 4.976 0 00-.018.513l-.006.205-.009.257c0 .665.015 1.02.043 1.063.112.03.201.048.267.055a.785.785 0 01.088.02l.003.183-.197-.008a8.929 8.929 0 00-.445-.017l-.768.026.003-.185a.664.664 0 01.09-.019c.111-.016.201-.034.268-.055.022-.13.034-.39.034-.78v-.22l-.012-.337c0-.03.004-.087.012-.167-.583.7-.955 1.124-1.114 1.268.007.1.022.18.042.236a2.3 2.3 0 00.268.056c.028.004.057.01.085.018l.006.184-.196-.008a9.023 9.023 0 00-.444-.017l-.764.026.003-.185a.652.652 0 01.088-.019c.11-.016.198-.034.267-.055.022-.13.034-.267.034-.409l-.003-.496v-.453l-.003-.167-.003-.201a1.64 1.64 0 00-.02-.32c-.01-.03-.06-.044-.15-.046-.035 0-.102-.005-.2-.016l-.036-.21c.248.018.43.026.542.026l.147-.003.226.003c.256 0 .433-.008.535-.025l-.034.21-.208.021c-.093 0-.143.016-.151.048a4.878 4.878 0 00-.016.514l-.009.189-.008.224.002.593.518-.613c.15-.187.276-.337.378-.45.102-.11.17-.193.206-.247.004-.057.006-.096.006-.115 0-.093-.056-.143-.168-.15a3.1 3.1 0 01-.206-.015zm-1.105-1.27a.31.31 0 01.084-.22.267.267 0 01.205-.09.25.25 0 01.17.06c.046.039.106.13.18.278.1.197.21.297.33.297.123 0 .232-.1.33-.297.064-.128.12-.216.169-.265a.25.25 0 01.185-.072c.078 0 .144.03.197.09a.32.32 0 01.081.22c0 .167-.093.294-.28.382a1.575 1.575 0 01-.673.132c-.304 0-.543-.047-.717-.14-.174-.095-.26-.22-.26-.375zm5.591 1.06l-.034.216-.205.025c-.074 0-.119.01-.137.028-.016.018-.028.072-.033.16 0 .025-.002.06-.006.106-.013.17-.02.277-.02.317v.29a.867.867 0 00.327-.166c.077-.07.184-.209.325-.42.293-.442.58-.663.858-.663.137 0 .242.037.313.11a.37.37 0 01.108.27.312.312 0 01-.072.202.242.242 0 01-.2.09c-.094 0-.178-.048-.254-.147-.05-.062-.095-.094-.136-.094a.296.296 0 00-.192.084 2.02 2.02 0 00-.268.325 2.532 2.532 0 01-.214.274c.1.033.203.099.31.198.107.1.285.329.53.688.128.186.22.3.278.344a1.2 1.2 0 00.317.136l.003.1c0 .016 0 .04-.003.072a1.99 1.99 0 01-.138-.012 2.974 2.974 0 00-.303-.014c-.12 0-.265.009-.437.026a4.982 4.982 0 00-.195-.283l-.277-.403c-.17-.25-.29-.404-.364-.46-.074-.056-.182-.085-.327-.085v.713l.003.103.003.116c.047.043.136.072.268.09l.068.012v.08l.003.057c0 .01-.002.027-.006.05l-.02.01-.295-.017a3.735 3.735 0 00-.38-.022c-.067 0-.198.011-.391.031-.052 0-.094.003-.124.004a2.28 2.28 0 01-.115.004.434.434 0 01-.011-.1c0-.02 0-.05.002-.084a.305.305 0 01.106-.037.498.498 0 00.07-.016l.109-.01a.21.21 0 00.082-.02c.02-.02.032-.325.033-.919l.003-.101.003-.326.003-.369c0-.148-.007-.24-.02-.274-.013-.034-.064-.052-.153-.054-.043 0-.11-.006-.202-.019l-.037-.215c.25.017.43.025.54.025l.147-.003.226.003c.253 0 .43-.008.531-.025zm1.655 2.564l.006-.184c.017-.007.078-.017.185-.031a.846.846 0 00.167-.043c.028-.056.042-.333.042-.833l-.008-.522-.01-.367c0-.183-.004-.29-.015-.317-.01-.027-.059-.042-.148-.042l-.206-.021-.025-.178.346-.002 1.088-.023c.414 0 .69.068.829.206.138.136.208.282.208.436 0 .222-.171.393-.512.514.441.086.662.294.662.624a.63.63 0 01-.294.554c-.196.131-.457.197-.784.197l-.39.007-1.14.025zm1.006-1.491c.051.008.118.013.201.013.417 0 .626-.15.626-.449 0-.09-.045-.182-.135-.272-.09-.09-.245-.136-.468-.136a1.72 1.72 0 00-.241.02 7.63 7.63 0 01.014.519v.17l.003.135zm.015 1.19a.974.974 0 00.296.035c.428 0 .643-.166.643-.495 0-.322-.254-.483-.761-.483a.526.526 0 00-.184.018.761.761 0 00-.003.044l.003.189c-.01.207-.015.41-.015.607a.21.21 0 00.02.085zm4.42-.317l.065.047a.09.09 0 01.031.053l.003.016c-.045.184-.105.31-.178.38a.388.388 0 01-.274.102.437.437 0 01-.288-.1c-.079-.067-.152-.185-.218-.355a.818.818 0 01-.344.355c-.148.08-.329.12-.542.12-.197 0-.342-.045-.435-.134a.472.472 0 01-.14-.356c0-.068.014-.136.042-.207a.683.683 0 01.134-.208c.06-.07.16-.146.296-.229.02-.011.093-.047.216-.105l.707-.31a3.07 3.07 0 00.009-.237c0-.28-.03-.47-.094-.57-.037-.062-.104-.093-.199-.093a.582.582 0 00-.26.059.397.397 0 00-.175.151.832.832 0 00-.067.257.548.548 0 01-.037.158.372.372 0 01-.155.107 1.719 1.719 0 00-.152.07.57.57 0 01-.245.08.144.144 0 01-.036-.105c0-.117.022-.219.067-.303a1.3 1.3 0 01.308-.348 1.42 1.42 0 01.384-.236c.162-.058.361-.087.596-.087.15 0 .28.03.389.091a.48.48 0 01.227.27c.043.12.064.336.064.647l-.006.51.006.375v.096c0 .086.01.145.032.178.02.031.048.047.082.047.02 0 .038-.006.052-.019l.085-.145.05-.022zm-.928-.717a1.71 1.71 0 00-.366.197.89.89 0 00-.284.277.509.509 0 00-.057.25c0 .089.025.162.075.22a.22.22 0 00.17.087.388.388 0 00.271-.1c.101-.088.16-.159.177-.212.017-.052.026-.201.026-.447 0-.09-.004-.18-.011-.272zm1.079 2.88v-.144c.034-.022.058-.038.074-.046l.216-.087c.09-.04.141-.07.152-.094.03-.06.043-.171.04-.327l-.018-1.232-.03-1.531c-.005-.112-.026-.192-.064-.24-.037-.046-.138-.095-.3-.147v-.159c.184-.04.339-.087.465-.146.093-.041.218-.12.375-.235l.146-.006.002.087-.002.333.002.092a1.86 1.86 0 01.404-.216c.155-.05.326-.074.513-.074.192 0 .362.054.51.161l.05.035a.893.893 0 01.206.213c.094.146.161.291.203.434.032.108.048.241.048.403 0 .215-.025.396-.076.546-.051.148-.14.298-.264.448a1.12 1.12 0 01-.4.322 1.08 1.08 0 01-.45.097 1.18 1.18 0 01-.331-.032 1.62 1.62 0 01-.376-.175l-.005.068.005.083.001.084c0 .015 0 .096-.003.244l.009.564-.006.124v.035a.66.66 0 00.015.166c.008.02.025.044.05.068a.528.528 0 01.055.029 1.7 1.7 0 01.155.037c.044.012.091.022.14.03a.15.15 0 01.026.092l-.003.1h-.051c-.11 0-.186-.003-.23-.007l-.426-.039h-.105l-.1-.003-.098.01-.153.01a2.352 2.352 0 00-.187.015 1.257 1.257 0 01-.147.013l-.037-.003zm1.071-2.22a.467.467 0 01.015.056.49.49 0 00.079.202.424.424 0 00.2.148c.114.035.213.053.299.053a.645.645 0 00.287-.068.61.61 0 00.226-.182.43.43 0 01.033-.044l.031-.075c.076-.16.113-.332.113-.514 0-.334-.09-.616-.272-.846-.127-.163-.305-.244-.538-.244-.139 0-.295.04-.471.117-.004.08-.006.307-.006.68l.006.597-.002.12zm2.137-1.236a.676.676 0 00.045-.132l.035-.105c.04-.127.081-.275.123-.444l.029-.098h.127l.023.037a.756.756 0 00.09.144c.02.006.117.009.292.009l.588-.01.223.004h.657a.892.892 0 00.062-.007c.036-.003.06-.011.074-.023a.269.269 0 00.048-.098l.025-.053c.038-.002.093-.003.166-.003l.002.477.003.205c0 .127-.004.2-.011.22a.564.564 0 01-.16.037c-.03-.05-.072-.14-.123-.274a.642.642 0 00-.103-.2c-.024-.018-.104-.027-.24-.027l-.157.003c-.055 0-.116-.003-.183-.01l.006.258-.006.332-.011.547c0 .52.013.809.04.867.117.03.206.05.264.059.03.003.059.01.087.018l.003.19-.335-.016a5.911 5.911 0 00-.3-.01l-.413.015-.35.011.006-.19a.382.382 0 01.084-.018c.105-.015.194-.035.265-.06.03-.16.046-.38.046-.655l-.012-.671c0-.333-.004-.554-.014-.664a4.224 4.224 0 00-.2-.006c-.167 0-.273.013-.319.04-.044.026-.117.109-.216.246l-.053.07c-.036.05-.062.075-.08.075-.035 0-.077-.03-.127-.09zm5.229 1.293l.065.047a.088.088 0 01.03.053l.003.016c-.045.184-.104.31-.178.38a.388.388 0 01-.274.102.436.436 0 01-.287-.1c-.08-.067-.153-.185-.219-.355a.817.817 0 01-.344.355c-.148.08-.329.12-.542.12-.197 0-.342-.045-.435-.134a.472.472 0 01-.14-.356c0-.068.014-.136.043-.207a.688.688 0 01.133-.208c.061-.07.16-.146.296-.229a5 5 0 01.216-.105l.707-.31c.007-.077.01-.157.01-.237 0-.28-.032-.47-.094-.57-.038-.062-.105-.093-.2-.093a.582.582 0 00-.26.059.397.397 0 00-.174.151.844.844 0 00-.068.257.523.523 0 01-.037.158.37.37 0 01-.154.107 1.737 1.737 0 00-.153.07.571.571 0 01-.245.08.144.144 0 01-.036-.105c0-.117.022-.219.067-.303a1.3 1.3 0 01.308-.348 1.42 1.42 0 01.384-.236 1.79 1.79 0 01.596-.087c.15 0 .28.03.39.091a.487.487 0 01.226.27c.043.12.064.336.064.647l-.006.51.006.375v.096c0 .086.01.145.032.178.021.031.048.047.082.047.02 0 .038-.006.052-.019l.085-.145.05-.022zm-.928-.717a1.72 1.72 0 00-.367.197.886.886 0 00-.284.277.506.506 0 00-.057.25c0 .089.025.162.075.22a.218.218 0 00.17.087.389.389 0 00.271-.1c.102-.088.16-.159.177-.212.017-.052.026-.201.026-.447 0-.09-.004-.18-.011-.272zm3.78 1.335h-.064l-.385-.01-.202-.003-.21-.003-.146.01-.291.006a.312.312 0 01-.018-.091c0-.024.005-.062.015-.112l.122-.022c.134-.02.2-.054.2-.1a.335.335 0 00-.028-.12 4.07 4.07 0 01-.08-.224 7.938 7.938 0 00-.22-.557l-.075-.195a5.398 5.398 0 00-.175-.422 5.717 5.717 0 00-.112.341c-.042.139-.109.339-.2.6-.114.325-.174.54-.181.649.049.01.114.016.193.018l.042.006c.031.003.07.004.114.004l.043.009a.953.953 0 01.006.104c0 .058-.007.095-.023.112l-.05.006a.813.813 0 01-.048.006l-.245-.006-.142.003a1.58 1.58 0 00-.264-.022l-.116.007-.123.009-.068-.003a.885.885 0 010-.178 1.75 1.75 0 00.397-.137c.034-.066.085-.2.152-.398.129-.38.299-.84.511-1.38a7.44 7.44 0 00.134-.35c.023-.067.048-.132.077-.196h.227c.236.598.437 1.084.6 1.458l.277.68.089.208a.502.502 0 00.135.045c.077.02.124.041.138.064a.474.474 0 01-.005.184zm-42.503 6.266l.005-.184a1.31 1.31 0 01.18-.03.876.876 0 00.162-.043c.027-.057.041-.334.041-.833l-.008-.522-.009-.367c0-.184-.004-.29-.015-.317-.01-.028-.057-.043-.143-.043l-.2-.021-.024-.177.334-.003 1.057-.023c.402 0 .67.07.804.206.135.137.202.283.202.438 0 .22-.166.391-.497.513.429.086.643.294.643.624a.635.635 0 01-.286.554c-.19.131-.443.197-.76.197l-.38.006-1.106.025zm.976-1.49c.05.008.115.012.195.012.405 0 .607-.15.607-.448 0-.091-.043-.182-.13-.272-.087-.09-.238-.136-.455-.136-.062 0-.14.006-.234.018a7.9 7.9 0 01.014.52v.17l.003.136zm.014 1.19c.064.022.16.034.288.034.416 0 .624-.165.624-.495 0-.322-.247-.482-.74-.482a.51.51 0 00-.177.018 1.02 1.02 0 00-.003.043l.003.19c-.01.207-.014.41-.014.606 0 .027.006.056.02.086zm2.825-1.181l.306-.01.102-.006c.457 0 .762.063.916.186a.615.615 0 01.232.508c0 .259-.093.454-.279.589-.185.134-.445.201-.78.201l-.368-.005-1.106.038.006-.185.179-.03a.664.664 0 00.162-.041c.027-.057.042-.335.042-.837l-.009-.528-.008-.367c0-.185-.005-.29-.015-.319-.01-.028-.058-.042-.144-.044l-.2-.023-.024-.168.335-.004.101-.005a6.62 6.62 0 01.332-.006l.314-.007.2.003c.035 0 .093-.007.176-.021l-.033.208a2.561 2.561 0 01-.22.022c-.108 0-.172.014-.193.042-.02.028-.03.1-.03.215l.003.293v.164c0 .042 0 .087.003.137zm.014 1.194a.93.93 0 00.286.034c.414 0 .62-.168.62-.501a.454.454 0 00-.156-.356c-.103-.093-.259-.14-.467-.14-.085 0-.182.01-.289.025l-.003.043.003.193c-.01.21-.014.415-.014.615 0 .026.007.056.02.087zm1.628-2.067l-.035-.209a8.5 8.5 0 00.528.026l.142-.004.22.004c.247 0 .422-.009.522-.026l-.035.21-.2.022c-.085 0-.132.013-.14.041a1.544 1.544 0 00-.019.32l-.008.37-.009.524c0 .502.014.78.042.836.108.03.195.048.258.056a.77.77 0 01.086.02l.003.177-.19-.008a7.865 7.865 0 00-.433-.018l-.745.026.003-.178a.632.632 0 01.086-.019 1.54 1.54 0 00.26-.056c.019-.108.028-.365.028-.77v-.414l.003-.345a5.52 5.52 0 00-.011-.495c-.008-.047-.06-.071-.158-.073a2.17 2.17 0 01-.198-.017zm3.816 1.517c.03.019.05.03.066.037.042.02.076.047.101.077a.956.956 0 01-.36.535c-.19.151-.43.226-.721.226-.183 0-.365-.043-.545-.13a1.157 1.157 0 01-.428-.342 1.162 1.162 0 01-.185-.403 1.656 1.656 0 01-.062-.405 1.57 1.57 0 01.335-.936c.121-.151.273-.27.458-.36a1.42 1.42 0 01.622-.132c.316 0 .536.056.661.166.125.112.187.224.187.335 0 .11-.026.197-.076.26a.25.25 0 01-.207.095.305.305 0 01-.207-.084.636.636 0 01-.158-.28.464.464 0 00-.126-.21.28.28 0 00-.183-.06c-.173 0-.326.082-.462.248-.135.166-.202.391-.202.678 0 .343.082.616.248.82.165.201.353.302.564.302a.774.774 0 00.265-.04.836.836 0 00.187-.12.978.978 0 00.114-.132c.056-.072.093-.12.114-.145zm2.67-1.453c.119.128.206.275.264.441.057.166.087.322.087.47 0 .276-.038.498-.113.668-.115.255-.267.445-.46.566a1.233 1.233 0 01-.671.183c-.287 0-.53-.071-.73-.216a1.288 1.288 0 01-.426-.493 1.617 1.617 0 01-.127-.684 1.483 1.483 0 01.227-.78 1.23 1.23 0 01.603-.473 1.39 1.39 0 01.45-.062c.383 0 .682.126.897.38zm-1.501 1.073c.016.257.028.404.035.444.024.139.061.258.112.357a.472.472 0 00.172.171c.08.05.176.074.287.074a.442.442 0 00.336-.144c.09-.096.156-.247.196-.452a4.04 4.04 0 00.038-.66c0-.378-.054-.644-.164-.8a.501.501 0 00-.43-.234.48.48 0 00-.349.133.742.742 0 00-.192.395c-.024.111-.037.35-.041.716zm3.534-1.346l-.032.216-.2.025c-.072 0-.116.009-.133.028-.015.018-.027.072-.032.16 0 .025-.002.06-.006.105-.012.17-.019.277-.019.317v.291a.835.835 0 00.317-.167 2.55 2.55 0 00.316-.419c.284-.443.562-.663.832-.663.134 0 .235.036.304.11.07.074.105.164.105.269a.319.319 0 01-.07.203.232.232 0 01-.195.09c-.09 0-.172-.049-.246-.147-.048-.063-.092-.094-.132-.094a.282.282 0 00-.186.083 1.96 1.96 0 00-.26.326 2.496 2.496 0 01-.208.274.839.839 0 01.301.198c.104.1.276.328.515.688.124.186.213.3.27.344.056.042.158.087.307.136l.003.1-.003.072c-.022 0-.067-.005-.134-.012a2.805 2.805 0 00-.294-.014c-.116 0-.258.009-.425.026a4.889 4.889 0 00-.188-.284l-.27-.402c-.164-.25-.282-.405-.353-.46-.071-.057-.176-.085-.317-.085v.712l.003.104.003.115c.046.044.132.073.26.09.026.004.048.009.066.013v.079l.003.057a.352.352 0 01-.006.051l-.018.01-.288-.017a3.521 3.521 0 00-.368-.022c-.066 0-.193.01-.38.031-.05 0-.091.002-.12.004a2.14 2.14 0 01-.112.004.453.453 0 01-.011-.1c0-.021 0-.05.003-.085a.29.29 0 01.102-.037.496.496 0 00.069-.015l.105-.01a.2.2 0 00.08-.021c.019-.02.03-.325.032-.918l.003-.101.003-.327.003-.368c0-.148-.007-.24-.02-.274-.012-.034-.062-.052-.148-.054-.043 0-.108-.006-.196-.02l-.036-.215c.242.017.417.026.524.026l.143-.004.218.004c.246 0 .418-.009.516-.026zm3.89.273c.119.128.206.275.264.441.057.166.086.322.086.47 0 .276-.037.498-.112.668-.115.255-.268.445-.46.566a1.233 1.233 0 01-.671.183c-.288 0-.53-.071-.73-.216a1.29 1.29 0 01-.426-.493 1.618 1.618 0 01-.128-.684 1.48 1.48 0 01.227-.78 1.23 1.23 0 01.603-.473c.124-.042.274-.062.45-.062.384 0 .683.126.897.38zm-1.501 1.073c.015.257.028.404.035.444.024.139.061.258.112.357a.471.471 0 00.171.171c.081.05.177.074.288.074a.442.442 0 00.335-.144c.091-.096.157-.247.196-.452a3.98 3.98 0 00.039-.66c0-.378-.055-.644-.164-.8a.501.501 0 00-.43-.234.48.48 0 00-.349.133.742.742 0 00-.192.395c-.024.111-.038.35-.041.716zm3.846-1.137l-.036-.209c.242.02.417.029.528.029l.142-.003.22.003c.248 0 .422-.01.523-.029l-.036.21-.2.022c-.088 0-.136.015-.143.047a5.095 5.095 0 00-.018.514l-.006.204-.008.257c0 .665.014 1.02.04 1.064.11.029.196.048.26.055.027.004.056.01.085.02l.003.183-.19-.008a7.762 7.762 0 00-.433-.018l-.745.026.003-.184a.566.566 0 01.086-.019c.11-.016.197-.035.261-.055.022-.13.033-.39.033-.78v-.22l-.011-.337c0-.031.004-.087.011-.168-.566.702-.927 1.124-1.081 1.268.007.1.021.18.04.237.11.029.196.048.26.056.028.003.056.01.083.018l.006.184-.19-.008a7.84 7.84 0 00-.431-.018l-.741.026.003-.184a.556.556 0 01.085-.019c.106-.016.192-.035.259-.055a2.57 2.57 0 00.033-.41l-.003-.495v-.454l-.003-.166-.003-.202a1.695 1.695 0 00-.018-.319c-.012-.03-.06-.044-.146-.046-.035 0-.1-.006-.194-.017l-.036-.209c.241.017.417.026.526.026l.143-.004.22.004c.247 0 .42-.009.518-.026l-.032.21-.202.022c-.09 0-.139.015-.147.047a4.993 4.993 0 00-.015.515l-.009.189-.008.224.002.593.502-.614c.146-.187.269-.337.368-.449a2.44 2.44 0 00.2-.247c.004-.058.005-.097.005-.115 0-.093-.054-.143-.163-.15a2.812 2.812 0 01-.2-.016zm-1.072-1.27c0-.086.027-.159.082-.22a.255.255 0 01.199-.089c.066 0 .12.02.165.059.044.039.102.131.173.278.098.198.205.298.322.298.118 0 .224-.1.32-.298.062-.128.116-.216.163-.264a.239.239 0 01.18-.073c.076 0 .14.03.192.09a.325.325 0 01.078.22c0 .168-.09.295-.272.382-.182.088-.4.133-.652.133-.296 0-.528-.047-.696-.14-.17-.095-.254-.22-.254-.376zm5.427 1.062l-.033.215-.2.025c-.071 0-.115.009-.132.028-.016.018-.027.072-.033.16 0 .025-.002.06-.005.105-.013.17-.02.277-.02.317v.291a.836.836 0 00.318-.167 2.52 2.52 0 00.315-.419c.284-.443.563-.663.833-.663.133 0 .234.036.304.11.07.074.105.164.105.269a.319.319 0 01-.07.203.232.232 0 01-.196.09c-.09 0-.171-.049-.246-.147-.047-.063-.091-.094-.132-.094a.282.282 0 00-.185.083c-.062.055-.15.164-.261.326a2.496 2.496 0 01-.207.274.84.84 0 01.3.198c.105.1.276.328.516.688.123.186.212.3.269.344.056.042.158.087.307.136l.003.1c0 .016 0 .04-.003.072-.021 0-.066-.005-.133-.012a2.813 2.813 0 00-.294-.014 4.31 4.31 0 00-.425.026 4.91 4.91 0 00-.189-.284l-.269-.402c-.165-.25-.282-.405-.353-.46-.072-.057-.177-.085-.318-.085v.712l.003.104.003.115c.046.044.132.073.26.09.026.004.049.009.067.013v.079l.002.057a.359.359 0 01-.005.051l-.019.01-.287-.017a3.515 3.515 0 00-.369-.022c-.065 0-.192.01-.38.031-.05 0-.09.002-.12.004-.04.002-.077.004-.112.004a.466.466 0 01-.01-.1c0-.021 0-.05.002-.085a.29.29 0 01.102-.037.493.493 0 00.069-.015l.105-.01a.196.196 0 00.08-.021c.02-.02.03-.325.033-.918l.002-.101.003-.327.003-.368c0-.148-.007-.24-.02-.274-.012-.034-.062-.052-.148-.054-.042 0-.108-.006-.196-.02l-.036-.215c.242.017.418.026.525.026l.142-.004.219.004c.246 0 .417-.009.516-.026zm1.465.031a.85.85 0 01.234-.016c.167.015.303.022.409.022h.142l.392-.025a.423.423 0 01.039.04c-.006.092-.01.15-.014.176a.8.8 0 01-.063.012.84.84 0 00-.095.018 1.25 1.25 0 01-.066.013c-.028.009-.043.024-.047.043.012.05.022.091.033.125l.131.303c.105.289.21.556.32.799l.154.356c.01-.024.082-.228.212-.61.158-.451.242-.707.256-.764a.35.35 0 00.01-.081.516.516 0 00-.016-.102.366.366 0 00-.099-.065 1.243 1.243 0 00-.179-.032l-.087-.025-.009-.044a.644.644 0 01-.003-.048.51.51 0 01.01-.082c.053-.004.093-.007.117-.007l.223.018.148.008c.063 0 .17-.01.324-.03.095-.013.166-.02.214-.021a.898.898 0 01.003.173.506.506 0 01-.11.043 3.45 3.45 0 00-.173.053.267.267 0 00-.059.062c-.03.078-.093.25-.188.514l-.198.599-.458 1.235-.315.817c-.07.157-.152.292-.246.404a.365.365 0 01-.12.1.66.66 0 01-.258.048c-.008 0-.059-.008-.15-.021a.378.378 0 01-.197-.133.252.252 0 01-.058-.157.46.46 0 01.13-.313c.077-.054.135-.08.171-.08.083 0 .18.048.29.144.052.047.093.071.125.071.03 0 .056-.02.074-.059.159-.35.26-.599.307-.744l-.51-1.263c-.19-.507-.336-.86-.438-1.063a.76.76 0 00-.108-.183.282.282 0 00-.097-.052.298.298 0 01-.083-.036l-.024-.14zm5.295 2.531h-.063l-.373-.01-.197-.003-.203-.003-.142.01-.282.006a.329.329 0 01-.017-.09c0-.025.004-.063.014-.113l.118-.022c.13-.02.195-.054.195-.1a.34.34 0 00-.027-.12 4.225 4.225 0 01-.078-.224 8.38 8.38 0 00-.214-.556l-.072-.196a5.396 5.396 0 00-.17-.422c-.023.062-.06.176-.11.342-.04.138-.105.338-.194.6-.11.325-.168.541-.175.649.047.01.11.016.187.018l.041.006c.03.002.067.003.111.003l.041.01a.888.888 0 01.006.103c0 .058-.008.095-.022.112l-.05.007a.71.71 0 01-.046.006l-.237-.006-.138.003a1.443 1.443 0 00-.257-.023l-.112.007-.119.01-.066-.004a.922.922 0 010-.177c.186-.049.315-.096.386-.138a3.61 3.61 0 00.147-.397c.125-.38.29-.84.496-1.38a7.31 7.31 0 00.13-.351c.022-.067.047-.131.075-.196h.22c.228.599.423 1.085.583 1.458l.268.68.086.208a.47.47 0 00.132.046c.075.02.12.041.134.063a.512.512 0 01-.006.184zm1.044-1.481l.308-.01.101-.006c.458 0 .764.063.919.186a.614.614 0 01.231.508c0 .259-.093.454-.28.589-.185.134-.446.201-.782.201l-.368-.005-1.108.031.005-.184.18-.03a.708.708 0 00.162-.04c.027-.057.041-.335.041-.835l-.008-.528-.009-.365c0-.184-.005-.29-.015-.318-.009-.028-.057-.043-.143-.044l-.2-.023-.024-.168.334-.004.102-.005a6.61 6.61 0 01.332-.006l.313-.007.2.003c.036 0 .094-.007.176-.021l-.033.208c-.12.015-.193.022-.218.022-.107 0-.17.014-.192.042-.02.028-.03.1-.03.215l.003.293v.164l.003.137zm.011 1.194a.94.94 0 00.288.034c.416 0 .624-.168.624-.501a.455.455 0 00-.156-.356c-.105-.093-.261-.14-.47-.14-.086 0-.183.01-.291.025a.96.96 0 00-.003.043l.003.193c-.01.21-.014.415-.014.615 0 .026.006.056.02.087zm1.747-1.623a.67.67 0 00.044-.133l.034-.104c.038-.127.079-.275.119-.444l.028-.099h.124l.022.037a.703.703 0 00.088.144c.019.006.112.01.283.01l.57-.01.217.003h.637a.887.887 0 00.061-.006c.035-.004.058-.011.071-.023a.282.282 0 00.047-.099l.025-.053c.036-.002.09-.003.16-.003l.003.477.002.205c0 .128-.003.2-.01.22a.535.535 0 01-.155.037 1.97 1.97 0 01-.12-.273.646.646 0 00-.1-.2c-.023-.018-.102-.028-.234-.028l-.151.003a1.66 1.66 0 01-.178-.01l.006.259-.006.332-.011.546c0 .521.013.81.038.868.115.03.201.05.257.058a.55.55 0 01.085.019l.003.19-.326-.017a5.631 5.631 0 00-.29-.009l-.401.014-.34.012.006-.19a.396.396 0 01.082-.02c.102-.013.188-.033.257-.057a3.91 3.91 0 00.043-.656l-.01-.671c0-.334-.004-.554-.014-.665a4.105 4.105 0 00-.194-.006c-.162 0-.265.014-.31.04-.042.027-.113.11-.21.247l-.051.07c-.035.05-.06.074-.077.074-.034 0-.075-.03-.124-.09zm2.491-.621a.852.852 0 01.235-.016c.167.015.303.022.408.022h.142l.393-.025a.369.369 0 01.038.04 2.51 2.51 0 01-.014.176.781.781 0 01-.063.012.87.87 0 00-.095.018 1.17 1.17 0 01-.065.013c-.028.009-.043.024-.047.043.011.05.022.091.033.125l.131.303c.104.289.21.556.32.799l.153.356c.011-.024.082-.228.213-.61.157-.451.242-.707.255-.764a.35.35 0 00.011-.081.494.494 0 00-.017-.102.37.37 0 00-.098-.065 1.237 1.237 0 00-.18-.032l-.087-.025-.008-.044a.606.606 0 01.006-.13c.054-.004.093-.007.118-.007l.222.018.148.008c.063 0 .171-.01.325-.03.094-.013.166-.02.214-.021a.88.88 0 01.003.173.507.507 0 01-.11.043 3.55 3.55 0 00-.174.053.257.257 0 00-.058.062c-.03.078-.094.25-.188.514l-.199.599-.457 1.235-.315.817c-.07.157-.152.292-.246.404a.364.364 0 01-.121.1.66.66 0 01-.257.048c-.009 0-.06-.008-.151-.021a.379.379 0 01-.196-.133.252.252 0 01-.058-.157c0-.112.043-.217.129-.313.078-.054.135-.08.172-.08.082 0 .179.048.29.144.051.047.092.071.124.071.031 0 .057-.02.075-.059.158-.35.26-.599.306-.744l-.51-1.263a13.19 13.19 0 00-.437-1.063.754.754 0 00-.108-.183.282.282 0 00-.098-.052.301.301 0 01-.082-.036c-.01-.05-.017-.096-.025-.14zm2.675 4.076v-.144c.032-.022.056-.038.07-.046l.21-.087c.088-.039.138-.07.148-.093.03-.06.042-.17.038-.328l-.017-1.232-.028-1.53c-.005-.113-.026-.192-.063-.24-.036-.046-.134-.096-.291-.147v-.159c.18-.04.33-.088.452-.146.09-.041.21-.12.364-.235l.14-.007.004.088-.003.333c0 .011 0 .042.003.092.16-.11.29-.181.392-.216.15-.05.316-.074.497-.074.186 0 .352.054.496.16.01.01.027.02.047.035a.863.863 0 01.2.214c.092.146.157.291.197.433.031.108.047.242.047.403 0 .215-.024.397-.073.546-.05.148-.136.298-.257.448-.12.152-.25.26-.388.323a1.028 1.028 0 01-.436.096c-.15 0-.257-.01-.322-.032a1.542 1.542 0 01-.365-.174l-.005.068.005.083v.084l-.002.244.009.563-.006.124v.035a.71.71 0 00.014.167.22.22 0 00.05.068.43.43 0 01.052.029c.057.011.107.024.15.037.044.011.09.022.138.03a.157.157 0 01.023.091c0 .022 0 .056-.002.1h-.05c-.106 0-.18-.003-.222-.007l-.415-.038h-.101l-.096-.003-.096.01-.148.009a2.051 2.051 0 00-.182.016 1.22 1.22 0 01-.143.012l-.036-.003zm1.038-2.22a.479.479 0 01.015.057c.02.095.046.162.076.202a.408.408 0 00.196.148c.11.035.206.053.289.053a.613.613 0 00.279-.068.6.6 0 00.219-.183.319.319 0 01.033-.043.816.816 0 01.03-.075c.073-.16.11-.332.11-.514 0-.334-.089-.617-.265-.846a.614.614 0 00-.523-.244c-.134 0-.286.04-.456.117-.004.08-.006.306-.006.679l.006.597-.003.12zm3.152-.806l.307-.01.101-.006c.457 0 .763.063.916.186a.614.614 0 01.233.508c0 .259-.093.454-.279.589-.186.134-.445.201-.78.201l-.368-.005-1.106.038.006-.184.179-.031a.64.64 0 00.162-.041c.027-.056.041-.335.041-.837l-.008-.527-.009-.368c0-.184-.004-.29-.014-.319-.01-.028-.058-.042-.145-.044l-.199-.023-.024-.168.334-.004.102-.005c.08-.004.191-.006.332-.006l.313-.007.201.003c.035 0 .093-.007.176-.021l-.033.208a2.573 2.573 0 01-.221.022c-.107 0-.171.014-.192.042-.02.028-.03.1-.03.215l.003.293v.165c0 .041 0 .087.002.136zm.014 1.194c.065.022.16.034.287.034.413 0 .62-.167.62-.501a.454.454 0 00-.156-.356c-.103-.093-.26-.14-.467-.14-.085 0-.182.01-.29.025 0 .025-.002.039-.002.043l.003.193c-.01.21-.014.415-.014.615 0 .026.006.056.02.087zm1.629-2.067l-.036-.209c.242.017.418.026.528.026l.143-.004.22.004c.247 0 .422-.009.522-.026l-.036.21-.2.022c-.084 0-.131.013-.14.041a1.67 1.67 0 00-.018.32l-.009.37-.008.524c0 .502.014.78.041.836.11.03.196.048.26.056a.792.792 0 01.085.02l.003.177-.19-.008a7.885 7.885 0 00-.433-.018l-.745.026.002-.177a.578.578 0 01.087-.02c.108-.016.195-.034.26-.056.019-.108.028-.365.028-.77v-.413l.003-.345c0-.285-.004-.45-.012-.496-.007-.047-.06-.071-.157-.073-.036 0-.102-.006-.198-.017z" fill="#E9EEF3"/><path fill-rule="evenodd" clip-rule="evenodd" d="M70.434 54.475H58.47s-.597.284.471.62c1.07.334 10.995-.322 11.494-.62zm-69.092 0h11.965s.597.284-.472.62c-1.069.334-10.994-.322-11.493-.62z" fill="#E9EEF3"/><path fill-rule="evenodd" clip-rule="evenodd" d="M31.897 28.506s-5.34-5.998-6.631-8.997c0 0-3.345 2.259-2.973 2.882.371.623 9.604 6.115 9.604 6.115z" fill="#9C9C9C"/><path fill-rule="evenodd" clip-rule="evenodd" d="M20.707 8.378s5.408-6.366 6.391-6.726c.983-.36 1.5.309 2.096 2.318.595 2.008 4.5 23.351 4.5 23.877 0 .526.135 1.429-1.098-.067-1.232-1.497-10.155-15.459-11.889-19.402z" fill="#E3E3E3"/><path fill-rule="evenodd" clip-rule="evenodd" d="M34.513 28.018S38.79 4.434 38.97 3.466c.18-.968.533-2.987.124-3.312-.408-.325-4.385-.244-8.634 1.329.762 3.884 1.82 7.723 2.286 11.653l1.766 14.882z" fill="#DEDEDE"/><path fill-rule="evenodd" clip-rule="evenodd" d="M35.707 25.736s9.15-16.209 9.582-17.285c.432-1.075 1.433-2.329.136-3.252-1.298-.922-4.716-2.972-4.778-2.685l-4.94 23.222z" fill="#BEBEBE"/><path fill-rule="evenodd" clip-rule="evenodd" d="M35.736 27.024s12.72-9.832 13.69-10.68c.971-.85 1.421-1.18.782-2.57-.64-1.392-2.843-3.679-2.843-3.679l-11.629 16.93z" fill="#ABABAB"/><path fill-rule="evenodd" clip-rule="evenodd" d="M35.523 27.732s11.25-6.555 13.146-8.488c0 0 2.865 4.126 2.842 4.621-.024.495.378.92-3.032 1.509-3.41.59-12.956 2.358-12.956 2.358z" fill="#BCBCBC"/></g></g><defs><clipPath id="clip0_3133_3432"><path fill="#fff" d="M0 0h72v62H0z"/></clipPath></defs></svg>