<svg width="29" height="37" viewBox="0 0 29 37" fill="none" xmlns="http://www.w3.org/2000/svg">
<g clip-path="url(#clip0_3133_1910)">
<path d="M21.8295 0C21.8654 0 21.9007 0 21.9365 0C22.0259 0.20752 22.1249 0.410761 22.2025 0.622559C22.5123 1.47189 22.8302 2.31855 23.1165 3.17537C23.3669 3.92469 23.6254 4.67614 23.7977 5.44525C24.0546 6.59303 24.2756 7.75203 24.442 8.91586C24.5849 9.91495 24.6528 10.9263 24.7096 11.9351C24.7411 12.4993 24.6962 13.0689 24.6614 13.6353C24.6234 14.2584 24.6015 14.8869 24.495 15.4998C24.3232 16.4935 24.1306 17.4878 23.8667 18.4602C23.6447 19.2785 23.3653 20.0925 23.0084 20.8611C22.5749 21.7938 22.0842 22.709 21.5266 23.5722C20.7036 24.8467 19.7329 26.0143 18.5267 26.9529C17.7588 27.5509 16.9684 28.1275 16.1465 28.6479C15.545 29.0287 14.8841 29.3202 14.235 29.6197C13.4591 29.977 12.673 30.3139 11.8816 30.6354C10.51 31.1921 9.1262 31.7189 7.75521 32.2784C6.38101 32.8389 5.06353 33.5091 3.82472 34.3343C2.85936 34.9772 2.00316 35.7415 1.20582 36.5764C1.09505 36.6925 0.998195 36.8224 0.873511 36.9711C0.862808 36.9032 0.853711 36.8839 0.858527 36.8684C1.19459 35.7913 1.50817 34.7061 1.87419 33.639C2.4746 31.8901 3.24946 30.2128 4.04787 28.5473C4.2357 28.1547 4.45349 27.7771 4.64881 27.3878C4.86607 26.9551 5.05979 26.5096 5.28936 26.0833C5.62381 25.4623 5.96897 24.8462 6.33178 24.2418C7.00015 23.1288 7.67655 22.0211 8.36579 20.9215C8.73449 20.3337 9.13262 19.7636 9.5254 19.1918C9.95029 18.573 10.3698 17.9499 10.8193 17.3493C11.386 16.5919 11.9763 15.8523 12.5638 15.1104C13.1268 14.3991 13.6849 13.6829 14.2704 12.9903C14.9221 12.2196 15.5916 11.4628 16.2744 10.7199C16.9893 9.94222 17.7155 9.17365 18.4631 8.42754C19.1191 7.77289 19.8116 7.15515 20.488 6.52082C20.4104 6.52243 20.3462 6.55024 20.291 6.59089C19.5189 7.16424 18.7295 7.71727 17.9809 8.3195C16.9577 9.14263 15.949 9.98555 14.9655 10.8552C14.2741 11.4665 13.633 12.1345 12.9737 12.7817C12.544 13.2032 12.1084 13.6193 11.7001 14.0611C11.1613 14.644 10.6417 15.2457 10.1221 15.8464C9.62173 16.4251 9.09998 16.9893 8.64405 17.6017C7.77822 18.7639 6.93861 19.9465 6.11666 21.1403C5.70194 21.7425 5.34662 22.3859 4.97042 23.0144C4.64828 23.5524 4.30901 24.0824 4.02272 24.6392C3.61442 25.4335 3.23448 26.2427 2.86738 27.0567C2.53507 27.7937 2.23326 28.5441 1.92342 29.2908C1.7966 29.5967 1.68315 29.9085 1.54616 30.2642C1.4964 30.1492 1.46589 30.0877 1.44342 30.024C1.22027 29.3934 0.989633 28.7655 0.778793 28.1312C0.415979 27.0417 0.221194 25.9175 0.104537 24.7777C0.0767102 24.5039 0.0339002 24.2317 -0.00195312 23.9584C-0.00195312 23.1743 -0.00195312 22.3897 -0.00195312 21.6056C0.0141006 21.5874 0.0429973 21.5703 0.0451378 21.5505C0.120055 20.9065 0.157514 20.2556 0.274171 19.6197C0.434173 18.749 0.61344 17.8772 0.862273 17.0289C1.06669 16.3331 1.34817 15.6522 1.66389 14.9976C1.98871 14.3237 2.35474 13.6615 2.77802 13.0454C3.20612 12.4218 3.69736 11.835 4.21322 11.2804C4.78045 10.6701 5.37391 10.0759 6.01552 9.54697C6.72724 8.96078 7.50049 8.44626 8.35455 8.07401C9.11924 7.7408 9.87537 7.38246 10.6556 7.0899C11.705 6.69572 12.7736 6.35288 13.8348 5.98972C15.1565 5.53724 16.444 5.00828 17.6555 4.30603C18.5203 3.80488 19.3535 3.25453 20.054 2.53837C20.4767 2.10622 20.8684 1.63662 21.2205 1.1451C21.4705 0.796918 21.6299 0.384018 21.8295 0Z" fill="#E9EEF3"/>
<path d="M1.2873 37C1.80583 36.3854 2.42872 35.8886 3.07194 35.4142C4.03998 34.7001 5.10327 34.1492 6.19064 33.6529C6.96443 33.2994 7.77461 33.0229 8.57355 32.726C9.3147 32.4506 10.0607 32.1853 10.8093 31.9313C11.7393 31.6157 12.679 31.3279 13.6064 31.0049C14.157 30.8129 14.697 30.5888 15.2321 30.3561C16.2644 29.9069 17.2634 29.3939 18.2144 28.7874C19.473 27.9846 20.5689 26.9994 21.5428 25.8752C22.3546 24.9382 23.0406 23.9145 23.6346 22.8255C24.2077 21.7746 24.707 20.6899 25.042 19.5432C25.3513 18.4837 25.6044 17.4059 25.8329 16.3261C25.9469 15.788 25.9688 15.2281 26.0009 14.6766C26.0518 13.8022 26.1171 12.9256 26.0999 12.0516C26.0834 11.2001 25.9876 10.3492 25.895 9.50148C25.8099 8.719 25.7425 7.9269 25.5536 7.16688C25.4407 6.71226 25.5761 6.54272 25.9132 6.2999C26.6918 5.73992 27.3859 5.07938 27.8926 4.24824C27.899 4.23807 27.9242 4.23968 27.9911 4.22363C28.1853 5.24946 28.3951 6.26941 28.5663 7.29578C28.6846 8.00338 28.7574 8.719 28.8355 9.43248C28.8863 9.89619 28.9099 10.3626 28.9489 10.8279C28.9511 10.8562 28.9821 10.8819 28.9993 10.9092V13.9038C28.9811 13.984 28.9559 14.0637 28.9463 14.1455C28.8392 15.0767 28.7376 16.0084 28.6289 16.9396C28.4984 18.0563 28.2067 19.1388 27.8643 20.2037C27.6384 20.906 27.35 21.59 27.0605 22.2698C26.5671 23.4294 25.9416 24.5194 25.1993 25.5361C24.7734 26.1196 24.2982 26.6673 23.8337 27.2214C22.9957 28.2205 22.0143 29.0634 20.9397 29.7945C19.7753 30.5872 18.5151 31.1889 17.1869 31.6665C15.6249 32.2286 14.0077 32.5656 12.3976 32.9357C11.4894 33.1443 10.5696 33.3004 9.66413 33.5192C8.47241 33.8069 7.28283 34.1091 6.10556 34.4514C5.53137 34.6183 4.97377 34.8601 4.43383 35.1205C3.74512 35.4532 3.07301 35.8233 2.4132 36.21C2.06858 36.4122 1.7657 36.6855 1.44195 36.924C1.39593 36.9577 1.3376 36.9748 1.28516 37H1.2873Z" fill="#E9EEF3"/>
</g>
<defs>
<clipPath id="clip0_3133_1910">
<rect width="29" height="37" fill="white"/>
</clipPath>
</defs>
</svg>
