<svg width="36" height="29" viewBox="0 0 36 29" fill="none" xmlns="http://www.w3.org/2000/svg">
<g clip-path="url(#clip0_3133_1950)">
<path d="M0 11.1569C0 11.1438 0 11.1304 0 11.1173C0.0240144 11.0877 0.0520312 11.06 0.071643 11.0275C0.864919 9.71955 1.65739 8.41119 2.44987 7.10282C3.49169 5.38181 4.53272 3.66001 5.57575 1.9398C5.96878 1.29135 6.36782 0.646467 6.76406 0C14.2618 0 21.7599 0 29.2576 0C29.3056 0.0712142 29.3564 0.14045 29.4008 0.213643C29.8299 0.918267 30.2594 1.62329 30.6864 2.3291C32.4331 5.21446 34.1789 8.10022 35.9244 10.9864C35.95 11.0287 35.9664 11.0766 36 11.1506C34.9926 11.1506 34.0124 11.1506 33.0146 11.1506C33.0146 11.257 33.0146 11.3413 33.0146 11.4255C33.0146 17.1943 33.0146 22.9626 33.013 28.7314C33.013 28.8208 32.991 28.9106 32.9794 29C23.0002 29 13.0206 29 3.04142 29C3.02982 28.9106 3.0078 28.8208 3.0078 28.7314C3.0062 22.9563 3.0062 17.1812 3.0062 11.4061C3.0062 11.3235 3.0062 11.2412 3.0062 11.1569C1.98359 11.1569 0.991795 11.1569 0 11.1569ZM22.253 12.5357C22.253 17.237 22.253 21.9269 22.253 26.6175C22.8021 26.6175 23.3248 26.6175 23.8643 26.6175C23.8643 21.9185 23.8643 17.233 23.8643 12.5388C25.6166 12.5388 27.352 12.5388 29.1035 12.5388C29.1035 17.2386 29.1035 21.9229 29.1035 26.6179C29.6146 26.6179 30.1093 26.6179 30.6072 26.6179C30.6072 21.458 30.6072 16.3116 30.6072 11.1462C30.5179 11.1462 30.4395 11.1462 30.3614 11.1462C27.8067 11.1462 25.252 11.145 22.6972 11.1494C22.5503 11.1498 22.4543 11.1078 22.3574 10.9967C21.2291 9.7057 20.0953 8.41989 18.9626 7.13289C18.6492 6.77682 18.3358 6.42115 18.0148 6.05637C17.9588 6.11572 17.9172 6.15686 17.8787 6.20078C16.4887 7.78173 15.0983 9.36229 13.7114 10.946C13.5918 11.0829 13.4757 11.1561 13.2764 11.1553C10.726 11.1466 8.1753 11.1498 5.62457 11.1498C5.55413 11.1498 5.48409 11.1498 5.40925 11.1498C5.40925 16.3211 5.40925 21.4659 5.40925 26.6155C5.91475 26.6155 6.40945 26.6155 6.92255 26.6155C6.92255 21.915 6.92255 17.2299 6.92255 12.5404C8.67641 12.5404 10.4118 12.5404 12.1689 12.5404C12.1689 17.2449 12.1689 21.932 12.1689 26.6167C12.714 26.6167 13.2367 26.6167 13.7767 26.6167C13.7767 21.9174 13.7767 17.2323 13.7767 12.5353C16.6052 12.5357 19.4156 12.5357 22.253 12.5357ZM19.7603 26.7022C19.7603 24.2124 19.7603 21.7433 19.7603 19.2733C18.5868 19.2733 17.4249 19.2733 16.2618 19.2733C16.2618 21.7567 16.2618 24.2251 16.2618 26.7022C17.4309 26.7022 18.5888 26.7022 19.7603 26.7022ZM27.6002 16.35C27.6002 15.6074 27.6002 14.8743 27.6002 14.1416C26.8505 14.1416 26.1153 14.1416 25.3744 14.1416C25.3744 14.8842 25.3744 15.6125 25.3744 16.35C26.1221 16.35 26.8601 16.35 27.6002 16.35ZM10.64 16.3488C10.64 15.605 10.64 14.8723 10.64 14.1408C9.89273 14.1408 9.1623 14.1408 8.41945 14.1408C8.41945 14.8822 8.41945 15.6098 8.41945 16.3488C9.15789 16.3488 9.89073 16.3488 10.64 16.3488ZM10.6412 21.9181C10.6412 21.1688 10.6412 20.4416 10.6412 19.718C9.88993 19.718 9.15469 19.718 8.42265 19.718C8.42265 20.4606 8.42265 21.1882 8.42265 21.9181C9.1691 21.9181 9.89954 21.9181 10.6412 21.9181ZM27.603 19.7137C26.8553 19.7137 26.1193 19.7137 25.3768 19.7137C25.3768 20.4519 25.3768 21.1791 25.3768 21.9134C26.1233 21.9134 26.8573 21.9134 27.603 21.9134C27.603 21.1779 27.603 20.4559 27.603 19.7137Z" fill="#E9EEF3"/>
<path d="M18.0121 8.52234C18.8446 9.47028 19.6591 10.398 20.5 11.3555C18.8262 11.3555 17.1928 11.3555 15.5234 11.3555C16.3599 10.4032 17.178 9.47226 18.0121 8.52234Z" fill="#E9EEF3"/>
</g>
<defs>
<clipPath id="clip0_3133_1950">
<rect width="36" height="29" fill="white"/>
</clipPath>
</defs>
</svg>
