<svg width="31" height="29" viewBox="0 0 31 29" fill="none" xmlns="http://www.w3.org/2000/svg">
<g clip-path="url(#clip0_3133_1947)">
<path d="M30.9992 9.86744C30.9992 14.3256 30.9992 18.7838 30.9992 23.2421C30.9802 23.3208 30.9455 23.3995 30.9451 23.4782C30.9384 25.233 30.9358 26.9883 30.9324 28.7435C30.9324 28.8145 30.9324 28.886 30.9324 28.9661C30.8642 28.9712 30.816 28.9781 30.7683 28.9781C27.0759 28.9821 23.3831 28.9847 19.6907 28.9913C19.5572 28.9916 19.5102 28.957 19.499 28.8204C19.3464 26.9624 19.186 25.1048 19.0297 23.2472C18.7212 19.5862 18.4123 15.9249 18.109 12.2636C18.0956 12.1022 18.0486 12.0526 17.8777 12.0534C16.5411 12.0607 15.2049 12.0552 13.8683 12.0592C13.7302 12.0596 13.6638 12.0275 13.6586 11.8828C13.6538 11.744 13.628 11.6052 13.6064 11.4674C13.4243 10.308 13.1531 9.16856 12.5134 8.16287C12.2422 7.73691 12.1217 7.32188 12.159 6.83434C12.172 6.66198 12.2119 6.6117 12.3903 6.61279C13.4531 6.62008 14.5162 6.61316 15.579 6.61826C15.7227 6.61899 15.7663 6.57417 15.7857 6.43643C15.8335 6.09391 15.8909 5.75139 15.9689 5.41434C16.2908 4.02386 16.819 2.72084 17.7621 1.61203C18.9316 0.237216 20.3921 -0.319194 22.1969 0.180736C23.4092 0.516696 24.2799 1.28518 24.9238 2.31565C25.7083 3.57094 26.0429 4.96688 26.2213 6.40655C26.2407 6.56396 26.2843 6.62008 26.4559 6.61935C27.8544 6.61243 29.2534 6.61534 30.6519 6.61534C30.7426 6.61534 30.8328 6.61534 30.9395 6.61534C30.9395 6.7181 30.9395 6.79025 30.9395 6.86203C30.9406 7.7912 30.9403 8.72037 30.9451 9.64954C30.9455 9.72242 30.9806 9.79493 30.9992 9.86744ZM16.6605 6.60113C19.5673 6.60113 22.4524 6.60113 25.3827 6.60113C25.2879 6.09719 25.2137 5.6122 25.1029 5.13486C24.8742 4.14702 24.5053 3.21421 23.8207 2.43516C22.89 1.37627 21.71 0.913143 20.2925 1.16639C19.3919 1.32744 18.7272 1.88203 18.1881 2.578C17.3499 3.66058 16.9209 4.9053 16.7082 6.23128C16.6892 6.35044 16.6773 6.46959 16.6605 6.60113ZM17.2089 8.44964C17.2227 7.84586 16.7269 7.3339 16.1125 7.31714C15.4544 7.29929 14.9322 7.7759 14.9184 8.40773C14.9046 9.03119 15.4067 9.54315 16.0416 9.55298C16.6803 9.56246 17.1943 9.07674 17.2089 8.44964ZM24.7328 8.43032C24.7283 9.04904 25.2416 9.55007 25.8822 9.55153C26.5107 9.55298 27.0207 9.06107 27.0289 8.44526C27.0371 7.82618 26.5253 7.31896 25.8878 7.31532C25.2506 7.31167 24.7377 7.80687 24.7328 8.43032Z" fill="#E9EEF3"/>
<path d="M0 29C0 28.9151 0 28.8298 0 28.7449C0.0108183 28.6983 0.0279783 28.652 0.0320818 28.6046C0.192491 26.7168 0.352154 24.8293 0.511071 22.9414C0.783393 19.7042 1.05721 16.4671 1.32431 13.2292C1.33774 13.0663 1.38661 13.0168 1.55597 13.0182C2.43859 13.0262 3.32122 13.0189 4.20384 13.024C4.33813 13.0248 4.37992 12.9836 4.40118 12.8535C4.46497 12.4644 4.52839 12.073 4.62986 11.6919C4.93575 10.5444 5.41213 9.47534 6.24961 8.59317C7.15649 7.63813 8.25473 7.23439 9.58277 7.53173C10.7705 7.79772 11.5972 8.51811 12.1896 9.52416C12.7895 10.543 13.0566 11.6627 13.1994 12.816C13.2192 12.9749 13.2699 13.0262 13.4371 13.0251C14.6054 13.0178 15.7742 13.0251 16.9429 13.0168C17.1291 13.0153 17.1843 13.0703 17.1988 13.2481C17.3958 15.6753 17.5987 18.1017 17.8032 20.5281C18.021 23.1119 18.2419 25.695 18.4609 28.2789C18.4803 28.507 18.4952 28.7354 18.5142 28.9887C18.4299 28.9887 18.3698 28.9887 18.3094 28.9887C12.5287 28.9868 6.74763 28.9843 0.966931 28.9836C0.644621 28.9836 0.32231 28.9941 0 29ZM12.4533 13.0117C12.4533 12.9595 12.4604 12.9169 12.4522 12.8772C12.3392 12.3306 12.2526 11.7768 12.1027 11.2397C11.9061 10.5353 11.5737 9.88672 11.05 9.35436C10.2337 8.52539 9.24218 8.19016 8.0835 8.45179C7.3598 8.61503 6.83156 9.08071 6.39697 9.64769C5.76093 10.477 5.41661 11.4277 5.2174 12.4345C5.18047 12.6218 5.15809 12.812 5.1275 13.0117C7.58661 13.0117 10.0148 13.0117 12.4533 13.0117ZM5.59679 14.5719C5.6091 14.0549 5.19203 13.6267 4.66119 13.6111C4.12251 13.5954 3.66964 14.0104 3.66069 14.5278C3.65173 15.0587 4.06544 15.4843 4.60635 15.5007C5.1413 15.5164 5.5841 15.101 5.59679 14.5719ZM13.884 14.549C13.8851 14.0305 13.4594 13.6125 12.9279 13.6107C12.3873 13.6089 11.9486 14.0308 11.9501 14.5504C11.952 15.0777 12.3836 15.5011 12.9193 15.5007C13.4591 15.5007 13.8829 15.0821 13.884 14.549Z" fill="#E9EEF3"/>
</g>
<defs>
<clipPath id="clip0_3133_1947">
<rect width="31" height="29" fill="white"/>
</clipPath>
</defs>
</svg>
