<svg width="34" height="41" viewBox="0 0 34 41" fill="none" xmlns="http://www.w3.org/2000/svg">
<g clip-path="url(#clip0_3133_1944)">
<path d="M30.8594 37.8042C29.7674 37.8042 28.7285 37.8291 27.6916 37.7943C27.139 37.7756 26.7606 37.9715 26.435 38.4158C25.8296 39.2404 25.1844 40.036 24.5571 40.844C24.5305 40.8783 24.5131 40.9194 24.4666 40.9999C23.375 38.6304 22.3126 36.3242 21.24 33.9962C21.1684 34.056 21.1117 34.1028 21.0549 34.1501C20.5125 34.6021 19.989 34.6567 19.3841 34.2867C18.9981 34.0508 18.6362 33.7744 18.2609 33.5197C17.4153 32.946 16.5701 32.9679 15.7296 33.5322C15.3886 33.7608 15.044 33.9853 14.7107 34.2254C14.1544 34.6255 13.6079 34.6167 13.0573 34.2197C12.9688 34.1558 12.8712 34.1043 12.7495 34.03C11.6912 36.3325 10.6415 38.6179 9.57197 40.9448C9.38434 40.7214 9.21051 40.526 9.04946 40.3202C8.50343 39.6229 7.95536 38.9266 7.42109 38.2193C7.20125 37.9283 6.94511 37.7828 6.57342 37.7958C5.54373 37.8322 4.51303 37.8452 3.48283 37.867C3.38211 37.8691 3.2814 37.8675 3.1316 37.8675C3.22004 37.641 3.28497 37.4482 3.36933 37.2642C4.29779 35.2429 5.22777 33.2215 6.16236 31.2027C6.3776 30.7376 6.59029 30.2704 6.55501 29.743C6.49315 28.8134 5.95786 28.168 5.03298 27.9243C4.49871 27.7834 3.95064 27.6977 3.41381 27.5673C2.68782 27.3911 2.33249 26.8564 2.4419 26.1024C2.51399 25.6067 2.61727 25.1151 2.7052 24.622C2.88619 23.6055 2.55898 22.8505 1.70619 22.2929C1.34831 22.0591 0.992983 21.8201 0.645325 21.5706C-0.0622632 21.0614 -0.185989 20.4072 0.281305 19.6615C0.537448 19.2531 0.806372 18.8524 1.06609 18.4461C1.58094 17.6391 1.56918 16.8404 1.03337 16.0453C0.783365 15.6738 0.541027 15.297 0.302778 14.9177C-0.202349 14.1133 -0.0827137 13.5033 0.685714 12.9618C0.993495 12.7446 1.30997 12.5409 1.61928 12.3252C2.66532 11.5957 2.92249 10.9399 2.66686 9.68287C2.5825 9.26768 2.49047 8.85353 2.43321 8.43418C2.333 7.70669 2.70622 7.16003 3.41126 6.98751C3.88264 6.87215 4.35914 6.77861 4.8341 6.67884C5.82084 6.47255 6.39805 5.86301 6.58875 4.86167C6.67414 4.41166 6.76105 3.96165 6.86433 3.5158C7.0494 2.71556 7.60821 2.34662 8.40169 2.49004C8.92114 2.58409 9.43802 2.69062 9.95849 2.77947C10.7259 2.91042 11.3558 2.64177 11.8353 2.03795C12.1181 1.682 12.3532 1.28759 12.6109 0.911374C12.7132 0.762238 12.8098 0.607905 12.9259 0.47072C13.3512 -0.0296916 13.8599 -0.136737 14.4361 0.174526C14.7506 0.344448 15.0425 0.558539 15.3441 0.752884C15.567 0.896304 15.7833 1.05168 16.0129 1.18314C16.6836 1.56872 17.3611 1.57807 18.0226 1.166C18.4725 0.885912 18.9046 0.576207 19.3494 0.287808C20.0938 -0.194417 20.7083 -0.0717823 21.2226 0.665065C21.4691 1.0179 21.7022 1.38009 21.9348 1.74228C22.4977 2.61683 23.2789 2.94732 24.2831 2.74102C24.7503 2.64541 25.2197 2.55915 25.6895 2.48016C26.4063 2.35961 26.9626 2.7379 27.1333 3.47059C27.2468 3.95801 27.3378 4.45115 27.4381 4.94169C27.6344 5.9025 28.2131 6.47151 29.1513 6.67469C29.6257 6.77705 30.1012 6.87267 30.5731 6.98647C31.3364 7.17094 31.6984 7.75761 31.5501 8.54538C31.4525 9.06346 31.3456 9.57998 31.2649 10.1007C31.1381 10.9165 31.4034 11.5884 32.0542 12.0831C32.4561 12.3886 32.883 12.6604 33.2951 12.9524C34.0804 13.509 34.2031 14.145 33.6816 14.9515C33.4428 15.3204 33.1923 15.6811 32.9561 16.0516C32.4346 16.8695 32.4285 17.6895 32.9638 18.5063C33.2235 18.9023 33.4878 19.2957 33.7389 19.6973C34.1693 20.3864 34.0635 21.0307 33.4239 21.5192C33.0706 21.7889 32.6913 22.0238 32.3221 22.2722C31.3911 22.8994 31.0803 23.6762 31.3119 24.7934C31.3978 25.2081 31.4816 25.6238 31.5599 26.0401C31.701 26.7878 31.3329 27.388 30.6023 27.5662C30.1068 27.6873 29.6022 27.7684 29.1037 27.8749C28.1078 28.0879 27.3793 28.9672 27.3936 29.9514C27.3956 30.1099 27.4396 30.2782 27.5055 30.4227C28.5327 32.6743 29.567 34.9222 30.5977 37.1718C30.6871 37.3666 30.7623 37.5672 30.8594 37.8042ZM17.0783 29.0072C23.2529 29.0342 28.4851 23.7594 28.5158 17.478C28.5475 10.8941 23.4528 5.59072 17.0855 5.5585C11.0117 5.52784 5.59997 10.4218 5.47062 17.0997C5.34383 23.6315 10.5541 28.9687 17.0783 29.0072Z" fill="#E9EEF3"/>
<path d="M6.83789 17.2909C6.84249 11.5567 11.403 6.91844 17.0284 6.94026C22.5188 6.96157 27.1662 11.4388 27.1698 17.2026C27.1734 23.1795 22.4948 27.5954 17.1449 27.6182C11.4807 27.6421 6.85221 23.128 6.83789 17.2909ZM21.8971 15.2836C21.7637 15.0648 21.6635 14.8699 21.5352 14.6969C21.0786 14.0817 20.6532 14.0505 20.1169 14.5883C19.5596 15.1474 19.0065 15.7112 18.4517 16.273C17.7099 17.0244 16.9742 17.7815 16.2247 18.5246C15.7615 18.9839 15.5733 18.9787 15.1076 18.5339C14.8407 18.2793 14.5871 18.0106 14.3253 17.7508C14.0636 17.491 13.8105 17.2208 13.5339 16.9781C13.2486 16.7282 12.9996 16.7349 12.7016 16.9641C12.6003 17.042 12.5037 17.1293 12.4168 17.2234C11.9572 17.717 11.9582 18.0522 12.4296 18.5386C13.0211 19.1487 13.6244 19.7473 14.2118 20.361C14.5907 20.7569 15.0186 21.076 15.5084 21.3098C15.5657 21.3374 15.6505 21.3758 15.6935 21.353C16.014 21.1794 16.3673 21.0386 16.6347 20.7995C17.1833 20.309 17.6869 19.766 18.2053 19.2401C19.326 18.1037 20.4477 16.9677 21.5597 15.8224C21.6942 15.6832 21.7719 15.4873 21.8971 15.2836Z" fill="#E9EEF3"/>
</g>
<defs>
<clipPath id="clip0_3133_1944">
<rect width="34" height="41" fill="white"/>
</clipPath>
</defs>
</svg>
