<svg width="1241" height="167" fill="none" xmlns="http://www.w3.org/2000/svg"><g clip-path="url(#clip0_3133_3052)" fill="#E9EEF3"><path d="M0 166.652c3.64.041 7.281.112 10.919.115 45.458.023 90.917.023 136.372.05 92.293.053 184.587.121 276.881.18h2.172v-30.531h-11.401V148h-3.047v-22.631h-11.77v16.523h-2.577v-13.258h-4.988v12.408l-.591.044-.328-3.979h-2.607v-25.988h-17.707v1.591c0 5.706.015 11.416-.02 17.122-.003.659.476 1.606-.854 1.834-.231.038-.248 1.313-.378 2.096h-1.8V92.355l-1.534-.316v-2.06c-1.454-.077-1.474-1.022-1.412-2.12.076-1.323.127-2.666-.006-3.983-.246-2.435-.636-4.856-.958-7.283-.242-1.812-.446-3.63-.733-5.438-.062-.386-.443-.714-.594-1.1-.165-.423-.339-.886-.325-1.326.033-1.069 0-2.067-.995-2.754a.846.846 0 01-.311-.482c-.656-3.058-1.297-6.12-1.974-9.343-.614 2.707-1.211 5.266-1.764 7.838-.112.52.015 1.092-.109 1.606-.154.634-.452 1.237-.692 1.85-.05.13-.151.252-.168.385-.328 2.583-.748 5.163-.925 7.755-.077 1.163-.243 2.11-1.232 2.792-.985.676-1.283 1.595-1.224 2.787.098 1.963-.012 3.936.039 5.902.035 1.408.085 2.766-1.298 3.663-.18.118-.331.396-.36.614-.308 2.377-.822 4.756-.84 7.139-.085 11.758-.038 23.516-.038 35.275v1.683h-2.036v-6.498c0-1.526.065-3.056-.035-4.573-.033-.496-.541-.948-.742-1.455-.201-.502-.367-1.043-.417-1.58-.124-1.334-.798-1.993-2.222-1.942v-5.273l-2.751-.15v-13.861h-8.688v16.665h-2.036v-16.647h-9.811v1.919c0 3.787.059 7.578-.024 11.366-.047 2.234-.319 4.466-.496 6.804-1.23.121-2.081.204-2.994.296-.106 1.859-.213 3.66-.319 5.52h-2.76l-.192 2.415h-1.649V87.062h-7.069v27.024h-5.558V82.013h-5.798v15.535h-6.516l-.186 2.264c-.81.056-1.566.11-2.468.174v1.648c0 7.873-.02 15.743.024 23.617.006 1.116-.263 1.945-1.102 2.71-1.008.918-1.877 1.99-2.805 2.996-.15-.077-.298-.15-.449-.227V97.636h-8.434v30.779h-1.894c0-.841.03-1.665-.009-2.485-.044-.913-.003-1.81-.954-2.465-.334-.231-.34-1.063-.343-1.621-.018-17.072-.009-34.145-.03-51.217 0-.88.452-1.942-.738-2.565-.187-.098-.116-.735-.116-1.122-.009-2.707.006-5.411-.012-8.118-.003-.635.261-1.435-.848-1.544-.144-.015-.307-.641-.322-.99-.044-.92-.015-1.845-.015-2.822l-1.648-.28c-.057-.623-.113-1.243-.175-1.955l-1.433-.286-.183-1.984-1.974-.186V36.409c0-2.415-.349-2.881-2.905-3.652v-5.134l-.455.009v5.249c-2.181.41-2.326 1.89-2.279 3.613.083 3.047.098 6.102-.023 9.15-.042 1.062-.509 2.128-.913 3.143-.086.216-.742.207-1.227.322-.032.608-.068 1.281-.112 2.06l-1.56.32-.16 1.537c-.434.098-.848.192-1.377.31v4.169c-.55.12-1.002.218-1.569.345v10.46l-1.531.348v64.814c-.124.03-.245.057-.369.086-.127-.31-.352-.617-.37-.933-.271-5.018-.608-10.037-.747-15.062-.124-4.516-.027-9.036-.027-13.76h-8.011v-5.228h-8.215v10.554h-6.558v13.217h-3.708c0-2.675.009-5.314-.006-7.953 0-.588.257-1.332-.789-1.411-.142-.012-.325-.638-.34-.983-.044-1.025-.015-2.052-.015-3.195h-10.154v1.662c0 8.021 0 16.039.003 24.06 0 .88.101 1.801-1.433 1.385-.331-3.797.819-7.956-2.169-11.389-.948 1.588-2.003 3.079-1.894 5.163.145 2.787.035 5.588.035 8.478h-1.802v-6.314c-.704-.059-1.274-.104-2.084-.171-.094-1.958-.189-3.936-.292-6.026h-3.186V115.65h-2.795c-.056.585-.11 1.107-.169 1.718h-2.627c-.05-.746-.097-1.467-.153-2.282h-3.422l-.228 1.527h-7.532c-.051-.667-.098-1.335-.157-2.099h-2.592v10.704c-3.162.895-3.439.667-4.95-4.177l-1.152 4.464c-.16-.024-.322-.045-.482-.068V113.56l-2.083-.201v-5.851h-14.167v29.534l-.57.156c-.154-.372-.417-.741-.435-1.119a38.324 38.324 0 01-.014-3.539c.31-6.814-1.596-13.347-2.494-20.01-.015-.115-.145-.213-.367-.526-.555 3.384-.942 6.581-1.625 9.713-1.037 4.765-.937 9.574-.955 14.389 0 .46-.348 1.287-.608 1.319-1.073.127-.713-.803-.736-1.355-.047-1.222-.015-2.447-.015-3.781h-1.738l-.18 1.561c-.08-.062-.156-.127-.236-.189-.432.496-.825 1.028-1.306 1.471-.219.2-.597.298-.914.315-.721.045-1.447.015-2.239.015-.083.735-.145 1.302-.216 1.954h-1.776v-11.185h-3.972v-14.02h-10.49l-.148 2.651c-.464.08-.878.148-1.451.245V121c-.896-.189-1.622-.34-2.497-.523.012-1.122-.739-1.263-1.803-1.225-2.201.083-4.409.026-6.791.026 0-1.883.089-3.592-.017-5.293-.255-3.997-.6-7.988-.922-12.127h-5.018v9.036c-1.008.08-1.871.145-2.855.222v29.772h-2.721c0-1.458.014-2.919-.01-4.378-.005-.372-.103-1.054-.218-1.066-1.545-.174-1.008-1.346-1.02-2.155-.047-3.197.01-6.397-.053-9.594-.008-.44-.47-.868-.697-1.314-.18-.351-.511-.761-.45-1.08.707-3.519-.98-6.008-3.415-8.207-.178-.16-.281-.402-.455-.659-.866.682-1.581 1.249-2.521 1.99V30.998c-1.971 0-3.78.026-5.585-.024-.352-.009-.695-.304-1.04-.467.342-.162.68-.445 1.028-.463 1.129-.062 2.293.121 3.387-.083.623-.118 1.14-.806 1.705-1.24-.57-.398-1.109-1.065-1.72-1.142-1.398-.171-2.831-.053-4.43-.053L82.486.003h-.243c-.21 9.11-.416 18.224-.632 27.532-1.182 0-2.202-.003-3.221 0-.443 0-.972-.13-1.31.065-.54.31-.95.84-1.418 1.278.447.375.848.986 1.345 1.072 1.004.177 2.057.07 3.09.076.388.003.772 0 1.16 0 .094.15.188.301.283.449-.367.257-.721.717-1.102.738-1.52.086-3.044.035-4.72.035v86.823l-4.166-.528v-1.713c.03-14.217.047-28.438.112-42.655.006-1.09-.293-1.807-1.161-2.492-3.047-2.406-6.026-4.897-9.182-7.484-2.74 2.77-5.455 5.459-8.085 8.237-.357.378-.37 1.178-.37 1.783-.017 16.727-.014 33.457-.014 50.184v1.901c-.792-.23-1.472-.49-2.178-.617-.807-.145-.99-.588-.975-1.34.041-2.114.015-4.231.015-6.348V65.644H38.133v73.089c-.506.053-.878.083-1.25.136-1.265.189-1.676-.286-1.709-1.615-.118-5.19-.422-10.377-.564-15.567-.091-3.285-.018-6.574-.018-9.972h-9.187v1.624c0 7.233-.012 14.465.012 21.698.003 1.237.062 2.4-1.067 3.309-.458.369-.635 1.081-.972 1.695-.402-.062-.816-.127-1.371-.216v3.342c-1.478.142-2.843.219-4.19.417-2.4.354-4.525 1.31-6.254 3.061-.204.207-.41.452-.668.561-5.183 2.217-8.818 5.94-10.907 11.171v8.266l.012.009z"/><path d="M0 158h1239v160H0z"/></g><g clip-path="url(#clip1_3133_3052)"><path d="M408.329 166.652c3.641.041 7.281.112 10.919.115 45.458.023 90.917.023 136.372.05 92.293.053 184.587.121 276.881.18h2.172v-30.531h-11.401V148h-3.047v-22.631h-11.77v16.523h-2.577v-13.258h-4.988v12.408l-.591.044-.328-3.979h-2.606v-25.988h-17.707v1.591c0 5.706.014 11.416-.021 17.122-.003.659.476 1.606-.854 1.834-.231.038-.248 1.313-.378 2.096h-1.8V92.355l-1.534-.316v-2.06c-1.454-.077-1.474-1.022-1.412-2.12.077-1.323.127-2.666-.006-3.983-.245-2.435-.636-4.856-.958-7.283-.242-1.812-.446-3.63-.732-5.438-.063-.386-.444-.714-.594-1.1-.166-.423-.34-.886-.326-1.326.033-1.069 0-2.067-.995-2.754a.846.846 0 01-.311-.482c-.656-3.058-1.297-6.12-1.974-9.343-.614 2.707-1.211 5.266-1.764 7.838-.112.52.015 1.092-.109 1.606-.154.634-.452 1.237-.692 1.85-.05.13-.15.252-.168.385-.328 2.583-.748 5.163-.925 7.755-.077 1.163-.242 2.11-1.232 2.792-.984.676-1.283 1.595-1.224 2.787.098 1.963-.012 3.936.039 5.902.035 1.408.085 2.766-1.298 3.663-.18.118-.331.396-.36.614-.307 2.377-.822 4.756-.839 7.139-.086 11.758-.039 23.516-.039 35.275v1.683h-2.036v-6.498c0-1.526.065-3.056-.035-4.573-.033-.496-.541-.948-.742-1.455-.201-.502-.367-1.043-.417-1.58-.124-1.334-.798-1.993-2.222-1.942v-5.273l-2.751-.15v-13.861h-8.688v16.665h-2.036v-16.647h-9.811v1.919c0 3.787.059 7.578-.024 11.366-.047 2.234-.319 4.466-.496 6.804-1.23.121-2.081.204-2.994.296-.106 1.859-.213 3.66-.319 5.52h-2.76l-.192 2.415h-1.649V87.062h-7.069v27.024h-5.558V82.013h-5.798v15.535h-6.516l-.186 2.264c-.81.056-1.566.11-2.468.174v1.648c0 7.873-.02 15.743.024 23.617.006 1.116-.263 1.945-1.102 2.71-1.008.918-1.877 1.99-2.805 2.996-.15-.077-.298-.15-.449-.227V97.636h-8.434v30.779h-1.894c0-.841.03-1.665-.009-2.485-.044-.913-.003-1.81-.954-2.465-.334-.231-.34-1.063-.343-1.621-.018-17.072-.009-34.145-.03-51.217 0-.88.453-1.942-.738-2.565-.187-.098-.116-.735-.116-1.122-.008-2.707.006-5.411-.011-8.118-.003-.635.26-1.435-.849-1.544-.144-.015-.307-.641-.322-.99-.044-.92-.014-1.845-.014-2.822l-1.649-.28c-.057-.623-.113-1.243-.175-1.955l-1.433-.286-.183-1.984-1.974-.186V36.409c0-2.415-.349-2.881-2.905-3.652v-5.134l-.455.009v5.249c-2.181.41-2.326 1.89-2.279 3.613.083 3.047.098 6.102-.023 9.15-.042 1.062-.508 2.128-.913 3.143-.086.216-.742.207-1.227.322-.032.608-.068 1.281-.112 2.06l-1.56.32-.16 1.537c-.434.098-.848.192-1.377.31v4.169c-.55.12-1.002.218-1.569.345v10.46l-1.531.348v64.814c-.124.03-.245.057-.369.086-.127-.31-.352-.617-.37-.933-.271-5.018-.608-10.037-.747-15.062-.124-4.516-.027-9.036-.027-13.76h-8.011v-5.228h-8.215v10.554h-6.558v13.217h-3.708c0-2.675.009-5.314-.006-7.953 0-.588.257-1.332-.789-1.411-.142-.012-.325-.638-.34-.983-.044-1.025-.015-2.052-.015-3.195h-10.153v1.662c0 8.021 0 16.039.002 24.06 0 .88.101 1.801-1.433 1.385-.331-3.797.819-7.956-2.169-11.389-.948 1.588-2.003 3.079-1.894 5.163.145 2.787.036 5.588.036 8.478h-1.803v-6.314c-.703-.059-1.274-.104-2.083-.171-.095-1.958-.19-3.936-.293-6.026h-3.186V115.65h-2.795c-.056.585-.109 1.107-.169 1.718h-2.627c-.05-.746-.097-1.467-.153-2.282h-3.422l-.228 1.527h-7.532c-.051-.667-.098-1.335-.157-2.099h-2.592v10.704c-3.162.895-3.439.667-4.949-4.177l-1.153 4.464c-.159-.024-.322-.045-.482-.068V113.56l-2.083-.201v-5.851h-14.167v29.534l-.57.156c-.154-.372-.417-.741-.434-1.119a37.976 37.976 0 01-.015-3.539c.31-6.814-1.596-13.347-2.494-20.01-.015-.115-.145-.213-.367-.526-.555 3.384-.942 6.581-1.625 9.713-1.037 4.765-.937 9.574-.954 14.389 0 .46-.349 1.287-.609 1.319-1.073.127-.712-.803-.736-1.355-.047-1.222-.015-2.447-.015-3.781h-1.737c-.06.519-.122 1.042-.181 1.561-.079-.062-.156-.127-.236-.189-.432.496-.825 1.028-1.306 1.471-.219.2-.597.298-.913.315-.721.045-1.448.015-2.24.015-.083.735-.145 1.302-.216 1.954h-1.776v-11.185h-3.972v-14.02h-10.49l-.148 2.651c-.464.08-.878.148-1.451.245V121c-.895-.189-1.622-.34-2.497-.523.012-1.122-.739-1.263-1.803-1.225-2.201.083-4.409.026-6.79.026 0-1.883.088-3.592-.018-5.293-.254-3.997-.6-7.988-.922-12.127h-5.018v9.036c-1.008.08-1.871.145-2.855.222v29.772h-2.721c0-1.458.015-2.919-.009-4.378-.006-.372-.104-1.054-.219-1.066-1.545-.174-1.007-1.346-1.019-2.155-.048-3.197.009-6.397-.054-9.594-.008-.44-.469-.868-.697-1.314-.18-.351-.511-.761-.449-1.08.706-3.519-.981-6.008-3.416-8.207-.177-.16-.281-.402-.455-.659-.866.682-1.581 1.249-2.521 1.99V30.998c-1.971 0-3.78.026-5.585-.024-.352-.009-.694-.304-1.04-.467.343-.162.679-.445 1.028-.463 1.129-.062 2.293.121 3.387-.083.623-.118 1.14-.806 1.705-1.24-.571-.398-1.108-1.065-1.72-1.142-1.398-.171-2.831-.053-4.43-.053L490.815.003h-.243c-.209 9.11-.416 18.224-.632 27.532-1.182 0-2.202-.003-3.221 0-.443 0-.972-.13-1.309.065-.541.31-.952.84-1.419 1.278.447.375.848.986 1.345 1.072 1.005.177 2.057.07 3.091.076.387.003.771 0 1.158 0 .095.15.189.301.284.449-.366.257-.721.717-1.102.738-1.519.086-3.044.035-4.719.035v86.823l-4.167-.528v-1.713c.029-14.217.047-28.438.112-42.655.006-1.09-.292-1.807-1.161-2.492-3.047-2.406-6.026-4.897-9.182-7.484-2.739 2.77-5.455 5.459-8.085 8.237-.357.378-.369 1.178-.369 1.783-.018 16.727-.015 33.457-.015 50.184v1.901c-.792-.23-1.472-.49-2.178-.617-.807-.145-.99-.588-.975-1.34.041-2.114.015-4.231.015-6.348V65.644h-11.581v73.089c-.506.053-.878.083-1.25.136-1.265.189-1.676-.286-1.708-1.615-.119-5.19-.423-10.377-.565-15.567-.091-3.285-.018-6.574-.018-9.972h-9.187v1.624c0 7.233-.012 14.465.012 21.698.003 1.237.062 2.4-1.067 3.309-.458.369-.635 1.081-.972 1.695-.402-.062-.816-.127-1.371-.216v3.342c-1.478.142-2.843.219-4.191.417-2.399.354-4.524 1.31-6.253 3.061-.204.207-.41.452-.667.561-5.184 2.217-8.819 5.94-10.908 11.171v8.266l.012.009z" fill="#E9EEF3"/></g><g clip-path="url(#clip2_3133_3052)"><path d="M814.656 166.652c3.641.041 7.282.112 10.92.115 45.458.023 90.916.023 136.371.05 92.293.053 184.583.121 276.883.18h2.17v-30.531h-11.4V148h-3.05v-22.631h-11.77v16.523h-2.57v-13.258h-4.99v12.408l-.59.044c-.11-1.287-.22-2.577-.33-3.979h-2.61v-25.988h-17.71v1.591c0 5.706.02 11.416-.02 17.122 0 .659.48 1.606-.85 1.834-.23.038-.25 1.313-.38 2.096h-1.8V92.355c-.56-.115-1.01-.21-1.53-.316v-2.06c-1.46-.077-1.48-1.022-1.41-2.12.07-1.323.12-2.666-.01-3.983-.25-2.435-.64-4.856-.96-7.283-.24-1.812-.44-3.63-.73-5.438-.06-.386-.44-.714-.59-1.1-.17-.423-.34-.886-.33-1.326.03-1.069 0-2.067-.99-2.754a.855.855 0 01-.32-.482c-.65-3.058-1.29-6.12-1.97-9.343-.61 2.707-1.21 5.266-1.76 7.838-.12.52.01 1.092-.11 1.606-.16.634-.45 1.237-.69 1.85-.05.13-.16.252-.17.385-.33 2.583-.75 5.163-.93 7.755-.07 1.163-.24 2.11-1.23 2.792-.98.676-1.28 1.595-1.22 2.787.09 1.963-.02 3.936.04 5.902.03 1.408.08 2.766-1.3 3.663-.18.118-.33.396-.36.614-.31 2.377-.82 4.756-.84 7.139-.09 11.758-.04 23.516-.04 35.275v1.683h-2.04v-6.498c0-1.526.07-3.056-.03-4.573-.03-.496-.54-.948-.74-1.455-.2-.502-.37-1.043-.42-1.58-.12-1.334-.8-1.993-2.22-1.942v-5.273l-2.75-.15v-13.861h-8.69v16.665h-2.04v-16.647h-9.81v1.919c0 3.787.06 7.578-.02 11.366-.05 2.234-.32 4.466-.5 6.804-1.23.121-2.08.204-2.99.296-.11 1.859-.22 3.66-.32 5.52h-2.76c-.07.824-.13 1.585-.19 2.415h-1.65V87.062h-7.07v27.024h-5.56V82.013h-5.8v15.535h-6.51c-.07.826-.13 1.5-.19 2.264-.81.056-1.57.11-2.47.174v1.648c0 7.873-.02 15.743.03 23.617 0 1.116-.27 1.945-1.11 2.71-1 .918-1.87 1.99-2.8 2.996-.15-.077-.3-.15-.45-.227V97.636h-8.43v30.779h-1.9c0-.841.03-1.665-.01-2.485-.04-.913 0-1.81-.95-2.465-.33-.231-.34-1.063-.34-1.621-.02-17.072-.01-34.145-.03-51.217 0-.88.45-1.942-.74-2.565-.19-.098-.12-.735-.12-1.122-.01-2.707.01-5.411-.01-8.118 0-.635.26-1.435-.85-1.544-.14-.015-.3-.641-.32-.99-.04-.92-.01-1.845-.01-2.822-.61-.103-1.09-.183-1.65-.28-.06-.623-.12-1.243-.18-1.955-.46-.094-.93-.186-1.43-.286-.06-.664-.12-1.287-.18-1.984l-1.98-.186V36.409c0-2.415-.35-2.881-2.9-3.652v-5.134l-.46.009v5.249c-2.18.41-2.32 1.89-2.28 3.613.09 3.047.1 6.102-.02 9.15-.04 1.062-.51 2.128-.91 3.143-.09.216-.74.207-1.23.322-.03.608-.07 1.281-.11 2.06l-1.56.32c-.06.516-.11.994-.16 1.537-.44.098-.85.192-1.38.31v4.169c-.55.12-1 .218-1.57.345v10.46c-.53.12-.94.215-1.53.348v64.814c-.12.03-.24.057-.37.086-.12-.31-.35-.617-.37-.933-.27-5.018-.61-10.037-.74-15.062-.13-4.516-.03-9.036-.03-13.76h-8.01v-5.228h-8.22v10.554h-6.56v13.217h-3.7c0-2.675.01-5.314-.01-7.953 0-.588.26-1.332-.79-1.411-.14-.012-.32-.638-.34-.983-.04-1.025-.01-2.052-.01-3.195h-10.16v1.662c0 8.021 0 16.039.01 24.06 0 .88.1 1.801-1.44 1.385-.33-3.797.82-7.956-2.17-11.389-.94 1.588-2 3.079-1.89 5.163.14 2.787.03 5.588.03 8.478h-1.8v-6.314c-.7-.059-1.27-.104-2.08-.171-.1-1.958-.19-3.936-.29-6.026h-3.19V115.65h-2.79c-.06.585-.11 1.107-.17 1.718h-2.63c-.05-.746-.1-1.467-.15-2.282h-3.43c-.07.479-.14.948-.22 1.527h-7.536c-.05-.667-.098-1.335-.157-2.099h-2.591v10.704c-3.162.895-3.44.667-4.95-4.177l-1.153 4.464c-.159-.024-.322-.045-.481-.068V113.56l-2.084-.201v-5.851h-14.166v29.534l-.571.156c-.153-.372-.416-.741-.434-1.119a38.324 38.324 0 01-.015-3.539c.311-6.814-1.596-13.347-2.494-20.01-.015-.115-.145-.213-.366-.526-.556 3.384-.943 6.581-1.626 9.713-1.037 4.765-.936 9.574-.954 14.389 0 .46-.349 1.287-.609 1.319-1.073.127-.712-.803-.736-1.355-.047-1.222-.014-2.447-.014-3.781h-1.738l-.18 1.561c-.08-.062-.157-.127-.237-.189-.431.496-.824 1.028-1.306 1.471-.219.2-.597.298-.913.315-.721.045-1.448.015-2.24.015-.083.735-.145 1.302-.216 1.954h-1.776v-11.185h-3.971v-14.02h-10.491l-.148 2.651c-.464.08-.877.148-1.451.245V121c-.895-.189-1.622-.34-2.497-.523.012-1.122-.738-1.263-1.802-1.225-2.202.083-4.409.026-6.791.026 0-1.883.089-3.592-.018-5.293-.254-3.997-.6-7.988-.922-12.127h-5.018v9.036c-1.007.08-1.87.145-2.854.222v29.772h-2.722c0-1.458.015-2.919-.009-4.378-.006-.372-.103-1.054-.218-1.066-1.546-.174-1.008-1.346-1.02-2.155-.047-3.197.009-6.397-.053-9.594-.009-.44-.47-.868-.697-1.314-.181-.351-.512-.761-.45-1.08.707-3.519-.981-6.008-3.416-8.207-.177-.16-.28-.402-.455-.659-.866.682-1.581 1.249-2.521 1.99V30.998c-1.971 0-3.779.026-5.585-.024-.351-.009-.694-.304-1.04-.467.343-.162.68-.445 1.029-.463 1.128-.062 2.293.121 3.386-.083.624-.118 1.141-.806 1.705-1.24-.57-.398-1.108-1.065-1.72-1.142-1.398-.171-2.831-.053-4.429-.053L897.142.003h-.242c-.21 9.11-.417 18.224-.633 27.532-1.182 0-2.201-.003-3.221 0-.443 0-.972-.13-1.309.065-.541.31-.951.84-1.418 1.278.446.375.848.986 1.344 1.072 1.005.177 2.057.07 3.091.076.387.003.772 0 1.159 0l.283.449c-.366.257-.721.717-1.102.738-1.519.086-3.044.035-4.719.035v86.823l-4.167-.528v-1.713c.03-14.217.047-28.438.112-42.655.006-1.09-.292-1.807-1.161-2.492-3.047-2.406-6.025-4.897-9.181-7.484-2.74 2.77-5.455 5.459-8.085 8.237-.358.378-.37 1.178-.37 1.783-.018 16.727-.015 33.457-.015 50.184v1.901c-.792-.23-1.471-.49-2.178-.617-.806-.145-.99-.588-.975-1.34.042-2.114.015-4.231.015-6.348V65.644h-11.581v73.089c-.505.053-.878.083-1.25.136-1.265.189-1.676-.286-1.708-1.615-.118-5.19-.423-10.377-.564-15.567-.092-3.285-.018-6.574-.018-9.972h-9.188v1.624c0 7.233-.011 14.465.012 21.698.003 1.237.062 2.4-1.067 3.309-.458.369-.635 1.081-.972 1.695-.402-.062-.815-.127-1.371-.216v3.342c-1.477.142-2.843.219-4.19.417-2.4.354-4.525 1.31-6.253 3.061-.204.207-.411.452-.668.561-5.183 2.217-8.818 5.94-10.907 11.171v8.266l.011.009z" fill="#E9EEF3"/></g><defs><clipPath id="clip0_3133_3052"><path fill="#fff" transform="matrix(-1 0 0 1 426.344 0)" d="M0 0h426.344v167H0z"/></clipPath><clipPath id="clip1_3133_3052"><path fill="#fff" transform="matrix(-1 0 0 1 834.673 0)" d="M0 0h426.344v167H0z"/></clipPath><clipPath id="clip2_3133_3052"><path fill="#fff" transform="matrix(-1 0 0 1 1241 0)" d="M0 0h426.344v167H0z"/></clipPath></defs></svg>