<svg width="27" height="16" viewBox="0 0 27 16" fill="none" xmlns="http://www.w3.org/2000/svg">
<g clip-path="url(#clip0_3133_2131)">
<path d="M10.2718 8.29296C10.2718 8.1433 10.2718 7.99363 10.2718 7.84397C10.2718 6.55438 10.279 5.26479 10.2688 3.97556C10.264 3.34312 10.0938 2.75717 9.65999 2.26095C9.5314 2.11383 9.40731 1.95799 9.31058 1.79016C8.84571 0.982622 9.4298 0.0181536 10.3985 0.00979847C11.8044 -0.00255254 13.2103 0.00543929 14.6158 0.00616582C14.7905 0.00616582 14.9682 -0.00327907 15.1392 0.0236025C15.7949 0.12786 16.1664 0.527814 16.2369 1.19477C16.256 1.37495 16.2657 1.55694 16.2661 1.73821C16.2684 3.45173 16.2676 5.16489 16.2676 6.87841C16.2676 6.96705 16.2676 7.05532 16.2676 7.14396C16.2882 7.15667 16.3089 7.16975 16.3295 7.18246C16.5882 6.94453 16.8667 6.7233 17.1018 6.46502C17.9862 5.49256 18.6936 4.40094 19.3137 3.25848C19.6995 2.54757 20.047 1.81631 20.3983 1.08833C20.7334 0.394496 21.2868 0.0210597 22.0741 0.00979847C23.0799 -0.00436886 24.0862 -0.00255254 25.0917 0.0112515C25.5704 0.0177903 26.0083 0.151835 26.285 0.574312C26.4518 0.829324 26.5035 1.11122 26.4541 1.40982C26.3382 2.10874 26.0184 2.73211 25.6769 3.34457C24.7696 4.97018 23.7117 6.50388 22.6226 8.01834C22.5761 8.08263 22.5277 8.1462 22.4857 8.21341C22.2889 8.53018 22.2953 8.56687 22.56 8.83459C23.1564 9.43761 23.7604 10.0337 24.3441 10.648C25.11 11.4541 25.855 12.2791 26.4541 13.2141C26.6951 13.5901 26.8957 13.9817 26.977 14.4274C27.1004 15.1035 26.6996 15.7446 26.0053 15.9128C25.7837 15.9666 25.5494 15.9916 25.3204 15.9938C24.4082 16.0025 23.4961 15.9931 22.5836 15.9985C22.0197 16.0018 21.5136 15.8387 21.1158 15.4591C20.5516 14.92 20.0193 14.3497 19.4741 13.7917C18.7558 13.0565 18.0195 12.3405 17.1265 11.8003C16.9496 11.6931 16.7467 11.6176 16.5462 11.558C16.3175 11.4901 16.2777 11.5242 16.2766 11.7538C16.2717 12.6013 16.2856 13.4488 16.265 14.2959C16.2582 14.5745 16.2166 14.8713 16.1064 15.1249C15.8755 15.6567 15.366 15.8387 14.8246 15.9161C13.2662 16.1384 11.7624 15.9092 10.3116 15.341C7.97669 14.4267 6.16516 12.881 4.70417 10.9248C3.52699 9.34897 2.47576 7.69794 1.59849 5.94555C0.992654 4.73551 0.464044 3.49569 0.13638 2.18503C0.0392808 1.79379 -0.0589433 1.39602 0.0434047 0.984438C0.161499 0.509288 0.464419 0.209231 0.944667 0.0842678C1.12349 0.0377699 1.31357 0.0112515 1.49877 0.00979847C2.44202 0.00216991 3.38565 0.0032597 4.32927 0.00616582C5.24141 0.00907194 5.76627 0.362165 6.10106 1.18968C6.40623 1.94382 6.68628 2.70813 7.01956 3.45028C7.68314 4.92949 8.45581 6.35204 9.50028 7.61947C9.66337 7.81709 9.85456 7.99327 10.0368 8.17599C10.0874 8.22685 10.1526 8.26427 10.2111 8.30786C10.231 8.30277 10.2512 8.29805 10.2718 8.29296ZM15.1062 4.33556C15.1058 4.33556 15.1054 4.33556 15.1051 4.33556C15.1051 3.60321 15.1062 2.87051 15.1043 2.13817C15.1036 1.88425 15.0949 1.62996 15.0927 1.37604C15.0912 1.18787 15.0065 1.12502 14.8051 1.12611C13.412 1.13483 12.0189 1.12974 10.6254 1.13301C10.5249 1.13338 10.424 1.16425 10.3236 1.18133C10.3716 1.26851 10.4042 1.36877 10.4702 1.44106C11.1633 2.2021 11.4344 3.10518 11.4351 4.10089C11.4359 5.29966 11.437 6.49807 11.4336 7.69685C11.4329 7.93878 11.4232 8.18108 11.4003 8.42192C11.3047 9.43035 10.424 9.8372 9.57489 9.23963C9.21611 8.98716 8.88882 8.67221 8.60989 8.33656C7.29774 6.75708 6.38598 4.95638 5.59794 3.0921C5.37112 2.55556 5.16943 2.00885 4.95386 1.46794C4.85938 1.23073 4.67718 1.12865 4.41438 1.12974C3.44601 1.1341 2.47764 1.12974 1.50927 1.13301C1.16848 1.1341 1.12312 1.1984 1.18498 1.52861C1.38518 2.59552 1.78295 3.59958 2.22945 4.58621C3.00362 6.29755 3.97462 7.90282 5.05246 9.44996C5.89486 10.6593 6.82087 11.7948 8.00218 12.7146C9.40468 13.8066 10.956 14.5825 12.763 14.8125C13.4169 14.8957 14.0703 14.9044 14.7219 14.7925C15.0586 14.7347 15.1084 14.677 15.1073 14.3497C15.1054 13.7866 15.0934 13.2236 15.0994 12.6609C15.1039 12.2377 15.1092 11.8126 15.1538 11.3923C15.1995 10.9615 15.4132 10.612 15.8706 10.4867C16.088 10.4271 16.328 10.4133 16.5548 10.4253C17.1393 10.4566 17.6221 10.7421 18.0833 11.0596C19.031 11.7116 19.8393 12.5108 20.6232 13.3354C21.0292 13.7623 21.4401 14.1851 21.8585 14.6003C22.0179 14.7584 22.2207 14.8666 22.4572 14.8673C23.4695 14.871 24.4813 14.8684 25.4936 14.8677C25.5183 14.8677 25.5438 14.8662 25.5682 14.8626C25.825 14.8237 25.9033 14.7376 25.801 14.5084C25.6484 14.167 25.4804 13.8244 25.266 13.5174C24.5132 12.4414 23.5921 11.5013 22.6709 10.5623C22.2754 10.1591 21.8608 9.77036 21.496 9.34207C21.0948 8.87128 21.054 8.34237 21.3891 7.80764C21.5057 7.62201 21.6328 7.44256 21.7543 7.25948C22.6304 5.93646 23.5201 4.62108 24.3767 3.28608C24.7614 2.6867 25.1025 2.05898 25.2851 1.36332C25.3305 1.19005 25.2682 1.14391 25.1145 1.13665C25.077 1.13483 25.0396 1.13265 25.0021 1.13265C24.0401 1.13229 23.0777 1.1341 22.1157 1.13192C21.7895 1.1312 21.5878 1.28486 21.448 1.56566C21.003 2.45784 20.5696 3.35728 20.0849 4.22912C19.4768 5.32291 18.769 6.35785 17.9059 7.28236C17.5502 7.66343 17.1704 8.02814 16.6718 8.23993C16.0592 8.50039 15.4841 8.29151 15.2396 7.6943C15.1523 7.48107 15.1144 7.23695 15.1107 7.00592C15.0979 6.11555 15.1062 5.22556 15.1062 4.33556Z" fill="#E9EEF3"/>
</g>
<defs>
<clipPath id="clip0_3133_2131">
<rect width="27" height="16" fill="white"/>
</clipPath>
</defs>
</svg>
