<svg width="24" height="21" viewBox="0 0 24 21" fill="none" xmlns="http://www.w3.org/2000/svg">
<g clip-path="url(#clip0_3133_2126)">
<path d="M12.8055 17.1336C11.8395 17.9964 10.879 18.8518 9.92129 19.7103C9.66738 19.9382 9.37635 20.0474 9.02688 20.0159C8.72711 19.9891 8.50105 19.8647 8.32795 19.621C7.93481 19.066 7.79284 18.4196 7.59299 17.7952C7.10538 16.2756 6.62868 14.7533 6.15418 13.23C6.10449 13.0709 6.01985 12.9879 5.85604 12.9343C4.3599 12.4455 2.86594 11.9487 1.37252 11.453C0.831401 11.2734 0.366723 10.9951 0.12046 10.4721C-0.117066 9.9675 -0.00239838 9.44187 0.456273 9.10685C0.741305 8.89891 1.06729 8.73035 1.39655 8.5933C3.87338 7.56042 6.35457 6.53699 8.83577 5.51513C13.12 3.75078 17.4053 1.98853 21.6922 0.230475C21.9237 0.135431 22.1738 0.070318 22.4217 0.0256841C23.3096 -0.135523 24.0915 0.512456 23.9905 1.37678C23.8977 2.17389 23.7251 2.96312 23.569 3.75235C22.9241 7.00433 22.2721 10.2558 21.6229 13.5072C21.2134 15.5583 20.8066 17.6104 20.3921 19.6609C20.2381 20.4239 19.4092 21.0446 18.6038 20.9979C18.1637 20.9727 17.7602 20.8482 17.3993 20.5736C15.9364 19.4614 14.4621 18.3639 12.9917 17.2617C12.9349 17.2192 12.8748 17.1814 12.8055 17.1336ZM11.1575 14.6252C11.7445 15.04 12.3239 15.4307 12.8819 15.8476C14.6199 17.1462 16.3487 18.4563 18.084 19.7591C18.6104 20.1545 19.2454 19.923 19.3699 19.2976C19.6075 18.1045 19.845 16.912 20.0825 15.719C20.9523 11.3522 21.8227 6.98543 22.692 2.61865C22.7657 2.25003 22.8427 1.88141 22.905 1.51068C22.9754 1.09007 22.8253 0.967197 22.4059 1.09165C22.2759 1.12998 22.1471 1.17514 22.022 1.2266C15.2277 4.01963 8.43279 6.81372 1.63954 9.61043C1.49047 9.67186 1.35451 9.76218 1.21472 9.84305C1.052 9.93757 1.06565 10.0715 1.19288 10.1613C1.37252 10.2883 1.56801 10.4123 1.77659 10.4821C3.25199 10.9789 4.73393 11.4588 6.21042 11.9529C6.3928 12.0138 6.5233 11.9913 6.68383 11.8883C10.5956 9.37308 14.5118 6.8636 18.4269 4.35413C18.736 4.15564 19.0429 3.95294 19.3612 3.76916C19.6271 3.61583 19.8685 3.65626 20.0497 3.85317C20.2321 4.05061 20.2425 4.29006 20.0743 4.52636C20.0285 4.59095 19.9717 4.64871 19.9187 4.70857C19.1477 5.57972 18.3756 6.45034 17.6051 7.32254C15.8818 9.27226 14.1585 11.2225 12.4358 13.1727C12.0143 13.6506 11.5933 14.13 11.1575 14.6252ZM16.5824 6.86203C16.5731 6.851 16.5644 6.8405 16.5551 6.82947C16.5191 6.84732 16.4803 6.86203 16.447 6.88356C13.4137 8.82644 10.3816 10.7709 7.34618 12.7101C7.1911 12.8088 7.18892 12.9076 7.23806 13.0609C7.57442 14.1132 7.90095 15.1687 8.23294 16.2225C8.45846 16.9393 8.6867 17.655 8.9204 18.3907C8.95371 18.3487 8.97938 18.3308 8.98429 18.3088C9.21144 17.3211 9.43259 16.3318 9.66411 15.3451C9.77441 14.8751 9.87051 14.4256 10.2364 14.0245C11.8575 12.2459 13.4361 10.4312 15.0289 8.62901C15.5477 8.04141 16.0642 7.45119 16.5824 6.86203ZM10.1665 18.0006C10.1834 18.0063 10.2003 18.0121 10.2172 18.0179C10.7808 17.5138 11.3443 17.0097 11.9313 16.4846C11.519 16.1879 11.1324 15.9101 10.718 15.6119C10.5268 16.4384 10.3467 17.2197 10.1665 18.0006Z" fill="#E9EEF3"/>
</g>
<defs>
<clipPath id="clip0_3133_2126">
<rect width="24" height="21" fill="white"/>
</clipPath>
</defs>
</svg>
