<svg width="24" height="24" viewBox="0 0 24 24" fill="none" xmlns="http://www.w3.org/2000/svg">
<path d="M12.5009 21.5593L12.494 21.5644L12.4875 21.57C12.3517 21.6862 12.1788 21.7501 12 21.7501C11.8212 21.7501 11.6483 21.6862 11.5125 21.57L11.5121 21.5696C11.3544 21.433 9.53673 19.8578 7.75712 17.6506C5.96094 15.4228 4.25 12.6071 4.25 10C4.25 7.94457 5.06652 5.97333 6.51992 4.51992C7.97333 3.06652 9.94457 2.25 12 2.25C14.0554 2.25 16.0267 3.06652 17.4801 4.51992C18.9335 5.97333 19.75 7.94457 19.75 10C19.75 12.6076 18.051 15.4236 16.2614 17.6509C14.4788 19.8695 12.6563 21.4439 12.5009 21.5593ZM11.8289 19.8323L11.9996 19.9925L12.1707 19.8327C13.2442 18.8297 14.7567 17.2394 16.0029 15.4755C17.2419 13.7218 18.25 11.7522 18.25 10C18.25 8.3424 17.5915 6.75269 16.4194 5.58058C15.2473 4.40848 13.6576 3.75 12 3.75C10.3424 3.75 8.75269 4.40848 7.58058 5.58058C6.40848 6.75269 5.75 8.3424 5.75 10C5.75 11.7523 6.75814 13.7194 7.99712 15.4718C9.24335 17.2345 10.7557 18.8246 11.8289 19.8323ZM9.91661 6.88199C10.5333 6.46993 11.2583 6.25 12 6.25C12.9946 6.25 13.9484 6.64509 14.6517 7.34835C15.3549 8.05161 15.75 9.00544 15.75 10C15.75 10.7417 15.5301 11.4667 15.118 12.0834C14.706 12.7001 14.1203 13.1807 13.4351 13.4645C12.7498 13.7484 11.9958 13.8226 11.2684 13.6779C10.541 13.5333 9.8728 13.1761 9.34835 12.6517C8.8239 12.1272 8.46675 11.459 8.32205 10.7316C8.17736 10.0042 8.25162 9.25016 8.53545 8.56494C8.81928 7.87971 9.29993 7.29404 9.91661 6.88199ZM10.75 11.8708C11.12 12.118 11.555 12.25 12 12.25C12.5967 12.25 13.169 12.0129 13.591 11.591C14.0129 11.169 14.25 10.5967 14.25 10C14.25 9.55499 14.118 9.11998 13.8708 8.74997C13.6236 8.37996 13.2722 8.09157 12.861 7.92127C12.4499 7.75097 11.9975 7.70642 11.561 7.79323C11.1246 7.88005 10.7237 8.09434 10.409 8.40901C10.0943 8.72368 9.88005 9.12459 9.79323 9.56105C9.70642 9.9975 9.75097 10.4499 9.92127 10.861C10.0916 11.2722 10.38 11.6236 10.75 11.8708Z" fill="#E9EEF3" stroke="#1C54AD" stroke-width="0.5"/>
</svg>
