<svg width="24" height="24" viewBox="0 0 24 24" fill="none" xmlns="http://www.w3.org/2000/svg">
<path d="M18.5306 21.9099H18.9106C19.648 21.9109 20.36 21.6404 20.9106 21.1499C21.227 20.8669 21.4797 20.52 21.6521 20.1322C21.8244 19.7443 21.9126 19.3243 21.9106 18.8999L18.5306 21.9099ZM21.4236 20.0307C21.2657 20.386 21.0341 20.7039 20.7443 20.9632C20.2396 21.4129 19.5869 21.6609 18.911 21.6599H18.9106H18.546C14.4156 21.1465 10.5733 19.2733 7.6247 16.3354C4.67244 13.3939 2.78432 9.55259 2.25859 5.41833L2.25861 5.41833L2.25824 5.41569C2.20423 5.02433 2.23518 4.62592 2.34898 4.2476C2.46278 3.86927 2.65676 3.5199 2.91772 3.22328C3.17868 2.92666 3.50048 2.68975 3.86123 2.52868C4.22197 2.3676 4.61319 2.28615 5.00824 2.28986L5.00824 2.28987H5.01059H8.01059V2.28989L8.01422 2.28984C8.66936 2.28032 9.30637 2.50502 9.81054 2.92348C10.3134 3.34088 10.6512 3.9237 10.7634 4.56744C10.7942 4.80259 10.8353 5.03853 10.8868 5.26527C10.9901 5.72054 11.1235 6.16847 11.2859 6.60612C11.4333 7.01183 11.4256 7.45771 11.2641 7.85807C11.1026 8.25868 10.7986 8.58539 10.4107 8.77534L10.3957 8.78264L10.3819 8.79186L9.96192 9.07186L9.76998 9.19981L9.88212 9.4014C10.4351 10.3954 11.1218 11.3088 11.9232 12.116L11.9245 12.1173C12.7317 12.9186 13.6451 13.6054 14.6391 14.1583L14.8694 14.2865L14.9852 14.0497L15.2051 13.5998C15.3951 13.2119 15.7218 12.9079 16.1224 12.7463C16.5225 12.585 16.9681 12.5771 17.3736 12.7243C17.8109 12.8897 18.2595 13.0232 18.716 13.1238C18.7525 13.1321 18.792 13.1418 18.8337 13.1521C19.0056 13.1942 19.2156 13.2457 19.4166 13.2496C20.0355 13.3654 20.5961 13.69 21.0046 14.1696C21.4171 14.6539 21.6489 15.2662 21.6606 15.9022L21.6606 18.8999L21.6606 18.901C21.6624 19.2901 21.5816 19.6751 21.4236 20.0307ZM20.1906 19.0002L20.1906 18.9983L20.1706 15.8817C20.1762 15.5923 20.0812 15.3099 19.9017 15.0827C19.7214 14.8546 19.4673 14.6964 19.183 14.6354L19.175 14.6337L19.1668 14.6325C18.8998 14.5934 18.6361 14.5446 18.3757 14.486C17.8502 14.3667 17.3322 14.216 16.8248 14.0345L16.6061 13.9563L16.512 14.1686L15.893 15.5664C15.8512 15.6557 15.7921 15.7359 15.7193 15.8024C15.6459 15.8693 15.5599 15.921 15.4664 15.9545L15.4663 15.9542L15.4556 15.9586C15.2747 16.0329 15.072 16.0336 14.8907 15.9607C11.8638 14.546 9.43072 12.1119 8.01722 9.08433C7.9757 8.99481 7.95226 8.89798 7.94823 8.79938C7.9442 8.70069 7.9597 8.60217 7.99385 8.50949C8.02799 8.4168 8.08011 8.33178 8.14721 8.25929C8.21431 8.1868 8.29507 8.12828 8.38484 8.0871L8.38587 8.08662L9.78587 7.43662L9.99656 7.3388L9.91445 7.12151C9.728 6.62803 9.57772 6.12165 9.46479 5.60635L9.4648 5.60635L9.46449 5.60499C9.4059 5.34457 9.35705 5.0808 9.31795 4.81367L9.31676 4.8055L9.31503 4.79743C9.25404 4.51314 9.09586 4.25901 8.86771 4.07877C8.64033 3.89914 8.35762 3.8041 8.06796 3.80987L5.07059 3.80987L5.07027 3.80987C4.89279 3.81009 4.71739 3.84811 4.55575 3.92139C4.3941 3.99467 4.24991 4.10153 4.13277 4.23487L4.13273 4.23483L4.12939 4.2388C4.01269 4.37733 3.92528 4.53809 3.87246 4.71135C3.81963 4.88462 3.80249 5.06679 3.82205 5.24687L3.82203 5.24687L3.82247 5.25048C4.29168 9.05293 6.01342 12.591 8.71611 15.3065C11.4188 18.0221 14.9486 19.7606 18.7488 20.2478L18.7506 20.2481C18.9317 20.27 19.1154 20.2538 19.2899 20.2006C19.4644 20.1474 19.6259 20.0583 19.764 19.9391L19.7656 19.9377C19.8989 19.8205 20.0058 19.6764 20.0791 19.5147C20.1523 19.3531 20.1904 19.1777 20.1906 19.0002Z" fill="#E9EEF3" stroke="#1C54AD" stroke-width="0.5"/>
</svg>
