<svg width="125" height="42" viewBox="0 0 125 42" fill="none" xmlns="http://www.w3.org/2000/svg">
<path d="M20.615 40.825C14.8217 40.825 10.0183 38.9183 6.205 35.105C2.42833 31.2917 0.54 26.5067 0.54 20.75C0.54 14.9933 2.42833 10.2267 6.205 6.45C9.98167 2.6 14.785 0.674998 20.615 0.674998C24.0983 0.674998 27.325 1.5 30.295 3.15C33.265 4.8 35.5933 7.01833 37.28 9.805L28.755 14.7C28.0217 13.3433 26.9217 12.28 25.455 11.51C24.025 10.7033 22.4117 10.3 20.615 10.3C17.5717 10.3 15.0783 11.2717 13.135 13.215C11.265 15.1583 10.33 17.67 10.33 20.75C10.33 23.9033 11.265 26.4333 13.135 28.34C15.0417 30.2467 17.535 31.2 20.615 31.2C22.4117 31.2 24.025 30.815 25.455 30.045C26.9217 29.2383 28.0217 28.1383 28.755 26.745L37.28 31.695C35.5933 34.5183 33.265 36.755 30.295 38.405C27.3617 40.0183 24.135 40.825 20.615 40.825ZM64.5312 36.535V41.1H55.0712V36.535C49.7179 35.875 45.5195 34.17 42.4762 31.42C39.4695 28.6333 37.9662 25.0767 37.9662 20.75C37.9662 16.4233 39.4695 12.885 42.4762 10.135C45.5195 7.34833 49.7179 5.625 55.0712 4.965V0.399998H64.5312V4.965C69.8845 5.625 74.0645 7.34833 77.0712 10.135C80.0779 12.885 81.5812 16.4233 81.5812 20.75C81.5812 25.0767 80.0779 28.6333 77.0712 31.42C74.0645 34.17 69.8845 35.875 64.5312 36.535ZM47.8112 20.75C47.8112 24.5633 50.2312 26.8183 55.0712 27.515V13.82C50.2312 14.5167 47.8112 16.8267 47.8112 20.75ZM64.5312 13.82V27.515C69.3712 26.8183 71.7912 24.5633 71.7912 20.75C71.7912 16.8267 69.3712 14.5167 64.5312 13.82ZM118.707 35.05C114.783 38.9 110.017 40.825 104.407 40.825C98.7233 40.825 93.9383 38.9 90.0516 35.05C86.165 31.1633 84.2216 26.3967 84.2216 20.75C84.2216 15.1033 86.165 10.355 90.0516 6.505C93.9383 2.61833 98.7233 0.674998 104.407 0.674998C110.053 0.674998 114.82 2.61833 118.707 6.505C122.63 10.355 124.592 15.1033 124.592 20.75C124.592 26.36 122.63 31.1267 118.707 35.05ZM96.9816 28.285C98.9983 30.2283 101.473 31.2 104.407 31.2C107.34 31.2 109.815 30.2283 111.832 28.285C113.812 26.305 114.802 23.7933 114.802 20.75C114.802 17.67 113.812 15.1767 111.832 13.27C109.852 11.29 107.377 10.3 104.407 10.3C101.437 10.3 98.9616 11.29 96.9816 13.27C95.0016 15.1767 94.0116 17.67 94.0116 20.75C94.0116 23.7933 95.0016 26.305 96.9816 28.285Z" fill="#E9EEF3"/>
</svg>
