<svg width="21" height="20" viewBox="0 0 21 20" fill="none" xmlns="http://www.w3.org/2000/svg">
<path d="M9.62482 9.63661L9.75 9.56448V9.42V5C9.75 4.80109 9.82902 4.61032 9.96968 4.46967C10.1103 4.32902 10.3011 4.25 10.5 4.25C10.6989 4.25 10.8897 4.32902 11.0303 4.46967C11.171 4.61032 11.25 4.80109 11.25 5V9.97931L11.2334 10.0789L11.2318 10.0887L11.2309 10.0986C11.2273 10.141 11.2169 10.1825 11.2002 10.2217L11.1967 10.2297L11.1938 10.238C11.179 10.2807 11.1597 10.3217 11.1363 10.3603L11.13 10.3706L11.1247 10.3816C11.109 10.4143 11.0904 10.4455 11.0691 10.4749L10.9324 10.586L10.9223 10.5941L10.9132 10.6032L10.8465 10.6699L8.27673 12.1525C8.27648 12.1526 8.27622 12.1528 8.27597 12.1529C8.16185 12.2174 8.03282 12.2509 7.90173 12.25L7.89826 12.25C7.73219 12.2512 7.57044 12.1972 7.43837 12.0965C7.30629 11.9958 7.21136 11.8542 7.16847 11.6938C7.12557 11.5333 7.13713 11.3632 7.20134 11.21C7.26555 11.0569 7.37877 10.9294 7.52326 10.8475L7.52482 10.8466L9.62482 9.63661ZM5.08319 1.89317C6.68657 0.821828 8.57164 0.25 10.5 0.25C11.7804 0.25 13.0482 0.502191 14.2312 0.992175C15.4141 1.48216 16.4889 2.20034 17.3943 3.10571C18.2997 4.01108 19.0178 5.08591 19.5078 6.26884C19.9978 7.45176 20.25 8.71961 20.25 10C20.25 11.9284 19.6782 13.8134 18.6068 15.4168C17.5355 17.0202 16.0127 18.2699 14.2312 19.0078C12.4496 19.7458 10.4892 19.9389 8.59787 19.5627C6.70656 19.1865 4.96928 18.2579 3.60571 16.8943C2.24215 15.5307 1.31355 13.7934 0.937348 11.9021C0.561142 10.0108 0.754225 8.05042 1.49218 6.26884C2.23013 4.48726 3.47982 2.96452 5.08319 1.89317ZM5.91655 16.8596C7.27326 17.7661 8.86831 18.25 10.5 18.25C12.688 18.25 14.7865 17.3808 16.3336 15.8336C17.8808 14.2865 18.75 12.188 18.75 10C18.75 8.3683 18.2661 6.77325 17.3596 5.41655C16.4531 4.05984 15.1646 3.00242 13.6571 2.37799C12.1497 1.75357 10.4909 1.59019 8.89051 1.90852C7.29017 2.22685 5.82016 3.01259 4.66637 4.16637C3.51259 5.32015 2.72685 6.79016 2.40853 8.3905C2.0902 9.99085 2.25358 11.6496 2.878 13.1571C3.50242 14.6646 4.55984 15.9531 5.91655 16.8596Z" fill="#1C54AD" stroke="white" stroke-width="0.5"/>
</svg>
