<svg width="16" height="20" viewBox="0 0 16 20" fill="none" xmlns="http://www.w3.org/2000/svg">
<path d="M8.50092 19.5593L8.49403 19.5644L8.4875 19.57C8.35165 19.6862 8.17877 19.7501 8 19.7501C7.82123 19.7501 7.64835 19.6862 7.5125 19.57L7.51207 19.5696C7.35438 19.433 5.53673 17.8578 3.75712 15.6506C1.96094 13.4228 0.25 10.6071 0.25 8C0.25 5.94457 1.06652 3.97333 2.51992 2.51992C3.97333 1.06652 5.94457 0.25 8 0.25C10.0554 0.25 12.0267 1.06652 13.4801 2.51992C14.9335 3.97333 15.75 5.94457 15.75 8C15.75 10.6076 14.051 13.4236 12.2614 15.6509C10.4788 17.8695 8.65626 19.4439 8.50092 19.5593ZM7.82887 17.8323L7.99957 17.9925L8.17067 17.8327C9.24422 16.8297 10.7567 15.2394 12.0029 13.4755C13.2419 11.7218 14.25 9.75219 14.25 8C14.25 6.3424 13.5915 4.75269 12.4194 3.58058C11.2473 2.40848 9.6576 1.75 8 1.75C6.3424 1.75 4.75269 2.40848 3.58058 3.58058C2.40848 4.75269 1.75 6.3424 1.75 8C1.75 9.75225 2.75814 11.7194 3.99712 13.4718C5.24335 15.2345 6.75573 16.8246 7.82887 17.8323ZM5.91661 4.88199C6.5333 4.46993 7.25832 4.25 8 4.25C8.99456 4.25 9.94839 4.64509 10.6517 5.34835C11.3549 6.05161 11.75 7.00544 11.75 8C11.75 8.74168 11.5301 9.4667 11.118 10.0834C10.706 10.7001 10.1203 11.1807 9.43506 11.4645C8.74984 11.7484 7.99584 11.8226 7.26841 11.6779C6.54098 11.5333 5.8728 11.1761 5.34835 10.6517C4.8239 10.1272 4.46675 9.45902 4.32205 8.73159C4.17736 8.00416 4.25162 7.25016 4.53545 6.56494C4.81928 5.87971 5.29993 5.29404 5.91661 4.88199ZM6.74997 9.87081C7.11998 10.118 7.55499 10.25 8 10.25C8.59674 10.25 9.16903 10.0129 9.59099 9.59099C10.0129 9.16903 10.25 8.59674 10.25 8C10.25 7.55499 10.118 7.11998 9.87081 6.74997C9.62357 6.37996 9.27217 6.09157 8.86104 5.92127C8.4499 5.75097 7.9975 5.70642 7.56105 5.79323C7.12459 5.88005 6.72368 6.09434 6.40901 6.40901C6.09434 6.72368 5.88005 7.12459 5.79323 7.56105C5.70642 7.9975 5.75097 8.4499 5.92127 8.86104C6.09157 9.27217 6.37996 9.62357 6.74997 9.87081Z" fill="#1C54AD" stroke="#E9EEF3" stroke-width="0.5"/>
</svg>
