<svg width="107" height="28" fill="none" xmlns="http://www.w3.org/2000/svg"><g clip-path="url(#clip0_3133_2020)" fill="#E9EEF3"><path d="M78.561 15.89v7.17h-1.146v-6.146h-2.659v1.126c0 1.03-.05 1.891-.153 2.584-.102.693-.256 1.22-.46 1.58-.206.36-.432.61-.68.748-.244.138-.545.208-.898.208-.125 0-.257-.013-.396-.04a2.294 2.294 0 01-.327-.08l-.111-.03v-1.075c.207.067.396.099.57.099a.89.89 0 00.516-.147c.145-.099.282-.283.41-.553.13-.27.225-.679.286-1.229.06-.55.092-1.238.092-2.065v-2.15h4.956zm-14.227 7.17l3.026-7.17h1.148l3.025 7.17h-1.198l-.784-1.895h-3.234l-.785 1.894h-1.198zm3.601-5.89l-1.201 2.97h2.4l-1.199-2.97zm-8.501-1.28h5.528v1.024H62.77v6.145h-1.145v-6.145h-2.191V15.89zm-5.789 0h2.917c.698 0 1.28.223 1.752.672.47.449.704.993.704 1.635s-.235 1.186-.704 1.631c-.471.448-1.054.67-1.752.67h-1.771v2.56h-1.146V15.89zm2.918 1.024H54.79v2.56h1.772c.36 0 .668-.121.923-.367.254-.244.381-.548.381-.91s-.127-.665-.38-.913a1.288 1.288 0 00-.924-.37zM45.605 23.06l3.026-7.17h1.148l3.026 7.17h-1.198l-.784-1.895h-3.235l-.784 1.894h-1.199zm3.602-5.89l-1.202 2.97h2.4l-1.198-2.97zm-6.155 5.89h-3.126v-7.17h2.97c.59 0 1.096.19 1.513.575.417.382.627.822.627 1.319 0 .287-.062.55-.181.79-.12.241-.24.406-.358.5l-.19.145c.028.014.066.036.115.068.049.03.139.1.268.205.128.104.24.22.333.346.093.126.18.292.26.493.08.202.12.412.12.628 0 .572-.225 1.067-.673 1.48-.45.414-1.008.62-1.678.62zm-.156-6.195H41.07v1.945h1.825a.967.967 0 00.71-.278.928.928 0 00.283-.695.928.928 0 00-.284-.695.969.969 0 00-.71-.277zm-1.824 5.22h1.98c.342 0 .627-.113.858-.338a1.13 1.13 0 00.346-.838c0-.333-.115-.613-.345-.84a1.169 1.169 0 00-.859-.34h-1.98v2.355zm-6.834-6.195v3.485l3.285-3.485h1.463l-2.818 2.97 3.026 4.2h-1.41l-2.4-3.38-1.146 1.23v2.15h-1.146v-7.17h1.146zM107 11.147h-1.146V5.978l-4.071 5.17h-.988v-7.17h1.146v5.174l4.071-5.174H107v7.17zm-7.878 0h-1.146V5.978l-4.07 5.17h-.988v-7.17h1.145v5.174l4.072-5.174h.987v7.17zM87.228 3.978v3.485l3.285-3.485h1.463l-2.818 2.97 3.027 4.2h-1.411l-2.4-3.38-1.146 1.23v2.15h-1.146v-7.17h1.146zm-5.215-.101c.37 0 .725.048 1.064.144.34.093.62.21.843.346.223.137.418.271.585.406.165.133.288.247.367.345l.11.14-.728.72a5.153 5.153 0 00-.088-.113 3.099 3.099 0 00-.269-.263 2.627 2.627 0 00-.448-.327 3.025 3.025 0 00-.624-.255 2.75 2.75 0 00-.813-.117c-.756 0-1.4.257-1.924.77a2.539 2.539 0 00-.79 1.889c0 .744.26 1.373.785 1.89.526.518 1.17.776 1.93.776.284 0 .558-.04.817-.118a2.63 2.63 0 00.647-.282 4.97 4.97 0 00.454-.327c.13-.11.227-.202.293-.279l.08-.124.734.72a1.713 1.713 0 01-.123.157c-.058.065-.18.179-.372.343a4.591 4.591 0 01-.612.436 3.76 3.76 0 01-.846.34 3.783 3.783 0 01-1.072.154c-1.094 0-2.01-.356-2.752-1.07-.74-.713-1.11-1.585-1.11-2.615 0-1.03.37-1.901 1.11-2.615.742-.714 1.658-1.07 2.752-1.07zm-5.115 7.27h-1.146V5.978l-4.071 5.17h-.988v-7.17h1.146v5.174l4.072-5.174h.987v7.17zm-7.878 0h-1.147V5.978l-4.07 5.17h-.988v-7.17h1.146v5.174l4.07-5.174h.988v7.17zm-7.872-7.169v7.17h-1.146V5.001H56.4v6.145h-1.146V3.978h5.894zm-9.601 7.169h-2.918V3.978h1.146v2.56h1.772c.697 0 1.28.224 1.751.672.47.45.704.993.704 1.635s-.234 1.186-.704 1.632c-.471.447-1.054.67-1.751.67zm-1.772-1.025h1.772c.36 0 .668-.121.923-.367.254-.244.381-.548.381-.91s-.125-.666-.379-.913a1.278 1.278 0 00-.925-.37h-1.772v2.56zm-2.822-6.144v7.17h-1.146V5.002h-2.659V6.13c0 1.029-.05 1.89-.152 2.583-.103.693-.256 1.22-.461 1.58-.206.36-.431.61-.678.748-.246.139-.547.209-.9.209a2.05 2.05 0 01-.396-.042 2.29 2.29 0 01-.327-.08l-.111-.028v-1.076c.207.067.397.1.57.1a.89.89 0 00.517-.147c.144-.1.282-.283.41-.553.13-.27.225-.68.286-1.229.06-.551.092-1.239.092-2.065V3.98h4.956zM32.65 11.147l3.026-7.169h1.148l3.026 7.17h-1.198l-.784-1.895h-3.235l-.784 1.894H32.65zm3.602-5.889l-1.202 2.97h2.4l-1.198-2.97zm37.555-1.855L71.459.99h1.38l.968.993.965-.99h1.382l-2.347 2.411zm30.078.002l-2.348-2.41h1.383l.965.99.964-.99h1.384l-2.348 2.41zM12.633 28l-.178-.07c-3.81-1.489-6.97-3.783-9.138-6.633C1.147 18.445 0 15.08 0 11.565V0h25.266v11.565c0 3.515-1.147 6.88-3.318 9.732-2.168 2.85-5.328 5.144-9.137 6.633l-.178.07zM.961.943v10.622c0 6.743 4.36 12.495 11.672 15.419 7.313-2.924 11.672-8.676 11.672-15.42V.945H.96z"/><path d="M13.113.472h-.96v26.99h.96V.472z"/><path d="M.767 9.622l-.546.776 12.138 8.22.546-.776L.767 9.622zm.002-4.374l-.546.776 12.138 8.22.546-.776L.769 5.248zm0-4.374l-.546.776L12.36 9.871l.546-.777L.769.874zm.187 13.25L.41 14.9l11.948 8.092.546-.776L.956 14.124zm17.887-.668h-3.505v-4.83h3.505v4.83zm-2.544-.944h1.582V9.57H16.3v2.943zm2.544 7.982h-3.505v-4.83h3.505v4.83zm-2.544-.944h1.582v-2.943H16.3v2.943zm8.576-12.444h-3.463L17.09 4.483l-4.203 2.553-.506-.802 4.71-2.86 4.594 2.79h3.19v.942z"/></g><defs><clipPath id="clip0_3133_2020"><path fill="#fff" d="M0 0h107v28H0z"/></clipPath></defs></svg>