<svg width="107" height="28" viewBox="0 0 107 28" fill="none" xmlns="http://www.w3.org/2000/svg">
<g clip-path="url(#clip0_3133_3371)">
<path d="M78.5612 15.8899V23.0592H77.4151V16.9139H74.7562V18.0403C74.7562 19.0695 74.7063 19.9313 74.6034 20.624C74.5006 21.3168 74.3472 21.8441 74.1421 22.2042C73.937 22.5643 73.7112 22.8134 73.4639 22.9518C73.219 23.0903 72.9182 23.1602 72.5651 23.1602C72.4396 23.1602 72.3077 23.1465 72.1686 23.1195C72.0295 23.0939 71.9201 23.0665 71.8416 23.0391L71.7305 23.0103V21.9351C71.9379 22.0018 72.127 22.0338 72.3011 22.0338C72.5009 22.0338 72.6733 21.9858 72.8171 21.8871C72.9616 21.7879 73.0989 21.6038 73.2279 21.3341C73.3563 21.0645 73.452 20.6551 73.5126 20.1054C73.5738 19.5543 73.6048 18.8665 73.6048 18.0403V15.8904L78.5612 15.8899Z" fill="#E9EEF3"/>
<path d="M64.334 23.0592L67.3597 15.8899H68.5076L71.5333 23.0592H70.3355L69.5508 21.1651H66.3165L65.5324 23.0592H64.334ZM67.9351 17.1698L66.7338 20.1392H69.1335L67.9351 17.1698Z" fill="#E9EEF3"/>
<path d="M59.4336 15.8899H64.9622V16.9139H62.7705V23.0592H61.625V16.9139H59.4336V15.8899Z" fill="#E9EEF3"/>
<path d="M53.6445 15.8899H56.5624C57.26 15.8899 57.8426 16.1133 58.3138 16.5621C58.7832 17.0108 59.0179 17.5555 59.0179 18.1971C59.0179 18.8386 58.7832 19.3829 58.3138 19.8284C57.8426 20.2758 57.26 20.4988 56.5624 20.4988H54.7906V23.0588H53.6445V15.8899ZM56.5629 16.9139H54.791V19.4738H56.5629C56.9228 19.4738 57.2306 19.3527 57.4863 19.1069C57.7401 18.8629 57.8672 18.559 57.8672 18.1971C57.8672 17.8352 57.7401 17.5317 57.4863 17.2841C57.2306 17.0387 56.9228 16.9139 56.5629 16.9139Z" fill="#E9EEF3"/>
<path d="M45.6055 23.0592L48.6314 15.8899H49.7792L52.8052 23.0592H51.607L50.8228 21.1651H47.5883L46.8041 23.0592H45.6055ZM49.207 17.1698L48.0055 20.1392H50.4051L49.207 17.1698Z" fill="#E9EEF3"/>
<path d="M43.0523 23.0592H39.9258V15.8899H42.8963C43.4858 15.8899 43.992 16.0809 44.4092 16.4647C44.8264 16.8472 45.0356 17.2873 45.0356 17.784C45.0356 18.0705 44.9745 18.3337 44.8549 18.5741C44.7347 18.8149 44.6151 18.9803 44.4968 19.074L44.3073 19.2189C44.3352 19.2326 44.3734 19.2545 44.4218 19.2869C44.4707 19.3176 44.561 19.3861 44.6895 19.4917C44.8181 19.5959 44.9294 19.712 45.0234 19.8381C45.1156 19.9642 45.2027 20.1301 45.2823 20.3311C45.3625 20.5326 45.4025 20.7424 45.4025 20.959C45.4025 21.5307 45.1781 22.0256 44.7296 22.4386C44.2802 22.8527 43.7219 23.0592 43.0523 23.0592ZM42.8958 16.8646H41.0713V18.8099H42.8958C43.1808 18.8099 43.4174 18.7176 43.6055 18.5316C43.795 18.3474 43.8886 18.1153 43.8886 17.837C43.8886 17.5587 43.795 17.3266 43.6055 17.1424C43.4174 16.9569 43.1808 16.8646 42.8958 16.8646ZM41.0718 22.0845H43.0527C43.3936 22.0845 43.6786 21.9721 43.91 21.7468C44.1396 21.5215 44.256 21.2414 44.256 20.9087C44.256 20.576 44.141 20.2959 43.9114 20.0693C43.6818 19.8421 43.3969 19.7297 43.0523 19.7297H41.0713L41.0718 22.0845Z" fill="#E9EEF3"/>
<path d="M34.2378 15.8899V19.3747L37.5231 15.8899H38.9858L36.168 18.8592L39.1944 23.0592H37.7839L35.3839 19.6804L34.2378 20.9092V23.0592H33.0918V15.8899H34.2378Z" fill="#E9EEF3"/>
<path d="M107 11.1471H105.854V5.97839L101.783 11.1471H100.795V3.97827H101.941V9.15249L106.012 3.97827H107V11.1471Z" fill="#E9EEF3"/>
<path d="M99.1222 11.1471H97.9761V5.97839L93.9053 11.1471H92.918V3.97827H94.0635V9.15249L98.1348 3.97827H99.1222V11.1471Z" fill="#E9EEF3"/>
<path d="M87.2281 3.97827V7.46309L90.513 3.97827H91.976L89.1583 6.94766L92.1846 11.1471H90.774L88.3742 7.76835L87.2281 8.99714V11.1471H86.082V3.97827H87.2281Z" fill="#E9EEF3"/>
<path d="M82.0131 3.8772C82.3834 3.8772 82.7383 3.92518 83.0772 4.02069C83.4178 4.11436 83.6978 4.23043 83.9201 4.36707C84.143 4.5037 84.338 4.63851 84.505 4.77331C84.6703 4.90628 84.7933 5.02053 84.8718 5.11786L84.9829 5.25769L84.2541 5.97785C84.2333 5.95043 84.2042 5.91298 84.1656 5.86498C84.1252 5.81564 84.0366 5.72836 83.8975 5.60224C83.7584 5.47612 83.6086 5.36691 83.4493 5.2746C83.2894 5.18229 83.0819 5.09867 82.8245 5.02052C82.5689 4.94193 82.2978 4.90263 82.0125 4.90263C81.2558 4.90263 80.6126 5.16036 80.0877 5.67399C79.5604 6.18943 79.2977 6.81913 79.2977 7.56172C79.2977 8.30564 79.5586 8.93535 80.0835 9.45265C80.609 9.96989 81.2522 10.2277 82.0125 10.2277C82.2972 10.2277 82.5707 10.1884 82.8299 10.1098C83.0908 10.0311 83.306 9.93746 83.4766 9.82826C83.6484 9.71719 83.8 9.60799 83.9308 9.5006C84.061 9.3914 84.1584 9.29912 84.2244 9.22235L84.3047 9.09758L85.0382 9.81776C85.0121 9.85702 84.9705 9.91004 84.9152 9.97497C84.8575 10.0398 84.7345 10.1541 84.5431 10.3181C84.3499 10.4804 84.1466 10.6257 83.9308 10.7536C83.715 10.8797 83.4332 10.994 83.0855 11.095C82.7377 11.1973 82.3793 11.2485 82.0125 11.2485C80.9187 11.2485 80.0021 10.8921 79.2614 10.1787C78.5207 9.46543 78.1504 8.59352 78.1504 7.56265C78.1504 6.53353 78.5207 5.66165 79.2614 4.94833C80.0027 4.23409 80.9193 3.8772 82.0131 3.8772Z" fill="#E9EEF3"/>
<path d="M76.8982 11.1471H75.7521V5.97839L71.6807 11.1471H70.6934V3.97827H71.8394V9.15249L75.9108 3.97827H76.8982V11.1471Z" fill="#E9EEF3"/>
<path d="M69.0193 11.1471H67.8732V5.97839L63.8024 11.1471H62.8145V3.97827H63.9605V9.15249L68.0319 3.97827H69.0193V11.1471Z" fill="#E9EEF3"/>
<path d="M61.1477 3.97827V11.1471H60.0016V5.00233H56.3999V11.1471H55.2539V3.97827H61.1477Z" fill="#E9EEF3"/>
<path d="M51.5468 11.1471H48.6289V3.97827H49.7749V6.53822H51.5468C52.2444 6.53822 52.8269 6.76164 53.2981 7.21039C53.7676 7.65915 54.0023 8.2034 54.0023 8.84542C54.0023 9.48697 53.7676 10.0312 53.2981 10.4768C52.8265 10.9237 52.2439 11.1471 51.5468 11.1471ZM49.7749 10.1217H51.5468C51.9067 10.1217 52.2145 10.0006 52.4702 9.75478C52.724 9.51077 52.8511 9.20685 52.8511 8.84495C52.8511 8.48305 52.7259 8.17913 52.472 7.93192C52.2196 7.6861 51.9105 7.56179 51.5468 7.56179H49.7749V10.1217Z" fill="#E9EEF3"/>
<path d="M46.9535 3.97827V11.1476H45.8075V5.00233H43.1485V6.12878C43.1485 7.15783 43.0982 8.01965 42.9958 8.71242C42.8933 9.40519 42.7401 9.93252 42.5348 10.2926C42.3294 10.6527 42.1036 10.9017 41.8567 11.0402C41.6113 11.1787 41.3105 11.2486 40.9575 11.2486C40.8323 11.2486 40.7 11.2349 40.5612 11.2075C40.422 11.1819 40.3126 11.1549 40.2343 11.1275L40.123 11.0987V10.0235C40.3303 10.0902 40.5198 10.1226 40.6935 10.1226C40.8937 10.1226 41.0655 10.0746 41.2099 9.97592C41.3543 9.87675 41.4916 9.69265 41.6202 9.42303C41.7492 9.15342 41.8446 8.74351 41.9056 8.19424C41.9667 7.64311 41.9978 6.95542 41.9978 6.12918V3.97919H46.9535V3.97827Z" fill="#E9EEF3"/>
<path d="M32.6504 11.1473L35.6763 3.97803H36.8242L39.8501 11.1473H38.6519L37.8677 9.2532H34.6332L33.849 11.1473H32.6504ZM36.2519 5.25844L35.0505 8.22782H37.4505L36.2519 5.25844Z" fill="#E9EEF3"/>
<path d="M73.807 3.40319L71.459 0.989502H72.8387L73.807 1.98249L74.7724 0.991783H76.1545L73.807 3.40319Z" fill="#E9EEF3"/>
<path d="M103.885 3.40494L101.537 0.995361H102.92L103.885 1.98469L104.849 0.995361H106.233L103.885 3.40494Z" fill="#E9EEF3"/>
<path d="M12.633 28L12.4552 27.9304C8.64578 26.441 5.4858 24.1473 3.31727 21.2974C1.14734 18.4455 0 15.0798 0 11.5649V0H25.2657V11.5649C25.2657 15.0798 24.1187 18.4455 21.9484 21.2974C19.7799 24.1473 16.6203 26.441 12.8109 27.9304L12.633 28ZM0.961419 0.94311V11.5649C0.961419 18.3083 5.32014 24.0602 12.633 26.9838C19.9459 24.0602 24.3046 18.3083 24.3046 11.5649V0.94311H0.961419Z" fill="#E9EEF3"/>
<path d="M13.1134 0.471436H12.1523V27.4614H13.1134V0.471436Z" fill="#E9EEF3"/>
<path d="M0.766793 9.62158L0.220703 10.3981L12.3587 18.6186L12.9047 17.8421L0.766793 9.62158Z" fill="#E9EEF3"/>
<path d="M0.768744 5.2478L0.222656 6.02427L12.3606 14.2448L12.9067 13.4683L0.768744 5.2478Z" fill="#E9EEF3"/>
<path d="M0.768744 0.874023L0.222656 1.65049L12.3606 9.87102L12.9067 9.09455L0.768744 0.874023Z" fill="#E9EEF3"/>
<path d="M0.956245 14.124L0.410156 14.9005L12.3577 22.9921L12.9038 22.2156L0.956245 14.124Z" fill="#E9EEF3"/>
<path d="M18.8425 13.4555H15.3379V8.62573H18.8425V13.4555ZM16.2993 12.512H17.8814V9.56887H16.2993V12.512Z" fill="#E9EEF3"/>
<path d="M18.8425 20.4935H15.3379V15.6638H18.8425V20.4935ZM16.2993 19.5501H17.8814V16.607H16.2993V19.5501Z" fill="#E9EEF3"/>
<path d="M24.8755 7.10627H21.4118L17.0905 4.48273L12.8866 7.03598L12.3809 6.23383L17.0905 3.37329L21.685 6.16319H24.8755V7.10627Z" fill="#E9EEF3"/>
</g>
<defs>
<clipPath id="clip0_3133_3371">
<rect width="107" height="28" fill="white"/>
</clipPath>
</defs>
</svg>
