<svg width="72" height="62" viewBox="0 0 72 62" fill="none" xmlns="http://www.w3.org/2000/svg">
<g clip-path="url(#clip0_3133_3432)">
<mask id="mask0_3133_3432" style="mask-type:luminance" maskUnits="userSpaceOnUse" x="0" y="0" width="72" height="62">
<path d="M72 0H0V62H72V0Z" fill="white"/>
</mask>
<g mask="url(#mask0_3133_3432)">
<path d="M15.8375 43.8391C15.8533 44.0154 15.8612 44.1508 15.8612 44.2415C15.8612 44.3182 15.8533 44.4677 15.8375 44.6802C15.089 44.6802 14.3681 44.6394 13.6747 44.5533L13.202 44.5401L12.8197 44.4992C12.481 44.4766 12.2091 44.463 12.0004 44.463C11.6851 44.463 10.7041 44.5401 9.05344 44.6938L8.60427 44.6666C8.53728 44.6666 8.43493 44.6712 8.30485 44.6802C8.26549 44.4856 8.24581 44.1602 8.24581 43.7033C8.33248 43.6491 8.61216 43.5678 9.08891 43.4545C9.79013 43.2872 10.3102 43.0883 10.649 42.8575L10.5899 40.3793L10.6135 37.7788L10.5781 36.8972L10.5899 36.5399L9.76261 36.5127C9.28192 36.5127 8.94315 36.5715 8.74619 36.6937C8.55307 36.8155 8.37973 37.0101 8.23003 37.2724C8.08032 37.5391 7.71392 38.3035 7.13088 39.5743C6.55173 40.8405 6.07499 41.9665 5.6968 42.9392L5.00342 44.6802L3.76636 44.5716L0.657915 44.6938H0.496372L0.0117965 44.6802C0.00395971 44.558 0 44.463 0 44.3863C0 44.2641 0.0275962 44.1376 0.0787883 43.9971C0.256086 43.9204 0.512172 43.8208 0.850971 43.7033C1.25676 43.5542 1.57984 43.3097 1.82404 42.9707C2.06437 42.636 2.65142 41.5734 3.58118 39.7826C4.73155 37.5663 5.51557 36.3138 5.94107 36.0199C3.6994 35.3414 2.57655 33.9665 2.57655 31.8953C2.57655 30.6064 3.00993 29.5346 3.87666 28.6799C4.7434 27.8252 6.25232 27.3955 8.40731 27.3955C9.0416 27.3955 9.62469 27.4317 10.1644 27.4995C10.8814 27.5764 11.7285 27.6126 12.7055 27.6126L13.1547 27.599L13.5723 27.5855C14.5257 27.5855 15.2309 27.6307 15.6839 27.7211C15.7076 27.798 15.7194 27.8477 15.7194 27.8614V28.2005C15.7194 28.4583 15.7116 28.6076 15.6958 28.6437C15.55 28.6799 15.3215 28.707 15.0063 28.7342C14.5217 28.7794 14.1081 28.8472 13.7693 28.9331C13.7299 29.4351 13.7141 30.5883 13.7141 32.3837L13.7693 35.8615L13.7574 37.0914L13.8047 38.9866L13.7929 40.1216C13.7929 41.9576 13.8205 43.0112 13.8756 43.2828C14.1514 43.4047 14.5257 43.5043 14.9945 43.5721C15.3884 43.6355 15.6682 43.7258 15.8375 43.8391ZM10.6135 35.2916L10.5899 33.9575L10.5781 33.3515L10.5899 31.9088L10.5662 30.8281V28.793C10.3535 28.7477 10.0344 28.7251 9.6168 28.7251C8.43493 28.7251 7.576 28.9784 7.03237 29.4849C6.48869 29.9914 6.21685 30.8416 6.21685 32.04C6.21685 33.1345 6.50048 33.953 7.07173 34.5002C7.64304 35.0474 8.54912 35.3188 9.79803 35.3188L10.6135 35.2916Z" fill="#E9EEF3"/>
<path d="M25.244 41.2339C25.3662 41.3153 25.4568 41.3651 25.5199 41.3923C25.6971 41.4783 25.839 41.5912 25.9453 41.7224C25.7404 42.6043 25.2362 43.3684 24.4364 44.0107C23.6367 44.6575 22.6241 44.9786 21.4028 44.9786C20.6346 44.9786 19.8703 44.793 19.1178 44.4224C18.3654 44.0515 17.7665 43.563 17.3174 42.957C16.9746 42.4868 16.7146 41.9123 16.5413 41.2339C16.3679 40.5555 16.2812 39.9767 16.2812 39.5019C16.2812 38.9274 16.3876 38.2808 16.6042 37.5526C16.821 36.8248 17.1795 36.1374 17.6877 35.495C18.1959 34.8528 18.8342 34.3418 19.6103 33.962C20.3825 33.582 21.2531 33.3921 22.2223 33.3921C23.55 33.3921 24.4759 33.6318 24.9998 34.1066C25.5238 34.586 25.7838 35.0654 25.7838 35.5403C25.7838 36.0105 25.6774 36.3814 25.4686 36.6484C25.2559 36.9197 24.9643 37.0552 24.5979 37.0552C24.2828 37.0552 23.9912 36.9376 23.7273 36.6979C23.4633 36.4581 23.2426 36.0556 23.0654 35.495C22.9275 35.088 22.7503 34.7895 22.5336 34.6041C22.3208 34.4278 22.0647 34.3418 21.7653 34.3418C21.0404 34.3418 20.3982 34.6946 19.827 35.4046C19.2596 36.1144 18.976 37.0778 18.976 38.3034C18.976 39.7731 19.3227 40.94 20.02 41.8084C20.7134 42.6721 21.5014 43.1061 22.3878 43.1061C22.825 43.1061 23.1954 43.0473 23.5027 42.9344C23.6957 42.8574 23.9558 42.6857 24.2867 42.4187C24.3694 42.351 24.531 42.161 24.7634 41.8535C24.9998 41.5461 25.1574 41.3378 25.244 41.2339Z" fill="#E9EEF3"/>
<path d="M31.1214 38.8598L31.5508 38.9006L33.1779 38.8734L33.6191 38.9006L34.407 38.9275C34.7144 38.9275 35.128 38.9139 35.6481 38.8871L35.6599 37.3765C35.6599 36.101 35.6481 35.364 35.6205 35.1651C35.593 34.9705 35.3723 34.8666 34.9587 34.8575C34.7893 34.8485 34.5174 34.8213 34.1431 34.7761L33.9934 33.8535C35.0138 33.9259 35.7505 33.9621 36.1997 33.9621L36.7984 33.9485L37.7203 33.9621C38.7525 33.9621 39.4814 33.9259 39.903 33.8535L39.7533 34.7761C39.2726 34.8394 38.993 34.8711 38.9141 34.8711C38.5635 34.8756 38.3666 34.9434 38.323 35.061C38.2798 35.1786 38.256 35.6489 38.2485 36.4719L38.2128 38.1047L38.1775 40.4743C38.1775 42.3601 38.2366 43.441 38.3507 43.7259C38.8273 43.8571 39.1899 43.9431 39.4382 43.9746C39.5603 43.9929 39.6823 44.0198 39.7965 44.056L39.8083 44.8702L38.4374 44.7978C38.004 44.7752 37.5943 44.7616 37.2005 44.7616L35.5181 44.8204L34.088 44.8702L34.0998 44.056C34.2062 44.0198 34.3244 43.9929 34.4544 43.9746C34.8838 43.9158 35.2462 43.8299 35.5339 43.7259C35.6717 42.8307 35.7427 41.7949 35.7427 40.6191L35.719 39.8636C35.2266 39.8909 34.7499 39.9045 34.285 39.9045C33.6112 39.9045 33.107 39.8955 32.7839 39.8772L31.8029 39.8504C31.602 39.8504 31.3932 39.8636 31.1687 39.8909L31.1805 40.5557L31.1568 42.4371C31.1568 42.9163 31.2081 43.346 31.3066 43.7259C31.7833 43.8571 32.1457 43.9431 32.3939 43.9746C32.516 43.9929 32.6342 44.0198 32.7406 44.056L32.7642 44.8702L31.3932 44.7978C30.9599 44.7752 30.5501 44.7616 30.1562 44.7616L28.4739 44.8204L27.0437 44.8702L27.0556 44.056C27.162 44.0198 27.2802 43.9929 27.4102 43.9746C27.8317 43.9158 28.1902 43.8299 28.4896 43.7259C28.596 43.1335 28.6512 42.0479 28.6512 40.4743L28.6039 36.7661C28.5922 35.676 28.5487 35.0882 28.4818 34.9932C28.4109 34.9027 28.2218 34.8575 27.9105 34.8575C27.7332 34.8485 27.4614 34.8213 27.099 34.7761L26.9492 33.8535C27.9696 33.9259 28.7063 33.9621 29.1594 33.9621L29.7582 33.9485L30.6802 33.9621C31.7202 33.9621 32.4451 33.9259 32.8588 33.8535L32.717 34.7761C32.2284 34.8394 31.9448 34.8711 31.87 34.8711C31.5035 34.8756 31.2987 34.9434 31.2554 35.061C31.212 35.1786 31.1884 35.6534 31.1805 36.4719C31.1726 37.5259 31.1528 38.3215 31.1214 38.8598Z" fill="#E9EEF3"/>
<path d="M45.0448 38.4799L46.3332 38.4394L46.7587 38.4122C48.6772 38.4122 49.9617 38.6788 50.6078 39.2081C51.2577 39.7371 51.5809 40.4607 51.5809 41.3831C51.5809 42.487 51.1907 43.3234 50.4106 43.8979C49.6308 44.472 48.5393 44.7616 47.1328 44.7616L45.5888 44.7344L40.9436 44.8971L40.9674 44.1105L41.7198 43.9793C42.0114 43.9341 42.2396 43.875 42.4013 43.803C42.5157 43.5632 42.5748 42.3737 42.5748 40.2256L42.5392 37.9689L42.5039 36.3995C42.5039 35.6082 42.4841 35.156 42.4409 35.0339C42.4013 34.9163 42.2004 34.853 41.8379 34.8439L40.9987 34.7489L40.8965 34.0254L42.3026 34.0118L42.7282 33.9892C43.0673 33.9711 43.5321 33.9621 44.1228 33.9621L45.439 33.935L46.2821 33.9485C46.4279 33.9485 46.672 33.9168 47.0186 33.8535L46.8807 34.7489C46.3724 34.8123 46.0654 34.8394 45.9548 34.8394C45.502 34.8394 45.2341 34.9027 45.1474 35.0203C45.0645 35.1379 45.0213 35.4454 45.0213 35.9383L45.0329 37.1955V37.8965C45.0329 38.0728 45.0369 38.2674 45.0448 38.4799ZM45.1038 43.5858C45.372 43.6807 45.7738 43.7305 46.3055 43.7305C48.0428 43.7305 48.9097 43.0159 48.9097 41.5867C48.9097 40.9718 48.693 40.4607 48.2556 40.0672C47.8222 39.6694 47.1684 39.4705 46.2936 39.4705C45.9354 39.4705 45.5293 39.5067 45.0804 39.5744C45.0725 39.683 45.0685 39.7418 45.0685 39.7597L45.0804 40.5829C45.0408 41.4828 45.0213 42.3601 45.0213 43.2148C45.0213 43.3281 45.0488 43.4546 45.1038 43.5858ZM51.9431 34.7489L51.7937 33.8535C52.81 33.9259 53.547 33.9621 54.0116 33.9621L54.6105 33.9485L55.5321 33.9621C56.5721 33.9621 57.3054 33.9259 57.7268 33.8535L57.5769 34.7489L56.738 34.8439C56.3833 34.8439 56.1865 34.9027 56.147 35.0203C56.1038 35.1424 56.0761 35.5947 56.0718 36.3863L56.0366 37.9689L56.0009 40.212C56.0009 42.3601 56.0606 43.5496 56.1748 43.7893C56.6313 43.9158 56.994 43.9929 57.2617 44.0291C57.3764 44.047 57.4985 44.0743 57.6201 44.1105L57.6324 44.8702L56.8324 44.834C56.0089 44.7842 55.4025 44.7616 55.0158 44.7616L51.888 44.8702L51.8999 44.1105C52.018 44.0743 52.1364 44.047 52.2624 44.0291C52.7193 43.961 53.0818 43.8797 53.3534 43.7893C53.4324 43.3281 53.4718 42.2289 53.4718 40.4922V38.7243L53.4836 37.2499C53.4836 36.0332 53.4681 35.3278 53.4361 35.1288C53.4052 34.9299 53.1844 34.8258 52.7747 34.8168C52.6249 34.8168 52.3492 34.7942 51.9431 34.7489Z" fill="#E9EEF3"/>
<path d="M66.2207 34.7486L66.0671 33.8532C67.0837 33.9346 67.8202 33.9753 68.2853 33.9753L68.8842 33.9618L69.8063 33.9753C70.8463 33.9753 71.5786 33.9346 72.0005 33.8532L71.8506 34.7486L71.0117 34.8436C70.6415 34.8436 70.4399 34.9115 70.409 35.0471C70.3733 35.1828 70.3498 35.9154 70.3338 37.2406L70.3103 38.118L70.2746 39.2168C70.2746 42.0612 70.3338 43.5808 70.4479 43.7664C70.905 43.8882 71.2677 43.97 71.5354 44.0015C71.6495 44.0194 71.7717 44.0467 71.8943 44.0828L71.9055 44.8699L71.1061 44.8336C70.2869 44.7838 69.6837 44.7613 69.2901 44.7613L66.1621 44.8699L66.1733 44.0828C66.2917 44.0467 66.4101 44.0194 66.5359 44.0015C66.993 43.9338 67.3594 43.8521 67.6314 43.7664C67.7215 43.2102 67.769 42.0974 67.769 40.4288V39.4881L67.7215 38.0455C67.7215 37.9144 67.7375 37.6746 67.769 37.3309C65.3935 40.3292 63.8767 42.1383 63.2266 42.7533C63.2581 43.1829 63.3173 43.522 63.3999 43.7664C63.857 43.8882 64.2197 43.97 64.4917 44.0061C64.6058 44.0194 64.7237 44.0467 64.8383 44.0828L64.8618 44.8699L64.0661 44.8336C63.2426 44.7838 62.6394 44.7613 62.2538 44.7613L59.1413 44.8699L59.153 44.0828C59.2671 44.0467 59.3898 44.0194 59.5114 44.0015C59.9567 43.9338 60.3189 43.8521 60.5989 43.7664C60.6895 43.2055 60.7365 42.6221 60.7365 42.0161L60.7253 39.8952V37.9549L60.713 37.2406L60.7013 36.3812C60.6933 35.5943 60.6655 35.1376 60.6223 35.0155C60.5754 34.8888 60.3743 34.8255 60.0122 34.8165C59.8661 34.8165 59.5946 34.7939 59.1962 34.7486L59.0469 33.8532C60.0591 33.9256 60.7962 33.9618 61.257 33.9618L61.8554 33.9482L62.7775 33.9618C63.8175 33.9618 64.5423 33.9256 64.9562 33.8532L64.8186 34.7486L63.9711 34.8436C63.593 34.8436 63.3882 34.9115 63.353 35.0471C63.3173 35.1828 63.2975 35.92 63.2895 37.2449L63.2543 38.0545L63.2186 39.0132L63.2309 41.5501L65.3386 38.9275C65.9493 38.1269 66.465 37.4847 66.8826 37.0052C67.2965 36.5303 67.5759 36.1777 67.7215 35.9472C67.7375 35.7029 67.7455 35.5356 67.7455 35.4542C67.7455 35.0562 67.5167 34.8436 67.0602 34.8165C66.8234 34.8074 66.5439 34.7849 66.2207 34.7486ZM61.7178 29.3172C61.7178 28.9464 61.8319 28.6344 62.0602 28.3766C62.2853 28.1189 62.5647 27.9922 62.8959 27.9922C63.1754 27.9922 63.4037 28.0781 63.5893 28.2455C63.7743 28.4128 64.0186 28.8062 64.3178 29.4348C64.7274 30.2805 65.177 30.7056 65.6693 30.7056C66.1658 30.7056 66.6106 30.2805 67.0127 29.4348C67.273 28.8876 67.5013 28.5123 67.6986 28.3042C67.8954 28.0963 68.1471 27.9922 68.4549 27.9922C68.7738 27.9922 69.0415 28.1234 69.2581 28.3811C69.4789 28.6434 69.5893 28.9554 69.5893 29.3172C69.5893 30.0363 69.2069 30.579 68.4469 30.9543C67.6826 31.3297 66.7685 31.5197 65.7045 31.5197C64.4639 31.5197 63.4906 31.3207 62.7813 30.9182C62.0725 30.5157 61.7178 29.9821 61.7178 29.3172Z" fill="#E9EEF3"/>
<path d="M18.8285 52.685C18.6903 52.6915 18.5859 52.7209 18.5163 52.7749C18.4467 52.8276 18.3269 52.98 18.1558 53.2316L17.8804 53.6327C17.7799 53.7744 17.7151 53.8679 17.687 53.9155C17.4851 53.8989 17.3402 53.8904 17.2512 53.8904C17.142 53.8904 17.0415 53.8946 16.9487 53.9043L16.8105 53.9155C16.8066 53.8839 16.8047 53.8599 16.8047 53.8439L16.8105 53.7444C16.9603 53.6958 17.0637 53.6504 17.1227 53.6082C17.1816 53.5649 17.2754 53.4505 17.4039 53.2645C17.6475 52.9058 17.8234 52.6764 17.9316 52.5771C18.0398 52.4768 18.1432 52.4112 18.2438 52.3772C18.1984 52.3299 18.1278 52.2389 18.0312 52.1044C17.8349 51.8317 17.6822 51.6952 17.572 51.6952C17.5286 51.6952 17.4831 51.727 17.4339 51.7894C17.3575 51.8876 17.2754 51.9363 17.1874 51.9363C17.1004 51.9363 17.0318 51.9077 16.9825 51.8497C16.9333 51.7927 16.9091 51.7238 16.9091 51.6436C16.9091 51.5407 16.9458 51.4511 17.0183 51.3758C17.0908 51.301 17.1941 51.2637 17.3285 51.2637C17.6088 51.2637 17.8949 51.4848 18.1877 51.9277C18.326 52.1363 18.4332 52.2768 18.5105 52.3499C18.5878 52.4216 18.6942 52.4768 18.8285 52.5137L18.8314 51.9321C18.8314 51.7862 18.8246 51.6973 18.8101 51.6647C18.7966 51.6317 18.7474 51.6138 18.6623 51.6116C18.6188 51.6116 18.5531 51.6063 18.4642 51.5937L18.4284 51.378C18.6787 51.3949 18.8595 51.4035 18.9706 51.4035L19.1175 51.4002L19.3436 51.4035C19.5988 51.4035 19.7766 51.3949 19.8781 51.378L19.8443 51.5937L19.6384 51.6181C19.565 51.6181 19.5195 51.6274 19.5041 51.6457C19.4876 51.6647 19.4761 51.7174 19.4683 51.8062C19.4683 51.822 19.4664 51.8539 19.4626 51.9016C19.45 52.059 19.4432 52.1647 19.4432 52.2188V52.5137C19.5843 52.4703 19.6925 52.4144 19.7679 52.3467C19.8433 52.2779 19.9515 52.1381 20.0907 51.9277C20.3826 51.4848 20.6668 51.2637 20.9441 51.2637C21.0785 51.2637 21.1809 51.301 21.2534 51.3758C21.3259 51.4511 21.3626 51.5407 21.3626 51.6436C21.3626 51.7196 21.3384 51.7873 21.2902 51.8464C21.2428 51.9066 21.1761 51.9363 21.091 51.9363C20.9992 51.9363 20.9151 51.8876 20.8398 51.7894C20.7905 51.727 20.7451 51.6952 20.7044 51.6952C20.6416 51.6952 20.5788 51.7228 20.515 51.7787C20.4503 51.835 20.3613 51.9428 20.2463 52.1044C20.1507 52.2389 20.0791 52.3299 20.0318 52.3772C20.1546 52.4227 20.2666 52.4969 20.3691 52.6004C20.4706 52.703 20.6387 52.9241 20.8726 53.2645C21.0012 53.4526 21.093 53.5681 21.15 53.6092C21.207 53.6514 21.3114 53.6958 21.464 53.7444L21.467 53.8439C21.467 53.8599 21.466 53.8839 21.464 53.9155C21.4419 53.9155 21.3955 53.9112 21.3268 53.9043C21.2331 53.8946 21.1326 53.8904 21.0263 53.8904C20.9064 53.8904 20.7614 53.8989 20.5914 53.9155C20.5623 53.8679 20.4976 53.7744 20.3971 53.6338L20.1197 53.2316C19.9496 52.981 19.8288 52.8276 19.7554 52.7707C19.6829 52.7137 19.5746 52.685 19.4316 52.685V53.3985L19.4346 53.5013L19.4374 53.6167C19.4847 53.66 19.5737 53.6894 19.7061 53.7065C19.7322 53.7108 19.7554 53.715 19.7737 53.7188V53.7984L19.7766 53.8556C19.7766 53.8663 19.7747 53.8829 19.7708 53.9064L19.7515 53.9155L19.4548 53.8989C19.3184 53.885 19.1919 53.8775 19.073 53.8775C19.0053 53.8775 18.874 53.8882 18.6797 53.9085C18.6275 53.9085 18.5859 53.9107 18.5559 53.9123C18.5144 53.9144 18.4757 53.9155 18.44 53.9155C18.4323 53.8829 18.4284 53.8492 18.4284 53.8166C18.4284 53.7952 18.4293 53.7664 18.4313 53.7316C18.4632 53.7129 18.498 53.7012 18.5357 53.6947C18.5714 53.6883 18.5946 53.683 18.6062 53.6787L18.7125 53.6696C18.7502 53.6653 18.7782 53.6579 18.7947 53.6482C18.815 53.6188 18.8266 53.3978 18.8285 52.9832V52.685ZM23.2685 51.5812L23.2308 51.3716C23.4802 51.3909 23.6609 51.4002 23.7749 51.4002L23.9219 51.397L24.148 51.4002C24.4032 51.4002 24.5829 51.3909 24.6863 51.3716L24.6496 51.5812L24.4438 51.6034C24.3529 51.6034 24.3036 51.6192 24.2959 51.6507C24.2871 51.6826 24.2814 51.8539 24.2775 52.1636L24.2717 52.369L24.263 52.6259C24.263 53.291 24.2775 53.6461 24.3055 53.6894C24.4177 53.7183 24.5066 53.737 24.5723 53.7444C24.6004 53.7487 24.6303 53.7551 24.6603 53.7632L24.6632 53.9475L24.4669 53.939C24.2659 53.9278 24.1181 53.9219 24.0214 53.9219L23.254 53.9475L23.257 53.7632C23.286 53.7551 23.3149 53.7487 23.3459 53.7444C23.4579 53.7284 23.5478 53.7097 23.6145 53.6894C23.6367 53.5595 23.6484 53.2993 23.6484 52.909V52.6893L23.6367 52.3517C23.6367 52.3213 23.6406 52.2654 23.6484 52.1847C23.0655 52.8857 22.6935 53.309 22.534 53.4526C22.5417 53.5531 22.5563 53.6327 22.5765 53.6894C22.6886 53.7183 22.7776 53.737 22.8442 53.7455C22.8723 53.7487 22.9013 53.7551 22.9293 53.7632L22.9351 53.9475L22.7398 53.939C22.5379 53.9278 22.39 53.9219 22.2953 53.9219L21.5317 53.9475L21.5347 53.7632C21.5627 53.7551 21.5926 53.7487 21.6226 53.7444C21.7318 53.7284 21.8207 53.7097 21.8894 53.6894C21.9116 53.5584 21.9232 53.4218 21.9232 53.2803L21.9203 52.7843V52.3306L21.9174 52.1636L21.9144 51.9629C21.9126 51.7787 21.9058 51.6719 21.8952 51.6436C21.8836 51.6138 21.8342 51.5991 21.7454 51.5969C21.7096 51.5969 21.6429 51.5916 21.5453 51.5812L21.5085 51.3716C21.757 51.3888 21.9377 51.397 22.0508 51.397L22.1977 51.3938L22.4238 51.397C22.679 51.397 22.8568 51.3888 22.9583 51.3716L22.9245 51.5812L22.7166 51.6034C22.6238 51.6034 22.5736 51.6192 22.5649 51.6507C22.5563 51.6826 22.5514 51.855 22.5494 52.1647L22.5407 52.3539L22.532 52.5782L22.535 53.1713L23.052 52.5582C23.2019 52.3711 23.3284 52.2209 23.4309 52.1087C23.5324 51.9976 23.601 51.9152 23.6367 51.8611C23.6406 51.8041 23.6425 51.765 23.6425 51.7461C23.6425 51.6529 23.5865 51.6034 23.4744 51.5969C23.4164 51.5948 23.3478 51.5895 23.2685 51.5812ZM27.4708 53.9347H27.406L27.0214 53.9246L26.8184 53.9219L26.6096 53.9187L26.4628 53.9288L26.1718 53.9347C26.1603 53.8978 26.1544 53.8674 26.1544 53.8439C26.1544 53.8198 26.1592 53.7819 26.1689 53.7316L26.2907 53.7097C26.425 53.6894 26.4918 53.6557 26.4918 53.6103C26.4918 53.575 26.4821 53.5349 26.4637 53.4895C26.4483 53.4526 26.4212 53.3774 26.3835 53.2656C26.3467 53.1545 26.2733 52.9685 26.1631 52.7094L26.0887 52.5137C26.0317 52.3582 25.9727 52.2177 25.9138 52.0919C25.8896 52.1532 25.8519 52.2671 25.8007 52.4334C25.7591 52.5718 25.6925 52.7717 25.6006 53.033C25.4875 53.3584 25.4276 53.5739 25.4199 53.6819C25.4692 53.6926 25.534 53.6979 25.6132 53.7001L25.6557 53.7065C25.6867 53.7086 25.7244 53.7097 25.7698 53.7097L25.8123 53.7188C25.8162 53.753 25.8181 53.7867 25.8181 53.823C25.8181 53.8807 25.8104 53.9176 25.7949 53.9347L25.7446 53.9411C25.7157 53.9454 25.7002 53.9475 25.6963 53.9475L25.4518 53.9411L25.3097 53.9443C25.2247 53.9299 25.1367 53.9219 25.0459 53.9219L24.9299 53.9288L24.8072 53.9379L24.7395 53.9347C24.7357 53.8978 24.7337 53.8679 24.7337 53.846C24.7337 53.8241 24.7357 53.7942 24.7395 53.7573C24.9309 53.7086 25.0633 53.6621 25.1367 53.6199C25.1705 53.5542 25.2218 53.4208 25.2885 53.2223C25.417 52.8427 25.5871 52.3815 25.7998 51.8421C25.8606 51.6909 25.9051 51.5737 25.9331 51.4912C25.9563 51.4246 25.9814 51.3601 26.0104 51.2956H26.2375C26.4724 51.8941 26.6734 52.3804 26.8378 52.7538L27.1142 53.4337L27.203 53.6418C27.205 53.6482 27.2494 53.6632 27.3384 53.6873C27.4157 53.7076 27.4621 53.7284 27.4766 53.7509C27.4805 53.7744 27.4824 53.8016 27.4824 53.8353C27.4824 53.8807 27.4785 53.9133 27.4708 53.9347ZM29.8908 51.6446C30.0126 51.7726 30.1025 51.9195 30.1624 52.0855C30.2214 52.2514 30.2513 52.408 30.2513 52.555C30.2513 52.832 30.2126 53.0542 30.1354 53.2233C30.0174 53.4793 29.8599 53.6685 29.6618 53.7899C29.4627 53.9112 29.2317 53.9732 28.9698 53.9732C28.674 53.9732 28.4247 53.901 28.2189 53.7562C28.0139 53.6108 27.867 53.4473 27.779 53.2635C27.6911 53.0803 27.6477 52.852 27.6477 52.5793C27.6477 52.4417 27.6689 52.3023 27.7104 52.1636C27.752 52.0242 27.8091 51.9023 27.8815 51.7998C27.954 51.6963 28.0342 51.6095 28.1212 51.5397C28.2478 51.4403 28.3754 51.3694 28.503 51.3271C28.6305 51.2848 28.7852 51.2637 28.9669 51.2637C29.3622 51.2637 29.6695 51.3909 29.8908 51.6446ZM28.3435 52.7176C28.3599 52.9746 28.3725 53.1215 28.3803 53.162C28.4044 53.3003 28.443 53.419 28.4952 53.5184C28.531 53.5825 28.59 53.6397 28.6722 53.6894C28.7552 53.7396 28.8538 53.7632 28.9678 53.7632C29.1051 53.7632 29.2201 53.7161 29.3139 53.6199C29.4076 53.5237 29.4752 53.3724 29.5158 53.167C29.5419 53.033 29.5555 52.8129 29.5555 52.5062C29.5555 52.1299 29.4994 51.8632 29.3863 51.7081C29.2742 51.5515 29.1263 51.4733 28.9428 51.4733C28.7977 51.4733 28.6789 51.5178 28.5842 51.6063C28.4894 51.6952 28.4228 51.8274 28.386 52.0009C28.3609 52.113 28.3474 52.3517 28.3435 52.7176ZM32.307 51.5812L32.2694 51.3716C32.5187 51.3909 32.6994 51.4002 32.8135 51.4002L32.9604 51.397L33.1865 51.4002C33.4417 51.4002 33.6214 51.3909 33.7248 51.3716L33.6882 51.5812L33.4822 51.6034C33.3915 51.6034 33.3422 51.6192 33.3344 51.6507C33.3257 51.6826 33.3199 51.8539 33.316 52.1636L33.3103 52.369L33.3015 52.6259C33.3015 53.291 33.316 53.6461 33.344 53.6894C33.4562 53.7183 33.5451 53.737 33.6108 53.7444C33.6388 53.7487 33.6688 53.7551 33.6988 53.7632L33.7017 53.9475L33.5054 53.939C33.3044 53.9278 33.1566 53.9219 33.0599 53.9219L32.2925 53.9475L32.2955 53.7632C32.3244 53.7551 32.3534 53.7487 32.3844 53.7444C32.4965 53.7284 32.5864 53.7097 32.653 53.6894C32.6752 53.5595 32.6869 53.2993 32.6869 52.909V52.6893L32.6752 52.3517C32.6752 52.3213 32.6791 52.2654 32.6869 52.1847C32.104 52.8857 31.732 53.309 31.5725 53.4526C31.5802 53.5531 31.5948 53.6327 31.6151 53.6894C31.7271 53.7183 31.8161 53.737 31.8827 53.7455C31.9108 53.7487 31.9398 53.7551 31.9678 53.7632L31.9736 53.9475L31.7783 53.939C31.5764 53.9278 31.4285 53.9219 31.3338 53.9219L30.5703 53.9475L30.5732 53.7632C30.6012 53.7551 30.6311 53.7487 30.6611 53.7444C30.7703 53.7284 30.8593 53.7097 30.9279 53.6894C30.9501 53.5584 30.9617 53.4218 30.9617 53.2803L30.9588 52.7843V52.3306L30.9559 52.1636L30.953 51.9629C30.9511 51.7787 30.9443 51.6719 30.9337 51.6436C30.9221 51.6138 30.8728 51.5991 30.7839 51.5969C30.7481 51.5969 30.6814 51.5916 30.5838 51.5812L30.547 51.3716C30.7955 51.3888 30.9762 51.397 31.0893 51.397L31.2362 51.3938L31.4623 51.397C31.7175 51.397 31.8953 51.3888 31.9968 51.3716L31.963 51.5812L31.7551 51.6034C31.6624 51.6034 31.6121 51.6192 31.6035 51.6507C31.5948 51.6826 31.5899 51.855 31.5879 52.1647L31.5793 52.3539L31.5706 52.5782L31.5735 53.1713L32.0906 52.5582C32.2404 52.3711 32.3669 52.2209 32.4694 52.1087C32.5709 51.9976 32.6395 51.9152 32.6752 51.8611C32.6791 51.8041 32.681 51.765 32.681 51.7461C32.681 51.6529 32.625 51.6034 32.5128 51.5969C32.4549 51.5948 32.3863 51.5895 32.307 51.5812ZM31.2023 50.3111C31.2023 50.2244 31.2304 50.1516 31.2864 50.091C31.3415 50.0309 31.4101 50.0015 31.4914 50.0015C31.5599 50.0015 31.616 50.0215 31.6614 50.0606C31.7069 50.0996 31.7668 50.1917 31.8402 50.3387C31.9407 50.5362 32.0509 50.6358 32.1717 50.6358C32.2935 50.6358 32.4027 50.5362 32.5013 50.3387C32.5651 50.2108 32.6211 50.123 32.6695 50.0742C32.7178 50.0255 32.7797 50.0015 32.855 50.0015C32.9333 50.0015 32.999 50.0319 33.0522 50.0921C33.1063 50.1534 33.1334 50.2265 33.1334 50.3111C33.1334 50.4792 33.0396 50.6061 32.8531 50.6938C32.6656 50.7816 32.4414 50.8261 32.1804 50.8261C31.876 50.8261 31.6373 50.7795 31.4633 50.6856C31.2893 50.5914 31.2023 50.4666 31.2023 50.3111ZM36.7933 51.3716L36.7594 51.5873L36.5539 51.6116C36.4804 51.6116 36.4351 51.6213 36.4174 51.6403C36.4012 51.6583 36.3893 51.712 36.3836 51.7998C36.3836 51.8253 36.3818 51.8604 36.3778 51.9056C36.3652 52.0758 36.3584 52.1826 36.3584 52.223V52.5137C36.5006 52.4703 36.6096 52.4144 36.6853 52.3467C36.7616 52.2779 36.8688 52.1381 37.01 51.9277C37.3027 51.4848 37.59 51.2637 37.8682 51.2637C38.0054 51.2637 38.1098 51.301 38.1814 51.3748C38.2538 51.4489 38.2894 51.5389 38.2894 51.6436C38.2894 51.7196 38.2653 51.7873 38.2171 51.8464C38.1688 51.9066 38.1022 51.9363 38.0162 51.9363C37.9233 51.9363 37.8391 51.8876 37.7628 51.7894C37.7134 51.727 37.668 51.6952 37.6267 51.6952C37.5637 51.6952 37.4999 51.7228 37.4351 51.7787C37.3714 51.8339 37.2814 51.9428 37.1666 52.1044C37.0708 52.2399 36.9992 52.3306 36.9527 52.3783C37.0525 52.4112 37.1558 52.4768 37.2631 52.5761C37.3703 52.6753 37.5475 52.905 37.7937 53.2645C37.9212 53.4505 38.0133 53.5649 38.0712 53.6082C38.1292 53.6504 38.2343 53.6958 38.388 53.7444L38.3909 53.8439C38.3909 53.8599 38.3902 53.8839 38.388 53.9155C38.3661 53.9155 38.3197 53.9112 38.2498 53.9043C38.1551 53.8946 38.0547 53.8904 37.9474 53.8904C37.8276 53.8904 37.6818 53.8989 37.5096 53.9155C37.4816 53.8679 37.4168 53.7744 37.3152 53.6327L37.0381 53.2305C36.8678 52.98 36.7472 52.8255 36.6738 52.7696C36.6003 52.7137 36.4919 52.685 36.3469 52.685V53.3978L36.3498 53.5013L36.3526 53.6167C36.4002 53.66 36.4891 53.6894 36.6215 53.7065C36.6475 53.7108 36.6709 53.715 36.6892 53.7188V53.7984L36.6921 53.8556C36.6921 53.8663 36.69 53.8829 36.686 53.9064L36.6669 53.9155L36.371 53.8989C36.2356 53.885 36.1093 53.8775 35.9912 53.8775C35.9237 53.8775 35.7932 53.8882 35.5998 53.9085C35.5477 53.9085 35.5061 53.9107 35.4762 53.9123C35.4346 53.9144 35.3968 53.9155 35.3611 53.9155C35.3534 53.8829 35.3495 53.8492 35.3495 53.8166C35.3495 53.7952 35.3505 53.7664 35.3524 53.7316C35.3843 53.7129 35.4191 53.7012 35.4578 53.6947C35.4935 53.6883 35.5167 53.683 35.5283 53.6787L35.6366 53.6696C35.6742 53.6653 35.7013 53.6589 35.7187 53.6482C35.739 53.6295 35.7507 53.3236 35.7525 52.7305L35.7554 52.6288L35.7583 52.3033L35.7613 51.9342C35.7613 51.7862 35.7545 51.6941 35.741 51.6604C35.7284 51.6263 35.6772 51.6084 35.5883 51.6063C35.5447 51.6063 35.4771 51.6002 35.3863 51.5873L35.3495 51.3716C35.5989 51.3888 35.7796 51.397 35.8898 51.397L36.0365 51.3938L36.2619 51.397C36.515 51.397 36.6921 51.3888 36.7933 51.3716ZM38.4482 53.9347L38.454 53.7509C38.4712 53.7444 38.532 53.7338 38.6386 53.7199C38.7099 53.7076 38.7661 53.6926 38.8056 53.6766C38.8338 53.621 38.8482 53.3437 38.8482 52.8445L38.8395 52.3223L38.8309 51.9554C38.8309 51.7715 38.8258 51.6658 38.8154 51.6382C38.8056 51.6106 38.7564 51.5959 38.6674 51.5959L38.4615 51.5748L38.4363 51.397L38.7815 51.3949L39.8698 51.3716C40.2842 51.3716 40.5607 51.4403 40.6989 51.578C40.8372 51.7142 40.9066 51.8604 40.9066 52.0145C40.9066 52.2356 40.7356 52.4069 40.3947 52.5284C40.836 52.6141 41.0575 52.8223 41.0575 53.1523C41.0575 53.3903 40.9588 53.575 40.7626 53.7065C40.5668 53.8374 40.3058 53.9032 39.9789 53.9032L39.5887 53.9096L38.4482 53.9347ZM39.454 52.4438C39.5055 52.4524 39.5721 52.4567 39.6552 52.4567C40.0718 52.4567 40.2806 52.3077 40.2806 52.0084C40.2806 51.9174 40.2359 51.8263 40.1463 51.7364C40.0563 51.6457 39.9008 51.6002 39.6776 51.6002C39.6135 51.6002 39.5336 51.6063 39.4367 51.6192C39.4367 51.6436 39.4386 51.6869 39.4425 51.7482C39.4483 51.8604 39.4511 51.989 39.4511 52.1381V52.3087C39.4511 52.3517 39.4522 52.3962 39.454 52.4438ZM39.4688 53.6343C39.5343 53.6568 39.634 53.6686 39.7654 53.6686C40.1935 53.6686 40.4081 53.5034 40.4081 53.1735C40.4081 52.852 40.1539 52.6915 39.6466 52.6915C39.5451 52.6915 39.4843 52.6976 39.463 52.7094C39.4608 52.7337 39.4598 52.7484 39.4598 52.7528L39.463 52.942C39.4533 53.1491 39.4483 53.3524 39.4483 53.5488C39.4483 53.575 39.4551 53.6039 39.4688 53.6343ZM43.8892 53.3172L43.954 53.3638C43.9717 53.3785 43.981 53.3968 43.985 53.4169L43.9879 53.4326C43.9425 53.6167 43.8835 53.7423 43.81 53.8123C43.7366 53.8807 43.6448 53.9155 43.5357 53.9155C43.4245 53.9155 43.3287 53.8818 43.2484 53.8155C43.1692 53.7477 43.0958 53.6295 43.0303 53.4601C42.9489 53.6178 42.8341 53.7359 42.6861 53.8155C42.5381 53.8946 42.3574 53.9347 42.1439 53.9347C41.9467 53.9347 41.8016 53.8904 41.7091 53.8006C41.6162 53.7108 41.5698 53.5921 41.5698 53.4451C41.5698 53.3774 41.5834 53.3089 41.6115 53.238C41.6385 53.1681 41.6828 53.0986 41.7447 53.0298C41.8055 52.9599 41.9053 52.8839 42.0413 52.8011C42.0619 52.7896 42.1342 52.7538 42.257 52.6965L42.9644 52.3869C42.9701 52.3087 42.973 52.2291 42.973 52.1489C42.973 51.8697 42.9421 51.6794 42.8794 51.579C42.8416 51.5167 42.775 51.4859 42.6804 51.4859C42.5856 51.4859 42.4986 51.5059 42.4194 51.545C42.3402 51.5841 42.2822 51.6339 42.2455 51.6963C42.2192 51.7417 42.1972 51.8274 42.1778 51.9532C42.1641 52.0443 42.1515 52.0962 42.1411 52.1109C42.1119 52.15 42.0608 52.1858 41.9863 52.2177C41.911 52.2492 41.8606 52.2725 41.8336 52.2876C41.7314 52.3413 41.65 52.3678 41.5892 52.3678C41.5651 52.3435 41.5525 52.3077 41.5525 52.2632C41.5525 52.1456 41.5748 52.0443 41.6202 51.9596C41.6885 51.84 41.7911 51.7249 41.9283 51.6116C42.0647 51.4995 42.1933 51.4214 42.312 51.3758C42.4744 51.3178 42.6735 51.2891 42.9075 51.2891C43.0583 51.2891 43.1887 51.3199 43.297 51.3802C43.4061 51.4414 43.4817 51.5314 43.5242 51.6507C43.5667 51.7704 43.5879 51.9862 43.5879 52.2969L43.5821 52.8076L43.5879 53.1821V53.2782C43.5879 53.3638 43.5983 53.4229 43.6196 53.4558C43.6409 53.4874 43.6682 53.5034 43.702 53.5034C43.7222 53.5034 43.7395 53.497 43.7542 53.4842L43.8392 53.3394L43.8892 53.3172ZM42.9615 52.6004C42.8532 52.6395 42.7315 52.7051 42.5954 52.7972C42.4589 52.889 42.3643 52.981 42.311 53.0742C42.2735 53.1416 42.2541 53.2255 42.2541 53.3236C42.2541 53.4125 42.2793 53.4863 42.3286 53.5435C42.378 53.6017 42.4348 53.6306 42.4996 53.6306C42.6058 53.6306 42.6965 53.5975 42.77 53.5307C42.8715 53.443 42.9306 53.3724 42.9471 53.3194C42.9644 53.2667 42.973 53.1176 42.973 52.8721C42.973 52.7822 42.9691 52.6915 42.9615 52.6004ZM44.04 55.4799V55.3361C44.0739 55.3137 44.098 55.2982 44.1135 55.2896L44.3302 55.2025C44.4199 55.1635 44.4714 55.1325 44.4818 55.1095C44.5117 55.0481 44.5253 54.9379 44.5214 54.7819L44.5041 53.5499L44.4749 52.0188C44.4692 51.9066 44.4479 51.8274 44.4101 51.7797C44.3727 51.7331 44.2723 51.6837 44.1095 51.6317V51.4733C44.2942 51.4339 44.449 51.3855 44.5754 51.3271C44.6676 51.2859 44.7928 51.2078 44.9505 51.0924L45.0956 51.0863L45.0984 51.173L45.0956 51.5059C45.0956 51.5178 45.0963 51.5483 45.0984 51.5981C45.2626 51.4891 45.3969 51.417 45.5024 51.3823C45.6572 51.3325 45.8282 51.3081 46.0147 51.3081C46.2069 51.3081 46.3772 51.3623 46.5259 51.469C46.5374 51.4773 46.554 51.4891 46.5741 51.5038C46.6688 51.578 46.7375 51.6486 46.7811 51.7174C46.8747 51.8632 46.9424 52.0084 46.9842 52.151C47.0158 52.2589 47.0324 52.3922 47.0324 52.5538C47.0324 52.7685 47.0072 52.9502 46.956 53.0996C46.905 53.2477 46.8167 53.3978 46.6922 53.5478C46.5672 53.699 46.4341 53.807 46.2922 53.8701C46.149 53.9347 45.9992 53.9668 45.8426 53.9668C45.6882 53.9668 45.578 53.9561 45.511 53.9347C45.3847 53.8957 45.259 53.8374 45.1352 53.7605C45.1323 53.7931 45.1301 53.8155 45.1301 53.8278L45.1352 53.9112C45.1363 53.9337 45.1363 53.9625 45.1363 53.9951C45.1363 54.0101 45.1352 54.0913 45.1334 54.2394L45.142 54.8033C45.142 54.8156 45.1399 54.8567 45.1363 54.9267V54.9615C45.1363 55.0379 45.141 55.0935 45.1507 55.1282C45.1593 55.1485 45.1759 55.172 45.2018 55.1961C45.2202 55.2047 45.2385 55.2143 45.2558 55.225C45.3138 55.2362 45.3663 55.249 45.4106 55.2618C45.4552 55.2736 45.5024 55.2838 45.5517 55.2928C45.5683 55.3158 45.5769 55.3452 45.5769 55.3837C45.5769 55.4056 45.5758 55.4393 45.574 55.4831H45.5229C45.4135 55.4831 45.3372 55.481 45.2936 55.4767L44.8666 55.4382H44.7622L44.6625 55.435L44.5639 55.4452L44.4112 55.4543C44.3543 55.4564 44.2924 55.4617 44.2237 55.4698C44.156 55.4788 44.1067 55.4831 44.0768 55.4831L44.04 55.4799ZM45.1111 53.2602C45.1186 53.2856 45.1237 53.3036 45.1255 53.3161C45.1456 53.4115 45.173 53.4793 45.2047 53.5184C45.2626 53.5921 45.3303 53.6418 45.4059 53.6664C45.5189 53.7012 45.6183 53.7188 45.7036 53.7188C45.8019 53.7188 45.8976 53.6969 45.9906 53.6514C46.0842 53.606 46.1597 53.5446 46.2166 53.4687C46.2235 53.458 46.235 53.443 46.2504 53.4251C46.2631 53.3914 46.2739 53.367 46.2814 53.3502C46.3567 53.1893 46.3944 53.018 46.3944 52.8363C46.3944 52.5019 46.3037 52.2198 46.122 51.9901C45.9953 51.8274 45.8167 51.7461 45.5837 51.7461C45.4455 51.7461 45.2889 51.7851 45.1128 51.8632C45.1089 51.9439 45.1071 52.17 45.1071 52.5424L45.1128 53.1398C45.1128 53.1545 45.1118 53.1946 45.1111 53.2602ZM47.248 52.0242C47.2631 51.9933 47.279 51.95 47.2934 51.8919L47.3279 51.7873C47.3676 51.6604 47.4093 51.5124 47.4507 51.3432L47.4799 51.2447H47.6073C47.617 51.2608 47.625 51.2734 47.6296 51.282C47.6772 51.3676 47.707 51.4149 47.7204 51.4256C47.7398 51.4321 47.8366 51.435 48.0123 51.435L48.5998 51.4256L48.8234 51.4289H49.4797C49.4854 51.4289 49.5067 51.4268 49.5423 51.4224C49.578 51.4192 49.6021 51.4109 49.6157 51.3991C49.6294 51.3877 49.6449 51.3547 49.664 51.301L49.6892 51.2479C49.727 51.2457 49.7821 51.2447 49.8545 51.2447L49.8573 51.7217L49.8602 51.9267C49.8602 52.0536 49.8562 52.1267 49.8487 52.1467C49.7868 52.169 49.7338 52.1815 49.6892 52.1836C49.6593 52.1342 49.6175 52.0431 49.5664 51.9098C49.5211 51.7959 49.4861 51.7292 49.4631 51.7102C49.439 51.6919 49.3587 51.6826 49.2223 51.6826L49.0656 51.6858C49.0106 51.6858 48.9498 51.6826 48.8831 51.6762L48.8889 51.9342L48.8831 52.2661L48.8716 52.813C48.8716 53.3333 48.885 53.622 48.9112 53.6798C49.029 53.7108 49.1179 53.7305 49.1762 53.7386C49.2061 53.7423 49.2349 53.7487 49.2629 53.7573L49.2658 53.9475L48.9307 53.931C48.8252 53.9256 48.7255 53.9219 48.6319 53.9219L48.2182 53.9358L47.8683 53.9475L47.8741 53.7573C47.8982 53.7487 47.9263 53.7423 47.9583 53.7386C48.0634 53.7241 48.1524 53.7044 48.2229 53.6798C48.2532 53.5184 48.2686 53.2993 48.2686 53.0244L48.2567 52.3528C48.2567 52.0199 48.2532 51.7988 48.2434 51.6891C48.1584 51.6848 48.0915 51.6826 48.0432 51.6826C47.8762 51.6826 47.7696 51.6963 47.7243 51.7228C47.68 51.7493 47.6073 51.8317 47.5079 51.9689L47.4547 52.0399C47.419 52.0897 47.3927 52.1141 47.3755 52.1141C47.3405 52.1141 47.2981 52.0844 47.248 52.0242ZM52.4767 53.3172L52.5415 53.3638C52.5588 53.3785 52.5685 53.3968 52.572 53.4169L52.5749 53.4326C52.5296 53.6167 52.4706 53.7423 52.3971 53.8123C52.3237 53.8807 52.2319 53.9155 52.1228 53.9155C52.0116 53.9155 51.9158 53.8818 51.8359 53.8155C51.7567 53.7477 51.6829 53.6295 51.6173 53.4601C51.536 53.6178 51.4212 53.7359 51.2732 53.8155C51.1252 53.8946 50.9445 53.9347 50.731 53.9347C50.5338 53.9347 50.389 53.8904 50.2962 53.8006C50.2033 53.7108 50.1568 53.5921 50.1568 53.4451C50.1568 53.3774 50.1705 53.3089 50.1986 53.238C50.2256 53.1681 50.2702 53.0986 50.3318 53.0298C50.393 52.9599 50.4924 52.8839 50.6284 52.8011C50.649 52.7896 50.7213 52.7538 50.844 52.6965L51.5515 52.3869C51.5576 52.3087 51.5605 52.2291 51.5605 52.1489C51.5605 51.8697 51.5295 51.6794 51.4665 51.579C51.4287 51.5167 51.3621 51.4859 51.2674 51.4859C51.1727 51.4859 51.0856 51.5059 51.0064 51.545C50.9272 51.5841 50.8693 51.6339 50.8325 51.6963C50.8066 51.7417 50.7843 51.8274 50.7649 51.9532C50.7516 52.0443 50.7389 52.0962 50.7282 52.1109C50.6994 52.15 50.6479 52.1858 50.5737 52.2177C50.4981 52.2492 50.448 52.2725 50.4207 52.2876C50.3184 52.3413 50.2371 52.3678 50.1763 52.3678C50.1522 52.3435 50.1396 52.3077 50.1396 52.2632C50.1396 52.1456 50.1619 52.0443 50.2072 51.9596C50.276 51.84 50.3782 51.7249 50.5154 51.6116C50.6518 51.4995 50.7804 51.4214 50.8991 51.3758C51.0615 51.3178 51.2606 51.2891 51.4946 51.2891C51.6454 51.2891 51.7757 51.3199 51.8841 51.3802C51.9932 51.4414 52.0688 51.5314 52.1112 51.6507C52.1538 51.7704 52.175 51.9862 52.175 52.2969L52.1692 52.8076L52.175 53.1821V53.2782C52.175 53.3638 52.1854 53.4229 52.207 53.4558C52.2283 53.4874 52.2552 53.5034 52.2891 53.5034C52.3093 53.5034 52.3269 53.497 52.3413 53.4842L52.4263 53.3394L52.4767 53.3172ZM51.5486 52.6004C51.4406 52.6395 51.3186 52.7051 51.1824 52.7972C51.046 52.889 50.9514 52.981 50.8984 53.0742C50.8606 53.1416 50.8412 53.2255 50.8412 53.3236C50.8412 53.4125 50.8664 53.4863 50.9157 53.5435C50.965 53.6017 51.0219 53.6306 51.0867 53.6306C51.1929 53.6306 51.284 53.5975 51.3574 53.5307C51.4589 53.443 51.5176 53.3724 51.5342 53.3194C51.5515 53.2667 51.5605 53.1176 51.5605 52.8721C51.5605 52.7822 51.5565 52.6915 51.5486 52.6004ZM55.3299 53.9347H55.2648L54.8803 53.9246L54.6776 53.9219L54.4685 53.9187L54.3219 53.9288L54.0307 53.9347C54.0189 53.8978 54.0131 53.8674 54.0131 53.8439C54.0131 53.8198 54.0184 53.7819 54.0275 53.7316L54.1496 53.7097C54.284 53.6894 54.3507 53.6557 54.3507 53.6103C54.3507 53.575 54.3405 53.5349 54.3224 53.4895C54.3069 53.4526 54.2797 53.3774 54.2419 53.2656C54.2056 53.1545 54.132 52.9685 54.0216 52.7094L53.9475 52.5137C53.8904 52.3582 53.8312 52.2177 53.7725 52.0919C53.7485 52.1532 53.7107 52.2671 53.6595 52.4334C53.6179 52.5718 53.5512 52.7717 53.4595 53.033C53.3464 53.3584 53.2863 53.5739 53.2788 53.6819C53.328 53.6926 53.3928 53.6979 53.4723 53.7001L53.5144 53.7065C53.5453 53.7086 53.5832 53.7097 53.6285 53.7097L53.6712 53.7188C53.6749 53.753 53.6771 53.7867 53.6771 53.823C53.6771 53.8807 53.6696 53.9176 53.6541 53.9347L53.6035 53.9411C53.5741 53.9454 53.5587 53.9475 53.5555 53.9475L53.3108 53.9411L53.1686 53.9443C53.0836 53.9299 52.9954 53.9219 52.9047 53.9219L52.7888 53.9288L52.666 53.9379L52.5983 53.9347C52.5944 53.8978 52.5926 53.8679 52.5926 53.846C52.5926 53.8241 52.5944 53.7942 52.5983 53.7573C52.7895 53.7086 52.922 53.6621 52.9954 53.6199C53.0293 53.5542 53.0804 53.4208 53.1474 53.2223C53.2759 52.8427 53.4456 52.3815 53.6584 51.8421C53.7192 51.6909 53.764 51.5737 53.7917 51.4912C53.8152 51.4246 53.8403 51.3601 53.8691 51.2956H54.0963C54.3315 51.8941 54.5325 52.3804 54.6963 52.7538L54.9731 53.4337L55.0616 53.6418C55.0637 53.6482 55.1085 53.6632 55.1971 53.6873C55.2744 53.7076 55.3208 53.7284 55.3352 53.7509C55.3395 53.7744 55.3411 53.8016 55.3411 53.8353C55.3411 53.8807 55.3373 53.9133 55.3299 53.9347Z" fill="#E9EEF3"/>
<path d="M12.8258 60.2013L12.8314 60.0175C12.8482 60.011 12.9073 60.0004 13.0105 59.987C13.0799 59.9742 13.1343 59.9592 13.1728 59.9437C13.1999 59.887 13.2141 59.6102 13.2141 59.1115L13.2056 58.5888L13.1972 58.2216C13.1972 58.0377 13.1925 57.9324 13.1821 57.9047C13.1728 57.8769 13.125 57.8624 13.0386 57.8624L12.8389 57.841L12.8145 57.6636L13.1493 57.6615L14.2055 57.6385C14.6079 57.6385 14.8763 57.7074 15.0103 57.8443C15.1445 57.9811 15.2121 58.127 15.2121 58.2815C15.2121 58.5022 15.046 58.6732 14.7149 58.7951C15.1436 58.8806 15.3583 59.0891 15.3583 59.4188C15.3583 59.6567 15.2628 59.8422 15.0723 59.9731C14.8819 60.104 14.6286 60.1698 14.3115 60.1698L13.9326 60.1762L12.8258 60.2013ZM13.8022 58.7107C13.8519 58.7187 13.9167 58.7229 13.9973 58.7229C14.4017 58.7229 14.6043 58.5738 14.6043 58.275C14.6043 58.1837 14.5611 58.0928 14.4739 58.003C14.3866 57.9121 14.2356 57.8667 14.0189 57.8667C13.957 57.8667 13.8791 57.8731 13.7853 57.8854C13.7853 57.91 13.7872 57.9533 13.791 58.0148C13.7966 58.127 13.7994 58.2558 13.7994 58.4049V58.5754C13.7994 58.6187 13.8003 58.6631 13.8022 58.7107ZM13.8163 59.9009C13.8801 59.9234 13.9766 59.9346 14.1043 59.9346C14.5198 59.9346 14.728 59.77 14.728 59.4397C14.728 59.1185 14.4813 58.9581 13.9889 58.9581C13.8903 58.9581 13.8313 58.9645 13.8107 58.9758C13.8088 59.0003 13.8078 59.0148 13.8078 59.019L13.8107 59.2083C13.8013 59.4162 13.7966 59.6187 13.7966 59.8154C13.7966 59.8422 13.8031 59.8705 13.8163 59.9009ZM16.6407 58.7197L16.9474 58.7107L17.0487 58.7042C17.5055 58.7042 17.8114 58.7668 17.9652 58.8902C18.1199 59.0137 18.1969 59.1831 18.1969 59.3985C18.1969 59.6567 18.104 59.8523 17.9183 59.987C17.7325 60.1212 17.4727 60.1885 17.1378 60.1885L16.7701 60.1826L15.6642 60.2206L15.6699 60.0362L15.849 60.0057C15.9184 59.995 15.9728 59.9817 16.0113 59.9645C16.0385 59.9084 16.0526 59.6305 16.0526 59.1281L16.0441 58.6005L16.0357 58.2334C16.0357 58.0484 16.0309 57.9426 16.0206 57.9143C16.0113 57.8865 15.9634 57.8721 15.8771 57.8699L15.6773 57.8475L15.6529 57.6786L15.9878 57.6754L16.0891 57.67C16.1698 57.6657 16.2805 57.6636 16.4212 57.6636L16.7345 57.6572L16.9353 57.6604C16.9699 57.6604 17.0281 57.6529 17.1106 57.6385L17.0778 57.8475C16.9568 57.8624 16.8836 57.8688 16.8574 57.8688C16.7495 57.8688 16.6857 57.8833 16.6651 57.9111C16.6454 57.9389 16.6351 58.0105 16.6351 58.1259L16.6379 58.4194V58.5834C16.6379 58.6251 16.6388 58.67 16.6407 58.7197ZM16.6548 59.9138C16.7186 59.9357 16.8142 59.948 16.9408 59.948C17.3545 59.948 17.5609 59.7802 17.5609 59.4466C17.5609 59.3029 17.5093 59.1831 17.4052 59.0912C17.302 58.9982 17.1463 58.9517 16.938 58.9517C16.8527 58.9517 16.7561 58.9603 16.6492 58.9758C16.6473 59.0014 16.6463 59.0148 16.6463 59.019L16.6492 59.2115C16.6397 59.422 16.6351 59.6273 16.6351 59.8272C16.6351 59.8534 16.6416 59.8833 16.6548 59.9138ZM18.2832 57.8475L18.2476 57.6385C18.4895 57.655 18.6649 57.6636 18.7757 57.6636L18.9182 57.6604L19.1377 57.6636C19.3853 57.6636 19.5598 57.655 19.6602 57.6385L19.6246 57.8475L19.4248 57.8699C19.3403 57.8699 19.2934 57.8833 19.2841 57.9111C19.2737 57.9399 19.2672 58.0452 19.2662 58.2302L19.2578 58.6005L19.2493 59.1249C19.2493 59.6273 19.2634 59.9052 19.2906 59.9613C19.3994 59.9913 19.4857 60.0089 19.5495 60.0175C19.5767 60.0217 19.6058 60.0282 19.6349 60.0362L19.6377 60.2142L19.4473 60.2056C19.2513 60.1938 19.1068 60.1885 19.0148 60.1885L18.27 60.2142L18.2729 60.0362C18.3011 60.0282 18.3291 60.0217 18.3592 60.0175C18.468 60.0014 18.5543 59.9827 18.619 59.9613C18.6378 59.8534 18.6471 59.5963 18.6471 59.1906V58.7769L18.65 58.4322C18.65 58.1478 18.6462 57.9832 18.6387 57.9367C18.6311 57.8897 18.5787 57.8656 18.4811 57.8635C18.4455 57.8635 18.3798 57.8582 18.2832 57.8475ZM22.0991 59.3638C22.1281 59.383 22.1498 59.3943 22.1647 59.4007C22.207 59.421 22.2407 59.4477 22.266 59.4782C22.2173 59.6845 22.0972 59.863 21.9068 60.0132C21.7164 60.1644 21.4753 60.2393 21.1845 60.2393C21.0016 60.2393 20.8196 60.196 20.6404 60.1094C20.4613 60.0228 20.3187 59.9084 20.2117 59.7668C20.1302 59.6567 20.0683 59.5225 20.027 59.3638C19.9857 59.205 19.965 59.0698 19.965 58.9592C19.965 58.8245 19.9904 58.6732 20.042 58.5033C20.0936 58.3328 20.1789 58.1724 20.2999 58.0222C20.421 57.872 20.5729 57.7523 20.7577 57.6636C20.9415 57.5749 21.1489 57.5305 21.3797 57.5305C21.6957 57.5305 21.9162 57.5866 22.041 57.6973C22.1657 57.8095 22.2276 57.9212 22.2276 58.0324C22.2276 58.1425 22.2023 58.2291 22.1525 58.2916C22.1019 58.3552 22.0325 58.3868 21.9452 58.3868C21.8702 58.3868 21.8008 58.3595 21.7379 58.3034C21.6751 58.2473 21.6226 58.1532 21.5803 58.0222C21.5475 57.9271 21.5053 57.8571 21.4537 57.8138C21.403 57.7726 21.3421 57.7523 21.2708 57.7523C21.0982 57.7523 20.9453 57.8352 20.8093 58.0009C20.6742 58.1671 20.6067 58.3921 20.6067 58.6786C20.6067 59.0223 20.6892 59.2954 20.8553 59.4985C21.0203 59.7 21.2079 59.8015 21.419 59.8015C21.5231 59.8015 21.6113 59.7882 21.6845 59.7614C21.7305 59.7433 21.7923 59.7032 21.8711 59.6412C21.8909 59.6252 21.9293 59.5808 21.9846 59.5086C22.041 59.437 22.0785 59.3884 22.0991 59.3638ZM24.7697 57.9111C24.8878 58.0388 24.9751 58.1858 25.0333 58.352C25.0905 58.5177 25.1196 58.6743 25.1196 58.8213C25.1196 59.0982 25.082 59.3205 25.0069 59.4899C24.8925 59.7454 24.7396 59.9346 24.5473 60.0565C24.3541 60.1783 24.1299 60.2393 23.8757 60.2393C23.5886 60.2393 23.3467 60.1677 23.1469 60.0228C22.9479 59.878 22.8054 59.7139 22.7201 59.53C22.6347 59.3472 22.5925 59.1185 22.5925 58.8459C22.5925 58.7085 22.6131 58.5685 22.6534 58.4306C22.6938 58.2905 22.7491 58.1692 22.8195 58.0666C22.8898 57.9629 22.9677 57.8763 23.0521 57.8063C23.175 57.7074 23.2988 57.6363 23.4226 57.5941C23.5464 57.5514 23.6966 57.5305 23.8729 57.5305C24.2565 57.5305 24.5549 57.6572 24.7697 57.9111ZM23.2678 58.9843C23.2838 59.2414 23.296 59.3884 23.3035 59.4285C23.327 59.5669 23.3645 59.6856 23.4151 59.785C23.4498 59.8491 23.507 59.9063 23.5868 59.956C23.6675 60.0057 23.7631 60.0303 23.8738 60.0303C24.007 60.0303 24.1187 59.9827 24.2096 59.886C24.3006 59.7903 24.3663 59.639 24.4057 59.4338C24.431 59.2997 24.4441 59.0794 24.4441 58.7732C24.4441 58.3964 24.3898 58.1302 24.28 57.9747C24.1712 57.8181 24.0277 57.74 23.8494 57.74C23.7087 57.74 23.5933 57.7844 23.5014 57.8731C23.4095 57.9618 23.3448 58.0939 23.3092 58.2676C23.2847 58.3793 23.2716 58.6187 23.2678 58.9843ZM26.8023 57.6385L26.7695 57.8539L26.5697 57.8785C26.4984 57.8785 26.4543 57.8876 26.4375 57.9068C26.4215 57.925 26.4102 57.9789 26.4046 58.0666C26.4046 58.0917 26.4028 58.127 26.399 58.1724C26.3868 58.3424 26.3803 58.4493 26.3803 58.4894V58.7801C26.5181 58.7368 26.6242 58.6807 26.6973 58.6134C26.7714 58.5444 26.8755 58.4049 27.0125 58.1943C27.2967 57.7513 27.5753 57.5305 27.8454 57.5305C27.9787 57.5305 28.0799 57.5674 28.1493 57.6417C28.2197 57.7154 28.2544 57.8052 28.2544 57.91C28.2544 57.9859 28.2309 58.0538 28.184 58.1131C28.1372 58.1735 28.0724 58.2029 27.989 58.2029C27.8989 58.2029 27.8173 58.1543 27.7432 58.0559C27.6954 57.9934 27.6513 57.9618 27.6109 57.9618C27.55 57.9618 27.4881 57.9891 27.4252 58.0452C27.3633 58.1003 27.2761 58.2093 27.1644 58.3707C27.0716 58.5065 27.0021 58.5973 26.9571 58.6449C27.0538 58.6775 27.1541 58.7433 27.2582 58.8427C27.3624 58.9421 27.534 59.1714 27.7732 59.5311C27.897 59.7171 27.9861 59.8315 28.0425 59.8748C28.0987 59.917 28.201 59.9624 28.3501 60.011L28.3529 60.1105C28.3529 60.1265 28.352 60.1505 28.3501 60.1826C28.3285 60.1826 28.2835 60.1783 28.216 60.1709C28.1241 60.1612 28.0265 60.157 27.9223 60.157C27.806 60.157 27.6644 60.1655 27.4974 60.1826C27.4702 60.135 27.4074 60.0404 27.3089 59.8988L27.0396 59.4974C26.8746 59.2462 26.7573 59.0923 26.686 59.0362C26.6147 58.98 26.5097 58.9517 26.369 58.9517V59.6642L26.3718 59.7679L26.3746 59.8833C26.4206 59.9266 26.5068 59.956 26.6354 59.9731C26.6607 59.9774 26.6833 59.9817 26.7011 59.9859V60.065L26.7038 60.1217C26.7038 60.1329 26.702 60.1495 26.6982 60.173L26.6795 60.1826L26.3924 60.1655C26.2611 60.1516 26.1382 60.1441 26.0238 60.1441C25.9582 60.1441 25.8315 60.1548 25.6439 60.1751C25.5932 60.1751 25.5529 60.1773 25.5238 60.1794C25.4835 60.1815 25.4469 60.1826 25.4122 60.1826C25.4047 60.1495 25.401 60.1158 25.401 60.0827C25.401 60.0618 25.4019 60.0335 25.4038 59.9982C25.4347 59.9795 25.4685 59.9678 25.506 59.9613C25.5407 59.9549 25.5632 59.9501 25.5745 59.9458L25.6795 59.9357C25.7161 59.9314 25.7423 59.9255 25.7593 59.9148C25.7789 59.8956 25.7902 59.5899 25.7921 58.9971L25.7949 58.8956L25.7977 58.5695L25.8005 58.2008C25.8005 58.0527 25.794 57.9608 25.7809 57.9271C25.7686 57.8934 25.7189 57.8753 25.6326 57.8731C25.5905 57.8731 25.5247 57.8667 25.4366 57.8539L25.401 57.6385C25.6429 57.655 25.8183 57.6636 25.9253 57.6636L26.0678 57.6604L26.2864 57.6636C26.5322 57.6636 26.7038 57.655 26.8023 57.6385ZM30.6924 57.9111C30.8106 58.0388 30.8978 58.1858 30.9559 58.352C31.0131 58.5177 31.0422 58.6743 31.0422 58.8213C31.0422 59.0982 31.0047 59.3205 30.9297 59.4899C30.8152 59.7454 30.6623 59.9346 30.47 60.0565C30.2768 60.1783 30.0526 60.2393 29.7985 60.2393C29.5114 60.2393 29.2693 60.1677 29.0696 60.0228C28.8707 59.878 28.7281 59.7139 28.6427 59.53C28.5574 59.3472 28.5152 59.1185 28.5152 58.8459C28.5152 58.7085 28.5358 58.5685 28.5762 58.4306C28.6165 58.2905 28.6718 58.1692 28.7421 58.0666C28.8125 57.9629 28.8904 57.8763 28.9748 57.8063C29.0977 57.7074 29.2215 57.6363 29.3453 57.5941C29.4692 57.5514 29.6193 57.5305 29.7956 57.5305C30.1793 57.5305 30.4776 57.6572 30.6924 57.9111ZM29.1906 58.9843C29.2065 59.2414 29.2187 59.3884 29.2262 59.4285C29.2497 59.5669 29.2871 59.6856 29.3379 59.785C29.3725 59.8491 29.4298 59.9063 29.5095 59.956C29.5901 60.0057 29.6858 60.0303 29.7965 60.0303C29.9298 60.0303 30.0414 59.9827 30.1323 59.886C30.2234 59.7903 30.289 59.639 30.3284 59.4338C30.3538 59.2997 30.3669 59.0794 30.3669 58.7732C30.3669 58.3964 30.3124 58.1302 30.2027 57.9747C30.0939 57.8181 29.9504 57.74 29.7722 57.74C29.6314 57.74 29.5161 57.7844 29.4242 57.8731C29.3322 57.9618 29.2675 58.0939 29.2318 58.2676C29.2075 58.3793 29.1943 58.6187 29.1906 58.9843ZM33.0374 57.8475L33.0009 57.6385C33.2428 57.6572 33.4182 57.6668 33.529 57.6668L33.6715 57.6636L33.891 57.6668C34.1387 57.6668 34.3132 57.6572 34.4135 57.6385L34.3779 57.8475L34.1781 57.8699C34.0899 57.8699 34.042 57.8854 34.0346 57.9175C34.0261 57.949 34.0205 58.1206 34.0167 58.4306L34.0111 58.6353L34.0027 58.8924C34.0027 59.5573 34.0167 59.9127 34.0439 59.956C34.1527 59.9849 34.239 60.0036 34.3028 60.011C34.33 60.0153 34.3591 60.0217 34.3882 60.0303L34.391 60.2142L34.2005 60.2056C34.0055 60.1938 33.862 60.1885 33.7682 60.1885L33.0234 60.2142L33.0262 60.0303C33.0543 60.0217 33.0825 60.0153 33.1125 60.011C33.2212 59.995 33.3085 59.9763 33.3732 59.956C33.3948 59.8261 33.4061 59.5658 33.4061 59.1757V58.956L33.3948 58.6187C33.3948 58.5877 33.3986 58.5316 33.4061 58.4514C32.8404 59.1527 32.4793 59.5754 32.3245 59.7192C32.3321 59.8197 32.3461 59.8988 32.3658 59.956C32.4746 59.9849 32.5609 60.0036 32.6256 60.0121C32.6529 60.0153 32.681 60.0217 32.7082 60.0303L32.7138 60.2142L32.5243 60.2056C32.3283 60.1938 32.1847 60.1885 32.0928 60.1885L31.3518 60.2142L31.3546 60.0303C31.3818 60.0217 31.4109 60.0153 31.4399 60.011C31.546 59.995 31.6323 59.9763 31.6988 59.956C31.7205 59.8251 31.7317 59.6888 31.7317 59.5466L31.7289 59.0511V58.5973L31.7261 58.4306L31.7233 58.2291C31.7214 58.0452 31.7148 57.9389 31.7045 57.91C31.6933 57.8801 31.6454 57.8656 31.5591 57.8635C31.5244 57.8635 31.4597 57.8582 31.3649 57.8475L31.3293 57.6385C31.5703 57.655 31.7458 57.6636 31.8555 57.6636L31.9981 57.6604L32.2176 57.6636C32.4652 57.6636 32.6378 57.655 32.7364 57.6385L32.7035 57.8475L32.5018 57.8699C32.4117 57.8699 32.363 57.8854 32.3546 57.9175C32.3461 57.949 32.3414 58.1217 32.3395 58.4317L32.3311 58.6209L32.3227 58.8448L32.3254 59.4375L32.8273 58.8245C32.9727 58.6374 33.0956 58.4872 33.195 58.375C33.2935 58.2638 33.3601 58.1815 33.3948 58.1281C33.3986 58.0703 33.4004 58.0313 33.4004 58.0126C33.4004 57.9196 33.346 57.8699 33.2372 57.8635C33.1809 57.8614 33.1143 57.856 33.0374 57.8475ZM31.9653 56.5775C31.9653 56.4909 31.9924 56.4183 32.0469 56.3579C32.1004 56.2975 32.1669 56.2681 32.2458 56.2681C32.3123 56.2681 32.3668 56.2878 32.4108 56.3269C32.4549 56.3659 32.5131 56.4583 32.5844 56.6053C32.6819 56.8031 32.7889 56.9025 32.9061 56.9025C33.0243 56.9025 33.1303 56.8031 33.2259 56.6053C33.2879 56.477 33.3423 56.3894 33.3892 56.3408C33.4361 56.2921 33.4962 56.2681 33.5693 56.2681C33.6452 56.2681 33.7091 56.2985 33.7607 56.3589C33.8132 56.4204 33.8394 56.4931 33.8394 56.5775C33.8394 56.7459 33.7484 56.8731 33.5674 56.9602C33.3854 57.0479 33.1678 57.0928 32.9146 57.0928C32.6191 57.0928 32.3874 57.0457 32.2186 56.9522C32.0497 56.8576 31.9653 56.7331 31.9653 56.5775ZM37.3918 57.6385L37.359 57.8539L37.1592 57.8785C37.0879 57.8785 37.0436 57.8876 37.0267 57.9068C37.0109 57.925 36.9997 57.9789 36.994 58.0666C36.994 58.0917 36.9922 58.127 36.9886 58.1724C36.9763 58.3424 36.9695 58.4493 36.9695 58.4894V58.7801C37.1074 58.7368 37.2135 58.6807 37.2867 58.6134C37.3608 58.5444 37.4649 58.4049 37.602 58.1943C37.8861 57.7513 38.1647 57.5305 38.4347 57.5305C38.5683 57.5305 38.6694 57.5674 38.7389 57.6417C38.8091 57.7154 38.8436 57.8052 38.8436 57.91C38.8436 57.9859 38.8203 58.0538 38.7734 58.1131C38.7267 58.1735 38.6619 58.2029 38.5783 58.2029C38.4883 58.2029 38.4066 58.1543 38.3324 58.0559C38.2846 57.9934 38.2406 57.9618 38.2003 57.9618C38.1395 57.9618 38.0775 57.9891 38.0146 58.0452C37.9526 58.1003 37.8655 58.2093 37.7539 58.3707C37.6611 58.5065 37.5916 58.5973 37.5466 58.6449C37.643 58.6775 37.7435 58.7433 37.8475 58.8427C37.9519 58.9421 38.1233 59.1714 38.3627 59.5311C38.4865 59.7171 38.5755 59.8315 38.6319 59.8748C38.6881 59.917 38.7903 59.9624 38.9394 60.011L38.9423 60.1105C38.9423 60.1265 38.9412 60.1505 38.9394 60.1826C38.9178 60.1826 38.8728 60.1783 38.8055 60.1709C38.7133 60.1612 38.6158 60.157 38.5117 60.157C38.3955 60.157 38.254 60.1655 38.0869 60.1826C38.0596 60.135 37.9969 60.0404 37.8983 59.8988L37.629 59.4974C37.4641 59.2462 37.3468 59.0923 37.2755 59.0362C37.2042 58.98 37.0991 58.9517 36.9583 58.9517V59.6642L36.9612 59.7679L36.9641 59.8833C37.0098 59.9266 37.0962 59.956 37.2247 59.9731C37.2503 59.9774 37.2726 59.9817 37.2906 59.9859V60.065L37.2931 60.1217C37.2931 60.1329 37.2914 60.1495 37.2877 60.173L37.269 60.1826L36.9817 60.1655C36.8507 60.1516 36.7276 60.1441 36.6131 60.1441C36.5476 60.1441 36.4209 60.1548 36.2333 60.1751C36.1825 60.1751 36.1422 60.1773 36.1131 60.1794C36.0727 60.1815 36.0364 60.1826 36.0014 60.1826C35.9941 60.1495 35.9903 60.1158 35.9903 60.0827C35.9903 60.0618 35.9913 60.0335 35.9932 59.9982C36.0241 59.9795 36.058 59.9678 36.0954 59.9613C36.13 59.9549 36.1526 59.9501 36.1638 59.9458L36.2689 59.9357C36.3057 59.9314 36.3319 59.9255 36.3485 59.9148C36.3683 59.8956 36.3795 59.5899 36.3816 58.9971L36.3841 58.8956L36.387 58.5695L36.3899 58.2008C36.3899 58.0527 36.3834 57.9608 36.3701 57.9271C36.3582 57.8934 36.3082 57.8753 36.2221 57.8731C36.18 57.8731 36.1141 57.8667 36.0259 57.8539L35.9903 57.6385C36.2322 57.655 36.4079 57.6636 36.5148 57.6636L36.6574 57.6604L36.8759 57.6636C37.1218 57.6636 37.2931 57.655 37.3918 57.6385ZM38.857 57.67C38.9218 57.6572 38.9743 57.6508 39.0164 57.6508C39.0388 57.6508 39.0633 57.6518 39.0913 57.654C39.2583 57.6689 39.3945 57.6764 39.4996 57.6764H39.6421L40.0342 57.6508C40.0482 57.6636 40.0615 57.6775 40.0727 57.6909C40.0669 57.7833 40.0622 57.841 40.0587 57.8667C40.0313 57.8731 40.0097 57.8769 39.9956 57.879C39.9524 57.8854 39.9215 57.8908 39.901 57.8966C39.8812 57.9014 39.8588 57.9057 39.8355 57.91C39.807 57.9185 39.7923 57.9335 39.7883 57.9533C39.7998 58.003 39.8099 58.0442 39.8214 58.0784L39.9524 58.3814C40.0569 58.67 40.1627 58.9367 40.2725 59.1799L40.4255 59.5364C40.4366 59.5118 40.5079 59.3082 40.6382 58.926C40.7959 58.4749 40.8802 58.2189 40.8935 58.1617C40.9011 58.1302 40.9046 58.1035 40.9046 58.0805C40.9046 58.0602 40.8989 58.0265 40.8877 57.9789C40.8474 57.9447 40.8147 57.9239 40.7894 57.9143C40.7631 57.9057 40.7038 57.8945 40.6102 57.8822L40.523 57.8571L40.5144 57.8127C40.5126 57.7913 40.5115 57.7758 40.5115 57.7652C40.5115 57.7486 40.5144 57.7208 40.5202 57.6828C40.5745 57.6786 40.6138 57.6764 40.6382 57.6764L40.8607 57.6941L41.0087 57.7015C41.0717 57.7015 41.1797 57.6919 41.3334 57.6722C41.4281 57.6593 41.4994 57.6529 41.5473 57.6508C41.5508 57.7015 41.553 57.7411 41.553 57.7673C41.553 57.7801 41.5519 57.7978 41.5501 57.8234C41.5174 57.841 41.4806 57.856 41.4403 57.8667C41.3745 57.8854 41.3165 57.9025 41.2668 57.9196C41.2377 57.9437 41.2189 57.965 41.2085 57.9822C41.1775 58.0602 41.1149 58.2312 41.0202 58.4958L40.8222 59.0949L40.3643 60.3296L40.0493 61.1474C39.9798 61.3045 39.8974 61.4387 39.8034 61.5509C39.7689 61.5942 39.7285 61.6268 39.6825 61.6503C39.6076 61.6818 39.5212 61.6989 39.4254 61.6989C39.4167 61.6989 39.3663 61.6915 39.2746 61.6776C39.1982 61.6567 39.1338 61.6134 39.0783 61.5455C39.0398 61.4958 39.0201 61.444 39.0201 61.3879C39.0201 61.2756 39.0633 61.1709 39.1497 61.0747C39.2274 61.0207 39.2846 60.9945 39.3214 60.9945C39.4038 60.9945 39.5003 61.0431 39.6111 61.1393C39.6627 61.1858 39.7041 61.2104 39.7357 61.2104C39.7667 61.2104 39.7923 61.1901 39.8099 61.1511C39.9686 60.801 40.0709 60.5525 40.1166 60.4066L39.6076 59.1441C39.4161 58.6374 39.2706 58.2836 39.1694 58.0805C39.1187 57.9768 39.082 57.9153 39.0614 57.8977C39.0398 57.8785 39.0082 57.8614 38.9639 57.8464C38.9394 57.84 38.9124 57.8288 38.8814 57.8095C38.8721 57.7609 38.8645 57.7144 38.857 57.67ZM44.1522 60.2013H44.0892L43.7159 60.1906L43.519 60.1885L43.3163 60.1853L43.1737 60.1949L42.8915 60.2013C42.8803 60.1644 42.8746 60.134 42.8746 60.1105C42.8746 60.0859 42.8793 60.0479 42.8886 59.9982L43.0067 59.9763C43.137 59.956 43.2018 59.9223 43.2018 59.8769C43.2018 59.8422 43.1924 59.8015 43.1748 59.7566C43.1597 59.7192 43.1334 59.6444 43.0967 59.5322C43.0611 59.421 42.9898 59.235 42.8828 58.9758L42.8108 58.7801C42.7554 58.6251 42.6982 58.484 42.6409 58.3584C42.6175 58.4199 42.5808 58.5337 42.5311 58.7C42.4908 58.8384 42.426 59.0383 42.3371 59.2997C42.2273 59.6252 42.169 59.8411 42.1618 59.9485C42.2093 59.9592 42.2723 59.9645 42.3493 59.9667L42.3903 59.9731C42.4206 59.9752 42.457 59.9763 42.5012 59.9763L42.5423 59.9859C42.5462 60.0196 42.5481 60.0533 42.5481 60.0891C42.5481 60.1473 42.5405 60.1842 42.5257 60.2013L42.4767 60.2077C42.4487 60.212 42.4335 60.2142 42.43 60.2142L42.1927 60.2077L42.0548 60.2109C41.9721 60.196 41.8867 60.1885 41.7985 60.1885L41.6862 60.1949L41.567 60.2045L41.5012 60.2013C41.4975 60.1644 41.4958 60.135 41.4958 60.1126C41.4958 60.0902 41.4975 60.0608 41.5012 60.0239C41.6869 59.9752 41.8155 59.9282 41.8867 59.886C41.9195 59.8208 41.9692 59.6877 42.034 59.4889C42.1589 59.1094 42.3238 58.6481 42.5304 58.1088C42.5894 57.9576 42.6326 57.84 42.6596 57.7577C42.6823 57.6909 42.7065 57.6267 42.7349 57.562H42.9552C43.1831 58.1607 43.3782 58.6471 43.5377 59.0201L43.8059 59.7L43.8923 59.9084C43.8941 59.9148 43.9373 59.9293 44.0237 59.9539C44.0986 59.9742 44.1436 59.995 44.1576 60.0175C44.1615 60.0404 44.1634 60.0682 44.1634 60.1019C44.1634 60.1473 44.1598 60.1805 44.1522 60.2013ZM45.1962 58.7197L45.504 58.7107L45.6052 58.7042C46.0627 58.7042 46.3687 58.7668 46.5235 58.8902C46.6783 59.0137 46.755 59.1831 46.755 59.3985C46.755 59.6567 46.6621 59.8523 46.4756 59.987C46.2899 60.1212 46.0292 60.1885 45.6934 60.1885L45.3254 60.1826L44.217 60.2142L44.2224 60.0303L44.4017 59.9993C44.4711 59.9891 44.5255 59.9752 44.5641 59.9592C44.591 59.9031 44.6051 59.6252 44.6051 59.1249L44.5968 58.5973L44.5882 58.2323C44.5882 58.0484 44.5835 57.9415 44.5734 57.9143C44.5641 57.8865 44.5162 57.871 44.4298 57.8699L44.23 57.8475L44.2055 57.6786L44.5403 57.6754L44.6418 57.67C44.7225 57.6657 44.833 57.6636 44.9737 57.6636L45.2873 57.6572L45.4878 57.6604C45.5227 57.6604 45.5807 57.6529 45.6631 57.6385L45.6303 57.8475C45.5105 57.8624 45.4374 57.8688 45.4118 57.8688C45.3049 57.8688 45.2412 57.8833 45.2203 57.9111C45.2009 57.9389 45.1905 58.0105 45.1905 58.1259L45.1933 58.4194V58.5834C45.1933 58.6251 45.1944 58.67 45.1962 58.7197ZM45.2074 59.9138C45.2711 59.9357 45.3679 59.948 45.4954 59.948C45.9108 59.948 46.1193 59.7802 46.1193 59.4466C46.1193 59.3029 46.0667 59.1831 45.9627 59.0912C45.8582 58.9982 45.7017 58.9517 45.4925 58.9517C45.4071 58.9517 45.3096 58.9603 45.2016 58.9758C45.1998 59.0014 45.1991 59.0148 45.1991 59.019L45.2016 59.2115C45.1923 59.422 45.1876 59.6273 45.1876 59.8272C45.1876 59.8534 45.1944 59.8833 45.2074 59.9138ZM46.9541 58.2905C46.9689 58.2601 46.9839 58.2168 46.998 58.1585L47.0318 58.0538C47.0703 57.9271 47.1107 57.7791 47.151 57.6096L47.1791 57.5113H47.3029C47.3123 57.5273 47.3198 57.5396 47.3245 57.5482C47.3706 57.6342 47.3994 57.6818 47.4127 57.6919C47.4315 57.6983 47.5254 57.7015 47.6961 57.7015L48.2663 57.6919L48.483 57.6951H49.1198C49.1256 57.6951 49.1461 57.693 49.1811 57.6887C49.2156 57.6855 49.239 57.6775 49.2523 57.6657C49.2653 57.654 49.2804 57.6214 49.2991 57.5674L49.3236 57.5145C49.3599 57.5123 49.4136 57.5113 49.4838 57.5113L49.4867 57.988L49.4895 58.1933C49.4895 58.3205 49.4856 58.3932 49.4784 58.4129C49.4183 58.4354 49.3668 58.4482 49.3236 58.4504C49.2945 58.4007 49.2541 58.3098 49.2044 58.1767C49.1602 58.0623 49.1263 57.9955 49.104 57.9768C49.0806 57.9586 49.0025 57.949 48.8703 57.949L48.7185 57.9522C48.6652 57.9522 48.6058 57.949 48.5413 57.9426L48.5467 58.2008L48.5413 58.5327L48.5298 59.0794C48.5298 59.6 48.5431 59.8881 48.5683 59.9469C48.6828 59.9774 48.7692 59.9972 48.8254 60.0046C48.8545 60.0089 48.8826 60.0153 48.91 60.0239L48.9125 60.2142L48.587 60.197C48.4848 60.1917 48.3883 60.1885 48.2972 60.1885L47.8958 60.2024L47.5564 60.2142L47.5618 60.0239C47.5852 60.0153 47.6125 60.0089 47.6435 60.0046C47.7457 59.9913 47.8321 59.971 47.9005 59.9469C47.9297 59.785 47.9444 59.5658 47.9444 59.2911L47.9333 58.6198C47.9333 58.2863 47.9297 58.0655 47.9203 57.9554C47.8375 57.9512 47.7727 57.949 47.7259 57.949C47.5636 57.949 47.4606 57.9629 47.4163 57.9891C47.3735 58.0158 47.3029 58.0981 47.2065 58.236L47.1546 58.3066C47.1201 58.3563 47.0948 58.3803 47.0779 58.3803C47.0441 58.3803 47.0027 58.3509 46.9541 58.2905ZM49.4453 57.67C49.5101 57.6572 49.5627 57.6508 49.6047 57.6508C49.6275 57.6508 49.6519 57.6518 49.68 57.654C49.847 57.6689 49.9828 57.6764 50.0879 57.6764H50.2304L50.6225 57.6508C50.6369 57.6636 50.6499 57.6775 50.661 57.6909C50.6556 57.7833 50.6509 57.841 50.647 57.8667C50.6199 57.8731 50.5983 57.8769 50.5843 57.879C50.5411 57.8854 50.5102 57.8908 50.4893 57.8966C50.4699 57.9014 50.4471 57.9057 50.4238 57.91C50.3957 57.9185 50.3806 57.9335 50.377 57.9533C50.3881 58.003 50.3986 58.0442 50.4097 58.0784L50.5411 58.3814C50.6452 58.67 50.751 58.9367 50.8608 59.1799L51.0138 59.5364C51.025 59.5118 51.0963 59.3082 51.2266 58.926C51.3843 58.4749 51.4689 58.2189 51.4818 58.1617C51.4894 58.1302 51.493 58.1035 51.493 58.0805C51.493 58.0602 51.4876 58.0265 51.4761 57.9789C51.4357 57.9447 51.403 57.9239 51.3778 57.9143C51.3515 57.9057 51.2924 57.8945 51.1985 57.8822L51.1114 57.8571L51.1027 57.8127C51.1009 57.7913 51.1002 57.7758 51.1002 57.7652C51.1002 57.7486 51.1027 57.7208 51.1085 57.6828C51.1628 57.6786 51.2025 57.6764 51.2266 57.6764L51.4491 57.6941L51.5974 57.7015C51.66 57.7015 51.768 57.6919 51.9217 57.6722C52.0164 57.6593 52.0877 57.6529 52.1356 57.6508C52.1395 57.7015 52.1413 57.7411 52.1413 57.7673C52.1413 57.7801 52.1403 57.7978 52.1385 57.8234C52.1057 57.841 52.069 57.856 52.0286 57.8667C51.9631 57.8854 51.9048 57.9025 51.8551 57.9196C51.826 57.9437 51.8073 57.965 51.7972 57.9822C51.7662 58.0602 51.7032 58.2312 51.6085 58.4958L51.4105 59.0949L50.953 60.3296L50.6376 61.1474C50.5681 61.3045 50.4857 61.4387 50.3917 61.5509C50.3572 61.5942 50.3169 61.6268 50.2708 61.6503C50.1959 61.6818 50.1095 61.6989 50.0137 61.6989C50.0054 61.6989 49.9547 61.6915 49.8629 61.6776C49.7869 61.6567 49.7221 61.6134 49.6667 61.5455C49.6282 61.4958 49.6087 61.444 49.6087 61.3879C49.6087 61.2756 49.6519 61.1709 49.738 61.0747C49.8161 61.0207 49.873 60.9945 49.9097 60.9945C49.9921 60.9945 50.089 61.0431 50.1995 61.1393C50.2513 61.1858 50.2924 61.2104 50.3244 61.2104C50.3554 61.2104 50.3806 61.1901 50.3986 61.1511C50.557 60.801 50.6592 60.5525 50.7053 60.4066L50.1959 59.1441C50.0044 58.6374 49.8589 58.2836 49.7578 58.0805C49.707 57.9768 49.6707 57.9153 49.6498 57.8977C49.6282 57.8785 49.5965 57.8614 49.5522 57.8464C49.5281 57.84 49.5007 57.8288 49.4698 57.8095C49.4604 57.7609 49.4529 57.7144 49.4453 57.67Z" fill="#E9EEF3"/>
<path d="M52.1191 61.7465V61.6022C52.1523 61.5803 52.1757 61.5643 52.1904 61.5557L52.4006 61.4691C52.4878 61.4301 52.5378 61.3996 52.5479 61.3761C52.5771 61.3152 52.59 61.2051 52.5864 61.0485L52.5695 59.8165L52.5414 58.2857C52.5357 58.1735 52.5151 58.0939 52.4784 58.0463C52.4421 57.9998 52.3445 57.9501 52.1868 57.8988V57.74C52.3661 57.7005 52.5162 57.6519 52.639 57.5941C52.7283 57.553 52.8499 57.4744 53.0029 57.359L53.1437 57.3525L53.1466 57.4397L53.1437 57.7726C53.1437 57.7844 53.1444 57.8149 53.1466 57.8646C53.3061 57.7555 53.4366 57.6839 53.5385 57.6486C53.6889 57.5995 53.8548 57.5749 54.0356 57.5749C54.2222 57.5749 54.3876 57.6289 54.5321 57.7352C54.5428 57.7443 54.5593 57.7555 54.5785 57.7705C54.6708 57.8443 54.7374 57.9153 54.7796 57.9843C54.8708 58.1302 54.9364 58.2751 54.9764 58.4172C55.0073 58.5252 55.0233 58.6588 55.0233 58.8202C55.0233 59.0351 54.9993 59.2168 54.9497 59.3659C54.8996 59.514 54.8142 59.6642 54.6932 59.8144C54.5721 59.9656 54.443 60.0736 54.3049 60.1372C54.1662 60.2013 54.0206 60.2329 53.8686 60.2329C53.7188 60.2329 53.6116 60.2227 53.547 60.2013C53.4244 60.1623 53.3021 60.1041 53.1822 60.0271C53.1794 60.0597 53.1775 60.0816 53.1775 60.095L53.1822 60.1784C53.1829 60.2003 53.1829 60.2291 53.1829 60.2617C53.1829 60.2762 53.1822 60.3579 53.18 60.506L53.1887 61.0693C53.1887 61.0822 53.1869 61.1238 53.1829 61.1933V61.2281C53.1829 61.3045 53.1876 61.3606 53.197 61.3954C53.2056 61.4151 53.2214 61.4387 53.2467 61.4632C53.2646 61.4713 53.2823 61.4809 53.2992 61.4916C53.3556 61.5033 53.4062 61.5156 53.4494 61.5285C53.4926 61.5402 53.5385 61.5509 53.5865 61.5589C53.6025 61.5824 53.6105 61.6118 53.6105 61.6503C53.6105 61.6722 53.61 61.7059 53.6078 61.7492H53.5582C53.4521 61.7492 53.378 61.7471 53.3358 61.7433L52.9212 61.7048H52.82L52.7236 61.7022L52.6278 61.7112L52.4795 61.7209C52.424 61.723 52.3643 61.7284 52.2977 61.7369C52.2318 61.7455 52.1839 61.7492 52.1548 61.7492L52.1191 61.7465ZM53.1584 59.5268C53.166 59.5519 53.1707 59.5701 53.1728 59.5829C53.1923 59.6781 53.2186 59.7454 53.2495 59.785C53.3061 59.8587 53.3716 59.909 53.4446 59.9325C53.5545 59.9678 53.651 59.9859 53.7337 59.9859C53.8297 59.9859 53.922 59.9635 54.0126 59.9181C54.1033 59.8726 54.1764 59.8112 54.2318 59.7353C54.2382 59.7246 54.2494 59.7096 54.2649 59.692C54.2766 59.6578 54.2873 59.6337 54.2948 59.6166C54.3678 59.4563 54.4046 59.2847 54.4046 59.103C54.4046 58.7689 54.3161 58.4862 54.1396 58.2569C54.0169 58.0939 53.8436 58.0126 53.6174 58.0126C53.483 58.0126 53.3312 58.0522 53.1606 58.1302C53.1566 58.2104 53.1549 58.4365 53.1549 58.809L53.1606 59.406C53.1606 59.421 53.1595 59.4616 53.1584 59.5268ZM56.3102 58.7197L56.6169 58.7107L56.7182 58.7042C57.1753 58.7042 57.4809 58.7668 57.6345 58.8902C57.7897 59.0137 57.8665 59.1831 57.8665 59.3985C57.8665 59.6567 57.7737 59.8523 57.5881 59.987C57.402 60.1212 57.1428 60.1885 56.8073 60.1885L56.4398 60.1826L55.3337 60.2206L55.3396 60.0367L55.5188 60.0057C55.5881 59.9956 55.6425 59.9817 55.6809 59.9646C55.7081 59.909 55.7225 59.6305 55.7225 59.1281L55.714 58.6006L55.7054 58.2334C55.7054 58.049 55.7006 57.9431 55.6905 57.9143C55.6809 57.8865 55.6329 57.8721 55.5465 57.8699L55.347 57.8475L55.323 57.6786L55.6574 57.6754L55.7588 57.67C55.8393 57.6657 55.9502 57.6636 56.091 57.6636L56.4041 57.6572L56.6052 57.6604C56.6398 57.6604 56.698 57.6529 56.7806 57.6385L56.7476 57.8475C56.6265 57.8624 56.5534 57.8689 56.5268 57.8689C56.4196 57.8689 56.3556 57.8833 56.3348 57.9111C56.315 57.9389 56.3049 58.0105 56.3049 58.1259L56.3076 58.4194V58.584C56.3076 58.6251 56.3086 58.6706 56.3102 58.7197ZM56.3241 59.9138C56.3886 59.9357 56.4836 59.948 56.6105 59.948C57.0244 59.948 57.2308 59.7807 57.2308 59.4466C57.2308 59.3029 57.179 59.1831 57.075 59.0912C56.9716 58.9982 56.8158 58.9517 56.6078 58.9517C56.5225 58.9517 56.426 58.9603 56.3188 58.9758C56.3172 59.0014 56.3161 59.0148 56.3161 59.0191L56.3188 59.2115C56.3097 59.4221 56.3049 59.6273 56.3049 59.8272C56.3049 59.8534 56.3113 59.8833 56.3241 59.9138ZM57.9529 57.8475L57.9172 57.6385C58.1593 57.6551 58.3348 57.6636 58.4452 57.6636L58.5881 57.6604L58.8078 57.6636C59.0548 57.6636 59.2297 57.6551 59.33 57.6385L59.2942 57.8475L59.0942 57.8699C59.01 57.8699 58.963 57.8833 58.954 57.9111C58.9433 57.9399 58.9369 58.0452 58.9358 58.2302L58.9273 58.6006L58.9193 59.1249C58.9193 59.6273 58.9332 59.9052 58.9604 59.9613C59.0692 59.9913 59.1556 60.0089 59.2196 60.0175C59.2462 60.0217 59.2756 60.0282 59.3049 60.0367L59.3076 60.2142L59.1172 60.2056C58.9209 60.1938 58.7764 60.1885 58.6846 60.1885L57.9396 60.2142L57.9422 60.0367C57.9705 60.0282 57.9988 60.0217 58.0286 60.0175C58.1374 60.0014 58.2238 59.9827 58.2889 59.9613C58.3076 59.8534 58.3166 59.5963 58.3166 59.1906V58.7775L58.3198 58.4327C58.3198 58.1478 58.3156 57.9832 58.3081 57.9367C58.3006 57.8897 58.2484 57.8656 58.1508 57.8635C58.115 57.8635 58.0494 57.8582 57.9529 57.8475Z" fill="#E9EEF3"/>
<path fill-rule="evenodd" clip-rule="evenodd" d="M70.4343 54.4746H58.4689C58.4689 54.4746 57.8721 54.759 58.9404 55.0941C60.0092 55.4292 69.9345 54.7734 70.4343 54.4746Z" fill="#E9EEF3"/>
<path fill-rule="evenodd" clip-rule="evenodd" d="M1.3418 54.4746H13.3065C13.3065 54.4746 13.9039 54.759 12.8352 55.0941C11.7665 55.4292 1.84117 54.7734 1.3418 54.4746Z" fill="#E9EEF3"/>
<path fill-rule="evenodd" clip-rule="evenodd" d="M31.8973 28.5056C31.8973 28.5056 26.5569 22.5078 25.2659 19.5088C25.2659 19.5088 21.9208 21.7677 22.2925 22.3909C22.6642 23.0141 31.8973 28.5056 31.8973 28.5056Z" fill="#9C9C9C"/>
<path fill-rule="evenodd" clip-rule="evenodd" d="M20.707 8.37795C20.707 8.37795 26.115 2.01219 27.098 1.65164C28.0811 1.29109 28.5986 1.96069 29.1935 3.96953C29.7885 5.97828 33.6932 27.3212 33.6932 27.847C33.6932 28.3728 33.8286 29.276 32.5963 27.7796C31.364 26.2833 22.441 12.3214 20.707 8.37795Z" fill="#E3E3E3"/>
<path fill-rule="evenodd" clip-rule="evenodd" d="M34.5127 28.018C34.5127 28.018 38.7914 4.43429 38.9714 3.4661C39.1514 2.4979 39.5038 0.479385 39.0952 0.154024C38.6866 -0.171378 34.7099 -0.0900065 30.4609 1.48264C31.2228 5.36706 32.2802 9.20556 32.7466 13.136L34.5127 28.018Z" fill="#DEDEDE"/>
<path fill-rule="evenodd" clip-rule="evenodd" d="M35.707 25.7356C35.707 25.7356 44.8564 9.52719 45.2888 8.45138C45.7211 7.37558 46.7223 6.12211 45.4248 5.19947C44.1274 4.27685 40.7085 2.2266 40.6469 2.51363C40.585 2.80065 35.707 25.7356 35.707 25.7356Z" fill="#BEBEBE"/>
<path fill-rule="evenodd" clip-rule="evenodd" d="M35.7363 27.0244C35.7363 27.0244 48.4551 17.1922 49.426 16.3434C50.3973 15.4946 50.8473 15.1645 50.2076 13.7734C49.5682 12.3823 47.3653 10.0952 47.3653 10.0952L35.7363 27.0244Z" fill="#ABABAB"/>
<path fill-rule="evenodd" clip-rule="evenodd" d="M35.5234 27.7318C35.5234 27.7318 46.7735 21.177 48.6686 19.2437C48.6686 19.2437 51.5342 23.3698 51.5107 23.865C51.487 24.3601 51.8895 24.7845 48.4788 25.374C45.0682 25.9634 35.5234 27.7318 35.5234 27.7318Z" fill="#BCBCBC"/>
</g>
</g>
<defs>
<clipPath id="clip0_3133_3432">
<rect width="72" height="62" fill="white"/>
</clipPath>
</defs>
</svg>
