<svg width="204" height="54" fill="none" xmlns="http://www.w3.org/2000/svg"><g clip-path="url(#clip0_3133_1662)" fill="#E9EEF3"><path d="M149.781 30.645V44.47h-2.185V32.62h-5.07v2.172c0 1.985-.095 3.647-.291 4.983-.196 1.336-.488 2.353-.879 3.047-.391.695-.822 1.175-1.293 1.442-.467.267-1.041.402-1.714.402a3.93 3.93 0 01-.756-.078 4.306 4.306 0 01-.623-.155l-.212-.056v-2.074c.395.129.756.19 1.088.19.381 0 .709-.092.984-.282.275-.191.537-.547.783-1.067.244-.52.427-1.31.543-2.37.116-1.062.175-2.389.175-3.982v-4.146l9.45-.001zm-27.123 13.826l5.769-13.826h2.188l5.769 13.826H134.1l-1.496-3.653h-6.166l-1.495 3.653h-2.285zm6.866-11.358l-2.291 5.727h4.576l-2.285-5.727zm-16.213-2.468h10.54v1.975h-4.178v11.85h-2.184V32.62h-4.178v-1.975zm-11.036 0h5.563c1.33 0 2.441.43 3.339 1.296.895.866 1.343 1.916 1.343 3.153 0 1.238-.448 2.287-1.343 3.146-.898.863-2.009 1.293-3.339 1.293h-3.378v4.938h-2.185V30.645zm5.564 1.975h-3.378v4.937h3.378c.687 0 1.273-.234 1.761-.708.484-.47.726-1.057.726-1.755s-.242-1.283-.726-1.76a2.441 2.441 0 00-1.761-.714zM86.95 44.471l5.768-13.826h2.189l5.769 13.826h-2.285l-1.495-3.653H90.73l-1.496 3.653H86.95zm6.866-11.358l-2.29 5.727H96.1l-2.284-5.727zM82.08 44.471h-5.96V30.645h5.662c1.124 0 2.09.368 2.885 1.108.796.738 1.194 1.587 1.194 2.545 0 .552-.116 1.06-.344 1.523-.23.465-.458.784-.683.965l-.361.279c.053.026.126.069.218.131.093.06.265.192.51.395.246.201.458.425.637.668.176.243.342.563.494.951a3.3 3.3 0 01.229 1.21c0 1.103-.428 2.058-1.283 2.855-.857.798-1.921 1.196-3.198 1.196zm-.298-11.946h-3.479v3.751h3.479c.543 0 .994-.178 1.353-.537.361-.355.54-.802.54-1.34 0-.536-.179-.983-.54-1.339-.359-.358-.81-.535-1.353-.535zm-3.478 10.067h3.777c.65 0 1.193-.217 1.634-.652.438-.434.66-.974.66-1.616 0-.642-.22-1.182-.657-1.619-.438-.438-.981-.655-1.638-.655h-3.777l.001 4.542zM65.277 30.645v6.72l6.263-6.72h2.789l-5.372 5.726 5.77 8.1h-2.69l-4.575-6.516-2.185 2.37v4.146h-2.185V30.645h2.185zm138.724-9.147h-2.185V11.53l-7.761 9.968h-1.885V7.672h2.185v9.98l7.762-9.98h1.884v13.826zm-15.022 0h-2.185V11.53l-7.761 9.968h-1.883V7.672h2.184v9.98l7.763-9.98h1.882v13.826zM166.306 7.672v6.721l6.263-6.72h2.789l-5.372 5.726 5.77 8.099h-2.69l-4.575-6.516-2.185 2.37v4.146h-2.185V7.672h2.185zm-9.944-.195a7.37 7.37 0 012.029.277c.65.18 1.183.405 1.607.668.425.264.797.524 1.115.784.315.256.55.476.7.664l.212.27-1.39 1.389a9.873 9.873 0 00-.169-.218 5.945 5.945 0 00-.511-.507 5.024 5.024 0 00-.854-.632c-.305-.178-.701-.339-1.192-.49a5.185 5.185 0 00-1.548-.227c-1.442 0-2.669.497-3.669 1.488-1.006.994-1.507 2.208-1.507 3.64 0 1.435.498 2.65 1.499 3.647 1.002.997 2.228 1.495 3.677 1.495a5.3 5.3 0 001.559-.228c.497-.151.907-.332 1.233-.543.327-.214.616-.425.866-.632.248-.21.434-.388.559-.536l.153-.24 1.399 1.388a3.45 3.45 0 01-.235.303c-.11.125-.344.346-.709.662a8.754 8.754 0 01-1.167.84c-.412.243-.949.463-1.612.658a7.137 7.137 0 01-2.046.296c-2.085 0-3.833-.687-5.245-2.063-1.412-1.375-2.118-3.057-2.118-5.045 0-1.985.706-3.666 2.118-5.042 1.414-1.377 3.161-2.066 5.246-2.066zm-9.751 14.021h-2.185V11.53l-7.762 9.968h-1.883V7.672h2.185v9.98l7.763-9.98h1.882v13.826zm-15.021 0h-2.186V11.53l-7.761 9.968h-1.883V7.672h2.185v9.98l7.762-9.98h1.883v13.826zM116.579 7.672v13.826h-2.186V9.648h-6.866v11.85h-2.185V7.672h11.237zM98.276 21.498h-5.563V7.672h2.185v4.937h3.378c1.33 0 2.441.431 3.339 1.297.895.865 1.342 1.915 1.342 3.153 0 1.237-.447 2.287-1.342 3.146-.899.862-2.01 1.293-3.339 1.293zm-3.378-1.978h3.378a2.43 2.43 0 001.76-.707c.484-.47.727-1.057.727-1.755s-.239-1.284-.723-1.76a2.423 2.423 0 00-1.764-.715h-3.378v4.937zM89.519 7.672V21.5h-2.185V9.647h-5.07v2.173c0 1.984-.096 3.646-.291 4.982-.195 1.337-.487 2.354-.879 3.048-.391.694-.822 1.175-1.292 1.442-.469.267-1.042.402-1.715.402-.239 0-.49-.027-.755-.08a4.302 4.302 0 01-.624-.154l-.212-.055V19.33c.395.129.757.191 1.088.191.382 0 .709-.092.984-.283.276-.191.537-.546.782-1.066.246-.52.428-1.31.545-2.37.116-1.063.175-2.389.175-3.982V7.674h9.449v-.002zM62.25 21.498l5.769-13.826h2.188l5.77 13.826h-2.285l-1.495-3.653H66.03l-1.495 3.653H62.25zm6.866-11.357l-2.29 5.727h4.576l-2.286-5.727zm71.599-3.578l-4.477-4.655h2.631l1.846 1.915 1.84-1.91h2.635l-4.475 4.65zm57.346.003l-4.475-4.647h2.636l1.839 1.908L199.9 1.92h2.638l-4.477 4.647zM24.085 54l-.339-.134C16.484 50.993 10.46 46.57 6.325 41.074 2.187 35.574 0 29.082 0 22.304V0h48.17v22.304c0 6.778-2.187 13.27-6.324 18.77-4.135 5.496-10.159 9.92-17.421 12.792l-.34.134zM1.833 1.819v20.485c0 13.005 8.31 24.098 22.252 29.736 13.943-5.638 22.253-16.731 22.253-29.736V1.819H1.833z"/><path d="M25.002.91H23.17v52.05h1.832V.91z"/><path d="M1.461 18.556L.42 20.053l23.142 15.854 1.04-1.497-23.14-15.854zm.002-8.436L.422 11.619l23.141 15.854 1.042-1.497L1.463 10.12zm0-8.434L.422 3.183l23.141 15.854 1.042-1.498L1.463 1.686zm.361 25.554l-1.04 1.497 22.778 15.605 1.04-1.498L1.825 27.24zm34.098-1.29H29.24v-9.314h6.682v9.314zm-4.849-1.82h3.017v-5.676h-3.017v5.677zm4.849 15.393H29.24V30.21h6.682v9.314zm-4.849-1.82h3.017v-5.675h-3.017v5.676zm16.352-23.998h-6.604l-8.238-5.06-8.015 4.924-.965-1.547 8.98-5.516 8.76 5.38h6.082v1.819z"/></g><defs><clipPath id="clip0_3133_1662"><path fill="#fff" d="M0 0h204v54H0z"/></clipPath></defs></svg>