<svg width="107" height="28" viewBox="0 0 107 28" fill="none" xmlns="http://www.w3.org/2000/svg">
<g clip-path="url(#clip0_3133_2020)">
<path d="M78.5612 15.89V23.0592H77.4151V16.914H74.7562V18.0404C74.7562 19.0695 74.7063 19.9313 74.6034 20.6241C74.5006 21.3169 74.3472 21.8442 74.1421 22.2043C73.937 22.5644 73.7112 22.8134 73.4639 22.9519C73.219 23.0903 72.9182 23.1603 72.5651 23.1603C72.4396 23.1603 72.3077 23.1466 72.1686 23.1196C72.0295 23.094 71.9201 23.0666 71.8416 23.0392L71.7305 23.0104V21.9352C71.9379 22.0018 72.127 22.0339 72.3011 22.0339C72.5009 22.0339 72.6733 21.9858 72.8171 21.8871C72.9616 21.788 73.0989 21.6038 73.2279 21.3342C73.3563 21.0646 73.452 20.6551 73.5126 20.1054C73.5738 19.5543 73.6048 18.8666 73.6048 18.0404V15.8904L78.5612 15.89Z" fill="#E9EEF3"/>
<path d="M64.334 23.0592L67.3597 15.89H68.5076L71.5333 23.0592H70.3355L69.5508 21.1652H66.3165L65.5324 23.0592H64.334ZM67.9351 17.1699L66.7338 20.1392H69.1335L67.9351 17.1699Z" fill="#E9EEF3"/>
<path d="M59.4336 15.89H64.9622V16.914H62.7705V23.0592H61.625V16.914H59.4336V15.89Z" fill="#E9EEF3"/>
<path d="M53.6445 15.89H56.5624C57.26 15.89 57.8426 16.1134 58.3138 16.5621C58.7832 17.0109 59.0179 17.5555 59.0179 18.1972C59.0179 18.8387 58.7832 19.383 58.3138 19.8285C57.8426 20.2759 57.26 20.4989 56.5624 20.4989H54.7906V23.0588H53.6445V15.89ZM56.5629 16.914H54.791V19.4739H56.5629C56.9228 19.4739 57.2306 19.3528 57.4863 19.107C57.7401 18.863 57.8672 18.5591 57.8672 18.1972C57.8672 17.8353 57.7401 17.5318 57.4863 17.2841C57.2306 17.0388 56.9228 16.914 56.5629 16.914Z" fill="#E9EEF3"/>
<path d="M45.6055 23.0592L48.6314 15.89H49.7792L52.8052 23.0592H51.607L50.8228 21.1652H47.5883L46.8041 23.0592H45.6055ZM49.207 17.1699L48.0055 20.1392H50.4051L49.207 17.1699Z" fill="#E9EEF3"/>
<path d="M43.0523 23.0592H39.9258V15.89H42.8963C43.4858 15.89 43.992 16.0809 44.4092 16.4648C44.8264 16.8473 45.0356 17.2873 45.0356 17.784C45.0356 18.0706 44.9745 18.3338 44.8549 18.5742C44.7347 18.815 44.6151 18.9804 44.4968 19.0741L44.3073 19.2189C44.3352 19.2326 44.3734 19.2546 44.4218 19.287C44.4707 19.3176 44.561 19.3862 44.6895 19.4917C44.8181 19.5959 44.9294 19.712 45.0234 19.8381C45.1156 19.9642 45.2027 20.1301 45.2823 20.3312C45.3625 20.5327 45.4025 20.7425 45.4025 20.9591C45.4025 21.5307 45.1781 22.0256 44.7296 22.4387C44.2802 22.8527 43.7219 23.0592 43.0523 23.0592ZM42.8958 16.8646H41.0713V18.8099H42.8958C43.1808 18.8099 43.4174 18.7177 43.6055 18.5316C43.795 18.3475 43.8886 18.1154 43.8886 17.8371C43.8886 17.5588 43.795 17.3266 43.6055 17.1425C43.4174 16.9569 43.1808 16.8646 42.8958 16.8646ZM41.0718 22.0845H43.0527C43.3936 22.0845 43.6786 21.9721 43.91 21.7469C44.1396 21.5216 44.256 21.2415 44.256 20.9088C44.256 20.5761 44.141 20.296 43.9114 20.0694C43.6818 19.8422 43.3969 19.7298 43.0523 19.7298H41.0713L41.0718 22.0845Z" fill="#E9EEF3"/>
<path d="M34.2378 15.89V19.3747L37.5231 15.89H38.9858L36.168 18.8593L39.1944 23.0592H37.7839L35.3839 19.6805L34.2378 20.9092V23.0592H33.0918V15.89H34.2378Z" fill="#E9EEF3"/>
<path d="M107 11.1471H105.854V5.97833L101.783 11.1471H100.795V3.97821H101.941V9.15242L106.012 3.97821H107V11.1471Z" fill="#E9EEF3"/>
<path d="M99.1222 11.1471H97.9761V5.97833L93.9053 11.1471H92.918V3.97821H94.0635V9.15242L98.1348 3.97821H99.1222V11.1471Z" fill="#E9EEF3"/>
<path d="M87.2281 3.97821V7.46303L90.513 3.97821H91.976L89.1583 6.9476L92.1846 11.1471H90.774L88.3742 7.76829L87.2281 8.99708V11.1471H86.082V3.97821H87.2281Z" fill="#E9EEF3"/>
<path d="M82.0131 3.87714C82.3834 3.87714 82.7383 3.92512 83.0772 4.02062C83.4178 4.1143 83.6978 4.23037 83.9201 4.36701C84.143 4.50364 84.338 4.63844 84.505 4.77325C84.6703 4.90622 84.7933 5.02047 84.8718 5.1178L84.9829 5.25763L84.2541 5.97779C84.2333 5.95037 84.2042 5.91292 84.1656 5.86491C84.1252 5.81558 84.0366 5.7283 83.8975 5.60218C83.7584 5.47606 83.6086 5.36685 83.4493 5.27454C83.2894 5.18223 83.0819 5.09861 82.8245 5.02046C82.5689 4.94187 82.2978 4.90257 82.0125 4.90257C81.2558 4.90257 80.6126 5.16029 80.0877 5.67393C79.5604 6.18936 79.2977 6.81907 79.2977 7.56166C79.2977 8.30558 79.5586 8.93529 80.0835 9.45259C80.609 9.96983 81.2522 10.2276 82.0125 10.2276C82.2972 10.2276 82.5707 10.1883 82.8299 10.1097C83.0908 10.0311 83.306 9.9374 83.4766 9.8282C83.6484 9.71713 83.8 9.60793 83.9308 9.50054C84.061 9.39134 84.1584 9.29906 84.2244 9.22229L84.3047 9.09751L85.0382 9.8177C85.0121 9.85696 84.9705 9.90998 84.9152 9.97491C84.8575 10.0398 84.7345 10.154 84.5431 10.3181C84.3499 10.4803 84.1466 10.6256 83.9308 10.7535C83.715 10.8797 83.4332 10.9939 83.0855 11.0949C82.7377 11.1973 82.3793 11.2484 82.0125 11.2484C80.9187 11.2484 80.0021 10.892 79.2614 10.1787C78.5207 9.46536 78.1504 8.59346 78.1504 7.56259C78.1504 6.53347 78.5207 5.66159 79.2614 4.94826C80.0027 4.23403 80.9193 3.87714 82.0131 3.87714Z" fill="#E9EEF3"/>
<path d="M76.8982 11.1471H75.7521V5.97833L71.6807 11.1471H70.6934V3.97821H71.8394V9.15242L75.9108 3.97821H76.8982V11.1471Z" fill="#E9EEF3"/>
<path d="M69.0193 11.1471H67.8732V5.97833L63.8024 11.1471H62.8145V3.97821H63.9605V9.15242L68.0319 3.97821H69.0193V11.1471Z" fill="#E9EEF3"/>
<path d="M61.1477 3.97821V11.1471H60.0016V5.00227H56.3999V11.1471H55.2539V3.97821H61.1477Z" fill="#E9EEF3"/>
<path d="M51.5468 11.1471H48.6289V3.97821H49.7749V6.53816H51.5468C52.2444 6.53816 52.8269 6.76157 53.2981 7.21033C53.7676 7.65909 54.0023 8.20334 54.0023 8.84536C54.0023 9.48691 53.7676 10.0312 53.2981 10.4767C52.8265 10.9236 52.2439 11.1471 51.5468 11.1471ZM49.7749 10.1216H51.5468C51.9067 10.1216 52.2145 10.0005 52.4702 9.75472C52.724 9.51071 52.8511 9.20679 52.8511 8.84489C52.8511 8.48299 52.7259 8.17907 52.472 7.93186C52.2196 7.68604 51.9105 7.56173 51.5468 7.56173H49.7749V10.1216Z" fill="#E9EEF3"/>
<path d="M46.9535 3.97821V11.1475H45.8075V5.00227H43.1485V6.12872C43.1485 7.15777 43.0982 8.01959 42.9958 8.71236C42.8933 9.40512 42.7401 9.93246 42.5348 10.2925C42.3294 10.6526 42.1036 10.9017 41.8567 11.0401C41.6113 11.1786 41.3105 11.2485 40.9575 11.2485C40.8323 11.2485 40.7 11.2348 40.5612 11.2074C40.422 11.1818 40.3126 11.1548 40.2343 11.1274L40.123 11.0987V10.0234C40.3303 10.0901 40.5198 10.1226 40.6935 10.1226C40.8937 10.1226 41.0655 10.0746 41.2099 9.97586C41.3543 9.87669 41.4916 9.69259 41.6202 9.42297C41.7492 9.15336 41.8446 8.74345 41.9056 8.19418C41.9667 7.64305 41.9978 6.95536 41.9978 6.12912V3.97913H46.9535V3.97821Z" fill="#E9EEF3"/>
<path d="M32.6504 11.1473L35.6763 3.97797H36.8242L39.8501 11.1473H38.6519L37.8677 9.25314H34.6332L33.849 11.1473H32.6504ZM36.2519 5.25838L35.0505 8.22776H37.4505L36.2519 5.25838Z" fill="#E9EEF3"/>
<path d="M73.807 3.40313L71.459 0.989441H72.8387L73.807 1.98243L74.7724 0.991722H76.1545L73.807 3.40313Z" fill="#E9EEF3"/>
<path d="M103.885 3.40488L101.537 0.9953H102.92L103.885 1.98463L104.849 0.9953H106.233L103.885 3.40488Z" fill="#E9EEF3"/>
<path d="M12.633 28L12.4552 27.9304C8.64578 26.441 5.4858 24.1473 3.31727 21.2974C1.14734 18.4455 0 15.0798 0 11.5649V0H25.2657V11.5649C25.2657 15.0798 24.1187 18.4455 21.9484 21.2974C19.7799 24.1473 16.6203 26.441 12.8109 27.9304L12.633 28ZM0.961419 0.94311V11.5649C0.961419 18.3083 5.32014 24.0602 12.633 26.9838C19.9459 24.0602 24.3046 18.3083 24.3046 11.5649V0.94311H0.961419Z" fill="#E9EEF3"/>
<path d="M13.1134 0.471558H12.1523V27.4615H13.1134V0.471558Z" fill="#E9EEF3"/>
<path d="M0.766793 9.62152L0.220703 10.398L12.3587 18.6185L12.9047 17.842L0.766793 9.62152Z" fill="#E9EEF3"/>
<path d="M0.768744 5.24786L0.222656 6.02433L12.3606 14.2448L12.9067 13.4684L0.768744 5.24786Z" fill="#E9EEF3"/>
<path d="M0.768744 0.873962L0.222656 1.65043L12.3606 9.87096L12.9067 9.09449L0.768744 0.873962Z" fill="#E9EEF3"/>
<path d="M0.956245 14.124L0.410156 14.9005L12.3577 22.9921L12.9038 22.2156L0.956245 14.124Z" fill="#E9EEF3"/>
<path d="M18.8425 13.4556H15.3379V8.62579H18.8425V13.4556ZM16.2993 12.5121H17.8814V9.56893H16.2993V12.5121Z" fill="#E9EEF3"/>
<path d="M18.8425 20.4935H15.3379V15.6638H18.8425V20.4935ZM16.2993 19.5501H17.8814V16.607H16.2993V19.5501Z" fill="#E9EEF3"/>
<path d="M24.8755 7.10621H21.4118L17.0905 4.48267L12.8866 7.03592L12.3809 6.23377L17.0905 3.37323L21.685 6.16313H24.8755V7.10621Z" fill="#E9EEF3"/>
</g>
<defs>
<clipPath id="clip0_3133_2020">
<rect width="107" height="28" fill="white"/>
</clipPath>
</defs>
</svg>
