<svg width="72" height="62" viewBox="0 0 72 62" fill="none" xmlns="http://www.w3.org/2000/svg">
<g clip-path="url(#clip0_3133_2066)">
<mask id="mask0_3133_2066" style="mask-type:luminance" maskUnits="userSpaceOnUse" x="0" y="0" width="72" height="62">
<path d="M72 0H0V62H72V0Z" fill="white"/>
</mask>
<g mask="url(#mask0_3133_2066)">
<path d="M15.8375 43.839C15.8533 44.0153 15.8612 44.1508 15.8612 44.2415C15.8612 44.3182 15.8533 44.4676 15.8375 44.6801C15.089 44.6801 14.3681 44.6393 13.6747 44.5532L13.202 44.54L12.8197 44.4992C12.481 44.4766 12.2091 44.463 12.0004 44.463C11.6851 44.463 10.7041 44.54 9.05344 44.6938L8.60427 44.6665C8.53728 44.6665 8.43493 44.6712 8.30485 44.6801C8.26549 44.4855 8.24581 44.1601 8.24581 43.7032C8.33248 43.6491 8.61216 43.5677 9.08891 43.4545C9.79013 43.2871 10.3102 43.0882 10.649 42.8574L10.5899 40.3792L10.6135 37.7788L10.5781 36.8972L10.5899 36.5399L9.76261 36.5126C9.28192 36.5126 8.94315 36.5714 8.74619 36.6936C8.55307 36.8154 8.37973 37.01 8.23003 37.2724C8.08032 37.539 7.71392 38.3034 7.13088 39.5743C6.55173 40.8405 6.07499 41.9665 5.6968 42.9391L5.00342 44.6801L3.76636 44.5715L0.657915 44.6938H0.496372L0.0117965 44.6801C0.00395971 44.558 0 44.463 0 44.3863C0 44.264 0.0275962 44.1375 0.0787883 43.9971C0.256086 43.9204 0.512172 43.8207 0.850971 43.7032C1.25676 43.5541 1.57984 43.3097 1.82404 42.9706C2.06437 42.636 2.65142 41.5733 3.58118 39.7825C4.73155 37.5663 5.51557 36.3137 5.94107 36.0199C3.6994 35.3413 2.57655 33.9665 2.57655 31.8953C2.57655 30.6064 3.00993 29.5346 3.87666 28.6798C4.7434 27.8251 6.25232 27.3954 8.40731 27.3954C9.0416 27.3954 9.62469 27.4317 10.1644 27.4995C10.8814 27.5764 11.7285 27.6126 12.7055 27.6126L13.1547 27.599L13.5723 27.5854C14.5257 27.5854 15.2309 27.6306 15.6839 27.7211C15.7076 27.7979 15.7194 27.8477 15.7194 27.8613V28.2004C15.7194 28.4582 15.7116 28.6075 15.6958 28.6437C15.55 28.6799 15.3215 28.707 15.0063 28.7341C14.5217 28.7793 14.1081 28.8472 13.7693 28.933C13.7299 29.435 13.7141 30.5883 13.7141 32.3837L13.7693 35.8614L13.7574 37.0914L13.8047 38.9866L13.7929 40.1215C13.7929 41.9575 13.8205 43.0112 13.8756 43.2828C14.1514 43.4046 14.5257 43.5043 14.9945 43.572C15.3884 43.6354 15.6682 43.7258 15.8375 43.839ZM10.6135 35.2916L10.5899 33.9575L10.5781 33.3515L10.5899 31.9088L10.5662 30.828V28.7929C10.3535 28.7477 10.0344 28.725 9.6168 28.725C8.43493 28.725 7.576 28.9783 7.03237 29.4848C6.48869 29.9913 6.21685 30.8415 6.21685 32.0399C6.21685 33.1344 6.50048 33.953 7.07173 34.5001C7.64304 35.0474 8.54912 35.3187 9.79803 35.3187L10.6135 35.2916Z" fill="#E9EEF3"/>
<path d="M25.244 41.234C25.3662 41.3153 25.4568 41.3651 25.5199 41.3923C25.6971 41.4784 25.839 41.5913 25.9453 41.7224C25.7404 42.6044 25.2362 43.3685 24.4364 44.0107C23.6367 44.6576 22.6241 44.9787 21.4028 44.9787C20.6346 44.9787 19.8703 44.793 19.1178 44.4225C18.3654 44.0516 17.7665 43.5631 17.3174 42.957C16.9746 42.4869 16.7146 41.9124 16.5413 41.234C16.3679 40.5556 16.2812 39.9768 16.2812 39.5019C16.2812 38.9274 16.3876 38.2809 16.6042 37.5527C16.821 36.8248 17.1795 36.1374 17.6877 35.4951C18.1959 34.8529 18.8342 34.3419 19.6103 33.962C20.3825 33.5821 21.2531 33.3922 22.2223 33.3922C23.55 33.3922 24.4759 33.6319 24.9998 34.1067C25.5238 34.5861 25.7838 35.0655 25.7838 35.5403C25.7838 36.0105 25.6774 36.3815 25.4686 36.6485C25.2559 36.9198 24.9643 37.0552 24.5979 37.0552C24.2828 37.0552 23.9912 36.9377 23.7273 36.6979C23.4633 36.4582 23.2426 36.0557 23.0654 35.4951C22.9275 35.0881 22.7503 34.7896 22.5336 34.6041C22.3208 34.4278 22.0647 34.3419 21.7653 34.3419C21.0404 34.3419 20.3982 34.6946 19.827 35.4046C19.2596 36.1145 18.976 37.0778 18.976 38.3035C18.976 39.7732 19.3227 40.9401 20.02 41.8084C20.7134 42.6722 21.5014 43.1062 22.3878 43.1062C22.825 43.1062 23.1954 43.0474 23.5027 42.9345C23.6957 42.8574 23.9558 42.6858 24.2867 42.4188C24.3694 42.351 24.531 42.1611 24.7634 41.8536C24.9998 41.5461 25.1574 41.3379 25.244 41.234Z" fill="#E9EEF3"/>
<path d="M31.1214 38.8597L31.5508 38.9005L33.1779 38.8733L33.6191 38.9005L34.407 38.9274C34.7144 38.9274 35.128 38.9138 35.6481 38.8869L35.6599 37.3763C35.6599 36.1008 35.6481 35.3639 35.6205 35.165C35.593 34.9704 35.3723 34.8665 34.9587 34.8574C34.7893 34.8483 34.5174 34.8212 34.1431 34.776L33.9934 33.8534C35.0138 33.9258 35.7505 33.9619 36.1997 33.9619L36.7984 33.9484L37.7203 33.9619C38.7525 33.9619 39.4814 33.9258 39.903 33.8534L39.7533 34.776C39.2726 34.8393 38.993 34.8709 38.9141 34.8709C38.5635 34.8755 38.3666 34.9433 38.323 35.0609C38.2798 35.1785 38.256 35.6488 38.2485 36.4718L38.2128 38.1046L38.1775 40.4742C38.1775 42.36 38.2366 43.4409 38.3507 43.7258C38.8273 43.8569 39.1899 43.9429 39.4382 43.9745C39.5603 43.9928 39.6823 44.0196 39.7965 44.0559L39.8083 44.8701L38.4374 44.7977C38.004 44.7751 37.5943 44.7615 37.2005 44.7615L35.5181 44.8203L34.088 44.8701L34.0998 44.0559C34.2062 44.0196 34.3244 43.9928 34.4544 43.9745C34.8838 43.9157 35.2462 43.8297 35.5339 43.7258C35.6717 42.8306 35.7427 41.7948 35.7427 40.619L35.719 39.8635C35.2266 39.8907 34.7499 39.9044 34.285 39.9044C33.6112 39.9044 33.107 39.8954 32.7839 39.8771L31.8029 39.8502C31.602 39.8502 31.3932 39.8635 31.1687 39.8908L31.1805 40.5555L31.1568 42.437C31.1568 42.9162 31.2081 43.3459 31.3066 43.7258C31.7833 43.8569 32.1457 43.9429 32.3939 43.9745C32.516 43.9928 32.6342 44.0196 32.7406 44.0559L32.7642 44.8701L31.3932 44.7977C30.9599 44.7751 30.5501 44.7615 30.1562 44.7615L28.4739 44.8203L27.0437 44.8701L27.0556 44.0559C27.162 44.0196 27.2802 43.9928 27.4102 43.9745C27.8317 43.9157 28.1902 43.8297 28.4896 43.7258C28.596 43.1334 28.6512 42.0478 28.6512 40.4742L28.6039 36.766C28.5922 35.6759 28.5487 35.088 28.4818 34.9931C28.4109 34.9026 28.2218 34.8574 27.9105 34.8574C27.7332 34.8483 27.4614 34.8212 27.099 34.776L26.9492 33.8534C27.9696 33.9258 28.7063 33.9619 29.1594 33.9619L29.7582 33.9484L30.6802 33.9619C31.7202 33.9619 32.4451 33.9258 32.8588 33.8534L32.717 34.776C32.2284 34.8393 31.9448 34.8709 31.87 34.8709C31.5035 34.8755 31.2987 34.9433 31.2554 35.0609C31.212 35.1785 31.1884 35.6533 31.1805 36.4718C31.1726 37.5258 31.1528 38.3214 31.1214 38.8597Z" fill="#E9EEF3"/>
<path d="M45.0448 38.4798L46.3332 38.4393L46.7587 38.412C48.6772 38.412 49.9617 38.6787 50.6078 39.208C51.2577 39.737 51.5809 40.4606 51.5809 41.383C51.5809 42.4868 51.1907 43.3233 50.4106 43.8978C49.6308 44.4719 48.5393 44.7615 47.1328 44.7615L45.5888 44.7343L40.9436 44.897L40.9674 44.1103L41.7198 43.9792C42.0114 43.934 42.2396 43.8748 42.4013 43.8028C42.5157 43.5631 42.5748 42.3736 42.5748 40.2254L42.5392 37.9688L42.5039 36.3994C42.5039 35.6081 42.4841 35.1559 42.4409 35.0337C42.4013 34.9162 42.2004 34.8529 41.8379 34.8438L40.9987 34.7488L40.8965 34.0252L42.3026 34.0117L42.7282 33.9891C43.0673 33.971 43.5321 33.9619 44.1228 33.9619L45.439 33.9348L46.2821 33.9484C46.4279 33.9484 46.672 33.9167 47.0186 33.8534L46.8807 34.7488C46.3724 34.8122 46.0654 34.8393 45.9548 34.8393C45.502 34.8393 45.2341 34.9026 45.1474 35.0202C45.0645 35.1378 45.0213 35.4452 45.0213 35.9381L45.0329 37.1954V37.8963C45.0329 38.0727 45.0369 38.2673 45.0448 38.4798ZM45.1038 43.5856C45.372 43.6806 45.7738 43.7304 46.3055 43.7304C48.0428 43.7304 48.9097 43.0158 48.9097 41.5866C48.9097 40.9716 48.693 40.4606 48.2556 40.0671C47.8222 39.6693 47.1684 39.4704 46.2936 39.4704C45.9354 39.4704 45.5293 39.5066 45.0804 39.5743C45.0725 39.6829 45.0685 39.7416 45.0685 39.7596L45.0804 40.5827C45.0408 41.4827 45.0213 42.36 45.0213 43.2147C45.0213 43.328 45.0488 43.4545 45.1038 43.5856ZM51.9431 34.7488L51.7937 33.8534C52.81 33.9258 53.547 33.9619 54.0116 33.9619L54.6105 33.9484L55.5321 33.9619C56.5721 33.9619 57.3054 33.9258 57.7268 33.8534L57.5769 34.7488L56.738 34.8438C56.3833 34.8438 56.1865 34.9026 56.147 35.0202C56.1038 35.1423 56.0761 35.5946 56.0718 36.3861L56.0366 37.9688L56.0009 40.2119C56.0009 42.36 56.0606 43.5494 56.1748 43.7892C56.6313 43.9157 56.994 43.9928 57.2617 44.029C57.3764 44.0469 57.4985 44.0741 57.6201 44.1103L57.6324 44.8701L56.8324 44.8339C56.0089 44.7841 55.4025 44.7615 55.0158 44.7615L51.888 44.8701L51.8999 44.1103C52.018 44.0741 52.1364 44.0469 52.2624 44.029C52.7193 43.9609 53.0818 43.8795 53.3534 43.7892C53.4324 43.328 53.4718 42.2288 53.4718 40.4921V38.7242L53.4836 37.2498C53.4836 36.0331 53.4681 35.3277 53.4361 35.1287C53.4052 34.9297 53.1844 34.8257 52.7747 34.8167C52.6249 34.8167 52.3492 34.794 51.9431 34.7488Z" fill="#E9EEF3"/>
<path d="M66.2207 34.7489L66.0671 33.8535C67.0837 33.9349 67.8202 33.9755 68.2853 33.9755L68.8842 33.962L69.8063 33.9755C70.8463 33.9755 71.5786 33.9349 72.0005 33.8535L71.8506 34.7489L71.0117 34.8439C70.6415 34.8439 70.4399 34.9117 70.409 35.0474C70.3733 35.183 70.3498 35.9156 70.3338 37.2409L70.3103 38.1182L70.2746 39.217C70.2746 42.0615 70.3338 43.581 70.4479 43.7666C70.905 43.8885 71.2677 43.9702 71.5354 44.0017C71.6495 44.0196 71.7717 44.0469 71.8943 44.0831L71.9055 44.8701L71.1061 44.8339C70.2869 44.7841 69.6837 44.7615 69.2901 44.7615L66.1621 44.8701L66.1733 44.0831C66.2917 44.0469 66.4101 44.0196 66.5359 44.0017C66.993 43.934 67.3594 43.8523 67.6314 43.7666C67.7215 43.2104 67.769 42.0976 67.769 40.429V39.4883L67.7215 38.0458C67.7215 37.9146 67.7375 37.6749 67.769 37.3312C65.3935 40.3294 63.8767 42.1385 63.2266 42.7535C63.2581 43.1832 63.3173 43.5222 63.3999 43.7666C63.857 43.8885 64.2197 43.9702 64.4917 44.0064C64.6058 44.0196 64.7237 44.0469 64.8383 44.0831L64.8618 44.8701L64.0661 44.8339C63.2426 44.7841 62.6394 44.7615 62.2538 44.7615L59.1413 44.8701L59.153 44.0831C59.2671 44.0469 59.3898 44.0196 59.5114 44.0017C59.9567 43.934 60.3189 43.8523 60.5989 43.7666C60.6895 43.2058 60.7365 42.6223 60.7365 42.0163L60.7253 39.8954V37.9551L60.713 37.2409L60.7013 36.3815C60.6933 35.5946 60.6655 35.1378 60.6223 35.0157C60.5754 34.8891 60.3743 34.8258 60.0122 34.8168C59.8661 34.8168 59.5946 34.7941 59.1962 34.7489L59.0469 33.8535C60.0591 33.9258 60.7962 33.962 61.257 33.962L61.8554 33.9484L62.7775 33.962C63.8175 33.962 64.5423 33.9258 64.9562 33.8535L64.8186 34.7489L63.9711 34.8439C63.593 34.8439 63.3882 34.9117 63.353 35.0474C63.3173 35.183 63.2975 35.9203 63.2895 37.2452L63.2543 38.0548L63.2186 39.0134L63.2309 41.5504L65.3386 38.9278C65.9493 38.1271 66.465 37.485 66.8826 37.0054C67.2965 36.5306 67.5759 36.1779 67.7215 35.9475C67.7375 35.7031 67.7455 35.5358 67.7455 35.4544C67.7455 35.0564 67.5167 34.8439 67.0602 34.8168C66.8234 34.8077 66.5439 34.7851 66.2207 34.7489ZM61.7178 29.3175C61.7178 28.9466 61.8319 28.6346 62.0602 28.3768C62.2853 28.1191 62.5647 27.9924 62.8959 27.9924C63.1754 27.9924 63.4037 28.0783 63.5893 28.2457C63.7743 28.413 64.0186 28.8064 64.3178 29.4351C64.7274 30.2808 65.177 30.7058 65.6693 30.7058C66.1658 30.7058 66.6106 30.2808 67.0127 29.4351C67.273 28.8879 67.5013 28.5125 67.6986 28.3045C67.8954 28.0965 68.1471 27.9924 68.4549 27.9924C68.7738 27.9924 69.0415 28.1236 69.2581 28.3814C69.4789 28.6436 69.5893 28.9557 69.5893 29.3175C69.5893 30.0366 69.2069 30.5793 68.4469 30.9546C67.6826 31.33 66.7685 31.5199 65.7045 31.5199C64.4639 31.5199 63.4906 31.3209 62.7813 30.9184C62.0725 30.5159 61.7178 29.9823 61.7178 29.3175Z" fill="#E9EEF3"/>
<path d="M18.8285 52.6849C18.6903 52.6914 18.5859 52.7208 18.5163 52.7749C18.4467 52.8276 18.3269 52.9799 18.1558 53.2315L17.8804 53.6327C17.7799 53.7743 17.7151 53.8679 17.687 53.9154C17.4851 53.8989 17.3402 53.8903 17.2512 53.8903C17.142 53.8903 17.0415 53.8946 16.9487 53.9042L16.8105 53.9154C16.8066 53.8839 16.8047 53.8598 16.8047 53.8438L16.8105 53.7444C16.9603 53.6957 17.0637 53.6503 17.1227 53.6081C17.1816 53.5648 17.2754 53.4504 17.4039 53.2645C17.6475 52.9057 17.8234 52.6764 17.9316 52.5771C18.0398 52.4768 18.1432 52.4112 18.2438 52.3771C18.1984 52.3298 18.1278 52.2388 18.0312 52.1044C17.8349 51.8316 17.6822 51.6951 17.572 51.6951C17.5286 51.6951 17.4831 51.727 17.4339 51.7894C17.3575 51.8875 17.2754 51.9363 17.1874 51.9363C17.1004 51.9363 17.0318 51.9076 16.9825 51.8496C16.9333 51.7926 16.9091 51.7238 16.9091 51.6435C16.9091 51.5407 16.9458 51.451 17.0183 51.3758C17.0908 51.3009 17.1941 51.2636 17.3285 51.2636C17.6088 51.2636 17.8949 51.4848 18.1877 51.9277C18.326 52.1363 18.4332 52.2767 18.5105 52.3499C18.5878 52.4215 18.6942 52.4768 18.8285 52.5136L18.8314 51.932C18.8314 51.7861 18.8246 51.6973 18.8101 51.6647C18.7966 51.6317 18.7474 51.6138 18.6623 51.6116C18.6188 51.6116 18.5531 51.6062 18.4642 51.5937L18.4284 51.378C18.6787 51.3948 18.8595 51.4034 18.9706 51.4034L19.1175 51.4001L19.3436 51.4034C19.5988 51.4034 19.7766 51.3948 19.8781 51.378L19.8443 51.5937L19.6384 51.6181C19.565 51.6181 19.5195 51.6274 19.5041 51.6456C19.4876 51.6647 19.4761 51.7173 19.4683 51.8062C19.4683 51.822 19.4664 51.8539 19.4626 51.9015C19.45 52.0589 19.4432 52.1646 19.4432 52.2187V52.5136C19.5843 52.4703 19.6925 52.4144 19.7679 52.3467C19.8433 52.2778 19.9515 52.1381 20.0907 51.9277C20.3826 51.4848 20.6668 51.2636 20.9441 51.2636C21.0785 51.2636 21.1809 51.3009 21.2534 51.3758C21.3259 51.451 21.3626 51.5407 21.3626 51.6435C21.3626 51.7195 21.3384 51.7872 21.2902 51.8463C21.2428 51.9066 21.1761 51.9363 21.091 51.9363C20.9992 51.9363 20.9151 51.8875 20.8398 51.7894C20.7905 51.727 20.7451 51.6951 20.7044 51.6951C20.6416 51.6951 20.5788 51.7227 20.515 51.7786C20.4503 51.8349 20.3613 51.9428 20.2463 52.1044C20.1507 52.2388 20.0791 52.3298 20.0318 52.3771C20.1546 52.4226 20.2666 52.4968 20.3691 52.6004C20.4706 52.7029 20.6387 52.924 20.8726 53.2645C21.0012 53.4526 21.093 53.568 21.15 53.6092C21.207 53.6514 21.3114 53.6957 21.464 53.7444L21.467 53.8438C21.467 53.8598 21.466 53.8839 21.464 53.9154C21.4419 53.9154 21.3955 53.9111 21.3268 53.9042C21.2331 53.8946 21.1326 53.8903 21.0263 53.8903C20.9064 53.8903 20.7614 53.8989 20.5914 53.9154C20.5623 53.8679 20.4976 53.7743 20.3971 53.6337L20.1197 53.2315C19.9496 52.981 19.8288 52.8276 19.7554 52.7706C19.6829 52.7136 19.5746 52.6849 19.4316 52.6849V53.3985L19.4346 53.5012L19.4374 53.6166C19.4847 53.6599 19.5737 53.6893 19.7061 53.7064C19.7322 53.7107 19.7554 53.715 19.7737 53.7187V53.7984L19.7766 53.8556C19.7766 53.8662 19.7747 53.8828 19.7708 53.9063L19.7515 53.9154L19.4548 53.8989C19.3184 53.885 19.1919 53.8775 19.073 53.8775C19.0053 53.8775 18.874 53.8882 18.6797 53.9085C18.6275 53.9085 18.5859 53.9106 18.5559 53.9122C18.5144 53.9143 18.4757 53.9154 18.44 53.9154C18.4323 53.8828 18.4284 53.8491 18.4284 53.8165C18.4284 53.7952 18.4293 53.7663 18.4313 53.7316C18.4632 53.7129 18.498 53.7011 18.5357 53.6947C18.5714 53.6883 18.5946 53.6829 18.6062 53.6786L18.7125 53.6696C18.7502 53.6653 18.7782 53.6578 18.7947 53.6482C18.815 53.6188 18.8266 53.3978 18.8285 52.9831V52.6849ZM23.2685 51.5811L23.2308 51.3715C23.4802 51.3908 23.6609 51.4001 23.7749 51.4001L23.9219 51.3969L24.148 51.4001C24.4032 51.4001 24.5829 51.3908 24.6863 51.3715L24.6496 51.5811L24.4438 51.6034C24.3529 51.6034 24.3036 51.6191 24.2959 51.6507C24.2871 51.6826 24.2814 51.8539 24.2775 52.1635L24.2717 52.3689L24.263 52.6258C24.263 53.291 24.2775 53.646 24.3055 53.6893C24.4177 53.7182 24.5066 53.7369 24.5723 53.7444C24.6004 53.7487 24.6303 53.7551 24.6603 53.7631L24.6632 53.9475L24.4669 53.9389C24.2659 53.9277 24.1181 53.9218 24.0214 53.9218L23.254 53.9475L23.257 53.7631C23.286 53.7551 23.3149 53.7487 23.3459 53.7444C23.4579 53.7284 23.5478 53.7096 23.6145 53.6893C23.6367 53.5595 23.6484 53.2992 23.6484 52.9089V52.6893L23.6367 52.3517C23.6367 52.3212 23.6406 52.2653 23.6484 52.1847C23.0655 52.8856 22.6935 53.3089 22.534 53.4526C22.5417 53.553 22.5563 53.6327 22.5765 53.6893C22.6886 53.7182 22.7776 53.7369 22.8442 53.7455C22.8723 53.7487 22.9013 53.7551 22.9293 53.7631L22.9351 53.9475L22.7398 53.9389C22.5379 53.9277 22.39 53.9218 22.2953 53.9218L21.5317 53.9475L21.5347 53.7631C21.5627 53.7551 21.5926 53.7487 21.6226 53.7444C21.7318 53.7284 21.8207 53.7096 21.8894 53.6893C21.9116 53.5584 21.9232 53.4218 21.9232 53.2802L21.9203 52.7842V52.3305L21.9174 52.1635L21.9144 51.9628C21.9126 51.7786 21.9058 51.6718 21.8952 51.6435C21.8836 51.6138 21.8342 51.5991 21.7454 51.5969C21.7096 51.5969 21.6429 51.5915 21.5453 51.5811L21.5085 51.3715C21.757 51.3887 21.9377 51.3969 22.0508 51.3969L22.1977 51.3937L22.4238 51.3969C22.679 51.3969 22.8568 51.3887 22.9583 51.3715L22.9245 51.5811L22.7166 51.6034C22.6238 51.6034 22.5736 51.6191 22.5649 51.6507C22.5563 51.6826 22.5514 51.8549 22.5494 52.1646L22.5407 52.3538L22.532 52.5781L22.535 53.1713L23.052 52.5581C23.2019 52.371 23.3284 52.2208 23.4309 52.1087C23.5324 51.9976 23.601 51.9152 23.6367 51.861C23.6406 51.8041 23.6425 51.765 23.6425 51.746C23.6425 51.6528 23.5865 51.6034 23.4744 51.5969C23.4164 51.5948 23.3478 51.5894 23.2685 51.5811ZM27.4708 53.9347H27.406L27.0214 53.9245L26.8184 53.9218L26.6096 53.9186L26.4628 53.9288L26.1718 53.9347C26.1603 53.8978 26.1544 53.8673 26.1544 53.8438C26.1544 53.8197 26.1592 53.7818 26.1689 53.7316L26.2907 53.7096C26.425 53.6893 26.4918 53.6557 26.4918 53.6102C26.4918 53.575 26.4821 53.5349 26.4637 53.4894C26.4483 53.4526 26.4212 53.3774 26.3835 53.2655C26.3467 53.1544 26.2733 52.9684 26.1631 52.7093L26.0887 52.5136C26.0317 52.3581 25.9727 52.2176 25.9138 52.0918C25.8896 52.1531 25.8519 52.2671 25.8007 52.4334C25.7591 52.5717 25.6925 52.7717 25.6006 53.0329C25.4875 53.3584 25.4276 53.5739 25.4199 53.6818C25.4692 53.6925 25.534 53.6979 25.6132 53.7L25.6557 53.7064C25.6867 53.7086 25.7244 53.7096 25.7698 53.7096L25.8123 53.7187C25.8162 53.7529 25.8181 53.7866 25.8181 53.823C25.8181 53.8807 25.8104 53.9176 25.7949 53.9347L25.7446 53.9411C25.7157 53.9453 25.7002 53.9475 25.6963 53.9475L25.4518 53.9411L25.3097 53.9443C25.2247 53.9299 25.1367 53.9218 25.0459 53.9218L24.9299 53.9288L24.8072 53.9379L24.7395 53.9347C24.7357 53.8978 24.7337 53.8679 24.7337 53.8459C24.7337 53.824 24.7357 53.7941 24.7395 53.7572C24.9309 53.7086 25.0633 53.6621 25.1367 53.6199C25.1705 53.5541 25.2218 53.4207 25.2885 53.2222C25.417 52.8427 25.5871 52.3814 25.7998 51.8421C25.8606 51.6908 25.9051 51.5736 25.9331 51.4912C25.9563 51.4245 25.9814 51.36 26.0104 51.2955H26.2375C26.4724 51.894 26.6734 52.3803 26.8378 52.7538L27.1142 53.4336L27.203 53.6418C27.205 53.6482 27.2494 53.6631 27.3384 53.6872C27.4157 53.7075 27.4621 53.7284 27.4766 53.7508C27.4805 53.7743 27.4824 53.8016 27.4824 53.8352C27.4824 53.8807 27.4785 53.9133 27.4708 53.9347ZM29.8908 51.6446C30.0126 51.7725 30.1025 51.9194 30.1624 52.0854C30.2214 52.2513 30.2513 52.4079 30.2513 52.5549C30.2513 52.8319 30.2126 53.0541 30.1354 53.2233C30.0174 53.4793 29.8599 53.6685 29.6618 53.7898C29.4627 53.9111 29.2317 53.9731 28.9698 53.9731C28.674 53.9731 28.4247 53.901 28.2189 53.7561C28.0139 53.6108 27.867 53.4472 27.779 53.2634C27.6911 53.0802 27.6477 52.852 27.6477 52.5792C27.6477 52.4416 27.6689 52.3022 27.7104 52.1635C27.752 52.0241 27.8091 51.9022 27.8815 51.7998C27.954 51.6962 28.0342 51.6094 28.1212 51.5396C28.2478 51.4403 28.3754 51.3694 28.503 51.327C28.6305 51.2847 28.7852 51.2636 28.9669 51.2636C29.3622 51.2636 29.6695 51.3908 29.8908 51.6446ZM28.3435 52.7176C28.3599 52.9745 28.3725 53.1214 28.3803 53.162C28.4044 53.3003 28.443 53.4189 28.4952 53.5183C28.531 53.5824 28.59 53.6396 28.6722 53.6893C28.7552 53.7396 28.8538 53.7631 28.9678 53.7631C29.1051 53.7631 29.2201 53.7161 29.3139 53.6199C29.4076 53.5236 29.4752 53.3723 29.5158 53.167C29.5419 53.0329 29.5555 52.8129 29.5555 52.5061C29.5555 52.1298 29.4994 51.8632 29.3863 51.708C29.2742 51.5514 29.1263 51.4733 28.9428 51.4733C28.7977 51.4733 28.6789 51.5177 28.5842 51.6062C28.4894 51.6951 28.4228 51.8274 28.386 52.0008C28.3609 52.113 28.3474 52.3517 28.3435 52.7176ZM32.307 51.5811L32.2694 51.3715C32.5187 51.3908 32.6994 51.4001 32.8135 51.4001L32.9604 51.3969L33.1865 51.4001C33.4417 51.4001 33.6214 51.3908 33.7248 51.3715L33.6882 51.5811L33.4822 51.6034C33.3915 51.6034 33.3422 51.6191 33.3344 51.6507C33.3257 51.6826 33.3199 51.8539 33.316 52.1635L33.3103 52.3689L33.3015 52.6258C33.3015 53.291 33.316 53.646 33.344 53.6893C33.4562 53.7182 33.5451 53.7369 33.6108 53.7444C33.6388 53.7487 33.6688 53.7551 33.6988 53.7631L33.7017 53.9475L33.5054 53.9389C33.3044 53.9277 33.1566 53.9218 33.0599 53.9218L32.2925 53.9475L32.2955 53.7631C32.3244 53.7551 32.3534 53.7487 32.3844 53.7444C32.4965 53.7284 32.5864 53.7096 32.653 53.6893C32.6752 53.5595 32.6869 53.2992 32.6869 52.9089V52.6893L32.6752 52.3517C32.6752 52.3212 32.6791 52.2653 32.6869 52.1847C32.104 52.8856 31.732 53.3089 31.5725 53.4526C31.5802 53.553 31.5948 53.6327 31.6151 53.6893C31.7271 53.7182 31.8161 53.7369 31.8827 53.7455C31.9108 53.7487 31.9398 53.7551 31.9678 53.7631L31.9736 53.9475L31.7783 53.9389C31.5764 53.9277 31.4285 53.9218 31.3338 53.9218L30.5703 53.9475L30.5732 53.7631C30.6012 53.7551 30.6311 53.7487 30.6611 53.7444C30.7703 53.7284 30.8593 53.7096 30.9279 53.6893C30.9501 53.5584 30.9617 53.4218 30.9617 53.2802L30.9588 52.7842V52.3305L30.9559 52.1635L30.953 51.9628C30.9511 51.7786 30.9443 51.6718 30.9337 51.6435C30.9221 51.6138 30.8728 51.5991 30.7839 51.5969C30.7481 51.5969 30.6814 51.5915 30.5838 51.5811L30.547 51.3715C30.7955 51.3887 30.9762 51.3969 31.0893 51.3969L31.2362 51.3937L31.4623 51.3969C31.7175 51.3969 31.8953 51.3887 31.9968 51.3715L31.963 51.5811L31.7551 51.6034C31.6624 51.6034 31.6121 51.6191 31.6035 51.6507C31.5948 51.6826 31.5899 51.8549 31.5879 52.1646L31.5793 52.3538L31.5706 52.5781L31.5735 53.1713L32.0906 52.5581C32.2404 52.371 32.3669 52.2208 32.4694 52.1087C32.5709 51.9976 32.6395 51.9152 32.6752 51.861C32.6791 51.8041 32.681 51.765 32.681 51.746C32.681 51.6528 32.625 51.6034 32.5128 51.5969C32.4549 51.5948 32.3863 51.5894 32.307 51.5811ZM31.2023 50.311C31.2023 50.2243 31.2304 50.1515 31.2864 50.091C31.3415 50.0308 31.4101 50.0014 31.4914 50.0014C31.5599 50.0014 31.616 50.0214 31.6614 50.0605C31.7069 50.0996 31.7668 50.1917 31.8402 50.3387C31.9407 50.5361 32.0509 50.6357 32.1717 50.6357C32.2935 50.6357 32.4027 50.5361 32.5013 50.3387C32.5651 50.2107 32.6211 50.1229 32.6695 50.0741C32.7178 50.0254 32.7797 50.0014 32.855 50.0014C32.9333 50.0014 32.999 50.0319 33.0522 50.092C33.1063 50.1534 33.1334 50.2265 33.1334 50.311C33.1334 50.4791 33.0396 50.606 32.8531 50.6938C32.6656 50.7816 32.4414 50.8261 32.1804 50.8261C31.876 50.8261 31.6373 50.7794 31.4633 50.6855C31.2893 50.5913 31.2023 50.4666 31.2023 50.311ZM36.7933 51.3715L36.7594 51.5872L36.5539 51.6116C36.4804 51.6116 36.4351 51.6213 36.4174 51.6403C36.4012 51.6582 36.3893 51.712 36.3836 51.7998C36.3836 51.8252 36.3818 51.8603 36.3778 51.9055C36.3652 52.0757 36.3584 52.1825 36.3584 52.223V52.5136C36.5006 52.4703 36.6096 52.4144 36.6853 52.3467C36.7616 52.2778 36.8688 52.1381 37.01 51.9277C37.3027 51.4848 37.59 51.2636 37.8682 51.2636C38.0054 51.2636 38.1098 51.3009 38.1814 51.3747C38.2538 51.4489 38.2894 51.5388 38.2894 51.6435C38.2894 51.7195 38.2653 51.7872 38.2171 51.8463C38.1688 51.9066 38.1022 51.9363 38.0162 51.9363C37.9233 51.9363 37.8391 51.8875 37.7628 51.7894C37.7134 51.727 37.668 51.6951 37.6267 51.6951C37.5637 51.6951 37.4999 51.7227 37.4351 51.7786C37.3714 51.8338 37.2814 51.9428 37.1666 52.1044C37.0708 52.2399 36.9992 52.3305 36.9527 52.3782C37.0525 52.4112 37.1558 52.4768 37.2631 52.576C37.3703 52.6753 37.5475 52.905 37.7937 53.2645C37.9212 53.4504 38.0133 53.5648 38.0712 53.6081C38.1292 53.6503 38.2343 53.6957 38.388 53.7444L38.3909 53.8438C38.3909 53.8598 38.3902 53.8839 38.388 53.9154C38.3661 53.9154 38.3197 53.9111 38.2498 53.9042C38.1551 53.8946 38.0547 53.8903 37.9474 53.8903C37.8276 53.8903 37.6818 53.8989 37.5096 53.9154C37.4816 53.8679 37.4168 53.7743 37.3152 53.6327L37.0381 53.2304C36.8678 52.9799 36.7472 52.8255 36.6738 52.7695C36.6003 52.7136 36.4919 52.6849 36.3469 52.6849V53.3978L36.3498 53.5012L36.3526 53.6166C36.4002 53.6599 36.4891 53.6893 36.6215 53.7064C36.6475 53.7107 36.6709 53.715 36.6892 53.7187V53.7984L36.6921 53.8556C36.6921 53.8662 36.69 53.8828 36.686 53.9063L36.6669 53.9154L36.371 53.8989C36.2356 53.885 36.1093 53.8775 35.9912 53.8775C35.9237 53.8775 35.7932 53.8882 35.5998 53.9085C35.5477 53.9085 35.5061 53.9106 35.4762 53.9122C35.4346 53.9143 35.3968 53.9154 35.3611 53.9154C35.3534 53.8828 35.3495 53.8491 35.3495 53.8165C35.3495 53.7952 35.3505 53.7663 35.3524 53.7316C35.3843 53.7129 35.4191 53.7011 35.4578 53.6947C35.4935 53.6883 35.5167 53.6829 35.5283 53.6786L35.6366 53.6696C35.6742 53.6653 35.7013 53.6589 35.7187 53.6482C35.739 53.6295 35.7507 53.3236 35.7525 52.7305L35.7554 52.6287L35.7583 52.3033L35.7613 51.9341C35.7613 51.7861 35.7545 51.6941 35.741 51.6603C35.7284 51.6263 35.6772 51.6084 35.5883 51.6062C35.5447 51.6062 35.4771 51.6001 35.3863 51.5872L35.3495 51.3715C35.5989 51.3887 35.7796 51.3969 35.8898 51.3969L36.0365 51.3937L36.2619 51.3969C36.515 51.3969 36.6921 51.3887 36.7933 51.3715ZM38.4482 53.9347L38.454 53.7508C38.4712 53.7444 38.532 53.7337 38.6386 53.7198C38.7099 53.7075 38.7661 53.6925 38.8056 53.6765C38.8338 53.6209 38.8482 53.3437 38.8482 52.8444L38.8395 52.3223L38.8309 51.9553C38.8309 51.7715 38.8258 51.6657 38.8154 51.6381C38.8056 51.6105 38.7564 51.5958 38.6674 51.5958L38.4615 51.5747L38.4363 51.3969L38.7815 51.3948L39.8698 51.3715C40.2842 51.3715 40.5607 51.4403 40.6989 51.5779C40.8372 51.7141 40.9066 51.8603 40.9066 52.0144C40.9066 52.2355 40.7356 52.4068 40.3947 52.5283C40.836 52.614 41.0575 52.8222 41.0575 53.1523C41.0575 53.3902 40.9588 53.575 40.7626 53.7064C40.5668 53.8374 40.3058 53.9031 39.9789 53.9031L39.5887 53.9095L38.4482 53.9347ZM39.454 52.4438C39.5055 52.4524 39.5721 52.4567 39.6552 52.4567C40.0718 52.4567 40.2806 52.3076 40.2806 52.0083C40.2806 51.9173 40.2359 51.8263 40.1463 51.7363C40.0563 51.6456 39.9008 51.6001 39.6776 51.6001C39.6135 51.6001 39.5336 51.6062 39.4367 51.6191C39.4367 51.6435 39.4386 51.6868 39.4425 51.7481C39.4483 51.8603 39.4511 51.989 39.4511 52.1381V52.3087C39.4511 52.3517 39.4522 52.3961 39.454 52.4438ZM39.4688 53.6343C39.5343 53.6567 39.634 53.6685 39.7654 53.6685C40.1935 53.6685 40.4081 53.5033 40.4081 53.1735C40.4081 52.852 40.1539 52.6914 39.6466 52.6914C39.5451 52.6914 39.4843 52.6975 39.463 52.7093C39.4608 52.7337 39.4598 52.7484 39.4598 52.7527L39.463 52.9419C39.4533 53.1491 39.4483 53.3523 39.4483 53.5488C39.4483 53.575 39.4551 53.6038 39.4688 53.6343ZM43.8892 53.3171L43.954 53.3637C43.9717 53.3784 43.981 53.3967 43.985 53.4168L43.9879 53.4325C43.9425 53.6166 43.8835 53.7422 43.81 53.8123C43.7366 53.8807 43.6448 53.9154 43.5357 53.9154C43.4245 53.9154 43.3287 53.8817 43.2484 53.8155C43.1692 53.7476 43.0958 53.6295 43.0303 53.46C42.9489 53.6177 42.8341 53.7358 42.6861 53.8155C42.5381 53.8946 42.3574 53.9347 42.1439 53.9347C41.9467 53.9347 41.8016 53.8903 41.7091 53.8005C41.6162 53.7107 41.5698 53.5921 41.5698 53.4451C41.5698 53.3774 41.5834 53.3089 41.6115 53.238C41.6385 53.1681 41.6828 53.0985 41.7447 53.0297C41.8055 52.9598 41.9053 52.8839 42.0413 52.8011C42.0619 52.7896 42.1342 52.7538 42.257 52.6964L42.9644 52.3868C42.9701 52.3087 42.973 52.2291 42.973 52.1488C42.973 51.8696 42.9421 51.6794 42.8794 51.579C42.8416 51.5166 42.775 51.4858 42.6804 51.4858C42.5856 51.4858 42.4986 51.5059 42.4194 51.5449C42.3402 51.584 42.2822 51.6338 42.2455 51.6962C42.2192 51.7417 42.1972 51.8274 42.1778 51.9531C42.1641 52.0442 42.1515 52.0961 42.1411 52.1108C42.1119 52.1499 42.0608 52.1857 41.9863 52.2176C41.911 52.2492 41.8606 52.2725 41.8336 52.2875C41.7314 52.3413 41.65 52.3678 41.5892 52.3678C41.5651 52.3434 41.5525 52.3076 41.5525 52.2631C41.5525 52.1456 41.5748 52.0442 41.6202 51.9596C41.6885 51.8399 41.7911 51.7248 41.9283 51.6116C42.0647 51.4995 42.1933 51.4213 42.312 51.3758C42.4744 51.3177 42.6735 51.2891 42.9075 51.2891C43.0583 51.2891 43.1887 51.3199 43.297 51.3801C43.4061 51.4414 43.4817 51.5313 43.5242 51.6507C43.5667 51.7704 43.5879 51.9861 43.5879 52.2968L43.5821 52.8075L43.5879 53.1821V53.2781C43.5879 53.3637 43.5983 53.4228 43.6196 53.4558C43.6409 53.4873 43.6682 53.5033 43.702 53.5033C43.7222 53.5033 43.7395 53.4969 43.7542 53.4841L43.8392 53.3394L43.8892 53.3171ZM42.9615 52.6004C42.8532 52.6394 42.7315 52.705 42.5954 52.7971C42.4589 52.8889 42.3643 52.981 42.311 53.0741C42.2735 53.1415 42.2541 53.2254 42.2541 53.3236C42.2541 53.4125 42.2793 53.4862 42.3286 53.5434C42.378 53.6017 42.4348 53.6305 42.4996 53.6305C42.6058 53.6305 42.6965 53.5974 42.77 53.5306C42.8715 53.4429 42.9306 53.3723 42.9471 53.3193C42.9644 53.2666 42.973 53.1175 42.973 52.8721C42.973 52.7821 42.9691 52.6914 42.9615 52.6004ZM44.04 55.4799V55.3361C44.0739 55.3136 44.098 55.2981 44.1135 55.2896L44.3302 55.2025C44.4199 55.1634 44.4714 55.1324 44.4818 55.1095C44.5117 55.048 44.5253 54.9379 44.5214 54.7818L44.5041 53.5498L44.4749 52.0188C44.4692 51.9066 44.4479 51.8274 44.4101 51.7797C44.3727 51.7331 44.2723 51.6836 44.1095 51.6317V51.4733C44.2942 51.4339 44.449 51.3854 44.5754 51.327C44.6676 51.2858 44.7928 51.2077 44.9505 51.0923L45.0956 51.0862L45.0984 51.1729L45.0956 51.5059C45.0956 51.5177 45.0963 51.5482 45.0984 51.598C45.2626 51.489 45.3969 51.417 45.5024 51.3822C45.6572 51.3324 45.8282 51.3081 46.0147 51.3081C46.2069 51.3081 46.3772 51.3622 46.5259 51.469C46.5374 51.4772 46.554 51.489 46.5741 51.5037C46.6688 51.5779 46.7375 51.6485 46.7811 51.7173C46.8747 51.8632 46.9424 52.0083 46.9842 52.151C47.0158 52.2588 47.0324 52.3921 47.0324 52.5538C47.0324 52.7685 47.0072 52.9501 46.956 53.0996C46.905 53.2476 46.8167 53.3978 46.6922 53.5477C46.5672 53.699 46.4341 53.8069 46.2922 53.87C46.149 53.9347 45.9992 53.9667 45.8426 53.9667C45.6882 53.9667 45.578 53.956 45.511 53.9347C45.3847 53.8956 45.259 53.8374 45.1352 53.7604C45.1323 53.793 45.1301 53.8155 45.1301 53.8278L45.1352 53.9111C45.1363 53.9336 45.1363 53.9625 45.1363 53.9951C45.1363 54.01 45.1352 54.0913 45.1334 54.2393L45.142 54.8032C45.142 54.8155 45.1399 54.8566 45.1363 54.9267V54.9614C45.1363 55.0378 45.141 55.0934 45.1507 55.1282C45.1593 55.1485 45.1759 55.172 45.2018 55.196C45.2202 55.2046 45.2385 55.2142 45.2558 55.2249C45.3138 55.2361 45.3663 55.249 45.4106 55.2618C45.4552 55.2735 45.5024 55.2837 45.5517 55.2928C45.5683 55.3158 45.5769 55.3452 45.5769 55.3836C45.5769 55.4056 45.5758 55.4392 45.574 55.4831H45.5229C45.4135 55.4831 45.3372 55.4809 45.2936 55.4766L44.8666 55.4382H44.7622L44.6625 55.435L44.5639 55.4451L44.4112 55.4542C44.3543 55.4563 44.2924 55.4617 44.2237 55.4697C44.156 55.4788 44.1067 55.4831 44.0768 55.4831L44.04 55.4799ZM45.1111 53.2601C45.1186 53.2856 45.1237 53.3035 45.1255 53.3161C45.1456 53.4114 45.173 53.4793 45.2047 53.5183C45.2626 53.5921 45.3303 53.6418 45.4059 53.6663C45.5189 53.7011 45.6183 53.7187 45.7036 53.7187C45.8019 53.7187 45.8976 53.6968 45.9906 53.6514C46.0842 53.606 46.1597 53.5445 46.2166 53.4686C46.2235 53.4579 46.235 53.4429 46.2504 53.425C46.2631 53.3913 46.2739 53.3669 46.2814 53.3501C46.3567 53.1892 46.3944 53.0179 46.3944 52.8362C46.3944 52.5018 46.3037 52.2198 46.122 51.9901C45.9953 51.8274 45.8167 51.746 45.5837 51.746C45.4455 51.746 45.2889 51.7851 45.1128 51.8632C45.1089 51.9438 45.1071 52.17 45.1071 52.5423L45.1128 53.1397C45.1128 53.1544 45.1118 53.1946 45.1111 53.2601ZM47.248 52.0241C47.2631 51.9933 47.279 51.9499 47.2934 51.8919L47.3279 51.7872C47.3676 51.6603 47.4093 51.5123 47.4507 51.3432L47.4799 51.2446H47.6073C47.617 51.2608 47.625 51.2733 47.6296 51.2819C47.6772 51.3675 47.707 51.4148 47.7204 51.4256C47.7398 51.4321 47.8366 51.4349 48.0123 51.4349L48.5998 51.4256L48.8234 51.4288H49.4797C49.4854 51.4288 49.5067 51.4267 49.5423 51.4224C49.578 51.4192 49.6021 51.4109 49.6157 51.3991C49.6294 51.3876 49.6449 51.3547 49.664 51.3009L49.6892 51.2479C49.727 51.2457 49.7821 51.2446 49.8545 51.2446L49.8573 51.7216L49.8602 51.9266C49.8602 52.0535 49.8562 52.1266 49.8487 52.1467C49.7868 52.1689 49.7338 52.1814 49.6892 52.1836C49.6593 52.1341 49.6175 52.0431 49.5664 51.9098C49.5211 51.7958 49.4861 51.7292 49.4631 51.7101C49.439 51.6919 49.3587 51.6826 49.2223 51.6826L49.0656 51.6858C49.0106 51.6858 48.9498 51.6826 48.8831 51.6761L48.8889 51.9341L48.8831 52.266L48.8716 52.8129C48.8716 53.3333 48.885 53.622 48.9112 53.6797C49.029 53.7107 49.1179 53.7305 49.1762 53.7385C49.2061 53.7422 49.2349 53.7487 49.2629 53.7572L49.2658 53.9475L48.9307 53.9309C48.8252 53.9256 48.7255 53.9218 48.6319 53.9218L48.2182 53.9357L47.8683 53.9475L47.8741 53.7572C47.8982 53.7487 47.9263 53.7422 47.9583 53.7385C48.0634 53.7241 48.1524 53.7043 48.2229 53.6797C48.2532 53.5183 48.2686 53.2992 48.2686 53.0243L48.2567 52.3528C48.2567 52.0198 48.2532 51.7987 48.2434 51.689C48.1584 51.6847 48.0915 51.6826 48.0432 51.6826C47.8762 51.6826 47.7696 51.6962 47.7243 51.7227C47.68 51.7492 47.6073 51.8316 47.5079 51.9689L47.4547 52.0399C47.419 52.0897 47.3927 52.1141 47.3755 52.1141C47.3405 52.1141 47.2981 52.0843 47.248 52.0241ZM52.4767 53.3171L52.5415 53.3637C52.5588 53.3784 52.5685 53.3967 52.572 53.4168L52.5749 53.4325C52.5296 53.6166 52.4706 53.7422 52.3971 53.8123C52.3237 53.8807 52.2319 53.9154 52.1228 53.9154C52.0116 53.9154 51.9158 53.8817 51.8359 53.8155C51.7567 53.7476 51.6829 53.6295 51.6173 53.46C51.536 53.6177 51.4212 53.7358 51.2732 53.8155C51.1252 53.8946 50.9445 53.9347 50.731 53.9347C50.5338 53.9347 50.389 53.8903 50.2962 53.8005C50.2033 53.7107 50.1568 53.5921 50.1568 53.4451C50.1568 53.3774 50.1705 53.3089 50.1986 53.238C50.2256 53.1681 50.2702 53.0985 50.3318 53.0297C50.393 52.9598 50.4924 52.8839 50.6284 52.8011C50.649 52.7896 50.7213 52.7538 50.844 52.6964L51.5515 52.3868C51.5576 52.3087 51.5605 52.2291 51.5605 52.1488C51.5605 51.8696 51.5295 51.6794 51.4665 51.579C51.4287 51.5166 51.3621 51.4858 51.2674 51.4858C51.1727 51.4858 51.0856 51.5059 51.0064 51.5449C50.9272 51.584 50.8693 51.6338 50.8325 51.6962C50.8066 51.7417 50.7843 51.8274 50.7649 51.9531C50.7516 52.0442 50.7389 52.0961 50.7282 52.1108C50.6994 52.1499 50.6479 52.1857 50.5737 52.2176C50.4981 52.2492 50.448 52.2725 50.4207 52.2875C50.3184 52.3413 50.2371 52.3678 50.1763 52.3678C50.1522 52.3434 50.1396 52.3076 50.1396 52.2631C50.1396 52.1456 50.1619 52.0442 50.2072 51.9596C50.276 51.8399 50.3782 51.7248 50.5154 51.6116C50.6518 51.4995 50.7804 51.4213 50.8991 51.3758C51.0615 51.3177 51.2606 51.2891 51.4946 51.2891C51.6454 51.2891 51.7757 51.3199 51.8841 51.3801C51.9932 51.4414 52.0688 51.5313 52.1112 51.6507C52.1538 51.7704 52.175 51.9861 52.175 52.2968L52.1692 52.8075L52.175 53.1821V53.2781C52.175 53.3637 52.1854 53.4228 52.207 53.4558C52.2283 53.4873 52.2552 53.5033 52.2891 53.5033C52.3093 53.5033 52.3269 53.4969 52.3413 53.4841L52.4263 53.3394L52.4767 53.3171ZM51.5486 52.6004C51.4406 52.6394 51.3186 52.705 51.1824 52.7971C51.046 52.8889 50.9514 52.981 50.8984 53.0741C50.8606 53.1415 50.8412 53.2254 50.8412 53.3236C50.8412 53.4125 50.8664 53.4862 50.9157 53.5434C50.965 53.6017 51.0219 53.6305 51.0867 53.6305C51.1929 53.6305 51.284 53.5974 51.3574 53.5306C51.4589 53.4429 51.5176 53.3723 51.5342 53.3193C51.5515 53.2666 51.5605 53.1175 51.5605 52.8721C51.5605 52.7821 51.5565 52.6914 51.5486 52.6004ZM55.3299 53.9347H55.2648L54.8803 53.9245L54.6776 53.9218L54.4685 53.9186L54.3219 53.9288L54.0307 53.9347C54.0189 53.8978 54.0131 53.8673 54.0131 53.8438C54.0131 53.8197 54.0184 53.7818 54.0275 53.7316L54.1496 53.7096C54.284 53.6893 54.3507 53.6557 54.3507 53.6102C54.3507 53.575 54.3405 53.5349 54.3224 53.4894C54.3069 53.4526 54.2797 53.3774 54.2419 53.2655C54.2056 53.1544 54.132 52.9684 54.0216 52.7093L53.9475 52.5136C53.8904 52.3581 53.8312 52.2176 53.7725 52.0918C53.7485 52.1531 53.7107 52.2671 53.6595 52.4334C53.6179 52.5717 53.5512 52.7717 53.4595 53.0329C53.3464 53.3584 53.2863 53.5739 53.2788 53.6818C53.328 53.6925 53.3928 53.6979 53.4723 53.7L53.5144 53.7064C53.5453 53.7086 53.5832 53.7096 53.6285 53.7096L53.6712 53.7187C53.6749 53.7529 53.6771 53.7866 53.6771 53.823C53.6771 53.8807 53.6696 53.9176 53.6541 53.9347L53.6035 53.9411C53.5741 53.9453 53.5587 53.9475 53.5555 53.9475L53.3108 53.9411L53.1686 53.9443C53.0836 53.9299 52.9954 53.9218 52.9047 53.9218L52.7888 53.9288L52.666 53.9379L52.5983 53.9347C52.5944 53.8978 52.5926 53.8679 52.5926 53.8459C52.5926 53.824 52.5944 53.7941 52.5983 53.7572C52.7895 53.7086 52.922 53.6621 52.9954 53.6199C53.0293 53.5541 53.0804 53.4207 53.1474 53.2222C53.2759 52.8427 53.4456 52.3814 53.6584 51.8421C53.7192 51.6908 53.764 51.5736 53.7917 51.4912C53.8152 51.4245 53.8403 51.36 53.8691 51.2955H54.0963C54.3315 51.894 54.5325 52.3803 54.6963 52.7538L54.9731 53.4336L55.0616 53.6418C55.0637 53.6482 55.1085 53.6631 55.1971 53.6872C55.2744 53.7075 55.3208 53.7284 55.3352 53.7508C55.3395 53.7743 55.3411 53.8016 55.3411 53.8352C55.3411 53.8807 55.3373 53.9133 55.3299 53.9347Z" fill="#E9EEF3"/>
<path d="M12.8258 60.2014L12.8314 60.0176C12.8482 60.0112 12.9073 60.0005 13.0105 59.9871C13.0799 59.9743 13.1343 59.9593 13.1728 59.9438C13.1999 59.8872 13.2141 59.6103 13.2141 59.1116L13.2056 58.5889L13.1972 58.2217C13.1972 58.0379 13.1925 57.9326 13.1821 57.9048C13.1728 57.877 13.125 57.8626 13.0386 57.8626L12.8389 57.8412L12.8145 57.6637L13.1493 57.6616L14.2055 57.6386C14.6079 57.6386 14.8763 57.7075 15.0103 57.8444C15.1445 57.9812 15.2121 58.1271 15.2121 58.2816C15.2121 58.5023 15.046 58.6734 14.7149 58.7952C15.1436 58.8807 15.3583 59.0892 15.3583 59.419C15.3583 59.6568 15.2628 59.8423 15.0723 59.9732C14.8819 60.1042 14.6286 60.1699 14.3115 60.1699L13.9326 60.1763L12.8258 60.2014ZM13.8022 58.7108C13.8519 58.7188 13.9167 58.7231 13.9973 58.7231C14.4017 58.7231 14.6043 58.5739 14.6043 58.2752C14.6043 58.1838 14.5611 58.0929 14.4739 58.0031C14.3866 57.9123 14.2356 57.8668 14.0189 57.8668C13.957 57.8668 13.8791 57.8732 13.7853 57.8855C13.7853 57.9101 13.7872 57.9534 13.791 58.0149C13.7966 58.1271 13.7994 58.2559 13.7994 58.4051V58.5756C13.7994 58.6188 13.8003 58.6632 13.8022 58.7108ZM13.8163 59.9011C13.8801 59.9235 13.9766 59.9347 14.1043 59.9347C14.5198 59.9347 14.728 59.7701 14.728 59.4398C14.728 59.1186 14.4813 58.9582 13.9889 58.9582C13.8903 58.9582 13.8313 58.9647 13.8107 58.9759C13.8088 59.0005 13.8078 59.0149 13.8078 59.0192L13.8107 59.2084C13.8013 59.4163 13.7966 59.6189 13.7966 59.8156C13.7966 59.8423 13.8031 59.8706 13.8163 59.9011ZM16.6407 58.7199L16.9474 58.7108L17.0487 58.7044C17.5055 58.7044 17.8114 58.7669 17.9652 58.8904C18.1199 59.0138 18.1969 59.1833 18.1969 59.3987C18.1969 59.6568 18.104 59.8524 17.9183 59.9871C17.7325 60.1213 17.4727 60.1886 17.1378 60.1886L16.7701 60.1827L15.6642 60.2207L15.6699 60.0363L15.849 60.0058C15.9184 59.9951 15.9728 59.9818 16.0113 59.9647C16.0385 59.9086 16.0526 59.6306 16.0526 59.1282L16.0441 58.6007L16.0357 58.2335C16.0357 58.0486 16.0309 57.9427 16.0206 57.9144C16.0113 57.8866 15.9634 57.8722 15.8771 57.87L15.6773 57.8476L15.6529 57.6787L15.9878 57.6755L16.0891 57.6701C16.1698 57.6659 16.2805 57.6637 16.4212 57.6637L16.7345 57.6573L16.9353 57.6605C16.9699 57.6605 17.0281 57.653 17.1106 57.6386L17.0778 57.8476C16.9568 57.8626 16.8836 57.869 16.8574 57.869C16.7495 57.869 16.6857 57.8834 16.6651 57.9112C16.6454 57.939 16.6351 58.0106 16.6351 58.126L16.6379 58.4195V58.5836C16.6379 58.6253 16.6388 58.6702 16.6407 58.7199ZM16.6548 59.9139C16.7186 59.9358 16.8142 59.9481 16.9408 59.9481C17.3545 59.9481 17.5609 59.7803 17.5609 59.4468C17.5609 59.303 17.5093 59.1833 17.4052 59.0913C17.302 58.9983 17.1463 58.9518 16.938 58.9518C16.8527 58.9518 16.7561 58.9604 16.6492 58.9759C16.6473 59.0015 16.6463 59.0149 16.6463 59.0192L16.6492 59.2116C16.6397 59.4222 16.6351 59.6274 16.6351 59.8273C16.6351 59.8535 16.6416 59.8834 16.6548 59.9139ZM18.2832 57.8476L18.2476 57.6386C18.4895 57.6552 18.6649 57.6637 18.7757 57.6637L18.9182 57.6605L19.1377 57.6637C19.3853 57.6637 19.5598 57.6552 19.6602 57.6386L19.6246 57.8476L19.4248 57.87C19.3403 57.87 19.2934 57.8834 19.2841 57.9112C19.2737 57.94 19.2672 58.0453 19.2662 58.2303L19.2578 58.6007L19.2493 59.125C19.2493 59.6274 19.2634 59.9053 19.2906 59.9615C19.3994 59.9914 19.4857 60.009 19.5495 60.0176C19.5767 60.0219 19.6058 60.0283 19.6349 60.0363L19.6377 60.2143L19.4473 60.2057C19.2513 60.194 19.1068 60.1886 19.0148 60.1886L18.27 60.2143L18.2729 60.0363C18.3011 60.0283 18.3291 60.0219 18.3592 60.0176C18.468 60.0016 18.5543 59.9828 18.619 59.9615C18.6378 59.8535 18.6471 59.5964 18.6471 59.1907V58.7771L18.65 58.4323C18.65 58.148 18.6462 57.9833 18.6387 57.9368C18.6311 57.8898 18.5787 57.8658 18.4811 57.8636C18.4455 57.8636 18.3798 57.8583 18.2832 57.8476ZM22.0991 59.3639C22.1281 59.3832 22.1498 59.3944 22.1647 59.4008C22.207 59.4211 22.2407 59.4478 22.266 59.4783C22.2173 59.6846 22.0972 59.8631 21.9068 60.0133C21.7164 60.1646 21.4753 60.2394 21.1845 60.2394C21.0016 60.2394 20.8196 60.1961 20.6404 60.1095C20.4613 60.0229 20.3187 59.9085 20.2117 59.7669C20.1302 59.6568 20.0683 59.5227 20.027 59.3639C19.9857 59.2052 19.965 59.0699 19.965 58.9593C19.965 58.8246 19.9904 58.6734 20.042 58.5034C20.0936 58.3329 20.1789 58.1725 20.2999 58.0224C20.421 57.8722 20.5729 57.7524 20.7577 57.6637C20.9415 57.575 21.1489 57.5306 21.3797 57.5306C21.6957 57.5306 21.9162 57.5868 22.041 57.6974C22.1657 57.8096 22.2276 57.9213 22.2276 58.0325C22.2276 58.1426 22.2023 58.2292 22.1525 58.2917C22.1019 58.3553 22.0325 58.3869 21.9452 58.3869C21.8702 58.3869 21.8008 58.3596 21.7379 58.3035C21.6751 58.2474 21.6226 58.1533 21.5803 58.0224C21.5475 57.9272 21.5053 57.8572 21.4537 57.8139C21.403 57.7728 21.3421 57.7524 21.2708 57.7524C21.0982 57.7524 20.9453 57.8353 20.8093 58.001C20.6742 58.1672 20.6067 58.3922 20.6067 58.6787C20.6067 59.0224 20.6892 59.2955 20.8553 59.4986C21.0203 59.7001 21.2079 59.8017 21.419 59.8017C21.5231 59.8017 21.6113 59.7883 21.6845 59.7616C21.7305 59.7434 21.7923 59.7033 21.8711 59.6413C21.8909 59.6253 21.9293 59.5809 21.9846 59.5088C22.041 59.4371 22.0785 59.3885 22.0991 59.3639ZM24.7697 57.9112C24.8878 58.0389 24.9751 58.1859 25.0333 58.3521C25.0905 58.5178 25.1196 58.6744 25.1196 58.8214C25.1196 59.0983 25.082 59.3206 25.0069 59.4901C24.8925 59.7455 24.7396 59.9347 24.5473 60.0566C24.3541 60.1785 24.1299 60.2394 23.8757 60.2394C23.5886 60.2394 23.3467 60.1678 23.1469 60.0229C22.9479 59.8781 22.8054 59.714 22.7201 59.5301C22.6347 59.3473 22.5925 59.1186 22.5925 58.846C22.5925 58.7086 22.6131 58.5686 22.6534 58.4307C22.6938 58.2907 22.7491 58.1693 22.8195 58.0667C22.8898 57.963 22.9677 57.8764 23.0521 57.8064C23.175 57.7075 23.2988 57.6365 23.4226 57.5942C23.5464 57.5515 23.6966 57.5306 23.8729 57.5306C24.2565 57.5306 24.5549 57.6573 24.7697 57.9112ZM23.2678 58.9844C23.2838 59.2415 23.296 59.3885 23.3035 59.4286C23.327 59.567 23.3645 59.6857 23.4151 59.7851C23.4498 59.8492 23.507 59.9064 23.5868 59.9561C23.6675 60.0058 23.7631 60.0304 23.8738 60.0304C24.007 60.0304 24.1187 59.9828 24.2096 59.8861C24.3006 59.7904 24.3663 59.6392 24.4057 59.4339C24.431 59.2998 24.4441 59.0796 24.4441 58.7733C24.4441 58.3965 24.3898 58.1303 24.28 57.9748C24.1712 57.8182 24.0277 57.7402 23.8494 57.7402C23.7087 57.7402 23.5933 57.7845 23.5014 57.8732C23.4095 57.962 23.3448 58.094 23.3092 58.2677C23.2847 58.3794 23.2716 58.6188 23.2678 58.9844ZM26.8023 57.6386L26.7695 57.854L26.5697 57.8786C26.4984 57.8786 26.4543 57.8877 26.4375 57.9069C26.4215 57.9251 26.4102 57.9791 26.4046 58.0667C26.4046 58.0918 26.4028 58.1271 26.399 58.1725C26.3868 58.3425 26.3803 58.4494 26.3803 58.4895V58.7803C26.5181 58.737 26.6242 58.6808 26.6973 58.6135C26.7714 58.5446 26.8755 58.405 27.0125 58.1945C27.2967 57.7514 27.5753 57.5306 27.8454 57.5306C27.9787 57.5306 28.0799 57.5675 28.1493 57.6418C28.2197 57.7156 28.2544 57.8054 28.2544 57.9101C28.2544 57.986 28.2309 58.0539 28.184 58.1132C28.1372 58.1736 28.0724 58.203 27.989 58.203C27.8989 58.203 27.8173 58.1544 27.7432 58.056C27.6954 57.9935 27.6513 57.962 27.6109 57.962C27.55 57.962 27.4881 57.9892 27.4252 58.0453C27.3633 58.1004 27.2761 58.2094 27.1644 58.3708C27.0716 58.5066 27.0021 58.5975 26.9571 58.645C27.0538 58.6776 27.1541 58.7434 27.2582 58.8428C27.3624 58.9422 27.534 59.1715 27.7732 59.5312C27.897 59.7172 27.9861 59.8316 28.0425 59.8749C28.0987 59.9171 28.201 59.9625 28.3501 60.0112L28.3529 60.1106C28.3529 60.1266 28.352 60.1507 28.3501 60.1827C28.3285 60.1827 28.2835 60.1785 28.216 60.171C28.1241 60.1614 28.0265 60.1571 27.9223 60.1571C27.806 60.1571 27.6644 60.1656 27.4974 60.1827C27.4702 60.1352 27.4074 60.0406 27.3089 59.8989L27.0396 59.4975C26.8746 59.2463 26.7573 59.0924 26.686 59.0363C26.6147 58.9802 26.5097 58.9518 26.369 58.9518V59.6643L26.3718 59.768L26.3746 59.8834C26.4206 59.9267 26.5068 59.9561 26.6354 59.9732C26.6607 59.9775 26.6833 59.9818 26.7011 59.9861V60.0652L26.7038 60.1218C26.7038 60.133 26.702 60.1496 26.6982 60.1731L26.6795 60.1827L26.3924 60.1656C26.2611 60.1517 26.1382 60.1443 26.0238 60.1443C25.9582 60.1443 25.8315 60.1549 25.6439 60.1753C25.5932 60.1753 25.5529 60.1774 25.5238 60.1795C25.4835 60.1817 25.4469 60.1827 25.4122 60.1827C25.4047 60.1496 25.401 60.1159 25.401 60.0828C25.401 60.0619 25.4019 60.0336 25.4038 59.9983C25.4347 59.9796 25.4685 59.9679 25.506 59.9615C25.5407 59.955 25.5632 59.9502 25.5745 59.946L25.6795 59.9358C25.7161 59.9315 25.7423 59.9257 25.7593 59.915C25.7789 59.8957 25.7902 59.59 25.7921 58.9973L25.7949 58.8957L25.7977 58.5697L25.8005 58.2009C25.8005 58.0528 25.794 57.9609 25.7809 57.9272C25.7686 57.8935 25.7189 57.8754 25.6326 57.8732C25.5905 57.8732 25.5247 57.8668 25.4366 57.854L25.401 57.6386C25.6429 57.6552 25.8183 57.6637 25.9253 57.6637L26.0678 57.6605L26.2864 57.6637C26.5322 57.6637 26.7038 57.6552 26.8023 57.6386ZM30.6924 57.9112C30.8106 58.0389 30.8978 58.1859 30.9559 58.3521C31.0131 58.5178 31.0422 58.6744 31.0422 58.8214C31.0422 59.0983 31.0047 59.3206 30.9297 59.4901C30.8152 59.7455 30.6623 59.9347 30.47 60.0566C30.2768 60.1785 30.0526 60.2394 29.7985 60.2394C29.5114 60.2394 29.2693 60.1678 29.0696 60.0229C28.8707 59.8781 28.7281 59.714 28.6427 59.5301C28.5574 59.3473 28.5152 59.1186 28.5152 58.846C28.5152 58.7086 28.5358 58.5686 28.5762 58.4307C28.6165 58.2907 28.6718 58.1693 28.7421 58.0667C28.8125 57.963 28.8904 57.8764 28.9748 57.8064C29.0977 57.7075 29.2215 57.6365 29.3453 57.5942C29.4692 57.5515 29.6193 57.5306 29.7956 57.5306C30.1793 57.5306 30.4776 57.6573 30.6924 57.9112ZM29.1906 58.9844C29.2065 59.2415 29.2187 59.3885 29.2262 59.4286C29.2497 59.567 29.2871 59.6857 29.3379 59.7851C29.3725 59.8492 29.4298 59.9064 29.5095 59.9561C29.5901 60.0058 29.6858 60.0304 29.7965 60.0304C29.9298 60.0304 30.0414 59.9828 30.1323 59.8861C30.2234 59.7904 30.289 59.6392 30.3284 59.4339C30.3538 59.2998 30.3669 59.0796 30.3669 58.7733C30.3669 58.3965 30.3124 58.1303 30.2027 57.9748C30.0939 57.8182 29.9504 57.7402 29.7722 57.7402C29.6314 57.7402 29.5161 57.7845 29.4242 57.8732C29.3322 57.962 29.2675 58.094 29.2318 58.2677C29.2075 58.3794 29.1943 58.6188 29.1906 58.9844ZM33.0374 57.8476L33.0009 57.6386C33.2428 57.6573 33.4182 57.6669 33.529 57.6669L33.6715 57.6637L33.891 57.6669C34.1387 57.6669 34.3132 57.6573 34.4135 57.6386L34.3779 57.8476L34.1781 57.87C34.0899 57.87 34.042 57.8855 34.0346 57.9176C34.0261 57.9491 34.0205 58.1207 34.0167 58.4307L34.0111 58.6354L34.0027 58.8925C34.0027 59.5574 34.0167 59.9128 34.0439 59.9561C34.1527 59.985 34.239 60.0037 34.3028 60.0112C34.33 60.0154 34.3591 60.0219 34.3882 60.0304L34.391 60.2143L34.2005 60.2057C34.0055 60.194 33.862 60.1886 33.7682 60.1886L33.0234 60.2143L33.0262 60.0304C33.0543 60.0219 33.0825 60.0154 33.1125 60.0112C33.2212 59.9951 33.3085 59.9764 33.3732 59.9561C33.3948 59.8262 33.4061 59.5659 33.4061 59.1758V58.9561L33.3948 58.6188C33.3948 58.5878 33.3986 58.5317 33.4061 58.4516C32.8404 59.1528 32.4793 59.5756 32.3245 59.7193C32.3321 59.8198 32.3461 59.8989 32.3658 59.9561C32.4746 59.985 32.5609 60.0037 32.6256 60.0122C32.6529 60.0154 32.681 60.0219 32.7082 60.0304L32.7138 60.2143L32.5243 60.2057C32.3283 60.194 32.1847 60.1886 32.0928 60.1886L31.3518 60.2143L31.3546 60.0304C31.3818 60.0219 31.4109 60.0154 31.4399 60.0112C31.546 59.9951 31.6323 59.9764 31.6988 59.9561C31.7205 59.8252 31.7317 59.6889 31.7317 59.5467L31.7289 59.0512V58.5975L31.7261 58.4307L31.7233 58.2292C31.7214 58.0453 31.7148 57.939 31.7045 57.9101C31.6933 57.8802 31.6454 57.8658 31.5591 57.8636C31.5244 57.8636 31.4597 57.8583 31.3649 57.8476L31.3293 57.6386C31.5703 57.6552 31.7458 57.6637 31.8555 57.6637L31.9981 57.6605L32.2176 57.6637C32.4652 57.6637 32.6378 57.6552 32.7364 57.6386L32.7035 57.8476L32.5018 57.87C32.4117 57.87 32.363 57.8855 32.3546 57.9176C32.3461 57.9491 32.3414 58.1218 32.3395 58.4318L32.3311 58.621L32.3227 58.8449L32.3254 59.4377L32.8273 58.8246C32.9727 58.6375 33.0956 58.4874 33.195 58.3751C33.2935 58.2639 33.3601 58.1816 33.3948 58.1282C33.3986 58.0705 33.4004 58.0314 33.4004 58.0127C33.4004 57.9197 33.346 57.87 33.2372 57.8636C33.1809 57.8615 33.1143 57.8561 33.0374 57.8476ZM31.9653 56.5777C31.9653 56.4911 31.9924 56.4184 32.0469 56.358C32.1004 56.2976 32.1669 56.2682 32.2458 56.2682C32.3123 56.2682 32.3668 56.288 32.4108 56.327C32.4549 56.366 32.5131 56.4585 32.5844 56.6054C32.6819 56.8032 32.7889 56.9026 32.9061 56.9026C33.0243 56.9026 33.1303 56.8032 33.2259 56.6054C33.2879 56.4772 33.3423 56.3895 33.3892 56.3409C33.4361 56.2922 33.4962 56.2682 33.5693 56.2682C33.6452 56.2682 33.7091 56.2987 33.7607 56.359C33.8132 56.4205 33.8394 56.4932 33.8394 56.5777C33.8394 56.746 33.7484 56.8732 33.5674 56.9603C33.3854 57.048 33.1678 57.0929 32.9146 57.0929C32.6191 57.0929 32.3874 57.0459 32.2186 56.9523C32.0497 56.8577 31.9653 56.7332 31.9653 56.5777ZM37.3918 57.6386L37.359 57.854L37.1592 57.8786C37.0879 57.8786 37.0436 57.8877 37.0267 57.9069C37.0109 57.9251 36.9997 57.9791 36.994 58.0667C36.994 58.0918 36.9922 58.1271 36.9886 58.1725C36.9763 58.3425 36.9695 58.4494 36.9695 58.4895V58.7803C37.1074 58.737 37.2135 58.6808 37.2867 58.6135C37.3608 58.5446 37.4649 58.405 37.602 58.1945C37.8861 57.7514 38.1647 57.5306 38.4347 57.5306C38.5683 57.5306 38.6694 57.5675 38.7389 57.6418C38.8091 57.7156 38.8436 57.8054 38.8436 57.9101C38.8436 57.986 38.8203 58.0539 38.7734 58.1132C38.7267 58.1736 38.6619 58.203 38.5783 58.203C38.4883 58.203 38.4066 58.1544 38.3324 58.056C38.2846 57.9935 38.2406 57.962 38.2003 57.962C38.1395 57.962 38.0775 57.9892 38.0146 58.0453C37.9526 58.1004 37.8655 58.2094 37.7539 58.3708C37.6611 58.5066 37.5916 58.5975 37.5466 58.645C37.643 58.6776 37.7435 58.7434 37.8475 58.8428C37.9519 58.9422 38.1233 59.1715 38.3627 59.5312C38.4865 59.7172 38.5755 59.8316 38.6319 59.8749C38.6881 59.9171 38.7903 59.9625 38.9394 60.0112L38.9423 60.1106C38.9423 60.1266 38.9412 60.1507 38.9394 60.1827C38.9178 60.1827 38.8728 60.1785 38.8055 60.171C38.7133 60.1614 38.6158 60.1571 38.5117 60.1571C38.3955 60.1571 38.254 60.1656 38.0869 60.1827C38.0596 60.1352 37.9969 60.0406 37.8983 59.8989L37.629 59.4975C37.4641 59.2463 37.3468 59.0924 37.2755 59.0363C37.2042 58.9802 37.0991 58.9518 36.9583 58.9518V59.6643L36.9612 59.768L36.9641 59.8834C37.0098 59.9267 37.0962 59.9561 37.2247 59.9732C37.2503 59.9775 37.2726 59.9818 37.2906 59.9861V60.0652L37.2931 60.1218C37.2931 60.133 37.2914 60.1496 37.2877 60.1731L37.269 60.1827L36.9817 60.1656C36.8507 60.1517 36.7276 60.1443 36.6131 60.1443C36.5476 60.1443 36.4209 60.1549 36.2333 60.1753C36.1825 60.1753 36.1422 60.1774 36.1131 60.1795C36.0727 60.1817 36.0364 60.1827 36.0014 60.1827C35.9941 60.1496 35.9903 60.1159 35.9903 60.0828C35.9903 60.0619 35.9913 60.0336 35.9932 59.9983C36.0241 59.9796 36.058 59.9679 36.0954 59.9615C36.13 59.955 36.1526 59.9502 36.1638 59.946L36.2689 59.9358C36.3057 59.9315 36.3319 59.9257 36.3485 59.915C36.3683 59.8957 36.3795 59.59 36.3816 58.9973L36.3841 58.8957L36.387 58.5697L36.3899 58.2009C36.3899 58.0528 36.3834 57.9609 36.3701 57.9272C36.3582 57.8935 36.3082 57.8754 36.2221 57.8732C36.18 57.8732 36.1141 57.8668 36.0259 57.854L35.9903 57.6386C36.2322 57.6552 36.4079 57.6637 36.5148 57.6637L36.6574 57.6605L36.8759 57.6637C37.1218 57.6637 37.2931 57.6552 37.3918 57.6386ZM38.857 57.6701C38.9218 57.6573 38.9743 57.6509 39.0164 57.6509C39.0388 57.6509 39.0633 57.652 39.0913 57.6541C39.2583 57.6691 39.3945 57.6766 39.4996 57.6766H39.6421L40.0342 57.6509C40.0482 57.6637 40.0615 57.6776 40.0727 57.691C40.0669 57.7834 40.0622 57.8412 40.0587 57.8668C40.0313 57.8732 40.0097 57.877 39.9956 57.8791C39.9524 57.8855 39.9215 57.8909 39.901 57.8968C39.8812 57.9016 39.8588 57.9058 39.8355 57.9101C39.807 57.9187 39.7923 57.9336 39.7883 57.9534C39.7998 58.0031 39.8099 58.0443 39.8214 58.0785L39.9524 58.3815C40.0569 58.6702 40.1627 58.9369 40.2725 59.18L40.4255 59.5365C40.4366 59.512 40.5079 59.3083 40.6382 58.9262C40.7959 58.4751 40.8802 58.2191 40.8935 58.1619C40.9011 58.1303 40.9046 58.1036 40.9046 58.0806C40.9046 58.0603 40.8989 58.0266 40.8877 57.9791C40.8474 57.9449 40.8147 57.924 40.7894 57.9144C40.7631 57.9058 40.7038 57.8946 40.6102 57.8823L40.523 57.8572L40.5144 57.8128C40.5126 57.7915 40.5115 57.776 40.5115 57.7653C40.5115 57.7487 40.5144 57.7209 40.5202 57.683C40.5745 57.6787 40.6138 57.6766 40.6382 57.6766L40.8607 57.6942L41.0087 57.7017C41.0717 57.7017 41.1797 57.692 41.3334 57.6723C41.4281 57.6594 41.4994 57.653 41.5473 57.6509C41.5508 57.7017 41.553 57.7412 41.553 57.7674C41.553 57.7802 41.5519 57.7979 41.5501 57.8235C41.5174 57.8412 41.4806 57.8561 41.4403 57.8668C41.3745 57.8855 41.3165 57.9026 41.2668 57.9197C41.2377 57.9438 41.2189 57.9652 41.2085 57.9823C41.1775 58.0603 41.1149 58.2313 41.0202 58.4959L40.8222 59.0951L40.3643 60.3297L40.0493 61.1475C39.9798 61.3046 39.8974 61.4388 39.8034 61.551C39.7689 61.5943 39.7285 61.6269 39.6825 61.6504C39.6076 61.682 39.5212 61.6991 39.4254 61.6991C39.4167 61.6991 39.3663 61.6916 39.2746 61.6777C39.1982 61.6568 39.1338 61.6136 39.0783 61.5457C39.0398 61.496 39.0201 61.4441 39.0201 61.388C39.0201 61.2758 39.0633 61.171 39.1497 61.0748C39.2274 61.0208 39.2846 60.9946 39.3214 60.9946C39.4038 60.9946 39.5003 61.0433 39.6111 61.1395C39.6627 61.186 39.7041 61.2106 39.7357 61.2106C39.7667 61.2106 39.7923 61.1902 39.8099 61.1512C39.9686 60.8011 40.0709 60.5526 40.1166 60.4067L39.6076 59.1442C39.4161 58.6375 39.2706 58.2837 39.1694 58.0806C39.1187 57.9769 39.082 57.9155 39.0614 57.8978C39.0398 57.8786 39.0082 57.8615 38.9639 57.8465C38.9394 57.8401 38.9124 57.8289 38.8814 57.8096C38.8721 57.761 38.8645 57.7145 38.857 57.6701ZM44.1522 60.2014H44.0892L43.7159 60.1908L43.519 60.1886L43.3163 60.1854L43.1737 60.195L42.8915 60.2014C42.8803 60.1646 42.8746 60.1341 42.8746 60.1106C42.8746 60.086 42.8793 60.048 42.8886 59.9983L43.0067 59.9764C43.137 59.9561 43.2018 59.9224 43.2018 59.877C43.2018 59.8423 43.1924 59.8017 43.1748 59.7568C43.1597 59.7193 43.1334 59.6445 43.0967 59.5323C43.0611 59.4211 42.9898 59.2351 42.8828 58.9759L42.8108 58.7803C42.7554 58.6253 42.6982 58.4842 42.6409 58.3585C42.6175 58.42 42.5808 58.5339 42.5311 58.7001C42.4908 58.8385 42.426 59.0384 42.3371 59.2998C42.2273 59.6253 42.169 59.8412 42.1618 59.9486C42.2093 59.9593 42.2723 59.9647 42.3493 59.9668L42.3903 59.9732C42.4206 59.9754 42.457 59.9764 42.5012 59.9764L42.5423 59.9861C42.5462 60.0197 42.5481 60.0534 42.5481 60.0892C42.5481 60.1475 42.5405 60.1843 42.5257 60.2014L42.4767 60.2079C42.4487 60.2121 42.4335 60.2143 42.43 60.2143L42.1927 60.2079L42.0548 60.2111C41.9721 60.1961 41.8867 60.1886 41.7985 60.1886L41.6862 60.195L41.567 60.2047L41.5012 60.2014C41.4975 60.1646 41.4958 60.1352 41.4958 60.1127C41.4958 60.0903 41.4975 60.0609 41.5012 60.024C41.6869 59.9754 41.8155 59.9283 41.8867 59.8861C41.9195 59.8209 41.9692 59.6878 42.034 59.489C42.1589 59.1095 42.3238 58.6482 42.5304 58.1089C42.5894 57.9577 42.6326 57.8401 42.6596 57.7578C42.6823 57.691 42.7065 57.6268 42.7349 57.5622H42.9552C43.1831 58.1608 43.3782 58.6472 43.5377 59.0202L43.8059 59.7001L43.8923 59.9085C43.8941 59.915 43.9373 59.9294 44.0237 59.954C44.0986 59.9743 44.1436 59.9951 44.1576 60.0176C44.1615 60.0406 44.1634 60.0684 44.1634 60.102C44.1634 60.1475 44.1598 60.1806 44.1522 60.2014ZM45.1962 58.7199L45.504 58.7108L45.6052 58.7044C46.0627 58.7044 46.3687 58.7669 46.5235 58.8904C46.6783 59.0138 46.755 59.1833 46.755 59.3987C46.755 59.6568 46.6621 59.8524 46.4756 59.9871C46.2899 60.1213 46.0292 60.1886 45.6934 60.1886L45.3254 60.1827L44.217 60.2143L44.2224 60.0304L44.4017 59.9994C44.4711 59.9893 44.5255 59.9754 44.5641 59.9593C44.591 59.9032 44.6051 59.6253 44.6051 59.125L44.5968 58.5975L44.5882 58.2324C44.5882 58.0485 44.5835 57.9417 44.5734 57.9144C44.5641 57.8866 44.5162 57.8711 44.4298 57.87L44.23 57.8476L44.2055 57.6787L44.5403 57.6755L44.6418 57.6701C44.7225 57.6659 44.833 57.6637 44.9737 57.6637L45.2873 57.6573L45.4878 57.6605C45.5227 57.6605 45.5807 57.653 45.6631 57.6386L45.6303 57.8476C45.5105 57.8626 45.4374 57.869 45.4118 57.869C45.3049 57.869 45.2412 57.8834 45.2203 57.9112C45.2009 57.939 45.1905 58.0106 45.1905 58.126L45.1933 58.4195V58.5836C45.1933 58.6253 45.1944 58.6702 45.1962 58.7199ZM45.2074 59.9139C45.2711 59.9358 45.3679 59.9481 45.4954 59.9481C45.9108 59.9481 46.1193 59.7803 46.1193 59.4468C46.1193 59.303 46.0667 59.1833 45.9627 59.0913C45.8582 58.9983 45.7017 58.9518 45.4925 58.9518C45.4071 58.9518 45.3096 58.9604 45.2016 58.9759C45.1998 59.0015 45.1991 59.0149 45.1991 59.0192L45.2016 59.2116C45.1923 59.4222 45.1876 59.6274 45.1876 59.8273C45.1876 59.8535 45.1944 59.8834 45.2074 59.9139ZM46.9541 58.2907C46.9689 58.2602 46.9839 58.2169 46.998 58.1587L47.0318 58.0539C47.0703 57.9272 47.1107 57.7792 47.151 57.6097L47.1791 57.5114H47.3029C47.3123 57.5274 47.3198 57.5397 47.3245 57.5483C47.3706 57.6343 47.3994 57.6819 47.4127 57.6921C47.4315 57.6985 47.5254 57.7017 47.6961 57.7017L48.2663 57.6921L48.483 57.6953H49.1198C49.1256 57.6953 49.1461 57.6931 49.1811 57.6888C49.2156 57.6856 49.239 57.6776 49.2523 57.6659C49.2653 57.6541 49.2804 57.6215 49.2991 57.5675L49.3236 57.5146C49.3599 57.5125 49.4136 57.5114 49.4838 57.5114L49.4867 57.9882L49.4895 58.1934C49.4895 58.3206 49.4856 58.3933 49.4784 58.4131C49.4183 58.4355 49.3668 58.4483 49.3236 58.4505C49.2945 58.4008 49.2541 58.3099 49.2044 58.1768C49.1602 58.0624 49.1263 57.9956 49.104 57.9769C49.0806 57.9588 49.0025 57.9491 48.8703 57.9491L48.7185 57.9523C48.6652 57.9523 48.6058 57.9491 48.5413 57.9427L48.5467 58.2009L48.5413 58.5328L48.5298 59.0796C48.5298 59.6002 48.5431 59.8882 48.5683 59.947C48.6828 59.9775 48.7692 59.9973 48.8254 60.0048C48.8545 60.009 48.8826 60.0154 48.91 60.024L48.9125 60.2143L48.587 60.1972C48.4848 60.1918 48.3883 60.1886 48.2972 60.1886L47.8958 60.2025L47.5564 60.2143L47.5618 60.024C47.5852 60.0154 47.6125 60.009 47.6435 60.0048C47.7457 59.9914 47.8321 59.9711 47.9005 59.947C47.9297 59.7851 47.9444 59.5659 47.9444 59.2912L47.9333 58.6199C47.9333 58.2864 47.9297 58.0657 47.9203 57.9555C47.8375 57.9513 47.7727 57.9491 47.7259 57.9491C47.5636 57.9491 47.4606 57.963 47.4163 57.9892C47.3735 58.0159 47.3029 58.0983 47.2065 58.2362L47.1546 58.3067C47.1201 58.3564 47.0948 58.3805 47.0779 58.3805C47.0441 58.3805 47.0027 58.3511 46.9541 58.2907ZM49.4453 57.6701C49.5101 57.6573 49.5627 57.6509 49.6047 57.6509C49.6275 57.6509 49.6519 57.652 49.68 57.6541C49.847 57.6691 49.9828 57.6766 50.0879 57.6766H50.2304L50.6225 57.6509C50.6369 57.6637 50.6499 57.6776 50.661 57.691C50.6556 57.7834 50.6509 57.8412 50.647 57.8668C50.6199 57.8732 50.5983 57.877 50.5843 57.8791C50.5411 57.8855 50.5102 57.8909 50.4893 57.8968C50.4699 57.9016 50.4471 57.9058 50.4238 57.9101C50.3957 57.9187 50.3806 57.9336 50.377 57.9534C50.3881 58.0031 50.3986 58.0443 50.4097 58.0785L50.5411 58.3815C50.6452 58.6702 50.751 58.9369 50.8608 59.18L51.0138 59.5365C51.025 59.512 51.0963 59.3083 51.2266 58.9262C51.3843 58.4751 51.4689 58.2191 51.4818 58.1619C51.4894 58.1303 51.493 58.1036 51.493 58.0806C51.493 58.0603 51.4876 58.0266 51.4761 57.9791C51.4357 57.9449 51.403 57.924 51.3778 57.9144C51.3515 57.9058 51.2924 57.8946 51.1985 57.8823L51.1114 57.8572L51.1027 57.8128C51.1009 57.7915 51.1002 57.776 51.1002 57.7653C51.1002 57.7487 51.1027 57.7209 51.1085 57.683C51.1628 57.6787 51.2025 57.6766 51.2266 57.6766L51.4491 57.6942L51.5974 57.7017C51.66 57.7017 51.768 57.692 51.9217 57.6723C52.0164 57.6594 52.0877 57.653 52.1356 57.6509C52.1395 57.7017 52.1413 57.7412 52.1413 57.7674C52.1413 57.7802 52.1403 57.7979 52.1385 57.8235C52.1057 57.8412 52.069 57.8561 52.0286 57.8668C51.9631 57.8855 51.9048 57.9026 51.8551 57.9197C51.826 57.9438 51.8073 57.9652 51.7972 57.9823C51.7662 58.0603 51.7032 58.2313 51.6085 58.4959L51.4105 59.0951L50.953 60.3297L50.6376 61.1475C50.5681 61.3046 50.4857 61.4388 50.3917 61.551C50.3572 61.5943 50.3169 61.6269 50.2708 61.6504C50.1959 61.682 50.1095 61.6991 50.0137 61.6991C50.0054 61.6991 49.9547 61.6916 49.8629 61.6777C49.7869 61.6568 49.7221 61.6136 49.6667 61.5457C49.6282 61.496 49.6087 61.4441 49.6087 61.388C49.6087 61.2758 49.6519 61.171 49.738 61.0748C49.8161 61.0208 49.873 60.9946 49.9097 60.9946C49.9921 60.9946 50.089 61.0433 50.1995 61.1395C50.2513 61.186 50.2924 61.2106 50.3244 61.2106C50.3554 61.2106 50.3806 61.1902 50.3986 61.1512C50.557 60.8011 50.6592 60.5526 50.7053 60.4067L50.1959 59.1442C50.0044 58.6375 49.8589 58.2837 49.7578 58.0806C49.707 57.9769 49.6707 57.9155 49.6498 57.8978C49.6282 57.8786 49.5965 57.8615 49.5522 57.8465C49.5281 57.8401 49.5007 57.8289 49.4698 57.8096C49.4604 57.761 49.4529 57.7145 49.4453 57.6701Z" fill="#E9EEF3"/>
<path d="M52.1191 61.7466V61.6023C52.1523 61.5804 52.1757 61.5644 52.1904 61.5558L52.4006 61.4692C52.4878 61.4302 52.5378 61.3998 52.5479 61.3762C52.5771 61.3153 52.59 61.2052 52.5864 61.0486L52.5695 59.8166L52.5414 58.2859C52.5357 58.1736 52.5151 58.094 52.4784 58.0464C52.4421 57.9999 52.3445 57.9502 52.1868 57.8989V57.7402C52.3661 57.7006 52.5162 57.652 52.639 57.5942C52.7283 57.5531 52.8499 57.4745 53.0029 57.3591L53.1437 57.3527L53.1466 57.4398L53.1437 57.7728C53.1437 57.7845 53.1444 57.815 53.1466 57.8647C53.3061 57.7557 53.4366 57.684 53.5385 57.6488C53.6889 57.5996 53.8548 57.575 54.0356 57.575C54.2222 57.575 54.3876 57.629 54.5321 57.7354C54.5428 57.7444 54.5593 57.7557 54.5785 57.7706C54.6708 57.8444 54.7374 57.9155 54.7796 57.9844C54.8708 58.1303 54.9364 58.2752 54.9764 58.4173C55.0073 58.5253 55.0233 58.6589 55.0233 58.8204C55.0233 59.0352 54.9993 59.2169 54.9497 59.3661C54.8996 59.5141 54.8142 59.6643 54.6932 59.8145C54.5721 59.9657 54.443 60.0737 54.3049 60.1373C54.1662 60.2015 54.0206 60.233 53.8686 60.233C53.7188 60.233 53.6116 60.2228 53.547 60.2015C53.4244 60.1624 53.3021 60.1042 53.1822 60.0272C53.1794 60.0598 53.1775 60.0817 53.1775 60.0951L53.1822 60.1785C53.1829 60.2004 53.1829 60.2292 53.1829 60.2619C53.1829 60.2763 53.1822 60.3581 53.18 60.5061L53.1887 61.0695C53.1887 61.0823 53.1869 61.124 53.1829 61.1935V61.2282C53.1829 61.3046 53.1876 61.3607 53.197 61.3955C53.2056 61.4153 53.2214 61.4388 53.2467 61.4634C53.2646 61.4714 53.2823 61.481 53.2992 61.4917C53.3556 61.5035 53.4062 61.5157 53.4494 61.5286C53.4926 61.5403 53.5385 61.551 53.5865 61.559C53.6025 61.5826 53.6105 61.612 53.6105 61.6504C53.6105 61.6724 53.61 61.706 53.6078 61.7493H53.5582C53.4521 61.7493 53.378 61.7472 53.3358 61.7434L52.9212 61.705H52.82L52.7236 61.7023L52.6278 61.7114L52.4795 61.721C52.424 61.7231 52.3643 61.7285 52.2977 61.737C52.2318 61.7456 52.1839 61.7493 52.1548 61.7493L52.1191 61.7466ZM53.1584 59.5269C53.166 59.5521 53.1707 59.5702 53.1728 59.5831C53.1923 59.6782 53.2186 59.7455 53.2495 59.7851C53.3061 59.8589 53.3716 59.9091 53.4446 59.9326C53.5545 59.9679 53.651 59.9861 53.7337 59.9861C53.8297 59.9861 53.922 59.9636 54.0126 59.9182C54.1033 59.8727 54.1764 59.8113 54.2318 59.7354C54.2382 59.7247 54.2494 59.7097 54.2649 59.6921C54.2766 59.6579 54.2873 59.6338 54.2948 59.6167C54.3678 59.4564 54.4046 59.2848 54.4046 59.1031C54.4046 58.769 54.3161 58.4863 54.1396 58.257C54.0169 58.094 53.8436 58.0127 53.6174 58.0127C53.483 58.0127 53.3312 58.0523 53.1606 58.1303C53.1566 58.2105 53.1549 58.4366 53.1549 58.8091L53.1606 59.4061C53.1606 59.4211 53.1595 59.4617 53.1584 59.5269ZM56.3102 58.7199L56.6169 58.7108L56.7182 58.7044C57.1753 58.7044 57.4809 58.7669 57.6345 58.8904C57.7897 59.0138 57.8665 59.1833 57.8665 59.3987C57.8665 59.6568 57.7737 59.8524 57.5881 59.9871C57.402 60.1213 57.1428 60.1886 56.8073 60.1886L56.4398 60.1827L55.3337 60.2207L55.3396 60.0368L55.5188 60.0058C55.5881 59.9957 55.6425 59.9818 55.6809 59.9647C55.7081 59.9091 55.7225 59.6306 55.7225 59.1282L55.714 58.6007L55.7054 58.2335C55.7054 58.0491 55.7006 57.9433 55.6905 57.9144C55.6809 57.8866 55.6329 57.8722 55.5465 57.87L55.347 57.8476L55.323 57.6787L55.6574 57.6755L55.7588 57.6701C55.8393 57.6659 55.9502 57.6637 56.091 57.6637L56.4041 57.6573L56.6052 57.6605C56.6398 57.6605 56.698 57.653 56.7806 57.6386L56.7476 57.8476C56.6265 57.8626 56.5534 57.869 56.5268 57.869C56.4196 57.869 56.3556 57.8834 56.3348 57.9112C56.315 57.939 56.3049 58.0106 56.3049 58.1261L56.3076 58.4195V58.5841C56.3076 58.6253 56.3086 58.6707 56.3102 58.7199ZM56.3241 59.9139C56.3886 59.9358 56.4836 59.9481 56.6105 59.9481C57.0244 59.9481 57.2308 59.7808 57.2308 59.4468C57.2308 59.303 57.179 59.1833 57.075 59.0913C56.9716 58.9983 56.8158 58.9518 56.6078 58.9518C56.5225 58.9518 56.426 58.9604 56.3188 58.9759C56.3172 59.0015 56.3161 59.0149 56.3161 59.0192L56.3188 59.2116C56.3097 59.4222 56.3049 59.6274 56.3049 59.8273C56.3049 59.8535 56.3113 59.8834 56.3241 59.9139ZM57.9529 57.8476L57.9172 57.6386C58.1593 57.6552 58.3348 57.6637 58.4452 57.6637L58.5881 57.6605L58.8078 57.6637C59.0548 57.6637 59.2297 57.6552 59.33 57.6386L59.2942 57.8476L59.0942 57.87C59.01 57.87 58.963 57.8834 58.954 57.9112C58.9433 57.9401 58.9369 58.0453 58.9358 58.2303L58.9273 58.6007L58.9193 59.125C58.9193 59.6274 58.9332 59.9053 58.9604 59.9615C59.0692 59.9914 59.1556 60.009 59.2196 60.0176C59.2462 60.0219 59.2756 60.0283 59.3049 60.0368L59.3076 60.2143L59.1172 60.2057C58.9209 60.194 58.7764 60.1886 58.6846 60.1886L57.9396 60.2143L57.9422 60.0368C57.9705 60.0283 57.9988 60.0219 58.0286 60.0176C58.1374 60.0016 58.2238 59.9828 58.2889 59.9615C58.3076 59.8535 58.3166 59.5964 58.3166 59.1907V58.7776L58.3198 58.4328C58.3198 58.148 58.3156 57.9834 58.3081 57.9369C58.3006 57.8898 58.2484 57.8658 58.1508 57.8636C58.115 57.8636 58.0494 57.8583 57.9529 57.8476Z" fill="#E9EEF3"/>
<path fill-rule="evenodd" clip-rule="evenodd" d="M70.4343 54.4745H58.4689C58.4689 54.4745 57.8721 54.7588 58.9404 55.094C60.0092 55.4291 69.9345 54.7733 70.4343 54.4745Z" fill="#E9EEF3"/>
<path fill-rule="evenodd" clip-rule="evenodd" d="M1.3418 54.4745H13.3065C13.3065 54.4745 13.9039 54.7588 12.8352 55.094C11.7665 55.4291 1.84117 54.7733 1.3418 54.4745Z" fill="#E9EEF3"/>
<path fill-rule="evenodd" clip-rule="evenodd" d="M31.8973 28.5058C31.8973 28.5058 26.5569 22.5079 25.2659 19.5089C25.2659 19.5089 21.9208 21.7679 22.2925 22.3911C22.6642 23.0142 31.8973 28.5058 31.8973 28.5058Z" fill="#9C9C9C"/>
<path fill-rule="evenodd" clip-rule="evenodd" d="M20.707 8.37819C20.707 8.37819 26.115 2.01243 27.098 1.65189C28.0811 1.29134 28.5986 1.96093 29.1935 3.96977C29.7885 5.97853 33.6932 27.3215 33.6932 27.8473C33.6932 28.373 33.8286 29.2763 32.5963 27.7799C31.364 26.2835 22.441 12.3217 20.707 8.37819Z" fill="#E3E3E3"/>
<path fill-rule="evenodd" clip-rule="evenodd" d="M34.5127 28.018C34.5127 28.018 38.7914 4.43429 38.9714 3.4661C39.1514 2.4979 39.5038 0.479385 39.0952 0.154024C38.6866 -0.171378 34.7099 -0.0900065 30.4609 1.48264C31.2228 5.36706 32.2802 9.20556 32.7466 13.136L34.5127 28.018Z" fill="#DEDEDE"/>
<path fill-rule="evenodd" clip-rule="evenodd" d="M35.707 25.7355C35.707 25.7355 44.8564 9.52707 45.2888 8.45126C45.7211 7.37545 46.7223 6.12198 45.4248 5.19935C44.1274 4.27673 40.7085 2.22648 40.6469 2.5135C40.585 2.80053 35.707 25.7355 35.707 25.7355Z" fill="#BEBEBE"/>
<path fill-rule="evenodd" clip-rule="evenodd" d="M35.7363 27.0245C35.7363 27.0245 48.4551 17.1924 49.426 16.3436C50.3973 15.4948 50.8473 15.1647 50.2076 13.7736C49.5682 12.3824 47.3653 10.0954 47.3653 10.0954L35.7363 27.0245Z" fill="#ABABAB"/>
<path fill-rule="evenodd" clip-rule="evenodd" d="M35.5234 27.7319C35.5234 27.7319 46.7735 21.1772 48.6686 19.2438C48.6686 19.2438 51.5342 23.3699 51.5107 23.8651C51.487 24.3603 51.8895 24.7846 48.4788 25.3741C45.0682 25.9636 35.5234 27.7319 35.5234 27.7319Z" fill="#BCBCBC"/>
</g>
</g>
<defs>
<clipPath id="clip0_3133_2066">
<rect width="72" height="62" fill="white"/>
</clipPath>
</defs>
</svg>
