<svg width="204" height="54" viewBox="0 0 204 54" fill="none" xmlns="http://www.w3.org/2000/svg">
<g clip-path="url(#clip0_3133_4627)">
<path d="M149.781 30.6448V44.4713H147.596V32.6197H142.526V34.7921C142.526 36.7768 142.431 38.4389 142.235 39.7749C142.039 41.111 141.747 42.128 141.356 42.8224C140.965 43.5169 140.534 43.9972 140.063 44.2642C139.596 44.5312 139.022 44.6661 138.349 44.6661C138.11 44.6661 137.858 44.6397 137.593 44.5876C137.328 44.5383 137.119 44.4854 136.97 44.4326L136.758 44.377V42.3034C137.153 42.432 137.514 42.4937 137.846 42.4937C138.227 42.4937 138.555 42.4011 138.83 42.2108C139.105 42.0195 139.367 41.6644 139.613 41.1444C139.857 40.6244 140.04 39.8348 140.156 38.7746C140.272 37.7118 140.331 36.3854 140.331 34.7921V30.6457L149.781 30.6448Z" fill="#404040"/>
<path d="M122.656 44.4713L128.425 30.6448H130.613L136.382 44.4713H134.098L132.602 40.8184H126.436L124.941 44.4713H122.656ZM129.522 33.1132L127.232 38.8398H131.807L129.522 33.1132Z" fill="#404040"/>
<path d="M113.312 30.6448H123.853V32.6197H119.674V44.4713H117.491V32.6197H113.312V30.6448Z" fill="#404040"/>
<path d="M102.273 30.6448H107.837C109.166 30.6448 110.277 31.0757 111.176 31.9411C112.071 32.8066 112.518 33.857 112.518 35.0944C112.518 36.3317 112.071 37.3813 111.176 38.2405C110.277 39.1033 109.166 39.5334 107.837 39.5334H104.458V44.4705H102.273V30.6448ZM107.837 32.6197H104.459V37.5567H107.837C108.524 37.5567 109.11 37.3231 109.598 36.849C110.082 36.3784 110.324 35.7923 110.324 35.0944C110.324 34.3964 110.082 33.8112 109.598 33.3335C109.11 32.8603 108.524 32.6197 107.837 32.6197Z" fill="#404040"/>
<path d="M86.9492 44.4713L92.7182 30.6448H94.9067L100.676 44.4713H98.3915L96.8964 40.8184H90.7296L89.2345 44.4713H86.9492ZM93.8156 33.1132L91.5251 38.8398H96.1L93.8156 33.1132Z" fill="#404040"/>
<path d="M82.0819 44.4713H76.1211V30.6448H81.7845C82.9084 30.6448 83.8734 31.0131 84.6689 31.7533C85.4644 32.491 85.8631 33.3397 85.8631 34.2977C85.8631 34.8503 85.7467 35.3579 85.5186 35.8215C85.2895 36.2859 85.0614 36.6049 84.8359 36.7856L84.4746 37.0649C84.5278 37.0914 84.6006 37.1337 84.6929 37.1962C84.7861 37.2553 84.9584 37.3875 85.2034 37.5911C85.4484 37.792 85.6607 38.0159 85.84 38.2591C86.0158 38.5023 86.1818 38.8223 86.3336 39.21C86.4863 39.5987 86.5627 40.0032 86.5627 40.4209C86.5627 41.5234 86.1348 42.4779 85.2798 43.2745C84.423 44.073 83.3586 44.4713 82.0819 44.4713ZM81.7836 32.5245H78.305V36.2762H81.7836C82.3269 36.2762 82.778 36.0982 83.1365 35.7394C83.498 35.3843 83.6763 34.9367 83.6763 34.3999C83.6763 33.8632 83.498 33.4155 83.1365 33.0604C82.778 32.7025 82.3269 32.5245 81.7836 32.5245ZM78.3059 42.5915H82.0828C82.7326 42.5915 83.2759 42.3747 83.7173 41.9402C84.155 41.5057 84.3769 40.9655 84.3769 40.3239C84.3769 39.6824 84.1576 39.1421 83.7199 38.7051C83.2822 38.267 82.7389 38.0502 82.0819 38.0502H78.305L78.3059 42.5915Z" fill="#404040"/>
<path d="M65.2787 30.6448V37.3654L71.5423 30.6448H74.3309L68.9587 36.3714L74.7287 44.4713H72.0394L67.4637 37.955L65.2787 40.3248V44.4713H63.0938V30.6448H65.2787Z" fill="#404040"/>
<path d="M204.003 21.498H201.818V11.5297L194.057 21.498H192.172V7.67236H194.357V17.6512L202.119 7.67236H204.003V21.498Z" fill="#404040"/>
<path d="M188.977 21.498H186.792V11.5297L179.031 21.498H177.148V7.67236H179.332V17.6512L187.095 7.67236H188.977V21.498Z" fill="#404040"/>
<path d="M166.306 7.67236V14.3931L172.569 7.67236H175.358L169.986 13.399L175.756 21.498H173.066L168.491 14.9818L166.306 17.3516V21.498H164.121V7.67236H166.306Z" fill="#404040"/>
<path d="M156.364 7.47729C157.07 7.47729 157.747 7.56984 158.393 7.75402C159.042 7.93469 159.576 8.15854 160 8.42205C160.425 8.68556 160.797 8.94553 161.115 9.20551C161.43 9.46196 161.665 9.68229 161.815 9.87L162.027 10.1397L160.637 11.5286C160.597 11.4757 160.542 11.4035 160.468 11.3109C160.391 11.2157 160.222 11.0474 159.957 10.8042C159.692 10.5609 159.406 10.3503 159.103 10.1723C158.798 9.99427 158.402 9.83299 157.911 9.68228C157.424 9.53071 156.907 9.45491 156.363 9.45491C154.921 9.45491 153.694 9.95196 152.694 10.9425C151.688 11.9366 151.187 13.151 151.187 14.5832C151.187 16.0179 151.685 17.2323 152.686 18.23C153.687 19.2275 154.914 19.7246 156.363 19.7246C156.906 19.7246 157.427 19.6488 157.922 19.4973C158.419 19.3456 158.829 19.1649 159.155 18.9543C159.482 18.7401 159.771 18.5295 160.021 18.3224C160.269 18.1118 160.455 17.9339 160.58 17.7858L160.733 17.5452L162.132 18.9341C162.082 19.0098 162.003 19.1121 161.897 19.2373C161.787 19.3624 161.553 19.5827 161.188 19.8991C160.82 20.212 160.432 20.4922 160.021 20.7389C159.609 20.9822 159.072 21.2025 158.409 21.3973C157.746 21.5947 157.063 21.6934 156.363 21.6934C154.278 21.6934 152.53 21.006 151.118 19.6302C149.706 18.2546 149 16.5731 149 14.585C149 12.6002 149.706 10.9187 151.118 9.54304C152.531 8.16559 154.279 7.47729 156.364 7.47729Z" fill="#404040"/>
<path d="M146.611 21.498H144.426V11.5297L136.664 21.498H134.781V7.67236H136.966V17.6512L144.729 7.67236H146.611V21.498Z" fill="#404040"/>
<path d="M131.588 21.498H129.402V11.5297L121.641 21.498H119.758V7.67236H121.943V17.6512L129.705 7.67236H131.588V21.498Z" fill="#404040"/>
<path d="M116.581 7.67236V21.498H114.395V9.64733H107.529V21.498H105.344V7.67236H116.581Z" fill="#404040"/>
<path d="M98.274 21.498H92.7109V7.67236H94.8959V12.6094H98.274C99.604 12.6094 100.715 13.0403 101.613 13.9057C102.508 14.7712 102.955 15.8208 102.955 17.059C102.955 18.2963 102.508 19.3459 101.613 20.2052C100.714 21.067 99.6031 21.498 98.274 21.498ZM94.8959 19.5204H98.274C98.9603 19.5204 99.5471 19.2868 100.035 18.8128C100.518 18.3422 100.761 17.7561 100.761 17.0581C100.761 16.3602 100.522 15.774 100.038 15.2973C99.5568 14.8232 98.9674 14.5834 98.274 14.5834H94.8959V19.5204Z" fill="#404040"/>
<path d="M89.5185 7.67236V21.4989H87.3337V9.64733H82.2642V11.8198C82.2642 13.8044 82.1683 15.4665 81.973 16.8025C81.7778 18.1386 81.4856 19.1556 81.0941 19.85C80.7026 20.5445 80.272 21.0247 79.8015 21.2918C79.3335 21.5589 78.76 21.6937 78.0871 21.6937C77.8483 21.6937 77.5961 21.6672 77.3315 21.6144C77.066 21.5651 76.8574 21.513 76.7082 21.4601L76.4961 21.4047V19.3309C76.8912 19.4596 77.2525 19.5222 77.5836 19.5222C77.9655 19.5222 78.293 19.4296 78.5683 19.2393C78.8435 19.048 79.1054 18.693 79.3504 18.173C79.5963 17.653 79.7783 16.8625 79.8946 15.8032C80.011 14.7403 80.0704 13.414 80.0704 11.8206V7.67413H89.5185V7.67236Z" fill="#404040"/>
<path d="M62.25 21.4984L68.019 7.67188H70.2075L75.9765 21.4984H73.6921L72.197 17.8454H66.0303L64.5353 21.4984H62.25ZM69.1164 10.1413L66.8258 15.8679H71.4016L69.1164 10.1413Z" fill="#404040"/>
<path d="M140.715 6.56317L136.238 1.9082H138.869L140.715 3.82325L142.555 1.9126H145.19L140.715 6.56317Z" fill="#404040"/>
<path d="M198.061 6.56647L193.586 1.91943H196.222L198.061 3.82742L199.9 1.91943H202.538L198.061 6.56647Z" fill="#404040"/>
<path d="M24.0854 54L23.7463 53.8658C16.4835 50.9933 10.4589 46.5698 6.32451 41.0736C2.18746 35.5734 0 29.0824 0 22.3037V0H48.1701V22.3037C48.1701 29.0824 45.9833 35.5734 41.8456 41.0736C37.7112 46.5698 31.6872 50.9933 24.4246 53.8658L24.0854 54ZM1.83299 1.81886V22.3037C1.83299 35.3088 10.1431 46.4019 24.0854 52.0402C38.0276 46.4019 46.3378 35.3088 46.3378 22.3037V1.81886H1.83299Z" fill="#404040"/>
<path d="M25.0002 0.909424H23.168V52.9615H25.0002V0.909424Z" fill="#404040"/>
<path d="M1.46302 18.5557L0.421875 20.0532L23.5634 35.907L24.6045 34.4095L1.46302 18.5557Z" fill="#404040"/>
<path d="M1.46302 10.1208L0.421875 11.6183L23.5634 27.4722L24.6045 25.9747L1.46302 10.1208Z" fill="#404040"/>
<path d="M1.46302 1.68555L0.421875 3.18301L23.5634 19.0369L24.6045 17.5394L1.46302 1.68555Z" fill="#404040"/>
<path d="M1.8263 27.2393L0.785156 28.7367L23.5637 44.342L24.6048 42.8445L1.8263 27.2393Z" fill="#404040"/>
<path d="M35.9239 25.95H29.2422V16.6355H35.9239V25.95ZM31.0751 24.1305H34.0915V18.4544H31.0751V24.1305Z" fill="#404040"/>
<path d="M35.9239 39.5232H29.2422V30.2087H35.9239V39.5232ZM31.0751 37.7037H34.0915V32.0276H31.0751V37.7037Z" fill="#404040"/>
<path d="M47.4231 13.7049H40.8194L32.5806 8.64525L24.5657 13.5694L23.6016 12.0224L32.5806 6.50562L41.3404 11.8861H47.4231V13.7049Z" fill="#404040"/>
</g>
<defs>
<clipPath id="clip0_3133_4627">
<rect width="204" height="54" fill="white"/>
</clipPath>
</defs>
</svg>
