<svg width="94" height="68" viewBox="0 0 94 68" fill="none" xmlns="http://www.w3.org/2000/svg">
<g clip-path="url(#clip0_3133_5084)">
<path d="M46.8057 67.9758C31.9908 67.9758 17.1746 67.9758 2.35973 67.9758C2.09474 67.9758 1.82975 67.9831 1.56598 67.9648C0.563424 67.894 -0.0324948 67.2888 -0.000745011 66.3835C0.0297836 65.5172 0.650125 64.9645 1.64536 64.962C5.38938 64.9547 9.13463 64.9559 12.8787 64.962C14.5797 64.9645 14.5797 64.9718 14.5785 63.2489C14.5773 59.1614 14.5748 55.0739 14.5736 50.9877C14.5736 50.1238 14.5358 50.0787 13.6858 49.9274C8.5265 49.0098 4.30623 44.6758 3.43067 39.5097C2.98129 36.8596 3.38182 34.2863 3.87517 31.7094C5.19889 24.7899 7.59599 18.1999 10.1555 11.6684C11.5122 8.2081 13.0289 4.80999 14.5126 1.4009C14.7116 0.943349 15.0731 0.484574 15.4834 0.208821C16.0829 -0.195048 16.8144 0.0233587 17.2748 0.601708C17.4372 0.805473 17.5764 1.03852 17.6839 1.27767C21.2777 9.24523 24.5968 17.3202 26.9523 25.7514C27.7082 28.4552 28.3212 31.2127 28.7841 33.9813C29.4777 38.1237 28.8769 42.0428 26.1122 45.4067C24.2292 47.6982 21.826 49.1709 18.9282 49.8237C17.6851 50.1031 17.6497 50.1287 17.6497 51.3793C17.6497 55.5266 17.6497 59.6751 17.6497 63.8224C17.6497 64.8534 17.7681 64.9645 18.8171 64.9645C22.0324 64.9645 25.2476 64.9645 28.4629 64.9645C29.325 64.9645 29.5167 64.779 29.6682 63.9383C29.8623 62.8597 30.0919 61.7872 30.308 60.7122C30.4521 59.9985 30.3593 59.8838 29.645 59.8801C29.3812 59.8789 29.1113 59.8813 28.8573 59.8252C27.983 59.6336 27.5641 59.0431 27.6301 58.1414C27.6838 57.4056 28.3212 56.831 29.1846 56.8017C30.0174 56.7724 30.8527 56.7968 31.6879 56.7919C32.3327 56.7895 32.5049 56.5845 32.478 55.939C32.4548 55.3729 32.4548 54.8043 32.4707 54.2369C32.489 53.5878 32.3181 53.3889 31.6757 53.3816C31.3301 53.3779 30.9821 53.3987 30.6378 53.3694C29.8501 53.3035 29.2725 52.713 29.2176 51.9455C29.1638 51.1988 29.684 50.5313 30.479 50.3898C30.8966 50.3154 31.3301 50.3288 31.7539 50.2824C32.351 50.2165 32.5427 49.9371 32.5183 49.2734C32.4976 48.7182 32.2497 48.4583 31.677 48.501C31.3326 48.5266 30.9846 48.5218 30.6402 48.4973C29.8355 48.44 29.2383 47.8092 29.2176 47.0185C29.198 46.2523 29.7353 45.6398 30.5425 45.5336C30.8637 45.4909 31.1909 45.4689 31.5145 45.4689C40.6524 45.4653 49.7902 45.4628 58.928 45.475C59.4702 45.475 60.027 45.5373 60.5497 45.6751C61.2323 45.8557 61.4924 46.3121 61.4765 47.0612C61.4631 47.7152 61.1285 48.2057 60.4911 48.357C60.0429 48.4644 59.5691 48.4754 59.1051 48.4998C58.4322 48.5352 58.2368 48.7633 58.2637 49.5369C58.2857 50.1628 58.4994 50.3434 59.1405 50.3349C59.5239 50.33 59.9171 50.3264 60.2896 50.4032C61.1517 50.5789 61.5461 51.156 61.4716 52.0468C61.4118 52.7642 60.822 53.312 60.0405 53.3755C58.8682 53.4715 58.282 54.1023 58.282 55.2679C58.282 56.2823 58.7912 56.7895 59.8097 56.7895C60.3384 56.7895 60.8684 56.7797 61.3972 56.7919C62.4022 56.8163 63.1141 57.4374 63.1434 58.3012C63.1739 59.1688 62.4889 59.813 61.468 59.8764C61.2848 59.8874 61.1016 59.8923 60.9209 59.913C60.5289 59.957 60.3262 60.1681 60.4031 60.5719C60.6498 61.8653 60.8721 63.1635 61.1871 64.441C61.2421 64.6655 61.6927 64.9278 61.9699 64.9388C63.2704 64.9901 64.5733 64.9571 65.8763 64.9596C66.3965 64.9596 66.5821 64.7058 66.5785 64.1958C66.5638 62.041 66.5736 59.885 66.5736 57.729C66.5736 47.9885 66.5687 38.2481 66.5895 28.5077C66.5907 27.6414 66.3306 27.0716 65.5393 26.6409C64.1264 25.8722 63.3937 24.6179 63.3669 23.0048C63.3314 20.8513 63.3522 18.6965 63.3217 16.5429C63.2985 14.8481 64.1887 14.5553 65.549 14.6334C66.2646 14.6749 66.5748 14.382 66.5809 13.8086C66.5882 13.0191 66.4002 12.8264 65.5637 12.8325C64.8115 12.8373 64.058 12.8471 63.3058 12.8251C62.3631 12.7983 61.722 12.187 61.7061 11.3329C61.689 10.4422 62.2605 9.80894 63.2338 9.80162C66.5089 9.77721 69.7852 9.78453 73.0615 9.80772C73.8992 9.81382 74.522 10.5117 74.5147 11.3122C74.5074 12.0992 73.8748 12.7776 73.0371 12.8166C72.1847 12.8569 71.3287 12.8349 70.4739 12.8337C69.7742 12.8337 69.6069 12.9801 69.6081 13.6146C69.6106 14.5565 69.6643 14.6041 70.4703 14.6017C70.8757 14.6017 71.2848 14.6346 71.6841 14.7029C72.3215 14.8115 72.8161 15.2715 72.821 15.9597C72.8417 18.4781 72.8649 21.0001 72.7477 23.5148C72.6805 24.9461 71.8147 26.0357 70.5557 26.6909C69.7766 27.096 69.5715 27.6524 69.5752 28.4577C69.6032 35.8176 69.6167 43.1787 69.6203 50.5399C69.6216 54.9117 69.5959 59.2822 69.5849 63.654C69.5825 64.8461 69.7119 64.9632 70.9184 64.962C73.4413 64.9584 75.9654 64.9608 78.4883 64.962C79.4139 64.962 79.591 64.7936 79.5922 63.8578C79.5934 60.0765 79.5849 56.2953 79.5922 52.5141C79.5934 51.843 79.2332 51.5526 78.6397 51.3684C76.184 50.6045 74.4036 49.094 73.5085 46.6342C72.9492 45.0992 72.9968 43.5228 73.2154 41.9403C73.7857 37.8101 74.7174 33.7665 76.1681 29.8511C76.714 28.3759 77.3563 26.9569 78.4199 25.7636C80.044 23.9407 82.0479 23.8711 83.6659 25.6952C84.3034 26.4139 84.8566 27.2607 85.2461 28.1392C87.4271 33.0515 88.6726 38.2115 89.0426 43.568C89.2991 47.287 87.344 50.053 83.7111 51.3147C82.9768 51.5693 82.6088 52.0895 82.6072 52.8752C82.6072 56.5552 82.6072 60.2364 82.6072 63.9164C82.6072 64.8205 82.7586 64.9645 83.6794 64.9632C86.4062 64.9571 89.133 64.9449 91.8598 64.9535C92.2591 64.9547 92.6853 64.9913 93.0517 65.1328C93.6256 65.3537 93.998 65.7319 94.0017 66.4579C94.0054 67.1876 93.639 67.5634 93.0553 67.7769C92.6633 67.9209 92.2237 67.9929 91.8049 67.9929C82.3214 68.0051 72.8381 68.0026 63.3534 68.0026C57.8387 68.0026 52.3241 68.0026 46.8081 68.0026C46.8081 67.9941 46.8081 67.9868 46.8081 67.9782L46.8057 67.9758ZM17.8109 33.4615C17.8805 33.4639 17.9501 33.4664 18.0197 33.4688C18.2908 33.1442 18.5484 32.8075 18.8354 32.4988C19.264 32.0388 19.6743 31.5495 20.164 31.1627C20.7856 30.6722 21.4963 30.7601 22.0446 31.286C22.6136 31.8326 22.7089 32.4793 22.279 33.1577C22.0959 33.4468 21.8614 33.708 21.6184 33.952C20.5438 35.0343 19.4765 36.1238 18.3701 37.1744C17.8573 37.6612 17.635 38.2042 17.6423 38.9021C17.668 41.3009 17.6643 43.6985 17.6729 46.0973C17.6765 46.8965 17.7584 46.9612 18.5094 46.7721C22.8664 45.6703 25.962 41.7682 25.9559 37.2781C25.9522 34.0655 25.2171 30.9614 24.3782 27.8805C22.3352 20.3791 19.4716 13.1765 16.4163 6.04356C16.3492 5.88616 16.249 5.74219 16.1257 5.52134C15.9962 5.74707 15.9034 5.87762 15.8424 6.0216C13.173 12.2834 10.5915 18.5781 8.68769 25.1242C7.65705 28.67 6.60931 32.2145 6.33821 35.9286C6.09765 39.212 7.00007 42.0733 9.40329 44.3928C10.6134 45.5605 12.0361 46.3609 13.67 46.7696C14.3904 46.949 14.5809 46.7952 14.5809 46.0985C14.5809 45.2652 14.5541 44.4306 14.5846 43.5985C14.6066 43.0006 14.3953 42.5479 13.9765 42.1379C12.886 41.0715 11.8114 39.9893 10.7417 38.9021C10.473 38.6288 10.2105 38.3347 10.0078 38.0114C9.56448 37.3086 9.6524 36.6814 10.2178 36.1385C10.76 35.6187 11.3779 35.5199 12.0275 36.014C12.6186 36.463 13.1107 37.0451 13.6394 37.5758C13.858 37.7954 14.0558 38.0358 14.4014 38.4202C14.4796 37.9175 14.5675 37.6112 14.5699 37.3049C14.5834 35.2112 14.5748 33.1174 14.5834 31.0236C14.5883 29.9645 15.1158 29.3191 15.9743 29.2825C17.0269 29.2373 17.5727 29.7486 17.6521 30.915C17.6949 31.5422 17.6582 32.1754 17.6814 32.8038C17.6887 33.0234 17.7669 33.2406 17.8121 33.4603L17.8109 33.4615ZM82.5925 46.5988H82.6109C82.6109 46.8624 82.6121 47.1271 82.6109 47.3907C82.6023 48.4546 82.7598 48.5449 83.7013 48.0154C83.8076 47.9556 83.9138 47.8946 84.0127 47.825C85.6356 46.6732 86.151 45.1407 85.9336 43.1604C85.3829 38.1578 84.2716 33.3199 82.1346 28.7432C81.9099 28.2637 81.7121 27.678 81.1028 27.6621C80.4433 27.6463 80.2577 28.271 80.0269 28.7627C78.5029 32.0156 77.4344 35.4162 76.8373 38.9521C76.5503 40.6481 76.2658 42.3673 76.2414 44.0804C76.2169 45.8142 76.9936 47.2687 78.6275 48.1118C79.4249 48.523 79.5678 48.4132 79.5617 47.5273C79.5568 46.7574 79.5531 45.9826 79.6215 45.2164C79.7009 44.3196 80.2589 43.8474 81.1076 43.8584C81.9136 43.8681 82.5107 44.4123 82.5864 45.2591C82.6255 45.702 82.5938 46.1522 82.5938 46.5988H82.5925ZM45.3721 64.962V64.9584C49.0135 64.9584 52.655 64.9584 56.2964 64.9584C56.6823 64.9584 57.0694 64.9669 57.4553 64.9559C57.8851 64.9437 58.1049 64.718 58.0158 64.2848C57.7569 63.0183 57.4675 61.7591 57.2184 60.4902C57.1231 60.0058 56.8447 59.8728 56.4002 59.8728C49.0355 59.8752 41.672 59.8728 34.3073 59.8679C33.8225 59.8679 33.5661 60.0692 33.4733 60.5573C33.2644 61.6493 33.0263 62.7365 32.787 63.8236C32.572 64.8034 32.6942 64.9608 33.7126 64.9608C37.5983 64.9608 41.484 64.9608 45.3696 64.9608L45.3721 64.962ZM45.4063 53.3743C42.4157 53.3743 39.4251 53.3718 36.4345 53.3767C35.675 53.3779 35.4539 53.6268 35.4857 54.3711C35.5016 54.7555 35.5358 55.1423 35.5028 55.523C35.4088 56.5918 35.5748 56.7907 36.6372 56.7907C42.1104 56.7907 47.5824 56.7882 53.0555 56.787C53.3608 56.787 53.6673 56.7968 53.9702 56.7773C54.8701 56.7175 55.151 56.4198 55.1766 55.5205C55.1876 55.1349 55.206 54.7482 55.2011 54.3626C55.1889 53.5109 55.0472 53.3767 54.1973 53.3767C51.2678 53.3767 48.3382 53.3767 45.4087 53.3767L45.4063 53.3743ZM45.3464 48.501C42.3791 48.501 39.4117 48.4998 36.4443 48.5022C35.7605 48.5022 35.5089 48.7219 35.482 49.3124C35.4454 50.1006 35.686 50.3239 36.614 50.3227C41.777 50.3178 46.9388 50.3068 52.1018 50.3019C52.8736 50.3019 53.6478 50.3483 54.4171 50.3019C54.6723 50.2861 55.0448 50.1043 55.1376 49.8981C55.5015 49.0806 55.0814 48.501 54.19 48.501C51.2433 48.4998 48.2955 48.501 45.3489 48.501H45.3464ZM69.7669 20.4852H69.7693C69.7693 19.7544 69.7656 19.0223 69.7705 18.2914C69.7742 17.8875 69.5751 17.6825 69.1819 17.6789C68.4505 17.6716 67.7202 17.6716 66.9888 17.6789C66.5943 17.6825 66.3697 17.9241 66.3697 18.2914C66.3672 19.7727 66.3245 21.26 66.4307 22.7352C66.5125 23.8797 67.2391 24.3946 68.3296 24.3079C69.1648 24.2408 69.751 23.5087 69.7657 22.4936C69.7754 21.8237 69.7681 21.1526 69.7681 20.4828L69.7669 20.4852Z" fill="#1C54AD"/>
</g>
<defs>
<clipPath id="clip0_3133_5084">
<rect width="94" height="68" fill="white"/>
</clipPath>
</defs>
</svg>
