<svg width="68" height="66" viewBox="0 0 68 66" fill="none" xmlns="http://www.w3.org/2000/svg">
<g clip-path="url(#clip0_3133_5028)">
<path d="M7.4544 26.1265C7.4544 24.6482 7.4544 23.2397 7.4544 21.7988C8.28232 21.7988 9.07779 21.7988 9.934 21.7988C9.934 23.2281 9.934 24.6574 9.934 26.1265C10.1578 26.1265 10.3226 26.1265 10.4865 26.1265C16.7271 26.1265 22.9669 26.1307 29.2074 26.1174C29.6043 26.1166 29.8798 26.232 30.1477 26.5135C30.7967 27.1954 31.4657 27.8598 32.1455 28.5117C32.3735 28.7301 32.4659 28.9535 32.465 29.2699C32.4567 36.5359 32.4584 43.8027 32.4584 51.0687C32.4584 55.8573 32.4584 60.6467 32.4584 65.4353C32.4584 65.5998 32.4584 65.7642 32.4584 65.9644C32.3153 65.9785 32.1979 65.9993 32.0798 65.9993C22.7755 65.9876 13.4703 65.976 4.16603 65.9594C3.5428 65.9586 2.91874 65.9262 2.29551 65.8954C1.15307 65.8381 0.216979 65.0027 0.150412 63.8707C0.0605477 62.3517 0.0206079 60.8286 0.0181117 59.3072C0.00147007 49.2175 -0.00102617 39.127 0.00479839 29.0374C0.00479839 28.8339 0.112137 28.5781 0.256918 28.4361C0.849359 27.8548 1.47009 27.3025 2.08999 26.7494C2.51019 26.3748 3.01859 26.2096 3.57775 26.1971C4.68691 26.1722 5.79524 26.1498 6.9044 26.1282C7.06832 26.1232 7.23224 26.1265 7.4544 26.1265ZM29.8939 63.487C29.8939 54.3715 29.8939 45.276 29.8939 36.1273C20.7261 36.1273 11.6273 36.1273 2.52017 36.1273C2.52017 45.2461 2.52017 54.3583 2.52017 63.4771C4.80756 63.4771 7.06915 63.4771 9.38316 63.4771C9.38316 59.5289 9.38316 55.6214 9.38316 51.7098C10.2211 51.7098 11.0057 51.7098 11.8453 51.7098C11.8453 55.6414 11.8453 59.5488 11.8453 63.487C17.9061 63.487 23.9129 63.487 29.8939 63.487ZM29.9613 33.5619C29.9613 32.714 29.9039 31.9076 29.9771 31.1128C30.0578 30.2399 29.7966 29.583 29.1425 29.0017C28.8488 28.7409 28.5967 28.6122 28.2081 28.613C20.444 28.6238 12.6799 28.6363 4.91656 28.603C4.02291 28.5989 3.28569 28.7409 2.73568 29.4634C2.62169 29.6129 2.51019 29.8114 2.50686 29.99C2.48523 31.0688 2.49438 32.1484 2.49604 33.2281C2.49604 33.3344 2.51435 33.4398 2.52517 33.5627C11.6681 33.5619 20.7851 33.5619 29.9613 33.5619Z" fill="#1C54AD"/>
<path d="M49.2726 65.9784C44.4865 65.9784 39.7487 65.9784 34.975 65.9784C34.975 65.1811 34.975 64.3872 34.975 63.5409C38.8825 63.5409 42.7974 63.5409 46.7473 63.5409C46.7473 43.1797 46.7473 22.8701 46.7473 2.5222C36.3529 2.5222 25.9511 2.5222 15.5119 2.5222C15.5119 9.55232 15.5119 16.5642 15.5119 23.6125C14.6798 23.6125 13.8851 23.6125 13.0398 23.6125C13.0314 23.4738 13.0156 23.3285 13.0156 23.184C13.0364 16.1672 13.0581 9.14953 13.0805 2.1327C13.0839 1.08711 13.9617 0.136201 15.0184 0.110456C17.1527 0.0573044 19.2887 0.0207628 21.423 0.0174408C29.9934 0.00249197 38.563 0.00415295 47.1334 4.92067e-07C48.1235 -0.00083 49.1886 1.04974 49.1903 2.02557C49.2177 23.0636 49.2452 44.1008 49.2735 65.1388C49.2735 65.412 49.2726 65.6852 49.2726 65.9784Z" fill="#1C54AD"/>
<path d="M51.7715 65.9801C51.7715 65.1496 51.7715 64.3639 51.7715 63.5235C55.6989 63.5235 59.6147 63.5235 63.5612 63.5235C63.5612 50.6484 63.5612 37.8281 63.5612 24.9239C59.6521 24.9239 55.7638 24.9239 51.8164 24.9239C51.8164 24.0726 51.8164 23.3036 51.8164 22.4465C56.318 22.4465 60.8578 22.4465 65.3968 22.4465C65.4134 22.4042 65.4301 22.361 65.4475 22.3186C65.3344 22.1932 65.227 22.062 65.108 21.9424C61.8272 18.6412 58.5471 15.34 55.2562 12.0488C55.1289 11.9217 54.9001 11.8395 54.7162 11.8362C53.7493 11.8154 52.7808 11.8262 51.7856 11.8262C51.7856 10.9924 51.7856 10.1968 51.7856 9.33805C52.0619 9.33805 52.334 9.3339 52.6052 9.33888C53.4365 9.353 54.2686 9.37127 55.0998 9.38539C55.6681 9.39535 56.1399 9.60547 56.5501 10.0033C58.2309 11.6327 59.935 13.238 61.6033 14.8791C63.6577 16.8988 65.683 18.9485 67.7283 20.9774C67.9196 21.1676 68.0137 21.3561 67.9979 21.6277C67.9662 22.1658 67.9754 22.7056 67.9421 23.2438C67.8905 24.0851 67.3547 24.5801 66.6283 24.845C66.2613 24.9787 66.1831 25.1722 66.1806 25.5011C66.1631 27.3414 66.119 29.1826 66.1165 31.023C66.1015 41.8601 66.0957 52.6972 66.0857 63.5343C66.0849 64.6305 65.0565 65.8156 63.949 65.8895C62.7333 65.9701 61.5118 65.9792 60.292 65.9867C57.5744 66.0025 54.856 65.9975 52.1384 65.9992C52.0294 66 51.9204 65.9884 51.7715 65.9801Z" fill="#1C54AD"/>
<path d="M56.7127 48.0215C55.8923 48.0215 55.1051 48.0215 54.2997 48.0215C54.2847 47.9766 54.2539 47.9276 54.2539 47.8778C54.2705 45.5707 54.2947 43.2628 54.3038 40.9557C54.3055 40.6035 54.4303 40.4574 54.7864 40.4657C55.4196 40.4798 56.0529 40.4698 56.7127 40.4698C56.7127 42.9862 56.7127 45.4802 56.7127 48.0215Z" fill="#1C54AD"/>
<path d="M56.7141 29.2341C56.7141 31.7471 56.7141 34.2552 56.7141 36.76C55.9311 36.76 55.1639 36.76 54.3859 36.76C54.3568 36.6495 54.3268 36.5864 54.326 36.5233C54.3102 34.2984 54.301 32.0727 54.2794 29.8478C54.2752 29.4508 54.3876 29.2183 54.8352 29.2299C55.4535 29.2457 56.0717 29.2341 56.7141 29.2341Z" fill="#1C54AD"/>
<path d="M56.7149 51.708C56.7149 54.1854 56.7149 56.6279 56.7149 59.1094C55.9078 59.1094 55.1023 59.1094 54.2819 59.1094C54.2711 59.0512 54.252 58.9989 54.252 58.9474C54.2694 56.7084 54.2936 54.4694 54.3002 52.2304C54.301 51.865 54.4309 51.7022 54.7953 51.7064C55.4185 51.713 56.0401 51.708 56.7149 51.708Z" fill="#1C54AD"/>
<path d="M32.4399 6.87817C32.4399 8.73183 32.4399 10.5398 32.4399 12.3777C31.6261 12.3777 30.829 12.3777 29.9961 12.3777C29.9961 10.5573 29.9961 8.73017 29.9961 6.87817C30.8065 6.87817 31.6028 6.87817 32.4399 6.87817Z" fill="#1C54AD"/>
<path d="M32.4282 21.7447C31.612 21.7447 30.8165 21.7447 29.9902 21.7447C29.9902 19.9126 29.9902 18.0972 29.9902 16.2427C30.7865 16.2427 31.5928 16.2427 32.4282 16.2427C32.4282 18.0656 32.4282 19.8927 32.4282 21.7447Z" fill="#1C54AD"/>
<path d="M20.6465 12.3784C20.6465 10.5331 20.6465 8.71844 20.6465 6.85565C21.4178 6.85565 22.1617 6.85067 22.9056 6.86396C22.9755 6.86562 23.1036 6.9877 23.1044 7.05414C23.1153 8.81893 23.1136 10.5837 23.1136 12.3776C22.279 12.3784 21.4844 12.3784 20.6465 12.3784Z" fill="#1C54AD"/>
<path d="M39.3574 12.3744C39.3574 10.5415 39.3574 8.73271 39.3574 6.88818C40.1654 6.88818 40.9608 6.88818 41.7921 6.88818C41.7921 8.70447 41.7921 10.5224 41.7921 12.3744C40.9966 12.3744 40.202 12.3744 39.3574 12.3744Z" fill="#1C54AD"/>
<path d="M20.6406 21.7697C20.6406 19.8952 20.6406 18.0765 20.6406 16.2319C21.4594 16.2319 22.2574 16.2319 23.0836 16.2319C23.0944 16.3432 23.1127 16.4495 23.1127 16.5558C23.1152 18.1603 23.1077 19.7648 23.1211 21.3694C23.1235 21.6692 23.052 21.7871 22.7291 21.7763C22.041 21.753 21.3521 21.7697 20.6406 21.7697Z" fill="#1C54AD"/>
<path d="M39.3613 21.7331C39.3613 19.8919 39.3613 18.0739 39.3613 16.2302C40.1793 16.2302 40.9756 16.2302 41.8002 16.2302C41.8002 18.0606 41.8002 19.8786 41.8002 21.7331C40.9989 21.7331 40.2051 21.7331 39.3613 21.7331Z" fill="#1C54AD"/>
<path d="M39.373 25.5518C40.1361 25.5518 40.8683 25.5452 41.5997 25.5618C41.6771 25.5635 41.8169 25.7005 41.8177 25.7761C41.8302 27.5292 41.8277 29.2832 41.8277 31.0713C40.9948 31.0713 40.201 31.0713 39.3739 31.0713C39.373 29.25 39.373 27.4329 39.373 25.5518Z" fill="#1C54AD"/>
<path d="M39.3711 34.9148C40.1924 34.9148 40.9778 34.9148 41.8041 34.9148C41.8124 35.0651 41.8266 35.1988 41.8266 35.3325C41.8282 36.8955 41.8182 38.4577 41.8374 40.0198C41.8415 40.372 41.73 40.4691 41.3897 40.4567C40.7282 40.4326 40.065 40.45 39.3719 40.45C39.3711 38.5939 39.3711 36.7776 39.3711 34.9148Z" fill="#1C54AD"/>
<path d="M41.8276 49.7779C40.9664 49.7779 40.181 49.7779 39.3672 49.7779C39.3672 47.9425 39.3672 46.1254 39.3672 44.2327C39.9255 44.2327 40.4855 44.2327 41.0455 44.2327C41.8235 44.2319 41.8252 44.2319 41.826 45.0242C41.8276 46.4618 41.8276 47.8993 41.8276 49.3361C41.8276 49.4715 41.8276 49.6068 41.8276 49.7779Z" fill="#1C54AD"/>
<path d="M41.7897 59.1253C40.9801 59.1253 40.1963 59.1253 39.375 59.1253C39.375 57.2974 39.375 55.4794 39.375 53.6274C40.1588 53.6274 40.9551 53.6274 41.7897 53.6274C41.7897 55.4479 41.7897 57.275 41.7897 59.1253Z" fill="#1C54AD"/>
<path d="M18.7344 59.1483C18.7344 56.6336 18.7344 54.1878 18.7344 51.7146C19.5498 51.7146 20.3461 51.7146 21.1765 51.7146C21.1865 51.8417 21.204 51.9621 21.204 52.0817C21.2057 54.2958 21.1998 56.5099 21.2115 58.7239C21.2131 59.0345 21.1499 59.1699 20.8021 59.1558C20.1264 59.1292 19.4491 59.1483 18.7344 59.1483Z" fill="#1C54AD"/>
<path d="M9.38672 40.4666C10.2013 40.4666 10.9876 40.4666 11.8122 40.4666C11.8122 42.929 11.8122 45.3806 11.8122 47.8637C11.0084 47.8637 10.2113 47.8637 9.38672 47.8637C9.38672 45.398 9.38672 42.9431 9.38672 40.4666Z" fill="#1C54AD"/>
<path d="M18.7383 40.469C19.5587 40.469 20.355 40.469 21.1779 40.469C21.1779 42.9339 21.1779 45.3739 21.1779 47.8546C20.3692 47.8546 19.5645 47.8546 18.7383 47.8546C18.7383 45.3946 18.7383 42.9422 18.7383 40.469Z" fill="#1C54AD"/>
</g>
<defs>
<clipPath id="clip0_3133_5028">
<rect width="68" height="66" fill="white"/>
</clipPath>
</defs>
</svg>
