<svg width="77" height="55" viewBox="0 0 77 55" fill="none" xmlns="http://www.w3.org/2000/svg">
<g clip-path="url(#clip0_3133_5026)">
<path d="M45.4087 45.3495C45.396 45.5804 45.4261 45.8032 45.3671 46.0003C44.9919 47.2681 45.6125 48.0939 46.4832 48.9056C47.7985 50.1326 49.0548 51.4284 50.2844 52.744C50.5681 53.0484 50.8008 53.5674 50.7719 53.9663C50.7024 54.9273 49.5596 55.3227 48.7896 54.6964C48.4168 54.392 48.0926 54.0257 47.7511 53.6828C46.4392 52.3661 45.1378 51.0376 43.8074 49.7384C43.6303 49.5657 43.3096 49.4374 43.0664 49.4526C38.1525 49.7535 33.2792 49.4876 28.4417 48.5219C24.2665 47.688 20.3148 46.2954 16.6503 44.0829C12.0247 41.2896 8.68777 37.3357 6.2563 32.5457C3.67084 27.4512 2.15638 22.0115 1.15832 16.4085C0.513401 12.7894 0.123208 9.1412 0.00279254 5.46614C-0.0423633 4.09572 0.455509 3.63619 1.83218 3.76915C5.01509 4.07822 8.21074 4.30565 11.3751 4.75235C15.8328 5.381 20.1713 6.55081 24.3673 8.20582C29.0681 10.0591 33.3544 12.5713 36.8477 16.3164C36.9264 16.4015 36.9866 16.5042 37.0758 16.6266C37.1881 16.5018 37.261 16.4423 37.3073 16.3677C40.5238 11.1601 45.1633 7.69847 50.6642 5.2807C56.2739 2.8151 62.1523 1.37237 68.2067 0.63409C70.5582 0.347176 72.9272 0.192056 75.2903 0.0101101C76.5281 -0.0855278 77.0491 0.434649 76.997 1.68494C76.7677 7.21328 76.0209 12.6693 74.6373 18.0262C73.4737 22.5317 71.862 26.8576 69.5 30.8883C66.0936 36.7024 61.1832 40.6458 54.9389 42.9749C52.0548 44.0514 49.0803 44.7652 46.0421 45.2212C45.836 45.2515 45.6334 45.3029 45.4087 45.3495ZM42.7214 45.1431C42.8024 45.1046 42.8846 45.0661 42.9657 45.0276C42.887 42.9726 42.8661 40.914 42.7168 38.8636C42.3902 34.3873 41.5253 30.0218 39.8395 25.8452C37.987 21.2569 35.1885 17.4221 31.1048 14.5774C27.3985 11.9952 23.3055 10.2935 19.0088 9.03157C14.6472 7.75095 10.1883 6.98235 5.67506 6.51466C4.64921 6.40852 3.61873 6.3607 2.58941 6.28606C2.58941 6.75609 2.55815 7.14447 2.5952 7.52702C2.76309 9.24734 2.91477 10.97 3.13707 12.6833C3.80862 17.8384 4.94446 22.8851 6.84564 27.7311C8.27095 31.3642 10.0888 34.7722 12.7286 37.6856C15.8977 41.1834 19.8575 43.3994 24.2677 44.841C29.6609 46.6033 35.2209 47.197 40.8712 47.0453C40.9175 47.0442 40.9626 47.001 41.0055 46.98C40.9962 46.9427 40.9974 46.9182 40.9858 46.9065C37.8179 43.6945 34.6512 40.4825 31.473 37.2809C31.3606 37.1678 31.1314 37.1118 30.9635 37.1235C30.1171 37.1818 29.2731 37.2716 28.429 37.3497C26.4132 37.5364 24.3974 37.7311 22.3804 37.9061C21.5352 37.9796 20.9296 37.4932 20.8694 36.7374C20.8139 36.047 21.3812 35.4848 22.1917 35.416C23.6332 35.2924 25.0736 35.1676 26.5139 35.0346C27.307 34.9611 28.0978 34.8725 28.8898 34.7908C28.9245 34.7314 28.9593 34.6719 28.994 34.6124C28.0735 33.7307 27.1565 32.8443 26.2245 31.9742C26.1156 31.8727 25.9142 31.8167 25.7625 31.8284C24.8211 31.9019 23.881 32.0045 22.9408 32.092C20.9632 32.2751 18.9856 32.4722 17.0057 32.6238C16.2346 32.6833 15.6835 32.1526 15.6429 31.4319C15.6047 30.7531 16.091 30.2154 16.8482 30.1407C18.0952 30.0183 19.3457 29.9156 20.5939 29.8025C21.6035 29.7115 22.6131 29.6159 23.6263 29.5226C23.6147 29.4328 23.6239 29.3826 23.6043 29.3616C22.4383 28.1732 21.2735 26.9823 20.096 25.8055C20.0045 25.7146 19.8193 25.6691 19.6838 25.6796C18.8374 25.7437 17.9933 25.8289 17.1493 25.9082C15.0941 26.1006 13.0413 26.3012 10.9849 26.4797C10.1906 26.5485 9.59667 26.0481 9.53068 25.3099C9.46815 24.5996 10.01 24.0397 10.8194 23.9686C12.1451 23.8508 13.4708 23.7318 14.7954 23.607C15.7078 23.5219 16.619 23.4274 17.6298 23.3271C17.4283 23.1078 17.3044 22.9656 17.1724 22.8314C15.4693 21.1123 13.7638 19.3931 12.0594 17.6751C11.6634 17.2763 11.2582 16.8879 10.8749 16.4773C10.318 15.8802 10.3006 15.1839 10.8089 14.6579C11.2964 14.1517 12.0363 14.175 12.6175 14.7162C12.731 14.8212 12.8363 14.9355 12.9452 15.0463C14.9494 17.0675 16.9536 19.0887 18.959 21.1088C19.0864 21.2371 19.2276 21.3514 19.4256 21.5287C19.634 19.2252 19.839 17.0232 20.0312 14.8212C20.111 13.9021 20.6193 13.3738 21.3986 13.4344C22.1338 13.4904 22.5691 14.0957 22.4916 14.9879C22.2484 17.7941 21.9891 20.5991 21.7633 23.4064C21.7436 23.6537 21.8536 23.9837 22.0215 24.161C23.0323 25.2305 24.0778 26.2674 25.1141 27.3124C25.2171 27.4162 25.3375 27.5025 25.5228 27.6565C25.5529 27.3871 25.5772 27.2028 25.5934 27.0173C25.7856 24.9285 25.9709 22.8384 26.1712 20.7507C26.2407 20.0288 26.7721 19.5529 27.4413 19.5716C28.136 19.5914 28.6212 20.1232 28.6235 20.8883C28.6247 21.1986 28.5969 21.51 28.5691 21.8191C28.3514 24.2182 28.1696 26.6208 27.8894 29.0117C27.7968 29.7978 27.9948 30.3087 28.5679 30.8184C29.3089 31.4773 29.9654 32.2343 30.7157 33.0064C30.7701 32.8139 30.7933 32.7626 30.7979 32.7101C30.9948 30.5245 31.1904 28.3376 31.385 26.1519C31.4475 25.4498 31.8006 25.0031 32.3819 24.8958C33.3047 24.7255 33.9241 25.339 33.8361 26.4027C33.6057 29.1902 33.3579 31.9765 33.0928 34.7605C33.0546 35.1676 33.1507 35.4428 33.439 35.7309C36.2595 38.5522 39.0661 41.3864 41.8739 44.2205C42.1668 44.5144 42.4389 44.834 42.7214 45.1431ZM43.8098 29.3325C43.7947 29.3453 43.7797 29.357 43.7646 29.3698C43.7472 29.1785 43.7287 28.9861 43.7113 28.7948C43.5261 26.7246 43.3327 24.6544 43.1614 22.583C43.0931 21.7526 43.5203 21.2126 44.244 21.1368C44.9757 21.061 45.5361 21.5636 45.6172 22.3894C45.7075 23.3178 45.7769 24.2473 45.8615 25.1757C45.9819 26.4983 46.1081 27.8209 46.2493 29.3313C47.1976 28.3528 48.044 27.5084 48.8487 26.6243C49.0247 26.4307 49.1486 26.0878 49.1277 25.8265C48.9008 22.9994 48.6299 20.1757 48.3925 17.3497C48.3196 16.4727 48.8001 15.8802 49.5399 15.837C50.2578 15.7962 50.7661 16.3012 50.8483 17.1701C51.044 19.2392 51.2269 21.3106 51.4191 23.3796C51.4342 23.5371 51.4689 23.6922 51.5094 23.9313C52.7761 22.6611 53.9698 21.4773 55.1393 20.2702C55.2562 20.1501 55.2701 19.8795 55.2539 19.6859C55.013 16.8401 54.7537 13.9966 54.5094 11.1519C54.4388 10.3227 54.9378 9.7162 55.6973 9.66488C56.3457 9.62056 56.8853 10.1419 56.9629 10.9187C57.0555 11.8459 57.1226 12.7766 57.2083 13.705C57.3287 15.0299 57.4561 16.3537 57.58 17.6786C57.6356 17.7148 57.69 17.7521 57.7456 17.7883C57.9505 17.5375 58.1381 17.2693 58.3638 17.0407C60.3634 15.0136 62.3735 12.9982 64.3719 10.97C64.7505 10.5863 65.2287 10.388 65.6779 10.6096C66.0299 10.7834 66.3611 11.1741 66.5127 11.5473C66.7142 12.0395 66.3969 12.4629 66.0345 12.8268C64.1067 14.7617 62.1894 16.7048 60.2685 18.6467C59.9895 18.9289 59.7162 19.217 59.3573 19.5891C60.0172 19.6579 60.5464 19.7185 61.0778 19.7663C62.8262 19.9273 64.5745 20.0789 66.3217 20.2457C67.0106 20.311 67.5108 20.8895 67.4772 21.5427C67.4448 22.1736 66.9191 22.688 66.2557 22.7101C65.9674 22.7195 65.6768 22.6973 65.3896 22.6716C62.7579 22.436 60.1272 22.1876 57.4931 21.973C57.25 21.9532 56.927 22.0745 56.7498 22.2448C55.6753 23.2781 54.631 24.343 53.5796 25.4008C53.4951 25.486 53.4349 25.5933 53.3203 25.7472C53.6618 25.7845 53.9282 25.8184 54.1945 25.8429C56.2103 26.0318 58.2284 26.2126 60.243 26.412C60.9389 26.4808 61.4067 27.0535 61.3661 27.723C61.3268 28.3644 60.815 28.8636 60.1481 28.8904C59.8795 28.9009 59.6074 28.8834 59.3387 28.8578C57.0543 28.6409 54.763 28.4741 52.4889 28.1732C51.3774 28.0262 50.5334 28.207 49.8386 29.1435C49.4265 29.6987 48.8695 30.1419 48.3809 30.6411C48.2825 30.7414 48.2026 30.8604 48.066 31.033C50.3562 31.2476 52.5596 31.4575 54.763 31.6581C55.6313 31.7374 56.1883 32.2553 56.1304 32.9877C56.0806 33.6082 55.5862 34.2543 54.631 34.1517C52.6175 33.9371 50.6005 33.733 48.5801 33.6164C47.2891 33.5417 45.9228 32.9142 44.787 33.9581C45.0371 36.8692 45.286 39.785 45.5396 42.7323C45.5708 42.7323 45.6658 42.7451 45.7573 42.73C48.8082 42.2366 51.8023 41.5333 54.6819 40.3728C58.1994 38.9558 61.3789 37.0208 63.9794 34.2135C67.072 30.8744 69.0982 26.8995 70.6289 22.6495C72.6991 16.8984 73.7701 10.9315 74.3224 4.85849C74.3907 4.11088 74.4243 3.36094 74.4752 2.5935C74.2066 2.5935 74.0179 2.583 73.8303 2.59467C70.0152 2.84543 66.2349 3.34927 62.4962 4.15986C57.6923 5.20255 53.0412 6.67328 48.7005 9.05256C44.6631 11.2651 41.3841 14.2683 39.0406 18.277C38.8507 18.6024 38.8611 18.824 39.0591 19.1575C39.9009 20.5711 40.8005 21.9649 41.4825 23.4566C42.3555 25.3693 43.0421 27.3696 43.8098 29.3325Z" fill="white"/>
</g>
<defs>
<clipPath id="clip0_3133_5026">
<rect width="77" height="55" fill="white"/>
</clipPath>
</defs>
</svg>
