<svg width="68" height="61" viewBox="0 0 68 61" fill="none" xmlns="http://www.w3.org/2000/svg">
<g clip-path="url(#clip0_3133_5048)">
<path d="M67.9992 35.5294C67.9703 37.0993 67.2558 38.9889 66.3915 40.8322C64.5409 44.7778 62.0623 48.3353 59.4517 51.8058C58.2724 53.3735 57.0142 54.8827 55.7916 56.4184C55.2302 57.124 54.4092 57.1173 53.7812 56.3533C52.6739 55.0062 51.5711 53.6546 50.5116 52.2699C48.3381 49.4312 46.2878 46.5075 44.5381 43.3865C43.4819 41.5024 42.5044 39.5765 41.9519 37.4785C41.2518 34.8173 41.6668 32.242 42.8151 29.7946C44.8011 25.5623 48.1683 22.9881 52.7849 22.2506C58.7794 21.2926 64.5165 24.5051 66.8864 29.9754C67.653 31.747 67.9881 33.3687 67.9992 35.5294ZM54.8241 53.9974C56.0423 52.4033 57.2117 50.9194 58.3301 49.397C60.752 46.1018 63.0509 42.7283 64.6918 38.9646C65.2332 37.7222 65.6837 36.4389 65.6626 35.062C65.6271 32.7292 64.9281 30.5949 63.4836 28.7506C60.8075 25.333 57.2483 23.8789 52.9724 24.5734C49.2479 25.1787 46.5374 27.3306 44.9364 30.746C44.0677 32.6003 43.6716 34.556 44.1442 36.6076C44.6002 38.5887 45.4545 40.4198 46.5185 42.1253C48.2127 44.8384 50.0001 47.4964 51.8152 50.1312C52.7161 51.4398 53.7668 52.6481 54.8241 53.9974Z" fill="#1C54AD"/>
<path d="M13.1421 0.00121464C18.6973 0.00121464 23.6134 3.45294 25.5317 8.48115C26.8364 11.9009 26.4769 15.1553 24.9492 18.391C23.3649 21.749 21.3933 24.8722 19.1932 27.8532C17.6688 29.9191 16.0512 31.9167 14.4735 33.9441C14.3603 34.0885 14.2394 34.2275 14.1151 34.3631C13.5515 34.9793 12.7904 35.0047 12.2678 34.352C10.6513 32.3335 9.01596 30.3259 7.47711 28.2489C5.31363 25.3297 3.30769 22.3046 1.74443 19.0149C0.991093 17.4296 0.330953 15.8146 0.0868676 14.0551C-0.167203 12.2272 0.160093 10.4711 0.755884 8.76669C1.90863 5.46709 4.1165 3.03291 7.20307 1.41564C9.08586 0.42896 11.1273 -0.0296536 13.1421 0.00121464ZM13.1421 31.9961C14.4824 30.2377 15.7194 28.6701 16.8955 27.0572C19.262 23.8127 21.4732 20.4768 23.1152 16.7913C24.2946 14.1455 24.3013 11.5382 23.1796 8.88354C21.0316 3.80242 15.1969 1.11578 9.92795 2.80912C5.52665 4.22355 2.53216 8.10633 2.32913 12.7145C2.25368 14.4453 2.83727 16.0483 3.62611 17.5355C4.79883 19.7436 6.01149 21.9452 7.39723 24.0244C9.18349 26.7033 11.1573 29.2599 13.1421 31.9961Z" fill="#1C54AD"/>
<path d="M21.7718 36.5469C24.3502 36.6946 26.9342 36.774 29.5048 37.0077C31.9379 37.2293 34.3577 37.6217 36.6133 38.6393C37.847 39.196 38.9498 39.9214 39.3626 41.3094C39.7353 42.5618 39.3026 43.6796 38.5637 44.6498C37.8215 45.6232 36.9306 46.4842 36.1417 47.4246C35.2198 48.5248 34.4054 49.6813 34.1347 51.1464C33.8662 52.5972 34.4842 53.6798 35.4927 54.596C36.8352 55.8142 38.4816 56.5021 40.1836 57.0445C43.5298 58.1116 46.978 58.6243 50.4795 58.8183C51.8975 58.8966 53.3165 58.9638 54.7344 59.0255C55.3779 59.0531 55.7751 59.396 55.7928 59.9714C55.8106 60.5634 55.4001 61.0077 54.7555 61.0011C53.5927 60.989 52.4256 60.9923 51.2695 60.8832C49.0516 60.6726 46.8305 60.4576 44.6304 60.1159C41.5338 59.6352 38.5049 58.8767 35.7723 57.2628C33.8851 56.1482 32.4228 54.693 32.1077 52.4043C31.8958 50.8609 32.3384 49.4332 33.1783 48.1886C34.0237 46.9351 35.0744 45.8206 36.0142 44.6288C36.4757 44.0434 36.9683 43.4625 37.3111 42.8087C37.7139 42.0403 37.4554 41.4461 36.6632 40.8971C35.5182 40.1022 34.1891 39.7969 32.8577 39.5323C30.3048 39.0229 27.7197 38.7881 25.118 38.744C22.8668 38.7065 20.6146 38.6801 18.3623 38.6966C16.9977 38.7065 15.633 38.7991 14.2695 38.8697C13.5228 38.9083 13.0235 38.5919 12.9714 38.0087C12.9159 37.3946 13.3686 36.9327 14.1263 36.8886C15.3601 36.8159 16.5949 36.7475 17.8309 36.7211C19.1412 36.6924 20.4537 36.7144 21.7651 36.7144C21.7673 36.6593 21.7695 36.6042 21.7707 36.548L21.7718 36.5469Z" fill="#1C54AD"/>
<path d="M47.5799 34.4323C47.662 30.7391 50.9949 27.2466 55.4694 27.6226C59.1596 27.9323 62.2517 31.0732 62.0586 35.1919C61.8778 39.0592 58.4551 42.2144 54.5985 42.0446C50.3292 41.8561 47.2959 38.2853 47.581 34.4334L47.5799 34.4323ZM49.9065 34.7994C49.8078 37.4453 52.0278 39.6744 54.7838 39.7262C57.4854 39.7769 59.7465 37.5037 59.7398 34.8138C59.7332 32.0974 57.5564 29.9663 54.8404 29.9068C52.202 29.8484 49.77 32.1955 49.9076 34.7994H49.9065Z" fill="#1C54AD"/>
<path d="M13.2068 19.8989C9.42234 20.0157 5.92304 16.8583 5.9297 12.722C5.93524 8.73999 9.1949 5.42938 13.1801 5.47458C17.334 5.52198 20.4539 8.74992 20.4528 12.7551C20.4517 16.8341 16.9557 20.0201 13.2068 19.8989ZM13.1446 17.5881C15.9183 17.5915 18.1517 15.4208 18.1306 12.7209C18.1085 9.99126 16.0082 7.83379 13.1757 7.78859C10.4708 7.7456 8.21523 10.0563 8.25517 12.7418C8.29844 15.6412 10.7271 17.662 13.1446 17.5881Z" fill="#1C54AD"/>
</g>
<defs>
<clipPath id="clip0_3133_5048">
<rect width="68" height="61" fill="white"/>
</clipPath>
</defs>
</svg>
