<svg width="70" height="69" viewBox="0 0 70 69" fill="none" xmlns="http://www.w3.org/2000/svg">
<g clip-path="url(#clip0_3133_5080)">
<path d="M32.3106 43.1221C32.8154 41.9103 33.3001 40.7488 33.845 39.4435C33.5453 39.1776 33.1423 38.8714 32.801 38.5063C31.6165 37.2341 31.6151 35.4545 32.8111 34.1909C33.5826 33.3744 34.3799 32.5795 35.206 31.8176C36.6501 30.485 38.3107 30.5396 39.7104 31.9254C40.5967 32.8023 40.5895 32.7879 41.7038 32.2848C42.352 31.9915 43.0145 31.7227 43.69 31.5042C44.0772 31.3791 44.1991 31.1951 44.1976 30.7941C44.1947 30.1788 44.189 29.542 44.3396 28.9526C44.6364 27.784 45.4596 27.0034 46.6355 26.8956C48.1012 26.7619 49.5955 26.7475 51.0625 26.8668C52.6314 26.9948 53.5463 28.093 53.674 29.68C53.6783 29.7275 53.6869 29.7749 53.6912 29.8223C53.7342 30.3326 53.6023 30.9781 53.8647 31.3145C54.1386 31.6652 54.7983 31.7011 55.2773 31.9024C55.7806 32.1137 56.2797 32.338 56.7601 32.5938C57.0985 32.7735 57.3495 32.808 57.6177 32.4645C57.8514 32.1655 58.1454 31.911 58.4279 31.6537C59.611 30.5813 61.4165 30.6015 62.5609 31.7112C63.3669 32.4932 64.1571 33.2953 64.9444 34.096C66.2953 35.4731 66.301 37.2154 64.9501 38.6126C64.6518 38.9203 64.3119 39.1876 64.038 39.4335C64.5055 40.6208 64.9128 41.7018 65.3688 42.7627C65.442 42.9323 65.7302 43.079 65.9367 43.1077C66.5462 43.1925 67.1829 43.1321 67.7738 43.273C69.1304 43.595 69.9851 44.7479 69.9937 46.1451C70.0009 47.3181 69.9995 48.4926 69.9937 49.6656C69.9866 51.231 68.8092 52.6311 67.2676 52.5736C65.8234 52.519 65.049 52.9546 64.7837 54.418C64.669 55.0476 64.2417 55.6211 63.9147 56.3068C64.2531 56.613 64.6059 56.9005 64.9243 57.224C66.1834 58.5033 66.2178 60.2801 64.996 61.5767C64.2259 62.3946 63.4314 63.191 62.624 63.9716C61.2717 65.2797 59.5967 65.2783 58.2214 63.996C57.1674 63.0128 57.1731 63.0243 55.8882 63.6208C55.3719 63.8609 54.8413 64.0837 54.2949 64.2332C53.76 64.3798 53.5994 64.6601 53.6338 65.2006C53.6668 65.7181 53.6467 66.2615 53.5234 66.7603C53.1864 68.1116 52.032 68.9827 50.6538 68.9913C49.4836 69 48.312 68.9971 47.1418 68.9913C45.5356 68.9841 44.2449 67.7378 44.1718 66.1293C44.0972 64.4876 44.0944 64.4977 42.557 63.9083C42.0709 63.7215 41.5876 63.5058 41.1402 63.2399C40.7372 62.9998 40.4791 63.0559 40.1636 63.3951C39.5656 64.0406 38.9503 64.6659 38.0211 64.8614C37.0574 65.0655 36.1969 64.8571 35.4957 64.2174C34.5262 63.3333 33.5883 62.4061 32.7064 61.4344C31.6093 60.224 31.6667 58.5608 32.7637 57.3461C33.1137 56.9595 33.6887 56.6101 33.7547 56.1818C33.8192 55.7534 33.356 55.256 33.1581 54.7745C32.8885 54.1161 32.8283 53.2148 32.3493 52.8453C31.8818 52.4845 30.997 52.6958 30.3029 52.5966C28.9678 52.4069 27.8822 51.1131 27.8434 49.657C27.8119 48.484 27.8133 47.3095 27.8434 46.1365C27.8893 44.4029 29.2001 43.1379 30.9296 43.1178C31.3827 43.112 31.8359 43.1178 32.312 43.1178L32.3106 43.1221ZM62.2225 59.363C61.7492 58.9303 61.1986 58.4717 60.6995 57.9614C59.9409 57.1837 59.8247 56.4175 60.3926 55.5004C61.2918 54.0485 61.9385 52.5104 62.3343 50.8472C62.6312 49.6009 63.2407 49.1869 64.5428 49.1783C65.1824 49.174 65.822 49.1783 66.5304 49.1783V46.7158C65.8306 46.7158 65.2154 46.7187 64.5987 46.7158C63.202 46.7086 62.5939 46.2544 62.2784 44.8888C61.9199 43.342 61.3262 41.9031 60.4787 40.5633C59.8276 39.5326 59.9136 38.7348 60.7612 37.8551C61.2373 37.3606 61.7406 36.892 62.2081 36.4363C61.5886 35.8081 61.0236 35.236 60.4342 34.6394C59.9968 35.0865 59.568 35.535 59.1292 35.9734C58.1612 36.9423 57.4986 37.0673 56.3385 36.3658C54.9001 35.4961 53.38 34.8651 51.7423 34.4856C50.6495 34.2326 50.2136 33.6087 50.2064 32.4702C50.2021 31.763 50.2064 31.0557 50.2064 30.3312C49.7088 30.3312 49.3273 30.3312 48.9458 30.3312C48.5644 30.3312 48.1456 30.3312 47.6695 30.3312C47.6695 31.1707 47.7111 31.9369 47.6595 32.6959C47.5878 33.7366 47.1489 34.2513 46.135 34.487C44.4744 34.8723 42.9328 35.522 41.4815 36.4147C40.4762 37.0328 39.7592 36.9451 38.926 36.1013C38.4283 35.5968 37.9895 35.0347 37.6697 34.6667C36.9068 35.3495 36.3116 35.8843 35.5717 36.547C36.1166 37.0228 36.6788 37.4425 37.1534 37.9456C37.9407 38.7794 38.0125 39.5183 37.4187 40.4713C36.5411 41.8772 35.9029 43.3679 35.543 44.9951C35.2648 46.2501 34.6022 46.7101 33.2829 46.7201C32.6462 46.7245 32.0109 46.7201 31.3842 46.7201V49.1826C32.0367 49.1826 32.6318 49.1811 33.227 49.1826C34.6166 49.1869 35.249 49.6555 35.5573 50.9881C35.9158 52.5348 36.5182 53.9709 37.3528 55.3164C38.0225 56.3945 37.9451 57.1765 37.0531 58.0735C36.5726 58.5565 36.0334 58.982 35.5057 59.4463C35.9388 59.8733 36.2199 60.132 36.4809 60.4109C36.7562 60.7056 37.0115 61.019 37.3886 61.4545C37.9637 60.8249 38.4183 60.2715 38.9288 59.777C39.795 58.9389 40.4274 58.8469 41.427 59.4665C42.8969 60.3778 44.4529 61.0333 46.1437 61.41C47.1934 61.6443 47.6294 62.271 47.6466 63.3707C47.658 64.0808 47.648 64.7895 47.648 65.5111H50.1347C50.1648 65.4292 50.1935 65.3861 50.1935 65.3444C50.1978 64.6745 50.1935 64.0032 50.2006 63.3333C50.2107 62.3314 50.6438 61.6601 51.6075 61.4416C53.3671 61.0434 54.979 60.3347 56.5263 59.419C57.5001 58.8426 58.1368 58.9763 58.96 59.7942C59.4504 60.2815 59.905 60.8062 60.4012 61.3395C61.015 60.6768 61.547 60.1004 62.2239 59.3687L62.2225 59.363Z" fill="white"/>
<path d="M0.0148132 27.0826C0.0148132 22.6033 0.0262858 18.1241 0.00620873 13.6434C0.00190651 12.63 0.420656 11.996 1.35137 11.6079C10.4534 7.81721 19.5498 4.01358 28.6447 0.205644C29.3287 -0.0804188 29.9626 -0.0602938 30.6438 0.224331C39.5379 3.94889 48.4363 7.66196 57.3362 11.3765C59.0398 12.088 59.2435 12.3784 59.2435 14.2083C59.2435 17.6339 59.2435 21.0595 59.2435 24.485C59.2435 25.7241 58.5336 26.5751 57.4882 26.5895C56.4642 26.6039 55.7157 25.7586 55.7085 24.5037C55.6927 21.4375 55.687 18.3713 55.7171 15.3051C55.7228 14.7143 55.5464 14.4355 54.9886 14.204C46.7412 10.7828 38.5053 7.33564 30.2723 3.87989C29.7991 3.68152 29.4119 3.69589 28.9458 3.89139C20.8232 7.30114 12.6978 10.7051 4.55652 14.0718C3.76492 14.3995 3.47523 14.7718 3.48097 15.6688C3.52829 22.8549 3.51395 30.041 3.50391 37.2285C3.49961 40.391 3.67457 43.5233 4.59811 46.578C5.69088 50.189 7.43758 53.4276 9.90849 56.2796C12.4152 59.1748 15.3981 61.4245 18.8829 63C21.8844 64.357 25.0193 65.1562 28.322 65.264C28.8225 65.2798 29.323 65.3258 29.8206 65.3876C30.7513 65.5041 31.4483 66.3306 31.3809 67.2104C31.3106 68.1304 30.5663 68.842 29.6256 68.8549C25.9615 68.9066 22.4222 68.2339 19.0149 66.91C15.1486 65.4078 11.7011 63.207 8.78417 60.2543C4.36436 55.7808 1.47183 50.4664 0.46798 44.2133C0.181166 42.4293 0.0664398 40.6037 0.0377584 38.7953C-0.0253409 34.8911 0.0191154 30.9868 0.0191154 27.0811L0.0148132 27.0826Z" fill="white"/>
<path d="M48.9198 57.0859C43.922 57.1146 39.7561 52.9703 39.7403 47.9535C39.7231 42.9653 43.8217 38.8066 48.7979 38.7606C53.8645 38.7146 58.0706 42.7813 58.095 47.7522C58.1208 52.979 54.1126 57.0557 48.9198 57.0859ZM54.5514 47.9664C54.5801 44.8197 52.0748 42.2868 48.9098 42.2609C45.9097 42.2365 43.3871 44.7665 43.3111 47.7824C43.2394 50.6243 45.3619 53.495 48.8768 53.5597C52.0705 53.6186 54.5285 51.0383 54.5514 47.9678V47.9664Z" fill="white"/>
</g>
<defs>
<clipPath id="clip0_3133_5080">
<rect width="70" height="69" fill="white"/>
</clipPath>
</defs>
</svg>
