<svg width="70" height="67" viewBox="0 0 70 67" fill="none" xmlns="http://www.w3.org/2000/svg">
<g clip-path="url(#clip0_3133_5075)">
<path d="M40.6008 33.8487C40.2696 33.3801 39.9598 32.9952 39.7075 32.5759C37.5775 29.0442 38.0287 24.7767 40.8941 21.8214C42.762 19.8949 44.6249 17.9535 46.6144 16.1568C49.7494 13.3241 54.7203 13.3611 57.9259 16.1116C58.6828 16.7612 58.7115 17.4009 58.0114 18.1023C55.7475 20.3701 53.4736 22.6281 51.2204 24.9066C49.6516 26.4927 50.2195 29.0261 52.3035 29.7473C53.4498 30.1436 54.4729 29.8476 55.3193 29.0072C57.506 26.8364 59.6796 24.6525 61.8531 22.4686C62.9272 21.3889 63.4178 21.4119 64.3529 22.6116C66.9554 25.95 66.7451 30.8351 63.8007 33.931C61.9887 35.8353 60.1274 37.6953 58.2259 39.5101C55.0744 42.5179 50.0699 42.6371 46.6908 39.8464C46.6177 39.7855 46.5429 39.7263 46.441 39.6433C46.3367 39.7551 46.2339 39.8595 46.1378 39.9697C39.8324 47.1539 33.5271 54.3388 27.2217 61.523C26.2643 62.6141 25.3177 63.7151 24.3431 64.7907C22.5434 66.7756 20.3074 67.4573 17.7567 66.6983C15.2634 65.9575 13.7703 64.1805 13.3644 61.6167C13.0176 59.4245 13.7111 57.5029 15.3777 56.0228C19.7593 52.131 24.1705 48.2738 28.5702 44.4017C32.476 40.9646 36.3819 37.5267 40.2893 34.0905C40.3904 34.0017 40.503 33.9252 40.6016 33.8496L40.6008 33.8487ZM62.9469 24.5103C62.3782 25.0949 61.8704 25.6294 61.3494 26.1507C59.7913 27.7105 58.267 29.3057 56.6588 30.8121C54.6422 32.7009 51.5121 32.5833 49.5728 30.6279C47.6285 28.6676 47.5537 25.5011 49.4766 23.498C51.3625 21.532 53.3159 19.6309 55.238 17.6994C55.376 17.5604 55.5018 17.41 55.6431 17.2537C55.5494 17.1871 55.5075 17.1518 55.4607 17.1255C53.0209 15.7465 49.8612 16.0968 47.8413 18.0456C45.9891 19.8324 44.1804 21.666 42.3856 23.5104C41.273 24.6542 40.7142 26.0693 40.6501 27.6628C40.5654 29.7678 41.3749 31.4971 42.8927 32.9286C43.5525 33.5503 43.523 34.2377 42.8458 34.8338C40.8941 36.5532 38.94 38.2701 36.9867 39.9886C30.3049 45.8662 23.6232 51.7438 16.9415 57.6213C16.0622 58.3951 15.5872 59.3719 15.5379 60.5354C15.4648 62.2532 16.4912 63.8179 18.0681 64.4552C19.641 65.0908 21.4505 64.669 22.6001 63.3681C24.8213 60.8545 27.031 58.3301 29.244 55.8082C33.5073 50.9511 37.769 46.0923 42.0323 41.2344C43.1704 39.9376 44.3069 38.6393 45.4508 37.3475C46.0006 36.7267 46.6374 36.7053 47.2357 37.271C47.3951 37.4215 47.5446 37.5818 47.7008 37.7348C50.254 40.2361 54.3513 40.223 56.8823 37.7019C58.5316 36.059 60.1685 34.4046 61.8219 32.7658C62.7374 31.858 63.4013 30.8113 63.7144 29.5524C64.1491 27.8043 63.8788 26.163 62.9477 24.5103H62.9469Z" fill="#1C54AD"/>
<path d="M19.9067 14.0018C19.9067 14.3209 19.9166 14.607 19.9051 14.8915C19.8771 15.5617 19.4219 16.0419 18.7497 16.023C17.1957 15.9794 15.9113 17.2284 15.9524 18.9083C15.9935 20.5931 15.9631 22.2796 15.9614 23.9644C15.9598 24.8829 15.5464 25.3039 14.6351 25.3039C10.2009 25.3064 5.76585 25.3064 1.33163 25.3039C0.415372 25.3039 0.00366999 24.8854 0.00366999 23.9677C0.00202647 20.6244 -0.00454761 17.2802 0.00531351 13.9369C0.0250358 7.09397 4.70167 1.47953 11.4253 0.257636C12.3079 0.0972934 13.2184 0.0545355 14.1182 0.0331565C15.6229 -0.00220097 17.1292 0.0224671 18.6346 0.0241116C19.5032 0.0241116 19.9774 0.532273 19.9207 1.39401C19.8862 1.9145 19.8927 1.92355 20.4129 1.92355C23.0549 1.92437 25.696 1.91615 28.338 1.93424C28.7423 1.93671 28.8458 1.81172 28.8343 1.42114C28.8031 0.412222 29.2025 0.019178 30.2009 0.0257561C32.1304 0.0389124 34.0722 -0.0753828 35.9861 0.103049C41.4705 0.6145 45.3525 3.46777 47.637 8.47784C47.9361 9.13319 48.1268 9.84281 48.324 10.5393C48.522 11.2382 48.1884 11.8393 47.5688 11.9996C46.913 12.169 46.3575 11.8064 46.1611 11.0885C45.0476 7.02161 42.5076 4.2703 38.5401 2.86258C37.3855 2.45309 36.1784 2.28206 34.9498 2.28535C33.7862 2.28864 32.6226 2.29275 31.4598 2.2763C31.1599 2.27219 31.058 2.35277 31.0588 2.6677C31.0687 6.25772 31.0687 9.84856 31.0572 13.4386C31.0563 13.7469 31.1311 13.8917 31.445 13.9821C33.5734 14.598 34.9868 16.4061 34.9983 18.6296C35.0246 23.6725 35.0098 28.7155 35.0065 33.7585C35.0065 34.4664 34.5192 34.954 33.8651 34.9409C33.225 34.9285 32.7722 34.427 32.7722 33.7067C32.7697 28.7599 32.7722 23.8123 32.7689 18.8655C32.7681 17.3855 31.9307 16.333 30.5518 16.0707C30.3521 16.0328 30.1434 16.0435 29.9387 16.0312C29.3085 15.9942 28.8639 15.5559 28.8335 14.9285C28.8195 14.6309 28.831 14.3316 28.831 14.0035H19.9083L19.9067 14.0018ZM17.6403 2.22368C15.7716 2.28535 13.9062 2.1727 12.0967 2.43911C6.39121 3.27782 2.31857 8.0108 2.24708 13.7461C2.2101 16.7046 2.24214 19.6648 2.23228 22.6241C2.23146 22.9317 2.30131 23.0534 2.6407 23.0525C6.1981 23.0402 9.75632 23.041 13.3137 23.0517C13.6367 23.0525 13.7353 22.9596 13.732 22.6348C13.7188 21.2509 13.6999 19.8662 13.741 18.484C13.8027 16.3848 15.2145 14.5815 17.2294 13.9944C17.5589 13.8982 17.6773 13.7724 17.6756 13.4156C17.6608 9.8535 17.6674 6.29143 17.6666 2.72937C17.6666 2.59616 17.6534 2.46296 17.6411 2.22368H17.6403ZM19.9412 11.6732H28.8039C28.8121 11.5128 28.8236 11.3788 28.8244 11.2456C28.8261 9.05508 28.817 6.86373 28.8351 4.67321C28.8384 4.28181 28.7357 4.16176 28.3347 4.16423C25.682 4.1815 23.0286 4.17245 20.3751 4.17245C20.2412 4.17245 20.1072 4.17245 19.9412 4.17245V11.674V11.6732Z" fill="#1C54AD"/>
<path d="M56.8121 59.2987C57.0216 59.2987 57.1811 59.2987 57.3413 59.2987C61.1321 59.2987 64.922 59.2987 68.7128 59.3004C69.4935 59.3004 69.9767 59.7115 69.9989 60.38C70.0178 60.9564 69.6587 61.4185 69.0908 61.5246C68.9043 61.5591 68.7104 61.56 68.5189 61.5608C64.8103 61.5624 61.1017 61.5616 57.3939 61.5616C57.2197 61.5616 57.0447 61.5616 56.8113 61.5616C56.8113 61.8206 56.8178 62.0344 56.8104 62.2482C56.785 62.9702 56.3724 63.4241 55.6592 63.4249C52.8405 63.4265 50.0104 63.5614 47.2057 63.3583C42.4247 63.0105 38.8155 60.6094 36.3297 56.5162C35.9492 55.8896 36.121 55.2121 36.7044 54.8782C37.26 54.5608 37.896 54.7664 38.2715 55.393C40.058 58.372 42.6408 60.2468 46.0388 60.9622C46.6905 61.0995 47.3676 61.1661 48.0349 61.1751C50.0737 61.2031 52.1124 61.1801 54.1512 61.1949C54.4808 61.1973 54.5654 61.0929 54.5646 60.7739C54.5547 57.2118 54.5547 53.6489 54.5662 50.0869C54.567 49.7506 54.4536 49.67 54.1406 49.6774C53.1972 49.6979 52.2571 49.7103 51.3466 49.3633C49.5198 48.6676 48.2115 46.7986 48.2198 44.8441C48.2222 44.1698 48.6463 43.697 49.2782 43.6641C49.9233 43.6304 50.3958 44.0769 50.4517 44.7709C50.5873 46.4533 51.6375 47.4351 53.3229 47.449C54.0756 47.4556 54.8284 47.4466 55.5811 47.4523C56.3404 47.4581 56.7833 47.8881 56.8121 48.638C56.8351 49.2218 57.1345 49.5135 57.7103 49.5129C61.3778 49.5129 65.0453 49.5113 68.7128 49.5129C69.5198 49.5129 69.9972 49.9306 70.0022 50.6255C70.0063 51.2389 69.5888 51.7034 68.9733 51.738C68.5772 51.7602 68.1795 51.747 67.7834 51.747C64.2942 51.747 60.8042 51.7536 57.315 51.7388C56.9271 51.7372 56.8022 51.8317 56.8063 52.2355C56.8252 54.4276 56.8154 56.6198 56.8146 58.8119C56.8146 58.9583 56.8146 59.1047 56.8146 59.3004L56.8121 59.2987Z" fill="#1C54AD"/>
<path d="M14.5831 42.3838C14.4845 45.5866 11.8614 48.1784 8.65985 48.1726C5.46156 48.1668 2.79495 45.5553 2.85248 42.3855C2.86809 41.5122 3.05381 40.602 3.35622 39.7805C4.25851 37.3294 5.2438 34.9078 6.2258 32.487C6.60628 31.5496 7.06153 30.6427 7.48803 29.7234C7.6836 29.3016 8.02299 29.0615 8.484 29.0442C8.94665 29.0269 9.31233 29.2374 9.51942 29.6551C11.2262 33.1029 12.9256 36.5548 14.1016 40.2311C14.3242 40.9284 14.4261 41.6652 14.5831 42.3838ZM8.5785 32.8069C8.45852 33.0289 8.37963 33.1531 8.32293 33.2855C7.81344 34.4662 7.26122 35.6322 6.81336 36.836C6.21758 38.437 5.60866 40.0428 5.18134 41.6923C4.71458 43.4931 5.92257 45.316 7.7173 45.8028C10.3847 46.5272 12.8952 44.0983 12.0874 41.4506C11.4752 39.4418 10.6222 37.5053 9.8399 35.5508C9.47997 34.6512 9.03211 33.787 8.5785 32.8061V32.8069Z" fill="#1C54AD"/>
</g>
<defs>
<clipPath id="clip0_3133_5075">
<rect width="70" height="67" fill="white"/>
</clipPath>
</defs>
</svg>
