<svg width="65" height="65" viewBox="0 0 65 65" fill="none" xmlns="http://www.w3.org/2000/svg">
<g clip-path="url(#clip0_3133_5054)">
<path d="M64.9922 65.0001H64.5271C43.2571 65.0001 21.9866 65.0001 0.716548 65.0001C0.238849 65.0001 0 64.7568 0 64.2701C0 53.8097 0 43.3492 0 32.8888C0 32.4959 0 32.4943 0.391097 32.4943C2.54241 32.4943 4.69316 32.4904 6.84448 32.4993C7.07535 32.5004 7.16548 32.4548 7.17827 32.2038C7.24614 30.9135 7.33071 29.6238 7.41582 28.3346C7.47758 27.3959 7.55435 26.4578 7.6161 25.5192C7.70122 24.2205 7.77744 22.9213 7.85977 21.6226C7.93209 20.4898 8.0072 19.3575 8.0823 18.2247C8.15518 17.1297 8.2314 16.0352 8.30428 14.9402C8.37994 13.8073 8.45448 12.6745 8.52569 11.5411C8.5396 11.323 8.67089 11.3007 8.84781 11.3013C10.4239 11.3046 12.0005 11.303 13.5766 11.303C15.0414 11.303 16.5067 11.3091 17.9715 11.2974C18.2352 11.2952 18.3076 11.3697 18.3215 11.6385C18.3738 12.6717 18.4633 13.7033 18.5318 14.736C18.5796 15.456 18.6102 16.1771 18.6564 16.8971C18.7237 17.9492 18.8005 19.0014 18.8689 20.0536C18.9329 21.0401 18.9891 22.0271 19.053 23.0137C19.1159 23.9829 19.1843 24.9522 19.2494 25.9214C19.2912 26.5396 19.3295 27.1583 19.3735 27.7759C19.443 28.7624 19.5181 29.7484 19.5866 30.7344C19.6211 31.2329 19.6578 31.732 19.67 32.2311C19.675 32.4425 19.749 32.4993 19.9498 32.4959C20.5429 32.4859 21.1365 32.4926 21.7301 32.4926C26.6163 32.4926 31.5031 32.4926 36.3893 32.4915C36.8099 32.4915 36.7559 32.5299 36.7559 32.1165C36.7559 28.8248 36.7592 25.5325 36.7492 22.2408C36.7487 21.9888 36.8338 21.8285 37.0201 21.6844C39.6427 19.6546 42.2652 17.6249 44.8844 15.5906C46.8098 14.095 48.7308 12.5933 50.649 11.0887C50.8209 10.9541 50.9283 10.9713 51.0985 11.1049C52.8437 12.4714 54.6 13.824 56.3491 15.1861C58.5221 16.8776 60.6907 18.5746 62.862 20.2683C63.4595 20.7341 64.0542 21.2031 64.6612 21.6566C64.8915 21.8285 65.0006 22.0093 65 22.3165C64.9911 36.3841 64.9922 50.4523 64.9922 64.5199V64.9995V65.0001ZM62.1572 62.158V61.8842C62.1572 49.1247 62.1572 36.3646 62.1572 23.6051C62.1572 23.5678 62.1689 23.5261 62.1549 23.4949C62.1065 23.3848 62.0771 23.2446 61.9914 23.1761C61.2999 22.6208 60.5978 22.0789 59.8985 21.5342C58.2518 20.2511 56.6056 18.968 54.9572 17.6872C53.6743 16.6901 52.3842 15.7025 51.1091 14.6959C50.9316 14.5557 50.827 14.5207 50.6418 14.6664C49.1113 15.8705 47.5764 17.0684 46.0393 18.2642C43.9458 19.8922 41.8474 21.5147 39.7584 23.1483C39.6605 23.2245 39.5809 23.3903 39.5804 23.515C39.5709 27.3169 39.5726 31.1188 39.5726 34.9208C39.5726 35.303 39.5742 35.3036 39.2048 35.3036C30.4983 35.3036 21.7924 35.3036 13.0859 35.3036C12.9769 35.3036 12.8684 35.3036 12.7399 35.3036V32.4943C12.8673 32.4943 12.9757 32.4943 13.0848 32.4943C14.2531 32.4943 15.4214 32.4915 16.5896 32.4976C16.7855 32.4987 16.8767 32.4587 16.8572 32.2339C16.7916 31.4794 16.741 30.7238 16.6903 29.9682C16.6197 28.9171 16.5551 27.8655 16.485 26.8145C16.4305 25.9938 16.3704 25.1736 16.3159 24.3535C16.2697 23.6608 16.2297 22.968 16.1835 22.2759C16.1151 21.2515 16.0422 20.2277 15.9743 19.2034C15.9232 18.4383 15.8798 17.6727 15.8275 16.9076C15.7707 16.0775 15.7006 15.2484 15.6539 14.4183C15.6417 14.2018 15.601 14.1117 15.3546 14.1145C14.0661 14.1278 12.7771 14.1278 11.4881 14.1139C11.2611 14.1117 11.1972 14.184 11.1905 14.3916C11.1783 14.7872 11.1516 15.1828 11.1254 15.5778C11.057 16.6 10.9847 17.6215 10.9157 18.6431C10.879 19.1861 10.8484 19.7297 10.8111 20.2728C10.7404 21.3033 10.6642 22.3332 10.5969 23.3642C10.5635 23.8716 10.5529 24.3802 10.5185 24.8876C10.4628 25.7061 10.3916 26.5229 10.3349 27.3414C10.2826 28.097 10.2436 28.8531 10.1919 29.6087C10.1235 30.6108 10.0428 31.6124 9.97826 32.615C9.92875 33.3812 9.90204 34.1485 9.85309 34.9141C9.82805 35.3013 9.81136 35.3052 9.42027 35.3052C7.33404 35.3052 5.24782 35.3102 3.1616 35.2991C2.88622 35.2974 2.79999 35.3614 2.79999 35.6502C2.80778 44.3763 2.80666 53.1025 2.80666 61.8286C2.80666 61.9365 2.80666 62.0439 2.80666 62.1602H62.1572V62.158Z" fill="#1C54AD"/>
<path d="M21.2305 2.78264C23.0319 2.8316 24.7421 3.21107 26.3766 3.93996C26.564 4.02342 26.6831 4.01786 26.8572 3.86318C28.8016 2.13999 31.0235 0.938704 33.5665 0.356702C34.5885 0.122455 35.6249 0.00783515 36.673 4.54492e-05C37.5748 -0.00607503 38.1751 0.606529 38.1517 1.49956C38.1328 2.22011 37.5526 2.7665 36.8049 2.81379C36.1523 2.85553 35.4953 2.90226 34.8522 3.01466C33.6995 3.21663 32.6063 3.61224 31.5554 4.13137C30.4566 4.67442 29.4313 5.33154 28.4828 6.10272C28.0683 6.4399 27.6884 6.82215 27.3084 7.19939C27.1715 7.33516 27.0658 7.35018 26.9001 7.26227C25.7245 6.63909 24.4811 6.19897 23.1866 5.89573C21.5682 5.51682 19.9705 5.57747 18.4027 6.13109C17.1899 6.56008 16.0895 7.19049 15.1354 8.06349C14.4534 8.68778 13.6406 8.63159 13.0626 8.02343C12.509 7.44087 12.6225 6.52558 13.2595 5.95471C14.9101 4.47523 16.8166 3.5004 18.9841 3.0614C19.7212 2.91228 20.4806 2.8711 21.23 2.78041L21.2305 2.78264Z" fill="#1C54AD"/>
<path d="M35.576 7.07802C37.8792 7.01292 40.1073 6.61231 42.2269 5.66475C44.1301 4.814 45.7785 3.61884 47.1732 2.07871C47.5804 1.62913 47.9354 1.12836 48.277 0.625929C48.7382 -0.0523309 49.6177 -0.134123 50.1423 0.164668C50.9301 0.612575 51.0363 1.56236 50.6692 2.13045C50.1145 2.98843 49.4464 3.75294 48.7248 4.4707C47.6255 5.5646 46.401 6.49936 45.0703 7.29224C43.2739 8.36221 41.3463 9.09333 39.2956 9.50006C37.9605 9.76491 36.6147 9.91625 35.2506 9.88732C34.5201 9.87174 33.8993 9.25079 33.8965 8.51522C33.8937 7.72457 34.4862 7.09138 35.2422 7.07858C35.3535 7.07691 35.4648 7.07858 35.576 7.07858V7.07802Z" fill="#1C54AD"/>
<path d="M55.1152 39.5806H57.8991V45.2275H55.1152V39.5806Z" fill="#1C54AD"/>
<path d="M46.5918 39.5694V45.2286H43.8097C43.8035 45.1441 43.7919 45.0556 43.7919 44.9671C43.7902 43.2628 43.793 41.558 43.7852 39.8537C43.7841 39.6451 43.8286 39.56 44.0594 39.5638C44.8917 39.5778 45.7245 39.5694 46.5918 39.5694Z" fill="#1C54AD"/>
<path d="M32.5762 47.7008V44.9266C32.6802 44.9205 32.7698 44.911 32.8599 44.911C34.5467 44.9099 36.234 44.916 37.9208 44.9043C38.1806 44.9027 38.249 44.9789 38.2446 45.2315C38.2296 46.0461 38.239 46.8607 38.239 47.7008H32.5762Z" fill="#1C54AD"/>
<path d="M12.7402 39.5949V42.3653C12.6478 42.3719 12.5599 42.3836 12.4715 42.3836C10.7591 42.3836 9.04617 42.3775 7.33379 42.3853C7.11794 42.3864 7.0662 42.3169 7.06843 42.116C7.07733 41.3476 7.07343 40.5792 7.06954 39.8108C7.06898 39.6645 7.084 39.5649 7.27371 39.5654C9.05117 39.5721 10.8286 39.5716 12.6061 39.5743C12.6417 39.5743 12.6773 39.5849 12.7402 39.5949Z" fill="#1C54AD"/>
<path d="M21.1908 42.3704C21.0812 42.376 20.9989 42.3838 20.9165 42.3838C19.2103 42.3827 17.5046 42.3771 15.7983 42.3838C15.5931 42.3843 15.5207 42.3342 15.5235 42.1228C15.5335 41.3533 15.5302 40.5832 15.5252 39.8137C15.5241 39.6424 15.573 39.5639 15.7616 39.5645C17.5235 39.57 19.2848 39.5683 21.0467 39.5695C21.0907 39.5695 21.1346 39.5789 21.1908 39.5856V42.3693V42.3704Z" fill="#1C54AD"/>
<path d="M38.15 39.5688C38.15 40.1647 38.15 40.7189 38.15 41.2731C38.15 41.5513 38.1383 41.8295 38.1534 42.1066C38.1656 42.3252 38.0883 42.3903 37.8696 42.3887C36.4432 42.3798 35.0162 42.3836 33.5898 42.3836C33.2933 42.3836 32.9968 42.3792 32.7008 42.3853C32.5478 42.3887 32.4877 42.3319 32.4883 42.1744C32.4927 41.3682 32.4849 40.5625 32.4955 39.7563C32.4961 39.6929 32.6018 39.5766 32.6591 39.576C34.4738 39.5666 36.288 39.5682 38.1495 39.5682L38.15 39.5688Z" fill="#1C54AD"/>
<path d="M46.5754 55.0953H43.8099C43.8027 55.0035 43.791 54.9234 43.7905 54.8433C43.7888 53.1573 43.7944 51.4714 43.7832 49.7855C43.7816 49.5162 43.8639 49.4361 44.1304 49.4422C44.8708 49.4584 45.6119 49.4511 46.3529 49.4456C46.5165 49.4444 46.6099 49.4706 46.6094 49.6687C46.6038 51.4286 46.606 53.1885 46.6044 54.9484C46.6044 54.9929 46.5871 55.0374 46.5754 55.0953Z" fill="#1C54AD"/>
<path d="M57.9087 55.1103C57.551 55.1103 57.22 55.1103 56.8884 55.1103C56.3605 55.1103 55.8331 55.1075 55.3057 55.1131C55.1616 55.1148 55.0854 55.0858 55.0859 54.9167C55.0921 53.1301 55.0926 51.3429 55.0948 49.5557C55.0948 49.5379 55.1054 49.5207 55.1199 49.4756H57.9087V55.1109V55.1103Z" fill="#1C54AD"/>
<path d="M49.4564 55.1094C49.4486 54.9898 49.4392 54.9169 49.4392 54.844C49.4381 53.1581 49.4425 51.4716 49.4336 49.7857C49.432 49.527 49.5015 49.4341 49.7746 49.4419C50.5151 49.4624 51.2567 49.4591 51.9972 49.4491C52.1885 49.4469 52.2603 49.4942 52.2592 49.6933C52.2531 51.4165 52.257 53.1397 52.2486 54.8629C52.2486 54.9453 52.1635 55.0983 52.1157 55.0994C51.2378 55.1139 50.3593 55.11 49.4553 55.11L49.4564 55.1094Z" fill="#1C54AD"/>
<path d="M49.4395 45.2259C49.4395 45.0273 49.4395 44.8353 49.4395 44.6434C49.4395 43.0693 49.4456 41.4952 49.4356 39.9211C49.4339 39.6518 49.4929 39.5517 49.7888 39.5612C50.5288 39.5851 51.2698 39.5717 52.0103 39.5645C52.1794 39.5628 52.2617 39.5995 52.2612 39.7926C52.2545 41.5703 52.2556 43.3481 52.2534 45.1258C52.2534 45.1525 52.245 45.1798 52.2372 45.2259H49.4395Z" fill="#1C54AD"/>
<path d="M18.4533 44.9109C19.3056 44.9109 20.1584 44.9165 21.0107 44.9064C21.216 44.9042 21.2816 44.9615 21.2789 45.1724C21.2677 45.9414 21.2694 46.7109 21.2816 47.4798C21.285 47.6857 21.2021 47.7291 21.0196 47.7285C19.3145 47.7241 17.6099 47.7224 15.9048 47.7302C15.6683 47.7313 15.6088 47.6434 15.6121 47.4214C15.6233 46.6986 15.6255 45.9759 15.6116 45.2531C15.6066 44.9938 15.6778 44.8992 15.952 44.9048C16.7854 44.9215 17.6199 44.9109 18.4538 44.9109H18.4533Z" fill="#1C54AD"/>
<path d="M9.97417 47.7263C9.13078 47.7263 8.28739 47.7207 7.44456 47.7302C7.23037 47.7324 7.15415 47.6751 7.15805 47.4486C7.17084 46.698 7.16917 45.9469 7.15638 45.1969C7.15248 44.9604 7.23649 44.9042 7.4618 44.9053C9.13912 44.9142 10.8164 44.9153 12.4938 44.9053C12.7452 44.9036 12.832 44.9682 12.8259 45.2308C12.8087 45.9625 12.812 46.6953 12.8259 47.4269C12.8303 47.6562 12.7664 47.7335 12.5322 47.7307C11.6799 47.7191 10.827 47.7263 9.97473 47.7263H9.97417Z" fill="#1C54AD"/>
<path d="M55.1094 29.6804H57.9027V35.2818H55.1094V29.6804Z" fill="#1C54AD"/>
<path d="M46.5852 35.3028C46.1852 35.3028 45.8069 35.3028 45.4286 35.3028C44.9563 35.3028 44.484 35.3095 44.0122 35.295C43.9365 35.2928 43.7997 35.1921 43.7997 35.137C43.793 33.332 43.7997 31.5265 43.8047 29.7215C43.8047 29.7148 43.8164 29.7082 43.8358 29.687H46.5852V35.3028Z" fill="#1C54AD"/>
<path d="M49.4678 29.6809H52.2556C52.2556 29.7861 52.2556 29.8834 52.2556 29.9808C52.2561 31.6589 52.2545 33.3365 52.2611 35.0146C52.2617 35.2188 52.225 35.3134 51.9869 35.3084C51.218 35.2928 50.4486 35.3001 49.6792 35.304C49.5268 35.3045 49.4389 35.2772 49.4395 35.0936C49.4445 33.332 49.4434 31.571 49.445 29.8094C49.445 29.7738 49.4578 29.7382 49.4684 29.6809H49.4678Z" fill="#1C54AD"/>
<path d="M29.6532 39.5962V42.3666C29.5519 42.3727 29.4551 42.3844 29.3577 42.3844C27.6893 42.3855 26.0209 42.3794 24.3525 42.3905C24.0927 42.3922 24.0226 42.3126 24.0276 42.0605C24.0426 41.3099 24.0365 40.5588 24.0315 39.8082C24.0304 39.6557 24.0498 39.5656 24.2368 39.5662C26.007 39.5717 27.7778 39.5712 29.548 39.5734C29.5742 39.5734 29.6003 39.5845 29.6537 39.5968L29.6532 39.5962Z" fill="#1C54AD"/>
<path d="M24.1191 47.6957V44.9281C24.2209 44.922 24.3105 44.9114 24.4001 44.9114C26.0769 44.9103 27.7536 44.9159 29.4304 44.9053C29.6768 44.9036 29.7458 44.9737 29.7408 45.2169C29.7263 45.9669 29.733 46.7175 29.7375 47.4681C29.7386 47.6289 29.7191 47.7302 29.5177 47.7291C27.767 47.7235 26.0162 47.7252 24.2655 47.7229C24.2209 47.7229 24.1764 47.7068 24.1191 47.6957Z" fill="#1C54AD"/>
</g>
<defs>
<clipPath id="clip0_3133_5054">
<rect width="65" height="65" fill="white"/>
</clipPath>
</defs>
</svg>
