<svg width="104" height="53" viewBox="0 0 104 53" fill="none" xmlns="http://www.w3.org/2000/svg">
<path d="M26.575 52.975C21.115 52.975 16.3917 51.935 12.405 49.855C8.46167 47.7317 5.40667 44.7633 3.24 40.95C1.07333 37.1367 -0.00999975 32.695 -0.00999975 27.625C-0.00999975 22.555 1.07333 18.1133 3.24 14.3C5.40667 10.4867 8.46167 7.54 12.405 5.46C16.3917 3.33666 21.115 2.275 26.575 2.275C31.9917 2.275 36.6717 3.33666 40.615 5.46C44.6017 7.54 47.6783 10.4867 49.845 14.3C52.0117 18.1133 53.095 22.555 53.095 27.625C53.095 32.695 52.0117 37.1367 49.845 40.95C47.6783 44.7633 44.6017 47.7317 40.615 49.855C36.6717 51.935 31.9917 52.975 26.575 52.975ZM26.575 44.005C31.4717 44.005 35.2633 42.575 37.95 39.715C40.68 36.8117 42.045 32.7817 42.045 27.625C42.045 22.425 40.68 18.395 37.95 15.535C35.2633 12.675 31.4717 11.245 26.575 11.245C21.6783 11.245 17.865 12.675 15.135 15.535C12.405 18.395 11.04 22.425 11.04 27.625C11.04 32.825 12.405 36.855 15.135 39.715C17.865 42.575 21.6783 44.005 26.575 44.005ZM67.0167 17.715C65.0407 17.715 63.3117 17.364 61.8297 16.662C60.3477 15.934 59.1777 14.92 58.3197 13.62C57.4877 12.294 57.0717 10.773 57.0717 9.057C57.0717 7.341 57.4877 5.833 58.3197 4.533C59.1777 3.233 60.3477 2.219 61.8297 1.491C63.3377 0.762998 65.0667 0.398998 67.0167 0.398998C68.9927 0.398998 70.7217 0.762998 72.2037 1.491C73.6857 2.219 74.8427 3.233 75.6747 4.533C76.5067 5.833 76.9227 7.341 76.9227 9.057C76.9227 10.773 76.5067 12.294 75.6747 13.62C74.8427 14.92 73.6857 15.934 72.2037 16.662C70.7217 17.364 68.9927 17.715 67.0167 17.715ZM67.0167 13.815C68.4727 13.815 69.6297 13.399 70.4877 12.567C71.3457 11.709 71.7747 10.539 71.7747 9.057C71.7747 7.575 71.3457 6.418 70.4877 5.586C69.6557 4.728 68.4987 4.299 67.0167 4.299C65.5347 4.299 64.3647 4.728 63.5067 5.586C62.6747 6.418 62.2587 7.575 62.2587 9.057C62.2587 10.539 62.6747 11.709 63.5067 12.567C64.3647 13.399 65.5347 13.815 67.0167 13.815ZM94.0437 30.546C92.0937 30.546 90.3647 30.195 88.8567 29.493C87.3747 28.765 86.2177 27.751 85.3857 26.451C84.5537 25.125 84.1377 23.604 84.1377 21.888C84.1377 20.172 84.5537 18.664 85.3857 17.364C86.2177 16.064 87.3747 15.05 88.8567 14.322C90.3647 13.594 92.1067 13.23 94.0827 13.23C96.0587 13.23 97.7877 13.594 99.2697 14.322C100.752 15.05 101.909 16.064 102.741 17.364C103.573 18.664 103.989 20.172 103.989 21.888C103.989 23.604 103.573 25.125 102.741 26.451C101.909 27.751 100.752 28.765 99.2697 29.493C97.7877 30.195 96.0457 30.546 94.0437 30.546ZM94.0437 26.646C95.5257 26.646 96.6827 26.23 97.5147 25.398C98.3727 24.54 98.8017 23.37 98.8017 21.888C98.8017 20.432 98.3857 19.275 97.5537 18.417C96.7217 17.559 95.5647 17.13 94.0827 17.13C92.6007 17.13 91.4307 17.559 90.5727 18.417C89.7407 19.275 89.3247 20.432 89.3247 21.888C89.3247 23.37 89.7407 24.54 90.5727 25.398C91.4307 26.23 92.5877 26.646 94.0437 26.646ZM86.0487 0.749998H90.9627L75.0507 30H70.1367L86.0487 0.749998Z" fill="white"/>
</svg>
