<svg width="55" height="55" viewBox="0 0 55 55" fill="none" xmlns="http://www.w3.org/2000/svg">
<path d="M34.9695 50.413C34.832 50.413 34.6716 50.3901 34.5341 50.3443C29.9278 49.038 25.0924 49.038 20.4861 50.3443C19.6382 50.5735 18.7444 50.0922 18.5153 49.2443C18.2632 48.3964 18.7674 47.5026 19.6153 47.2735C24.7945 45.8068 30.2486 45.8068 35.4278 47.2735C36.2757 47.5255 36.7799 48.3964 36.5278 49.2443C36.2986 49.9547 35.657 50.413 34.9695 50.413Z" fill="#1C54AD"/>
<path d="M44.0246 14.5784C41.6413 9.76588 37.035 6.2138 31.6954 5.04505C26.1038 3.80755 20.3746 5.13672 15.9975 8.66588C11.5975 12.1721 9.09961 17.42 9.09961 23.0347C9.09961 28.9701 12.6517 35.1805 18.0142 38.7784V40.6805C17.9913 41.3222 17.9684 42.3076 18.7475 43.1097C19.5496 43.9347 20.7413 44.0263 21.6809 44.0263H33.4371C34.6746 44.0263 35.6142 43.6826 36.2559 43.0409C37.1267 42.1472 37.1038 41.0013 37.0809 40.3826V38.7784C44.185 33.9888 48.6538 23.8826 44.0246 14.5784ZM31.4434 26.6326L28.9913 30.8951C28.6704 31.4451 28.0975 31.7659 27.5017 31.7659C27.2038 31.7659 26.9059 31.6972 26.6538 31.5368C25.8288 31.0555 25.5538 30.0013 26.0121 29.1993L27.96 25.8076H26.035C24.8892 25.8076 23.9496 25.3034 23.4454 24.4555C22.9413 23.5847 22.9871 22.5305 23.56 21.5221L26.0121 17.2596C26.4934 16.4346 27.5475 16.1596 28.3496 16.618C29.1746 17.0992 29.4496 18.1534 28.9913 18.9555L27.0434 22.3471H28.9684C30.1142 22.3471 31.0538 22.8513 31.5579 23.6993C32.0621 24.5701 32.0163 25.6472 31.4434 26.6326Z" fill="#1C54AD"/>
</svg>
