<svg width="131" height="82" viewBox="0 0 131 82" fill="none" xmlns="http://www.w3.org/2000/svg">
<g clip-path="url(#clip0_3133_5257)">
<path d="M31.3747 32.1573C31.9858 30.4667 32.5702 28.838 33.1547 27.2094C35.7759 19.9246 38.3795 12.6398 41.0096 5.35509C42.0103 2.60228 43.9762 0.876247 46.8277 0.194684C47.359 0.0707631 47.9169 0.0176543 48.4571 0.0176543C51.2643 -0.00890008 54.0626 -4.86089e-05 56.861 -4.86089e-05C56.9673 -4.86089e-05 57.0647 0.00880286 57.2064 0.0176543C57.2064 1.69943 57.2064 3.37236 57.2064 5.0984C56.985 5.10725 56.7724 5.12495 56.551 5.12495C53.9387 5.12495 51.3263 5.1161 48.7228 5.12495C47.0313 5.12495 46.2609 5.69145 45.6853 7.28471C44.7997 9.75427 43.9053 12.2238 43.0198 14.6934C42.9489 14.8793 42.8958 15.074 42.8072 15.3572C43.0552 15.3572 43.2412 15.3572 43.4183 15.3572C57.3658 15.3572 71.3132 15.3572 85.2607 15.3661C85.5972 15.3661 85.7832 15.2864 85.9337 14.9678C86.589 13.5515 87.2798 12.153 87.9528 10.7456C88.0148 10.6129 88.0679 10.4712 88.1565 10.2411C87.9085 10.2411 87.7225 10.2411 87.5454 10.2411C85.2076 10.2411 82.8697 10.25 80.5407 10.2322C79.3806 10.2234 78.4419 9.48872 78.1408 8.39999C77.8309 7.29356 78.2383 6.08091 79.2301 5.54097C79.7171 5.27543 80.337 5.14265 80.8949 5.14265C84.9862 5.10725 89.0686 5.12495 93.1598 5.12495C95.0992 5.12495 97.0386 5.12495 98.9779 5.12495C99.3499 5.12495 99.7307 5.12495 100.147 5.12495C100.147 6.83328 100.147 8.50621 100.147 10.2411C99.8635 10.2411 99.5978 10.2411 99.3322 10.2411C97.6496 10.2411 95.9671 10.25 94.2845 10.2322C93.948 10.2322 93.762 10.3385 93.6203 10.6483C92.54 12.9496 91.4507 15.2422 90.3526 17.5347C90.211 17.8268 90.2198 18.0569 90.3526 18.349C92.5842 23.0315 94.807 27.7139 97.0209 32.3963C97.198 32.7592 97.3485 32.8389 97.7559 32.715C105.841 30.1746 113.43 31.2368 120.355 36.1228C126.262 40.2918 129.698 46.0807 130.752 53.2327C132.354 64.0669 126.368 75.0161 116.423 79.6012C112.226 81.5397 107.833 82.3363 103.246 81.876C97.1006 81.2564 91.8404 78.7338 87.5277 74.3169C83.4985 70.1832 81.1694 65.2087 80.5141 59.4641C80.4699 59.0569 80.3282 58.9242 79.912 58.9242C76.3875 58.9419 72.8718 58.9242 69.3473 58.9419C68.3998 58.9419 67.647 58.6144 67.036 57.9063C60.4563 50.4091 53.8678 42.9119 47.2882 35.4235C44.6581 32.4317 42.028 29.4399 39.4067 26.4481C39.2827 26.3065 39.1942 26.1472 39.0082 25.8905C38.778 26.5012 38.6186 26.935 38.4592 27.3598C37.733 29.378 37.0246 31.405 36.2807 33.4142C36.1479 33.7772 36.2453 33.9099 36.5641 34.0781C45.1451 38.6455 50.0511 45.7266 50.5647 55.4632C51.0429 64.4829 47.4033 71.7765 40.1594 77.1671C35.4483 80.6722 30.073 82.2478 24.2106 81.9734C17.445 81.6547 11.6712 79.017 6.98659 74.131C3.02816 70.0062 0.699155 65.0582 0.150112 59.3756C-0.629176 51.3208 1.8858 44.3724 7.61533 38.6543C11.5295 34.742 16.3026 32.4583 21.7753 31.6617C24.8128 31.2191 27.8414 31.3696 30.8346 32.0511C30.9851 32.0777 31.1534 32.1042 31.3747 32.1573ZM29.5505 37.1142C20.6595 35.0606 10.1834 39.6545 6.45526 49.8426C2.64737 60.243 8.05811 71.8208 18.4014 75.5295C28.9395 79.318 40.4782 73.9451 44.2153 63.465C47.9789 52.8963 42.3645 42.7348 34.3414 38.8756C34.2794 39.0172 34.2174 39.1588 34.1642 39.3005C33.0484 42.3985 31.9326 45.4965 30.8257 48.6034C29.8073 51.4447 28.7889 54.286 27.7617 57.1185C27.3189 58.3488 26.2031 59.0304 24.9988 58.8534C23.3251 58.6055 22.4307 57.0123 23.0328 55.3128C24.5737 51.0021 26.1234 46.6914 27.6731 42.3808C28.2842 40.637 28.9129 38.8933 29.5505 37.1142ZM85.7655 58.933C86.0843 64.474 90.1047 72.2633 98.4555 75.4145C107.178 78.7072 116.76 75.7597 122.1 68.2005C127.298 60.8361 126.864 50.71 121.081 43.8413C115.042 36.6716 105.885 35.3881 99.589 37.6541C99.651 37.8134 99.7129 37.9639 99.7838 38.1144C101.679 42.0975 103.565 46.0807 105.46 50.055C106.301 51.8253 107.169 53.5779 107.966 55.3659C108.71 57.0388 107.532 58.8534 105.699 58.9242C105.442 58.933 105.186 58.933 104.929 58.933C98.7123 58.933 92.4957 58.933 86.2791 58.933C86.102 58.933 85.9337 58.933 85.7655 58.933ZM68.4263 51.781C73.3854 41.3275 78.3003 30.9712 83.2505 20.5354C69.1259 20.5354 55.1164 20.5354 40.9653 20.5354C50.1485 30.9801 59.252 41.3363 68.4263 51.781ZM87.3152 23.8281C82.5598 33.8568 77.8663 43.7793 73.1463 53.7284C75.6347 53.7284 78.0346 53.7284 80.461 53.7284C81.6211 45.5939 85.73 39.3713 92.6462 34.9632C90.8751 31.2722 89.1306 27.6077 87.3152 23.8281ZM85.7832 53.7107C91.0877 53.7107 96.277 53.7107 101.537 53.7107C99.3145 49.0282 97.1094 44.4078 94.8867 39.7342C89.839 43.1332 86.8104 47.7359 85.7832 53.7107Z" fill="white"/>
</g>
<defs>
<clipPath id="clip0_3133_5257">
<rect width="131" height="82" fill="white"/>
</clipPath>
</defs>
</svg>
