<svg width="114" height="114" viewBox="0 0 114 114" fill="none" xmlns="http://www.w3.org/2000/svg">
<g clip-path="url(#clip0_3133_5235)">
<path d="M-0.000383478 56.648C0.231251 25.0769 26.0318 -0.31188 57.5698 -8.83888e-05C89.1345 0.320612 114.32 26.1103 114 57.7794C113.679 89.0298 87.8605 114.249 56.4384 113.991C25.2033 113.742 -0.232018 87.9074 -0.000383478 56.648ZM60.8929 5.50526C54.7635 4.65006 48.5628 4.11556 43.2084 7.50073C34.9141 12.7388 29.1767 20.1506 26.6287 29.7894C22.1208 46.8845 28.4373 61.7347 36.0545 76.5671C42.4066 73.6719 46.2286 68.6119 50.2377 63.65C53.73 59.3383 54.0953 55.5612 51.0395 50.6082C46.6919 43.5706 44.5626 35.6511 45.7208 27.2149C47.0482 17.5048 52.9015 10.9126 60.8929 5.50526ZM99.3264 86.2593C106.008 79.3643 108.102 70.9815 105.581 61.6456C101.117 45.1385 89.3572 36.3994 73.6417 32.1234C66.1314 30.0834 58.4696 28.7115 50.3357 29.629C50.4604 31.8027 50.1575 33.7091 50.7366 35.3037C52.9995 41.5128 54.7278 48.194 58.3894 53.4945C59.8772 55.6414 65.8196 54.8218 69.7485 55.1425C85.0096 56.4075 95.647 65.2089 98.4979 79.1505C98.9612 81.4043 99.0414 83.7383 99.3264 86.2593ZM85.0185 64.3627C79.1386 62.7146 74.007 60.9775 68.7506 59.8728C62.3005 58.5277 56.3671 59.0444 53.7567 66.6254C53.5251 67.3024 52.9906 67.8904 52.5718 68.4961C44.0102 80.6827 32.2058 85.8674 19.7509 82.6782C16.5437 81.8586 13.4968 80.3888 10.3786 79.2218C10.0223 79.5959 9.66592 79.979 9.30065 80.3531C13.2295 84.8162 16.3744 90.5799 21.2388 93.484C31.7158 99.7466 43.2619 99.8357 54.5585 94.8292C68.0646 88.8517 76.6173 77.7697 85.0185 64.3627ZM88.3594 68.4605C75.0939 88.4241 59.9752 105.118 33.1234 102.713C33.364 103.078 33.462 103.399 33.6669 103.524C50.4069 113.483 78.1853 109.742 91.9319 95.6576C92.6179 94.9539 93.3396 94.0541 93.5267 93.1366C95.2996 84.3797 94.5868 76.0949 88.3594 68.4605ZM108.823 53.6281C108.823 52.764 108.921 51.8821 108.806 51.0269C106.356 32.4797 96.5112 19.2508 80.2522 10.191C73.1784 6.25356 67.1737 6.9306 61.0621 11.6075C56.8482 14.8323 53.0529 18.3155 51.6275 24.1148C75.1384 25.6292 96.529 30.4932 108.823 53.6281ZM29.542 13.0061C28.0898 13.7633 27.5642 13.9682 27.1276 14.28C12.3921 24.9522 4.95304 39.4638 4.83722 57.5834C4.8105 61.6723 5.1134 66.171 6.79721 69.7611C9.68374 75.9168 24.0273 80.2462 31.1901 77.8499C20.5706 56.9242 14.2719 35.8025 29.542 13.0061Z" fill="#1C54AD"/>
</g>
<defs>
<clipPath id="clip0_3133_5235">
<rect width="114" height="114" fill="white"/>
</clipPath>
</defs>
</svg>
