<svg width="122" height="131" viewBox="0 0 122 131" fill="none" xmlns="http://www.w3.org/2000/svg">
<g clip-path="url(#clip0_3133_5237)">
<path d="M117.664 126.624C117.664 117.938 117.664 109.262 117.664 100.538C116.206 100.538 114.786 100.538 113.327 100.538C113.327 103.433 113.327 106.29 113.327 109.252C110.43 109.252 107.59 109.252 104.683 109.252C104.683 112.185 104.683 115.014 104.683 117.909C103.206 117.909 101.786 117.909 100.299 117.909C100.299 115.052 100.299 112.223 100.299 109.328C85.7366 109.328 71.25 109.328 56.6877 109.328C56.6877 112.185 56.6877 115.014 56.6877 117.909C55.2295 117.909 53.8472 117.909 52.3322 117.909C52.3322 115.043 52.3322 112.195 52.3322 109.262C49.3876 109.262 46.5755 109.262 43.6876 109.262C43.6687 108.891 43.6308 108.616 43.6308 108.331C43.6308 105.93 43.6119 103.528 43.6592 101.126C43.6687 100.718 43.877 100.215 44.161 99.9302C46.547 97.5285 48.952 95.1364 51.4138 92.8012C52.0955 92.1557 52.3322 91.5101 52.3322 90.5893C52.3038 82.6819 52.3133 74.7839 52.3133 66.8764C52.3133 66.4683 52.3133 66.0696 52.3133 65.5949C69.773 65.5949 87.1569 65.5949 104.654 65.5949C104.654 65.9082 104.654 66.212 104.654 66.5252C104.654 74.6605 104.645 82.8053 104.683 90.9406C104.683 91.3962 104.929 91.9468 105.241 92.298C106.226 93.4087 107.325 94.4339 108.338 95.5256C108.726 95.9433 109.124 96.1141 109.701 96.1141C113.47 96.0857 117.238 96.1046 121.006 96.1046C121.319 96.1046 121.631 96.1046 122.01 96.1046C122.01 107.771 122.01 119.352 122.01 131C84.3069 131 46.6039 131 8.83451 131C8.83451 119.4 8.83451 107.819 8.83451 96.1426C14.5723 96.1426 20.3102 96.1426 26.1238 96.1426C26.1427 95.7819 26.1711 95.4971 26.1711 95.2218C26.1711 87.9883 26.1616 80.7549 26.1806 73.5309C26.1806 72.9993 26.0291 72.7145 25.5462 72.4582C22.895 71.0533 20.812 69.0313 19.4107 66.3828C19.0225 65.6519 18.6153 65.519 17.8673 65.519C10.7661 65.4715 5.39749 62.3674 2.02675 56.0927C-1.5807 49.3813 -0.217252 41.0087 5.246 35.6358C5.73836 35.1517 5.82357 34.8004 5.54899 34.1454C1.85632 25.3172 7.37638 15.1314 16.7879 13.3848C17.4034 13.2709 17.659 13.0525 17.7821 12.426C19.032 5.60072 24.8077 0.446156 31.587 0.0284748C38.6978 -0.408192 45.0416 3.83507 47.2098 10.4705C47.3519 10.9167 47.5318 11.3723 47.5507 11.828C47.6075 12.9671 48.2514 13.2899 49.2834 13.5367C58.6003 15.758 63.486 25.4975 59.8028 34.3922C59.6134 34.8574 59.7081 35.1042 60.0489 35.4459C68.7409 44.1508 66.6105 58.0577 55.6935 63.7248C53.0802 65.0823 50.2492 65.6234 47.3045 65.5095C46.7838 65.4905 46.4713 65.5854 46.2062 66.098C44.8049 68.8225 42.7313 70.9393 40.0328 72.3727C39.3984 72.705 39.2753 73.0942 39.2753 73.7302C39.2848 88.1022 39.2848 102.484 39.2848 116.856C39.2848 117.169 39.2848 117.492 39.2848 117.891C37.8361 117.891 36.4538 117.891 34.9578 117.891C34.9578 103.348 34.9578 88.7857 34.9578 74.2238C33.4618 74.2238 32.0794 74.2238 30.5834 74.2238C30.5834 88.7288 30.5834 103.281 30.5834 117.909C29.0684 117.909 27.6576 117.909 26.1806 117.909C26.1806 112.128 26.1806 106.366 26.1806 100.557C21.8062 100.557 17.5075 100.557 13.1521 100.557C13.1521 109.243 13.1521 117.9 13.1521 126.633C47.9673 126.624 82.7825 126.624 117.664 126.624ZM21.8346 60.4593C23.1318 66.9999 27.9796 69.7622 31.9752 69.8572C38.3758 70.0091 42.1443 66.5822 43.6308 60.4593C50.9688 62.8135 57.5304 59.0924 60.0584 53.3588C62.6433 47.4922 60.6455 39.5753 53.5915 36.1294C56.9244 31.478 57.6156 27.5575 55.6178 23.6844C53.0518 18.7007 48.8289 16.9161 43.4319 17.628C44.1326 12.9766 42.8354 9.08456 38.9723 6.36963C35.3081 3.78761 31.284 3.57876 27.402 5.80007C22.8666 8.40108 21.3044 12.5494 22.0145 17.647C17.1951 16.9446 13.1332 18.302 10.5104 22.5168C7.52788 27.3012 8.33269 31.9146 11.8739 36.1484C5.00929 39.5658 2.84103 47.103 5.31228 53.1025C7.6699 58.8741 14.2504 62.861 21.8346 60.4593ZM108.963 104.847C109.152 102.617 109.161 102.617 107.722 101.136C106.255 99.6264 104.806 98.1076 103.3 96.6267C103.026 96.3514 102.562 96.1236 102.193 96.1236C86.4562 96.0951 70.7103 96.0951 54.9739 96.1141C54.633 96.1141 54.188 96.2091 53.9608 96.4369C52.0576 98.25 50.1829 100.101 48.3176 101.952C48.1472 102.123 48.0052 102.389 47.9862 102.626C47.9484 103.348 47.9673 104.079 47.9673 104.847C68.3432 104.847 88.634 104.847 108.963 104.847ZM56.6971 74.2428C71.269 74.2428 85.7461 74.2428 100.223 74.2428C100.223 72.7904 100.223 71.395 100.223 69.9901C85.6893 69.9901 71.2122 69.9901 56.6971 69.9901C56.6971 71.414 56.6971 72.7809 56.6971 74.2428ZM56.7161 87.4188C56.7161 88.8712 56.7161 90.2571 56.7161 91.662C71.25 91.662 85.7366 91.662 100.214 91.662C100.214 90.2001 100.214 88.8142 100.214 87.4188C85.6893 87.4188 71.2216 87.4188 56.7161 87.4188ZM100.242 78.7424C85.6893 78.7424 71.2027 78.7424 56.7066 78.7424C56.7066 80.1853 56.7066 81.5522 56.7066 82.9667C71.2406 82.9667 85.7177 82.9667 100.242 82.9667C100.242 81.5428 100.242 80.1758 100.242 78.7424Z" fill="#1C54AD"/>
</g>
<defs>
<clipPath id="clip0_3133_5237">
<rect width="122" height="131" fill="white"/>
</clipPath>
</defs>
</svg>
