<svg width="118" height="117" viewBox="0 0 118 117" fill="none" xmlns="http://www.w3.org/2000/svg">
<g clip-path="url(#clip0_3133_5255)">
<path d="M11.7001 100.696C11.7181 100.382 11.7452 100.122 11.7452 99.8615C11.7452 83.9163 11.7452 67.9712 11.7633 52.026C11.7633 51.344 11.5737 51.0748 10.9056 50.7967C8.89227 49.9532 7.57414 48.4547 7.27621 46.2473C7.14078 45.2334 7.14078 44.1925 7.12272 43.1606C7.10467 42.5145 6.87896 42.1556 6.20184 41.9941C4.51354 41.5813 2.87942 41.0429 1.67865 39.6611C0.766794 38.6112 0.152869 37.4358 0.116756 36.018C0.0716143 34.5464 0.0445293 33.0659 -0.000612219 31.5853C-0.081867 28.7857 1.34461 26.9552 3.78225 25.7797C8.32349 23.5813 12.8647 21.3739 17.415 19.2025C30.2894 13.0559 43.1818 6.94523 56.0291 0.762777C57.9792 -0.179396 59.6133 -0.296046 61.6447 0.690993C74.6184 6.98112 87.6643 13.1367 100.674 19.364C105.342 21.5983 109.973 23.9223 114.641 26.1656C116.916 27.2603 118.054 28.9921 117.99 31.5225C117.954 32.9492 117.945 34.3759 117.99 35.8027C118.09 38.9432 115.453 41.6441 112.402 42.0389C112.167 42.0659 111.923 42.1287 111.689 42.1287C111.165 42.1287 111.039 42.3979 111.021 42.8734C110.957 44.0579 110.885 45.2513 110.741 46.4268C110.452 48.679 109.034 50.0699 107.003 50.8685C106.47 51.0748 106.335 51.3081 106.335 51.8286C106.344 67.8545 106.344 83.8804 106.326 99.8974C106.326 100.57 106.542 100.732 107.183 100.75C109.359 100.804 111.544 100.831 113.711 101.055C115.851 101.27 117.557 102.966 117.665 105.093C117.81 107.749 117.71 110.423 117.665 113.088C117.638 114.676 115.092 116.991 113.241 116.991C82.8973 116.946 52.5442 116.991 22.2 117C16.5393 117 10.8695 116.839 5.20872 116.937C2.428 116.982 0.0986992 114.694 0.0986992 112.244C0.0896709 109.732 0.134812 107.228 0.125784 104.716C0.125784 103.28 2.43703 100.866 4.17047 100.884C6.37337 100.902 8.58531 100.795 10.7882 100.741C11.0771 100.732 11.366 100.714 11.7001 100.696ZM59.2341 37.1755C59.2341 37.2114 59.2341 37.2473 59.2341 37.2832C76.6768 37.2832 94.1285 37.2832 111.571 37.2832C112.637 37.2832 113.205 36.8076 113.26 35.7398C113.323 34.4746 113.278 33.2005 113.323 31.9353C113.35 31.029 112.962 30.5085 112.122 30.1137C105.369 26.8834 98.6427 23.5813 91.8895 20.351C81.2361 15.2543 70.5556 10.1935 59.8932 5.10575C59.3063 4.82758 58.8279 4.84553 58.25 5.11472C55.5325 6.39787 52.7879 7.61821 50.0794 8.90136C38.5864 14.348 27.0933 19.8037 15.6093 25.2772C12.323 26.8386 9.06381 28.4447 5.81362 30.0868C5.38929 30.3022 4.85662 30.8047 4.82953 31.1995C4.73925 32.6621 4.74828 34.1516 4.90176 35.6142C5.01913 36.673 5.56986 37.032 6.66228 37.0589C8.89227 37.1127 11.1313 37.1755 13.3613 37.1755C28.6552 37.1755 43.9492 37.1755 59.2341 37.1755ZM58.9452 105.604C58.9452 105.631 58.9452 105.649 58.9452 105.676C43.8138 105.676 28.6733 105.676 13.5419 105.676C10.8514 105.676 8.17001 105.73 5.47957 105.73C4.90176 105.73 4.67605 105.927 4.68508 106.502C4.71217 108.063 4.70314 109.615 4.70314 111.177C4.70314 111.903 5.04621 112.208 5.78653 112.217C8.71171 112.253 11.6369 112.379 14.5621 112.379C32.6187 112.415 50.6843 112.451 68.7409 112.451C83.105 112.442 97.469 112.37 111.824 112.334C112.853 112.334 112.925 112.289 112.962 111.284C113.007 109.804 112.998 108.323 113.007 106.843C113.016 105.604 113.016 105.604 111.77 105.604C94.1556 105.604 76.5504 105.604 58.9452 105.604ZM66.1859 100.472C66.1859 100.122 66.1859 99.8435 66.1859 99.5564C66.1859 96.8824 66.1769 94.2174 66.1679 91.5434C66.1408 78.4607 66.1047 65.3779 66.0866 52.2952C66.0866 51.6043 65.9422 51.3261 65.1748 51.3351C61.1572 51.371 57.1486 51.3351 53.131 51.3351C52.0295 51.3351 52.0205 51.353 52.0205 52.4388C51.9754 68.1686 51.9393 83.8894 51.9031 99.6192C51.9031 99.8974 51.9302 100.185 51.9483 100.472C56.7152 100.472 61.4009 100.472 66.1859 100.472ZM16.6205 51.2902C16.6205 51.6491 16.6205 51.9093 16.6205 52.1696C16.6205 68.007 16.6295 83.8445 16.6115 99.682C16.6115 100.319 16.774 100.552 17.4511 100.543C21.577 100.517 25.694 100.508 29.8199 100.543C30.5422 100.552 30.7047 100.319 30.6956 99.6372C30.6686 94.5315 30.6866 89.4348 30.6866 84.3291C30.6866 73.5973 30.6776 62.8565 30.7047 52.1247C30.7047 51.4338 30.5241 51.2274 29.8109 51.2274C25.6849 51.2633 21.568 51.2453 17.4421 51.2453C17.2073 51.2453 16.9726 51.2723 16.6205 51.2902ZM87.4747 51.2812C87.4747 67.7199 87.4747 84.0868 87.4747 100.481C92.1513 100.481 96.7648 100.481 101.405 100.481C101.405 84.0599 101.405 67.693 101.405 51.2812C96.7467 51.2812 92.1513 51.2812 87.4747 51.2812ZM70.8084 100.696C74.7718 100.696 78.636 100.696 82.5362 100.696C82.5542 100.427 82.5723 100.22 82.5723 100.014C82.5723 83.9343 82.5723 67.8635 82.5813 51.7837C82.5813 51.2723 82.3917 51.0748 81.9403 50.8685C79.6562 49.8724 78.1575 48.2663 78.0311 45.6551C78.004 45.0449 77.9769 44.4437 77.9498 43.8336C77.8776 41.9133 77.8776 41.9133 75.9275 42.1107C75.8823 42.1197 75.8372 42.1646 75.7198 42.2274C75.6656 43.0439 75.6115 43.9143 75.5663 44.7757C75.3948 47.5664 74.3927 49.8276 71.5849 50.8954C70.9529 51.1377 70.7904 51.4786 70.7904 52.1247C70.8084 67.9622 70.8084 83.7997 70.8084 99.6372C70.8084 99.9692 70.8084 100.292 70.8084 100.696ZM47.2355 100.714C47.2536 100.427 47.2806 100.22 47.2806 100.014C47.2806 83.9971 47.2806 67.9801 47.2897 51.9632C47.2897 51.4786 47.1633 51.1825 46.6848 51.0031C43.8318 49.9353 42.6672 47.7189 42.5227 44.8386C42.4776 43.9502 42.4144 43.0619 42.3512 42.0928C41.8005 42.0928 41.331 42.1197 40.8615 42.0838C40.3379 42.0479 40.1754 42.2723 40.1663 42.7747C40.1573 43.7259 40.067 44.677 40.0399 45.6282C39.9767 48.2304 38.478 49.8096 36.2661 50.8326C35.7154 51.0838 35.5348 51.3351 35.5348 51.9273C35.5529 67.9712 35.5438 84.015 35.5529 100.059C35.5529 100.265 35.58 100.472 35.589 100.714C39.4712 100.714 43.3082 100.714 47.2355 100.714ZM94.6612 42.0838C94.6612 42.0928 94.6612 42.1107 94.6612 42.1197C91.709 42.1197 88.7567 42.1107 85.8044 42.1197C84.9829 42.1197 84.1613 42.1735 83.3307 42.2094C82.8612 42.2274 82.5904 42.4248 82.6084 42.9452C82.6445 43.6541 82.6445 44.372 82.6626 45.0808C82.6806 45.8346 83.0959 46.2653 83.8272 46.355C84.7752 46.4627 85.7322 46.5973 86.6802 46.5973C92.5576 46.6242 98.435 46.6242 104.312 46.6242C105.486 46.6242 106.181 46.014 106.281 44.8386C106.335 44.1835 106.272 43.5105 106.326 42.8555C106.38 42.2005 106.1 42.0569 105.495 42.0659C101.893 42.1018 98.2725 42.0838 94.6612 42.0838ZM70.8084 42.1287C62.9267 42.1287 55.1624 42.1287 47.3077 42.1287C47.3077 43.2503 47.2445 44.3271 47.3438 45.3949C47.38 45.7269 47.8223 46.2025 48.1654 46.2832C49.0051 46.4896 49.8898 46.5973 50.7656 46.6062C56.2909 46.6332 61.8162 46.6332 67.3415 46.6152C68.1812 46.6152 69.0298 46.4717 69.8695 46.3371C70.4563 46.2384 70.8084 45.8705 70.8084 45.2423C70.8084 44.2374 70.8084 43.2324 70.8084 42.1287ZM35.3813 42.2274C35.0202 42.2094 34.7584 42.1915 34.4966 42.1915C29.2872 42.1646 24.0779 42.1377 18.8686 42.1107C16.7379 42.1018 14.6162 42.0928 12.4855 42.0838C12.1515 42.0838 11.7542 41.9941 11.7633 42.5504C11.7813 43.3939 11.7542 44.2463 11.8265 45.0808C11.8987 45.8794 12.6932 46.6332 13.3703 46.6332C19.5366 46.6332 25.703 46.6332 31.8693 46.5973C32.718 46.5973 33.5666 46.4537 34.3972 46.3281C34.9751 46.2384 35.3633 45.8794 35.3723 45.2513C35.3904 44.2732 35.3813 43.3042 35.3813 42.2274Z" fill="#1C54AD"/>
</g>
<defs>
<clipPath id="clip0_3133_5255">
<rect width="118" height="117" fill="white"/>
</clipPath>
</defs>
</svg>
