<svg width="110" height="115" viewBox="0 0 110 115" fill="none" xmlns="http://www.w3.org/2000/svg">
<g clip-path="url(#clip0_3133_5249)">
<path d="M54.907 43.1105C37.3543 43.1105 19.8104 43.1105 2.25769 43.1105C0.855241 43.1105 -0.379624 41.401 0.105502 40.0812C0.237809 39.7269 0.528884 39.3814 0.8376 39.1511C6.49152 34.9348 12.1543 30.7097 17.8346 26.5377C26.7874 19.9564 35.7578 13.4017 44.737 6.84695C47.6037 4.75652 50.4968 2.69267 53.3899 0.61996C54.5189 -0.186094 55.3216 -0.221525 56.4947 0.602244C58.788 2.22321 61.0549 3.88847 63.3218 5.536C75.5822 14.4646 87.8427 23.3843 100.112 32.3129C102.961 34.3857 105.828 36.4495 108.685 38.5222C110.423 39.78 110.476 41.525 108.765 42.8005C108.491 43.0042 108.068 43.0928 107.706 43.0928C101.232 43.1105 94.7579 43.1017 88.2837 43.1017C77.1522 43.1105 66.0296 43.1105 54.907 43.1105ZM99.5386 38.3096C99.565 38.2033 99.5827 38.097 99.6091 37.9819C98.7095 37.3176 97.8186 36.6355 96.9189 35.98C88.8217 30.0631 80.7245 24.1461 72.6185 18.238C66.8941 14.066 61.1607 9.92058 55.4451 5.74859C55.0746 5.48286 54.8365 5.44743 54.4484 5.73087C51.1054 8.18447 47.736 10.6115 44.3754 13.0562C34.1437 20.5233 23.9031 27.9904 13.6714 35.4663C12.4983 36.3255 11.334 37.1936 10.1608 38.0616C10.1785 38.1325 10.1961 38.2033 10.2049 38.2742C39.9828 38.4425 69.7607 38.4779 99.5386 38.3096Z" fill="#1C54AD"/>
<path d="M54.9777 100.615C72.451 100.615 89.9332 100.615 107.406 100.615C108.659 100.615 109.779 101.74 109.779 103.007C109.779 106.284 109.779 109.552 109.779 112.83C109.779 113.795 108.58 115 107.627 115C75.1942 114.991 42.7525 114.982 10.3196 114.956C7.56766 114.956 4.80686 114.849 2.05487 114.752C0.952314 114.708 0.308421 114.185 0.255498 113.078C0.11437 110.243 0.0879091 107.409 0.0438068 104.574C0.0349863 103.999 0.0967295 103.423 0.184934 102.847C0.414266 101.359 0.925853 100.881 2.40769 100.845C5.6448 100.774 8.88191 100.695 12.1102 100.695C26.3994 100.677 40.6885 100.686 54.9777 100.686C54.9777 100.659 54.9777 100.633 54.9777 100.615ZM105.069 105.398C71.6572 105.398 38.307 105.398 4.93916 105.398C4.93916 107.037 4.93916 108.614 4.93916 110.234C38.3334 110.234 71.6836 110.234 105.069 110.234C105.069 108.614 105.069 107.028 105.069 105.398Z" fill="#1C54AD"/>
<path d="M81.1655 72.9169C81.1655 79.755 81.1655 86.5932 81.1655 93.4314C81.1655 94.7955 79.5338 96.0001 78.246 95.5749C77.8402 95.4421 77.4433 95.2472 77.0817 95.0169C75.1412 93.7857 73.0154 92.9973 70.7397 92.8999C68.0672 92.7848 65.3681 92.705 62.7043 92.9619C60.5257 93.1656 58.3911 93.8211 56.6182 95.3004C55.7097 96.0621 54.1573 96.1064 53.2576 95.3269C51.5111 93.8211 49.4031 93.3074 47.2509 92.9531C43.7668 92.3773 40.2651 92.395 36.8427 93.3605C35.502 93.7414 34.2319 94.4146 32.9352 94.9638C32.5207 95.1409 32.1238 95.3889 31.7004 95.5307C30.2185 96.009 28.9837 95.2561 28.8955 93.6971C28.7455 91.1726 28.6309 88.6482 28.6309 86.1237C28.6309 75.6982 28.675 65.2726 28.7191 54.8471C28.7191 53.979 28.8249 53.1198 28.8955 52.2518C28.966 51.4014 29.3894 50.7902 30.1303 50.3385C32.6442 48.815 35.4226 48.1063 38.2804 47.6989C42.3114 47.1231 46.3247 47.318 50.2498 48.4075C51.7228 48.815 53.1341 49.435 54.5895 49.9222C54.8453 50.0107 55.2069 50.0285 55.4451 49.9133C60.605 47.4686 66.0384 47.07 71.6042 47.7432C73.9416 48.0266 76.2261 48.5758 78.3783 49.5767C78.7487 49.745 79.1016 49.9487 79.4544 50.1613C80.4334 50.7459 81.0332 51.49 81.0332 52.7655C81.0156 57.0969 81.1038 61.4284 81.1391 65.7687C81.1567 68.1514 81.1391 70.5341 81.1391 72.9169C81.1479 72.9169 81.1567 72.9169 81.1655 72.9169ZM76.4025 89.2062C76.4025 87.4701 76.4025 85.9112 76.4025 84.3522C76.429 74.3607 76.4554 64.378 76.4554 54.3865C76.4554 54.1739 76.2349 53.8373 76.0497 53.7664C74.9648 53.3944 73.8798 52.8895 72.7596 52.7832C70.4046 52.5618 68.0319 52.4998 65.6592 52.4732C62.9513 52.4378 60.314 52.8364 57.8442 54.0587C57.3856 54.289 57.218 54.5016 57.218 55.0154C57.2356 60.6223 57.2356 66.2293 57.2092 71.8451C57.2003 73.6255 57.1386 75.4059 57.0592 77.1863C57.0151 78.1606 56.5741 78.6567 55.6303 78.9313C54.0691 79.3741 52.6225 78.2935 52.6137 76.6814C52.5784 69.8964 52.5431 63.1025 52.5079 56.3175C52.499 54.1296 52.4902 54.165 50.4262 53.4564C47.2068 52.358 43.9079 52.1897 40.5561 52.4112C38.4304 52.5529 36.3135 52.8009 34.2848 53.5627C33.7114 53.7753 33.4821 54.0587 33.4909 54.7053C33.5262 58.337 33.4909 61.9775 33.5086 65.6092C33.535 72.9523 33.588 80.2953 33.6232 87.6296C33.6232 88.1167 33.6232 88.6128 33.6232 89.1797C34.0731 89.0822 34.3289 89.0379 34.5759 88.9582C37.4425 88.0636 40.3885 87.7713 43.3787 87.8421C46.951 87.9307 50.4615 88.3825 53.7339 89.906C54.5366 90.278 55.1981 90.3134 55.9743 89.968C58.9203 88.6571 61.9899 87.8953 65.2446 87.9661C68.0848 88.0282 70.9514 87.7093 73.7475 88.5242C74.559 88.7456 75.3705 88.9405 76.4025 89.2062Z" fill="#1C54AD"/>
<path d="M105.21 70.5784C105.113 78.3998 105.034 84.8482 104.954 91.2967C104.945 92.1647 104.884 93.0239 104.84 93.892C104.778 94.9284 104.381 95.4864 103.367 95.6281C102.255 95.7876 101.126 95.8761 100.006 95.8761C96.0015 95.8761 92.0058 95.8318 88.0013 95.7964C87.181 95.7876 85.9902 94.5652 85.9902 93.7326C85.9902 79.1527 85.9902 64.564 85.9902 49.9842C85.9902 49.1516 87.1016 47.9912 88.0101 47.9823C92.8967 47.9558 97.7832 47.9292 102.67 47.9823C104.319 48.0001 104.831 48.6378 104.857 50.2854C104.981 57.5221 105.104 64.7323 105.21 70.5784ZM100.156 52.8187C99.856 52.801 99.6443 52.7832 99.4326 52.7832C96.8218 52.7832 94.2109 52.8098 91.6 52.7744C90.9297 52.7655 90.7621 52.9604 90.7621 53.6247C90.7797 65.7775 90.7797 77.9215 90.7797 90.0743C90.7797 90.3489 90.8062 90.6323 90.815 90.9069C93.9816 90.9069 97.0599 90.9069 100.156 90.9069C100.156 78.1961 100.156 65.5472 100.156 52.8187Z" fill="#1C54AD"/>
<path d="M23.8152 71.8894C23.8152 78.6479 23.8241 85.4152 23.8064 92.1736C23.8064 92.8468 23.7359 93.52 23.6212 94.1843C23.4448 95.2207 23.1802 95.5041 22.1393 95.637C21.125 95.7699 20.0842 95.8584 19.061 95.8584C15.277 95.8584 11.493 95.8053 7.70025 95.7699C7.55912 95.7699 7.40917 95.761 7.26805 95.7433C5.55688 95.5396 5.15995 95.2118 5.12467 93.4934C5.01001 87.9928 4.90416 82.4833 4.89534 76.9737C4.8777 68.7449 4.94826 60.5161 5.00119 52.2784C5.01001 51.4369 5.07175 50.5954 5.15995 49.7628C5.28344 48.567 5.5657 48.257 6.73882 48.0798C7.54148 47.9558 8.36178 47.8938 9.17327 47.8938C13.1513 47.9027 17.1293 47.9469 21.1074 47.9735C21.2749 47.9735 21.4425 47.9824 21.6101 48.0001C23.2066 48.1684 23.63 48.5581 23.7006 50.1702C23.8152 52.9073 23.8858 55.6532 23.9034 58.3991C23.9387 62.8988 23.9123 67.3985 23.9123 71.8983C23.877 71.8894 23.8505 71.8894 23.8152 71.8894ZM9.63193 52.8187C9.63193 65.5473 9.63193 78.1961 9.63193 90.8981C12.8338 90.8981 16.0003 90.8981 19.1669 90.8981C19.1669 78.1784 19.1669 65.5118 19.1669 52.8187C15.9827 52.8187 12.8514 52.8187 9.63193 52.8187Z" fill="#1C54AD"/>
</g>
<defs>
<clipPath id="clip0_3133_5249">
<rect width="110" height="115" fill="white"/>
</clipPath>
</defs>
</svg>
