<svg width="20" height="20" fill="none" xmlns="http://www.w3.org/2000/svg"><path d="M16.548 19.87h.38a3 3 0 002.742-1.777 3 3 0 00.258-1.233l-3.38 3.01zm2.893-1.879a2.75 2.75 0 01-2.513 1.63h0-.364A18.75 18.75 0 01.276 3.378h0v-.003A2.75 2.75 0 013.026.25h3.002v0h.004A2.75 2.75 0 018.78 2.528c.03.235.072.471.123.698.104.455.237.903.4 1.34a1.75 1.75 0 01-.876 2.17l-.015.007-.014.01-.42.28-.191.127.112.202c.553.994 1.24 1.907 2.04 2.714l.002.002a12.43 12.43 0 002.715 2.04l.23.129.116-.237.22-.45a1.75 1.75 0 012.168-.875c.437.165.886.299 1.343.4l.117.027c.172.043.382.094.583.098a2.75 2.75 0 012.244 2.653v2.999a2.75 2.75 0 01-.237 1.13zm-1.233-1.03v-.002l-.02-3.117a1.25 1.25 0 00-.987-1.246l-.009-.002-.008-.001c-.267-.04-.53-.088-.79-.146-.526-.12-1.044-.27-1.552-.452l-.218-.078-.094.212-.62 1.398a.75.75 0 01-.426.388h0l-.01.004a.75.75 0 01-.566.002 14.24 14.24 0 01-6.873-6.876.75.75 0 01.367-.997h.001l1.4-.65.211-.099-.082-.217c-.186-.494-.337-1-.45-1.515h0v-.002c-.059-.26-.107-.524-.146-.79l-.002-.009-.001-.008a1.25 1.25 0 00-1.247-.988H3.088h0a1.25 1.25 0 00-.938.425h0l-.003.004a1.34 1.34 0 00-.307 1.008h0v.004a17.25 17.25 0 0014.926 14.997h.002a1.31 1.31 0 001.014-.308l.001-.002a1.249 1.249 0 00.425-.937z" fill="#1C54AD" stroke="#fff" stroke-width=".5"/></svg>