<svg width="21" height="20" fill="none" xmlns="http://www.w3.org/2000/svg"><path d="M9.625 9.637l.125-.073V5a.75.75 0 011.5 0v4.98l-.017.099-.001.01-.001.01a.4.4 0 01-.03.123l-.004.008-.003.008a.64.64 0 01-.058.122l-.006.01-.005.012a.606.606 0 01-.056.093l-.137.111-.01.008-.009.01-.066.066-2.57 1.482h-.001a.75.75 0 01-.374.098h-.004a.75.75 0 01-.375-1.402l.002-.001 2.1-1.21zM5.083 1.893a9.75 9.75 0 1110.834 16.214A9.75 9.75 0 015.083 1.893zm.834 14.967a8.25 8.25 0 109.167-13.72 8.25 8.25 0 00-9.167 13.72z" fill="#1C54AD" stroke="#fff" stroke-width=".5"/></svg>