<svg width="135" height="116" viewBox="0 0 135 116" fill="none" xmlns="http://www.w3.org/2000/svg">
<g clip-path="url(#clip0_3133_1692)">
<mask id="mask0_3133_1692" style="mask-type:luminance" maskUnits="userSpaceOnUse" x="0" y="0" width="135" height="116">
<path d="M135 0H0V116H135V0Z" fill="white"/>
</mask>
<g mask="url(#mask0_3133_1692)">
<path d="M29.6954 82.0215C29.725 82.3514 29.7398 82.6048 29.7398 82.7745C29.7398 82.918 29.725 83.1976 29.6954 83.5952C28.2919 83.5952 26.9401 83.5188 25.64 83.3578L24.7537 83.333L24.037 83.2566C23.4018 83.2143 22.8921 83.1889 22.5007 83.1889C21.9096 83.1889 20.0702 83.333 16.9752 83.6207L16.133 83.5697C16.0074 83.5697 15.8155 83.5784 15.5716 83.5952C15.4978 83.2311 15.4609 82.6223 15.4609 81.7674C15.6234 81.6661 16.1478 81.5139 17.0417 81.302C18.3565 80.9889 19.3316 80.6168 19.9669 80.1849L19.8561 75.5483L19.9004 70.683L19.8339 69.0335L19.8561 68.365L18.3049 68.314C17.4036 68.314 16.7684 68.424 16.3991 68.6527C16.037 68.8806 15.712 69.2447 15.4313 69.7355C15.1506 70.2344 14.4636 71.6646 13.3704 74.0423C12.2845 76.4113 11.3906 78.518 10.6815 80.3378L9.38142 83.5952L7.06192 83.392L1.23359 83.6207H0.930697L0.0221185 83.5952C0.00742446 83.3666 0 83.1889 0 83.0454C0 82.8167 0.0517429 82.58 0.147728 82.3172C0.480162 82.1737 0.960323 81.9873 1.59557 81.7674C2.35642 81.4884 2.9622 81.0311 3.42008 80.3968C3.8707 79.7706 4.97141 77.7825 6.71471 74.4319C8.87166 70.2854 10.3417 67.9419 11.1395 67.3921C6.93637 66.1226 4.83103 63.5503 4.83103 59.6751C4.83103 57.2636 5.64362 55.2583 7.26874 53.6591C8.89387 52.06 11.7231 51.2561 15.7637 51.2561C16.953 51.2561 18.0463 51.3239 19.0583 51.4507C20.4027 51.5946 21.9909 51.6623 23.8228 51.6623L24.665 51.6369L25.448 51.6115C27.2356 51.6115 28.5579 51.6961 29.4074 51.8653C29.4517 52.0091 29.4738 52.1022 29.4738 52.1277V52.7622C29.4738 53.2445 29.4592 53.5238 29.4296 53.5915C29.1562 53.6592 28.7278 53.7099 28.1368 53.7607C27.2282 53.8453 26.4526 53.9722 25.8174 54.1329C25.7435 55.0721 25.7139 57.2298 25.7139 60.5889L25.8174 67.0957L25.7952 69.3969L25.8838 72.9427L25.8617 75.0662C25.8617 78.5013 25.9134 80.4726 26.0168 80.9808C26.5338 81.2088 27.2356 81.3952 28.1147 81.522C28.8533 81.6406 29.3778 81.8096 29.6954 82.0215ZM19.9004 66.0295L19.8561 63.5334L19.8339 62.3996L19.8561 59.7004L19.8117 57.6783V53.8707C19.4128 53.7861 18.8145 53.7437 18.0315 53.7437C15.8155 53.7437 14.205 54.2176 13.1857 55.1652C12.1663 56.1129 11.6566 57.7036 11.6566 59.9458C11.6566 61.9935 12.1884 63.525 13.2595 64.5487C14.3307 65.5726 16.0296 66.0803 18.3713 66.0803L19.9004 66.0295Z" fill="#404040"/>
<path d="M47.3325 77.1474C47.5616 77.2996 47.7315 77.3928 47.8497 77.4437C48.182 77.6047 48.448 77.8159 48.6474 78.0613C48.2633 79.7114 47.3178 81.141 45.8182 82.3426C44.3187 83.5529 42.4202 84.1536 40.1302 84.1536C38.6899 84.1536 37.2568 83.8063 35.8459 83.113C34.435 82.419 33.3122 81.5051 32.47 80.3712C31.8274 79.4915 31.3399 78.4167 31.0148 77.1474C30.6898 75.8781 30.5273 74.7952 30.5273 73.9068C30.5273 72.8319 30.7267 71.6223 31.1329 70.2598C31.5393 68.898 32.2115 67.6119 33.1644 66.4101C34.1173 65.2086 35.314 64.2525 36.7692 63.5418C38.2171 62.831 39.8496 62.4756 41.6668 62.4756C44.1562 62.4756 45.8922 62.9241 46.8746 63.8125C47.857 64.7094 48.3446 65.6063 48.3446 66.4948C48.3446 67.3745 48.1451 68.0685 47.7536 68.5681C47.3547 69.0757 46.8081 69.3291 46.121 69.3291C45.5302 69.3291 44.9835 69.1092 44.4886 68.6606C43.9936 68.212 43.5799 67.459 43.2476 66.4101C42.9891 65.6486 42.6567 65.0901 42.2504 64.7432C41.8514 64.4133 41.3713 64.2525 40.8099 64.2525C39.4507 64.2525 38.2466 64.9125 37.1755 66.2409C36.1117 67.569 35.5799 69.3714 35.5799 71.6645C35.5799 74.4143 36.23 76.5975 37.5375 78.2222C38.8375 79.8382 40.315 80.6502 41.977 80.6502C42.7969 80.6502 43.4913 80.5402 44.0676 80.329C44.4294 80.1848 44.9171 79.8637 45.5375 79.3641C45.6926 79.2374 45.9956 78.882 46.4314 78.3067C46.8746 77.7314 47.17 77.3418 47.3325 77.1474Z" fill="#404040"/>
<path d="M58.354 72.7052L59.1591 72.7816L62.21 72.7307L63.0373 72.7816L64.5147 72.8319C65.091 72.8319 65.8665 72.8064 66.8416 72.7562L66.8638 69.9299C66.8638 67.5435 66.8417 66.1647 66.7899 65.7925C66.7383 65.4285 66.3244 65.234 65.5489 65.217C65.2313 65.2001 64.7216 65.1493 64.0197 65.0647L63.739 63.3386C65.6523 63.474 67.0337 63.5417 67.8759 63.5417L68.9984 63.5163L70.727 63.5417C72.6623 63.5417 74.0292 63.474 74.8197 63.3386L74.5389 65.0647C73.6377 65.1832 73.1133 65.2424 72.9654 65.2424C72.308 65.2509 71.9388 65.3777 71.8571 65.5978C71.7761 65.8178 71.7314 66.6977 71.7174 68.2375L71.6504 71.2924L71.5843 75.7259C71.5843 79.2542 71.695 81.2765 71.909 81.8095C72.8027 82.0549 73.4824 82.2158 73.9481 82.2749C74.177 82.3091 74.4058 82.3593 74.6198 82.4271L74.642 83.9505L72.0717 83.815C71.259 83.7728 70.4908 83.7473 69.7523 83.7473L66.5979 83.8573L63.9165 83.9505L63.9385 82.4271C64.138 82.3593 64.3597 82.3091 64.6035 82.2749C65.4086 82.1649 66.0882 82.004 66.6275 81.8095C66.886 80.1346 67.0189 78.1967 67.0189 75.9968L66.9746 74.5833C66.0513 74.6343 65.1574 74.6598 64.2857 74.6598C63.0225 74.6598 62.077 74.643 61.4713 74.6088L59.632 74.5585C59.2552 74.5585 58.8637 74.5833 58.4427 74.6343L58.4649 75.8781L58.4206 79.3983C58.4206 80.2948 58.5166 81.0988 58.7012 81.8095C59.5951 82.0549 60.2747 82.2158 60.7401 82.2749C60.969 82.3091 61.1906 82.3593 61.39 82.4271L61.4343 83.9505L58.8638 83.815C58.0513 83.7728 57.283 83.7473 56.5443 83.7473L53.3899 83.8573L50.7085 83.9505L50.7306 82.4271C50.9301 82.3593 51.1517 82.3091 51.3955 82.2749C52.1859 82.1649 52.8581 82.004 53.4195 81.8095C53.6189 80.7011 53.7225 78.6701 53.7225 75.7259L53.6339 68.788C53.6118 66.7485 53.5304 65.6486 53.4048 65.4709C53.2719 65.3016 52.9172 65.217 52.3336 65.217C52.0012 65.2001 51.4915 65.1493 50.812 65.0647L50.5312 63.3386C52.4445 63.474 53.8259 63.5417 54.6754 63.5417L55.7981 63.5163L57.5267 63.5417C59.4768 63.5417 60.836 63.474 61.6116 63.3386L61.3457 65.0647C60.4297 65.1832 59.8979 65.2424 59.7576 65.2424C59.0705 65.2509 58.6865 65.3777 58.6053 65.5978C58.524 65.8178 58.4797 66.7062 58.4649 68.2375C58.4501 70.2095 58.413 71.6981 58.354 72.7052Z" fill="#404040"/>
<path d="M84.4577 71.9944L86.8736 71.9187L87.6714 71.8677C91.2685 71.8677 93.6769 72.3666 94.8885 73.3569C96.1069 74.3466 96.713 75.7004 96.713 77.4263C96.713 79.4915 95.9813 81.0565 94.5186 82.1314C93.0565 83.2055 91.0099 83.7473 88.3727 83.7473L85.4777 83.6964L76.7681 84.0008L76.8127 82.529L78.2234 82.2836C78.7702 82.1991 79.1981 82.0884 79.5012 81.9537C79.7158 81.5051 79.8266 79.2796 79.8266 75.2605L79.7597 71.0383L79.6936 68.1021C79.6936 66.6216 79.6564 65.7755 79.5754 65.547C79.5012 65.3271 79.1245 65.2086 78.4448 65.1916L76.8714 65.0139L76.6797 63.6601L79.3162 63.6348L80.1141 63.5925C80.7499 63.5586 81.6214 63.5417 82.729 63.5417L85.1969 63.491L86.7777 63.5163C87.0511 63.5163 87.5087 63.457 88.1587 63.3386L87.9002 65.0139C86.9471 65.1325 86.3714 65.1832 86.1641 65.1832C85.315 65.1832 84.8128 65.3016 84.6501 65.5216C84.4948 65.7416 84.4138 66.3169 84.4138 67.2391L84.4354 69.5913V70.9028C84.4354 71.2327 84.4429 71.5968 84.4577 71.9944ZM84.5684 81.5473C85.0713 81.725 85.8246 81.8182 86.8216 81.8182C90.0791 81.8182 91.7045 80.4812 91.7045 77.8072C91.7045 76.6566 91.2982 75.7004 90.4781 74.9642C89.6654 74.2199 88.4396 73.8478 86.7993 73.8478C86.1277 73.8478 85.3663 73.9155 84.5246 74.0422C84.5097 74.2454 84.5023 74.3553 84.5023 74.3889L84.5246 75.929C84.4503 77.6127 84.4138 79.2542 84.4138 80.8533C84.4138 81.0652 84.4652 81.3019 84.5684 81.5473ZM97.3921 65.0139L97.112 63.3386C99.0175 63.474 100.399 63.5417 101.27 63.5417L102.393 63.5163L104.121 63.5417C106.071 63.5417 107.446 63.474 108.236 63.3386L107.955 65.0139L106.382 65.1916C105.717 65.1916 105.348 65.3016 105.274 65.5216C105.193 65.7501 105.141 66.5963 105.133 68.0773L105.067 71.0383L105 75.2351C105 79.2542 105.112 81.4796 105.326 81.9282C106.182 82.1649 106.862 82.3091 107.364 82.3768C107.579 82.4103 107.808 82.4613 108.036 82.529L108.059 83.9505L106.559 83.8828C105.015 83.7896 103.878 83.7473 103.153 83.7473L97.2888 83.9505L97.3111 82.529C97.5325 82.4613 97.7546 82.4103 97.9908 82.3768C98.8474 82.2494 99.5271 82.0972 100.036 81.9282C100.184 81.0652 100.258 79.0087 100.258 75.7594V72.4517L100.28 69.6932C100.28 67.4168 100.251 66.097 100.191 65.7247C100.133 65.3524 99.7195 65.1578 98.9513 65.1409C98.6705 65.1409 98.1535 65.0985 97.3921 65.0139Z" fill="#404040"/>
<path d="M124.164 65.0139L123.876 63.3386C125.782 63.4909 127.163 63.567 128.035 63.567L129.158 63.5417L130.887 63.567C132.837 63.567 134.21 63.4909 135.001 63.3386L134.72 65.0139L133.147 65.1916C132.453 65.1916 132.075 65.3186 132.017 65.5724C131.95 65.8262 131.906 67.1968 131.876 69.6763L131.832 71.3178L131.765 73.3736C131.765 78.6955 131.876 81.5385 132.09 81.8858C132.947 82.1138 133.627 82.2667 134.129 82.3257C134.343 82.3592 134.572 82.4102 134.802 82.4779L134.823 83.9504L133.324 83.8826C131.788 83.7894 130.657 83.7472 129.919 83.7472L124.054 83.9504L124.075 82.4779C124.297 82.4102 124.519 82.3592 124.755 82.3257C125.612 82.199 126.299 82.0461 126.809 81.8858C126.978 80.8452 127.067 78.7632 127.067 75.6413V73.8812L126.978 71.1823C126.978 70.9369 127.008 70.4883 127.067 69.8453C122.613 75.4549 119.769 78.8397 118.55 79.9903C118.609 80.7942 118.72 81.4285 118.875 81.8858C119.732 82.1138 120.412 82.2667 120.922 82.3344C121.136 82.3592 121.357 82.4102 121.572 82.4779L121.616 83.9504L120.124 83.8826C118.58 83.7894 117.449 83.7472 116.726 83.7472L110.89 83.9504L110.912 82.4779C111.126 82.4102 111.356 82.3592 111.584 82.3257C112.419 82.199 113.098 82.0461 113.623 81.8858C113.793 80.8365 113.881 79.7449 113.881 78.611L113.86 74.6429V71.0127L113.837 69.6763L113.815 68.0684C113.8 66.5962 113.748 65.7416 113.667 65.5131C113.579 65.2762 113.202 65.1578 112.523 65.1409C112.249 65.1409 111.74 65.0985 110.993 65.0139L110.713 63.3386C112.611 63.474 113.993 63.5417 114.857 63.5417L115.979 63.5163L117.708 63.5417C119.658 63.5417 121.017 63.474 121.793 63.3386L121.535 65.0139L119.946 65.1916C119.237 65.1916 118.853 65.3186 118.787 65.5724C118.72 65.8262 118.683 67.2055 118.668 69.6844L118.602 71.1991L118.535 72.9927L118.558 77.7393L122.51 72.8325C123.655 71.3345 124.622 70.133 125.405 69.2358C126.181 68.3474 126.705 67.6876 126.978 67.2564C127.008 66.7992 127.023 66.4862 127.023 66.3339C127.023 65.5893 126.594 65.1916 125.738 65.1409C125.294 65.1239 124.77 65.0817 124.164 65.0139ZM115.721 54.8519C115.721 54.1581 115.935 53.5743 116.363 53.092C116.785 52.6098 117.309 52.3728 117.93 52.3728C118.454 52.3728 118.882 52.5335 119.23 52.8467C119.577 53.1597 120.035 53.8958 120.596 55.0719C121.364 56.6542 122.207 57.4495 123.13 57.4495C124.061 57.4495 124.895 56.6542 125.649 55.0719C126.137 54.0481 126.565 53.3459 126.935 52.9566C127.304 52.5675 127.776 52.3728 128.353 52.3728C128.951 52.3728 129.453 52.6182 129.859 53.1005C130.273 53.5912 130.48 54.175 130.48 54.8519C130.48 56.1973 129.763 57.2127 128.338 57.9149C126.905 58.6172 125.191 58.9726 123.196 58.9726C120.87 58.9726 119.045 58.6003 117.715 57.8472C116.386 57.0942 115.721 56.0958 115.721 54.8519Z" fill="#404040"/>
<path d="M35.3025 98.5718C35.0433 98.5839 34.8476 98.6389 34.7171 98.7401C34.5866 98.8387 34.362 99.1237 34.0412 99.5944L33.5247 100.345C33.3363 100.61 33.2148 100.785 33.1622 100.874C32.7836 100.843 32.5118 100.827 32.345 100.827C32.1402 100.827 31.9518 100.835 31.7778 100.853L31.5187 100.874C31.5114 100.815 31.5078 100.77 31.5078 100.74L31.5187 100.554C31.7995 100.463 31.9935 100.378 32.1041 100.299C32.2146 100.218 32.3904 100.004 32.6314 99.6561C33.088 98.9849 33.4179 98.5558 33.6208 98.37C33.8237 98.1823 34.0176 98.0596 34.2061 97.9959C34.121 97.9074 33.9887 97.7371 33.8075 97.4856C33.4395 96.9753 33.1532 96.7199 32.9466 96.7199C32.8652 96.7199 32.7799 96.7795 32.6875 96.8962C32.5444 97.0799 32.3904 97.1711 32.2254 97.1711C32.0623 97.1711 31.9337 97.1175 31.8412 97.0089C31.7489 96.9023 31.7035 96.7735 31.7035 96.6233C31.7035 96.4309 31.7724 96.2632 31.9083 96.1224C32.0442 95.9823 32.238 95.9126 32.4899 95.9126C33.0155 95.9126 33.5519 96.3263 34.101 97.155C34.3602 97.5453 34.5613 97.8081 34.7062 97.9449C34.8512 98.079 35.0506 98.1823 35.3025 98.2513L35.3079 97.1631C35.3079 96.8902 35.2952 96.7239 35.268 96.6629C35.2427 96.6012 35.1503 96.5677 34.9908 96.5636C34.9093 96.5636 34.786 96.5536 34.6193 96.5301L34.5522 96.1265C35.0216 96.158 35.3605 96.1741 35.5689 96.1741L35.8444 96.168L36.2683 96.1741C36.7468 96.1741 37.0802 96.158 37.2704 96.1265L37.2071 96.5301L36.821 96.5757C36.6833 96.5757 36.5981 96.5931 36.5692 96.6273C36.5383 96.6629 36.5167 96.7614 36.5021 96.9277C36.5021 96.9572 36.4986 97.0169 36.4913 97.1061C36.4677 97.4005 36.455 97.5983 36.455 97.6995V98.2513C36.7196 98.1702 36.9225 98.0656 37.0639 97.9389C37.2052 97.8101 37.4081 97.5486 37.6691 97.155C38.2164 96.3263 38.7492 95.9126 39.2692 95.9126C39.5212 95.9126 39.7132 95.9823 39.8492 96.1224C39.9851 96.2632 40.0539 96.4309 40.0539 96.6233C40.0539 96.7655 40.0086 96.8922 39.9181 97.0028C39.8292 97.1155 39.7042 97.1711 39.5447 97.1711C39.3725 97.1711 39.2149 97.0799 39.0736 96.8962C38.9812 96.7795 38.896 96.7199 38.8198 96.7199C38.7021 96.7199 38.5843 96.7715 38.4646 96.8761C38.3433 96.9814 38.1765 97.1832 37.9609 97.4856C37.7815 97.7371 37.6474 97.9074 37.5586 97.9959C37.7888 98.081 37.9989 98.2198 38.1911 98.4136C38.3813 98.6054 38.6966 99.0191 39.1352 99.6561C39.3762 100.008 39.5484 100.224 39.6552 100.301C39.7621 100.38 39.9579 100.463 40.2441 100.554L40.2496 100.74C40.2496 100.77 40.2478 100.815 40.2441 100.874C40.2025 100.874 40.1155 100.866 39.9868 100.853C39.8111 100.835 39.6226 100.827 39.4233 100.827C39.1985 100.827 38.9267 100.843 38.6079 100.874C38.5534 100.785 38.432 100.61 38.2436 100.347L37.7234 99.5944C37.4045 99.1257 37.178 98.8387 37.0403 98.7321C36.9044 98.6255 36.7014 98.5718 36.4332 98.5718V99.9068L36.4388 100.099L36.4441 100.315C36.5329 100.396 36.6997 100.451 36.9479 100.483C36.9968 100.491 37.0403 100.499 37.0747 100.506V100.655L37.0802 100.762C37.0802 100.782 37.0765 100.813 37.0693 100.857L37.033 100.874L36.4768 100.843C36.2211 100.817 35.9838 100.803 35.7609 100.803C35.634 100.803 35.3877 100.823 35.0234 100.861C34.9255 100.861 34.8476 100.865 34.7914 100.868C34.7135 100.872 34.641 100.874 34.574 100.874C34.5595 100.813 34.5522 100.75 34.5522 100.689C34.5522 100.649 34.554 100.595 34.5577 100.53C34.6175 100.495 34.6827 100.473 34.7534 100.461C34.8204 100.449 34.8639 100.439 34.8857 100.431L35.085 100.414C35.1557 100.406 35.2082 100.392 35.239 100.374C35.2771 100.319 35.2988 99.9055 35.3025 99.1297V98.5718ZM43.6275 96.5066L43.5568 96.1144C44.0244 96.1506 44.3632 96.168 44.577 96.168L44.8525 96.162L45.2766 96.168C45.755 96.168 46.092 96.1506 46.2859 96.1144L46.2171 96.5066L45.8311 96.5482C45.6607 96.5482 45.5683 96.5777 45.5538 96.6367C45.5374 96.6964 45.5266 97.0169 45.5193 97.5962L45.5085 97.9805L45.4922 98.4612C45.4922 99.7057 45.5193 100.37 45.5719 100.451C45.7822 100.505 45.9488 100.54 46.072 100.554C46.1247 100.562 46.1808 100.574 46.237 100.589L46.2425 100.934L45.8745 100.918C45.4976 100.897 45.2204 100.886 45.0392 100.886L43.6002 100.934L43.6058 100.589C43.6602 100.574 43.7145 100.562 43.7725 100.554C43.9826 100.524 44.1512 100.489 44.2762 100.451C44.3179 100.208 44.3397 99.7211 44.3397 98.9909V98.5799L44.3179 97.9483C44.3179 97.8913 44.3252 97.7867 44.3397 97.6358C43.2469 98.9473 42.5493 99.7392 42.2503 100.008C42.2647 100.196 42.292 100.345 42.33 100.451C42.5402 100.505 42.707 100.54 42.8319 100.556C42.8845 100.562 42.9389 100.574 42.9915 100.589L43.0023 100.934L42.6362 100.918C42.2575 100.897 41.9803 100.886 41.8027 100.886L40.371 100.934L40.3765 100.589C40.429 100.574 40.4852 100.562 40.5413 100.554C40.7462 100.524 40.9129 100.489 41.0416 100.451C41.0832 100.206 41.105 99.9504 41.105 99.6856L41.0996 98.7576V97.9087L41.0942 97.5962L41.0886 97.2207C41.0851 96.8761 41.0724 96.6763 41.0525 96.6233C41.0307 96.5677 40.9382 96.5402 40.7716 96.5361C40.7045 96.5361 40.5795 96.5261 40.3964 96.5066L40.3275 96.1144C40.7933 96.1466 41.1322 96.162 41.3442 96.162L41.6197 96.156L42.0436 96.162C42.5221 96.162 42.8555 96.1466 43.0458 96.1144L42.9824 96.5066L42.5927 96.5482C42.4187 96.5482 42.3245 96.5777 42.3082 96.6367C42.292 96.6964 42.2829 97.0189 42.2792 97.5983L42.2629 97.9523L42.2466 98.372L42.2521 99.4817L43.2216 98.3345C43.5025 97.9845 43.7398 97.7035 43.932 97.4936C44.1222 97.2858 44.2508 97.1316 44.3179 97.0303C44.3252 96.9237 44.3287 96.8506 44.3287 96.8151C44.3287 96.6407 44.2237 96.5482 44.0136 96.5361C43.9047 96.5321 43.7761 96.5221 43.6275 96.5066ZM51.5067 100.91H51.3853L50.6641 100.891L50.2836 100.886L49.8921 100.88L49.6167 100.899L49.0711 100.91C49.0495 100.841 49.0386 100.784 49.0386 100.74C49.0386 100.695 49.0476 100.624 49.0657 100.53L49.2941 100.489C49.5459 100.451 49.6711 100.388 49.6711 100.303C49.6711 100.237 49.6529 100.162 49.6184 100.077C49.5895 100.008 49.5387 99.8673 49.468 99.6581C49.3991 99.4502 49.2614 99.1022 49.0549 98.6174L48.9153 98.2513C48.8085 97.9603 48.6978 97.6975 48.5874 97.4621C48.5421 97.5768 48.4714 97.79 48.3754 98.1011C48.2974 98.36 48.1724 98.7341 48.0002 99.2229C47.7881 99.8318 47.6758 100.235 47.6614 100.437C47.7538 100.457 47.8752 100.467 48.0237 100.471L48.1034 100.483C48.1615 100.487 48.2322 100.489 48.3173 100.489L48.397 100.506C48.4043 100.57 48.408 100.633 48.408 100.701C48.408 100.809 48.3935 100.878 48.3645 100.91L48.2702 100.922C48.2159 100.93 48.1869 100.934 48.1796 100.934L47.7212 100.922L47.4547 100.928C47.2953 100.901 47.1304 100.886 46.96 100.886L46.7426 100.899L46.5125 100.916L46.3856 100.91C46.3784 100.841 46.3747 100.785 46.3747 100.744C46.3747 100.703 46.3784 100.647 46.3856 100.578C46.7444 100.487 46.9927 100.4 47.1304 100.321C47.1937 100.198 47.2898 99.9484 47.4149 99.577C47.6559 98.8669 47.9749 98.0039 48.3736 96.9948C48.4877 96.7118 48.5711 96.4926 48.6236 96.3383C48.6671 96.2136 48.7142 96.0929 48.7685 95.9722H49.1944C49.6348 97.092 50.0117 98.0019 50.3198 98.7006L50.8381 99.9726L51.0047 100.362C51.0084 100.374 51.0917 100.402 51.2585 100.447C51.4034 100.485 51.4905 100.524 51.5176 100.566C51.5249 100.61 51.5285 100.661 51.5285 100.724C51.5285 100.809 51.5212 100.87 51.5067 100.91ZM56.0443 96.6253C56.2726 96.8647 56.4412 97.1396 56.5536 97.4501C56.6641 97.7605 56.7202 98.0535 56.7202 98.3285C56.7202 98.8468 56.6477 99.2625 56.5029 99.579C56.2817 100.058 55.9864 100.412 55.6149 100.639C55.2416 100.866 54.8084 100.982 54.3174 100.982C53.7628 100.982 53.2953 100.847 52.9094 100.576C52.5251 100.304 52.2497 99.998 52.0847 99.6541C51.9199 99.3114 51.8384 98.8843 51.8384 98.374C51.8384 98.1166 51.8782 97.8557 51.9561 97.5962C52.034 97.3354 52.141 97.1074 52.2769 96.9157C52.4128 96.7219 52.5632 96.5596 52.7262 96.4289C52.9637 96.2431 53.2029 96.1104 53.4421 96.0312C53.6812 95.9521 53.9713 95.9126 54.312 95.9126C55.0531 95.9126 55.6294 96.1506 56.0443 96.6253ZM53.1431 98.6329C53.1738 99.1136 53.1975 99.3885 53.212 99.4643C53.2573 99.7231 53.3297 99.9451 53.4276 100.131C53.4946 100.251 53.6052 100.358 53.7593 100.451C53.9151 100.545 54.0999 100.589 54.3137 100.589C54.571 100.589 54.7867 100.501 54.9625 100.321C55.1383 100.141 55.2651 99.8579 55.3412 99.4737C55.3901 99.2229 55.4156 98.8112 55.4156 98.2373C55.4156 97.5332 55.3104 97.0343 55.0984 96.744C54.8882 96.451 54.6109 96.3048 54.2667 96.3048C53.9947 96.3048 53.7719 96.388 53.5943 96.5536C53.4167 96.7199 53.2917 96.9673 53.2228 97.2918C53.1757 97.5017 53.1504 97.9483 53.1431 98.6329ZM60.5747 96.5066L60.5041 96.1144C60.9716 96.1506 61.3104 96.168 61.5243 96.168L61.7997 96.162L62.2237 96.168C62.7022 96.168 63.0392 96.1506 63.2331 96.1144L63.1643 96.5066L62.7782 96.5482C62.608 96.5482 62.5156 96.5777 62.501 96.6367C62.4847 96.6964 62.4739 97.0169 62.4666 97.5962L62.4558 97.9805L62.4394 98.4612C62.4394 99.7057 62.4666 100.37 62.5191 100.451C62.7294 100.505 62.8961 100.54 63.0193 100.554C63.0718 100.562 63.1281 100.574 63.1842 100.589L63.1897 100.934L62.8217 100.918C62.4448 100.897 62.1677 100.886 61.9864 100.886L60.5475 100.934L60.553 100.589C60.6073 100.574 60.6617 100.562 60.7197 100.554C60.9299 100.524 61.0985 100.489 61.2234 100.451C61.2651 100.208 61.2869 99.7211 61.2869 98.9909V98.5799L61.2651 97.9483C61.2651 97.8913 61.2724 97.7867 61.2869 97.6358C60.1941 98.9473 59.4965 99.7392 59.1975 100.008C59.2119 100.196 59.2392 100.345 59.2773 100.451C59.4874 100.505 59.6542 100.54 59.7791 100.556C59.8318 100.562 59.8861 100.574 59.9386 100.589L59.9496 100.934L59.5834 100.918C59.2048 100.897 58.9275 100.886 58.7499 100.886L57.3183 100.934L57.3237 100.589C57.3763 100.574 57.4324 100.562 57.4886 100.554C57.6934 100.524 57.8602 100.489 57.9888 100.451C58.0305 100.206 58.0522 99.9504 58.0522 99.6856L58.0468 98.7576V97.9087L58.0414 97.5962L58.0359 97.2207C58.0323 96.8761 58.0196 96.6763 57.9997 96.6233C57.9779 96.5677 57.8855 96.5402 57.7188 96.5361C57.6517 96.5361 57.5267 96.5261 57.3437 96.5066L57.2747 96.1144C57.7406 96.1466 58.0794 96.162 58.2914 96.162L58.5669 96.156L58.9909 96.162C59.4693 96.162 59.8027 96.1466 59.993 96.1144L59.9296 96.5066L59.5399 96.5482C59.366 96.5482 59.2717 96.5777 59.2555 96.6367C59.2392 96.6964 59.2301 97.0189 59.2264 97.5983L59.2102 97.9523L59.1938 98.372L59.1993 99.4817L60.1688 98.3345C60.4497 97.9845 60.687 97.7035 60.8792 97.4936C61.0694 97.2858 61.198 97.1316 61.2651 97.0303C61.2724 96.9237 61.2759 96.8506 61.2759 96.8151C61.2759 96.6407 61.1709 96.5482 60.9606 96.5361C60.852 96.5321 60.7233 96.5221 60.5747 96.5066ZM58.5034 94.1303C58.5034 93.9681 58.556 93.8319 58.6611 93.7186C58.7644 93.606 58.893 93.551 59.0453 93.551C59.1739 93.551 59.279 93.5885 59.3642 93.6616C59.4494 93.7347 59.5618 93.907 59.6994 94.182C59.8879 94.5514 60.0945 94.7378 60.321 94.7378C60.5493 94.7378 60.7541 94.5514 60.939 94.182C61.0586 93.9426 61.1636 93.7783 61.2543 93.6871C61.3449 93.5959 61.4609 93.551 61.6022 93.551C61.749 93.551 61.8722 93.608 61.9719 93.7206C62.0734 93.8353 62.1241 93.9721 62.1241 94.1303C62.1241 94.4448 61.9483 94.6822 61.5986 94.8464C61.247 95.0107 60.8266 95.0939 60.3373 95.0939C59.7665 95.0939 59.3189 95.0067 58.9927 94.831C58.6665 94.6547 58.5034 94.4213 58.5034 94.1303ZM68.9864 96.1144L68.9229 96.518L68.5375 96.5636C68.3998 96.5636 68.3148 96.5817 68.2817 96.6173C68.2513 96.6508 68.229 96.7514 68.2182 96.9157C68.2182 96.9633 68.2149 97.029 68.2074 97.1135C68.1838 97.432 68.171 97.6318 68.171 97.7075V98.2513C68.4376 98.1702 68.6421 98.0656 68.7839 97.9389C68.927 97.8101 69.1281 97.5486 69.3927 97.155C69.9415 96.3263 70.4802 95.9126 71.0019 95.9126C71.2591 95.9126 71.4549 95.9823 71.5892 96.1204C71.7249 96.2592 71.7917 96.4275 71.7917 96.6233C71.7917 96.7655 71.7465 96.8922 71.656 97.0028C71.5656 97.1155 71.4407 97.1711 71.2794 97.1711C71.1052 97.1711 70.9473 97.0799 70.8042 96.8962C70.7117 96.7795 70.6266 96.7199 70.549 96.7199C70.4309 96.7199 70.3114 96.7715 70.1899 96.8761C70.0704 96.9794 69.9017 97.1832 69.6864 97.4856C69.5068 97.7391 69.3725 97.9087 69.2854 97.9979C69.4724 98.0596 69.6661 98.1823 69.8673 98.368C70.0684 98.5537 70.4005 98.9835 70.8622 99.6561C71.1012 100.004 71.274 100.218 71.3826 100.299C71.4913 100.378 71.6884 100.463 71.9766 100.554L71.982 100.74C71.982 100.77 71.9807 100.815 71.9766 100.874C71.9355 100.874 71.8484 100.866 71.7174 100.853C71.5399 100.835 71.3516 100.827 71.1504 100.827C70.9257 100.827 70.6523 100.843 70.3296 100.874C70.277 100.785 70.1555 100.61 69.9651 100.345L69.4454 99.5924C69.1261 99.1237 68.9 98.8347 68.7623 98.7301C68.6246 98.6255 68.4214 98.5718 68.1494 98.5718V99.9055L68.1548 100.099L68.1602 100.315C68.2493 100.396 68.416 100.451 68.6644 100.483C68.713 100.491 68.7569 100.499 68.7913 100.506V100.655L68.7967 100.762C68.7967 100.782 68.7927 100.813 68.7852 100.857L68.7495 100.874L68.1946 100.843C67.9408 100.817 67.7039 100.803 67.4826 100.803C67.3559 100.803 67.1112 100.823 66.7487 100.861C66.6509 100.861 66.5729 100.865 66.5168 100.868C66.4388 100.872 66.3681 100.874 66.3011 100.874C66.2867 100.813 66.2794 100.75 66.2794 100.689C66.2794 100.649 66.2812 100.595 66.2848 100.53C66.3446 100.495 66.4098 100.473 66.4823 100.461C66.5494 100.449 66.5928 100.439 66.6146 100.431L66.8176 100.414C66.8882 100.406 66.939 100.394 66.9716 100.374C67.0097 100.339 67.0315 99.7667 67.035 98.657L67.0404 98.4666L67.0459 97.8577L67.0514 97.1671C67.0514 96.8902 67.0387 96.7179 67.0133 96.6548C66.9897 96.5911 66.8937 96.5576 66.727 96.5536C66.6454 96.5536 66.5186 96.5422 66.3483 96.518L66.2794 96.1144C66.7469 96.1466 67.0858 96.162 67.2924 96.162L67.5675 96.156L67.9901 96.162C68.4646 96.162 68.7967 96.1466 68.9864 96.1144ZM72.0894 100.91L72.1002 100.566C72.1326 100.554 72.2466 100.534 72.4464 100.508C72.5801 100.485 72.6854 100.457 72.7596 100.427C72.8123 100.323 72.8393 99.8043 72.8393 98.8702L72.8231 97.8933L72.8069 97.2067C72.8069 96.8627 72.7974 96.6649 72.7779 96.6133C72.7596 96.5616 72.6672 96.5341 72.5004 96.5341L72.1143 96.4946L72.0671 96.162L72.7144 96.158L74.7549 96.1144C75.5319 96.1144 76.0503 96.2431 76.3095 96.5006C76.5687 96.7554 76.6989 97.029 76.6989 97.3173C76.6989 97.731 76.3783 98.0515 75.7391 98.2788C76.5666 98.4391 76.9818 98.8287 76.9818 99.4462C76.9818 99.8914 76.7968 100.237 76.4289 100.483C76.0617 100.728 75.5724 100.851 74.9595 100.851L74.2278 100.863L72.0894 100.91ZM73.9753 98.1206C74.0718 98.1367 74.1967 98.1447 74.3526 98.1447C75.1336 98.1447 75.5251 97.8658 75.5251 97.3059C75.5251 97.1356 75.4414 96.9653 75.2733 96.797C75.1046 96.6273 74.813 96.5422 74.3945 96.5422C74.2743 96.5422 74.1245 96.5536 73.9429 96.5777C73.9429 96.6233 73.9463 96.7044 73.9537 96.8191C73.9645 97.029 73.9699 97.2697 73.9699 97.5486V97.8678C73.9699 97.9483 73.9719 98.0314 73.9753 98.1206ZM74.003 100.348C74.1258 100.39 74.3128 100.412 74.5592 100.412C75.3618 100.412 75.7641 100.103 75.7641 99.4858C75.7641 98.8843 75.2875 98.5839 74.3364 98.5839C74.1461 98.5839 74.032 98.5953 73.9922 98.6174C73.9881 98.663 73.9861 98.6905 73.9861 98.6986L73.9922 99.0526C73.974 99.4402 73.9645 99.8204 73.9645 100.188C73.9645 100.237 73.9773 100.291 74.003 100.348ZM82.2913 99.7546L82.4128 99.8418C82.4459 99.8693 82.4634 99.9035 82.4709 99.9411L82.4763 99.9705C82.3912 100.315 82.2805 100.55 82.1428 100.681C82.0051 100.809 81.833 100.874 81.6285 100.874C81.4199 100.874 81.2403 100.811 81.0898 100.687C80.9413 100.56 80.8036 100.339 80.6808 100.022C80.5282 100.317 80.3129 100.538 80.0355 100.687C79.758 100.835 79.4192 100.91 79.0189 100.91C78.649 100.91 78.377 100.827 78.2035 100.659C78.0294 100.491 77.9423 100.269 77.9423 99.994C77.9423 99.8673 77.9679 99.7392 78.0206 99.6065C78.0712 99.4757 78.1542 99.3456 78.2703 99.2169C78.3844 99.0861 78.5714 98.944 78.8265 98.7891C78.865 98.7676 79.0007 98.7006 79.2309 98.5933L80.5572 98.014C80.568 97.8678 80.5734 97.7189 80.5734 97.5687C80.5734 97.0464 80.5154 96.6904 80.3979 96.5026C80.3271 96.3859 80.2022 96.3283 80.0247 96.3283C79.8471 96.3283 79.6838 96.3658 79.5353 96.4389C79.3868 96.512 79.2781 96.6052 79.2093 96.7219C79.16 96.807 79.1188 96.9673 79.0824 97.2026C79.0567 97.373 79.0331 97.4702 79.0135 97.4977C78.9588 97.5708 78.863 97.6378 78.7233 97.6975C78.5822 97.7565 78.4877 97.8001 78.4371 97.8282C78.2454 97.9288 78.0928 97.9784 77.9787 97.9784C77.9335 97.9328 77.9099 97.8658 77.9099 97.7826C77.9099 97.5627 77.9517 97.373 78.0368 97.2147C78.165 96.9908 78.3574 96.7755 78.6146 96.5636C78.8704 96.3538 79.1114 96.2076 79.3341 96.1224C79.6386 96.0138 80.0118 95.9602 80.4506 95.9602C80.7334 95.9602 80.9778 96.0178 81.1809 96.1305C81.3855 96.2451 81.5272 96.4134 81.6069 96.6367C81.6865 96.8607 81.7263 97.2643 81.7263 97.8457L81.7155 98.8012L81.7263 99.5019V99.6816C81.7263 99.8418 81.7459 99.9524 81.7857 100.014C81.8256 100.073 81.8769 100.103 81.9403 100.103C81.9781 100.103 82.0105 100.091 82.0382 100.067L82.1975 99.7962L82.2913 99.7546ZM80.5518 98.4136C80.3487 98.4867 80.1205 98.6094 79.8654 98.7817C79.6095 98.9534 79.432 99.1257 79.3321 99.3C79.2619 99.4261 79.2255 99.583 79.2255 99.7667C79.2255 99.933 79.2727 100.071 79.3652 100.178C79.4577 100.287 79.5643 100.341 79.6858 100.341C79.8849 100.341 80.055 100.279 80.1927 100.154C80.3831 99.99 80.4938 99.8579 80.5248 99.7587C80.5572 99.6601 80.5734 99.3812 80.5734 98.9219C80.5734 98.7536 80.566 98.5839 80.5518 98.4136ZM82.5741 103.801V103.532C82.6376 103.49 82.6828 103.461 82.7118 103.445L83.1182 103.282C83.2863 103.209 83.3828 103.151 83.4024 103.108C83.4584 102.993 83.484 102.787 83.4766 102.495L83.4442 100.19L83.3895 97.3254C83.3787 97.1155 83.3389 96.9673 83.268 96.8781C83.1978 96.7909 83.0095 96.6984 82.7044 96.6012V96.3048C83.0507 96.2311 83.3409 96.1405 83.5779 96.0312C83.7507 95.9541 83.9856 95.808 84.2812 95.5921L84.5532 95.5807L84.5586 95.7429L84.5532 96.3658C84.5532 96.388 84.5546 96.445 84.5586 96.5382C84.8664 96.3343 85.1182 96.1995 85.316 96.1345C85.6062 96.0413 85.9269 95.9957 86.2765 95.9957C86.637 95.9957 86.9562 96.097 87.235 96.2968C87.2566 96.3122 87.2877 96.3343 87.3255 96.3618C87.503 96.5006 87.6319 96.6327 87.7136 96.7614C87.8891 97.0343 88.016 97.3059 88.0943 97.5728C88.1537 97.7746 88.1847 98.024 88.1847 98.3264C88.1847 98.7281 88.1375 99.068 88.0416 99.3476C87.9458 99.6246 87.7804 99.9055 87.5469 100.186C87.3126 100.469 87.0629 100.671 86.7969 100.789C86.5283 100.91 86.2475 100.97 85.9539 100.97C85.6643 100.97 85.4577 100.95 85.3322 100.91C85.0953 100.837 84.8597 100.728 84.6275 100.584C84.6221 100.645 84.618 100.687 84.618 100.71L84.6275 100.866C84.6295 100.908 84.6295 100.962 84.6295 101.023C84.6295 101.051 84.6275 101.203 84.6241 101.48L84.6403 102.535C84.6403 102.558 84.6363 102.635 84.6295 102.766V102.831C84.6295 102.974 84.6383 103.078 84.6565 103.143C84.6727 103.181 84.7038 103.225 84.7524 103.27C84.7868 103.286 84.8212 103.304 84.8536 103.324C84.9623 103.345 85.0608 103.369 85.1439 103.393C85.2276 103.415 85.316 103.434 85.4085 103.451C85.4395 103.494 85.4557 103.549 85.4557 103.621C85.4557 103.662 85.4537 103.725 85.4503 103.807H85.3545C85.1493 103.807 85.0062 103.803 84.9245 103.795L84.1239 103.723H83.9282L83.7412 103.717L83.5563 103.736L83.2701 103.753C83.1634 103.757 83.0473 103.767 82.9184 103.782C82.7915 103.799 82.699 103.807 82.643 103.807L82.5741 103.801ZM84.5823 99.648C84.5964 99.6956 84.6059 99.7292 84.6093 99.7526C84.6471 99.931 84.6984 100.058 84.7578 100.131C84.8664 100.269 84.9933 100.362 85.1351 100.408C85.347 100.473 85.5333 100.506 85.6933 100.506C85.8776 100.506 86.0571 100.465 86.2313 100.38C86.4068 100.295 86.5485 100.18 86.6552 100.038C86.668 100.018 86.6896 99.99 86.7186 99.9565C86.7423 99.8934 86.7625 99.8478 86.7767 99.8163C86.9178 99.5153 86.9886 99.1948 86.9886 98.8548C86.9886 98.2292 86.8185 97.7015 86.4777 97.2717C86.2401 96.9673 85.9053 96.8151 85.4685 96.8151C85.2093 96.8151 84.9157 96.8882 84.5856 97.0343C84.5782 97.1852 84.5748 97.6083 84.5748 98.305L84.5856 99.4227C84.5856 99.4502 84.5836 99.5253 84.5823 99.648ZM88.5891 97.3354C88.6174 97.2777 88.6471 97.1966 88.6741 97.088L88.7389 96.8922C88.8132 96.6548 88.8915 96.3779 88.9691 96.0614L89.0238 95.877H89.2627C89.2809 95.9072 89.2958 95.9307 89.3046 95.9468C89.3937 96.107 89.4497 96.1955 89.4747 96.2156C89.5111 96.2277 89.6927 96.2331 90.0221 96.2331L91.1237 96.2156L91.5429 96.2217H92.7734C92.7842 96.2217 92.824 96.2177 92.8908 96.2096C92.9577 96.2036 93.0029 96.1881 93.0285 96.166C93.0542 96.1446 93.0832 96.0829 93.119 95.9823L93.1662 95.8831C93.2371 95.879 93.3404 95.877 93.4761 95.877L93.4815 96.7695L93.4869 97.153C93.4869 97.3904 93.4794 97.5272 93.4653 97.5647C93.3492 97.6063 93.2499 97.6298 93.1662 97.6338C93.1102 97.5413 93.0319 97.3709 92.9361 97.1215C92.851 96.9083 92.7855 96.7836 92.7423 96.748C92.6971 96.7138 92.5466 96.6964 92.2908 96.6964L91.9971 96.7024C91.8939 96.7024 91.7798 96.6964 91.6549 96.6843L91.6657 97.1671L91.6549 97.788L91.6333 98.8112C91.6333 99.7848 91.6583 100.325 91.7076 100.433C91.9283 100.491 92.095 100.528 92.2044 100.543C92.2604 100.55 92.3144 100.562 92.367 100.578L92.3724 100.934L91.744 100.903C91.5462 100.893 91.3593 100.886 91.1838 100.886L90.4082 100.912L89.7521 100.934L89.7629 100.578C89.8081 100.562 89.8608 100.55 89.9208 100.543C90.1179 100.516 90.2847 100.479 90.417 100.433C90.4737 100.131 90.5027 99.7211 90.5027 99.2068L90.4804 97.9503C90.4804 97.3274 90.4737 96.9137 90.4554 96.7085C90.2961 96.7004 90.1706 96.6964 90.0801 96.6964C89.7669 96.6964 89.5671 96.7219 89.4821 96.7715C89.3991 96.8211 89.2627 96.9753 89.0764 97.2321L88.9765 97.3649C88.9097 97.4581 88.8604 97.5037 88.828 97.5037C88.7625 97.5037 88.6829 97.4481 88.5891 97.3354ZM98.3928 99.7546L98.5143 99.8418C98.5467 99.8693 98.5649 99.9035 98.5716 99.9411L98.577 99.9705C98.492 100.315 98.3813 100.55 98.2436 100.681C98.1059 100.809 97.9338 100.874 97.7292 100.874C97.5207 100.874 97.3411 100.811 97.1913 100.687C97.0428 100.56 96.9044 100.339 96.7815 100.022C96.629 100.317 96.4137 100.538 96.1362 100.687C95.8588 100.835 95.52 100.91 95.1197 100.91C94.7498 100.91 94.4784 100.827 94.3043 100.659C94.1301 100.491 94.0431 100.269 94.0431 99.994C94.0431 99.8673 94.0687 99.7392 94.1214 99.6065C94.172 99.4757 94.2557 99.3456 94.3711 99.2169C94.4859 99.0861 94.6722 98.944 94.9273 98.7891C94.9658 98.7676 95.1015 98.7006 95.3316 98.5933L96.658 98.014C96.6695 97.8678 96.6749 97.7189 96.6749 97.5687C96.6749 97.0464 96.6168 96.6904 96.4987 96.5026C96.4278 96.3859 96.303 96.3283 96.1254 96.3283C95.9479 96.3283 95.7846 96.3658 95.6361 96.4389C95.4876 96.512 95.3789 96.6052 95.31 96.7219C95.2614 96.807 95.2196 96.9673 95.1831 97.2026C95.1582 97.373 95.1345 97.4702 95.1143 97.4977C95.0603 97.5708 94.9638 97.6378 94.8247 97.6975C94.683 97.7565 94.5891 97.8001 94.5378 97.8282C94.3461 97.9288 94.1936 97.9784 94.0795 97.9784C94.0343 97.9328 94.0107 97.8658 94.0107 97.7826C94.0107 97.5627 94.0525 97.373 94.1376 97.2147C94.2665 96.9908 94.4582 96.7755 94.7154 96.5636C94.9712 96.3538 95.2122 96.2076 95.4349 96.1224C95.7393 96.0138 96.1126 95.9602 96.5514 95.9602C96.8342 95.9602 97.0785 96.0178 97.2817 96.1305C97.4862 96.2451 97.628 96.4134 97.7076 96.6367C97.7873 96.8607 97.8271 97.2643 97.8271 97.8457L97.8163 98.8012L97.8271 99.5019V99.6816C97.8271 99.8418 97.8467 99.9524 97.8872 100.014C97.927 100.073 97.9776 100.103 98.0411 100.103C98.0789 100.103 98.112 100.091 98.139 100.067L98.2983 99.7962L98.3928 99.7546ZM96.6526 98.4136C96.4501 98.4867 96.2213 98.6094 95.9661 98.7817C95.7103 98.9534 95.5328 99.1257 95.4336 99.3C95.3627 99.4261 95.3262 99.583 95.3262 99.7667C95.3262 99.933 95.3735 100.071 95.466 100.178C95.5584 100.287 95.6651 100.341 95.7866 100.341C95.9857 100.341 96.1565 100.279 96.2942 100.154C96.4845 99.99 96.5946 99.8579 96.6256 99.7587C96.658 99.6601 96.6749 99.3812 96.6749 98.9219C96.6749 98.7536 96.6675 98.5839 96.6526 98.4136ZM103.743 100.91H103.621L102.9 100.891L102.52 100.886L102.128 100.88L101.853 100.899L101.307 100.91C101.285 100.841 101.274 100.784 101.274 100.74C101.274 100.695 101.284 100.624 101.301 100.53L101.53 100.489C101.782 100.451 101.907 100.388 101.907 100.303C101.907 100.237 101.888 100.162 101.854 100.077C101.825 100.008 101.774 99.8673 101.703 99.6581C101.635 99.4502 101.497 99.1022 101.29 98.6174L101.151 98.2513C101.044 97.9603 100.933 97.6975 100.823 97.4621C100.778 97.5768 100.707 97.79 100.611 98.1011C100.533 98.36 100.408 98.7341 100.236 99.2229C100.024 99.8318 99.9108 100.235 99.8967 100.437C99.9891 100.457 100.111 100.467 100.26 100.471L100.339 100.483C100.397 100.487 100.468 100.489 100.553 100.489L100.633 100.506C100.64 100.57 100.644 100.633 100.644 100.701C100.644 100.809 100.63 100.878 100.601 100.91L100.506 100.922C100.451 100.93 100.422 100.934 100.416 100.934L99.9567 100.922L99.6901 100.928C99.5308 100.901 99.3654 100.886 99.1953 100.886L98.978 100.899L98.7478 100.916L98.6209 100.91C98.6135 100.841 98.6101 100.785 98.6101 100.744C98.6101 100.703 98.6135 100.647 98.6209 100.578C98.9793 100.487 99.2277 100.4 99.3654 100.321C99.4289 100.198 99.5247 99.9484 99.6503 99.577C99.8913 98.8669 100.21 98.0039 100.609 96.9948C100.723 96.7118 100.807 96.4926 100.859 96.3383C100.903 96.2136 100.95 96.0929 101.004 95.9722H101.43C101.871 97.092 102.248 98.0019 102.555 98.7006L103.074 99.9726L103.24 100.362C103.244 100.374 103.328 100.402 103.494 100.447C103.639 100.485 103.726 100.524 103.753 100.566C103.761 100.61 103.764 100.661 103.764 100.724C103.764 100.809 103.757 100.87 103.743 100.91Z" fill="#404040"/>
<path d="M24.0485 112.635L24.059 112.291C24.0906 112.279 24.2014 112.259 24.3949 112.234C24.5251 112.21 24.6271 112.182 24.6992 112.153C24.7501 112.047 24.7766 111.529 24.7766 110.596L24.7607 109.618L24.7449 108.931C24.7449 108.587 24.7361 108.39 24.7167 108.338C24.6992 108.286 24.6095 108.259 24.4476 108.259L24.0731 108.219L24.0273 107.887L24.6552 107.883L26.6356 107.84C27.3901 107.84 27.8932 107.969 28.1446 108.225C28.3962 108.481 28.5228 108.754 28.5228 109.043C28.5228 109.456 28.2114 109.776 27.5906 110.004C28.3944 110.164 28.7971 110.554 28.7971 111.171C28.7971 111.616 28.6179 111.963 28.2608 112.208C27.9038 112.453 27.4288 112.576 26.8343 112.576L26.1238 112.588L24.0485 112.635ZM25.8793 109.846C25.9725 109.861 26.094 109.869 26.2452 109.869C27.0033 109.869 27.3832 109.59 27.3832 109.031C27.3832 108.86 27.3022 108.69 27.1387 108.522C26.9751 108.352 26.6919 108.267 26.2857 108.267C26.1696 108.267 26.0236 108.279 25.8477 108.302C25.8477 108.348 25.8512 108.429 25.8583 108.544C25.8688 108.754 25.874 108.995 25.874 109.274V109.593C25.874 109.674 25.8758 109.757 25.8793 109.846ZM25.9057 112.073C26.0254 112.115 26.2064 112.136 26.4457 112.136C27.2248 112.136 27.6152 111.828 27.6152 111.21C27.6152 110.609 27.1527 110.309 26.2294 110.309C26.0446 110.309 25.9339 110.321 25.8952 110.342C25.8917 110.388 25.8898 110.415 25.8898 110.423L25.8952 110.777C25.8776 111.166 25.8688 111.545 25.8688 111.913C25.8688 111.963 25.8811 112.016 25.9057 112.073ZM31.2015 109.863L31.7766 109.846L31.9665 109.834C32.8231 109.834 33.3965 109.951 33.685 110.182C33.9751 110.413 34.1193 110.73 34.1193 111.133C34.1193 111.616 33.9452 111.982 33.597 112.234C33.2487 112.485 32.7615 112.611 32.1336 112.611L31.4442 112.6L29.3706 112.671L29.3812 112.326L29.717 112.269C29.8472 112.249 29.9492 112.224 30.0213 112.192C30.0723 112.087 30.0988 111.567 30.0988 110.627L30.0829 109.64L30.0671 108.953C30.0671 108.607 30.0582 108.409 30.0389 108.356C30.0213 108.304 29.9316 108.277 29.7698 108.273L29.3952 108.231L29.3494 107.915L29.9774 107.909L30.1673 107.899C30.3186 107.891 30.5261 107.887 30.7899 107.887L31.3773 107.875L31.7538 107.881C31.8188 107.881 31.9279 107.867 32.0826 107.84L32.0211 108.231C31.7942 108.259 31.657 108.271 31.6078 108.271C31.4055 108.271 31.2859 108.298 31.2472 108.35C31.2103 108.402 31.191 108.536 31.191 108.752L31.1962 109.301V109.608C31.1962 109.686 31.198 109.77 31.2015 109.863ZM31.2279 112.097C31.3475 112.138 31.5268 112.161 31.7642 112.161C32.5399 112.161 32.9269 111.847 32.9269 111.223C32.9269 110.954 32.8301 110.73 32.6349 110.558C32.4415 110.384 32.1495 110.297 31.759 110.297C31.599 110.297 31.4178 110.313 31.2174 110.342C31.2138 110.39 31.212 110.415 31.212 110.423L31.2174 110.783C31.1997 111.177 31.191 111.561 31.191 111.935C31.191 111.984 31.2032 112.04 31.2279 112.097ZM34.2812 108.231L34.2144 107.84C34.6681 107.871 34.9969 107.887 35.2046 107.887L35.4719 107.881L35.8834 107.887C36.3477 107.887 36.6749 107.871 36.8631 107.84L36.7963 108.231L36.4217 108.273C36.2633 108.273 36.1754 108.298 36.1578 108.35C36.1384 108.404 36.1262 108.601 36.1244 108.947L36.1085 109.64L36.0927 110.621C36.0927 111.561 36.1191 112.081 36.1701 112.186C36.3741 112.242 36.5359 112.275 36.6556 112.291C36.7065 112.299 36.7611 112.311 36.8156 112.326L36.8209 112.659L36.4639 112.643C36.0963 112.621 35.8254 112.611 35.653 112.611L34.2565 112.659L34.2618 112.326C34.3147 112.311 34.3673 112.299 34.4237 112.291C34.6277 112.261 34.7895 112.226 34.9108 112.186C34.946 111.984 34.9635 111.503 34.9635 110.744V109.97L34.9689 109.325C34.9689 108.793 34.9618 108.485 34.9477 108.398C34.9336 108.31 34.8352 108.265 34.6523 108.261C34.5855 108.261 34.4623 108.251 34.2812 108.231ZM41.436 111.068C41.4904 111.104 41.531 111.125 41.5591 111.137C41.6383 111.175 41.7016 111.225 41.749 111.282C41.6576 111.668 41.4325 112.002 41.0754 112.283C40.7184 112.566 40.2663 112.706 39.7212 112.706C39.3782 112.706 39.037 112.625 38.701 112.463C38.3651 112.301 38.0977 112.087 37.8972 111.822C37.7443 111.616 37.6282 111.365 37.5508 111.068C37.4734 110.771 37.4346 110.518 37.4346 110.311C37.4346 110.059 37.4822 109.776 37.5789 109.458C37.6757 109.139 37.8357 108.839 38.0625 108.558C38.2895 108.277 38.5744 108.053 38.9209 107.887C39.2656 107.721 39.6543 107.638 40.0871 107.638C40.6797 107.638 41.093 107.743 41.327 107.95C41.5608 108.16 41.6769 108.369 41.6769 108.577C41.6769 108.783 41.6295 108.945 41.5362 109.062C41.4412 109.181 41.3111 109.24 41.1475 109.24C41.0068 109.24 40.8767 109.189 40.7588 109.084C40.641 108.979 40.5425 108.803 40.4633 108.558C40.4017 108.38 40.3227 108.249 40.2259 108.168C40.1309 108.091 40.0167 108.053 39.883 108.053C39.5594 108.053 39.2726 108.208 39.0176 108.518C38.7644 108.829 38.6378 109.25 38.6378 109.786C38.6378 110.429 38.7925 110.94 39.1038 111.32C39.4133 111.697 39.7651 111.887 40.1608 111.887C40.3561 111.887 40.5214 111.862 40.6586 111.812C40.7448 111.778 40.8608 111.703 41.0086 111.587C41.0456 111.557 41.1176 111.474 41.2214 111.339C41.327 111.205 41.3973 111.114 41.436 111.068ZM46.4433 108.35C46.6649 108.589 46.8285 108.864 46.9376 109.175C47.0448 109.485 47.0994 109.778 47.0994 110.053C47.0994 110.571 47.029 110.987 46.8882 111.304C46.6737 111.782 46.387 112.136 46.0264 112.364C45.6641 112.592 45.2438 112.706 44.7672 112.706C44.2289 112.706 43.7752 112.572 43.4006 112.301C43.0276 112.03 42.7603 111.723 42.6003 111.379C42.4402 111.037 42.3611 110.609 42.3611 110.099C42.3611 109.842 42.3997 109.58 42.4753 109.322C42.5511 109.06 42.6548 108.833 42.7867 108.641C42.9186 108.447 43.0646 108.285 43.2228 108.154C43.4533 107.969 43.6855 107.836 43.9176 107.757C44.1497 107.677 44.4313 107.638 44.7619 107.638C45.4812 107.638 46.0406 107.875 46.4433 108.35ZM43.6274 110.358C43.6573 110.839 43.6802 111.114 43.6943 111.189C43.7383 111.448 43.8086 111.67 43.9036 111.856C43.9686 111.976 44.0759 112.083 44.2255 112.176C44.3767 112.269 44.5561 112.315 44.7636 112.315C45.0134 112.315 45.2227 112.226 45.3932 112.045C45.5639 111.866 45.687 111.583 45.7608 111.199C45.8084 110.948 45.8329 110.536 45.8329 109.963C45.8329 109.258 45.731 108.76 45.5252 108.469C45.3212 108.176 45.0521 108.03 44.7179 108.03C44.4541 108.03 44.2377 108.113 44.0654 108.279C43.893 108.445 43.7717 108.692 43.7049 109.017C43.659 109.226 43.6345 109.674 43.6274 110.358ZM50.2546 107.84L50.1931 108.243L49.8184 108.289C49.6847 108.289 49.6021 108.306 49.5705 108.342C49.5405 108.376 49.5194 108.477 49.5088 108.641C49.5088 108.688 49.5054 108.754 49.4983 108.839C49.4754 109.157 49.4632 109.357 49.4632 109.432V109.976C49.7217 109.895 49.9205 109.79 50.0577 109.664C50.1965 109.535 50.3918 109.274 50.6486 108.88C51.1815 108.051 51.7039 107.638 52.2104 107.638C52.4602 107.638 52.65 107.707 52.7802 107.846C52.9121 107.984 52.9772 108.152 52.9772 108.348C52.9772 108.49 52.9332 108.617 52.8452 108.728C52.7574 108.841 52.636 108.896 52.4795 108.896C52.3106 108.896 52.1577 108.805 52.0187 108.621C51.929 108.504 51.8463 108.445 51.7707 108.445C51.6564 108.445 51.5403 108.496 51.4225 108.601C51.3064 108.704 51.1428 108.908 50.9334 109.21C50.7594 109.464 50.6292 109.634 50.5448 109.723C50.726 109.784 50.9142 109.907 51.1094 110.093C51.3047 110.279 51.6265 110.708 52.075 111.381C52.3071 111.729 52.4742 111.943 52.5798 112.024C52.6853 112.103 52.877 112.188 53.1567 112.279L53.1619 112.465C53.1619 112.495 53.1602 112.54 53.1567 112.6C53.1162 112.6 53.0318 112.592 52.9052 112.578C52.7328 112.56 52.5498 112.552 52.3546 112.552C52.1365 112.552 51.8709 112.568 51.5579 112.6C51.5069 112.511 51.3891 112.334 51.2044 112.069L50.6995 111.318C50.3901 110.848 50.1701 110.56 50.0365 110.455C49.9028 110.35 49.7059 110.297 49.442 110.297V111.63L49.4473 111.824L49.4526 112.04C49.5388 112.121 49.7005 112.176 49.9415 112.208C49.9891 112.216 50.0313 112.224 50.0647 112.232V112.38L50.0699 112.486C50.0699 112.507 50.0664 112.538 50.0594 112.582L50.0243 112.6L49.486 112.568C49.2398 112.542 49.0094 112.528 48.7948 112.528C48.6718 112.528 48.4342 112.548 48.0825 112.586C47.9875 112.586 47.9119 112.59 47.8573 112.594C47.7817 112.598 47.7131 112.6 47.6481 112.6C47.634 112.538 47.627 112.475 47.627 112.413C47.627 112.374 47.6287 112.321 47.6323 112.255C47.6903 112.22 47.7536 112.198 47.8239 112.186C47.889 112.174 47.9312 112.165 47.9524 112.157L48.1493 112.138C48.2179 112.13 48.2671 112.119 48.2988 112.099C48.3357 112.063 48.3569 111.491 48.3603 110.382L48.3657 110.192L48.3709 109.582L48.3762 108.892C48.3762 108.615 48.3639 108.443 48.3393 108.38C48.3164 108.317 48.2232 108.283 48.0614 108.279C47.9823 108.279 47.8591 108.267 47.6938 108.243L47.627 107.84C48.0807 107.871 48.4096 107.887 48.6101 107.887L48.8774 107.881L49.2872 107.887C49.7481 107.887 50.0699 107.871 50.2546 107.84ZM57.5484 108.35C57.77 108.589 57.9336 108.864 58.0426 109.175C58.1498 109.485 58.2044 109.778 58.2044 110.053C58.2044 110.571 58.134 110.987 57.9934 111.304C57.7787 111.782 57.4921 112.136 57.1315 112.364C56.7692 112.592 56.3488 112.706 55.8723 112.706C55.334 112.706 54.8802 112.572 54.5057 112.301C54.1327 112.03 53.8654 111.723 53.7053 111.379C53.5453 111.037 53.4662 110.609 53.4662 110.099C53.4662 109.842 53.5048 109.58 53.5805 109.322C53.6561 109.06 53.7599 108.833 53.8917 108.641C54.0237 108.447 54.1697 108.285 54.3279 108.154C54.5584 107.969 54.7906 107.836 55.0226 107.757C55.2549 107.677 55.5363 107.638 55.8669 107.638C56.5863 107.638 57.1457 107.875 57.5484 108.35ZM54.7326 110.358C54.7624 110.839 54.7852 111.114 54.7994 111.189C54.8434 111.448 54.9136 111.67 55.0087 111.856C55.0737 111.976 55.181 112.083 55.3305 112.176C55.4817 112.269 55.6611 112.315 55.8687 112.315C56.1185 112.315 56.3278 112.226 56.4983 112.045C56.669 111.866 56.792 111.583 56.8659 111.199C56.9135 110.948 56.9381 110.536 56.9381 109.963C56.9381 109.258 56.836 108.76 56.6302 108.469C56.4262 108.176 56.1572 108.03 55.823 108.03C55.5591 108.03 55.3428 108.113 55.1705 108.279C54.9981 108.445 54.8768 108.692 54.8099 109.017C54.7642 109.226 54.7396 109.674 54.7326 110.358ZM61.9454 108.231L61.8768 107.84C62.3305 107.875 62.6594 107.893 62.867 107.893L63.1343 107.887L63.5459 107.893C64.0102 107.893 64.3374 107.875 64.5257 107.84L64.4587 108.231L64.0841 108.273C63.9188 108.273 63.829 108.302 63.815 108.362C63.7991 108.421 63.7886 108.742 63.7815 109.322L63.771 109.705L63.7552 110.186C63.7552 111.43 63.7815 112.095 63.8325 112.176C64.0366 112.23 64.1984 112.265 64.318 112.279C64.369 112.287 64.4236 112.299 64.478 112.315L64.4834 112.659L64.1262 112.643C63.7605 112.621 63.4914 112.611 63.3155 112.611L61.919 112.659L61.9243 112.315C61.977 112.299 62.0298 112.287 62.0861 112.279C62.29 112.249 62.4537 112.214 62.575 112.176C62.6154 111.933 62.6366 111.446 62.6366 110.716V110.305L62.6154 109.674C62.6154 109.616 62.6225 109.511 62.6366 109.361C61.576 110.673 60.8989 111.464 60.6087 111.733C60.6228 111.921 60.6492 112.069 60.686 112.176C60.8901 112.23 61.0519 112.265 61.1732 112.281C61.2243 112.287 61.2771 112.299 61.3281 112.315L61.3386 112.659L60.9833 112.643C60.6158 112.621 60.3466 112.611 60.1742 112.611L58.7848 112.659L58.7901 112.315C58.8411 112.299 58.8956 112.287 58.9501 112.279C59.1489 112.249 59.3107 112.214 59.4355 112.176C59.4761 111.931 59.4971 111.676 59.4971 111.41L59.4919 110.483V109.634L59.4866 109.322L59.4813 108.945C59.4778 108.601 59.4654 108.402 59.4461 108.348C59.4251 108.292 59.3353 108.265 59.1735 108.261C59.1085 108.261 58.9871 108.251 58.8094 108.231L58.7426 107.84C59.1946 107.871 59.5235 107.887 59.7293 107.887L59.9966 107.881L60.4082 107.887C60.8725 107.887 61.1961 107.871 61.3809 107.84L61.3193 108.231L60.941 108.273C60.7722 108.273 60.6808 108.302 60.665 108.362C60.6492 108.421 60.6404 108.744 60.6368 109.324L60.621 109.678L60.6052 110.097L60.6104 111.206L61.5514 110.059C61.824 109.709 62.0544 109.428 62.2409 109.218C62.4256 109.01 62.5504 108.856 62.6154 108.756C62.6225 108.648 62.626 108.575 62.626 108.54C62.626 108.366 62.524 108.273 62.32 108.261C62.2144 108.257 62.0896 108.247 61.9454 108.231ZM59.9351 105.855C59.9351 105.693 59.986 105.557 60.0881 105.444C60.1884 105.331 60.3132 105.276 60.461 105.276C60.5858 105.276 60.6879 105.313 60.7705 105.386C60.8532 105.459 60.9622 105.632 61.0959 105.907C61.2788 106.277 61.4793 106.463 61.6991 106.463C61.9207 106.463 62.1195 106.277 62.2988 105.907C62.415 105.667 62.517 105.503 62.605 105.412C62.6928 105.321 62.8055 105.276 62.9426 105.276C63.085 105.276 63.2047 105.333 63.3015 105.446C63.3999 105.561 63.4491 105.697 63.4491 105.855C63.4491 106.17 63.2785 106.408 62.9391 106.571C62.5979 106.735 62.1898 106.819 61.715 106.819C61.161 106.819 60.7266 106.731 60.41 106.556C60.0933 106.379 59.9351 106.146 59.9351 105.855ZM70.1098 107.84L70.0483 108.243L69.6737 108.289C69.5401 108.289 69.457 108.306 69.4253 108.342C69.3956 108.376 69.3747 108.477 69.3639 108.641C69.3639 108.688 69.3605 108.754 69.3538 108.839C69.3308 109.157 69.318 109.357 69.318 109.432V109.976C69.5765 109.895 69.7756 109.79 69.9127 109.664C70.0517 109.535 70.2468 109.274 70.504 108.88C71.0366 108.051 71.559 107.638 72.0652 107.638C72.3157 107.638 72.5053 107.707 72.6356 107.846C72.7672 107.984 72.832 108.152 72.832 108.348C72.832 108.49 72.7882 108.617 72.7004 108.728C72.6127 108.841 72.4912 108.896 72.3346 108.896C72.1658 108.896 72.0126 108.805 71.8735 108.621C71.7838 108.504 71.7014 108.445 71.6258 108.445C71.5117 108.445 71.3956 108.496 71.2775 108.601C71.1614 108.704 70.9981 108.908 70.7888 109.21C70.6147 109.464 70.4844 109.634 70.4 109.723C70.5809 109.784 70.7692 109.907 70.9643 110.093C71.1601 110.279 71.4814 110.708 71.9302 111.381C72.1624 111.729 72.3292 111.943 72.4351 112.024C72.5404 112.103 72.7322 112.188 73.0117 112.279L73.017 112.465C73.017 112.495 73.015 112.54 73.0117 112.6C72.9711 112.6 72.8867 112.592 72.7605 112.578C72.5877 112.56 72.4048 112.552 72.2097 112.552C71.9917 112.552 71.7264 112.568 71.4132 112.6C71.3619 112.511 71.2444 112.334 71.0595 112.069L70.5546 111.318C70.2454 110.848 70.0254 110.56 69.8917 110.455C69.7581 110.35 69.5611 110.297 69.2971 110.297V111.63L69.3025 111.824L69.3079 112.04C69.3936 112.121 69.5556 112.176 69.7966 112.208C69.8445 112.216 69.8863 112.224 69.9201 112.232V112.38L69.9248 112.486C69.9248 112.507 69.9216 112.538 69.9147 112.582L69.8796 112.6L69.341 112.568C69.0952 112.542 68.8644 112.528 68.6497 112.528C68.527 112.528 68.2893 112.548 67.9376 112.586C67.8424 112.586 67.7668 112.59 67.7122 112.594C67.6367 112.598 67.5684 112.6 67.5029 112.6C67.4891 112.538 67.4821 112.475 67.4821 112.413C67.4821 112.374 67.4839 112.321 67.4874 112.255C67.5454 112.22 67.6089 112.198 67.6791 112.186C67.7439 112.174 67.7864 112.165 67.8073 112.157L68.0044 112.138C68.0733 112.13 68.1227 112.119 68.1536 112.099C68.1908 112.063 68.2117 111.491 68.2157 110.382L68.2204 110.192L68.2259 109.582L68.2312 108.892C68.2312 108.615 68.2191 108.443 68.1941 108.38C68.1718 108.317 68.078 108.283 67.9167 108.279C67.8377 108.279 67.7142 108.267 67.5488 108.243L67.4821 107.84C67.9356 107.871 68.265 107.887 68.4655 107.887L68.7328 107.881L69.1425 107.887C69.6035 107.887 69.9248 107.871 70.1098 107.84ZM72.857 107.899C72.9785 107.875 73.0771 107.863 73.156 107.863C73.1979 107.863 73.2438 107.865 73.2964 107.869C73.6096 107.897 73.8648 107.911 74.0619 107.911H74.3292L75.0643 107.863C75.0906 107.887 75.1156 107.913 75.1365 107.938C75.1257 108.111 75.1169 108.219 75.1102 108.267C75.0589 108.279 75.0184 108.286 74.992 108.29C74.911 108.302 74.853 108.312 74.8145 108.323C74.7774 108.332 74.7355 108.34 74.6917 108.348C74.6384 108.364 74.6107 108.392 74.6032 108.429C74.625 108.522 74.6437 108.599 74.6653 108.663L74.911 109.23C75.1068 109.77 75.3053 110.269 75.5111 110.724L75.798 111.391C75.819 111.345 75.9526 110.964 76.1969 110.249C76.4926 109.405 76.6505 108.926 76.6755 108.819C76.6897 108.76 76.6964 108.71 76.6964 108.667C76.6964 108.629 76.6856 108.566 76.6647 108.477C76.5891 108.413 76.5277 108.374 76.4804 108.356C76.4311 108.34 76.3198 108.319 76.1443 108.296L75.9809 108.249L75.9647 108.166C75.9613 108.126 75.9593 108.097 75.9593 108.077C75.9593 108.046 75.9647 107.994 75.9755 107.923C76.0774 107.915 76.151 107.911 76.1969 107.911L76.6141 107.944L76.8915 107.958C77.0096 107.958 77.2121 107.94 77.5003 107.903C77.6779 107.879 77.8115 107.867 77.9013 107.863C77.908 107.958 77.9121 108.032 77.9121 108.081C77.9121 108.105 77.9101 108.138 77.9067 108.186C77.8453 108.219 77.7764 108.247 77.7008 108.267C77.5773 108.302 77.4687 108.334 77.3755 108.366C77.3209 108.411 77.2857 108.451 77.2661 108.483C77.2081 108.629 77.0906 108.949 76.9131 109.444L76.5418 110.565L75.6832 112.875L75.0926 114.405C74.9623 114.699 74.8078 114.95 74.6316 115.16C74.5668 115.241 74.4912 115.302 74.4048 115.346C74.2644 115.405 74.1024 115.437 73.9228 115.437C73.9066 115.437 73.8121 115.423 73.64 115.397C73.4969 115.358 73.3761 115.277 73.2721 115.15C73.1999 115.057 73.1628 114.96 73.1628 114.855C73.1628 114.645 73.2438 114.449 73.4058 114.269C73.5516 114.168 73.6589 114.119 73.7278 114.119C73.8823 114.119 74.0632 114.21 74.2711 114.39C74.3677 114.477 74.4453 114.523 74.5047 114.523C74.5627 114.523 74.6107 114.485 74.6437 114.412C74.9414 113.757 75.1331 113.292 75.2188 113.019L74.2645 110.657C73.9053 109.709 73.6326 109.047 73.4429 108.667C73.3477 108.473 73.2789 108.358 73.2404 108.325C73.1999 108.289 73.1405 108.257 73.0575 108.229C73.0117 108.217 72.961 108.196 72.9029 108.16C72.8854 108.069 72.8712 107.982 72.857 107.899ZM82.7856 112.635H82.6675L81.9675 112.615L81.5983 112.611L81.2182 112.605L80.9509 112.623L80.4217 112.635C80.4008 112.566 80.39 112.509 80.39 112.465C80.39 112.419 80.3988 112.348 80.4163 112.255L80.6377 112.214C80.8821 112.176 81.0036 112.113 81.0036 112.028C81.0036 111.963 80.986 111.887 80.953 111.803C80.9246 111.733 80.8754 111.593 80.8065 111.383C80.7397 111.175 80.606 110.827 80.4055 110.342L80.2705 109.976C80.1666 109.686 80.0593 109.422 79.952 109.187C79.9081 109.302 79.8392 109.515 79.7461 109.826C79.6705 110.085 79.549 110.459 79.3823 110.948C79.1764 111.557 79.067 111.961 79.0535 112.162C79.1426 112.182 79.2607 112.192 79.4052 112.196L79.4821 112.208C79.5388 112.212 79.607 112.214 79.69 112.214L79.767 112.232C79.7744 112.295 79.7778 112.358 79.7778 112.425C79.7778 112.534 79.7636 112.603 79.7359 112.635L79.6441 112.647C79.5915 112.655 79.5631 112.659 79.5564 112.659L79.1116 112.647L78.853 112.653C78.6978 112.625 78.5378 112.611 78.3724 112.611L78.1618 112.623L77.9384 112.641L77.8149 112.635C77.8081 112.566 77.8048 112.511 77.8048 112.469C77.8048 112.427 77.8081 112.372 77.8149 112.303C78.1632 112.212 78.4043 112.124 78.5378 112.045C78.5993 111.923 78.6925 111.674 78.8139 111.302C79.0481 110.592 79.3573 109.729 79.7447 108.72C79.8554 108.437 79.9364 108.217 79.987 108.063C80.0296 107.938 80.0748 107.818 80.1281 107.697H80.5412C80.9685 108.817 81.3343 109.727 81.6334 110.425L82.1362 111.697L82.2982 112.087C82.3016 112.099 82.3826 112.126 82.5446 112.172C82.685 112.21 82.7694 112.249 82.7957 112.291C82.8031 112.334 82.8065 112.386 82.8065 112.449C82.8065 112.534 82.7998 112.596 82.7856 112.635ZM84.7431 109.863L85.3202 109.846L85.5099 109.834C86.3678 109.834 86.9417 109.951 87.2318 110.182C87.5221 110.413 87.6658 110.73 87.6658 111.133C87.6658 111.616 87.4917 111.982 87.142 112.234C86.7937 112.485 86.305 112.611 85.6753 112.611L84.9854 112.6L82.9071 112.659L82.9172 112.315L83.2534 112.257C83.3836 112.238 83.4856 112.212 83.5578 112.182C83.6084 112.077 83.6347 111.557 83.6347 110.621L83.6192 109.634L83.603 108.951C83.603 108.607 83.5942 108.407 83.5753 108.356C83.5578 108.304 83.468 108.275 83.306 108.273L82.9314 108.231L82.8855 107.915L83.5132 107.909L83.7036 107.899C83.8548 107.891 84.062 107.887 84.3259 107.887L84.9139 107.875L85.2898 107.881C85.3553 107.881 85.464 107.867 85.6186 107.84L85.5571 108.231C85.3324 108.259 85.1954 108.271 85.1474 108.271C84.9469 108.271 84.8275 108.298 84.7883 108.35C84.7519 108.402 84.7323 108.536 84.7323 108.752L84.7377 109.301V109.608C84.7377 109.686 84.7397 109.77 84.7431 109.863ZM84.764 112.097C84.8835 112.138 85.0651 112.161 85.304 112.161C86.083 112.161 86.4738 111.847 86.4738 111.223C86.4738 110.954 86.3752 110.73 86.1802 110.558C85.9844 110.384 85.6908 110.297 85.2986 110.297C85.1386 110.297 84.9557 110.313 84.7533 110.342C84.7499 110.39 84.7485 110.415 84.7485 110.423L84.7533 110.783C84.7357 111.177 84.7269 111.561 84.7269 111.935C84.7269 111.984 84.7397 112.04 84.764 112.097ZM88.0391 109.06C88.0668 109.003 88.0951 108.922 88.1215 108.813L88.1849 108.617C88.2571 108.38 88.3327 108.103 88.4083 107.786L88.461 107.602H88.6932C88.7107 107.632 88.725 107.655 88.7337 107.671C88.8202 107.832 88.8741 107.921 88.8991 107.94C88.9342 107.952 89.1103 107.958 89.4303 107.958L90.4995 107.94L90.9058 107.946H92.0999C92.1107 107.946 92.1492 107.942 92.2147 107.934C92.2795 107.928 92.3233 107.913 92.3483 107.891C92.3726 107.869 92.401 107.808 92.4361 107.707L92.482 107.608C92.5501 107.604 92.6507 107.602 92.7823 107.602L92.7877 108.494L92.7931 108.878C92.7931 109.116 92.7857 109.252 92.7722 109.289C92.6595 109.331 92.563 109.355 92.482 109.359C92.4273 109.266 92.3517 109.096 92.2585 108.847C92.1755 108.633 92.1121 108.508 92.0702 108.473C92.0263 108.439 91.88 108.421 91.6321 108.421L91.3473 108.427C91.2474 108.427 91.136 108.421 91.0152 108.409L91.0253 108.892L91.0152 109.513L90.9936 110.536C90.9936 111.51 91.0186 112.049 91.0658 112.159C91.2805 112.216 91.4425 112.253 91.5478 112.267C91.6024 112.275 91.6551 112.287 91.7064 112.303L91.7111 112.659L91.1009 112.627C90.9092 112.617 90.7283 112.611 90.5575 112.611L89.8049 112.637L89.1684 112.659L89.1785 112.303C89.2224 112.287 89.2738 112.275 89.3317 112.267C89.5235 112.242 89.6854 112.204 89.8137 112.159C89.8684 111.856 89.896 111.446 89.896 110.932L89.8751 109.676C89.8751 109.052 89.8684 108.639 89.8508 108.433C89.6956 108.425 89.5741 108.421 89.4863 108.421C89.1819 108.421 88.9888 108.447 88.9058 108.496C88.8255 108.546 88.6932 108.7 88.5123 108.958L88.4151 109.09C88.3503 109.183 88.303 109.228 88.2713 109.228C88.2079 109.228 88.1302 109.173 88.0391 109.06ZM92.7101 107.899C92.8316 107.875 92.9302 107.863 93.0091 107.863C93.0518 107.863 93.0976 107.865 93.1502 107.869C93.4634 107.897 93.7179 107.911 93.915 107.911H94.1823L94.9174 107.863C94.9445 107.887 94.9688 107.913 94.9896 107.938C94.9795 108.111 94.9707 108.219 94.9633 108.267C94.9127 108.279 94.8721 108.286 94.8458 108.29C94.7648 108.302 94.7068 108.312 94.6676 108.323C94.6312 108.332 94.5886 108.34 94.5448 108.348C94.4921 108.364 94.4638 108.392 94.457 108.429C94.4779 108.522 94.4976 108.599 94.5184 108.663L94.7648 109.23C94.9599 109.77 95.1583 110.269 95.3642 110.724L95.6511 111.391C95.672 111.345 95.8057 110.964 96.05 110.249C96.3457 109.405 96.5043 108.926 96.5286 108.819C96.5428 108.76 96.5495 108.71 96.5495 108.667C96.5495 108.629 96.5394 108.566 96.5178 108.477C96.4422 108.413 96.3809 108.374 96.3335 108.356C96.2842 108.34 96.1735 108.319 95.9974 108.296L95.834 108.249L95.8178 108.166C95.8144 108.126 95.8131 108.097 95.8131 108.077C95.8131 108.046 95.8178 107.994 95.8286 107.923C95.9305 107.915 96.0049 107.911 96.05 107.911L96.4672 107.944L96.7453 107.958C96.8627 107.958 97.0652 107.94 97.3534 107.903C97.531 107.879 97.6646 107.867 97.7544 107.863C97.7618 107.958 97.7652 108.032 97.7652 108.081C97.7652 108.105 97.7633 108.138 97.7598 108.186C97.6984 108.219 97.6295 108.247 97.5539 108.267C97.4311 108.302 97.3217 108.334 97.2286 108.366C97.1739 108.411 97.1388 108.451 97.1199 108.483C97.0619 108.629 96.9437 108.949 96.7662 109.444L96.3949 110.565L95.537 112.875L94.9457 114.405C94.8154 114.699 94.6609 114.95 94.4847 115.16C94.42 115.241 94.3444 115.302 94.2579 115.346C94.1175 115.405 93.9556 115.437 93.7759 115.437C93.7604 115.437 93.6652 115.423 93.4931 115.397C93.3507 115.358 93.2292 115.277 93.1252 115.15C93.053 115.057 93.0166 114.96 93.0166 114.855C93.0166 114.645 93.0976 114.449 93.2589 114.269C93.4054 114.168 93.512 114.119 93.5809 114.119C93.7355 114.119 93.917 114.21 94.1242 114.39C94.2214 114.477 94.2984 114.523 94.3585 114.523C94.4165 114.523 94.4638 114.485 94.4975 114.412C94.7945 113.757 94.9862 113.292 95.0726 113.019L94.1175 110.657C93.7584 109.709 93.4857 109.047 93.296 108.667C93.2008 108.473 93.1327 108.358 93.0935 108.325C93.053 108.289 92.9936 108.257 92.9106 108.229C92.8654 108.217 92.8141 108.196 92.7561 108.16C92.7385 108.069 92.7243 107.982 92.7101 107.899Z" fill="#404040"/>
<path d="M97.7227 115.526V115.256C97.7848 115.215 97.8287 115.185 97.8563 115.169L98.2505 115.007C98.4139 114.934 98.5077 114.877 98.5266 114.833C98.5813 114.719 98.6056 114.513 98.5988 114.22L98.5671 111.915L98.5145 109.051C98.5037 108.841 98.4652 108.692 98.3963 108.603C98.3282 108.516 98.1452 108.423 97.8496 108.327V108.03C98.1857 107.956 98.4672 107.865 98.6974 107.757C98.8648 107.68 99.0929 107.533 99.3798 107.317L99.6437 107.305L99.6491 107.468L99.6437 108.091C99.6437 108.113 99.6451 108.17 99.6491 108.263C99.9482 108.059 100.193 107.925 100.384 107.859C100.666 107.767 100.977 107.721 101.316 107.721C101.666 107.721 101.976 107.822 102.247 108.021C102.267 108.038 102.298 108.059 102.334 108.087C102.507 108.225 102.632 108.358 102.711 108.487C102.882 108.76 103.005 109.031 103.08 109.297C103.138 109.499 103.168 109.749 103.168 110.051C103.168 110.453 103.123 110.793 103.03 111.072C102.936 111.349 102.776 111.63 102.549 111.911C102.322 112.194 102.08 112.396 101.821 112.515C101.561 112.635 101.288 112.694 101.003 112.694C100.722 112.694 100.521 112.675 100.4 112.635C100.17 112.562 99.9406 112.453 99.716 112.309C99.7106 112.37 99.7072 112.411 99.7072 112.436L99.716 112.592C99.7172 112.633 99.7173 112.687 99.7173 112.748C99.7173 112.775 99.716 112.928 99.7119 113.205L99.7281 114.259C99.7281 114.283 99.7247 114.361 99.7173 114.491V114.556C99.7173 114.699 99.7261 114.804 99.7436 114.869C99.7598 114.906 99.7895 114.95 99.8368 114.996C99.8705 115.011 99.9036 115.029 99.9353 115.049C100.041 115.071 100.136 115.094 100.217 115.118C100.298 115.14 100.384 115.16 100.474 115.175C100.504 115.219 100.519 115.274 100.519 115.346C100.519 115.387 100.518 115.45 100.514 115.531H100.421C100.222 115.531 100.083 115.527 100.004 115.52L99.2266 115.448H99.0368L98.856 115.443L98.6765 115.46L98.3984 115.478C98.2944 115.482 98.1824 115.492 98.0575 115.508C97.934 115.524 97.8442 115.531 97.7895 115.531L97.7227 115.526ZM99.6714 111.373C99.6856 111.42 99.6944 111.454 99.6984 111.478C99.7349 111.656 99.7841 111.782 99.8422 111.856C99.9482 111.994 100.071 112.088 100.208 112.132C100.414 112.198 100.595 112.232 100.75 112.232C100.93 112.232 101.103 112.19 101.273 112.105C101.443 112.02 101.58 111.905 101.684 111.763C101.696 111.743 101.717 111.715 101.746 111.682C101.768 111.618 101.788 111.573 101.802 111.541C101.939 111.241 102.008 110.92 102.008 110.58C102.008 109.955 101.842 109.426 101.511 108.997C101.281 108.692 100.956 108.54 100.532 108.54C100.28 108.54 99.9954 108.614 99.6755 108.76C99.668 108.91 99.6646 109.333 99.6646 110.03L99.6755 111.147C99.6755 111.175 99.6734 111.251 99.6714 111.373ZM105.581 109.863L106.156 109.846L106.346 109.834C107.203 109.834 107.776 109.951 108.064 110.182C108.355 110.413 108.499 110.73 108.499 111.133C108.499 111.616 108.325 111.982 107.977 112.234C107.628 112.485 107.142 112.611 106.513 112.611L105.824 112.6L103.75 112.671L103.761 112.327L104.097 112.269C104.227 112.25 104.329 112.224 104.401 112.192C104.452 112.088 104.479 111.567 104.479 110.627L104.463 109.64L104.447 108.953C104.447 108.608 104.438 108.41 104.419 108.356C104.401 108.304 104.311 108.277 104.149 108.273L103.775 108.231L103.73 107.915L104.357 107.909L104.547 107.899C104.698 107.891 104.906 107.887 105.17 107.887L105.757 107.875L106.134 107.881C106.199 107.881 106.308 107.867 106.463 107.84L106.401 108.231C106.174 108.259 106.037 108.271 105.987 108.271C105.786 108.271 105.666 108.298 105.627 108.35C105.59 108.402 105.571 108.536 105.571 108.752L105.576 109.301V109.609C105.576 109.686 105.578 109.771 105.581 109.863ZM105.607 112.097C105.728 112.138 105.906 112.161 106.144 112.161C106.92 112.161 107.307 111.848 107.307 111.223C107.307 110.954 107.21 110.73 107.015 110.558C106.821 110.384 106.529 110.297 106.139 110.297C105.979 110.297 105.798 110.313 105.597 110.342C105.594 110.39 105.592 110.415 105.592 110.423L105.597 110.783C105.58 111.177 105.571 111.561 105.571 111.935C105.571 111.984 105.583 112.04 105.607 112.097ZM108.661 108.231L108.594 107.84C109.048 107.871 109.377 107.887 109.584 107.887L109.852 107.881L110.264 107.887C110.727 107.887 111.055 107.871 111.243 107.84L111.176 108.231L110.801 108.273C110.643 108.273 110.555 108.298 110.538 108.35C110.518 108.404 110.506 108.601 110.504 108.947L110.488 109.64L110.473 110.621C110.473 111.561 110.499 112.081 110.55 112.186C110.754 112.242 110.916 112.275 111.036 112.291C111.086 112.299 111.141 112.311 111.196 112.327L111.201 112.659L110.844 112.643C110.476 112.621 110.205 112.611 110.033 112.611L108.636 112.659L108.641 112.327C108.694 112.311 108.747 112.299 108.803 112.291C109.007 112.261 109.169 112.226 109.291 112.186C109.326 111.984 109.343 111.503 109.343 110.744V109.971L109.349 109.326C109.349 108.793 109.341 108.485 109.327 108.398C109.313 108.31 109.215 108.265 109.032 108.261C108.965 108.261 108.842 108.251 108.661 108.231Z" fill="#404040"/>
<path fill-rule="evenodd" clip-rule="evenodd" d="M132.067 101.92H109.632C109.632 101.92 108.513 102.452 110.516 103.079C112.52 103.706 131.13 102.479 132.067 101.92Z" fill="#404040"/>
<path fill-rule="evenodd" clip-rule="evenodd" d="M2.51562 101.92H24.9494C24.9494 101.92 26.0695 102.452 24.0658 103.079C22.062 103.706 3.45195 102.479 2.51562 101.92Z" fill="#404040"/>
<path fill-rule="evenodd" clip-rule="evenodd" d="M59.8052 53.3333C59.8052 53.3333 49.792 42.1115 47.3713 36.5005C47.3713 36.5005 41.0993 40.7269 41.7962 41.8929C42.4931 43.0588 59.8052 53.3333 59.8052 53.3333Z" fill="#9C9C9C"/>
<path fill-rule="evenodd" clip-rule="evenodd" d="M38.8242 15.6753C38.8242 15.6753 48.9641 3.76517 50.8073 3.0906C52.6506 2.41602 53.6208 3.66881 54.7364 7.42729C55.852 11.1856 63.1732 51.1176 63.1732 52.1013C63.1732 53.085 63.4272 54.7749 61.1166 51.9752C58.806 49.1756 42.0753 23.0534 38.8242 15.6753Z" fill="#E3E3E3"/>
<path fill-rule="evenodd" clip-rule="evenodd" d="M64.7122 52.4207C64.7122 52.4207 72.7348 8.29641 73.0723 6.48496C73.4098 4.67349 74.0706 0.896914 73.3045 0.288174C72.5384 -0.320643 65.082 -0.168399 57.1152 2.77398C58.5437 10.0416 60.5263 17.2233 61.4008 24.5771L64.7122 52.4207Z" fill="#DEDEDE"/>
<path fill-rule="evenodd" clip-rule="evenodd" d="M66.9512 48.1503C66.9512 48.1503 84.1063 17.8248 84.917 15.812C85.7276 13.7992 87.6048 11.454 85.1721 9.72781C82.7394 8.00162 76.3289 4.16567 76.2135 4.70268C76.0974 5.23969 66.9512 48.1503 66.9512 48.1503Z" fill="#BEBEBE"/>
<path fill-rule="evenodd" clip-rule="evenodd" d="M67.0059 50.5621C67.0059 50.5621 90.8536 32.1665 92.674 30.5784C94.4952 28.9903 95.3389 28.3727 94.1395 25.77C92.9407 23.1672 88.8103 18.8882 88.8103 18.8882L67.0059 50.5621Z" fill="#ABABAB"/>
<path fill-rule="evenodd" clip-rule="evenodd" d="M66.6055 51.8854C66.6055 51.8854 87.6994 39.6217 91.2526 36.0044C91.2526 36.0044 96.6256 43.7243 96.5817 44.6508C96.5371 45.5772 97.2918 46.3712 90.8968 47.474C84.5019 48.5769 66.6055 51.8854 66.6055 51.8854Z" fill="#BCBCBC"/>
</g>
</g>
<defs>
<clipPath id="clip0_3133_1692">
<rect width="135" height="116" fill="white"/>
</clipPath>
</defs>
</svg>
