<svg width="204" height="54" viewBox="0 0 204 54" fill="none" xmlns="http://www.w3.org/2000/svg">
<g clip-path="url(#clip0_3133_1662)">
<path d="M149.781 30.6448V44.4713H147.596V32.6197H142.526V34.7921C142.526 36.7768 142.431 38.4389 142.235 39.7749C142.039 41.111 141.747 42.128 141.356 42.8224C140.965 43.5169 140.534 43.9972 140.063 44.2642C139.596 44.5312 139.022 44.6661 138.349 44.6661C138.11 44.6661 137.858 44.6397 137.593 44.5876C137.328 44.5383 137.119 44.4854 136.97 44.4326L136.758 44.377V42.3034C137.153 42.432 137.514 42.4937 137.846 42.4937C138.227 42.4937 138.555 42.4011 138.83 42.2108C139.105 42.0195 139.367 41.6644 139.613 41.1444C139.857 40.6244 140.04 39.8348 140.156 38.7746C140.272 37.7118 140.331 36.3854 140.331 34.7921V30.6457L149.781 30.6448Z" fill="#E9EEF3"/>
<path d="M122.658 44.4713L128.427 30.6448H130.615L136.384 44.4713H134.1L132.604 40.8184H126.438L124.943 44.4713H122.658ZM129.524 33.1132L127.233 38.8398H131.809L129.524 33.1132Z" fill="#E9EEF3"/>
<path d="M113.311 30.6448H123.851V32.6197H119.673V44.4713H117.489V32.6197H113.311V30.6448Z" fill="#E9EEF3"/>
<path d="M102.275 30.6448H107.838C109.168 30.6448 110.279 31.0757 111.177 31.9411C112.072 32.8066 112.52 33.857 112.52 35.0944C112.52 36.3317 112.072 37.3813 111.177 38.2405C110.279 39.1033 109.168 39.5334 107.838 39.5334H104.46V44.4705H102.275V30.6448ZM107.839 32.6197H104.461V37.5567H107.839C108.526 37.5567 109.112 37.3231 109.6 36.849C110.084 36.3784 110.326 35.7923 110.326 35.0944C110.326 34.3964 110.084 33.8112 109.6 33.3335C109.112 32.8603 108.526 32.6197 107.839 32.6197Z" fill="#E9EEF3"/>
<path d="M86.9492 44.4713L92.7182 30.6448H94.9067L100.676 44.4713H98.3915L96.8964 40.8184H90.7296L89.2345 44.4713H86.9492ZM93.8156 33.1132L91.5251 38.8398H96.1L93.8156 33.1132Z" fill="#E9EEF3"/>
<path d="M82.0799 44.4713H76.1191V30.6448H81.7825C82.9064 30.6448 83.8715 31.0131 84.667 31.7533C85.4625 32.491 85.8612 33.3397 85.8612 34.2977C85.8612 34.8503 85.7448 35.3579 85.5166 35.8215C85.2876 36.2859 85.0594 36.6049 84.8339 36.7856L84.4726 37.0649C84.5259 37.0914 84.5986 37.1337 84.691 37.1962C84.7842 37.2553 84.9564 37.3875 85.2014 37.5911C85.4465 37.792 85.6587 38.0159 85.838 38.2591C86.0138 38.5023 86.1799 38.8223 86.3316 39.21C86.4844 39.5987 86.5608 40.0032 86.5608 40.4209C86.5608 41.5234 86.1328 42.4779 85.2778 43.2745C84.421 44.073 83.3566 44.4713 82.0799 44.4713ZM81.7816 32.5245H78.3031V36.2762H81.7816C82.3249 36.2762 82.776 36.0982 83.1346 35.7394C83.496 35.3843 83.6744 34.9367 83.6744 34.3999C83.6744 33.8632 83.496 33.4155 83.1346 33.0604C82.776 32.7025 82.3249 32.5245 81.7816 32.5245ZM78.304 42.5915H82.0808C82.7307 42.5915 83.274 42.3747 83.7153 41.9402C84.153 41.5057 84.3749 40.9655 84.3749 40.3239C84.3749 39.6824 84.1556 39.1421 83.7179 38.7051C83.2802 38.267 82.7369 38.0502 82.0799 38.0502H78.3031L78.304 42.5915Z" fill="#E9EEF3"/>
<path d="M65.2768 30.6448V37.3654L71.5403 30.6448H74.3289L68.9568 36.3714L74.7267 44.4713H72.0374L67.4617 37.955L65.2768 40.3248V44.4713H63.0918V30.6448H65.2768Z" fill="#E9EEF3"/>
<path d="M204.001 21.498H201.816V11.5297L194.055 21.498H192.17V7.67236H194.355V17.6512L202.117 7.67236H204.001V21.498Z" fill="#E9EEF3"/>
<path d="M188.979 21.498H186.794V11.5297L179.033 21.498H177.15V7.67236H179.334V17.6512L187.097 7.67236H188.979V21.498Z" fill="#E9EEF3"/>
<path d="M166.306 7.67236V14.3931L172.569 7.67236H175.358L169.986 13.399L175.756 21.498H173.066L168.491 14.9818L166.306 17.3516V21.498H164.121V7.67236H166.306Z" fill="#E9EEF3"/>
<path d="M156.362 7.47729C157.069 7.47729 157.745 7.56984 158.391 7.75402C159.041 7.93469 159.574 8.15854 159.998 8.42205C160.423 8.68556 160.795 8.94553 161.113 9.20551C161.428 9.46196 161.663 9.68229 161.813 9.87L162.025 10.1397L160.635 11.5286C160.595 11.4757 160.54 11.4035 160.466 11.3109C160.389 11.2157 160.22 11.0474 159.955 10.8042C159.69 10.5609 159.404 10.3503 159.101 10.1723C158.796 9.99427 158.4 9.83299 157.909 9.68228C157.422 9.53071 156.905 9.45491 156.361 9.45491C154.919 9.45491 153.692 9.95196 152.692 10.9425C151.686 11.9366 151.185 13.151 151.185 14.5832C151.185 16.0179 151.683 17.2323 152.684 18.23C153.686 19.2275 154.912 19.7246 156.361 19.7246C156.904 19.7246 157.426 19.6488 157.92 19.4973C158.417 19.3456 158.827 19.1649 159.153 18.9543C159.48 18.7401 159.769 18.5295 160.019 18.3224C160.267 18.1118 160.453 17.9339 160.578 17.7858L160.731 17.5452L162.13 18.9341C162.08 19.0098 162.001 19.1121 161.895 19.2373C161.785 19.3624 161.551 19.5827 161.186 19.8991C160.818 20.212 160.43 20.4922 160.019 20.7389C159.607 20.9822 159.07 21.2025 158.407 21.3973C157.744 21.5947 157.061 21.6934 156.361 21.6934C154.276 21.6934 152.528 21.006 151.116 19.6302C149.704 18.2546 148.998 16.5731 148.998 14.585C148.998 12.6002 149.704 10.9187 151.116 9.54304C152.53 8.16559 154.277 7.47729 156.362 7.47729Z" fill="#E9EEF3"/>
<path d="M146.611 21.498H144.426V11.5297L136.664 21.498H134.781V7.67236H136.966V17.6512L144.729 7.67236H146.611V21.498Z" fill="#E9EEF3"/>
<path d="M131.59 21.498H129.404V11.5297L121.643 21.498H119.76V7.67236H121.945V17.6512L129.707 7.67236H131.59V21.498Z" fill="#E9EEF3"/>
<path d="M116.579 7.67236V21.498H114.393V9.64733H107.527V21.498H105.342V7.67236H116.579Z" fill="#E9EEF3"/>
<path d="M98.276 21.498H92.7129V7.67236H94.8978V12.6094H98.276C99.6059 12.6094 100.717 13.0403 101.615 13.9057C102.51 14.7712 102.957 15.8208 102.957 17.059C102.957 18.2963 102.51 19.3459 101.615 20.2052C100.716 21.067 99.605 21.498 98.276 21.498ZM94.8978 19.5204H98.276C98.9622 19.5204 99.549 19.2868 100.036 18.8128C100.52 18.3422 100.763 17.7561 100.763 17.0581C100.763 16.3602 100.524 15.774 100.04 15.2973C99.5588 14.8232 98.9693 14.5834 98.276 14.5834H94.8978V19.5204Z" fill="#E9EEF3"/>
<path d="M89.5185 7.67236V21.4989H87.3337V9.64733H82.2642V11.8198C82.2642 13.8044 82.1683 15.4665 81.973 16.8025C81.7778 18.1386 81.4856 19.1556 81.0941 19.85C80.7026 20.5445 80.272 21.0247 79.8015 21.2918C79.3335 21.5589 78.76 21.6937 78.0871 21.6937C77.8483 21.6937 77.5961 21.6672 77.3315 21.6144C77.066 21.5651 76.8574 21.513 76.7082 21.4601L76.4961 21.4047V19.3309C76.8912 19.4596 77.2525 19.5222 77.5836 19.5222C77.9655 19.5222 78.293 19.4296 78.5683 19.2393C78.8435 19.048 79.1054 18.693 79.3504 18.173C79.5963 17.653 79.7783 16.8625 79.8946 15.8032C80.011 14.7403 80.0704 13.414 80.0704 11.8206V7.67413H89.5185V7.67236Z" fill="#E9EEF3"/>
<path d="M62.25 21.4984L68.019 7.67188H70.2075L75.9765 21.4984H73.6921L72.197 17.8454H66.0303L64.5353 21.4984H62.25ZM69.1164 10.1413L66.8258 15.8679H71.4016L69.1164 10.1413Z" fill="#E9EEF3"/>
<path d="M140.715 6.56317L136.238 1.9082H138.869L140.715 3.82325L142.555 1.9126H145.19L140.715 6.56317Z" fill="#E9EEF3"/>
<path d="M198.061 6.56647L193.586 1.91943H196.222L198.061 3.82742L199.9 1.91943H202.538L198.061 6.56647Z" fill="#E9EEF3"/>
<path d="M24.0854 54L23.7463 53.8658C16.4835 50.9933 10.4589 46.5698 6.32451 41.0736C2.18746 35.5734 0 29.0824 0 22.3037V0H48.1701V22.3037C48.1701 29.0824 45.9833 35.5734 41.8456 41.0736C37.7112 46.5698 31.6872 50.9933 24.4246 53.8658L24.0854 54ZM1.83299 1.81886V22.3037C1.83299 35.3088 10.1431 46.4019 24.0854 52.0402C38.0276 46.4019 46.3378 35.3088 46.3378 22.3037V1.81886H1.83299Z" fill="#E9EEF3"/>
<path d="M25.0022 0.909424H23.1699V52.9615H25.0022V0.909424Z" fill="#E9EEF3"/>
<path d="M1.46107 18.5557L0.419922 20.0532L23.5615 35.907L24.6025 34.4095L1.46107 18.5557Z" fill="#E9EEF3"/>
<path d="M1.46302 10.1208L0.421875 11.6183L23.5634 27.4722L24.6045 25.9747L1.46302 10.1208Z" fill="#E9EEF3"/>
<path d="M1.46302 1.68555L0.421875 3.18301L23.5634 19.0369L24.6045 17.5394L1.46302 1.68555Z" fill="#E9EEF3"/>
<path d="M1.82434 27.2393L0.783203 28.7367L23.5617 44.342L24.6028 42.8445L1.82434 27.2393Z" fill="#E9EEF3"/>
<path d="M35.9219 25.95H29.2402V16.6355H35.9219V25.95ZM31.0732 24.1305H34.0895V18.4544H31.0732V24.1305Z" fill="#E9EEF3"/>
<path d="M35.9219 39.5232H29.2402V30.2087H35.9219V39.5232ZM31.0732 37.7037H34.0895V32.0276H31.0732V37.7037Z" fill="#E9EEF3"/>
<path d="M47.425 13.7049H40.8213L32.5826 8.64525L24.5676 13.5694L23.6035 12.0224L32.5826 6.50562L41.3423 11.8861H47.425V13.7049Z" fill="#E9EEF3"/>
</g>
<defs>
<clipPath id="clip0_3133_1662">
<rect width="204" height="54" fill="white"/>
</clipPath>
</defs>
</svg>
